<svg width="637" height="590" viewBox="0 0 637 590" fill="none" xmlns="http://www.w3.org/2000/svg">
<path d="M350.704 191.768C333.975 182.911 315.278 177.991 295.597 177.991C263.124 177.991 233.602 190.784 211.954 212.432C191.289 234.081 178.496 262.619 178.496 295.092C178.496 327.565 191.289 357.087 211.954 377.752C233.602 399.401 263.124 412.193 295.597 412.193C315.278 412.193 333.975 407.273 350.704 398.416C366.448 390.544 379.241 378.736 390.065 364.959C393.017 361.023 394.001 358.071 397.938 355.119C404.826 347.246 413.682 340.358 423.523 335.438C435.331 329.533 448.124 326.581 461.9 326.581C471.741 326.581 481.581 328.549 491.422 332.486C498.31 334.454 505.198 338.39 511.102 342.326C517.007 346.262 521.927 351.182 528.815 355.119C532.751 358.071 537.672 360.039 542.592 362.007C549.48 364.959 557.352 365.943 565.225 365.943C584.906 365.943 602.618 358.071 615.411 345.278C628.203 332.486 636.076 314.773 636.076 295.092C636.076 275.411 628.203 257.698 615.411 244.906C602.618 232.113 584.906 224.241 565.225 224.241C557.352 224.241 549.48 226.209 542.592 228.177C537.672 230.145 532.751 232.113 528.815 235.065C521.927 239.002 517.007 243.922 511.102 248.842C505.198 252.778 498.31 255.73 491.422 258.682C481.581 261.635 471.741 263.603 461.9 263.603C448.124 263.603 435.331 260.651 423.523 254.746C413.682 249.826 404.826 243.922 397.938 236.049C394.001 232.113 393.017 229.161 390.065 225.225C379.241 211.448 366.448 199.64 350.704 191.768Z" fill="url(#paint0_linear_1369_584)" fill-opacity="0.02"/>
<path d="M415.649 416.108C440.25 392.491 478.627 392.491 503.229 416.108C526.846 440.709 526.846 479.087 503.229 503.688C475.675 531.241 443.202 551.906 406.792 567.651C371.367 581.427 333.973 589.3 294.612 589.3C213.92 589.3 140.117 556.826 86.9785 503.688C33.8403 450.55 0.382812 376.747 0.382812 295.071C0.382812 214.38 33.8403 140.577 86.9785 87.4382L90.9147 83.5021C143.069 32.3319 215.888 0.842529 294.612 0.842529C333.973 0.842529 371.367 8.71487 406.792 23.4755C443.202 38.2361 475.675 59.8851 503.229 87.4382C526.846 111.055 526.846 150.417 503.229 174.034C478.627 198.635 440.25 198.635 415.649 174.034C399.904 158.289 381.207 145.497 360.542 136.64C339.877 128.768 318.229 123.848 294.612 123.848C249.346 123.848 207.032 142.545 176.526 171.082L173.574 174.034C143.069 205.523 123.388 247.837 123.388 295.071C123.388 342.305 143.069 385.603 173.574 416.108C205.064 447.598 247.377 466.295 294.612 466.295C318.229 466.295 339.877 462.358 360.542 453.502C381.207 445.63 399.904 432.837 415.649 416.108Z" fill="#184297" fill-opacity="0.02"/>
<defs>
<linearGradient id="paint0_linear_1369_584" x1="636.311" y1="295.305" x2="178.114" y2="295.305" gradientUnits="userSpaceOnUse">
<stop stop-color="#00ADEF"/>
<stop offset="1" stop-color="#184297"/>
</linearGradient>
</defs>
</svg>
