<svg width="23" height="21" viewBox="0 0 23 21" fill="none" xmlns="http://www.w3.org/2000/svg">
<path d="M16.7744 19.6126V17.579C16.7744 16.5003 16.3653 15.4657 15.6371 14.703C14.9089 13.9402 13.9212 13.5117 12.8914 13.5117H5.12524C4.09539 13.5117 3.10772 13.9402 2.37951 14.703C1.65129 15.4657 1.24219 16.5003 1.24219 17.579V19.6126" stroke="white" stroke-linecap="round" stroke-linejoin="round"/>
<path d="M9.00805 9.4431C11.1526 9.4431 12.8911 7.62213 12.8911 5.37585C12.8911 3.12957 11.1526 1.30859 9.00805 1.30859C6.8635 1.30859 5.125 3.12957 5.125 5.37585C5.125 7.62213 6.8635 9.4431 9.00805 9.4431Z" stroke="white" stroke-linecap="round" stroke-linejoin="round"/>
<path d="M19.0391 3.30859V8.77344" stroke="white" stroke-linecap="round" stroke-linejoin="round"/>
<path d="M21.7695 6.03516H16.3047" stroke="white" stroke-linecap="round" stroke-linejoin="round"/>
</svg>
