<svg width="16" height="22" viewBox="0 0 16 22" fill="none" xmlns="http://www.w3.org/2000/svg">
<path fill-rule="evenodd" clip-rule="evenodd" d="M12.7642 1.35593H10.3532V0.552246H9.5495V1.35593H7.13845V0.552246H6.33476V1.35593H3.92372V0.552246H3.12003V1.35593H2.31428C1.4277 1.35593 0.708984 2.07102 0.708984 2.96618V19.8377C0.708984 20.7271 1.42501 21.448 2.31428 21.448H14.3737C15.2602 21.448 15.979 20.7329 15.979 19.8377V2.96618C15.979 2.07686 15.2629 1.35593 14.3737 1.35593H13.5679V0.552246H12.7642V1.35593ZM12.7642 2.15961H10.3532V2.96329H9.5495V2.15961H7.13845V2.96329H6.33476V2.15961H3.92372V2.96329H3.12003V2.15961H2.31632C1.87247 2.15961 1.51267 2.51236 1.51267 2.96576V19.8382C1.51267 20.2834 1.87811 20.6443 2.31632 20.6443H14.3716C14.8155 20.6443 15.1753 20.2916 15.1753 19.8382V2.96576C15.1753 2.52054 14.8098 2.15961 14.3716 2.15961H13.5679V2.96329H12.7642V2.15961ZM7.13845 7.78539V8.58907H13.5679V7.78539H7.13845ZM3.12003 6.98171V9.39276H5.53108V6.98171H3.12003ZM3.92372 7.78539V8.58907H4.7274V7.78539H3.92372ZM3.12003 11.0001V13.4112H5.53108V11.0001H3.12003ZM3.92372 11.8038V12.6075H4.7274V11.8038H3.92372ZM7.13845 11.8038V12.6075H13.5679V11.8038H7.13845ZM3.12003 15.0185V17.4296H5.53108V15.0185H3.12003ZM3.92372 15.8222V16.6259H4.7274V15.8222H3.92372ZM7.13845 15.8222V16.6259H13.5679V15.8222H7.13845Z" fill="white"/>
</svg>
