<svg width="16" height="22" viewBox="0 0 16 22" fill="none" xmlns="http://www.w3.org/2000/svg">
<path fill-rule="evenodd" clip-rule="evenodd" d="M12.7642 1.26218H10.3532V0.458496H9.5495V1.26218H7.13845V0.458496H6.33476V1.26218H3.92372V0.458496H3.12003V1.26218H2.31428C1.4277 1.26218 0.708984 1.97727 0.708984 2.87243V19.744C0.708984 20.6333 1.42501 21.3542 2.31428 21.3542H14.3737C15.2602 21.3542 15.979 20.6392 15.979 19.744V2.87243C15.979 1.98311 15.2629 1.26218 14.3737 1.26218H13.5679V0.458496H12.7642V1.26218ZM12.7642 2.06586H10.3532V2.86954H9.5495V2.06586H7.13845V2.86954H6.33476V2.06586H3.92372V2.86954H3.12003V2.06586H2.31632C1.87247 2.06586 1.51267 2.41861 1.51267 2.87201V19.7444C1.51267 20.1896 1.87811 20.5506 2.31632 20.5506H14.3716C14.8155 20.5506 15.1753 20.1978 15.1753 19.7444V2.87201C15.1753 2.42679 14.8098 2.06586 14.3716 2.06586H13.5679V2.86954H12.7642V2.06586ZM7.13845 7.69164V8.49532H13.5679V7.69164H7.13845ZM3.12003 6.88796V9.29901H5.53108V6.88796H3.12003ZM3.92372 7.69164V8.49532H4.7274V7.69164H3.92372ZM3.12003 10.9064V13.3174H5.53108V10.9064H3.12003ZM3.92372 11.7101V12.5137H4.7274V11.7101H3.92372ZM7.13845 11.7101V12.5137H13.5679V11.7101H7.13845ZM3.12003 14.9248V17.3358H5.53108V14.9248H3.12003ZM3.92372 15.7285V16.5322H4.7274V15.7285H3.92372ZM7.13845 15.7285V16.5322H13.5679V15.7285H7.13845Z" fill="#17459B"/>
</svg>
