<svg width="20" height="22" viewBox="0 0 20 22" fill="none" xmlns="http://www.w3.org/2000/svg">
<path d="M16.0871 14.4387C15.812 14.4387 15.5896 14.6616 15.5896 14.9363V18.8667C15.5896 19.6896 14.9199 20.3592 14.097 20.3592H3.15165C2.32876 20.3592 1.6591 19.6896 1.6591 18.8667V2.94609C1.6591 2.12319 2.32876 1.45353 3.15165 1.45353H14.097C14.8005 1.45353 15.3986 1.93165 15.5523 2.61673C15.612 2.88489 15.8762 3.05355 16.1463 2.99385C16.414 2.93365 16.5831 2.66797 16.5229 2.39981C16.2672 1.25701 15.2697 0.458496 14.097 0.458496H3.15165C1.78 0.458496 0.664062 1.57443 0.664062 2.94609V18.8667C0.664062 20.2383 1.78 21.3542 3.15165 21.3542H14.097C15.4687 21.3542 16.5846 20.2383 16.5846 18.8667V14.9363C16.5846 14.6616 16.3622 14.4387 16.0871 14.4387Z" fill="#17459B"/>
<path d="M19.5189 5.13806C19.416 4.75298 19.1692 4.43109 18.8239 4.23158L18.3931 3.98282C17.6801 3.57187 16.7662 3.81665 16.3537 4.5291L10.5596 14.5645C10.3681 14.8964 10.2542 15.275 10.2308 15.6596L10.1522 16.974C10.1298 17.3526 10.3198 17.7059 10.6482 17.8954C10.8034 17.985 10.9746 18.0297 11.1457 18.0297C11.3363 18.0297 11.5268 17.9745 11.6935 17.8641L12.792 17.1387C13.1134 16.9267 13.384 16.6392 13.5761 16.3063L19.3702 6.27091C19.5692 5.92563 19.6219 5.52363 19.5189 5.13806ZM12.7139 15.8088C12.599 16.0083 12.4358 16.1815 12.2437 16.3083L11.1452 17.0332L11.2238 15.7203C11.2378 15.4894 11.3064 15.262 11.4213 15.0625L16.2204 6.75051L17.513 7.49679L12.7139 15.8088ZM18.508 5.77339L18.0105 6.63509L16.7179 5.88881L17.2154 5.02711C17.3075 4.86741 17.4746 4.77835 17.6473 4.77835C17.7314 4.77835 17.8169 4.79975 17.895 4.84502L18.3259 5.09378C18.4408 5.16045 18.5229 5.26791 18.5577 5.39577C18.5926 5.52363 18.5742 5.65796 18.5075 5.77339H18.508Z" fill="#17459B"/>
<path d="M4.14693 4.43864H8.62459C8.89972 4.43864 9.12211 4.21575 9.12211 3.94112C9.12211 3.66649 8.89972 3.4436 8.62459 3.4436H4.14693C3.8718 3.4436 3.64941 3.66649 3.64941 3.94112C3.64941 4.21575 3.8718 4.43864 4.14693 4.43864Z" fill="#17459B"/>
<path d="M13.7441 6.92623C13.7441 6.6516 13.5217 6.42871 13.2465 6.42871H4.14693C3.8718 6.42871 3.64941 6.6516 3.64941 6.92623C3.64941 7.20086 3.8718 7.42375 4.14693 7.42375H13.2465C13.5217 7.42375 13.7441 7.20086 13.7441 6.92623Z" fill="#17459B"/>
<path d="M12.0177 9.91134C12.0177 9.63671 11.7953 9.41382 11.5201 9.41382H4.14693C3.8718 9.41382 3.64941 9.63671 3.64941 9.91134C3.64941 10.186 3.8718 10.4089 4.14693 10.4089H11.5201C11.7953 10.4089 12.0177 10.186 12.0177 9.91134Z" fill="#17459B"/>
<path d="M10.2963 12.8964C10.2963 12.6218 10.0739 12.3989 9.79874 12.3989H4.14693C3.8718 12.3989 3.64941 12.6218 3.64941 12.8964C3.64941 13.1711 3.8718 13.394 4.14693 13.394H9.79874C10.0739 13.394 10.2963 13.1711 10.2963 12.8964Z" fill="#17459B"/>
<path d="M8.39207 17.3741L7.96172 16.7303C7.77863 16.4482 7.46818 16.2795 7.13136 16.2795C6.79454 16.2795 6.48409 16.4477 6.30449 16.7253L6.24827 16.8094L6.06518 16.3517C5.91145 15.9726 5.54926 15.7273 5.14179 15.7273C4.73432 15.7273 4.37163 15.9726 4.2174 16.3537L3.68506 17.687C3.58307 17.9422 3.70744 18.2318 3.96267 18.3338C4.02337 18.3577 4.08556 18.3696 4.14725 18.3696C4.34427 18.3696 4.53133 18.2512 4.60944 18.0567L5.14278 16.7233L5.50199 17.6204C5.60448 17.8736 5.83682 18.0502 6.10847 18.0811C6.38409 18.1139 6.65126 17.99 6.81544 17.7547L7.13236 17.2776L7.71445 18.1482C7.80699 18.2865 7.96172 18.3691 8.12789 18.3691H8.80452C9.07964 18.3691 9.30203 18.1462 9.30203 17.8716C9.30203 17.597 9.07964 17.3741 8.80452 17.3741H8.39357H8.39207Z" fill="#17459B"/>
</svg>
