<svg width="20" height="22" viewBox="0 0 20 22" fill="none" xmlns="http://www.w3.org/2000/svg">
<path d="M16.0871 14.5325C15.812 14.5325 15.5896 14.7554 15.5896 15.03V18.9604C15.5896 19.7833 14.9199 20.453 14.097 20.453H3.15165C2.32876 20.453 1.6591 19.7833 1.6591 18.9604V3.03984C1.6591 2.21694 2.32876 1.54728 3.15165 1.54728H14.097C14.8005 1.54728 15.3986 2.0254 15.5523 2.71048C15.612 2.97864 15.8762 3.1473 16.1463 3.0876C16.414 3.0274 16.5831 2.76172 16.5229 2.49356C16.2672 1.35076 15.2697 0.552246 14.097 0.552246H3.15165C1.78 0.552246 0.664062 1.66818 0.664062 3.03984V18.9604C0.664062 20.3321 1.78 21.448 3.15165 21.448H14.097C15.4687 21.448 16.5846 20.3321 16.5846 18.9604V15.03C16.5846 14.7554 16.3622 14.5325 16.0871 14.5325Z" fill="white"/>
<path d="M19.5189 5.23181C19.416 4.84673 19.1692 4.52484 18.8239 4.32533L18.3931 4.07657C17.6801 3.66562 16.7662 3.9104 16.3537 4.62285L10.5596 14.6583C10.3681 14.9901 10.2542 15.3687 10.2308 15.7533L10.1522 17.0678C10.1298 17.4464 10.3198 17.7996 10.6482 17.9892C10.8034 18.0787 10.9746 18.1235 11.1457 18.1235C11.3363 18.1235 11.5268 18.0683 11.6935 17.9578L12.792 17.2324C13.1134 17.0205 13.384 16.7329 13.5761 16.4001L19.3702 6.36466C19.5692 6.01938 19.6219 5.61738 19.5189 5.23181ZM12.7139 15.9026C12.599 16.1021 12.4358 16.2752 12.2437 16.4021L11.1452 17.127L11.2238 15.814C11.2378 15.5832 11.3064 15.3558 11.4213 15.1563L16.2204 6.84426L17.513 7.59054L12.7139 15.9026ZM18.508 5.86714L18.0105 6.72884L16.7179 5.98256L17.2154 5.12086C17.3075 4.96116 17.4746 4.8721 17.6473 4.8721C17.7314 4.8721 17.8169 4.8935 17.895 4.93877L18.3259 5.18753C18.4408 5.2542 18.5229 5.36166 18.5577 5.48952C18.5926 5.61738 18.5742 5.75171 18.5075 5.86714H18.508Z" fill="white"/>
<path d="M4.14693 4.53239H8.62459C8.89972 4.53239 9.12211 4.3095 9.12211 4.03487C9.12211 3.76024 8.89972 3.53735 8.62459 3.53735H4.14693C3.8718 3.53735 3.64941 3.76024 3.64941 4.03487C3.64941 4.3095 3.8718 4.53239 4.14693 4.53239Z" fill="white"/>
<path d="M13.7441 7.01998C13.7441 6.74535 13.5217 6.52246 13.2465 6.52246H4.14693C3.8718 6.52246 3.64941 6.74535 3.64941 7.01998C3.64941 7.29461 3.8718 7.5175 4.14693 7.5175H13.2465C13.5217 7.5175 13.7441 7.29461 13.7441 7.01998Z" fill="white"/>
<path d="M12.0177 10.0051C12.0177 9.73046 11.7953 9.50757 11.5201 9.50757H4.14693C3.8718 9.50757 3.64941 9.73046 3.64941 10.0051C3.64941 10.2797 3.8718 10.5026 4.14693 10.5026H11.5201C11.7953 10.5026 12.0177 10.2797 12.0177 10.0051Z" fill="white"/>
<path d="M10.2963 12.9902C10.2963 12.7156 10.0739 12.4927 9.79874 12.4927H4.14693C3.8718 12.4927 3.64941 12.7156 3.64941 12.9902C3.64941 13.2648 3.8718 13.4877 4.14693 13.4877H9.79874C10.0739 13.4877 10.2963 13.2648 10.2963 12.9902Z" fill="white"/>
<path d="M8.39207 17.4678L7.96172 16.824C7.77863 16.5419 7.46818 16.3733 7.13136 16.3733C6.79454 16.3733 6.48409 16.5415 6.30449 16.8191L6.24827 16.9031L6.06518 16.4454C5.91145 16.0663 5.54926 15.821 5.14179 15.821C4.73432 15.821 4.37163 16.0663 4.2174 16.4474L3.68506 17.7808C3.58307 18.036 3.70744 18.3256 3.96267 18.4275C4.02337 18.4514 4.08556 18.4634 4.14725 18.4634C4.34427 18.4634 4.53133 18.345 4.60944 18.1504L5.14278 16.8171L5.50199 17.7141C5.60448 17.9673 5.83682 18.144 6.10847 18.1748C6.38409 18.2076 6.65126 18.0838 6.81544 17.8484L7.13236 17.3713L7.71445 18.242C7.80699 18.3803 7.96172 18.4629 8.12789 18.4629H8.80452C9.07964 18.4629 9.30203 18.24 9.30203 17.9653C9.30203 17.6907 9.07964 17.4678 8.80452 17.4678H8.39357H8.39207Z" fill="white"/>
</svg>
