<svg width="10" height="8" viewBox="0 0 10 8" fill="none" xmlns="http://www.w3.org/2000/svg">
<path d="M1.375 2.99414H5.3125V1.30664C5.3125 1.03439 5.52344 0.744141 5.875 0.744141C6.13431 0.744141 6.26594 0.905578 6.4375 1.04789L9.46094 3.55664C9.67637 3.7327 9.8125 3.86883 9.8125 4.11914C9.8125 4.36945 9.67637 4.50614 9.46094 4.68164L6.4375 7.19039C6.26594 7.3327 6.13431 7.49414 5.875 7.49414C5.52344 7.49414 5.3125 7.20389 5.3125 6.93164V5.24414H1.375C1.06563 5.24414 0.8125 4.99102 0.8125 4.68164V3.55664C0.8125 3.24727 1.06563 2.99414 1.375 2.99414Z" fill="#3A3D44"/>
</svg>
