<svg width="26" height="26" viewBox="0 0 26 26" fill="none" xmlns="http://www.w3.org/2000/svg">
<path fill-rule="evenodd" clip-rule="evenodd" d="M12.6408 14.3627V9.34116L10.7679 7.889C10.4015 7.604 10.8358 7.03399 11.2158 7.33256L12.9937 8.71687L14.7716 7.33256C15.1516 7.03399 15.5859 7.604 15.2194 7.889L13.3601 9.34116V14.3627H15.1923C15.1923 13.9827 15.2059 13.6298 15.233 13.2905C15.3009 12.4219 15.4366 11.5805 15.708 10.6305V10.6169C16.2102 8.90687 16.8752 8.01114 16.8752 6.81684C16.8752 4.67253 15.138 2.93536 12.9937 2.93536C10.8629 2.93536 9.12577 4.6861 9.12577 6.81684C9.12577 8.02472 9.81792 8.94759 10.3201 10.739C10.5779 11.6483 10.7001 12.4626 10.7544 13.3041C10.7815 13.6434 10.8087 13.9962 10.8087 14.3627H12.6408ZM15.1244 16.1677H10.8629C10.9579 16.3713 11.1615 16.507 11.3922 16.5205H11.4058H11.4194H14.568C14.8123 16.5205 15.0294 16.3713 15.1244 16.1677ZM10.8087 15.4484H15.1787V15.082H10.8087C10.8087 15.2041 10.8087 15.3262 10.8087 15.4484ZM14.5816 17.2398H11.4194C11.2022 17.2398 10.9987 17.1856 10.8087 17.0906C10.3879 16.8734 10.0894 16.4255 10.0894 15.9098C10.0894 14.1048 10.1165 12.7884 9.65506 11.0919H6.72359C6.16716 11.0919 5.7193 11.5533 5.7193 12.1098V19.7777C5.7193 20.3342 6.16716 20.7956 6.72359 20.7956H11.3108C11.4329 20.7956 11.5279 20.8363 11.5958 20.9313L14.3237 24.4464L17.0516 20.9313C17.1195 20.8363 17.228 20.7956 17.3366 20.7956H19.2638C19.8202 20.7956 20.2681 20.3342 20.2681 19.7777V12.1098C20.2681 11.5533 19.8202 11.0919 19.2638 11.0919H16.3187C16.2237 11.4583 16.1287 11.8519 16.0609 12.2862C15.9387 13.0598 15.9116 13.7927 15.898 14.6069V14.6612C15.898 14.6884 15.898 14.702 15.898 14.7291V15.9098C15.898 16.6427 15.3009 17.2398 14.5816 17.2398ZM9.45149 10.3726C8.97648 8.93401 8.3929 8.06543 8.3929 6.81684C8.3929 4.27895 10.4558 2.21606 12.9937 2.21606C15.5316 2.21606 17.5945 4.27895 17.5945 6.81684C17.5945 8.02472 17.0244 8.94759 16.5359 10.3726H19.2638C20.2138 10.3726 21.0009 11.1462 21.0009 12.1098V19.7777C21.0009 20.7277 20.2138 21.5013 19.2638 21.5013H17.5266L14.6223 25.2335C14.5544 25.3285 14.4458 25.3828 14.3373 25.3828C14.2151 25.3828 14.1201 25.3285 14.0523 25.2335L11.1479 21.5013H6.73717C5.77358 21.5013 5 20.7277 5 19.7777V12.1098C5 11.1462 5.77358 10.3726 6.73717 10.3726H9.45149Z" fill="#17459B"/>
</svg>
