<svg width="23" height="22" viewBox="0 0 23 22" fill="none" xmlns="http://www.w3.org/2000/svg">
<path d="M19.6603 19.2591C20.1263 19.0249 20.5426 18.7465 20.9108 18.4179C21.302 18.0669 21.6388 17.6613 21.9104 17.2141V14.6759C21.6619 14.6144 21.4349 14.4878 21.2537 14.3094C21.0724 14.131 20.9437 13.9077 20.8812 13.663H18.4391C18.3765 13.9075 18.2477 14.1308 18.0666 14.3091C17.8854 14.4875 17.6585 14.6142 17.4101 14.6759V17.2141C17.6817 17.6613 18.0185 18.0669 18.4098 18.4179C18.7779 18.7466 19.1944 19.0251 19.6603 19.2591ZM21.3699 18.9174C20.9209 19.3182 20.4105 19.6514 19.8367 19.9253C19.788 19.954 19.7327 19.9704 19.676 19.9729C19.6192 19.9755 19.5627 19.9641 19.5115 19.9399L19.5122 19.9387C18.9268 19.6622 18.4071 19.3248 17.9506 18.9174C17.4978 18.5132 17.1092 18.0424 16.7829 17.4965C16.7436 17.4402 16.7226 17.3735 16.7227 17.3052V14.3789C16.7227 14.3345 16.7315 14.2905 16.7488 14.2494C16.7661 14.2084 16.7914 14.1711 16.8233 14.1397C16.8553 14.1082 16.8932 14.0833 16.9349 14.0663C16.9766 14.0493 17.0213 14.0406 17.0664 14.0406C17.162 14.0407 17.2566 14.0222 17.3449 13.9863C17.4333 13.9503 17.5135 13.8976 17.5811 13.8311C17.6486 13.7646 17.7022 13.6857 17.7388 13.5988C17.7753 13.5119 17.7941 13.4187 17.794 13.3247C17.794 13.2802 17.8029 13.2362 17.8201 13.1952C17.8374 13.1541 17.8627 13.1168 17.8947 13.0854C17.9266 13.054 17.9645 13.0291 18.0062 13.0121C18.0479 12.9951 18.0926 12.9863 18.1378 12.9863H21.1831C21.2283 12.9863 21.273 12.9951 21.3147 13.0121C21.3564 13.0291 21.3943 13.054 21.4262 13.0854C21.4582 13.1168 21.4835 13.1541 21.5008 13.1952C21.518 13.2362 21.5269 13.2802 21.5269 13.3247C21.5269 13.4187 21.5457 13.5118 21.5822 13.5987C21.6187 13.6856 21.6723 13.7645 21.7399 13.831C21.8074 13.8975 21.8876 13.9502 21.9759 13.9862C22.0642 14.0221 22.1588 14.0406 22.2543 14.0406C22.2995 14.0406 22.3442 14.0493 22.3859 14.0663C22.4276 14.0833 22.4655 14.1082 22.4974 14.1397C22.5294 14.1711 22.5547 14.2084 22.572 14.2494C22.5892 14.2905 22.5981 14.3345 22.5981 14.3789V17.3052C22.5981 17.365 22.582 17.4238 22.5513 17.4755L22.5506 17.4752C22.2216 18.0303 21.8287 18.508 21.3702 18.9174H21.3699Z" fill="white"/>
<path d="M18.8718 16.324C18.8073 16.2606 18.7199 16.225 18.6288 16.225C18.5377 16.225 18.4503 16.2607 18.3858 16.3241C18.3214 16.3875 18.2852 16.4735 18.2852 16.5632C18.2851 16.6529 18.3213 16.7389 18.3857 16.8024L19.0157 17.4223C19.0802 17.4858 19.1676 17.5214 19.2588 17.5214C19.35 17.5214 19.4374 17.4858 19.5019 17.4223L19.506 17.4182L20.9299 16.0168C20.9943 15.9534 21.0305 15.8673 21.0305 15.7777C21.0304 15.688 20.9942 15.602 20.9298 15.5385C20.8653 15.4751 20.7779 15.4395 20.6868 15.4395C20.5957 15.4394 20.5083 15.475 20.4438 15.5384L19.2588 16.7047L18.8718 16.3238V16.324Z" fill="white"/>
<path d="M7.26279 12.0302C7.35397 12.0302 7.44141 11.9946 7.50589 11.9311C7.57036 11.8677 7.60658 11.7816 7.60658 11.6919C7.60658 11.6021 7.57036 11.5161 7.50589 11.4526C7.44141 11.3892 7.35397 11.3535 7.26279 11.3535H5.8063C4.37379 11.3535 3.07146 11.9302 2.12749 12.8591C1.18353 13.788 0.597656 15.0698 0.597656 16.4796V21.2676C0.597656 21.312 0.606548 21.356 0.623825 21.3971C0.641102 21.4381 0.666426 21.4754 0.69835 21.5068C0.730273 21.5382 0.768172 21.5632 0.809883 21.5802C0.851593 21.5972 0.896297 21.6059 0.941444 21.6059C0.986591 21.6059 1.0313 21.5972 1.07301 21.5802C1.11472 21.5632 1.15262 21.5382 1.18454 21.5068C1.21646 21.4754 1.24179 21.4381 1.25906 21.3971C1.27634 21.356 1.28523 21.312 1.28523 21.2676V16.4796C1.28523 15.2565 1.79402 14.1442 2.61359 13.3375C3.43317 12.5309 4.5634 12.0302 5.8063 12.0302H7.26279ZM19.316 21.2677C19.316 21.3574 19.3522 21.4435 19.4167 21.507C19.4812 21.5704 19.5686 21.6061 19.6598 21.6061C19.751 21.6061 19.8384 21.5704 19.9029 21.507C19.9674 21.4435 20.0036 21.3574 20.0036 21.2677V19.6348C20.0036 19.5451 19.9674 19.459 19.9029 19.3956C19.8384 19.3321 19.751 19.2965 19.6598 19.2965C19.5686 19.2965 19.4812 19.3321 19.4167 19.3956C19.3522 19.459 19.316 19.5451 19.316 19.6348V21.2677ZM18.188 13.5479C18.2177 13.5813 18.2539 13.6087 18.2944 13.6283C18.335 13.648 18.379 13.6596 18.4241 13.6624C18.4692 13.6653 18.5144 13.6594 18.5572 13.645C18.5999 13.6307 18.6394 13.6082 18.6733 13.5788C18.7072 13.5494 18.7349 13.5137 18.7548 13.4738C18.7746 13.4339 18.7863 13.3905 18.7891 13.3461C18.792 13.3017 18.7858 13.2573 18.7712 13.2152C18.7565 13.1732 18.7335 13.1344 18.7036 13.1011C18.2131 12.5522 17.6099 12.1118 16.9339 11.8091C16.2622 11.5084 15.5328 11.3531 14.7949 11.3535H13.3307C13.2856 11.3535 13.2409 11.3623 13.1992 11.3793C13.1574 11.3963 13.1195 11.4212 13.0876 11.4526C13.0557 11.484 13.0304 11.5213 13.0131 11.5624C12.9958 11.6034 12.9869 11.6474 12.9869 11.6919C12.9869 11.7363 12.9958 11.7803 13.0131 11.8213C13.0304 11.8624 13.0557 11.8997 13.0876 11.9311C13.1195 11.9625 13.1574 11.9875 13.1992 12.0045C13.2409 12.0215 13.2856 12.0302 13.3307 12.0302H14.7949C15.4355 12.0296 16.0687 12.1642 16.6519 12.4249C17.2388 12.6881 17.7623 13.0708 18.188 13.5478V13.5479Z" fill="white"/>
<path d="M14.8103 7.10632C14.8006 7.0631 14.7823 7.02219 14.7566 6.98591C14.7308 6.94964 14.698 6.91872 14.6601 6.89491C14.6222 6.8711 14.5799 6.85487 14.5356 6.84715C14.4913 6.83944 14.446 6.84038 14.402 6.84992C14.3581 6.85947 14.3166 6.87743 14.2797 6.90279C14.2428 6.92815 14.2114 6.9604 14.1872 6.99771C14.163 7.03502 14.1466 7.07665 14.1387 7.12023C14.1309 7.16381 14.1318 7.20849 14.1415 7.2517C14.1797 7.42119 14.2208 7.48488 14.259 7.54425C14.2878 7.58903 14.3117 7.62595 14.3117 8.61156C14.3117 9.40091 13.7481 10.7112 12.8646 11.7153C12.1998 12.4708 11.36 13.0381 10.4626 13.0381C10.2295 13.0383 9.99709 13.0145 9.76909 12.9669C9.53921 12.9185 9.31504 12.8468 9.1002 12.7529C8.36648 12.4332 7.73948 11.864 7.29902 11.1358C6.86654 10.4209 6.61338 9.55162 6.61338 8.61156C6.61144 7.97784 6.73101 7.34944 6.9658 6.75934C7.20015 6.17577 7.54084 5.66146 7.95888 5.24915C7.99063 5.21774 8.01578 5.18048 8.0329 5.1395C8.05001 5.09852 8.05876 5.05463 8.05864 5.01032C8.05852 4.96601 8.04954 4.92216 8.0322 4.88128C8.01486 4.84039 7.98951 4.80326 7.95759 4.77201C7.92567 4.74077 7.88782 4.71601 7.84618 4.69917C7.80454 4.68232 7.75994 4.67371 7.71492 4.67383C7.6699 4.67395 7.62535 4.68279 7.5838 4.69985C7.54225 4.71692 7.50453 4.74187 7.47278 4.77328C6.98797 5.25143 6.59481 5.84338 6.32669 6.51082C6.05999 7.17997 5.92398 7.89264 5.9258 8.61143C5.9258 9.67265 6.21558 10.6608 6.7107 11.4793C7.22477 12.3292 7.96017 12.9951 8.82357 13.3713C9.08153 13.4838 9.35066 13.5698 9.62665 13.6276C9.90139 13.6854 10.1815 13.7145 10.4625 13.7147C11.5856 13.7147 12.5998 13.0465 13.3828 12.1567C14.3697 11.0352 14.9991 9.53564 14.9991 8.61156C14.9991 7.43007 14.9268 7.31818 14.8389 7.18205C14.8301 7.16848 14.8207 7.15389 14.81 7.10632H14.8103Z" fill="white"/>
<path d="M7.24774 2.18265L7.24787 2.18252L7.24671 2.18138C7.25393 2.17504 7.26127 2.1692 7.26888 2.16349C8.18346 1.339 9.14096 0.891679 10.076 0.752889C11.136 0.595578 12.1612 0.833194 13.0603 1.36653C13.9447 1.89112 14.7058 2.7033 15.2539 3.70578C15.9569 4.99168 16.3111 6.59486 16.1253 8.30639L16.126 8.30664C16.1187 8.37394 16.0911 8.43752 16.0466 8.48919C16.0022 8.54085 15.9431 8.57822 15.8769 8.59646C15.8106 8.61469 15.7404 8.61296 15.6752 8.59149C15.6099 8.57002 15.5528 8.52979 15.511 8.47601C14.1592 6.8817 12.2344 6.76169 10.6448 6.66273C8.88727 6.55338 7.48634 6.46584 7.32199 4.73338C7.2373 4.45859 6.70698 2.65395 7.24696 2.18151L7.24774 2.1824V2.18265ZM10.1781 1.42172C9.37041 1.54148 8.53678 1.93387 7.73152 2.65966C7.72278 2.66936 7.71344 2.67851 7.70354 2.68706L7.70329 2.68681C7.46984 2.89182 7.92217 4.3585 7.98185 4.54791C7.99344 4.57779 8.00065 4.60914 8.00325 4.64103L7.66062 4.66855L8.00299 4.64217C8.10147 5.82809 9.24756 5.89952 10.6876 5.98908C12.2131 6.08398 14.0235 6.19689 15.4877 7.48228C15.5007 6.19854 15.1871 5.00906 14.6496 4.02586C14.1601 3.13045 13.4856 2.40821 12.7057 1.94554C11.9406 1.49175 11.0721 1.28902 10.178 1.42172H10.1781Z" fill="white"/>
<path d="M7.47556 2.76974C7.52053 2.76957 7.56502 2.76068 7.6065 2.74358C7.64798 2.72648 7.68563 2.70151 7.7173 2.67009C7.74898 2.63867 7.77405 2.60142 7.7911 2.56047C7.80814 2.51951 7.81682 2.47565 7.81664 2.4314C7.81647 2.38714 7.80743 2.34335 7.79006 2.30253C7.77269 2.26171 7.74731 2.22465 7.71539 2.19348C7.68347 2.16231 7.64562 2.13763 7.604 2.12086C7.56239 2.10408 7.51782 2.09554 7.47285 2.09571C7.46241 2.09571 3.75937 2.04827 5.94302 8.71435C5.95669 8.75662 5.97871 8.79581 6.0078 8.8297C6.03688 8.86358 6.07248 8.89148 6.11254 8.91181C6.15261 8.93214 6.19635 8.94448 6.24127 8.94815C6.28619 8.95181 6.3314 8.94672 6.37431 8.93317C6.41723 8.91961 6.45701 8.89785 6.49137 8.86915C6.52573 8.84044 6.554 8.80534 6.57456 8.76587C6.59512 8.72639 6.60757 8.68332 6.61119 8.6391C6.61481 8.59488 6.60953 8.5504 6.59566 8.50819C4.70167 2.72623 7.4677 2.76974 7.47543 2.76974H7.47556Z" fill="white"/>
<path d="M17.1361 12.3737C17.1658 12.3403 17.1885 12.3014 17.2029 12.2592C17.2173 12.2171 17.2231 12.1726 17.2199 12.1283C17.2168 12.084 17.2048 12.0407 17.1846 12.0009C17.1644 11.9612 17.1364 11.9257 17.1023 11.8967C17.0682 11.8676 17.0285 11.8454 16.9856 11.8315C16.9428 11.8176 16.8975 11.8121 16.8525 11.8154C16.8075 11.8187 16.7636 11.8307 16.7233 11.8508C16.683 11.8709 16.6471 11.8986 16.6178 11.9324L10.3026 19.129L3.98744 11.9324C3.92782 11.8652 3.84363 11.8241 3.75326 11.8179C3.66289 11.8117 3.5737 11.8409 3.50519 11.8993C3.43669 11.9576 3.39443 12.0403 3.38767 12.1292C3.38092 12.2181 3.4102 12.306 3.46912 12.3737L10.0257 19.8454C10.0564 19.8863 10.096 19.9198 10.1416 19.9436C10.1872 19.9674 10.2377 19.9808 10.2892 19.9828C10.3408 19.9848 10.3922 19.9753 10.4396 19.9551C10.4869 19.9349 10.5291 19.9045 10.5629 19.8661L10.5621 19.8654L17.1362 12.3737H17.1361Z" fill="white"/>
<path d="M7.77664 17.0824C7.76751 17.1258 7.76717 17.1706 7.77565 17.2142C7.78414 17.2577 7.80127 17.2992 7.82608 17.3363C7.85088 17.3733 7.88287 17.4051 7.92021 17.43C7.95754 17.4548 7.9995 17.4722 8.04366 17.4811C8.08782 17.4899 8.13333 17.4901 8.17757 17.4816C8.22181 17.4732 8.26392 17.4562 8.30148 17.4317C8.33904 17.4071 8.37131 17.3756 8.39645 17.3387C8.42159 17.3019 8.4391 17.2606 8.44798 17.2171L9.30429 13.1321C9.32215 13.0446 9.30403 12.9537 9.2539 12.8793C9.20377 12.8049 9.12572 12.7531 9.03687 12.7353C8.94801 12.7175 8.8556 12.7351 8.77989 12.7842C8.70417 12.8333 8.65133 12.9099 8.63295 12.9973L7.77664 17.0824Z" fill="white"/>
<path d="M12.4201 16.9188C12.4292 16.9622 12.447 17.0034 12.4723 17.0401C12.4977 17.0767 12.5301 17.1081 12.5678 17.1324C12.6054 17.1567 12.6476 17.1734 12.6918 17.1817C12.7361 17.19 12.7815 17.1896 12.8256 17.1806C12.8697 17.1715 12.9116 17.1541 12.9488 17.1291C12.986 17.1042 13.0179 17.0723 13.0426 17.0352C13.0673 16.9981 13.0843 16.9567 13.0927 16.9131C13.1011 16.8696 13.1007 16.8248 13.0915 16.7814L12.2685 12.8801C12.25 12.7925 12.1968 12.7157 12.1208 12.6666C12.0447 12.6175 11.952 12.6002 11.863 12.6184C11.7739 12.6366 11.6959 12.6889 11.646 12.7637C11.5961 12.8386 11.5785 12.9299 11.597 13.0175L12.4201 16.9188Z" fill="white"/>
<path d="M0.941445 20.9316C0.850266 20.9316 0.762822 20.9673 0.69835 21.0307C0.633877 21.0942 0.597656 21.1803 0.597656 21.27C0.597656 21.3597 0.633877 21.4458 0.69835 21.5092C0.762822 21.5727 0.850266 21.6083 0.941445 21.6083H19.6598C19.751 21.6083 19.8384 21.5727 19.9029 21.5092C19.9674 21.4458 20.0036 21.3597 20.0036 21.27C20.0036 21.1803 19.9674 21.0942 19.9029 21.0307C19.8384 20.9673 19.751 20.9316 19.6598 20.9316H0.941445Z" fill="white"/>
</svg>
