<svg width="23" height="22" viewBox="0 0 23 22" fill="none" xmlns="http://www.w3.org/2000/svg">
<path d="M19.4879 19.1029C19.9539 18.8687 20.3702 18.5902 20.7384 18.2616C21.1296 17.9106 21.4665 17.5051 21.7381 17.0578V14.5197C21.4895 14.4582 21.2625 14.3315 21.0813 14.1531C20.9001 13.9748 20.7714 13.7514 20.7089 13.5068H18.2668C18.2041 13.7513 18.0754 13.9746 17.8942 14.1529C17.713 14.3312 17.4862 14.4579 17.2377 14.5197V17.0578C17.5093 17.5051 17.8462 17.9106 18.2374 18.2616C18.6055 18.5903 19.022 18.8688 19.4879 19.1029ZM21.1976 18.7611C20.7486 19.162 20.2381 19.4951 19.6644 19.769C19.6156 19.7978 19.5604 19.8141 19.5036 19.8167C19.4469 19.8192 19.3903 19.8079 19.3391 19.7836L19.3398 19.7825C18.7544 19.5059 18.2347 19.1686 17.7782 18.7611C17.3254 18.3569 16.9369 17.8861 16.6105 17.3402C16.5712 17.2839 16.5502 17.2172 16.5503 17.1489V14.2227C16.5503 14.1782 16.5592 14.1342 16.5765 14.0932C16.5937 14.0521 16.6191 14.0148 16.651 13.9834C16.6829 13.952 16.7208 13.9271 16.7625 13.9101C16.8042 13.8931 16.8489 13.8843 16.8941 13.8843C16.9896 13.8844 17.0843 13.866 17.1726 13.83C17.2609 13.7941 17.3411 13.7414 17.4087 13.6749C17.4763 13.6084 17.5299 13.5294 17.5664 13.4425C17.6029 13.3556 17.6217 13.2625 17.6216 13.1684C17.6216 13.124 17.6305 13.08 17.6478 13.0389C17.6651 12.9979 17.6904 12.9606 17.7223 12.9292C17.7542 12.8978 17.7921 12.8728 17.8338 12.8558C17.8756 12.8388 17.9203 12.8301 17.9654 12.8301H21.0108C21.0559 12.8301 21.1006 12.8388 21.1423 12.8558C21.1841 12.8728 21.222 12.8978 21.2539 12.9292C21.2858 12.9606 21.3111 12.9979 21.3284 13.0389C21.3457 13.08 21.3546 13.124 21.3546 13.1684C21.3545 13.2625 21.3733 13.3556 21.4098 13.4424C21.4464 13.5293 21.4999 13.6083 21.5675 13.6748C21.6351 13.7412 21.7153 13.794 21.8035 13.8299C21.8918 13.8659 21.9864 13.8844 22.082 13.8843C22.1271 13.8843 22.1718 13.8931 22.2135 13.9101C22.2552 13.9271 22.2931 13.952 22.3251 13.9834C22.357 14.0148 22.3823 14.0521 22.3996 14.0932C22.4169 14.1342 22.4258 14.1782 22.4258 14.2227V17.1489C22.4258 17.2088 22.4096 17.2676 22.379 17.3193L22.3782 17.3189C22.0492 17.8741 21.6563 18.3517 21.1978 18.7611H21.1976Z" fill="#17459B"/>
<path d="M18.7019 16.167C18.6374 16.1036 18.55 16.068 18.4589 16.068C18.3677 16.068 18.2803 16.1037 18.2159 16.1671C18.1515 16.2305 18.1153 16.3165 18.1152 16.4062C18.1152 16.4959 18.1514 16.5819 18.2158 16.6454L18.8457 17.2654C18.9102 17.3288 18.9977 17.3644 19.0889 17.3644C19.18 17.3644 19.2675 17.3288 19.332 17.2654L19.3361 17.2612L20.76 15.8598C20.8244 15.7964 20.8606 15.7104 20.8605 15.6207C20.8605 15.531 20.8243 15.445 20.7599 15.3816C20.6954 15.3181 20.608 15.2825 20.5169 15.2825C20.4258 15.2824 20.3383 15.318 20.2739 15.3814L19.0889 16.5477L18.7019 16.1668V16.167Z" fill="#17459B"/>
<path d="M7.09092 11.8742C7.1821 11.8742 7.26954 11.8386 7.33401 11.7751C7.39849 11.7117 7.43471 11.6256 7.43471 11.5359C7.43471 11.4461 7.39849 11.3601 7.33401 11.2966C7.26954 11.2332 7.1821 11.1975 7.09092 11.1975H5.63443C4.20191 11.1975 2.89959 11.7742 1.95562 12.7031C1.01165 13.632 0.425781 14.9137 0.425781 16.3236V21.1116C0.425781 21.156 0.434673 21.2 0.45195 21.2411C0.469227 21.2821 0.494551 21.3194 0.526475 21.3508C0.558398 21.3822 0.596297 21.4072 0.638008 21.4242C0.679718 21.4412 0.724422 21.4499 0.769569 21.4499C0.814716 21.4499 0.859421 21.4412 0.901132 21.4242C0.942842 21.4072 0.980741 21.3822 1.01266 21.3508C1.04459 21.3194 1.06991 21.2821 1.08719 21.2411C1.10447 21.2 1.11336 21.156 1.11336 21.1116V16.3236C1.11336 15.1005 1.62214 13.9881 2.44172 13.1815C3.26129 12.3749 4.39153 11.8742 5.63443 11.8742H7.09092ZM19.1441 21.1117C19.1441 21.2014 19.1804 21.2875 19.2448 21.3509C19.3093 21.4144 19.3967 21.45 19.4879 21.45C19.5791 21.45 19.6665 21.4144 19.731 21.3509C19.7955 21.2875 19.8317 21.2014 19.8317 21.1117V19.4788C19.8317 19.3891 19.7955 19.303 19.731 19.2396C19.6665 19.1761 19.5791 19.1405 19.4879 19.1405C19.3967 19.1405 19.3093 19.1761 19.2448 19.2396C19.1804 19.303 19.1441 19.3891 19.1441 19.4788V21.1117ZM18.0161 13.3919C18.0459 13.4253 18.0821 13.4526 18.1226 13.4723C18.1631 13.492 18.2072 13.5036 18.2522 13.5064C18.2973 13.5093 18.3425 13.5034 18.3853 13.489C18.4281 13.4747 18.4675 13.4522 18.5014 13.4228C18.5353 13.3934 18.563 13.3577 18.5829 13.3178C18.6028 13.2779 18.6145 13.2345 18.6173 13.1901C18.6201 13.1457 18.614 13.1013 18.5993 13.0592C18.5846 13.0172 18.5616 12.9784 18.5317 12.9451C18.0412 12.3961 17.438 11.9558 16.762 11.6531C16.0903 11.3524 15.3609 11.1971 14.6231 11.1975H13.1588C13.1137 11.1975 13.069 11.2063 13.0273 11.2233C12.9856 11.2403 12.9477 11.2652 12.9157 11.2966C12.8838 11.328 12.8585 11.3653 12.8412 11.4064C12.8239 11.4474 12.8151 11.4914 12.8151 11.5359C12.8151 11.5803 12.8239 11.6243 12.8412 11.6653C12.8585 11.7064 12.8838 11.7437 12.9157 11.7751C12.9477 11.8065 12.9856 11.8314 13.0273 11.8485C13.069 11.8655 13.1137 11.8742 13.1588 11.8742H14.6231C15.2636 11.8736 15.8969 12.0082 16.4801 12.2689C17.0669 12.5321 17.5905 12.9148 18.0161 13.3918V13.3919Z" fill="#17459B"/>
<path d="M14.6389 6.95251C14.6292 6.90929 14.6109 6.86838 14.5852 6.8321C14.5594 6.79583 14.5266 6.76491 14.4887 6.7411C14.4508 6.71729 14.4085 6.70106 14.3642 6.69335C14.32 6.68563 14.2746 6.68657 14.2307 6.69611C14.1867 6.70566 14.1452 6.72363 14.1083 6.74898C14.0715 6.77434 14.04 6.8066 14.0158 6.8439C13.9917 6.88121 13.9752 6.92285 13.9673 6.96642C13.9595 7.01 13.9604 7.05468 13.9701 7.09789C14.0083 7.26738 14.0494 7.33107 14.0876 7.39044C14.1164 7.43523 14.1403 7.47214 14.1403 8.45775C14.1403 9.2471 13.5767 10.5574 12.6932 11.5615C12.0285 12.317 11.1886 12.8843 10.2912 12.8843C10.0581 12.8845 9.8257 12.8607 9.5977 12.8131C9.36782 12.7647 9.14366 12.693 8.92881 12.5991C8.19509 12.2794 7.5681 11.7102 7.12763 10.982C6.69516 10.2671 6.44199 9.39782 6.44199 8.45775C6.44005 7.82403 6.55962 7.19563 6.79441 6.60553C7.02876 6.02196 7.36946 5.50765 7.78749 5.09534C7.81924 5.06393 7.84439 5.02667 7.86151 4.98569C7.87863 4.94471 7.88738 4.90082 7.88726 4.85651C7.88714 4.8122 7.87815 4.76836 7.86081 4.72747C7.84347 4.68658 7.81812 4.64945 7.7862 4.61821C7.75429 4.58696 7.71643 4.56221 7.67479 4.54536C7.63315 4.52851 7.58855 4.5199 7.54353 4.52002C7.49851 4.52014 7.45396 4.52898 7.41241 4.54605C7.37087 4.56311 7.33314 4.58806 7.30139 4.61947C6.81658 5.09762 6.42343 5.68957 6.15531 6.35701C5.8886 7.02616 5.75259 7.73883 5.75441 8.45763C5.75441 9.51884 6.04419 10.507 6.53931 11.3255C7.05338 12.1754 7.78878 12.8413 8.65218 13.2174C8.91014 13.33 9.17928 13.416 9.45526 13.4738C9.73001 13.5315 10.0101 13.5607 10.2911 13.5609C11.4142 13.5609 12.4284 12.8927 13.2114 12.0028C14.1983 10.8814 14.8277 9.38183 14.8277 8.45775C14.8277 7.27627 14.7554 7.16437 14.6675 7.02824C14.6587 7.01467 14.6493 7.00008 14.6386 6.95251H14.6389Z" fill="#17459B"/>
<path d="M7.07611 2.02762L7.07624 2.02749L7.07508 2.02635C7.08229 2.02001 7.08964 2.01417 7.09725 2.00846C8.01182 1.18397 8.96933 0.736649 9.9044 0.59786C10.9644 0.440548 11.9896 0.678165 12.8887 1.2115C13.7731 1.73609 14.5341 2.54827 15.0822 3.55075C15.7853 4.83665 16.1395 6.43983 15.9536 8.15136L15.9544 8.15161C15.9471 8.21891 15.9194 8.2825 15.875 8.33416C15.8306 8.38582 15.7714 8.42319 15.7052 8.44143C15.639 8.45966 15.5687 8.45793 15.5035 8.43646C15.4383 8.41499 15.3811 8.37476 15.3394 8.32098C13.9876 6.72667 12.0628 6.60666 10.4731 6.5077C8.71564 6.39835 7.31471 6.31081 7.15036 4.57835C7.06567 4.30356 6.53535 2.49892 7.07533 2.02648L7.07611 2.02737V2.02762ZM10.0065 1.26669C9.19878 1.38645 8.36515 1.77884 7.55989 2.50463C7.55115 2.51433 7.54181 2.52348 7.53191 2.53203L7.53166 2.53178C7.29821 2.73679 7.75054 4.20347 7.81022 4.39288C7.82181 4.42276 7.82902 4.45411 7.83162 4.486L7.48899 4.51353L7.83136 4.48714C7.92984 5.67306 9.07593 5.74449 10.5159 5.83405C12.0415 5.92895 13.8518 6.04186 15.3161 7.32725C15.3291 6.04351 15.0155 4.85403 14.4779 3.87083C13.9885 2.97542 13.3139 2.25318 12.5341 1.79051C11.769 1.33672 10.9004 1.13399 10.0064 1.26669H10.0065Z" fill="#17459B"/>
<path d="M7.30466 2.61593C7.34963 2.61576 7.39413 2.60687 7.4356 2.58977C7.47708 2.57267 7.51473 2.5477 7.5464 2.51628C7.57808 2.48486 7.60315 2.44761 7.6202 2.40666C7.63724 2.3657 7.64592 2.32184 7.64574 2.27759C7.64557 2.23333 7.63653 2.18954 7.61916 2.14872C7.60179 2.1079 7.57641 2.07084 7.54449 2.03967C7.51257 2.0085 7.47472 1.98382 7.4331 1.96705C7.39149 1.95027 7.34693 1.94173 7.30196 1.9419C7.29152 1.9419 3.58848 1.89446 5.77212 8.56054C5.78579 8.60281 5.80781 8.64201 5.8369 8.67589C5.86599 8.70977 5.90158 8.73768 5.94164 8.758C5.98171 8.77833 6.02545 8.79068 6.07037 8.79434C6.11529 8.79801 6.1605 8.79291 6.20341 8.77936C6.24633 8.7658 6.28611 8.74405 6.32047 8.71534C6.35483 8.68663 6.3831 8.65154 6.40366 8.61206C6.42422 8.57259 6.43667 8.52951 6.44029 8.48529C6.44391 8.44108 6.43863 8.39659 6.42476 8.35439C4.53077 2.57242 7.2968 2.61593 7.30453 2.61593H7.30466Z" fill="#17459B"/>
<path d="M16.9623 12.2192C16.992 12.1857 17.0147 12.1468 17.0291 12.1047C17.0435 12.0626 17.0493 12.0181 17.0461 11.9737C17.043 11.9294 17.031 11.8861 17.0108 11.8464C16.9906 11.8066 16.9626 11.7712 16.9285 11.7421C16.8943 11.7131 16.8547 11.6909 16.8118 11.677C16.7689 11.663 16.7237 11.6575 16.6787 11.6609C16.6336 11.6642 16.5897 11.6762 16.5494 11.6963C16.5092 11.7164 16.4733 11.7441 16.4439 11.7778L10.1288 18.9744L3.81362 11.7778C3.754 11.7107 3.6698 11.6695 3.57943 11.6633C3.48906 11.6571 3.39987 11.6864 3.33136 11.7447C3.26286 11.8031 3.22061 11.8857 3.21385 11.9746C3.20709 12.0635 3.23637 12.1515 3.29529 12.2192L9.85189 19.6908C9.88253 19.7317 9.92213 19.7653 9.96774 19.7891C10.0134 19.8129 10.0638 19.8263 10.1154 19.8282C10.167 19.8302 10.2184 19.8208 10.2657 19.8006C10.3131 19.7804 10.3552 19.7499 10.389 19.7115L10.3883 19.7109L16.9624 12.2192H16.9623Z" fill="#17459B"/>
<path d="M7.60184 16.9259C7.5927 16.9693 7.59237 17.0141 7.60085 17.0577C7.60933 17.1012 7.62647 17.1427 7.65127 17.1798C7.67608 17.2168 7.70807 17.2486 7.7454 17.2735C7.78274 17.2983 7.82469 17.3157 7.86885 17.3246C7.91302 17.3334 7.95852 17.3336 8.00277 17.3251C8.04701 17.3167 8.08912 17.2997 8.12667 17.2752C8.16423 17.2506 8.19651 17.2191 8.22165 17.1823C8.24679 17.1454 8.26429 17.1041 8.27317 17.0606L9.12948 12.9756C9.14734 12.8881 9.12922 12.7972 9.07909 12.7228C9.02896 12.6484 8.95092 12.5967 8.86206 12.5788C8.77321 12.561 8.6808 12.5786 8.60508 12.6277C8.52937 12.6768 8.47653 12.7534 8.45815 12.8408L7.60184 16.9259Z" fill="#17459B"/>
<path d="M12.2453 16.7643C12.2544 16.8077 12.2722 16.8489 12.2975 16.8855C12.3229 16.9222 12.3553 16.9535 12.393 16.9778C12.4306 17.0021 12.4728 17.0189 12.517 17.0272C12.5613 17.0354 12.6067 17.035 12.6508 17.026C12.6949 17.017 12.7367 16.9995 12.774 16.9746C12.8112 16.9496 12.8431 16.9177 12.8678 16.8807C12.8925 16.8436 12.9095 16.8021 12.9179 16.7586C12.9263 16.715 12.9259 16.6703 12.9167 16.6269L12.0937 12.7256C12.0752 12.6379 12.022 12.5611 11.946 12.5121C11.8699 12.463 11.7772 12.4456 11.6881 12.4639C11.5991 12.4821 11.5211 12.5344 11.4712 12.6092C11.4213 12.6841 11.4037 12.7753 11.4222 12.863L12.2453 16.7643Z" fill="#17459B"/>
<path d="M0.76957 20.7732C0.678391 20.7732 0.590947 20.8088 0.526475 20.8723C0.462002 20.9357 0.425781 21.0218 0.425781 21.1115C0.425781 21.2013 0.462002 21.2873 0.526475 21.3508C0.590947 21.4142 0.678391 21.4499 0.76957 21.4499H19.4879C19.5791 21.4499 19.6665 21.4142 19.731 21.3508C19.7955 21.2873 19.8317 21.2013 19.8317 21.1115C19.8317 21.0218 19.7955 20.9357 19.731 20.8723C19.6665 20.8088 19.5791 20.7732 19.4879 20.7732H0.76957Z" fill="#17459B"/>
</svg>
