<svg width="15" height="18" viewBox="0 0 15 18" fill="none" xmlns="http://www.w3.org/2000/svg">
<path d="M14.0239 15.8654H12.5689V0.805403C12.5689 0.651179 12.4426 0.525391 12.2879 0.525391H2.35928C2.2041 0.525391 2.07783 0.651179 2.07783 0.805403V15.8654H0.622823C0.490769 15.8654 0.382812 15.9729 0.382812 16.105V16.7903C0.382812 16.9223 0.490769 17.0293 0.622823 17.0293H14.0239C14.1564 17.0293 14.2644 16.9223 14.2644 16.7903V16.105C14.2644 15.9729 14.1564 15.8654 14.0239 15.8654ZM2.39832 0.844441H12.2489V15.8654H8.86078V12.6767C8.86078 12.5514 8.75908 12.4497 8.6333 12.4497H6.01342C5.88811 12.4497 5.78594 12.5514 5.78594 12.6767V15.8654H2.39832V0.844441ZM6.10644 15.8471V12.7687H8.54076V15.8471H6.10644ZM13.9439 16.7103H0.702827V16.185H13.9439V16.7103ZM5.22206 6.97251H3.66151C3.5362 6.97251 3.43403 7.0742 3.43403 7.19951V8.75476C3.43403 8.87958 3.5362 8.98127 3.66151 8.98127H5.22206C5.34737 8.98127 5.44954 8.87958 5.44954 8.75476V7.19951C5.44954 7.0742 5.34737 6.97251 5.22206 6.97251ZM5.12905 8.66222H3.75453V7.29204H5.12905V8.66222ZM6.54357 8.98127H8.10363C8.22894 8.98127 8.33111 8.87958 8.33111 8.75476V7.19951C8.33111 7.0742 8.22894 6.97251 8.10363 6.97251H6.54357C6.41778 6.97251 6.3156 7.0742 6.3156 7.19951V8.75476C6.3156 8.87958 6.41778 8.98127 6.54357 8.98127ZM6.6361 7.29204H8.0111V8.66222H6.6361V7.29204ZM9.42514 8.98127H10.9852C11.111 8.98127 11.2132 8.87958 11.2132 8.75476V7.19951C11.2132 7.0742 11.111 6.97251 10.9852 6.97251H9.42514C9.29983 6.97251 9.19766 7.0742 9.19766 7.19951V8.75476C9.19766 8.87958 9.29983 8.98127 9.42514 8.98127ZM9.51767 7.29204H10.8927V8.66222H9.51767V7.29204ZM5.22206 4.43842H3.66151C3.5362 4.43842 3.43403 4.54011 3.43403 4.66542V6.22019C3.43403 6.34549 3.5362 6.44718 3.66151 6.44718H5.22206C5.34737 6.44718 5.44954 6.34549 5.44954 6.22019V4.66542C5.44954 4.54011 5.34737 4.43842 5.22206 4.43842ZM5.12905 6.12813H3.75453V4.75747H5.12905V6.12813ZM6.54357 6.44718H8.10363C8.22894 6.44718 8.33111 6.34549 8.33111 6.22019V4.66542C8.33111 4.54011 8.22894 4.43842 8.10363 4.43842H6.54357C6.41778 4.43842 6.3156 4.54011 6.3156 4.66542V6.22019C6.3156 6.34549 6.41778 6.44718 6.54357 6.44718ZM6.6361 4.75747H8.0111V6.12813H6.6361V4.75747ZM9.42514 6.44718H10.9852C11.111 6.44718 11.2132 6.34549 11.2132 6.22019V4.66542C11.2132 4.54011 11.111 4.43842 10.9852 4.43842H9.42514C9.29983 4.43842 9.19766 4.54011 9.19766 4.66542V6.22019C9.19766 6.34549 9.29983 6.44718 9.42514 6.44718ZM9.51767 4.75747H10.8927V6.12813H9.51767V4.75747ZM5.22206 1.90433H3.66151C3.5362 1.90433 3.43403 2.00603 3.43403 2.13085V3.6861C3.43403 3.81092 3.5362 3.9131 3.66151 3.9131H5.22206C5.34737 3.9131 5.44954 3.81092 5.44954 3.6861V2.13085C5.44954 2.00603 5.34737 1.90433 5.22206 1.90433ZM5.12905 3.59356H3.75453V2.22338H5.12905V3.59356ZM6.54357 3.91262H8.10363C8.22894 3.91262 8.33111 3.81092 8.33111 3.6861V2.13085C8.33111 2.00603 8.22894 1.90433 8.10363 1.90433H6.54357C6.41778 1.90433 6.3156 2.00603 6.3156 2.13085V3.6861C6.3156 3.81092 6.41778 3.91262 6.54357 3.91262ZM6.6361 2.22338H8.0111V3.59356H6.6361V2.22338ZM9.42514 3.91262H10.9852C11.111 3.91262 11.2132 3.81092 11.2132 3.6861V2.13085C11.2132 2.00603 11.111 1.90433 10.9852 1.90433H9.42514C9.29983 1.90433 9.19766 2.00603 9.19766 2.13085V3.6861C9.19766 3.81092 9.29983 3.91262 9.42514 3.91262ZM9.51767 2.22338H10.8927V3.59356H9.51767V2.22338ZM5.22206 9.50708H3.66151C3.5362 9.50708 3.43403 9.60877 3.43403 9.73359V11.2888C3.43403 11.4137 3.5362 11.5154 3.66151 11.5154H5.22206C5.34737 11.5154 5.44954 11.4137 5.44954 11.2888V9.73359C5.44954 9.60877 5.34737 9.50708 5.22206 9.50708ZM5.12905 11.1963H3.75453V9.82613H5.12905V11.1963ZM6.54357 11.5154H8.10363C8.22894 11.5154 8.33111 11.4137 8.33111 11.2888V9.73359C8.33111 9.60877 8.22894 9.50708 8.10363 9.50708H6.54357C6.41778 9.50708 6.3156 9.60877 6.3156 9.73359V11.2888C6.3156 11.4137 6.41778 11.5154 6.54357 11.5154ZM6.6361 9.82613H8.0111V11.1963H6.6361V9.82613ZM9.42514 11.5154H10.9852C11.111 11.5154 11.2132 11.4137 11.2132 11.2888V9.73359C11.2132 9.60877 11.111 9.50708 10.9852 9.50708H9.42514C9.29983 9.50708 9.19766 9.60877 9.19766 9.73359V11.2888C9.19766 11.4137 9.29983 11.5154 9.42514 11.5154ZM9.51767 9.82613H10.8927V11.1963H9.51767V9.82613Z" fill="white"/>
</svg>
