<svg width="16" height="20" viewBox="0 0 16 20" fill="none" xmlns="http://www.w3.org/2000/svg">
<path d="M4.09875 0.308594C2.99653 0.308594 2.10016 1.20496 2.10016 2.30719C2.10016 3.40941 2.99653 4.30578 4.09875 4.30578C5.20098 4.30578 6.09735 3.40941 6.09735 2.30719C6.09735 1.20496 5.20098 0.308594 4.09875 0.308594ZM11.4269 0.308594C10.3247 0.308594 9.42834 1.20496 9.42834 2.30719C9.42834 3.40941 10.3247 4.30578 11.4269 4.30578C12.5292 4.30578 13.4255 3.40941 13.4255 2.30719C13.4255 1.20496 12.5292 0.308594 11.4269 0.308594ZM4.09875 0.974792C4.83357 0.974792 5.43115 1.57237 5.43115 2.30719C5.43115 3.04201 4.83357 3.63959 4.09875 3.63959C3.36394 3.63959 2.76636 3.04201 2.76636 2.30719C2.76636 1.57237 3.36394 0.974792 4.09875 0.974792ZM11.4269 0.974792C12.1618 0.974792 12.7593 1.57237 12.7593 2.30719C12.7593 3.04201 12.1618 3.63959 11.4269 3.63959C10.6921 3.63959 10.0945 3.04201 10.0945 2.30719C10.0945 1.57237 10.6921 0.974792 11.4269 0.974792ZM3.01618 4.63888C2.12347 4.63888 1.29401 5.08209 0.797688 5.8249C0.341342 6.50775 0.101562 7.30399 0.101562 8.12341V11.5377C0.101562 12.1806 0.624528 12.7035 1.26741 12.7035C1.43129 12.7035 1.58581 12.6662 1.72737 12.6053L1.48015 18.2374C1.46416 18.6041 1.59489 18.952 1.84838 19.2172C2.10254 19.4823 2.44412 19.6284 2.8132 19.6284C3.4261 19.6284 3.94453 19.2155 4.09875 18.6479C4.25331 19.2159 4.77203 19.6284 5.38626 19.6284C5.77166 19.6284 6.11979 19.4647 6.36994 19.2029C6.58413 19.4607 6.90278 19.6284 7.2632 19.6284C7.58963 19.6284 7.88276 19.4949 8.09594 19.2783C8.30913 19.4949 8.60226 19.6284 8.92869 19.6284C9.21183 19.6284 9.47505 19.5249 9.67491 19.3584C9.85146 19.5282 10.0943 19.6284 10.3541 19.6284C10.6439 19.6284 10.9072 19.5149 11.0971 19.3317C11.287 19.5149 11.5504 19.6284 11.8336 19.6284C12.3399 19.6284 12.7657 19.2486 12.8257 18.7423L13.3156 14.2988H14.1783C14.3715 14.2988 14.5546 14.2156 14.6812 14.0724C14.8077 13.9258 14.8645 13.7326 14.8412 13.5428L14.7124 12.5975C15.4146 12.339 15.8479 11.6245 15.7403 10.878L15.2179 7.2139C15.008 5.74493 13.7322 4.63888 12.2499 4.63888H10.8772C9.70135 4.63888 8.65238 5.33511 8.17271 6.35773C8.09277 6.3444 8.01267 6.33756 7.92939 6.33756C7.80615 6.33756 7.68295 6.35133 7.56637 6.37464L7.3829 6.03764C6.9199 5.17491 6.02084 4.63888 5.0382 4.63888H3.01618ZM3.01618 5.30508H5.0382C5.77435 5.30508 6.4503 5.70826 6.79673 6.35448L6.94701 6.63097C6.45403 6.95075 6.13053 7.50687 6.13053 8.13643C6.13053 9.12906 6.93676 9.93529 7.92939 9.93529C8.92203 9.93529 9.72826 9.12906 9.72826 8.13643C9.72826 7.46357 9.3586 6.877 8.80898 6.56722C9.19871 5.81441 9.99115 5.30508 10.8772 5.30508H12.2499C13.4024 5.30508 14.395 6.1644 14.5582 7.30693L15.0813 10.971C15.1359 11.3564 14.9458 11.7236 14.6187 11.9092L13.9818 7.2204C13.9585 7.0372 13.7922 6.91083 13.609 6.93415C13.4258 6.96079 13.2988 7.12698 13.3221 7.31018L14.1783 13.6326H13.3891H12.7196H11.4269H10.7607V12.3002C10.7607 11.0144 9.71481 9.96847 8.42904 9.96847H7.76285C6.47708 9.96847 5.43115 11.0144 5.43115 12.3002V14.6319C5.43115 15.0649 5.71095 15.438 6.09735 15.5746V18.2198C6.09735 18.6292 5.77836 18.9622 5.38431 18.9622C5.02823 18.9622 4.73575 18.6839 4.71876 18.3272L4.4312 12.6866C4.42221 12.5094 4.27564 12.3711 4.0981 12.3711C3.92056 12.3711 3.77465 12.5094 3.76565 12.6866L3.4781 18.3278C3.46144 18.6836 3.169 18.9622 2.81125 18.9622C2.62771 18.9622 2.45673 18.8891 2.32981 18.7566C2.2029 18.624 2.1377 18.4499 2.1457 18.2667L2.43326 11.7049V11.7042V7.52683V7.51186C2.43326 7.32799 2.28403 7.17877 2.10016 7.17877C1.91629 7.17877 1.76706 7.32799 1.76706 7.51186V7.52683V11.5377C1.76706 11.8142 1.54388 12.0373 1.26741 12.0373C0.990937 12.0373 0.767761 11.8142 0.767761 11.5377V8.12341C0.767761 7.43723 0.970952 6.76736 1.35068 6.19443C1.72376 5.63816 2.34665 5.30508 3.01618 5.30508ZM7.92939 6.9374C7.93939 6.9374 7.95258 6.93732 7.96257 6.94065C8.19574 6.94398 8.41564 7.01706 8.59885 7.14363C8.91862 7.36015 9.12842 7.72338 9.12842 8.13643C9.12842 8.79596 8.58893 9.33545 7.92939 9.33545C7.26986 9.33545 6.73037 8.79596 6.73037 8.13643C6.73037 7.75336 6.9137 7.41032 7.19684 7.19048C7.37005 7.05057 7.58635 6.96389 7.81619 6.9439C7.85283 6.94057 7.89275 6.9374 7.92939 6.9374ZM7.76285 10.6347H8.42904C9.3484 10.6347 10.0945 11.3808 10.0945 12.3002V13.6326V14.2988V14.6319C10.0945 14.8151 9.94465 14.965 9.76144 14.965C9.71148 14.965 9.66161 14.9782 9.61831 14.9981C9.50506 15.0514 9.42834 15.1648 9.42834 15.2981V18.4625C9.42834 18.5558 9.40471 18.639 9.35808 18.7123C9.2748 18.8622 9.1119 18.9622 8.92869 18.9622C8.65222 18.9622 8.42904 18.739 8.42904 18.4625V15.6312C8.42904 15.448 8.27915 15.2981 8.09594 15.2981C7.91274 15.2981 7.76285 15.448 7.76285 15.6312V18.4625C7.76285 18.739 7.53967 18.9622 7.2632 18.9622C6.98672 18.9622 6.76355 18.739 6.76355 18.4625V15.2981C6.76355 15.1149 6.61365 14.965 6.43045 14.965C6.24724 14.965 6.09735 14.8151 6.09735 14.6319V12.3002C6.09735 11.3808 6.84349 10.6347 7.76285 10.6347ZM11.4269 14.2988H12.6461L12.1634 18.6687C12.1467 18.8353 12.0034 18.9622 11.8336 18.9622C11.6104 18.9622 11.4269 18.7787 11.4269 18.5555V14.2988ZM10.7607 14.6319V18.5555C10.7607 18.7787 10.5773 18.9622 10.3541 18.9622C10.2209 18.9622 10.1042 18.8822 10.051 18.7689C10.0809 18.6723 10.0945 18.5691 10.0945 18.4625V15.5746C10.4809 15.438 10.7607 15.0649 10.7607 14.6319Z" fill="white"/>
</svg>
