<svg width="66" height="71" viewBox="0 0 66 71" fill="none" xmlns="http://www.w3.org/2000/svg">
<path d="M49.2325 0.311302C37.6523 0.686249 27.0555 6.66077 20.7552 16.3786C19.6672 18.0566 18.4809 20.3186 17.6819 22.2425L17.5282 22.6113L11.2648 22.642C6.45815 22.6666 4.97681 22.6912 4.87232 22.7465C4.7248 22.8325 4.78626 22.6789 3.18199 26.9754C1.20893 32.2738 0.852422 33.2695 0.846275 33.4724C0.840128 33.6076 0.883155 33.7059 0.993794 33.7981C1.14131 33.9272 1.22737 33.9333 2.64109 33.9702C3.46474 33.9948 6.10164 34.0194 8.50497 34.0255C10.9083 34.0317 12.488 34.0563 12.0147 34.0747C11.1665 34.1116 11.1603 34.1116 11.7688 34.1239C12.3712 34.1423 13.2625 34.253 13.7173 34.3698C14.0431 34.4558 14.6946 34.7754 14.8544 34.9291C14.9343 35.0029 15.002 35.0397 15.002 35.0152C15.0327 34.8492 15.1065 35.7712 15.1187 36.4412C15.1249 36.8776 15.1495 37.5168 15.1741 37.861L15.2109 38.4818L10.0847 38.5187L4.95837 38.5556L4.817 38.697C4.61416 38.9121 0.858568 48.9987 0.858568 49.3429C0.858568 49.4597 0.913888 49.6134 0.975354 49.6933L1.09214 49.8408L8.02554 49.8593C11.9348 49.8654 14.9835 49.8961 15.0204 49.9269C15.0573 49.9576 15.34 50.0006 15.6412 50.0252C16.8705 50.1113 17.6634 50.2957 18.2351 50.6153C18.4871 50.7567 18.5055 50.7567 18.4625 50.6214C18.4441 50.5661 18.6838 50.9841 18.9911 51.5619C20.9703 55.2191 22.9557 57.9052 25.6418 60.5421C28.4446 63.2958 31.2291 65.275 34.7572 67.0206C38.3346 68.797 41.875 69.8665 45.8826 70.4013C47.8127 70.6533 51.1871 70.7271 53.234 70.555C53.8548 70.4996 54.3957 70.475 54.4387 70.4935C54.4879 70.5058 54.5125 70.4996 54.494 70.4689C54.4572 70.4074 55.207 70.3152 55.7111 70.3152C55.9139 70.3152 56.0245 70.2968 55.9569 70.2784C55.791 70.2169 56.3134 70.1431 56.5962 70.1862C56.7744 70.2107 56.799 70.2046 56.7007 70.1554C56.6085 70.1124 56.6515 70.1062 56.8851 70.1247C57.1125 70.1431 57.1494 70.137 57.0387 70.1001C56.9465 70.0694 56.9281 70.0448 56.9834 70.0386C57.0387 70.0325 57.1801 70.0202 57.2907 70.0018C57.469 69.9772 57.4751 69.9833 57.3461 70.0263C56.9773 70.1554 57.469 70.0817 58.4463 69.8542C59.522 69.6022 60.7574 69.2457 60.7083 69.1965C60.696 69.1781 60.6099 69.1965 60.5177 69.2334C60.4255 69.2642 60.3149 69.2949 60.278 69.2887C60.235 69.2887 60.6775 69.1289 61.2492 68.9322C62.9395 68.3545 64.7589 67.5923 64.9863 67.3649C65.0539 67.2972 65.0908 67.162 65.0908 67.0022V66.744L60.3764 62.0296C57.1924 58.8518 55.6004 57.3028 55.4898 57.2782C55.3914 57.2536 55.0165 57.2905 54.6293 57.3643C53.4245 57.5856 52.7422 57.6716 51.433 57.7454C49.589 57.8499 47.7573 57.7146 45.8519 57.3336C42.4159 56.639 39.1029 55.0839 36.4168 52.908C35.7591 52.3732 35.1875 51.8508 35.4026 51.986L35.5563 52.0782L35.5624 51.6971C35.5686 51.1193 35.8206 50.7874 36.4783 50.4801C37.3572 50.0682 38.7034 49.933 42.631 49.8777C45.2495 49.8408 45.4769 49.8347 45.5937 49.7302C45.6613 49.6687 45.9564 48.9864 46.2576 48.212C46.5526 47.4375 46.8169 46.8167 46.8415 46.829C46.8661 46.8474 46.8968 46.8228 46.9152 46.7798C47.7389 44.733 48.0708 43.7864 48.0216 43.5958C47.9971 43.5036 48.0032 43.4729 48.0524 43.5036C48.0954 43.5282 48.1138 43.5159 48.0954 43.4668C48.077 43.4176 48.3904 42.4587 48.7961 41.3339C49.2018 40.2091 49.5521 39.2133 49.5706 39.115C49.6013 38.9797 49.5706 38.8998 49.4354 38.7584L49.2633 38.5741L47.2349 38.5372C46.1223 38.5187 41.4878 38.4941 36.9393 38.4941C32.3908 38.488 28.7704 38.4696 28.8872 38.445C29.047 38.4142 29.0777 38.3958 28.9978 38.3651C28.8319 38.2975 28.586 37.7504 28.5061 37.271C28.4139 36.7485 28.5 36.1277 28.7274 35.6851C29.004 35.1381 29.6125 34.6525 30.3132 34.4189C30.8111 34.253 31.5917 34.1485 32.4522 34.1239C32.9993 34.1116 32.9808 34.1055 32.1756 34.0747C31.7023 34.0563 34.4499 34.0317 38.2792 34.0255C44.4935 34.0133 45.2741 34.001 45.4523 33.9149C45.6798 33.8104 45.7781 33.6076 46.4051 31.9418C46.5833 31.4624 46.7554 31.0813 46.7862 31.0998C46.8108 31.1182 46.8169 31.0875 46.7985 31.0383C46.78 30.9891 46.7923 30.8969 46.8353 30.8354C46.8907 30.7432 46.8968 30.7494 46.8599 30.8785C46.7063 31.4685 47.4131 29.7229 47.8127 28.555C48.077 27.7683 48.1077 27.6515 47.9971 27.8052C47.9049 27.9281 47.8618 28.0572 48.7715 25.5309C49.2018 24.3323 49.5522 23.2567 49.5583 23.146C49.5644 23.0169 49.5153 22.9002 49.4292 22.808L49.2878 22.6727L41.6845 22.642C37.5048 22.6236 34.0811 22.599 34.0811 22.5928C34.0811 22.5867 34.0749 22.3654 34.0626 22.1011C34.0381 21.5479 34.1303 21.2098 34.4806 20.6136C34.7634 20.128 34.9785 19.8699 35.587 19.2552C36.1218 18.7143 36.7057 18.2226 37.2896 17.8046C37.5232 17.6448 37.7199 17.4973 37.7383 17.4788C37.7568 17.4604 38.0026 17.2944 38.2915 17.1039C39.5516 16.2802 40.5105 15.7639 42.0102 15.1124C42.7294 14.7989 44.6041 14.1719 45.3294 14.006C46.1469 13.8154 47.1734 13.6187 47.5422 13.5757C47.745 13.5511 47.9602 13.5204 48.0278 13.5081C48.0893 13.4958 48.3413 13.4712 48.581 13.4528C48.8207 13.4282 49.128 13.4036 49.2633 13.3852C49.3985 13.3729 50.1299 13.3606 50.8921 13.3729C53.8486 13.3975 53.7872 13.3975 53.6581 13.4835C53.5905 13.5327 53.6089 13.5388 53.738 13.5081C54.0884 13.4282 56.3688 13.9691 57.8624 14.4916C58.8643 14.8419 59.0548 14.8788 59.2515 14.7743C59.313 14.7436 59.6695 14.1904 60.0506 13.545C60.4317 12.9057 60.7636 12.3956 60.7882 12.4079C60.8681 12.457 61.87 10.8712 62.9579 8.95346C63.3083 8.34494 63.6894 7.51515 63.6464 7.47212C63.6279 7.45368 63.6156 7.46597 63.6156 7.49671C63.6156 7.53359 63.5726 7.61349 63.5234 7.68111C63.4312 7.7856 63.4312 7.77945 63.5173 7.61349C63.5665 7.509 64.009 6.70994 64.5007 5.83097C65.435 4.16524 65.5088 3.97469 65.2937 3.72268C65.0601 3.44608 62.1958 2.30895 60.4194 1.78649C57.3829 0.889084 54.7583 0.458824 51.5375 0.329742C50.6954 0.299011 49.9455 0.274414 49.8779 0.280563C49.8103 0.286713 49.5214 0.299011 49.2325 0.311302ZM61.0955 11.8854C61.0586 11.953 61.0156 12.0083 60.9972 12.0083C60.9849 12.0083 60.9972 11.953 61.034 11.8854C61.0709 11.8178 61.114 11.7625 61.1324 11.7625C61.1447 11.7625 61.1324 11.8178 61.0955 11.8854ZM60.8988 12.2235C60.8619 12.3095 60.8189 12.3648 60.8066 12.3525C60.7759 12.3218 60.8988 12.0698 60.9418 12.0698C60.9603 12.0698 60.9357 12.1374 60.8988 12.2235ZM50.5725 13.2192C50.3758 13.2315 50.0562 13.2315 49.8656 13.2192C49.6689 13.2069 49.8287 13.2008 50.216 13.2008C50.6032 13.2008 50.763 13.2069 50.5725 13.2192ZM51.9862 13.2807C51.894 13.293 51.7281 13.293 51.6174 13.2807C51.5068 13.2684 51.5805 13.2561 51.7834 13.2561C51.9862 13.2561 52.0784 13.2684 51.9862 13.2807ZM52.6623 13.3421C52.6009 13.3544 52.4902 13.3544 52.4165 13.3421C52.3366 13.3299 52.3857 13.3176 52.521 13.3176C52.6562 13.3114 52.7177 13.3237 52.6623 13.3421ZM47.8249 28.2785C47.7512 28.4014 47.7389 28.3645 47.7942 28.2047C47.8188 28.1494 47.8495 28.1186 47.8618 28.1371C47.8803 28.1494 47.8618 28.217 47.8249 28.2785ZM47.0874 30.2454C47.0136 30.3683 47.0013 30.3314 47.0566 30.1716C47.0812 30.1163 47.1119 30.0856 47.1242 30.104C47.1427 30.1163 47.1242 30.1839 47.0874 30.2454ZM47.9356 43.9032C47.8987 44.0138 47.8557 44.0876 47.8434 44.0753C47.8311 44.063 47.8495 43.9646 47.8864 43.854C47.9233 43.7434 47.9663 43.6696 47.9786 43.6819C47.9909 43.6942 47.9725 43.7925 47.9356 43.9032ZM46.9521 46.5462C46.9152 46.6569 46.8722 46.7306 46.8599 46.7183C46.8476 46.706 46.8661 46.6077 46.903 46.4971C46.9398 46.3864 46.9829 46.3127 46.9952 46.3249C47.0074 46.3372 46.989 46.4356 46.9521 46.5462ZM15.383 49.9146C15.34 49.9269 15.254 49.9269 15.1986 49.9146C15.1372 49.8961 15.1741 49.8838 15.2724 49.8838C15.3769 49.8838 15.4199 49.8961 15.383 49.9146ZM39.5393 49.9146C39.4594 49.9269 39.3242 49.9269 39.232 49.9146C39.1336 49.9023 39.2012 49.89 39.3672 49.89C39.5393 49.89 39.6131 49.9023 39.5393 49.9146ZM60.1551 69.3318C60.1366 69.3502 60.0813 69.3564 60.0383 69.3379C59.9891 69.3195 60.0076 69.301 60.0752 69.301C60.1428 69.2949 60.1797 69.3133 60.1551 69.3318ZM59.7248 69.4547C59.7064 69.4731 59.6511 69.4793 59.608 69.4609C59.5589 69.4424 59.5773 69.424 59.6449 69.424C59.7125 69.4178 59.7494 69.4363 59.7248 69.4547ZM59.2945 69.5776C59.2761 69.5961 59.2208 69.6022 59.1778 69.5838C59.1286 69.5653 59.147 69.5469 59.2146 69.5469C59.2823 69.5408 59.3191 69.5592 59.2945 69.5776ZM58.8028 69.7006C58.7844 69.719 58.7291 69.7252 58.686 69.7067C58.6369 69.6883 58.6553 69.6698 58.7229 69.6698C58.7905 69.6637 58.8274 69.6821 58.8028 69.7006ZM58.2865 69.8296C58.2435 69.8419 58.1697 69.8419 58.1328 69.8296C58.0898 69.8112 58.1205 69.7989 58.2066 69.7989C58.2926 69.7989 58.3234 69.8112 58.2865 69.8296ZM58.0038 69.885C57.9853 69.9034 57.93 69.9096 57.887 69.8911C57.8378 69.8727 57.8562 69.8542 57.9239 69.8542C57.9915 69.8481 58.0283 69.8665 58.0038 69.885ZM57.7333 69.9526C57.6903 69.9649 57.6165 69.9649 57.5796 69.9526C57.5366 69.9341 57.5673 69.9218 57.6534 69.9218C57.7395 69.9218 57.7702 69.9341 57.7333 69.9526Z" fill="url(#paint0_linear_2933_4116)"/>
<defs>
<linearGradient id="paint0_linear_2933_4116" x1="33.1199" y1="70.6484" x2="0.845705" y2="-9.10934" gradientUnits="userSpaceOnUse">
<stop stop-color="#059CE2"/>
<stop offset="1" stop-color="#1355A8"/>
</linearGradient>
</defs>
</svg>
