<svg width="26" height="26" viewBox="0 0 26 26" fill="none" xmlns="http://www.w3.org/2000/svg">
<path d="M18.5209 22.9372V20.7289C18.5209 19.5575 18.0556 18.4341 17.2273 17.6059C16.3991 16.7776 15.2757 16.3123 14.1043 16.3123H5.2711C4.09975 16.3123 2.97636 16.7776 2.14809 17.6059C1.31981 18.4341 0.854492 19.5575 0.854492 20.7289V22.9372" stroke="white" stroke-linecap="round" stroke-linejoin="round"/>
<path d="M9.6881 11.896C12.1273 11.896 14.1047 9.91858 14.1047 7.47935C14.1047 5.04013 12.1273 3.06274 9.6881 3.06274C7.24887 3.06274 5.27148 5.04013 5.27148 7.47935C5.27148 9.91858 7.24887 11.896 9.6881 11.896Z" stroke="white" stroke-linecap="round" stroke-linejoin="round"/>
<path d="M25.1455 22.9369V20.7286C25.1447 19.7501 24.819 18.7994 24.2195 18.026C23.6199 17.2526 22.7805 16.7002 21.833 16.4556" stroke="white" stroke-linecap="round" stroke-linejoin="round"/>
<path d="M17.417 3.20581C18.367 3.44906 19.2091 4.00157 19.8104 4.77626C20.4117 5.55094 20.7381 6.50373 20.7381 7.4844C20.7381 8.46508 20.4117 9.41786 19.8104 10.1925C19.2091 10.9672 18.367 11.5197 17.417 11.763" stroke="white" stroke-linecap="round" stroke-linejoin="round"/>
</svg>
