<svg width="60" height="78" viewBox="0 0 60 78" fill="none" xmlns="http://www.w3.org/2000/svg">
<path d="M30.7483 9.747C30.368 9.46179 29.7976 9.65193 29.3223 9.84207C25.3294 12.5991 17.914 15.0709 8.02681 16.3068C7.36133 16.3068 7.55147 17.4476 7.55147 18.018L7.36133 29.6164H31.2237V11.078C31.4138 10.5076 31.3187 10.0322 30.7483 9.747Z" fill="black"/>
<path d="M21.1511 65.6382C23.813 67.7297 26.7602 69.441 29.6123 70.4867C29.7073 70.4867 29.8975 70.5818 29.9925 70.5818C30.2777 70.5818 30.563 70.4867 30.658 70.2966C31.0383 70.0114 31.2284 69.6311 31.2284 69.1558V50.0469H9.83789C12.2146 56.1313 16.1125 61.5502 21.1511 65.6382Z" fill="#FFCE00"/>
<path d="M7.44727 29.7031V36.6432C7.44727 41.2065 8.30289 45.8649 9.82399 50.0479H31.3096V29.7031H7.44727Z" fill="#DD0000"/>
<path d="M42.3464 65.4562C38.9239 68.1181 33.8852 70.1146 30.0824 71.2554C26.1846 70.0195 23.6177 69.354 20.1953 66.597C11.3538 59.657 5.93489 48.2487 5.93489 36.5552V14.6893C20.6706 14.309 27.5156 9.27038 30.0824 6.89365C32.6493 9.46051 39.3992 14.309 54.23 14.6893V36.5552C54.23 41.2136 53.3744 47.0128 51.8533 51.2909C52.6138 51.5761 54.7053 52.3367 55.2758 52.717C56.8919 48.0586 57.8426 41.4988 57.8426 36.5552V13.4534C57.8426 12.7879 57.3673 12.2175 56.6067 12.2175C38.9239 12.3126 31.1282 3.09088 30.9381 3.09088C30.4627 2.61554 29.512 2.61554 29.0367 3.09088C29.0367 3.09088 21.241 12.3126 3.55816 12.3126C2.89268 12.3126 2.32227 12.7879 2.32227 13.5485V36.5552C2.32227 49.1994 8.02641 61.083 17.4383 68.4984C21.241 71.5406 25.4241 73.6322 29.7022 74.9631C29.7972 74.9631 29.9874 74.9631 30.0824 74.9631C30.1775 74.9631 30.3677 74.9631 30.4627 74.9631C34.7408 73.7272 37.0225 72.6815 41.9661 69.8294L45.1034 67.7379C43.8675 66.9773 42.9168 66.1217 42.3464 65.4562Z" fill="white" stroke="url(#paint0_linear_2933_4117)" stroke-width="4.11" stroke-miterlimit="12" stroke-linecap="round"/>
<path d="M48.6322 67.8309C52.8852 67.8309 56.3328 64.3832 56.3328 60.1303C56.3328 55.8774 52.8852 52.4297 48.6322 52.4297C44.3793 52.4297 40.9316 55.8774 40.9316 60.1303C40.9316 64.3832 44.3793 67.8309 48.6322 67.8309Z" stroke="url(#paint1_linear_2933_4117)" stroke-width="3.0524" stroke-miterlimit="10"/>
<path d="M47.4852 63.7456C47.4852 63.7456 47.2951 63.5555 47.2 63.3653C46.5345 62.6048 45.7739 62.0344 44.8233 61.0837C44.7282 60.9886 44.7282 60.9886 44.8233 60.9886C45.2035 60.6083 45.3937 60.4182 45.7739 60.0379C45.869 59.9429 45.869 60.0379 45.9641 60.0379C46.4394 60.5133 46.9148 60.9886 47.3901 61.464C47.4852 61.559 47.4852 61.559 47.5803 61.464C49.0063 60.0379 50.4323 58.6119 51.6682 57.376C51.7633 57.2809 51.7633 57.2809 51.8584 57.376C52.0485 57.7563 52.4288 57.9464 52.714 58.2316C52.8091 58.3267 52.8091 58.3267 52.714 58.4218C51.0978 60.133 49.3866 61.9393 47.4852 63.7456Z" fill="#0595DD"/>
<defs>
<linearGradient id="paint0_linear_2933_4117" x1="-16.7662" y1="2.73438" x2="30.0824" y2="74.9631" gradientUnits="userSpaceOnUse">
<stop stop-color="#1452A6"/>
<stop offset="1" stop-color="#049DE3"/>
</linearGradient>
<linearGradient id="paint1_linear_2933_4117" x1="48.6322" y1="52.4297" x2="48.6322" y2="67.8309" gradientUnits="userSpaceOnUse">
<stop stop-color="#0595DD"/>
<stop offset="1" stop-color="#049DE3"/>
</linearGradient>
</defs>
</svg>
