<svg width="26" height="26" viewBox="0 0 26 26" fill="none" xmlns="http://www.w3.org/2000/svg">
<mask id="mask0_2401_645" style="mask-type:luminance" maskUnits="userSpaceOnUse" x="2" y="2" width="17" height="22">
<path d="M2.3418 2.62964H18.1612V23.5254H2.3418V2.62964Z" fill="white"/>
</mask>
<g mask="url(#mask0_2401_645)">
<path d="M16.15 23.5254H4.31423C3.22926 23.5254 2.3418 22.6439 2.3418 21.5664V4.58862C2.3418 3.51118 3.22926 2.62964 4.31423 2.62964H11.5474C12.2707 2.62964 12.9612 2.92349 13.4214 3.47853L17.3668 7.88623C17.8269 8.40862 18.0901 9.09426 18.0901 9.81255V10.1538C18.0901 10.3497 17.9582 10.4803 17.7613 10.4803C17.5638 10.4803 17.4324 10.3497 17.4324 10.1538V9.81255C17.4324 9.25751 17.2349 8.73512 16.8733 8.31067L12.9284 3.90297C12.5996 3.51118 12.0732 3.28263 11.5474 3.28263H4.31423C3.59092 3.28263 2.99946 3.87032 2.99946 4.58862V21.5664C2.99946 22.2847 3.59092 22.8724 4.31423 22.8724H16.15C16.8733 22.8724 17.4653 22.2847 17.4653 21.5664V21.2399C17.4653 21.044 17.5966 20.9134 17.7941 20.9134C17.9911 20.9134 18.1229 21.044 18.1229 21.2399V21.5664C18.1229 22.6439 17.2349 23.5254 16.15 23.5254Z" fill="#17459B"/>
</g>
<circle cx="18.0235" cy="15.7593" r="5.33381" stroke="#17459B" stroke-width="0.6"/>
<path d="M17.7166 18.1833C17.7166 18.3489 17.8509 18.4833 18.0166 18.4833C18.1823 18.4833 18.3166 18.3489 18.3166 18.1833H17.7166ZM18.2287 13.1188C18.1116 13.0016 17.9216 13.0016 17.8045 13.1188L15.8953 15.028C15.7781 15.1451 15.7781 15.3351 15.8953 15.4522C16.0124 15.5694 16.2024 15.5694 16.3195 15.4522L18.0166 13.7552L19.7137 15.4522C19.8308 15.5694 20.0208 15.5694 20.1379 15.4522C20.2551 15.3351 20.2551 15.1451 20.1379 15.028L18.2287 13.1188ZM18.3166 18.1833V13.3309H17.7166V18.1833H18.3166Z" fill="#17459B"/>
<path d="M15.8223 9.48655H12.535C11.8117 9.48655 11.2197 8.89886 11.2197 8.18057V4.91561C11.2197 4.71971 11.351 4.58911 11.5486 4.58911C11.7455 4.58911 11.8774 4.71971 11.8774 4.91561V8.18057C11.8774 8.53971 12.1734 8.83356 12.535 8.83356H15.8223C16.0198 8.83356 16.1511 8.96416 16.1511 9.16006C16.1511 9.35595 16.0198 9.48655 15.8223 9.48655Z" fill="#17459B"/>
<path d="M5.0459 13.3381H10.7542" stroke="#17459B" stroke-width="0.6" stroke-linecap="round"/>
<path d="M5.0459 15.7607H12.5014" stroke="#17459B" stroke-width="0.6" stroke-linecap="round"/>
<path d="M5.0459 18.1833H13.258" stroke="#17459B" stroke-width="0.6" stroke-linecap="round"/>
</svg>
