<?xml version="1.0" encoding="UTF-8"?>
<!DOCTYPE svg PUBLIC "-//W3C//DTD SVG 1.1//EN" "http://www.w3.org/Graphics/SVG/1.1/DTD/svg11.dtd">
<!-- Creator: CorelDRAW X8 -->
<svg xmlns="http://www.w3.org/2000/svg" xml:space="preserve" width="479px" height="479px" version="1.1" style="shape-rendering:geometricPrecision; text-rendering:geometricPrecision; image-rendering:optimizeQuality; fill-rule:evenodd; clip-rule:evenodd"
viewBox="0 0 5760707 5760707"
 xmlns:xlink="http://www.w3.org/1999/xlink">
 <defs>
  <style type="text/css">
   <![CDATA[
    .fil0 {fill:#00ADEF}
    .fil2 {fill:white}
    .fil1 {fill:aqua;fill-rule:nonzero}
   ]]>
  </style>
 </defs>
 <g id="Layer_x0020_1">
  <metadata id="CorelCorpID_0Corel-Layer"/>
  <path class="fil0" d="M4810891 949816c-494016,-494015 -1176610,-799624 -1930523,-799624 -753914,0 -1436507,305609 -1930552,799624 -494015,494045 -799624,1176638 -799624,1930552 0,753913 305609,1436507 799624,1930523 494045,494015 1176638,799624 1930552,799624 753913,0 1436507,-305609 1930523,-799624 494015,-494016 799624,-1176610 799624,-1930523 0,-753914 -305609,-1436507 -799624,-1930552z"/>
  <path class="fil1" d="M2880368 0c795394,0 1515493,322416 2036708,843631 521215,521244 843631,1241343 843631,2036737 0,795394 -322416,1515493 -843631,2036708 -521215,521215 -1241314,843631 -2036708,843631 -795394,0 -1515493,-322416 -2036737,-843631 -521215,-521215 -843631,-1241314 -843631,-2036708 0,-795394 322416,-1515493 843631,-2036737 521244,-521215 1241343,-843631 2036737,-843631zm1930523 949816c-494016,-494015 -1176610,-799624 -1930523,-799624 -753914,0 -1436507,305609 -1930552,799624 -494015,494045 -799624,1176638 -799624,1930552 0,753913 305609,1436507 799624,1930523 494045,494015 1176638,799624 1930552,799624 753913,0 1436507,-305609 1930523,-799624 494015,-494016 799624,-1176610 799624,-1930523 0,-753914 -305609,-1436507 -799624,-1930552z"/>
  <path class="fil2" d="M1742030 1606517l134265 0 0 -415257c0,-85090 69531,-154593 154593,-154593l227 0c85090,0 154593,69503 154593,154593l0 415257 256831 0 0 -415257c0,-85090 69531,-154593 154593,-154593l227 0c85090,0 154593,69503 154593,154593l0 415257 256831 0 0 -415257c0,-85090 69503,-154593 154593,-154593l227 0c85090,0 154593,69503 154593,154593l0 415257 256832 0 0 -415257c0,-85090 69503,-154593 154593,-154593l227 0c85090,0 154593,69503 154593,154593l0 415257 134292 0c74245,0 134719,60701 134719,134946l0 134747 415939 0c85090,0 154593,69502 154593,154592l0 228c0,85061 -69503,154592 -154593,154592l-415939 0 0 256804 415939 0c85090,0 154593,69531 154593,154592l0 228c0,85089 -69503,154592 -154593,154592l-415939 0 0 256832 415939 0c85090,0 154593,69531 154593,154593l0 227c0,85090 -69503,154593 -154593,154593l-415939 0 0 256831 415939 0c85090,0 154593,69503 154593,154593l0 227c0,85090 -69503,154593 -154593,154593l-415939 0 0 133839c0,74244 -60474,134491 -134719,134491l-134292 0 0 416620c0,85090 -69503,154593 -154593,154593l-227 0c-85090,0 -154593,-69503 -154593,-154593l0 -416620 -256832 0 0 416620c0,85090 -69503,154593 -154593,154593l-227 0c-85090,0 -154593,-69503 -154593,-154593l0 -416620 -256831 0 0 416620c0,85090 -69503,154593 -154593,154593l-227 0c-85062,0 -154593,-69503 -154593,-154593l0 -416620 -256831 0 0 416620c0,85090 -69503,154593 -154593,154593l-227 0c-85062,0 -154593,-69503 -154593,-154593l0 -416620 -134265 0c-74244,0 -134747,-60247 -134747,-134491l0 -133839 -415938 0c-85062,0 -154593,-69503 -154593,-154593l0 -227c0,-85090 69531,-154593 154593,-154593l415938 0 0 -256831 -415938 0c-85062,0 -154593,-69503 -154593,-154593l0 -227c0,-85062 69531,-154593 154593,-154593l415938 0 0 -256832 -415938 0c-85062,0 -154593,-69503 -154593,-154592l0 -228c0,-85061 69531,-154592 154593,-154592l415938 0 0 -256804 -415938 0c-85062,0 -154593,-69531 -154593,-154592l0 -228c0,-85090 69531,-154592 154593,-154592l415938 0 0 -134747c0,-74245 60503,-134946 134747,-134946zm312565 1961129l0 -1374784 278437 0 0 608946 560935 -608946 373153 0 -518689 535411 545547 839373 -358985 0 -378291 -645457 -223670 229774 0 415683 -278437 0zm1373193 0l0 -1374784 278353 0 0 1374784 -278353 0z"/>
 </g>
</svg>
