<svg id="SvgjsSvg1006" width="288" height="288" xmlns="http://www.w3.org/2000/svg" version="1.1" xmlns:xlink="http://www.w3.org/1999/xlink" xmlns:svgjs="http://svgjs.com/svgjs"><defs id="SvgjsDefs1007"></defs><g id="SvgjsG1008" transform="matrix(0.9167,0,0,0.9167,11.995200000000011,11.994720096492784)"><svg xmlns="http://www.w3.org/2000/svg" enable-background="new 0 0 2500 2235" viewBox="0 0 2500 2235" width="288" height="288"><rect width="2500" height="2234.5" y=".2" fill="none"></rect><path d="M1731.8,314.7c9.4-16.4,30.2-22,46.5-12.5c16.2,9.5,21.8,30.5,12.3,46.9l-89.5,155c-9.4,16.4-30.2,22-46.5,12.5
		s-21.8-30.5-12.3-46.9L1731.8,314.7z M1507.2,176.8c4.9-18.3,23.6-29.2,41.7-24.2c18.1,4.9,28.9,23.8,24,42.1l-72.7,271.2
		c-4.9,18.3-23.6,29.2-41.7,24.2c-18.1-4.9-28.9-23.8-24-42.1L1507.2,176.8z M760.2,349.3c-9.5-16.4-4-37.4,12.3-47
		c16.2-9.6,37-4,46.5,12.4l89.5,155c9.5,16.4,4,37.4-12.3,47c-16.2,9.6-37,4-46.5-12.4L760.2,349.3z M1241.5,128.7
		c0.1-18.9,15.3-34.2,34-34.2c18.7,0.1,33.9,15.4,33.8,34.3v325c-0.1,18.9-15.3,34.2-34,34.2s-33.9-15.4-33.8-34.3V128.7
		L1241.5,128.7z M977.9,194.7c-4.9-18.3,5.9-37.2,24-42.1c18.1-4.9,36.8,5.9,41.7,24.3l72.7,271.2c4.9,18.3-5.9,37.2-24,42.1
		c-18.1,4.9-36.8-5.9-41.7-24.3L977.9,194.7L977.9,194.7z M2073.2,626c15.4-10.8,36.6-6.8,47.2,8.8c10.6,15.6,6.8,36.9-8.7,47.7
		l-213.6,149.5c62,51.6,113.6,107.2,153,167.6c47.6,73,77.1,152.5,85.5,239.5c1.8,18.9-11.9,35.6-30.6,37.4
		c-18.7,1.8-35.3-12-37-30.9c-7.3-75.6-33-144.8-74.5-208.5c-38.4-58.9-90.6-113.5-154.5-164.4l-98,68.6c-6.5,4.5-14,6.5-21.3,6
		l-423.8-5.2l-199.3,92.4l-136.9,268.8c-8.7,17.7-8.2,33.2-1.9,45.5c5.3,10.5,14.8,19.8,26.7,27.2c13.1,8.2,28.8,13.9,45.4,16.5
		c30.4,4.8,62.6-0.9,84.6-20.9l135.2-202.8c6.3-9.4,16.4-14.7,26.8-15.2l0,0l237.8-10.6c18.7-0.8,34.5,14,35.3,32.9
		s-13.8,34.9-32.6,35.7l-220.6,9.8l-127.2,190.8c-1.4,2.2-3.1,4.3-5,6.3c-38.8,38.4-94,49.9-144.6,41.9c-25.4-4-50-13-70.8-26
		c-22-13.7-40.1-32.1-51.3-54.1c-15.8-31-18-67.7,1.2-107l142-278.8c3.2-7.4,9.1-13.7,16.9-17.4l216.6-100.4l0,0.1
		c4.4-2.1,9.4-3.2,14.6-3.1l422.3,5.1l108-75.6c1-0.8,2-1.5,3.1-2.2L2073.2,626L2073.2,626z M2116,1338.1
		c18.6-2.4,35.6,10.9,38,29.7c2.4,18.8-10.8,36-29.4,38.4c-34.9,4.5-63.3,23.4-87.4,52.1c-26.6,31.8-48.2,75.6-67.2,125.9
		c-6.6,17.7-26.3,26.6-43.8,19.9c-17.5-6.7-26.3-26.5-19.7-44.2c21.4-56.8,46.7-107.3,78.9-145.9
		C2020.2,1372.5,2062.6,1345,2116,1338.1L2116,1338.1z M413.2,691.1c-15.1-11.3-18.3-32.8-7.1-48.1c11.2-15.3,32.5-18.5,47.6-7.2
		l316.4,236.3c58.2-23.2,115.4-38.5,171.6-45.4c62.7-7.7,124-4.9,183.7,9c18.3,4.2,29.8,22.6,25.6,41.1
		c-4.2,18.5-22.4,30.1-40.7,25.9c-52.2-12.1-105.7-14.5-160.6-7.8c-54.9,6.7-111.4,22.6-169.3,47c-11.1,5.6-24.9,4.9-35.5-3
		L413.2,691.1L413.2,691.1z M695.5,1017c6.4-17.8,25.9-26.9,43.5-20.4c17.6,6.5,26.7,26.2,20.2,44
		c-32.2,88.8-72.5,164.8-120.1,229.2c-39,52.7-82.8,97.8-131.1,135.7l78.5,72.4c13.8,12.7,14.8,34.4,2.2,48.4
		c-12.6,14-34.1,15-47.9,2.3l-107.5-99.3c-2.6-2.1-4.9-4.6-6.9-7.5c-10.6-15.7-6.6-37,8.9-47.7c55.9-38.5,105.9-86.6,149.4-145.5
		C628.5,1169.3,665.7,1099.1,695.5,1017L695.5,1017z M564.5,1609.8l0.2-0.2l-0.1-0.1c0.5-0.5,1.1-1,1.6-1.5l95.7-95.7
		c26-26,60.2-38.9,94.4-38.9c34.1,0,68.3,13,94.3,39l0.5,0.5l0.1-0.1c0.5,0.5,1,1.1,1.5,1.6c24.7,25.8,37.1,59.3,37.1,92.9
		c0,34.3-13,68.7-39.1,94.8l-65.3,65.3c-12.7,12.7-19,29.4-19,46.2c0,16,5.9,32.1,17.7,44.6c0.7,0.6,1.3,1.2,1.9,1.8l0,0.1
		c12.7,12.5,29.5,18.7,46.2,18.7c16.9,0,33.7-6.4,46.5-19.2l23.5-23.5l-0.1-0.1c0.5-0.5,1.1-1,1.6-1.5l102.7-102.7
		c0.6-0.7,1.3-1.4,1.9-2.1l0.1,0.1c12.5-12.6,18.8-29.3,18.8-46c0-16-5.9-32.1-17.7-44.6l-0.7-0.6c-0.8-0.7-1.5-1.5-2.2-2.2
		c-5-4.7-10.6-8.4-16.5-11.3c-7-3.3-14.3-5.4-21.5-6.1c-18.6-1.9-32.2-18.7-30.3-37.5s18.5-32.5,37.2-30.6
		c15.1,1.6,29.9,5.6,43.5,12.1c13.3,6.3,25.9,15.1,36.9,26.1l0.5,0.5l0.1-0.1c0.5,0.5,1,1.1,1.5,1.6c24.7,25.8,37.1,59.3,37.1,92.9
		c0,34.3-13,68.7-39.1,94.8l-0.2,0.2l0.1,0.1c-0.5,0.5-1.1,1-1.6,1.5l-102.7,102.7c-0.6,0.7-1.3,1.4-2,2.1l-0.1-0.1
		c-12.5,12.6-18.8,29.3-18.8,46c0,16,5.9,32,17.6,44.5c1,0.9,2,1.9,2.9,2.9c12.6,11.8,28.9,17.8,45.2,17.8
		c16.9,0,33.7-6.4,46.5-19.2l147.7-147.7c12.7-12.7,19-29.4,19-46.2c0-16-5.9-32.1-17.7-44.6c-0.7-0.6-1.3-1.2-1.9-1.8l0-0.1
		c-5.1-5-10.9-9.1-16.9-12c-6.4-3.1-13.4-5.2-20.7-6.1c-18.6-2.4-31.8-19.5-29.5-38.3c2.3-18.8,19.3-32.1,37.9-29.8
		c14.3,1.8,28.4,6,41.9,12.6c12.9,6.3,25,14.8,35.5,25.4l0.5,0.5l0.1-0.1c0.5,0.5,1,1.1,1.5,1.6c24.7,25.8,37.1,59.3,37.1,92.9
		c0,34.3-13,68.7-39.1,94.8l-104.7,104.7c-10.1,10.1-15.1,23.4-15.1,36.8c0,12.7,4.6,25.4,13.9,35.3c0.6,0.6,1.2,1.2,1.8,1.8l0,0.1
		c10.2,9.9,23.5,14.9,36.9,14.9c13.5,0,27-5.1,37.2-15.4l58.3-58.3c0.6-0.7,1.3-1.4,1.9-2.1l0.1,0.1c10-10.1,15-23.3,15-36.6
		c0-12.6-4.6-25.3-13.8-35.2c-2.3-2-4.4-4.4-6.1-7.2c-10.2-16-5.7-37.2,10.1-47.5c14.6-9.5,33.6-6.4,44.5,6.7
		c22.1,23.2,33.1,53.3,33.1,83.5c0,30.9-11.8,61.9-35.3,85.4l-0.2,0.2l0.1,0.1c-0.5,0.5-1.1,1-1.6,1.5l-58.4,58.4
		c-23.4,23.4-54.2,35.1-85.1,35.1c-30.8,0-61.5-11.7-84.9-35.1l-0.5-0.5l-0.1,0.1c-0.5-0.5-1-1.1-1.5-1.7c-14.3-15-24-32.8-29-51.7
		c-18.4,9-38.6,13.4-58.7,13.4c-34.1,0-68.3-13-94.3-39l-0.5-0.5l-0.1,0.1c-0.5-0.5-1-1.1-1.5-1.6c-21.7-22.6-33.8-51.1-36.5-80.4
		c-10.3,2.5-20.9,3.7-31.5,3.7c-34.1,0-68.3-13-94.3-39l-0.5-0.5l-0.1,0.1c-0.5-0.5-1-1.1-1.5-1.6c-20.1-21-32.1-47.1-35.8-74.2
		c-13.3,4.3-27.2,6.4-41,6.4c-34.1,0-68.3-13-94.3-39l-0.5-0.5l-0.1,0.1c-0.5-0.5-1-1.1-1.5-1.6c-24.7-25.8-37.1-59.3-37.1-92.9
		C525.3,1670.3,538.4,1635.9,564.5,1609.8L564.5,1609.8z M709.6,1561.2l-95.6,95.6c-0.6,0.7-1.3,1.4-1.9,2.1l-0.1-0.1
		c-12.5,12.6-18.8,29.3-18.8,46c0,16,5.9,32,17.6,44.5c1,0.9,2,1.9,2.9,2.9c12.6,11.8,28.9,17.8,45.2,17.8
		c16.9,0,33.7-6.4,46.5-19.2l97.4-97.4c12.7-12.7,19-29.4,19-46.2c0-16-5.9-32.1-17.7-44.6c-0.7-0.6-1.3-1.2-1.9-1.8l0-0.1
		c-12.7-12.5-29.5-18.7-46.2-18.7C739.3,1542,722.4,1548.4,709.6,1561.2L709.6,1561.2z M1553,1401.6c-13.3-13.3-13.4-35-0.2-48.5
		c13.2-13.5,34.7-13.6,48-0.2l320.5,320.5c26.5,26.5,39.8,61.5,39.8,96.6c0,34.9-13.3,69.9-39.8,96.4l-0.2,0.2l0.1,0.1
		c-0.6,0.6-1.3,1.2-2,1.8c-26.1,25-60.1,37.6-94,37.6c-17.2,0-34.4-3.2-50.6-9.7c-9.1,0.4-18.3-2.9-25.3-9.9l-276.4-276.4
		c-13.3-13.3-13.4-35-0.2-48.5c13.2-13.5,34.7-13.6,48-0.2l256.4,256.4c13.2,13.2,30.8,19.9,48.3,19.9c16.8,0,33.6-6.2,46.7-18.5
		c0.5-0.6,1.1-1.2,1.6-1.7l0.1,0.1c13-13.1,19.5-30.3,19.5-47.6c0-17.2-6.6-34.5-19.7-47.7L1553,1401.6z M1766.7,1951.6
		c4.8-18.3,23.4-29.2,41.6-24.4c18.1,4.9,28.9,23.7,24.1,42c-3,11.5-7.6,22.6-13.6,33.1c-5.8,10.1-13,19.6-21.8,28.3l-0.2,0.2
		l0.1,0.1c-0.6,0.6-1.3,1.2-2,1.8c-26.1,25-60,37.6-94,37.6c-22.8,0-45.6-5.7-66-17c-5.5,17.8-15.2,34.5-29.2,48.6l-0.1,0.1
		c-22.8,22.7-52.9,34.1-82.9,34.1c-30,0-60-11.4-82.9-34.3l-57.1-57.1c-13.3-13.3-13.4-35-0.2-48.5c13.2-13.5,34.7-13.6,48-0.2
		l57.1,57.1c9.7,9.7,22.5,14.5,35.3,14.5c12.1,0,24.2-4.4,33.7-13.1c0.9-1,1.8-2,2.9-2.9c8.6-9.4,12.9-21.3,12.9-33.4
		c0-12.5-4.8-25.1-14.4-34.6l-159.3-159.3c-13.3-13.3-13.4-35-0.2-48.5c13.2-13.5,34.7-13.6,48-0.2l204.6,204.6
		c0.8,0.7,1.5,1.4,2.3,2.1l-0.1,0.1c13.2,12.9,30.5,19.4,47.8,19.4c16.8,0,33.6-6.2,46.7-18.5c0.5-0.6,1.1-1.1,1.6-1.7l0.1,0.1
		c4.1-4.1,7.6-8.8,10.5-13.8C1763,1962.7,1765.2,1957.2,1766.7,1951.6L1766.7,1951.6z" fill="#ffffff" class="color000 svgShape"></path></svg></g></svg>