<svg width="48" height="47" viewBox="0 0 48 47" fill="none" xmlns="http://www.w3.org/2000/svg">
<path d="M43.9431 11.7863C41.8782 8.2487 39.0772 5.44778 35.5396 3.38297C32.0013 1.31827 28.1387 0.286133 23.949 0.286133C19.7597 0.286133 15.896 1.31827 12.3583 3.38297C8.82041 5.44746 6.01949 8.24838 3.95458 11.7863C1.88956 15.3243 0.857422 19.188 0.857422 23.3771C0.857422 27.5663 1.88988 31.4293 3.95426 34.9676C6.01907 38.5052 8.81999 41.3061 12.3579 43.3711C15.896 45.4357 19.7593 46.468 23.9486 46.468C28.1378 46.468 32.0016 45.4357 35.5395 43.3711C39.0771 41.3069 41.8779 38.5052 43.9426 34.9676C46.007 31.4297 47.0391 27.5661 47.0391 23.3771C47.0392 19.1876 46.007 15.3238 43.9431 11.7863ZM34.8325 28.8186C35.2134 29.1991 35.4041 29.6511 35.4041 30.1723C35.4041 30.7128 35.2134 31.1742 34.8325 31.5547L32.1268 34.2612C31.7462 34.6417 31.285 34.832 30.7436 34.832C30.2225 34.832 29.7709 34.6417 29.3906 34.2612L23.9487 28.8186L18.5065 34.2612C18.1257 34.6417 17.6747 34.832 17.1536 34.832C16.6123 34.832 16.1513 34.6417 15.7704 34.2612L13.0643 31.5547C12.6835 31.1742 12.4931 30.7128 12.4931 30.1723C12.4931 29.6512 12.6836 29.1992 13.0643 28.8186L18.5065 23.377L13.0643 17.9348C12.6835 17.5544 12.4931 17.103 12.4931 16.5818C12.4931 16.0406 12.6836 15.5796 13.0643 15.1987L15.7704 12.493C16.1513 12.1122 16.6123 11.9218 17.1536 11.9218C17.6747 11.9218 18.1257 12.1123 18.5065 12.493L23.9487 17.9348L29.3906 12.493C29.7708 12.1122 30.2224 11.9218 30.7436 11.9218C31.285 11.9218 31.7462 12.1123 32.1268 12.493L34.8325 15.1987C35.2134 15.5796 35.4041 16.0406 35.4041 16.5818C35.4041 17.1029 35.2134 17.5544 34.8325 17.9348L29.3906 23.377L34.8325 28.8186Z" fill="#DC3545"/>
</svg>
