<svg width="74" height="74" viewBox="0 0 74 74" fill="none" xmlns="http://www.w3.org/2000/svg">
<g clip-path="url(#clip0_1369_1110)">
<path d="M65.7953 60.7501C65.7816 60.5584 65.7542 60.3667 65.7268 60.1749C65.6994 59.9832 65.672 59.7914 65.6309 59.6134C65.5898 59.4216 65.5487 59.2436 65.5076 59.0518C65.4666 58.8601 65.4118 58.682 65.357 58.4903C65.3022 58.3122 65.2337 58.1205 65.1789 57.9424C65.1105 57.7644 65.042 57.5863 64.9735 57.4083C64.905 57.2303 64.8228 57.0522 64.7407 56.8879C64.6585 56.7098 64.5763 56.5454 64.4804 56.3674C64.3846 56.203 64.2887 56.025 64.1928 55.8606C64.0969 55.6963 63.9874 55.5319 63.8778 55.3676C63.7682 55.2032 63.6587 55.0526 63.5491 54.9019C63.4395 54.7513 63.3163 54.6006 63.193 54.45C63.0697 54.2993 62.9465 54.1623 62.8095 54.0117C62.6863 53.8747 62.5493 53.7241 62.4123 53.6008C62.2754 53.4638 62.1384 53.3269 62.0015 53.2036C61.8645 53.0803 61.7138 52.9434 61.5632 52.8201C61.4125 52.6969 61.2619 52.5736 61.1112 52.464C60.9606 52.3545 60.7962 52.2449 60.6455 52.1353C60.4812 52.0257 60.3168 51.9299 60.1525 51.8203C59.9881 51.7244 59.8238 51.6286 59.6457 51.5327C59.4814 51.4368 59.3033 51.3546 59.1253 51.2725C58.9472 51.1903 58.7692 51.1081 58.6048 51.0396C58.4268 50.9712 58.2487 50.9027 58.0707 50.8342C57.8926 50.7657 57.7009 50.7109 57.5228 50.6561C57.3448 50.6014 57.153 50.5466 56.9613 50.5055C56.7696 50.4644 56.5915 50.4233 56.3998 50.3822C56.208 50.3411 56.0163 50.3137 55.8382 50.2863C55.6465 50.259 55.4547 50.2316 55.263 50.2179C55.0712 50.2042 54.8795 50.1905 54.6878 50.1768C54.496 50.1631 54.3043 50.1631 54.1125 50.1631C53.9208 50.1631 53.729 50.1631 53.5373 50.1768C53.3455 50.1905 53.1538 50.2042 52.9621 50.2179C52.7703 50.2316 52.5786 50.259 52.3868 50.2863C52.1951 50.3137 52.0033 50.3411 51.8253 50.3822C51.6335 50.4233 51.4555 50.4644 51.2637 50.5055C51.072 50.5466 50.8939 50.6014 50.7022 50.6561C50.5242 50.7109 50.3324 50.7657 50.1544 50.8342C49.9763 50.9027 49.7983 50.9712 49.6202 51.0396C49.4422 51.1081 49.2641 51.1903 49.0998 51.2725C48.9217 51.3546 48.7574 51.4368 48.5793 51.5327C48.415 51.6286 48.2369 51.7244 48.0726 51.8203C47.9082 51.9162 47.7439 52.0257 47.5795 52.1216C47.4151 52.2312 47.2645 52.3408 47.1138 52.4503C46.9632 52.5599 46.8125 52.6832 46.6619 52.8064C46.5112 52.9297 46.3742 53.053 46.2236 53.1899C46.0866 53.3132 45.936 53.4501 45.799 53.5871C45.6621 53.7241 45.5251 53.861 45.4018 53.998C45.2786 54.1349 45.1416 54.2856 45.032 54.4363C44.9088 54.5869 44.7855 54.7376 44.6759 54.8882C44.5664 55.0389 44.4568 55.2032 44.3472 55.3539C44.2377 55.5182 44.1418 55.6826 44.0322 55.847C43.9363 56.0113 43.8405 56.1757 43.7446 56.3537C43.6487 56.5181 43.5666 56.6961 43.4844 56.8742C43.4022 57.0522 43.32 57.2303 43.2515 57.3946C43.1831 57.5727 43.1146 57.7507 43.0461 57.9287C42.9776 58.1068 42.9228 58.2985 42.8681 58.4766C42.8133 58.6546 42.7585 58.8464 42.7174 59.0381C42.6763 59.2299 42.6352 59.4079 42.5941 59.5997C42.553 59.7914 42.5257 59.9832 42.4983 60.1612C42.4709 60.353 42.4435 60.5447 42.4298 60.7364C42.4161 60.9282 42.4024 61.1199 42.3887 61.3117C42.375 61.5034 42.375 61.6952 42.375 61.8869C42.375 62.0787 42.375 62.2704 42.3887 62.4621C42.4024 62.6539 42.4161 62.8456 42.4298 63.0374C42.4435 63.2291 42.4709 63.4209 42.4983 63.6126C42.5257 63.8044 42.553 63.9961 42.5941 64.1742C42.6352 64.3659 42.6763 64.5439 42.7174 64.7357C42.7585 64.9274 42.8133 65.1055 42.8681 65.2972C42.9228 65.4753 42.9776 65.667 43.0461 65.8451C43.1146 66.0231 43.1831 66.2012 43.2515 66.3792C43.32 66.5573 43.4022 66.7353 43.4844 66.8997C43.5666 67.0777 43.6487 67.2421 43.7446 67.4201C43.8405 67.5845 43.9363 67.7625 44.0322 67.9269C44.1281 68.0912 44.2377 68.2556 44.3472 68.4199C44.4568 68.5843 44.5664 68.7349 44.6759 68.8856C44.7855 69.0363 44.9088 69.1869 45.032 69.3376C45.1553 69.4882 45.2786 69.6252 45.4018 69.7758C45.5251 69.9128 45.6621 70.0635 45.799 70.1867C45.936 70.3237 46.0729 70.4606 46.2236 70.5839C46.3605 70.7072 46.5112 70.8441 46.6619 70.9674C46.8125 71.0907 46.9632 71.2139 47.1138 71.3235C47.2645 71.4331 47.4288 71.5426 47.5795 71.6522C47.7439 71.7618 47.9082 71.8576 48.0726 71.9672C48.2369 72.0631 48.4013 72.159 48.5793 72.2548C48.7574 72.3507 48.9217 72.4329 49.0998 72.5151C49.2778 72.5972 49.4559 72.6794 49.6202 72.7479C49.7983 72.8164 49.9763 72.8848 50.1544 72.9533C50.3324 73.0218 50.5242 73.0766 50.7022 73.1314C50.8803 73.1862 51.072 73.2409 51.2637 73.282C51.4555 73.3231 51.6335 73.3642 51.8253 73.4053C52.017 73.4464 52.2088 73.4738 52.3868 73.5012C52.5786 73.5286 52.7703 73.556 52.9621 73.5697C53.1538 73.5833 53.3455 73.597 53.5373 73.6107C53.729 73.6244 53.9208 73.6244 54.1125 73.6244C54.3043 73.6244 54.496 73.6244 54.6878 73.6107C54.8795 73.597 55.0712 73.5833 55.263 73.5697C55.4547 73.556 55.6465 73.5286 55.8382 73.5012C56.03 73.4738 56.2217 73.4464 56.3998 73.4053C56.5915 73.3642 56.7696 73.3231 56.9613 73.282C57.153 73.2409 57.3311 73.1862 57.5228 73.1314C57.7009 73.0766 57.8926 73.0218 58.0707 72.9533C58.2487 72.8848 58.4268 72.8164 58.6048 72.7479C58.7829 72.6794 58.9609 72.5972 59.1253 72.5151C59.3033 72.4329 59.4677 72.3507 59.6457 72.2548C59.8101 72.159 59.9881 72.0631 60.1525 71.9672C60.3168 71.8713 60.4812 71.7618 60.6455 71.6522C60.8099 71.5426 60.9606 71.4331 61.1112 71.3235C61.2619 71.2139 61.4125 71.0907 61.5632 70.9674C61.7138 70.8441 61.8508 70.7209 62.0015 70.5839C62.1384 70.4606 62.2891 70.3237 62.4123 70.1867C62.5493 70.0498 62.6863 69.9128 62.8095 69.7758C62.9328 69.6389 63.0697 69.4882 63.193 69.3376C63.3163 69.1869 63.4395 69.0363 63.5491 68.8856C63.6587 68.7349 63.7682 68.5706 63.8778 68.4199C63.9874 68.2556 64.0833 68.0912 64.1928 67.9269C64.2887 67.7625 64.3846 67.5982 64.4804 67.4201C64.5763 67.2558 64.6585 67.0777 64.7407 66.8997C64.8228 66.7216 64.905 66.5573 64.9735 66.3792C65.042 66.2012 65.1105 66.0231 65.1789 65.8451C65.2474 65.667 65.3022 65.4753 65.357 65.2972C65.4118 65.1192 65.4666 64.9274 65.5076 64.7357C65.5487 64.5439 65.5898 64.3659 65.6309 64.1742C65.672 63.9824 65.6994 63.7907 65.7268 63.6126C65.7542 63.4209 65.7816 63.2291 65.7953 63.0374C65.809 62.8456 65.8227 62.6539 65.8363 62.4621C65.85 62.2704 65.85 62.0787 65.85 61.8869C65.85 61.6952 65.85 61.5034 65.8363 61.3117C65.8227 61.1336 65.809 60.9419 65.7953 60.7501ZM60.8921 62.0787C60.8921 62.1334 60.8784 62.2019 60.8647 62.2567C60.851 62.3115 60.8373 62.38 60.8236 62.4348C60.8099 62.4895 60.7825 62.5443 60.7688 62.6128C60.7414 62.6676 60.714 62.7224 60.6866 62.7772C60.6592 62.8319 60.6318 62.8867 60.5908 62.9278C60.5634 62.9826 60.5223 63.0237 60.4812 63.0785C60.4401 63.1196 60.399 63.1743 60.3579 63.2154C60.3168 63.2565 60.2757 63.2976 60.221 63.3387C60.1799 63.3798 60.1251 63.4072 60.0703 63.4483C60.0155 63.4757 59.9607 63.5167 59.9196 63.5441C59.8649 63.5715 59.8101 63.5989 59.7553 63.6263C59.7005 63.6537 59.6457 63.6674 59.5772 63.6811C59.5225 63.6948 59.454 63.7085 59.3992 63.7222C59.3444 63.7359 59.2759 63.7496 59.2212 63.7496C59.1664 63.7496 59.0979 63.7633 59.0431 63.7633H55.9478V66.8586C55.9478 66.9134 55.9478 66.9818 55.9341 67.0366C55.9341 67.0914 55.9204 67.1599 55.9067 67.2147C55.893 67.2695 55.8793 67.3379 55.8656 67.3927C55.8519 67.4475 55.8245 67.5023 55.8108 67.5708C55.7834 67.6256 55.7561 67.6803 55.7287 67.7351C55.7013 67.7899 55.6739 67.8447 55.6328 67.8858C55.6054 67.9406 55.5643 67.9817 55.5232 68.0364C55.4821 68.0775 55.441 68.1323 55.3999 68.1734C55.3589 68.2145 55.3178 68.2556 55.263 68.2967C55.2219 68.3378 55.1671 68.3651 55.1123 68.4062C55.0576 68.4336 55.0165 68.4747 54.9617 68.5021C54.9069 68.5295 54.8521 68.5569 54.7973 68.5843C54.7425 68.6117 54.6878 68.6254 54.6193 68.6391C54.5645 68.6528 54.496 68.6665 54.4412 68.6802C54.3864 68.6939 54.318 68.7076 54.2632 68.7076C54.2084 68.7076 54.1399 68.7212 54.0851 68.7212C54.0303 68.7212 53.9619 68.7212 53.9071 68.7076C53.8523 68.7076 53.7838 68.6939 53.729 68.6802C53.6742 68.6665 53.6058 68.6528 53.551 68.6391C53.4962 68.6254 53.4414 68.598 53.3729 68.5843C53.3181 68.5569 53.2634 68.5295 53.2086 68.5021C53.1538 68.4747 53.099 68.4473 53.0579 68.4062C53.0031 68.3788 52.9621 68.3378 52.9073 68.2967C52.8662 68.2556 52.8114 68.2145 52.7703 68.1734C52.7292 68.1323 52.6881 68.0912 52.647 68.0364C52.606 67.9954 52.5786 67.9406 52.5375 67.8858C52.5101 67.831 52.469 67.7762 52.4416 67.7351C52.4142 67.6803 52.3868 67.6256 52.3594 67.5708C52.332 67.516 52.3183 67.4612 52.3046 67.3927C52.2909 67.3379 52.2772 67.2695 52.2636 67.2147C52.2499 67.1599 52.2362 67.0914 52.2362 67.0366C52.2362 66.9818 52.2225 66.9134 52.2225 66.8586V63.7633H49.1272C49.0724 63.7633 49.0039 63.7633 48.9491 63.7496C48.8943 63.7496 48.8258 63.7359 48.7711 63.7222C48.7163 63.7085 48.6478 63.6948 48.593 63.6811C48.5382 63.6674 48.4834 63.64 48.415 63.6263C48.3602 63.5989 48.3054 63.5715 48.2506 63.5441C48.1958 63.5167 48.141 63.4894 48.1 63.4483C48.0452 63.4209 48.0041 63.3798 47.9493 63.3387C47.9082 63.2976 47.8534 63.2565 47.8123 63.2154C47.7712 63.1743 47.7302 63.1333 47.6891 63.0785C47.648 63.0374 47.6206 62.9826 47.5795 62.9278C47.5521 62.873 47.511 62.8319 47.4836 62.7772C47.4562 62.7224 47.4288 62.6676 47.4015 62.6128C47.3741 62.558 47.3604 62.5032 47.3467 62.4348C47.333 62.38 47.3193 62.3115 47.3056 62.2567C47.2919 62.2019 47.2782 62.1334 47.2782 62.0787C47.2782 62.0239 47.2645 61.9554 47.2645 61.9006C47.2645 61.8458 47.2645 61.7773 47.2782 61.7226C47.2782 61.6678 47.2919 61.5993 47.3056 61.5445C47.3193 61.4897 47.333 61.4212 47.3467 61.3665C47.3604 61.3117 47.3878 61.2569 47.4015 61.1884C47.4288 61.1336 47.4562 61.0788 47.4836 61.0241C47.511 60.9693 47.5384 60.9145 47.5795 60.8734C47.6069 60.8186 47.648 60.7775 47.6891 60.7227C47.7302 60.6817 47.7712 60.6269 47.8123 60.5858C47.8534 60.5447 47.8945 60.5036 47.9493 60.4625C47.9904 60.4214 48.0452 60.394 48.1 60.353C48.1547 60.3256 48.1958 60.2845 48.2506 60.2571C48.3054 60.2297 48.3602 60.2023 48.415 60.1749C48.4697 60.1475 48.5245 60.1338 48.593 60.1201C48.6478 60.1064 48.7163 60.0927 48.7711 60.079C48.8258 60.0653 48.8943 60.0516 48.9491 60.0516C49.0039 60.0516 49.0724 60.0379 49.1272 60.0379H52.2225V56.9426C52.2225 56.8879 52.2225 56.8194 52.2362 56.7646C52.2362 56.7098 52.2499 56.6413 52.2636 56.5865C52.2772 56.5318 52.2909 56.4633 52.3046 56.4085C52.3183 56.3537 52.3457 56.2989 52.3594 56.2304C52.3868 56.1757 52.4142 56.1209 52.4416 56.0661C52.469 56.0113 52.4964 55.9565 52.5375 55.9154C52.5649 55.8606 52.606 55.8196 52.647 55.7648C52.6881 55.7237 52.7292 55.6689 52.7703 55.6278C52.8114 55.5867 52.8525 55.5456 52.9073 55.5045C52.9484 55.4635 53.0031 55.4361 53.0579 55.395C53.1127 55.3676 53.1675 55.3265 53.2086 55.2991C53.2634 55.2717 53.3181 55.2443 53.3729 55.2169C53.4277 55.1895 53.4825 55.1758 53.551 55.1621C53.6058 55.1485 53.6742 55.1348 53.729 55.1211C53.7838 55.1074 53.8523 55.0937 53.9071 55.0937C53.9619 55.0937 54.0303 55.08 54.0851 55.08C54.1399 55.08 54.2084 55.08 54.2632 55.0937C54.318 55.0937 54.3864 55.1074 54.4412 55.1211C54.496 55.1348 54.5645 55.1485 54.6193 55.1621C54.6741 55.1758 54.7288 55.2032 54.7973 55.2169C54.8521 55.2443 54.9069 55.2717 54.9617 55.2991C55.0165 55.3265 55.0712 55.3539 55.1123 55.395C55.1671 55.4224 55.2082 55.4635 55.263 55.5045C55.3041 55.5456 55.3589 55.5867 55.3999 55.6278C55.441 55.6689 55.4821 55.71 55.5232 55.7648C55.5643 55.8059 55.5917 55.8606 55.6328 55.9154C55.6602 55.9702 55.7013 56.0113 55.7287 56.0661C55.7561 56.1209 55.7834 56.1757 55.8108 56.2304C55.8382 56.2852 55.8519 56.34 55.8656 56.4085C55.8793 56.4633 55.893 56.5318 55.9067 56.5865C55.9204 56.6413 55.9341 56.7098 55.9341 56.7646C55.9341 56.8194 55.9478 56.8879 55.9478 56.9426V60.0379H59.0431C59.0979 60.0379 59.1664 60.0379 59.2212 60.0516C59.2759 60.0516 59.3444 60.0653 59.3992 60.079C59.454 60.0927 59.5225 60.1064 59.5772 60.1201C59.632 60.1338 59.6868 60.1612 59.7553 60.1749C59.8101 60.2023 59.8649 60.2297 59.9196 60.2571C59.9744 60.2845 60.0292 60.3119 60.0703 60.353C60.1251 60.3803 60.1662 60.4214 60.221 60.4625C60.2621 60.5036 60.3168 60.5447 60.3579 60.5858C60.399 60.6269 60.4401 60.668 60.4812 60.7227C60.5223 60.7638 60.5497 60.8186 60.5908 60.8734C60.6182 60.9282 60.6592 60.983 60.6866 61.0241C60.714 61.0788 60.7414 61.1336 60.7688 61.1884C60.7962 61.2432 60.8099 61.298 60.8236 61.3665C60.8373 61.4212 60.851 61.4897 60.8647 61.5445C60.8784 61.5993 60.8921 61.6678 60.8921 61.7226C60.8921 61.7773 60.9058 61.8458 60.9058 61.9006C60.9058 61.9554 60.9058 62.0239 60.8921 62.0787Z" fill="url(#paint0_linear_1369_1110)"/>
<path d="M22.6388 16.3064C22.6662 16.5392 22.6936 16.7721 22.721 17.0049C22.7621 17.2377 22.7894 17.4706 22.8442 17.6897C22.8853 17.9225 22.9401 18.1417 22.9949 18.3745C23.0497 18.5936 23.1182 18.8265 23.1866 19.0456C23.2551 19.2648 23.3236 19.4839 23.4058 19.703C23.4879 19.9222 23.5701 20.1413 23.6523 20.3604C23.7345 20.5796 23.8303 20.785 23.9399 21.0042C24.0358 21.2096 24.1454 21.4287 24.2549 21.6342C24.3645 21.8396 24.4741 22.0451 24.5973 22.2368C24.7206 22.4422 24.8439 22.634 24.9671 22.8257C25.0904 23.0175 25.2273 23.2092 25.3643 23.401C25.5013 23.5927 25.6519 23.7708 25.7889 23.9488C25.9395 24.1269 26.0902 24.3049 26.2409 24.483C26.3915 24.661 26.5559 24.8254 26.7202 24.9897C26.8846 25.1541 27.0489 25.3184 27.227 25.4691C27.405 25.6197 27.5694 25.7704 27.7611 25.921C27.9392 26.0717 28.1309 26.2087 28.309 26.3456C28.5007 26.4826 28.6925 26.6195 28.8842 26.7428C29.0759 26.8661 29.2677 27.003 29.4731 27.1126C29.6786 27.2359 29.8703 27.3454 30.0758 27.455C30.2812 27.5646 30.4866 27.6741 30.6921 27.77C30.8975 27.8659 31.1167 27.9618 31.3358 28.0576C31.5549 28.1398 31.7741 28.2357 31.9932 28.3042C32.2123 28.3863 32.4315 28.4548 32.6506 28.5233C32.8697 28.5918 33.1026 28.6466 33.3217 28.715C33.5546 28.7698 33.7737 28.8246 34.0065 28.8657C34.2394 28.9068 34.4585 28.9479 34.6913 28.989C34.9242 29.03 35.157 29.0574 35.3898 29.0711C35.6227 29.0985 35.8555 29.1122 36.0883 29.1259C36.3212 29.1396 36.554 29.1396 36.7868 29.1396C37.0197 29.1396 37.2525 29.1396 37.4853 29.1259C37.7182 29.1122 37.951 29.0985 38.1838 29.0711C38.4167 29.0437 38.6495 29.0163 38.8823 28.989C39.1152 28.9616 39.348 28.9205 39.5671 28.8657C39.8 28.8246 40.0191 28.7698 40.2519 28.715C40.4848 28.6602 40.7039 28.5918 40.923 28.5233C41.1422 28.4548 41.3613 28.3863 41.5804 28.3042C41.7996 28.222 42.0187 28.1398 42.2379 28.0576C42.457 27.9618 42.6624 27.8796 42.8816 27.77C43.087 27.6741 43.3061 27.5646 43.5116 27.455C43.717 27.3454 43.9225 27.2359 44.1142 27.1126C44.3197 26.9893 44.5114 26.8661 44.7031 26.7428C44.8949 26.6195 45.0866 26.4826 45.2784 26.3456C45.4701 26.2087 45.6482 26.058 45.8262 25.921C46.0043 25.7704 46.1823 25.6197 46.3604 25.4691C46.5384 25.3184 46.7028 25.1541 46.8671 24.9897C47.0315 24.8254 47.1958 24.661 47.3465 24.483C47.4971 24.3049 47.6478 24.1405 47.7985 23.9488C47.9491 23.7708 48.0861 23.579 48.223 23.401C48.36 23.2092 48.497 23.0175 48.6202 22.8257C48.7435 22.634 48.8804 22.4422 48.99 22.2368C49.1133 22.0314 49.2228 21.8396 49.3324 21.6342C49.442 21.4287 49.5515 21.2233 49.6474 21.0042C49.7433 20.7987 49.8392 20.5796 49.935 20.3604C50.0172 20.1413 50.1131 19.9222 50.1816 19.703C50.2637 19.4839 50.3322 19.2648 50.4007 19.0456C50.4692 18.8265 50.524 18.5936 50.5925 18.3745C50.6472 18.1554 50.702 17.9225 50.7431 17.6897C50.7842 17.4569 50.8253 17.2377 50.8664 17.0049C50.8938 16.7721 50.9348 16.5392 50.9485 16.3064C50.9759 16.0736 50.9896 15.8407 51.0033 15.6079C51.017 15.3751 51.017 15.1422 51.017 14.9094C51.017 14.6766 51.017 14.4437 51.0033 14.2109C50.9896 13.9781 50.9759 13.7452 50.9485 13.5124C50.9212 13.2796 50.8938 13.0467 50.8664 12.8139C50.839 12.5811 50.7979 12.3482 50.7431 12.1291C50.702 11.8963 50.6472 11.6771 50.5925 11.4443C50.5377 11.2252 50.4692 10.9923 50.4007 10.7732C50.3322 10.5541 50.2637 10.3349 50.1816 10.1158C50.0994 9.89665 50.0172 9.67751 49.935 9.45837C49.8529 9.23924 49.757 9.0338 49.6474 8.81466C49.5515 8.60922 49.442 8.39008 49.3324 8.18464C49.2228 7.9792 49.1133 7.77376 48.99 7.58201C48.8667 7.37657 48.7435 7.18483 48.6202 6.99308C48.497 6.80134 48.36 6.60959 48.223 6.41785C48.0861 6.2261 47.9354 6.04805 47.7985 5.87001C47.6478 5.69196 47.4971 5.51391 47.3465 5.33586C47.1958 5.15781 47.0315 4.99346 46.8671 4.82911C46.7028 4.66475 46.5384 4.5004 46.3604 4.34974C46.1823 4.19909 46.018 4.03473 45.8262 3.89777C45.6482 3.74712 45.4564 3.61016 45.2784 3.4732C45.0866 3.33624 44.8949 3.19927 44.7031 3.07601C44.5114 2.95275 44.3197 2.81578 44.1142 2.70622C43.9088 2.58295 43.717 2.47338 43.5116 2.36381C43.3061 2.25425 43.1007 2.14468 42.8816 2.04881C42.6761 1.95293 42.457 1.85706 42.2379 1.76119C42.0187 1.67901 41.7996 1.58314 41.5804 1.51466C41.3613 1.43248 41.1422 1.364 40.923 1.29552C40.7039 1.22704 40.4711 1.17226 40.2519 1.10378C40.0328 1.04899 39.8 0.994209 39.5671 0.95312C39.3343 0.912032 39.1152 0.870944 38.8823 0.829856C38.6495 0.788768 38.4167 0.761376 38.1838 0.74768C37.951 0.720287 37.7182 0.706591 37.4853 0.692895C37.2525 0.679199 37.0197 0.679199 36.7868 0.679199C36.554 0.679199 36.3212 0.679199 36.0883 0.692895C35.8555 0.706591 35.6227 0.720287 35.3898 0.74768C35.157 0.775072 34.9242 0.802464 34.6913 0.829856C34.4585 0.857248 34.2257 0.898336 34.0065 0.95312C33.7737 0.994209 33.5546 1.04899 33.3217 1.10378C33.1026 1.15856 32.8697 1.22704 32.6506 1.29552C32.4315 1.364 32.2123 1.43248 31.9932 1.51466C31.7741 1.59684 31.5549 1.67901 31.3358 1.76119C31.1167 1.85706 30.9112 1.93924 30.6921 2.04881C30.4866 2.14468 30.2675 2.25425 30.0758 2.36381C29.8703 2.47338 29.6649 2.58295 29.4731 2.70622C29.2677 2.82948 29.0759 2.95275 28.8842 3.07601C28.6925 3.19927 28.5007 3.33624 28.309 3.4732C28.1172 3.61016 27.9392 3.76081 27.7611 3.89777C27.5831 4.04843 27.405 4.19909 27.227 4.34974C27.0489 4.5004 26.8846 4.66475 26.7202 4.82911C26.5559 4.99346 26.3915 5.15781 26.2409 5.33586C26.0902 5.51391 25.9395 5.67826 25.7889 5.87001C25.6382 6.04805 25.5013 6.2398 25.3643 6.41785C25.2273 6.60959 25.0904 6.80134 24.9671 6.99308C24.8439 7.18483 24.7069 7.37657 24.5973 7.58201C24.4741 7.78745 24.3645 7.9792 24.2549 8.18464C24.1454 8.39008 24.0358 8.59552 23.9399 8.81466C23.844 9.0201 23.7482 9.23924 23.6523 9.45837C23.5564 9.67751 23.4743 9.89665 23.4058 10.1158C23.3236 10.3349 23.2551 10.5541 23.1866 10.7732C23.1182 10.9923 23.0634 11.2252 22.9949 11.4443C22.9401 11.6634 22.8853 11.8963 22.8442 12.1291C22.8031 12.3619 22.7621 12.5811 22.721 12.8139C22.6936 13.0467 22.6525 13.2796 22.6388 13.5124C22.6114 13.7452 22.5977 13.9781 22.584 14.2109C22.5703 14.4437 22.5703 14.6766 22.5703 14.9094C22.5703 15.1422 22.5703 15.3751 22.584 15.6079C22.5977 15.8407 22.6114 16.0736 22.6388 16.3064Z" fill="url(#paint1_linear_1369_1110)"/>
<path d="M2.83406 23.2367C2.84775 23.3873 2.86145 23.538 2.88884 23.6886C2.91623 23.8393 2.92993 23.99 2.97102 24.1406C2.99841 24.2913 3.0395 24.4419 3.06689 24.5789C3.10798 24.7295 3.14907 24.8665 3.19015 25.0172C3.23124 25.1678 3.28603 25.3048 3.32711 25.4554C3.3819 25.5924 3.43668 25.743 3.49147 25.88C3.54625 26.017 3.61473 26.1539 3.66952 26.2909C3.738 26.4279 3.80648 26.5648 3.87496 26.7018C3.94344 26.8387 4.02561 26.962 4.09409 27.099C4.17627 27.2222 4.25845 27.3592 4.34062 27.4824C4.4228 27.6057 4.51867 27.729 4.60085 27.8522C4.69672 27.9755 4.7789 28.0988 4.87477 28.2083C4.97064 28.3316 5.06651 28.4412 5.17608 28.5507C5.27196 28.6603 5.38152 28.7699 5.49109 28.8794C5.60066 28.989 5.71023 29.0849 5.8198 29.1945C5.92937 29.2903 6.05263 29.3999 6.1622 29.4958C6.28546 29.5916 6.39503 29.6875 6.5183 29.7697C6.64156 29.8656 6.76483 29.9477 6.88809 30.0299C7.01135 30.1121 7.14832 30.1943 7.27158 30.2764C7.39485 30.3586 7.53181 30.4271 7.66877 30.4956C7.80573 30.5641 7.94269 30.6325 8.07965 30.701C8.21661 30.7695 8.35357 30.8243 8.49053 30.8791C8.62749 30.9339 8.77815 30.9886 8.91511 31.0434C9.05207 31.0982 9.20272 31.1393 9.35338 31.1804C9.50404 31.2215 9.641 31.2626 9.79166 31.3036C9.94231 31.3447 10.093 31.3721 10.2299 31.3995C10.3806 31.4269 10.5312 31.4543 10.6819 31.4817C10.8326 31.5091 10.9832 31.5228 11.1339 31.5365C11.2845 31.5502 11.4352 31.5639 11.5858 31.5639C11.7365 31.5776 11.8872 31.5776 12.0378 31.5776C12.1885 31.5776 12.3391 31.5776 12.4898 31.5639C12.6404 31.5502 12.7911 31.5502 12.9417 31.5365C13.0924 31.5228 13.2431 31.5091 13.3937 31.4817C13.5444 31.4543 13.695 31.4269 13.8457 31.3995C13.9963 31.3721 14.147 31.331 14.284 31.3036C14.4346 31.2626 14.5716 31.2215 14.7222 31.1804C14.8729 31.1393 15.0099 31.0845 15.1605 31.0434C15.2975 30.9886 15.4481 30.9339 15.5851 30.8791C15.722 30.8243 15.859 30.7558 15.996 30.701C16.1329 30.6325 16.2699 30.5641 16.4069 30.4956C16.5438 30.4271 16.6671 30.3449 16.804 30.2764C16.9273 30.1943 17.0643 30.1121 17.1875 30.0299C17.3108 29.9477 17.4341 29.8519 17.5573 29.7697C17.6806 29.6738 17.8039 29.5916 17.9134 29.4958C18.0367 29.3999 18.1463 29.304 18.2558 29.1945C18.3654 29.0986 18.475 28.989 18.5845 28.8794C18.6941 28.7699 18.79 28.6603 18.8995 28.5507C18.9954 28.4412 19.105 28.3179 19.2008 28.2083C19.2967 28.0851 19.3926 27.9755 19.4748 27.8522C19.5706 27.729 19.6528 27.6057 19.735 27.4824C19.8172 27.3592 19.8993 27.2222 19.9815 27.099C20.0637 26.962 20.1322 26.8387 20.2007 26.7018C20.2691 26.5648 20.3376 26.4279 20.4061 26.2909C20.4746 26.1539 20.5294 26.017 20.5842 25.88C20.6389 25.743 20.6937 25.5924 20.7485 25.4554C20.8033 25.3185 20.8444 25.1678 20.8855 25.0172C20.9266 24.8665 20.9676 24.7295 21.0087 24.5789C21.0498 24.4282 21.0772 24.2776 21.1046 24.1406C21.132 23.99 21.1594 23.8393 21.1868 23.6886C21.2142 23.538 21.2279 23.3873 21.2416 23.2367C21.2553 23.086 21.269 22.9354 21.269 22.7847C21.2826 22.634 21.2826 22.4834 21.2826 22.3327C21.2826 22.1821 21.2826 22.0314 21.269 21.8808C21.2553 21.7301 21.2553 21.5794 21.2416 21.4288C21.2279 21.2781 21.2142 21.1275 21.1868 20.9768C21.1594 20.8262 21.132 20.6755 21.1046 20.5249C21.0772 20.3742 21.0361 20.2235 21.0087 20.0866C20.9676 19.9359 20.9266 19.799 20.8855 19.6483C20.8444 19.4976 20.7896 19.3607 20.7485 19.21C20.6937 19.0731 20.6389 18.9224 20.5842 18.7855C20.5294 18.6485 20.4609 18.5115 20.4061 18.3746C20.3376 18.2376 20.2691 18.1006 20.2007 17.9637C20.1322 17.8267 20.05 17.7035 19.9815 17.5665C19.8993 17.4295 19.8172 17.3063 19.735 17.183C19.6528 17.0597 19.5569 16.9365 19.4748 16.8132C19.3789 16.69 19.2967 16.5667 19.2008 16.4571C19.105 16.3339 19.0091 16.2243 18.8995 16.1147C18.8037 16.0052 18.6941 15.8956 18.5845 15.786C18.475 15.6764 18.3654 15.5806 18.2558 15.471C18.1463 15.3751 18.023 15.2656 17.9134 15.1697C17.7902 15.0738 17.6806 14.9779 17.5573 14.8958C17.4341 14.7999 17.3108 14.7177 17.1875 14.6355C17.0643 14.5534 16.9273 14.4712 16.804 14.389C16.6671 14.3068 16.5438 14.2384 16.4069 14.1699C16.2699 14.1014 16.1329 14.0329 15.996 13.9644C15.859 13.896 15.722 13.8412 15.5851 13.7864C15.4481 13.7316 15.2975 13.6768 15.1605 13.622C15.0236 13.5673 14.8729 13.5262 14.7222 13.4851C14.5716 13.444 14.4346 13.4029 14.284 13.3618C14.1333 13.3207 13.9826 13.2933 13.8457 13.2659C13.695 13.2385 13.5444 13.2112 13.3937 13.1838C13.2431 13.1564 13.0924 13.1427 12.9417 13.129C12.7911 13.1153 12.6404 13.1016 12.4898 13.1016C12.3391 13.0879 12.1885 13.0879 12.0378 13.0879C11.8872 13.0879 11.7365 13.0879 11.5858 13.1016C11.4352 13.1153 11.2845 13.1153 11.1339 13.129C10.9832 13.1427 10.8326 13.1564 10.6819 13.1838C10.5312 13.2112 10.3806 13.2385 10.2299 13.2659C10.0793 13.2933 9.92862 13.3344 9.79166 13.3618C9.641 13.4029 9.50404 13.444 9.35338 13.4851C9.20272 13.5262 9.06576 13.5809 8.91511 13.622C8.77815 13.6768 8.62749 13.7316 8.49053 13.7864C8.35357 13.8412 8.21661 13.9097 8.07965 13.9644C7.94269 14.0329 7.80573 14.1014 7.66877 14.1699C7.53181 14.2384 7.40854 14.3205 7.27158 14.389C7.13462 14.4712 7.01135 14.5534 6.88809 14.6355C6.76483 14.7177 6.64156 14.8136 6.5183 14.8958C6.39503 14.9916 6.27177 15.0738 6.1622 15.1697C6.03893 15.2656 5.92937 15.3614 5.8198 15.471C5.71023 15.5669 5.60066 15.6764 5.49109 15.786C5.38152 15.8956 5.28565 16.0052 5.17608 16.1147C5.08021 16.2243 4.97064 16.3476 4.87477 16.4571C4.7789 16.5804 4.68302 16.69 4.60085 16.8132C4.50498 16.9365 4.4228 17.0597 4.34062 17.183C4.25845 17.3063 4.17627 17.4432 4.09409 17.5665C4.01192 17.6898 3.94344 17.8267 3.87496 17.9637C3.80648 18.1006 3.738 18.2376 3.66952 18.3746C3.60104 18.5115 3.54625 18.6485 3.49147 18.7855C3.43668 18.9224 3.3819 19.0731 3.32711 19.21C3.27233 19.347 3.23124 19.4976 3.19015 19.6483C3.14907 19.799 3.10798 19.9359 3.06689 20.0866C3.0258 20.2372 2.99841 20.3879 2.97102 20.5249C2.94363 20.6755 2.91623 20.8262 2.88884 20.9768C2.86145 21.1275 2.84775 21.2781 2.83406 21.4288C2.82036 21.5794 2.80666 21.7301 2.80666 21.8808C2.79297 22.0314 2.79297 22.1821 2.79297 22.3327C2.79297 22.4834 2.79297 22.634 2.80666 22.7847C2.80666 22.9354 2.82036 23.086 2.83406 23.2367Z" fill="url(#paint2_linear_1369_1110)"/>
<path d="M52.2911 23.2367C52.3048 23.3873 52.3185 23.538 52.3459 23.6886C52.3733 23.8393 52.4007 23.99 52.4281 24.1406C52.4554 24.2913 52.4965 24.4419 52.5239 24.5789C52.565 24.7295 52.6061 24.8665 52.6472 25.0172C52.6883 25.1678 52.7431 25.3048 52.7841 25.4554C52.8389 25.5924 52.8937 25.743 52.9485 25.88C53.0033 26.017 53.0718 26.1539 53.1266 26.2909C53.195 26.4279 53.2635 26.5648 53.332 26.7018C53.4005 26.8387 53.4826 26.962 53.5511 27.099C53.6333 27.2222 53.7155 27.3592 53.7977 27.4824C53.8798 27.6057 53.9757 27.729 54.0579 27.8522C54.1538 27.9755 54.2359 28.0988 54.3318 28.2083C54.4277 28.3316 54.5235 28.4412 54.6331 28.5507C54.729 28.6603 54.8386 28.7699 54.9481 28.8794C55.0577 28.989 55.1673 29.0849 55.2768 29.1945C55.3864 29.2903 55.5097 29.3999 55.6192 29.4958C55.7425 29.5916 55.8521 29.6875 55.9753 29.7697C56.0986 29.8656 56.2219 29.9477 56.3451 30.0299C56.4684 30.1121 56.6053 30.1943 56.7286 30.2764C56.8656 30.3586 56.9888 30.4271 57.1258 30.4956C57.2628 30.5641 57.3997 30.6325 57.5367 30.701C57.6736 30.7695 57.8106 30.8243 57.9476 30.8791C58.0845 30.9339 58.2352 30.9886 58.3721 31.0434C58.5091 31.0982 58.6598 31.1393 58.8104 31.1804C58.9611 31.2215 59.098 31.2626 59.2487 31.3036C59.3993 31.3447 59.55 31.3721 59.687 31.3995C59.8376 31.4269 59.9883 31.4543 60.1389 31.4817C60.2896 31.5091 60.4402 31.5228 60.5909 31.5365C60.7416 31.5502 60.8922 31.5639 61.0429 31.5639C61.1935 31.5776 61.3442 31.5776 61.4948 31.5776C61.6455 31.5776 61.7962 31.5776 61.9468 31.5639C62.0975 31.5502 62.2481 31.5502 62.3988 31.5365C62.5494 31.5228 62.7001 31.5091 62.8508 31.4817C63.0014 31.4543 63.1521 31.4269 63.3027 31.3995C63.4534 31.3721 63.604 31.331 63.741 31.3036C63.8917 31.2626 64.0286 31.2215 64.1793 31.1804C64.3299 31.1393 64.4669 31.0845 64.6175 31.0434C64.7545 30.9886 64.9052 30.9339 65.0421 30.8791C65.1791 30.8243 65.316 30.7558 65.453 30.701C65.59 30.6325 65.7269 30.5641 65.8639 30.4956C66.0008 30.4271 66.1241 30.3449 66.2611 30.2764C66.398 30.1943 66.5213 30.1121 66.6446 30.0299C66.7678 29.9477 66.8911 29.8519 67.0144 29.7697C67.1376 29.6738 67.2609 29.5916 67.3705 29.4958C67.4937 29.3999 67.6033 29.304 67.7129 29.1945C67.8224 29.0986 67.932 28.989 68.0416 28.8794C68.1511 28.7699 68.247 28.6603 68.3566 28.5507C68.4524 28.4412 68.562 28.3179 68.6579 28.2083C68.7538 28.0851 68.8496 27.9755 68.9318 27.8522C69.0277 27.729 69.1099 27.6057 69.192 27.4824C69.2742 27.3592 69.3564 27.2222 69.4386 27.099C69.5207 26.962 69.5892 26.8387 69.6577 26.7018C69.7262 26.5648 69.7947 26.4279 69.8631 26.2909C69.9316 26.1539 69.9864 26.017 70.0412 25.88C70.096 25.743 70.1508 25.5924 70.2055 25.4554C70.2603 25.3185 70.3014 25.1678 70.3425 25.0172C70.3836 24.8665 70.4247 24.7295 70.4658 24.5789C70.5068 24.4282 70.5342 24.2776 70.5616 24.1406C70.589 23.99 70.6164 23.8393 70.6438 23.6886C70.6712 23.538 70.6849 23.3873 70.6986 23.2367C70.7123 23.086 70.726 22.9354 70.726 22.7847C70.7397 22.634 70.7397 22.4834 70.7397 22.3327C70.7397 22.1821 70.7397 22.0314 70.726 21.8808C70.7123 21.7301 70.7123 21.5794 70.6986 21.4288C70.6849 21.2781 70.6712 21.1275 70.6438 20.9768C70.6164 20.8262 70.6027 20.6755 70.5616 20.5249C70.5342 20.3742 70.4932 20.2235 70.4658 20.0866C70.4247 19.9359 70.3836 19.799 70.3425 19.6483C70.3014 19.4976 70.2466 19.3607 70.2055 19.21C70.1508 19.0731 70.096 18.9224 70.0412 18.7855C69.9864 18.6485 69.9179 18.5115 69.8631 18.3746C69.7947 18.2376 69.7262 18.1006 69.6577 17.9637C69.5892 17.8267 69.507 17.7035 69.4386 17.5665C69.3564 17.4295 69.2742 17.3063 69.192 17.183C69.1099 17.0597 69.014 16.9365 68.9318 16.8132C68.8359 16.69 68.7538 16.5667 68.6579 16.4571C68.562 16.3339 68.4661 16.2243 68.3566 16.1147C68.2607 16.0052 68.1511 15.8956 68.0416 15.786C67.932 15.6764 67.8224 15.5806 67.7129 15.471C67.6033 15.3751 67.48 15.2656 67.3705 15.1697C67.2472 15.0738 67.1376 14.9779 67.0144 14.8958C66.8911 14.7999 66.7678 14.7177 66.6446 14.6355C66.5213 14.5534 66.3843 14.4712 66.2611 14.389C66.1378 14.3068 66.0008 14.2384 65.8639 14.1699C65.7269 14.1014 65.59 14.0329 65.453 13.9644C65.316 13.896 65.1791 13.8412 65.0421 13.7864C64.9052 13.7316 64.7545 13.6768 64.6175 13.622C64.4806 13.5673 64.3299 13.5262 64.1793 13.4851C64.0286 13.444 63.8917 13.4029 63.741 13.3618C63.5903 13.3207 63.4397 13.2933 63.3027 13.2659C63.1521 13.2385 63.0014 13.2112 62.8508 13.1838C62.7001 13.1564 62.5494 13.1427 62.3988 13.129C62.2481 13.1153 62.0975 13.1016 61.9468 13.1016C61.7962 13.0879 61.6455 13.0879 61.4948 13.0879C61.3442 13.0879 61.1935 13.0879 61.0429 13.1016C60.8922 13.1153 60.7416 13.1153 60.5909 13.129C60.4402 13.1427 60.2896 13.1564 60.1389 13.1838C59.9883 13.2112 59.8376 13.2385 59.687 13.2659C59.5363 13.2933 59.3856 13.3344 59.2487 13.3618C59.098 13.4029 58.9611 13.444 58.8104 13.4851C58.6598 13.5262 58.5228 13.5809 58.3721 13.622C58.2352 13.6768 58.0845 13.7316 57.9476 13.7864C57.8106 13.8412 57.6736 13.9097 57.5367 13.9644C57.3997 14.0329 57.2628 14.1014 57.1258 14.1699C56.9888 14.2384 56.8656 14.3205 56.7286 14.389C56.6053 14.4712 56.4684 14.5534 56.3451 14.6355C56.2219 14.7177 56.0986 14.8136 55.9753 14.8958C55.8521 14.9916 55.7288 15.0738 55.6192 15.1697C55.496 15.2656 55.3864 15.3614 55.2768 15.471C55.1673 15.5669 55.0577 15.6764 54.9481 15.786C54.8386 15.8956 54.7427 16.0052 54.6331 16.1147C54.5372 16.2243 54.4277 16.3476 54.3318 16.4571C54.2359 16.5804 54.1401 16.69 54.0579 16.8132C53.962 16.9365 53.8798 17.0597 53.7977 17.183C53.7155 17.3063 53.6333 17.4432 53.5511 17.5665C53.4689 17.6898 53.4005 17.8267 53.332 17.9637C53.2635 18.1006 53.195 18.2376 53.1266 18.3746C53.0581 18.5115 53.0033 18.6485 52.9485 18.7855C52.8937 18.9224 52.8389 19.0731 52.7841 19.21C52.7294 19.347 52.6883 19.4976 52.6472 19.6483C52.6061 19.799 52.565 19.9359 52.5239 20.0866C52.4828 20.2372 52.4554 20.3879 52.4281 20.5249C52.4007 20.6755 52.3733 20.8262 52.3459 20.9768C52.3185 21.1275 52.3048 21.2781 52.2911 21.4288C52.2774 21.5794 52.2637 21.7301 52.2637 21.8808C52.25 22.0314 52.25 22.1821 52.25 22.3327C52.25 22.4834 52.25 22.634 52.2637 22.7847C52.2637 22.9354 52.2774 23.086 52.2911 23.2367Z" fill="url(#paint3_linear_1369_1110)"/>
<path d="M43.1154 51.0532C43.3072 50.8614 43.4989 50.6697 43.7043 50.4916C43.9098 50.3136 44.1015 50.1356 44.3207 49.9575C44.5261 49.7795 44.7452 49.6151 44.9644 49.4644C45.1835 49.3001 45.4027 49.1494 45.6218 48.9988C45.8409 48.8481 46.0738 48.7112 46.3066 48.5742C46.5394 48.4372 46.7723 48.3003 47.0188 48.177C47.2653 48.0538 47.4982 47.9305 47.7447 47.8209C47.9912 47.7113 48.2377 47.6018 48.4843 47.5059C48.7308 47.41 48.991 47.3142 49.2512 47.232C49.5115 47.1498 49.7717 47.0676 50.0319 46.9992C50.2921 46.9307 50.5524 46.8622 50.8126 46.8074C51.0728 46.7526 51.3467 46.6978 51.607 46.6568C51.8672 46.6157 52.1411 46.5746 52.415 46.5472C52.689 46.5198 52.9492 46.4924 53.2231 46.4787C53.497 46.465 53.7573 46.4513 54.0312 46.4513C54.3051 46.4513 54.5653 46.4513 54.8392 46.465C55.1132 46.4787 55.3734 46.4924 55.6473 46.5198C55.9212 46.5472 56.1815 46.5746 56.4554 46.6157C56.7293 46.6568 56.9895 46.6978 57.2497 46.7526C57.51 46.8074 57.7839 46.8622 58.0441 46.9307C58.3043 46.9992 58.5646 47.0676 58.8248 47.1498C58.7015 46.8622 58.5646 46.5746 58.4276 46.287C58.2906 45.9993 58.14 45.7254 57.9893 45.4378C57.8387 45.1639 57.688 44.89 57.5237 44.616C57.3593 44.3421 57.195 44.0682 57.0169 43.808C56.8389 43.5477 56.6608 43.2738 56.4828 43.0273C56.3047 42.7671 56.113 42.5068 55.9212 42.2603C55.7295 42.0138 55.5377 41.7673 55.3323 41.5207C55.1269 41.2742 54.9214 41.0414 54.716 40.8085C54.5105 40.5757 54.2914 40.3429 54.0723 40.11C53.8531 39.8772 53.6203 39.6581 53.4012 39.4389C53.1683 39.2198 52.9355 39.0144 52.7027 38.7952C52.4698 38.5898 52.2233 38.3843 51.9768 38.1789C51.7302 37.9734 51.4837 37.7817 51.2235 37.59C50.9633 37.3982 50.7167 37.2202 50.4565 37.0421C50.1963 36.8641 49.9361 36.686 49.6621 36.5217C49.3882 36.3573 49.128 36.193 48.8541 36.0286C48.5801 35.8643 48.3062 35.7136 48.0186 35.5766C47.7447 35.426 47.4571 35.289 47.1695 35.1521C46.8818 35.0151 46.5942 34.8918 46.3066 34.7549C46.019 34.6316 45.7177 34.5083 45.43 34.3988C45.1287 34.2892 44.8411 34.1796 44.5398 34.0838C44.2385 33.9879 43.9372 33.892 43.6359 33.7962C43.3346 33.7003 43.0332 33.6181 42.7182 33.5496C42.4169 33.4674 42.1019 33.399 41.7869 33.3305C41.4719 33.262 41.1706 33.2072 40.8556 33.1524C40.5406 33.0977 40.2255 33.0566 39.9105 33.0155C39.5955 32.9744 39.2805 32.947 38.9655 32.9196C38.6505 32.8922 38.3355 32.8648 38.0205 32.8511C37.7055 32.8374 37.3905 32.8237 37.0755 32.8237C36.7604 32.8237 36.4454 32.8237 36.1304 32.8374C35.8154 32.8511 35.5004 32.8648 35.1854 32.8785C34.8704 32.9059 34.5554 32.9333 34.2404 32.9607C33.9254 33.0018 33.6103 33.0292 33.2953 33.084C32.9803 33.125 32.6653 33.1798 32.364 33.2483C32.049 33.3031 31.7477 33.3716 31.4327 33.4401C31.1314 33.5085 30.8164 33.5907 30.515 33.6729C30.2137 33.7551 29.9124 33.8509 29.5974 33.9468C29.2961 34.0427 28.9948 34.1386 28.6935 34.2481C28.3922 34.3577 28.1045 34.4673 27.8032 34.5905C27.5156 34.7138 27.2143 34.8371 26.9267 34.9603C26.6391 35.0836 26.3514 35.2205 26.0638 35.3712C25.7762 35.5082 25.5023 35.6588 25.2284 35.8095C24.9544 35.9601 24.6805 36.1245 24.4066 36.2888C24.1327 36.4532 23.8725 36.6175 23.5985 36.7956C23.3383 36.9736 23.0781 37.1517 22.8179 37.3297C22.5576 37.5078 22.3111 37.6995 22.0509 37.8913C21.8043 38.083 21.5578 38.2885 21.3113 38.4939C21.0648 38.6993 20.8319 38.9048 20.5991 39.1239C20.3663 39.3431 20.1334 39.5485 19.9143 39.7813C19.6952 40.0005 19.4623 40.2333 19.2569 40.4661C19.0377 40.699 18.8323 40.9318 18.6269 41.1783C18.4214 41.4249 18.216 41.6577 18.0242 41.9042C17.8325 42.1507 17.627 42.3973 17.449 42.6575C17.2573 42.9177 17.0792 43.178 16.9012 43.4382C16.7231 43.6984 16.5451 43.9723 16.3807 44.2325C16.2164 44.5065 16.052 44.7804 15.9013 45.0543C15.7507 45.3282 15.6 45.6022 15.4494 45.8898C15.2987 46.1774 15.1618 46.4513 15.0248 46.7389C14.8878 47.0265 14.7646 47.3142 14.6413 47.6018C14.518 47.8894 14.4085 48.1907 14.2852 48.4783C14.1756 48.7796 14.0661 49.0673 13.9702 49.3686C13.8743 49.6699 13.7785 49.9712 13.6963 50.2725C13.6141 50.5738 13.5319 50.8888 13.4498 51.1901C13.3676 51.4915 13.2991 51.8065 13.2443 52.1215C13.2306 52.2174 13.2032 52.3269 13.1895 52.4228C13.1758 52.5187 13.1621 52.6282 13.1621 52.7241C13.1484 52.82 13.1484 52.9295 13.1484 53.0254C13.1484 53.1213 13.1484 53.2309 13.1484 53.3267C13.1484 53.4226 13.1621 53.5322 13.1621 53.628C13.1758 53.7239 13.1758 53.8335 13.2032 53.9294C13.2169 54.0252 13.2306 54.1348 13.258 54.2307C13.2717 54.3265 13.2991 54.4361 13.3265 54.532C13.3539 54.6279 13.3813 54.7237 13.4087 54.8333C13.4361 54.9292 13.4771 55.025 13.5045 55.1209C13.5456 55.2168 13.573 55.3127 13.6141 55.4085C13.6552 55.5044 13.6963 55.6003 13.7511 55.6825C13.7922 55.7783 13.8469 55.8605 13.9017 55.9564C13.9565 56.0386 14.0113 56.1344 14.0661 56.2166C14.1209 56.2988 14.1756 56.381 14.2441 56.4631C14.2989 56.5453 14.3674 56.6275 14.4359 56.7097C14.5043 56.7918 14.5728 56.8603 14.6413 56.9425C14.7098 57.0247 14.7783 57.0931 14.8604 57.1616C14.9289 57.2301 15.0111 57.2986 15.0796 57.3671C15.1618 57.4356 15.2302 57.504 15.3124 57.5588C15.3946 57.6273 15.4768 57.6821 15.5589 57.7369C15.6411 57.7916 15.7233 57.8464 15.8192 57.9012C15.9013 57.956 15.9972 58.0108 16.0794 58.0519C16.1753 58.1067 16.2574 58.1477 16.3533 58.1888C16.4492 58.2299 16.5451 58.271 16.6272 58.3121C16.7231 58.3532 16.819 58.3943 16.9149 58.4217C17.0107 58.4628 17.1066 58.4901 17.2025 58.5175C17.2983 58.5449 17.3942 58.5723 17.5038 58.5997C17.5997 58.6271 17.7092 58.6408 17.8051 58.6545C17.901 58.6682 18.0105 58.6819 18.1064 58.6956C18.2023 58.7093 18.3119 58.723 18.4077 58.723C18.5036 58.723 18.6132 58.7367 18.709 58.7367H39.034C39.0888 58.4765 39.1436 58.2025 39.212 57.9423C39.2805 57.6821 39.349 57.4219 39.4312 57.1616C39.5134 56.9014 39.5955 56.6549 39.6914 56.3946C39.7873 56.1481 39.8831 55.8879 39.9927 55.6414C40.1023 55.3948 40.2118 55.1483 40.3351 54.9018C40.4584 54.6553 40.5816 54.4224 40.7186 54.1896C40.8556 53.9568 40.9925 53.7239 41.1432 53.4911C41.2938 53.2583 41.4445 53.0391 41.5952 52.82C41.7458 52.6008 41.9102 52.3817 42.0882 52.1763C42.2526 51.9708 42.4306 51.7654 42.6087 51.5599C42.7319 51.4504 42.9237 51.2449 43.1154 51.0532Z" fill="url(#paint4_linear_1369_1110)"/>
<path d="M15.2295 39.3981C15.9964 38.4667 16.8182 37.5765 17.6948 36.7547C17.4756 36.6314 17.2428 36.5219 17.01 36.4123C16.7771 36.3027 16.5443 36.2069 16.3115 36.111C16.0786 36.0151 15.8321 35.933 15.5993 35.8645C15.3664 35.796 15.1199 35.7138 14.8734 35.659C14.6268 35.6042 14.3803 35.5495 14.1338 35.5084C13.8872 35.4673 13.627 35.4262 13.3805 35.3988C13.134 35.3714 12.8737 35.3577 12.6272 35.344C12.3807 35.3303 12.1205 35.3303 11.8739 35.3303C11.6137 35.3303 11.3672 35.344 11.1206 35.3714C10.8741 35.3988 10.6139 35.4262 10.3674 35.4536C10.1208 35.4947 9.86061 35.5358 9.61408 35.5905C9.36755 35.6453 9.12102 35.7001 8.87449 35.7686C8.62796 35.8371 8.39513 35.9193 8.1486 36.0014C7.91577 36.0836 7.66924 36.1795 7.4364 36.2754C7.20357 36.3712 6.97074 36.4808 6.7516 36.6041C6.51877 36.7136 6.29963 36.8369 6.08049 36.9738C5.86136 37.0971 5.64222 37.2341 5.43678 37.3847C5.23134 37.5217 5.0259 37.6723 4.82046 37.8367C4.61502 37.9874 4.42327 38.1517 4.23153 38.3298C4.03978 38.4941 3.86173 38.6722 3.68368 38.8502C3.50564 39.0283 3.32759 39.22 3.16323 39.4117C2.99888 39.6035 2.83453 39.7952 2.68387 40.0007C2.53321 40.2061 2.38256 40.4116 2.2456 40.617C2.10864 40.8224 1.97168 41.0416 1.84841 41.2607C1.72515 41.4799 1.60188 41.699 1.49231 41.9318C1.38275 42.1647 1.27318 42.3975 1.1773 42.6303C1.08143 42.8632 0.999256 43.096 0.91708 43.3425C0.834903 43.589 0.766423 43.8219 0.697943 44.0684C0.629463 44.3149 0.574678 44.5615 0.53359 44.808C0.478806 45.0545 0.437718 45.3011 0.410326 45.5613C0.382933 45.8078 0.355541 46.068 0.341845 46.3146C0.328149 46.5611 0.314453 46.8213 0.314453 47.0678C0.314453 47.1911 0.328149 47.3144 0.355541 47.4239C0.382933 47.5335 0.410326 47.6568 0.46511 47.7663C0.506198 47.8759 0.574678 47.9855 0.643159 48.0814C0.711639 48.1772 0.793815 48.2731 0.875992 48.3553C0.958168 48.4375 1.05404 48.5196 1.14991 48.5881C1.24579 48.6566 1.35535 48.7114 1.46492 48.7662C1.57449 48.8072 1.69776 48.8483 1.80732 48.8757C1.91689 48.9031 2.04016 48.9168 2.16342 48.9168H10.1482C10.5043 47.7663 10.9289 46.6296 11.422 45.5339C11.915 44.4382 12.4902 43.3699 13.1203 42.3427C13.764 41.3155 14.4625 40.3294 15.2295 39.3981Z" fill="url(#paint5_linear_1369_1110)"/>
<path d="M73.2455 46.3009C73.2318 46.0544 73.2044 45.7941 73.177 45.5476C73.1496 45.3011 73.1086 45.0409 73.0538 44.7943C72.999 44.5478 72.9442 44.3013 72.8757 44.0547C72.8072 43.8082 72.7388 43.5617 72.6566 43.3288C72.5744 43.0823 72.4922 42.8495 72.3964 42.6167C72.3005 42.3838 72.1909 42.151 72.0813 41.9182C71.9718 41.6853 71.8485 41.4662 71.7252 41.247C71.602 41.0279 71.465 40.8088 71.3281 40.6033C71.1911 40.3979 71.0404 40.1788 70.8898 39.987C70.7391 39.7816 70.5748 39.5898 70.4104 39.3981C70.2461 39.2063 70.068 39.0146 69.89 38.8365C69.7119 38.6585 69.5339 38.4804 69.3421 38.3161C69.1504 38.1517 68.9586 37.9874 68.7532 37.823C68.5478 37.6724 68.356 37.5217 68.1369 37.3711C67.9314 37.2341 67.7123 37.0971 67.4932 36.9602C67.274 36.8369 67.0549 36.7136 66.8221 36.5904C66.6029 36.4808 66.3701 36.3712 66.1373 36.2617C65.9044 36.1658 65.6716 36.0699 65.4251 35.9878C65.1922 35.9056 64.9457 35.8234 64.6992 35.7549C64.4526 35.6864 64.2061 35.618 63.9596 35.5769C63.7131 35.5221 63.4665 35.481 63.2063 35.4399C62.9598 35.3988 62.6995 35.3714 62.453 35.3577C62.2065 35.3303 61.9463 35.3303 61.6997 35.3167C61.4395 35.3167 61.193 35.3167 60.9464 35.3303C60.6999 35.344 60.4397 35.3577 60.1932 35.3851C59.9466 35.4125 59.6864 35.4536 59.4399 35.4947C59.1934 35.5358 58.9468 35.5906 58.7003 35.6454C58.4538 35.7001 58.2072 35.7686 57.9744 35.8508C57.7279 35.933 57.495 36.0151 57.2622 36.0973C57.0294 36.1932 56.7965 36.2891 56.5637 36.3986C56.3309 36.5082 56.1117 36.6178 55.8789 36.741C57.2211 38.0011 58.4127 39.3844 59.481 40.8772C60.5493 42.3701 61.4395 43.9589 62.1928 45.6435L63.6583 48.9031H71.4239C71.5472 48.9031 71.6705 48.8894 71.78 48.8621C71.9033 48.8347 72.0129 48.8073 72.1224 48.7525C72.232 48.7114 72.3416 48.6429 72.4374 48.5744C72.5333 48.506 72.6292 48.4238 72.7114 48.3416C72.7935 48.2594 72.8757 48.1636 72.9442 48.0677C73.0127 47.9718 73.0675 47.8622 73.1222 47.7527C73.1633 47.6431 73.2044 47.5198 73.2318 47.4103C73.2592 47.287 73.2729 47.1774 73.2729 47.0542C73.2729 46.8076 73.2592 46.5474 73.2455 46.3009Z" fill="url(#paint6_linear_1369_1110)"/>
</g>
<defs>
<linearGradient id="paint0_linear_1369_1110" x1="54.1125" y1="73.6244" x2="54.1125" y2="50.1295" gradientUnits="userSpaceOnUse">
<stop stop-color="#16489E"/>
<stop offset="1" stop-color="#02A7EB"/>
</linearGradient>
<linearGradient id="paint1_linear_1369_1110" x1="36.7937" y1="29.1396" x2="36.7937" y2="0.679199" gradientUnits="userSpaceOnUse">
<stop stop-color="#16489E"/>
<stop offset="1" stop-color="#02A7EB"/>
</linearGradient>
<linearGradient id="paint2_linear_1369_1110" x1="12.0378" y1="31.6014" x2="12.0378" y2="13.053" gradientUnits="userSpaceOnUse">
<stop stop-color="#16489E"/>
<stop offset="1" stop-color="#02A7EB"/>
</linearGradient>
<linearGradient id="paint3_linear_1369_1110" x1="61.4948" y1="31.6014" x2="61.4948" y2="13.053" gradientUnits="userSpaceOnUse">
<stop stop-color="#16489E"/>
<stop offset="1" stop-color="#02A7EB"/>
</linearGradient>
<linearGradient id="paint4_linear_1369_1110" x1="35.9866" y1="58.8056" x2="35.9866" y2="32.8379" gradientUnits="userSpaceOnUse">
<stop stop-color="#16489E"/>
<stop offset="1" stop-color="#02A7EB"/>
</linearGradient>
<linearGradient id="paint5_linear_1369_1110" x1="9.0046" y1="48.9168" x2="9.0046" y2="35.3147" gradientUnits="userSpaceOnUse">
<stop stop-color="#16489E"/>
<stop offset="1" stop-color="#02A7EB"/>
</linearGradient>
<linearGradient id="paint6_linear_1369_1110" x1="64.5759" y1="48.9031" x2="64.5759" y2="35.301" gradientUnits="userSpaceOnUse">
<stop stop-color="#16489E"/>
<stop offset="1" stop-color="#02A7EB"/>
</linearGradient>
<clipPath id="clip0_1369_1110">
<rect width="73" height="73" fill="white" transform="translate(0.369141 0.775146)"/>
</clipPath>
</defs>
</svg>
