<svg width="212" height="263" viewBox="0 0 212 263" fill="none" xmlns="http://www.w3.org/2000/svg">
<mask id="mask0_1718_113" style="mask-type:luminance" maskUnits="userSpaceOnUse" x="0" y="0" width="212" height="263">
<path d="M0.40625 0.827393H211.672V262.563H0.40625V0.827393Z" fill="white"/>
</mask>
<g mask="url(#mask0_1718_113)">
<path d="M211.52 42.1183V253.637C211.52 258.566 207.521 262.562 202.59 262.562H9.59204C4.65874 262.562 0.660156 258.566 0.660156 253.637V9.75213C0.660156 4.82327 4.65874 0.826904 9.59204 0.826904H167.935L211.52 42.1183Z" fill="url(#paint0_linear_1718_113)"/>
<path d="M211.519 42.1183H176.797C171.866 42.1183 167.867 38.1219 167.867 33.1953V0.826904L211.519 42.1183Z" fill="#02A9ED"/>
<mask id="mask1_1718_113" style="mask-type:luminance" maskUnits="userSpaceOnUse" x="0" y="166" width="212" height="70">
<path d="M0.40625 166.223H211.672V235.565H0.40625V166.223Z" fill="white"/>
</mask>
<g mask="url(#mask1_1718_113)">
<path d="M0.660156 166.259H211.586V235.057H0.660156V166.259Z" fill="#02A9ED"/>
</g>
<path d="M61.1723 205.554H52.3071V219.073C52.3071 221.004 51.8408 222.47 50.9083 223.469C49.9758 224.468 48.8413 224.934 47.4426 224.934C45.9773 224.934 44.8427 224.468 43.9102 223.469C43.0444 222.47 42.5781 221.004 42.5781 219.14V182.311C42.5781 180.179 43.0444 178.647 44.0435 177.782C45.0448 176.916 46.5767 176.383 48.7081 176.383H61.1057C64.7691 176.383 67.5687 176.649 69.5692 177.249C71.5007 177.782 73.2347 178.714 74.6334 179.98C76.0322 181.245 77.1667 182.777 77.8994 184.575C78.632 186.372 79.0317 188.436 79.0317 190.701C79.0317 195.563 77.5663 199.226 74.5668 201.758C71.5673 204.289 67.1025 205.554 61.1723 205.554ZM58.8389 183.709H52.3071V198.294H58.8389C61.1057 198.294 63.0373 198.028 64.5693 197.561C66.1034 197.095 67.2357 196.296 68.035 195.23C68.8343 194.164 69.2361 192.699 69.2361 190.967C69.2361 188.836 68.6344 187.171 67.3689 185.841C66.0368 184.376 63.1705 183.709 58.8389 183.709Z" fill="#F4F4F3"/>
<path d="M93.0925 176.449H105.688C108.951 176.449 111.751 176.782 114.085 177.382C116.416 177.981 118.549 179.113 120.481 180.779C125.481 185.041 127.945 191.5 127.945 200.159C127.945 203.023 127.679 205.62 127.213 208.018C126.746 210.347 125.947 212.479 124.879 214.41C123.814 216.275 122.481 218.007 120.881 219.472C119.615 220.605 118.216 221.537 116.682 222.27C115.15 222.936 113.552 223.469 111.818 223.735C110.086 224.002 108.086 224.135 105.888 224.135H93.2924C91.5584 224.135 90.2263 223.868 89.2938 223.335C88.4257 222.803 87.8262 222.07 87.5598 221.071C87.2934 220.138 87.1602 218.873 87.1602 217.341V182.311C87.1602 180.246 87.6264 178.714 88.5589 177.781C89.4936 176.915 91.0255 176.449 93.0925 176.449ZM96.8225 184.042V216.408H104.154C105.754 216.408 107.02 216.342 107.952 216.275C108.885 216.209 109.82 215.942 110.752 215.609C111.751 215.276 112.55 214.743 113.285 214.144C116.482 211.413 118.15 206.686 118.15 200.026C118.15 195.297 117.417 191.766 116.016 189.435C114.617 187.104 112.817 185.574 110.752 184.975C108.685 184.309 106.154 184.042 103.221 184.042H96.8225Z" fill="#F4F4F3"/>
<path d="M164.934 183.843H145.875V196.029H161.803C163.268 196.029 164.401 196.362 165.133 197.028C165.868 197.695 166.201 198.56 166.201 199.693C166.201 200.825 165.802 201.691 165.067 202.357C164.334 203.023 163.202 203.356 161.803 203.356H145.875V219.073C145.875 221.071 145.409 222.536 144.541 223.536C143.608 224.468 142.476 225.001 141.075 225.001C139.676 225.001 138.478 224.535 137.612 223.536C136.677 222.536 136.277 221.071 136.277 219.14V182.311C136.277 180.912 136.477 179.78 136.877 178.914C137.279 178.048 137.945 177.382 138.811 176.982C139.676 176.583 140.809 176.383 142.21 176.383H165C166.534 176.383 167.667 176.716 168.466 177.382C169.265 178.048 169.6 178.98 169.6 180.046C169.6 181.178 169.199 182.111 168.466 182.777C167.733 183.443 166.468 183.843 164.934 183.843Z" fill="#F4F4F3"/>
<path d="M144.676 87.703L117.458 60.4854L117.352 60.3791C117.033 60.0602 116.714 59.8475 116.395 59.5285L116.289 59.4222C115.97 59.2096 115.757 58.997 115.438 58.7843L115.119 58.5717L114.375 58.1464L113.95 57.9338C113.631 57.7211 113.312 57.6148 112.887 57.5085L112.461 57.4022L111.717 57.0832L111.292 56.9769L110.441 56.7643L110.122 56.658C109.272 56.5516 108.528 56.4453 107.677 56.4453H107.571C107.145 56.4453 106.826 56.4453 106.507 56.4453H106.295C105.444 56.5516 104.7 56.6579 103.85 56.9769L103.637 57.0832C103.318 57.1895 102.999 57.2959 102.68 57.4022L102.361 57.5085C102.042 57.6148 101.617 57.8275 101.298 58.0401H101.192C100.873 58.2527 100.447 58.4654 100.128 58.678L99.9157 58.8906C99.7031 59.1033 99.3841 59.2096 99.1715 59.4222L98.8526 59.6349C98.5336 59.9538 98.2146 60.1665 97.8957 60.4854L70.997 87.5967C65.7874 93.0189 65.8937 101.631 71.316 106.84C76.6319 111.944 85.0311 111.944 90.2407 106.84L94.2808 102.8V124.489C94.2808 132.038 100.341 138.098 107.89 138.098C115.438 138.098 121.498 132.038 121.498 124.489V102.907L125.539 106.947C130.748 112.369 139.36 112.475 144.782 107.266C150.204 102.056 150.311 93.4442 145.101 88.022C144.889 87.8093 144.782 87.703 144.676 87.703Z" fill="white" fill-opacity="0.19"/>
<path d="M141.734 85.744L114.517 58.5264L114.411 58.4201C114.092 58.1012 113.773 57.8885 113.454 57.5696L113.347 57.4632C113.028 57.2506 112.816 57.038 112.497 56.8254L112.178 56.6127L111.434 56.1874L111.008 55.9748C110.689 55.7621 110.37 55.6558 109.945 55.5495L109.52 55.4432L108.776 55.1242L108.35 55.0179L107.5 54.8053L107.181 54.699C106.33 54.5927 105.586 54.4863 104.736 54.4863H104.629C104.204 54.4863 103.885 54.4863 103.566 54.4863H103.353C102.503 54.5926 101.759 54.699 100.908 55.0179L100.695 55.1242C100.377 55.2306 100.058 55.3369 99.7386 55.4432L99.4197 55.5495C99.1007 55.6558 98.6754 55.8685 98.3565 56.0811H98.2501C97.9312 56.2937 97.5059 56.5064 97.187 56.719L96.9743 56.9316C96.7617 57.1443 96.4427 57.2506 96.2301 57.4632L95.9112 57.6759C95.5922 57.9948 95.2732 58.2075 94.9543 58.5264L68.0556 85.6377C62.846 91.06 62.9523 99.6718 68.3746 104.881C73.6905 109.985 82.0897 109.985 87.2993 104.881L91.3394 100.841V122.53C91.3394 130.079 97.3996 136.139 104.948 136.139C112.497 136.139 118.557 130.079 118.557 122.53V100.948L122.597 104.988C127.807 110.41 136.419 110.516 141.841 105.307C147.263 100.097 147.369 91.4853 142.16 86.063C141.947 85.8504 141.841 85.744 141.734 85.744Z" fill="white"/>
</g>
<defs>
<linearGradient id="paint0_linear_1718_113" x1="0.660153" y1="17.051" x2="175.006" y2="284.715" gradientUnits="userSpaceOnUse">
<stop stop-color="#1450A4"/>
<stop offset="1" stop-color="#049CE2"/>
</linearGradient>
</defs>
</svg>
