<svg width="265" height="263" viewBox="0 0 265 263" fill="none" xmlns="http://www.w3.org/2000/svg">
<path fill-rule="evenodd" clip-rule="evenodd" d="M210.098 143.131V79.3613L131.616 0.827881H33.398C15.3497 0.827881 0.675781 15.5018 0.675781 33.5501V229.884C0.675781 247.932 15.3497 262.606 33.398 262.606H177.376C182.208 262.606 186.798 261.554 190.929 259.667C167.021 251.862 149.747 229.382 149.747 202.867C149.747 169.874 176.492 143.128 209.485 143.128C209.69 143.128 209.894 143.129 210.098 143.131Z" fill="url(#paint0_linear_1718_135)"/>
<path d="M210.1 79.3608H164.289C146.24 79.3608 131.566 64.6869 131.566 46.6385V0.827393H131.618L210.1 79.3608Z" fill="#02A9ED"/>
<path fill-rule="evenodd" clip-rule="evenodd" d="M115.019 166.378H39.2162C34.1018 166.378 29.957 162.233 29.957 157.119V100.296C29.957 94.9988 34.2923 90.6636 39.5899 90.6636H115.578C120.898 90.6636 125.211 94.9769 125.211 100.296V122.675L152.219 97.7465C154.94 95.1624 159.404 97.109 159.404 100.88V128.985V158.277C159.404 162.109 154.813 164.026 152.126 161.318L125.211 135.597V156.186C125.211 161.791 120.624 166.378 115.019 166.378ZM71.4774 118.751C71.4774 126.17 65.4631 132.184 58.0442 132.184C50.6252 132.184 44.6109 126.17 44.6109 118.751C44.6109 111.332 50.6252 105.318 58.0442 105.318C65.4631 105.318 71.4774 111.332 71.4774 118.751Z" fill="white"/>
<path d="M209.486 258.046C239.961 258.046 264.667 233.341 264.667 202.866C264.667 172.39 239.961 147.685 209.486 147.685C179.01 147.685 154.305 172.39 154.305 202.866C154.305 233.341 179.01 258.046 209.486 258.046Z" fill="url(#paint1_linear_1718_135)"/>
<path d="M237.618 200.026L216.577 178.985L216.495 178.903C216.249 178.656 216.002 178.492 215.755 178.245L215.673 178.163C215.427 177.999 215.262 177.834 215.016 177.67L214.769 177.506L214.194 177.177L213.865 177.013C213.618 176.848 213.372 176.766 213.043 176.684L212.714 176.602L212.139 176.355L211.81 176.273L211.153 176.108L210.906 176.026C210.249 175.944 209.673 175.862 209.016 175.862H208.933C208.605 175.862 208.358 175.862 208.112 175.862H207.947C207.29 175.944 206.714 176.026 206.057 176.273L205.892 176.355C205.646 176.437 205.399 176.519 205.153 176.602L204.906 176.684C204.659 176.766 204.331 176.93 204.084 177.095H204.002C203.755 177.259 203.427 177.423 203.18 177.588L203.016 177.752C202.851 177.917 202.605 177.999 202.44 178.163L202.194 178.328C201.947 178.574 201.701 178.739 201.454 178.985L180.659 199.944C176.632 204.136 176.714 210.793 180.906 214.821C185.016 218.766 191.509 218.766 195.536 214.821L198.659 211.698V228.465C198.659 234.3 203.344 238.985 209.18 238.985C215.016 238.985 219.701 234.3 219.701 228.465V211.78L222.824 214.903C226.851 219.095 233.509 219.177 237.701 215.15C241.892 211.122 241.975 204.465 237.947 200.273C237.783 200.108 237.701 200.026 237.618 200.026Z" fill="white"/>
<defs>
<linearGradient id="paint0_linear_1718_135" x1="105.387" y1="0.827881" x2="105.387" y2="262.606" gradientUnits="userSpaceOnUse">
<stop stop-color="#1450A4"/>
<stop offset="1" stop-color="#0498DF"/>
</linearGradient>
<linearGradient id="paint1_linear_1718_135" x1="209.486" y1="147.685" x2="209.486" y2="258.046" gradientUnits="userSpaceOnUse">
<stop stop-color="#1259AB"/>
<stop offset="1" stop-color="#0D71BF"/>
</linearGradient>
</defs>
</svg>
