<svg width="300" height="263" viewBox="0 0 300 263" fill="none" xmlns="http://www.w3.org/2000/svg">
<path fill-rule="evenodd" clip-rule="evenodd" d="M133.146 62.9181C133.146 101.913 101.534 133.525 62.5391 133.525C45.0767 133.525 29.095 127.186 16.7695 116.683V218.957C16.7695 242.844 36.3136 262.388 60.2008 262.388H255.642C279.529 262.388 299.073 242.844 299.073 218.957V66.9474C299.073 43.0602 279.529 23.5161 255.642 23.5161H121.138C128.72 34.7703 133.146 48.3274 133.146 62.9181Z" fill="url(#paint0_linear_1718_106)"/>
<path d="M60.2008 262.387H255.642C279.529 262.387 299.073 242.843 299.073 218.956V142.951L255.642 99.52L142.72 203.755L92.7743 153.809L16.7695 223.299C20.0269 245.015 37.3994 262.387 60.2008 262.387Z" fill="#02A9ED"/>
<path d="M62.5396 125.184C96.9282 125.184 124.806 97.3064 124.806 62.9177C124.806 28.5291 96.9282 0.651611 62.5396 0.651611C28.1509 0.651611 0.273438 28.5291 0.273438 62.9177C0.273438 97.3064 28.1509 125.184 62.5396 125.184Z" fill="url(#paint1_linear_1718_106)"/>
<path d="M95.0458 54.4256L70.8917 30.2714L70.7974 30.1771C70.5143 29.894 70.2313 29.7053 69.9482 29.4222L69.8538 29.3279C69.5708 29.1392 69.3821 28.9505 69.099 28.7618L68.816 28.5731L68.1555 28.1957L67.7781 28.007C67.495 27.8183 67.212 27.7239 66.8346 27.6296L66.4572 27.5352L65.7967 27.2522L65.4193 27.1578L64.6645 26.9691L64.3814 26.8748C63.6266 26.7804 62.9661 26.686 62.2113 26.686H62.117C61.7395 26.686 61.4565 26.686 61.1734 26.686H60.9847C60.2299 26.7804 59.5694 26.8747 58.8146 27.1578L58.6259 27.2522C58.3429 27.3465 58.0598 27.4408 57.7767 27.5352L57.4937 27.6296C57.2106 27.7239 56.8332 27.9126 56.5502 28.1013H56.4558C56.1728 28.29 55.7954 28.4787 55.5123 28.6674L55.3236 28.8561C55.1349 29.0448 54.8518 29.1392 54.6631 29.3279L54.3801 29.5166C54.097 29.7997 53.814 29.9883 53.5309 30.2714L29.6598 54.3312C25.0366 59.1432 25.1309 66.7857 29.9429 71.4089C34.6605 75.9378 42.1143 75.9378 46.7376 71.4089L50.3229 67.8236V87.0714C50.3229 93.7704 55.701 99.1485 62.4 99.1485C69.099 99.1485 74.4771 93.7704 74.4771 87.0714V67.9179L78.0625 71.5033C82.6857 76.3153 90.3282 76.4096 95.1402 71.7864C99.9522 67.1631 100.047 59.5206 95.4233 54.7086C95.2346 54.5199 95.1402 54.4256 95.0458 54.4256Z" fill="white"/>
<defs>
<linearGradient id="paint0_linear_1718_106" x1="36.0376" y1="37.0072" x2="157.921" y2="290.959" gradientUnits="userSpaceOnUse">
<stop stop-color="#1450A4"/>
<stop offset="1" stop-color="#0597DE"/>
</linearGradient>
<linearGradient id="paint1_linear_1718_106" x1="62.5396" y1="0.651611" x2="62.5396" y2="125.184" gradientUnits="userSpaceOnUse">
<stop stop-color="#1259AB"/>
<stop offset="1" stop-color="#0D71BF"/>
</linearGradient>
</defs>
</svg>
