<svg width="245" height="263" viewBox="0 0 245 263" fill="none" xmlns="http://www.w3.org/2000/svg">
<path d="M205.213 56.912C203.943 52.3565 201.537 48.1978 198.221 44.8254L162.438 9.04238C159.066 5.72663 154.907 3.32085 150.352 2.05029V38.2166C150.352 43.1749 152.321 47.9302 155.827 51.4363C159.333 54.9423 164.089 56.912 169.047 56.912H205.213Z" fill="#02A9ED"/>
<path fill-rule="evenodd" clip-rule="evenodd" d="M142.609 64.6576C149.621 71.6697 159.131 75.6091 169.048 75.6091H206.439V140.42C200.994 138.864 195.243 138.031 189.299 138.031C175.258 138.031 162.304 142.678 151.888 150.518C151.384 150.434 150.87 150.391 150.352 150.391H56.8753C54.3962 150.391 52.0186 151.376 50.2655 153.129C48.5125 154.882 47.5276 157.259 47.5276 159.739C47.5276 162.218 48.5125 164.595 50.2655 166.348C52.0186 168.101 54.3962 169.086 56.8753 169.086H135.408C132.089 174.804 129.655 181.098 128.291 187.782H56.8753C54.3962 187.782 52.0186 188.766 50.2655 190.52C48.5125 192.273 47.5276 194.65 47.5276 197.129C47.5276 199.609 48.5125 201.986 50.2655 203.739C52.0186 205.492 54.3962 206.477 56.8753 206.477H127.335C129.91 232.606 148.635 253.991 173.392 260.513C168.995 261.86 164.384 262.563 159.7 262.563H47.5276C35.1318 262.563 23.2437 257.639 14.4785 248.874C5.71329 240.109 0.789062 228.221 0.789062 215.825V47.566C0.789062 35.1701 5.71329 23.282 14.4785 14.5168C23.2437 5.75162 35.1318 0.827393 47.5276 0.827393H131.657V38.2182C131.657 48.1349 135.596 57.6454 142.609 64.6576ZM94.2662 75.6091H56.8753C54.3962 75.6091 52.0186 76.5939 50.2655 78.347C48.5125 80.1 47.5276 82.4776 47.5276 84.9568C47.5276 87.436 48.5125 89.8136 50.2655 91.5666C52.0186 93.3197 54.3962 94.3045 56.8753 94.3045H94.2662C96.7454 94.3045 99.123 93.3197 100.876 91.5666C102.629 89.8136 103.614 87.436 103.614 84.9568C103.614 82.4776 102.629 80.1 100.876 78.347C99.123 76.5939 96.7454 75.6091 94.2662 75.6091ZM56.8753 131.695H150.352C152.832 131.695 155.209 130.711 156.962 128.957C158.715 127.204 159.7 124.827 159.7 122.348C159.7 119.868 158.715 117.491 156.962 115.738C155.209 113.985 152.832 113 150.352 113H56.8753C54.3962 113 52.0186 113.985 50.2655 115.738C48.5125 117.491 47.5276 119.868 47.5276 122.348C47.5276 124.827 48.5125 127.204 50.2655 128.957C52.0186 130.711 54.3962 131.695 56.8753 131.695Z" fill="url(#paint0_linear_1718_128)"/>
<path d="M189.298 255.478C219.774 255.478 244.479 230.772 244.479 200.297C244.479 169.821 219.774 145.116 189.298 145.116C158.823 145.116 134.117 169.821 134.117 200.297C134.117 230.772 158.823 255.478 189.298 255.478Z" fill="url(#paint1_linear_1718_128)"/>
<path d="M217.615 192.899L196.573 171.858L196.491 171.775C196.245 171.529 195.998 171.365 195.752 171.118L195.669 171.036C195.423 170.871 195.258 170.707 195.012 170.543L194.765 170.378L194.19 170.049L193.861 169.885C193.614 169.721 193.368 169.638 193.039 169.556L192.71 169.474L192.135 169.228L191.806 169.145L191.149 168.981L190.902 168.899C190.245 168.817 189.669 168.734 189.012 168.734H188.93C188.601 168.734 188.354 168.734 188.108 168.734H187.943C187.286 168.817 186.71 168.899 186.053 169.145L185.888 169.228C185.642 169.31 185.395 169.392 185.149 169.474L184.902 169.556C184.656 169.638 184.327 169.803 184.08 169.967H183.998C183.751 170.132 183.423 170.296 183.176 170.46L183.012 170.625C182.847 170.789 182.601 170.871 182.436 171.036L182.19 171.2C181.943 171.447 181.697 171.611 181.45 171.858L160.655 192.817C156.628 197.008 156.71 203.666 160.902 207.693C165.012 211.639 171.505 211.639 175.532 207.693L178.656 204.57V221.337C178.656 227.173 183.34 231.858 189.176 231.858C195.012 231.858 199.697 227.173 199.697 221.337V204.652L202.82 207.776C206.847 211.967 213.505 212.05 217.697 208.022C221.889 203.995 221.971 197.337 217.943 193.145C217.779 192.981 217.697 192.899 217.615 192.899Z" fill="white"/>
<defs>
<linearGradient id="paint0_linear_1718_128" x1="103.614" y1="0.827393" x2="103.614" y2="262.563" gradientUnits="userSpaceOnUse">
<stop stop-color="#1450A4"/>
<stop offset="1" stop-color="#0498DF"/>
</linearGradient>
<linearGradient id="paint1_linear_1718_128" x1="189.298" y1="145.116" x2="189.298" y2="255.478" gradientUnits="userSpaceOnUse">
<stop stop-color="#1259AB"/>
<stop offset="1" stop-color="#0D71BF"/>
</linearGradient>
</defs>
</svg>
