<svg width="19" height="19" viewBox="0 0 19 19" fill="none" xmlns="http://www.w3.org/2000/svg">
<path d="M15.7418 0.916016H3.56289C2.87074 0.916016 2.20693 1.19097 1.71751 1.6804C1.22808 2.16982 0.953125 2.83363 0.953125 3.52578V4.54359C0.953 4.90282 1.02704 5.2582 1.17061 5.58749V5.63969C1.29351 5.91891 1.46759 6.17266 1.68386 6.38782L7.04258 11.7117V17.4445C7.04228 17.5924 7.07967 17.7378 7.1512 17.8672C7.22274 17.9966 7.32607 18.1056 7.45144 18.184C7.58988 18.2698 7.74963 18.315 7.9125 18.3144C8.04868 18.3136 8.18276 18.2809 8.30396 18.2188L11.7836 16.4789C11.9271 16.4066 12.0478 16.296 12.1322 16.1594C12.2167 16.0227 12.2616 15.8653 12.2621 15.7047V11.7117L17.586 6.38782C17.8023 6.17266 17.9764 5.91891 18.0993 5.63969V5.58749C18.2548 5.26078 18.3407 4.90528 18.3516 4.54359V3.52578C18.3516 2.83363 18.0766 2.16982 17.5872 1.6804C17.0977 1.19097 16.4339 0.916016 15.7418 0.916016ZM10.7745 10.7374C10.6939 10.8187 10.6301 10.9151 10.5868 11.0211C10.5435 11.1271 10.5216 11.2406 10.5223 11.3551V15.1653L8.78242 16.0353V11.3551C8.78308 11.2406 8.76114 11.1271 8.71785 11.0211C8.67455 10.9151 8.61077 10.8187 8.53014 10.7374L3.91956 6.13555H15.3851L10.7745 10.7374ZM16.6117 4.3957H2.69297V3.52578C2.69297 3.29506 2.78462 3.0738 2.94776 2.91065C3.1109 2.74751 3.33217 2.65586 3.56289 2.65586H15.7418C15.9725 2.65586 16.1938 2.74751 16.3569 2.91065C16.5201 3.0738 16.6117 3.29506 16.6117 3.52578V4.3957Z" fill="#919191"/>
</svg>
