<svg width="69" height="70" viewBox="0 0 69 70" fill="none" xmlns="http://www.w3.org/2000/svg">
<path d="M61.3904 57.2342C61.3776 57.053 61.3521 56.8718 61.3266 56.6905C61.301 56.5093 61.2755 56.328 61.2373 56.1598C61.199 55.9785 61.1607 55.8102 61.1224 55.629C61.0842 55.4477 61.0331 55.2795 60.9821 55.0982C60.9311 54.9299 60.8673 54.7487 60.8162 54.5804C60.7525 54.4121 60.6887 54.2438 60.6249 54.0755C60.5611 53.9072 60.4845 53.7389 60.408 53.5836C60.3314 53.4153 60.2549 53.2599 60.1656 53.0916C60.0763 52.9363 59.987 52.768 59.8977 52.6127C59.8084 52.4573 59.7063 52.302 59.6042 52.1466C59.5022 51.9913 59.4001 51.8489 59.298 51.7065C59.196 51.5641 59.0812 51.4217 58.9663 51.2793C58.8515 51.1369 58.7367 51.0074 58.6091 50.865C58.4943 50.7356 58.3667 50.5931 58.2391 50.4766C58.1116 50.3472 57.984 50.2177 57.8564 50.1012C57.7288 49.9847 57.5885 49.8552 57.4481 49.7387C57.3078 49.6222 57.1675 49.5057 57.0271 49.4022C56.8868 49.2986 56.7337 49.195 56.5934 49.0915C56.4403 48.9879 56.2872 48.8973 56.1341 48.7937C55.981 48.7031 55.8279 48.6125 55.662 48.5219C55.5089 48.4312 55.3431 48.3536 55.1772 48.2759C55.0114 48.1982 54.8455 48.1205 54.6924 48.0558C54.5266 47.9911 54.3607 47.9264 54.1949 47.8616C54.029 47.7969 53.8504 47.7451 53.6845 47.6933C53.5187 47.6416 53.3401 47.5898 53.1615 47.5509C52.9828 47.5121 52.817 47.4733 52.6384 47.4344C52.4598 47.3956 52.2812 47.3697 52.1153 47.3438C51.9367 47.3179 51.7581 47.292 51.5795 47.2791C51.4009 47.2661 51.2222 47.2532 51.0436 47.2402C50.865 47.2273 50.6864 47.2273 50.5078 47.2273C50.3292 47.2273 50.1506 47.2273 49.972 47.2402C49.7934 47.2532 49.6147 47.2661 49.4361 47.2791C49.2575 47.292 49.0789 47.3179 48.9003 47.3438C48.7217 47.3697 48.5431 47.3956 48.3772 47.4344C48.1986 47.4733 48.0328 47.5121 47.8541 47.5509C47.6755 47.5898 47.5097 47.6416 47.3311 47.6933C47.1652 47.7451 46.9866 47.7969 46.8207 47.8616C46.6549 47.9264 46.489 47.9911 46.3232 48.0558C46.1573 48.1205 45.9915 48.1982 45.8384 48.2759C45.6725 48.3536 45.5194 48.4312 45.3536 48.5219C45.2005 48.6125 45.0346 48.7031 44.8815 48.7937C44.7284 48.8843 44.5753 48.9879 44.4222 49.0785C44.2692 49.1821 44.1288 49.2856 43.9885 49.3892C43.8481 49.4928 43.7078 49.6093 43.5675 49.7258C43.4271 49.8423 43.2995 49.9588 43.1592 50.0883C43.0316 50.2048 42.8913 50.3342 42.7637 50.4637C42.6361 50.5931 42.5085 50.7226 42.3937 50.8521C42.2789 50.9815 42.1513 51.1239 42.0493 51.2663C41.9344 51.4087 41.8196 51.5511 41.7176 51.6935C41.6155 51.8359 41.5134 51.9913 41.4114 52.1337C41.3093 52.289 41.22 52.4444 41.1179 52.5997C41.0286 52.7551 40.9393 52.9104 40.85 53.0787C40.7607 53.234 40.6842 53.4023 40.6076 53.5706C40.5311 53.7389 40.4545 53.9072 40.3907 54.0626C40.3269 54.2309 40.2631 54.3991 40.1994 54.5674C40.1356 54.7357 40.0845 54.917 40.0335 55.0853C39.9825 55.2536 39.9314 55.4348 39.8932 55.616C39.8549 55.7973 39.8166 55.9656 39.7783 56.1468C39.7401 56.328 39.7146 56.5093 39.689 56.6776C39.6635 56.8588 39.638 57.0401 39.6252 57.2213C39.6125 57.4025 39.5997 57.5838 39.587 57.765C39.5742 57.9462 39.5742 58.1275 39.5742 58.3087C39.5742 58.49 39.5742 58.6712 39.587 58.8524C39.5997 59.0337 39.6125 59.2149 39.6252 59.3962C39.638 59.5774 39.6635 59.7586 39.689 59.9399C39.7146 60.1211 39.7401 60.3023 39.7783 60.4706C39.8166 60.6519 39.8549 60.8202 39.8932 61.0014C39.9314 61.1826 39.9825 61.3509 40.0335 61.5322C40.0845 61.7005 40.1356 61.8817 40.1994 62.05C40.2631 62.2183 40.3269 62.3866 40.3907 62.5549C40.4545 62.7232 40.5311 62.8915 40.6076 63.0468C40.6842 63.2151 40.7607 63.3704 40.85 63.5387C40.9393 63.6941 41.0286 63.8624 41.1179 64.0177C41.2072 64.1731 41.3093 64.3284 41.4114 64.4838C41.5134 64.6391 41.6155 64.7815 41.7176 64.9239C41.8196 65.0663 41.9344 65.2087 42.0493 65.3511C42.1641 65.4935 42.2789 65.623 42.3937 65.7654C42.5085 65.8948 42.6361 66.0372 42.7637 66.1537C42.8913 66.2832 43.0189 66.4127 43.1592 66.5292C43.2868 66.6457 43.4271 66.7751 43.5675 66.8916C43.7078 67.0082 43.8481 67.1247 43.9885 67.2282C44.1288 67.3318 44.2819 67.4354 44.4222 67.5389C44.5753 67.6425 44.7284 67.7331 44.8815 67.8367C45.0346 67.9273 45.1877 68.0179 45.3536 68.1085C45.5194 68.1992 45.6725 68.2768 45.8384 68.3545C46.0042 68.4322 46.1701 68.5098 46.3232 68.5746C46.489 68.6393 46.6549 68.704 46.8207 68.7688C46.9866 68.8335 47.1652 68.8853 47.3311 68.937C47.4969 68.9888 47.6755 69.0406 47.8541 69.0795C48.0328 69.1183 48.1986 69.1571 48.3772 69.196C48.5558 69.2348 48.7344 69.2607 48.9003 69.2866C49.0789 69.3125 49.2575 69.3384 49.4361 69.3513C49.6147 69.3643 49.7934 69.3772 49.972 69.3901C50.1506 69.4031 50.3292 69.4031 50.5078 69.4031C50.6864 69.4031 50.865 69.4031 51.0436 69.3901C51.2222 69.3772 51.4009 69.3643 51.5795 69.3513C51.7581 69.3384 51.9367 69.3125 52.1153 69.2866C52.2939 69.2607 52.4725 69.2348 52.6384 69.196C52.817 69.1571 52.9828 69.1183 53.1615 69.0795C53.3401 69.0406 53.5059 68.9888 53.6845 68.937C53.8504 68.8853 54.029 68.8335 54.1949 68.7688C54.3607 68.704 54.5266 68.6393 54.6924 68.5746C54.8583 68.5098 55.0241 68.4322 55.1772 68.3545C55.3431 68.2768 55.4962 68.1992 55.662 68.1085C55.8151 68.0179 55.981 67.9273 56.1341 67.8367C56.2872 67.7461 56.4403 67.6425 56.5934 67.5389C56.7465 67.4354 56.8868 67.3318 57.0271 67.2282C57.1675 67.1247 57.3078 67.0082 57.4481 66.8916C57.5885 66.7751 57.7161 66.6586 57.8564 66.5292C57.984 66.4127 58.1243 66.2832 58.2391 66.1537C58.3667 66.0243 58.4943 65.8948 58.6091 65.7654C58.7239 65.6359 58.8515 65.4935 58.9663 65.3511C59.0812 65.2087 59.196 65.0663 59.298 64.9239C59.4001 64.7815 59.5022 64.6262 59.6042 64.4838C59.7063 64.3284 59.7956 64.1731 59.8977 64.0177C59.987 63.8624 60.0763 63.707 60.1656 63.5387C60.2549 63.3834 60.3314 63.2151 60.408 63.0468C60.4845 62.8785 60.5611 62.7232 60.6249 62.5549C60.6887 62.3866 60.7525 62.2183 60.8162 62.05C60.88 61.8817 60.9311 61.7005 60.9821 61.5322C61.0331 61.3639 61.0842 61.1826 61.1224 61.0014C61.1607 60.8202 61.199 60.6519 61.2373 60.4706C61.2755 60.2894 61.301 60.1082 61.3266 59.9399C61.3521 59.7586 61.3776 59.5774 61.3904 59.3962C61.4031 59.2149 61.4159 59.0337 61.4286 58.8524C61.4414 58.6712 61.4414 58.49 61.4414 58.3087C61.4414 58.1275 61.4414 57.9462 61.4286 57.765C61.4159 57.5967 61.4031 57.4155 61.3904 57.2342ZM56.823 58.49C56.823 58.5417 56.8102 58.6065 56.7975 58.6582C56.7847 58.71 56.772 58.7748 56.7592 58.8265C56.7464 58.8783 56.7209 58.9301 56.7082 58.9948C56.6827 59.0466 56.6571 59.0984 56.6316 59.1502C56.6061 59.202 56.5806 59.2537 56.5423 59.2926C56.5168 59.3444 56.4785 59.3832 56.4403 59.435C56.402 59.4738 56.3637 59.5256 56.3254 59.5644C56.2872 59.6033 56.2489 59.6421 56.1979 59.681C56.1596 59.7198 56.1085 59.7457 56.0575 59.7845C56.0065 59.8104 55.9555 59.8492 55.9172 59.8751C55.8661 59.901 55.8151 59.9269 55.7641 59.9528C55.7131 59.9787 55.662 59.9916 55.5982 60.0046C55.5472 60.0175 55.4834 60.0305 55.4324 60.0434C55.3813 60.0564 55.3176 60.0693 55.2665 60.0693C55.2155 60.0693 55.1517 60.0823 55.1007 60.0823H52.2174V63.008C52.2174 63.0598 52.2174 63.1245 52.2046 63.1763C52.2046 63.228 52.1919 63.2928 52.1791 63.3446C52.1663 63.3963 52.1536 63.4611 52.1408 63.5128C52.1281 63.5646 52.1025 63.6164 52.0898 63.6811C52.0643 63.7329 52.0388 63.7847 52.0132 63.8365C51.9877 63.8883 51.9622 63.9401 51.9239 63.9789C51.8984 64.0307 51.8601 64.0695 51.8219 64.1213C51.7836 64.1601 51.7453 64.2119 51.707 64.2507C51.6688 64.2896 51.6305 64.3284 51.5795 64.3673C51.5412 64.4061 51.4902 64.432 51.4391 64.4708C51.3881 64.4967 51.3498 64.5355 51.2988 64.5614C51.2478 64.5873 51.1967 64.6132 51.1457 64.6391C51.0947 64.665 51.0436 64.6779 50.9798 64.6909C50.9288 64.7038 50.865 64.7168 50.814 64.7297C50.763 64.7427 50.6992 64.7556 50.6481 64.7556C50.5971 64.7556 50.5333 64.7686 50.4823 64.7686C50.4313 64.7686 50.3675 64.7686 50.3164 64.7556C50.2654 64.7556 50.2016 64.7427 50.1506 64.7297C50.0995 64.7168 50.0358 64.7038 49.9847 64.6909C49.9337 64.6779 49.8827 64.6521 49.8189 64.6391C49.7678 64.6132 49.7168 64.5873 49.6658 64.5614C49.6147 64.5355 49.5637 64.5097 49.5254 64.4708C49.4744 64.4449 49.4361 64.4061 49.3851 64.3673C49.3468 64.3284 49.2958 64.2896 49.2575 64.2507C49.2192 64.2119 49.181 64.1731 49.1427 64.1213C49.1044 64.0825 49.0789 64.0307 49.0406 63.9789C49.0151 63.9271 48.9768 63.8753 48.9513 63.8365C48.9258 63.7847 48.9003 63.7329 48.8748 63.6811C48.8493 63.6294 48.8365 63.5776 48.8237 63.5128C48.811 63.4611 48.7982 63.3963 48.7855 63.3446C48.7727 63.2928 48.76 63.228 48.76 63.1763C48.76 63.1245 48.7472 63.0598 48.7472 63.008V60.0823H45.8639C45.8129 60.0823 45.7491 60.0823 45.698 60.0693C45.647 60.0693 45.5832 60.0564 45.5322 60.0434C45.4812 60.0305 45.4174 60.0175 45.3663 60.0046C45.3153 59.9916 45.2643 59.9658 45.2005 59.9528C45.1494 59.9269 45.0984 59.901 45.0474 59.8751C44.9964 59.8492 44.9453 59.8234 44.9071 59.7845C44.856 59.7586 44.8177 59.7198 44.7667 59.681C44.7284 59.6421 44.6774 59.6033 44.6391 59.5644C44.6009 59.5256 44.5626 59.4868 44.5243 59.435C44.486 59.3961 44.4605 59.3444 44.4222 59.2926C44.3967 59.2408 44.3585 59.202 44.3329 59.1502C44.3074 59.0984 44.2819 59.0466 44.2564 58.9948C44.2309 58.9431 44.2181 58.8913 44.2054 58.8265C44.1926 58.7748 44.1798 58.71 44.1671 58.6582C44.1543 58.6065 44.1416 58.5417 44.1416 58.49C44.1416 58.4382 44.1288 58.3734 44.1288 58.3217C44.1288 58.2699 44.1288 58.2052 44.1416 58.1534C44.1416 58.1016 44.1543 58.0369 44.1671 57.9851C44.1798 57.9333 44.1926 57.8686 44.2054 57.8168C44.2181 57.765 44.2436 57.7132 44.2564 57.6485C44.2819 57.5967 44.3074 57.5449 44.3329 57.4931C44.3585 57.4414 44.384 57.3896 44.4222 57.3507C44.4478 57.299 44.486 57.2601 44.5243 57.2083C44.5626 57.1695 44.6009 57.1177 44.6391 57.0789C44.6774 57.0401 44.7157 57.0012 44.7667 56.9624C44.805 56.9235 44.856 56.8977 44.9071 56.8588C44.9581 56.8329 44.9964 56.7941 45.0474 56.7682C45.0984 56.7423 45.1494 56.7164 45.2005 56.6905C45.2515 56.6646 45.3025 56.6517 45.3663 56.6387C45.4174 56.6258 45.4812 56.6128 45.5322 56.5999C45.5832 56.587 45.647 56.574 45.698 56.574C45.7491 56.574 45.8129 56.5611 45.8639 56.5611H48.7472V53.6354C48.7472 53.5836 48.7472 53.5188 48.76 53.4671C48.76 53.4153 48.7727 53.3506 48.7855 53.2988C48.7982 53.247 48.811 53.1823 48.8237 53.1305C48.8365 53.0787 48.862 53.0269 48.8748 52.9622C48.9003 52.9104 48.9258 52.8586 48.9513 52.8068C48.9768 52.7551 49.0024 52.7033 49.0406 52.6644C49.0661 52.6127 49.1044 52.5738 49.1427 52.522C49.181 52.4832 49.2192 52.4314 49.2575 52.3926C49.2958 52.3537 49.3341 52.3149 49.3851 52.2761C49.4234 52.2372 49.4744 52.2113 49.5254 52.1725C49.5765 52.1466 49.6275 52.1078 49.6658 52.0819C49.7168 52.056 49.7678 52.0301 49.8189 52.0042C49.8699 51.9783 49.9209 51.9654 49.9847 51.9524C50.0358 51.9395 50.0995 51.9265 50.1506 51.9136C50.2016 51.9007 50.2654 51.8877 50.3164 51.8877C50.3675 51.8877 50.4313 51.8748 50.4823 51.8748C50.5333 51.8748 50.5971 51.8748 50.6481 51.8877C50.6992 51.8877 50.763 51.9007 50.814 51.9136C50.865 51.9265 50.9288 51.9395 50.9798 51.9524C51.0309 51.9654 51.0819 51.9913 51.1457 52.0042C51.1967 52.0301 51.2478 52.056 51.2988 52.0819C51.3498 52.1078 51.4009 52.1337 51.4391 52.1725C51.4902 52.1984 51.5284 52.2372 51.5795 52.2761C51.6177 52.3149 51.6688 52.3537 51.707 52.3926C51.7453 52.4314 51.7836 52.4703 51.8219 52.522C51.8601 52.5609 51.8857 52.6127 51.9239 52.6644C51.9495 52.7162 51.9877 52.7551 52.0132 52.8068C52.0388 52.8586 52.0643 52.9104 52.0898 52.9622C52.1153 53.014 52.1281 53.0658 52.1408 53.1305C52.1536 53.1823 52.1663 53.247 52.1791 53.2988C52.1919 53.3506 52.2046 53.4153 52.2046 53.4671C52.2046 53.5188 52.2174 53.5836 52.2174 53.6354V56.5611H55.1007C55.1517 56.5611 55.2155 56.5611 55.2665 56.574C55.3176 56.574 55.3813 56.587 55.4324 56.5999C55.4834 56.6128 55.5472 56.6258 55.5982 56.6387C55.6493 56.6517 55.7003 56.6776 55.7641 56.6905C55.8151 56.7164 55.8661 56.7423 55.9172 56.7682C55.9682 56.7941 56.0192 56.82 56.0575 56.8588C56.1085 56.8847 56.1468 56.9235 56.1979 56.9624C56.2361 57.0012 56.2872 57.0401 56.3254 57.0789C56.3637 57.1177 56.402 57.1566 56.4403 57.2083C56.4785 57.2472 56.504 57.299 56.5423 57.3507C56.5678 57.4025 56.6061 57.4543 56.6316 57.4931C56.6571 57.5449 56.6827 57.5967 56.7082 57.6485C56.7337 57.7003 56.7464 57.7521 56.7592 57.8168C56.772 57.8686 56.7847 57.9333 56.7975 57.9851C56.8102 58.0369 56.823 58.1016 56.823 58.1534C56.823 58.2052 56.8358 58.2699 56.8358 58.3217C56.8358 58.3734 56.8358 58.4382 56.823 58.49Z" fill="white"/>
<path d="M21.1907 15.2258C21.2163 15.4458 21.2418 15.6659 21.2673 15.886C21.3056 16.1061 21.3311 16.3261 21.3821 16.5333C21.4204 16.7533 21.4714 16.9605 21.5224 17.1805C21.5735 17.3877 21.6373 17.6077 21.7011 17.8149C21.7649 18.022 21.8286 18.2291 21.9052 18.4363C21.9817 18.6434 22.0583 18.8505 22.1348 19.0576C22.2114 19.2648 22.3007 19.459 22.4028 19.6661C22.4921 19.8603 22.5941 20.0674 22.6962 20.2616C22.7982 20.4558 22.9003 20.65 23.0151 20.8312C23.13 21.0254 23.2448 21.2066 23.3596 21.3879C23.4744 21.5691 23.602 21.7503 23.7296 21.9316C23.8572 22.1128 23.9975 22.2811 24.1251 22.4494C24.2654 22.6177 24.4058 22.786 24.5461 22.9543C24.6864 23.1226 24.8395 23.2779 24.9926 23.4333C25.1457 23.5886 25.2988 23.744 25.4647 23.8864C25.6305 24.0288 25.7836 24.1712 25.9622 24.3136C26.1281 24.456 26.3067 24.5854 26.4725 24.7149C26.6512 24.8443 26.8298 24.9738 27.0084 25.0903C27.187 25.2068 27.3656 25.3363 27.557 25.4398C27.7483 25.5563 27.927 25.6599 28.1183 25.7635C28.3097 25.867 28.5011 25.9706 28.6924 26.0612C28.8838 26.1518 29.0879 26.2425 29.2921 26.3331C29.4962 26.4107 29.7003 26.5014 29.9044 26.5661C30.1086 26.6438 30.3127 26.7085 30.5168 26.7732C30.7209 26.8379 30.9378 26.8897 31.142 26.9545C31.3588 27.0062 31.563 27.058 31.7799 27.0969C31.9967 27.1357 32.2009 27.1745 32.4178 27.2134C32.6346 27.2522 32.8515 27.2781 33.0684 27.291C33.2853 27.3169 33.5022 27.3299 33.7191 27.3428C33.936 27.3558 34.1528 27.3558 34.3697 27.3558C34.5866 27.3558 34.8035 27.3558 35.0204 27.3428C35.2373 27.3299 35.4542 27.3169 35.671 27.291C35.8879 27.2652 36.1048 27.2393 36.3217 27.2134C36.5386 27.1875 36.7555 27.1486 36.9596 27.0969C37.1765 27.058 37.3806 27.0062 37.5975 26.9545C37.8144 26.9027 38.0185 26.8379 38.2226 26.7732C38.4268 26.7085 38.6309 26.6438 38.835 26.5661C39.0391 26.4884 39.2433 26.4107 39.4474 26.3331C39.6515 26.2425 39.8429 26.1648 40.047 26.0612C40.2384 25.9706 40.4425 25.867 40.6339 25.7635C40.8253 25.6599 41.0166 25.5563 41.1952 25.4398C41.3866 25.3233 41.5652 25.2068 41.7438 25.0903C41.9225 24.9738 42.1011 24.8443 42.2797 24.7149C42.4583 24.5854 42.6241 24.443 42.79 24.3136C42.9558 24.1712 43.1217 24.0288 43.2876 23.8864C43.4534 23.744 43.6065 23.5886 43.7596 23.4333C43.9127 23.2779 44.0658 23.1226 44.2061 22.9543C44.3465 22.786 44.4868 22.6306 44.6271 22.4494C44.7675 22.2811 44.8951 22.0999 45.0226 21.9316C45.1502 21.7503 45.2778 21.5691 45.3926 21.3879C45.5074 21.2066 45.635 21.0254 45.7371 20.8312C45.8519 20.637 45.954 20.4558 46.056 20.2616C46.1581 20.0674 46.2602 19.8732 46.3495 19.6661C46.4388 19.4719 46.5281 19.2648 46.6174 19.0576C46.6939 18.8505 46.7832 18.6434 46.847 18.4363C46.9236 18.2291 46.9874 18.022 47.0512 17.8149C47.1149 17.6077 47.166 17.3877 47.2298 17.1805C47.2808 16.9734 47.3318 16.7533 47.3701 16.5333C47.4084 16.3132 47.4467 16.1061 47.4849 15.886C47.5104 15.6659 47.5487 15.4458 47.5615 15.2258C47.587 15.0057 47.5998 14.7856 47.6125 14.5655C47.6253 14.3455 47.6253 14.1254 47.6253 13.9053C47.6253 13.6852 47.6253 13.4652 47.6125 13.2451C47.5998 13.025 47.587 12.8049 47.5615 12.5849C47.536 12.3648 47.5104 12.1447 47.4849 11.9246C47.4594 11.7046 47.4211 11.4845 47.3701 11.2773C47.3318 11.0573 47.2808 10.8501 47.2298 10.6301C47.1787 10.4229 47.1149 10.2029 47.0512 9.99573C46.9874 9.7886 46.9236 9.58148 46.847 9.37435C46.7705 9.16722 46.6939 8.96009 46.6174 8.75296C46.5408 8.54583 46.4515 8.35164 46.3495 8.14452C46.2602 7.95033 46.1581 7.7432 46.056 7.54902C45.954 7.35483 45.8519 7.16065 45.7371 6.97941C45.6223 6.78523 45.5074 6.60399 45.3926 6.42275C45.2778 6.24151 45.1502 6.06028 45.0226 5.87904C44.8951 5.6978 44.7547 5.52951 44.6271 5.36121C44.4868 5.19292 44.3465 5.02463 44.2061 4.85633C44.0658 4.68804 43.9127 4.5327 43.7596 4.37735C43.6065 4.222 43.4534 4.06665 43.2876 3.92425C43.1217 3.78185 42.9686 3.6265 42.79 3.49705C42.6241 3.35465 42.4455 3.22519 42.2797 3.09573C42.1011 2.96628 41.9225 2.83682 41.7438 2.72031C41.5652 2.6038 41.3866 2.47435 41.1952 2.37078C41.0039 2.25427 40.8253 2.15071 40.6339 2.04714C40.4425 1.94358 40.2512 1.84001 40.047 1.74939C39.8557 1.65877 39.6515 1.56815 39.4474 1.47754C39.2433 1.39986 39.0391 1.30924 38.835 1.24452C38.6309 1.16684 38.4268 1.10211 38.2226 1.03739C38.0185 0.972658 37.8016 0.920875 37.5975 0.856147C37.3934 0.804365 37.1765 0.752583 36.9596 0.713746C36.7427 0.674909 36.5386 0.636072 36.3217 0.597235C36.1048 0.558399 35.8879 0.532508 35.671 0.519562C35.4542 0.493671 35.2373 0.480725 35.0204 0.46778C34.8035 0.454834 34.5866 0.454834 34.3697 0.454834C34.1528 0.454834 33.936 0.454834 33.7191 0.46778C33.5022 0.480725 33.2853 0.493671 33.0684 0.519562C32.8515 0.545453 32.6346 0.571344 32.4178 0.597235C32.2009 0.623127 31.984 0.661963 31.7799 0.713746C31.563 0.752583 31.3588 0.804365 31.142 0.856147C30.9378 0.90793 30.7209 0.972658 30.5168 1.03739C30.3127 1.10211 30.1086 1.16684 29.9044 1.24452C29.7003 1.32219 29.4962 1.39986 29.2921 1.47754C29.0879 1.56815 28.8966 1.64583 28.6924 1.74939C28.5011 1.84001 28.2969 1.94358 28.1183 2.04714C27.927 2.15071 27.7356 2.25427 27.557 2.37078C27.3656 2.48729 27.187 2.6038 27.0084 2.72031C26.8298 2.83682 26.6512 2.96628 26.4725 3.09573C26.2939 3.22519 26.1281 3.36759 25.9622 3.49705C25.7964 3.63945 25.6305 3.78185 25.4647 3.92425C25.2988 4.06665 25.1457 4.222 24.9926 4.37735C24.8395 4.5327 24.6864 4.68804 24.5461 4.85633C24.4058 5.02463 24.2654 5.17998 24.1251 5.36121C23.9847 5.52951 23.8572 5.71074 23.7296 5.87904C23.602 6.06028 23.4744 6.24151 23.3596 6.42275C23.2448 6.60399 23.1172 6.78523 23.0151 6.97941C22.9003 7.1736 22.7982 7.35483 22.6962 7.54902C22.5941 7.7432 22.4921 7.93739 22.4028 8.14452C22.3134 8.3387 22.2241 8.54583 22.1348 8.75296C22.0455 8.96009 21.969 9.16722 21.9052 9.37435C21.8286 9.58148 21.7649 9.7886 21.7011 9.99573C21.6373 10.2029 21.5862 10.4229 21.5224 10.6301C21.4714 10.8372 21.4204 11.0573 21.3821 11.2773C21.3438 11.4974 21.3056 11.7046 21.2673 11.9246C21.2418 12.1447 21.2035 12.3648 21.1907 12.5849C21.1652 12.8049 21.1525 13.025 21.1397 13.2451C21.127 13.4652 21.127 13.6852 21.127 13.9053C21.127 14.1254 21.127 14.3455 21.1397 14.5655C21.1525 14.7856 21.1652 15.0057 21.1907 15.2258Z" fill="white"/>
<path d="M2.7414 21.7763C2.75416 21.9187 2.76691 22.0611 2.79243 22.2035C2.81795 22.3459 2.8307 22.4883 2.86898 22.6307C2.89449 22.7731 2.93277 22.9155 2.95828 23.0449C2.99656 23.1873 3.03483 23.3168 3.07311 23.4592C3.11138 23.6016 3.16241 23.7311 3.20069 23.8735C3.25172 24.0029 3.30275 24.1453 3.35378 24.2748C3.40481 24.4042 3.4686 24.5337 3.51964 24.6631C3.58343 24.7926 3.64722 24.9221 3.711 25.0515C3.77479 25.181 3.85134 25.2975 3.91513 25.4269C3.99168 25.5434 4.06823 25.6729 4.14478 25.7894C4.22132 25.9059 4.31063 26.0224 4.38718 26.1389C4.47648 26.2555 4.55303 26.372 4.64234 26.4755C4.73164 26.592 4.82095 26.6956 4.92301 26.7992C5.01232 26.9027 5.11438 27.0063 5.21645 27.1099C5.31851 27.2134 5.42057 27.304 5.52264 27.4076C5.6247 27.4982 5.73952 27.6018 5.84159 27.6924C5.95641 27.783 6.05847 27.8736 6.17329 27.9513C6.28812 28.0419 6.40294 28.1196 6.51776 28.1973C6.63258 28.275 6.76016 28.3526 6.87498 28.4303C6.9898 28.508 7.11738 28.5727 7.24496 28.6374C7.37254 28.7022 7.50012 28.7669 7.6277 28.8316C7.75528 28.8964 7.88286 28.9481 8.01044 28.9999C8.13802 29.0517 8.27836 29.1035 8.40594 29.1553C8.53352 29.207 8.67386 29.2459 8.81419 29.2847C8.95453 29.3236 9.08211 29.3624 9.22245 29.4012C9.36279 29.4401 9.50312 29.466 9.6307 29.4918C9.77104 29.5177 9.91138 29.5436 10.0517 29.5695C10.1921 29.5954 10.3324 29.6084 10.4727 29.6213C10.6131 29.6343 10.7534 29.6472 10.8937 29.6472C11.0341 29.6601 11.1744 29.6601 11.3148 29.6601C11.4551 29.6601 11.5954 29.6601 11.7358 29.6472C11.8761 29.6342 12.0164 29.6343 12.1568 29.6213C12.2971 29.6084 12.4375 29.5954 12.5778 29.5695C12.7181 29.5436 12.8585 29.5177 12.9988 29.4918C13.1391 29.466 13.2795 29.4271 13.4071 29.4012C13.5474 29.3624 13.675 29.3236 13.8153 29.2847C13.9557 29.2459 14.0832 29.1941 14.2236 29.1553C14.3512 29.1035 14.4915 29.0517 14.6191 28.9999C14.7467 28.9481 14.8742 28.8834 15.0018 28.8316C15.1294 28.7669 15.257 28.7022 15.3846 28.6374C15.5121 28.5727 15.627 28.495 15.7545 28.4303C15.8694 28.3526 15.9969 28.275 16.1118 28.1973C16.2266 28.1196 16.3414 28.029 16.4562 27.9513C16.571 27.8607 16.6859 27.783 16.7879 27.6924C16.9028 27.6018 17.0048 27.5112 17.1069 27.4076C17.2089 27.317 17.311 27.2134 17.4131 27.1099C17.5151 27.0063 17.6044 26.9027 17.7065 26.7992C17.7958 26.6956 17.8979 26.5791 17.9872 26.4755C18.0765 26.359 18.1658 26.2555 18.2423 26.1389C18.3316 26.0224 18.4082 25.9059 18.4847 25.7894C18.5613 25.6729 18.6378 25.5434 18.7144 25.4269C18.7909 25.2975 18.8547 25.181 18.9185 25.0515C18.9823 24.9221 19.0461 24.7926 19.1099 24.6631C19.1737 24.5337 19.2247 24.4042 19.2757 24.2748C19.3268 24.1453 19.3778 24.0029 19.4288 23.8735C19.4799 23.744 19.5181 23.6016 19.5564 23.4592C19.5947 23.3168 19.633 23.1873 19.6712 23.0449C19.7095 22.9025 19.735 22.7601 19.7605 22.6307C19.7861 22.4883 19.8116 22.3459 19.8371 22.2035C19.8626 22.0611 19.8754 21.9187 19.8881 21.7763C19.9009 21.6339 19.9136 21.4915 19.9136 21.3491C19.9264 21.2067 19.9264 21.0643 19.9264 20.9219C19.9264 20.7795 19.9264 20.6371 19.9136 20.4947C19.9009 20.3523 19.9009 20.2099 19.8881 20.0675C19.8754 19.9251 19.8626 19.7827 19.8371 19.6403C19.8116 19.4979 19.7861 19.3555 19.7605 19.213C19.735 19.0706 19.6967 18.9282 19.6712 18.7988C19.633 18.6564 19.5947 18.5269 19.5564 18.3845C19.5181 18.2421 19.4671 18.1127 19.4288 17.9703C19.3778 17.8408 19.3268 17.6984 19.2757 17.569C19.2247 17.4395 19.1609 17.31 19.1099 17.1806C19.0461 17.0511 18.9823 16.9217 18.9185 16.7922C18.8547 16.6628 18.7782 16.5463 18.7144 16.4168C18.6378 16.2873 18.5613 16.1708 18.4847 16.0543C18.4082 15.9378 18.3189 15.8213 18.2423 15.7048C18.153 15.5883 18.0765 15.4718 17.9872 15.3682C17.8979 15.2517 17.8086 15.1481 17.7065 15.0446C17.6172 14.941 17.5151 14.8374 17.4131 14.7339C17.311 14.6303 17.2089 14.5397 17.1069 14.4361C17.0048 14.3455 16.89 14.2419 16.7879 14.1513C16.6731 14.0607 16.571 13.9701 16.4562 13.8924C16.3414 13.8018 16.2266 13.7241 16.1118 13.6464C15.9969 13.5688 15.8694 13.4911 15.7545 13.4134C15.627 13.3358 15.5121 13.271 15.3846 13.2063C15.257 13.1416 15.1294 13.0768 15.0018 13.0121C14.8742 12.9474 14.7467 12.8956 14.6191 12.8438C14.4915 12.792 14.3512 12.7403 14.2236 12.6885C14.096 12.6367 13.9557 12.5979 13.8153 12.559C13.675 12.5202 13.5474 12.4813 13.4071 12.4425C13.2667 12.4037 13.1264 12.3778 12.9988 12.3519C12.8585 12.326 12.7181 12.3001 12.5778 12.2742C12.4375 12.2483 12.2971 12.2354 12.1568 12.2224C12.0164 12.2095 11.8761 12.1965 11.7358 12.1965C11.5954 12.1836 11.4551 12.1836 11.3148 12.1836C11.1744 12.1836 11.0341 12.1836 10.8937 12.1965C10.7534 12.2095 10.6131 12.2095 10.4727 12.2224C10.3324 12.2354 10.1921 12.2483 10.0517 12.2742C9.91138 12.3001 9.77104 12.326 9.6307 12.3519C9.49037 12.3778 9.35003 12.4166 9.22245 12.4425C9.08211 12.4813 8.95453 12.5202 8.81419 12.559C8.67386 12.5979 8.54628 12.6496 8.40594 12.6885C8.27836 12.7403 8.13802 12.792 8.01044 12.8438C7.88286 12.8956 7.75528 12.9603 7.6277 13.0121C7.50012 13.0768 7.37254 13.1416 7.24496 13.2063C7.11738 13.271 7.00256 13.3487 6.87498 13.4134C6.7474 13.4911 6.63258 13.5688 6.51776 13.6464C6.40294 13.7241 6.28812 13.8147 6.17329 13.8924C6.05847 13.983 5.94365 14.0607 5.84159 14.1513C5.72676 14.2419 5.6247 14.3326 5.52264 14.4361C5.42057 14.5267 5.31851 14.6303 5.21645 14.7339C5.11438 14.8374 5.02508 14.941 4.92301 15.0446C4.83371 15.1481 4.73164 15.2646 4.64234 15.3682C4.55303 15.4847 4.46373 15.5883 4.38718 15.7048C4.29787 15.8213 4.22132 15.9378 4.14478 16.0543C4.06823 16.1708 3.99168 16.3003 3.91513 16.4168C3.83858 16.5333 3.77479 16.6628 3.711 16.7922C3.64722 16.9217 3.58343 17.0511 3.51964 17.1806C3.45585 17.31 3.40481 17.4395 3.35378 17.569C3.30275 17.6984 3.25172 17.8408 3.20069 17.9703C3.14965 18.0997 3.11138 18.2421 3.07311 18.3845C3.03483 18.5269 2.99656 18.6564 2.95828 18.7988C2.92001 18.9412 2.89449 19.0836 2.86898 19.213C2.84346 19.3555 2.81795 19.4979 2.79243 19.6403C2.76691 19.7827 2.75416 19.9251 2.7414 20.0675C2.72864 20.2099 2.71588 20.3523 2.71588 20.4947C2.70312 20.6371 2.70313 20.7795 2.70313 20.9219C2.70313 21.0643 2.70312 21.2067 2.71588 21.3491C2.71588 21.4915 2.72864 21.6339 2.7414 21.7763Z" fill="white"/>
<path d="M48.8117 21.7763C48.8245 21.9187 48.8372 22.0611 48.8627 22.2035C48.8883 22.3459 48.9138 22.4883 48.9393 22.6307C48.9648 22.7731 49.0031 22.9155 49.0286 23.0449C49.0669 23.1873 49.1051 23.3168 49.1434 23.4592C49.1817 23.6016 49.2327 23.7311 49.271 23.8735C49.322 24.0029 49.3731 24.1453 49.4241 24.2748C49.4751 24.4042 49.5389 24.5337 49.59 24.6631C49.6537 24.7926 49.7175 24.9221 49.7813 25.0515C49.8451 25.181 49.9217 25.2975 49.9854 25.4269C50.062 25.5434 50.1385 25.6729 50.2151 25.7894C50.2916 25.9059 50.3809 26.0224 50.4575 26.1389C50.5468 26.2555 50.6233 26.372 50.7127 26.4755C50.802 26.592 50.8913 26.6956 50.9933 26.7992C51.0826 26.9027 51.1847 27.0063 51.2868 27.1099C51.3888 27.2134 51.4909 27.304 51.593 27.4076C51.695 27.4982 51.8098 27.6018 51.9119 27.6924C52.0267 27.783 52.1288 27.8736 52.2436 27.9513C52.3584 28.0419 52.4733 28.1196 52.5881 28.1973C52.7029 28.275 52.8305 28.3526 52.9453 28.4303C53.0729 28.508 53.1877 28.5727 53.3153 28.6374C53.4429 28.7022 53.5704 28.7669 53.698 28.8316C53.8256 28.8964 53.9532 28.9481 54.0808 28.9999C54.2083 29.0517 54.3487 29.1035 54.4763 29.1553C54.6038 29.207 54.7442 29.2459 54.8845 29.2847C55.0248 29.3236 55.1524 29.3624 55.2928 29.4012C55.4331 29.4401 55.5734 29.466 55.701 29.4918C55.8414 29.5177 55.9817 29.5436 56.122 29.5695C56.2624 29.5954 56.4027 29.6084 56.543 29.6213C56.6834 29.6343 56.8237 29.6472 56.9641 29.6472C57.1044 29.6601 57.2447 29.6601 57.3851 29.6601C57.5254 29.6601 57.6657 29.6601 57.8061 29.6472C57.9464 29.6342 58.0868 29.6343 58.2271 29.6213C58.3674 29.6084 58.5078 29.5954 58.6481 29.5695C58.7884 29.5436 58.9288 29.5177 59.0691 29.4918C59.2095 29.466 59.3498 29.4271 59.4774 29.4012C59.6177 29.3624 59.7453 29.3236 59.8856 29.2847C60.026 29.2459 60.1536 29.1941 60.2939 29.1553C60.4215 29.1035 60.5618 29.0517 60.6894 28.9999C60.817 28.9481 60.9445 28.8834 61.0721 28.8316C61.1997 28.7669 61.3273 28.7022 61.4549 28.6374C61.5824 28.5727 61.6973 28.495 61.8248 28.4303C61.9524 28.3526 62.0672 28.275 62.1821 28.1973C62.2969 28.1196 62.4117 28.029 62.5265 27.9513C62.6414 27.8607 62.7562 27.783 62.8582 27.6924C62.9731 27.6018 63.0751 27.5112 63.1772 27.4076C63.2793 27.317 63.3813 27.2134 63.4834 27.1099C63.5854 27.0063 63.6748 26.9027 63.7768 26.7992C63.8661 26.6956 63.9682 26.5791 64.0575 26.4755C64.1468 26.359 64.2361 26.2555 64.3127 26.1389C64.402 26.0224 64.4785 25.9059 64.5551 25.7894C64.6316 25.6729 64.7081 25.5434 64.7847 25.4269C64.8612 25.2975 64.925 25.181 64.9888 25.0515C65.0526 24.9221 65.1164 24.7926 65.1802 24.6631C65.244 24.5337 65.295 24.4042 65.346 24.2748C65.3971 24.1453 65.4481 24.0029 65.4991 23.8735C65.5502 23.744 65.5884 23.6016 65.6267 23.4592C65.665 23.3168 65.7033 23.1873 65.7415 23.0449C65.7798 22.9025 65.8053 22.7601 65.8308 22.6307C65.8564 22.4883 65.8819 22.3459 65.9074 22.2035C65.9329 22.0611 65.9457 21.9187 65.9584 21.7763C65.9712 21.6339 65.9839 21.4915 65.9839 21.3491C65.9967 21.2067 65.9967 21.0643 65.9967 20.9219C65.9967 20.7795 65.9967 20.6371 65.9839 20.4947C65.9712 20.3523 65.9712 20.2099 65.9584 20.0675C65.9457 19.9251 65.9329 19.7827 65.9074 19.6403C65.8819 19.4979 65.8691 19.3555 65.8308 19.213C65.8053 19.0706 65.7671 18.9282 65.7415 18.7988C65.7033 18.6564 65.665 18.5269 65.6267 18.3845C65.5884 18.2421 65.5374 18.1127 65.4991 17.9703C65.4481 17.8408 65.3971 17.6984 65.346 17.569C65.295 17.4395 65.2312 17.31 65.1802 17.1806C65.1164 17.0511 65.0526 16.9217 64.9888 16.7922C64.925 16.6628 64.8485 16.5463 64.7847 16.4168C64.7081 16.2873 64.6316 16.1708 64.5551 16.0543C64.4785 15.9378 64.3892 15.8213 64.3127 15.7048C64.2233 15.5883 64.1468 15.4718 64.0575 15.3682C63.9682 15.2517 63.8789 15.1481 63.7768 15.0446C63.6875 14.941 63.5854 14.8374 63.4834 14.7339C63.3813 14.6303 63.2793 14.5397 63.1772 14.4361C63.0751 14.3455 62.9603 14.2419 62.8582 14.1513C62.7434 14.0607 62.6414 13.9701 62.5265 13.8924C62.4117 13.8018 62.2969 13.7241 62.1821 13.6464C62.0672 13.5688 61.9397 13.4911 61.8248 13.4134C61.71 13.3358 61.5824 13.271 61.4549 13.2063C61.3273 13.1416 61.1997 13.0768 61.0721 13.0121C60.9445 12.9474 60.817 12.8956 60.6894 12.8438C60.5618 12.792 60.4215 12.7403 60.2939 12.6885C60.1663 12.6367 60.026 12.5979 59.8856 12.559C59.7453 12.5202 59.6177 12.4813 59.4774 12.4425C59.337 12.4037 59.1967 12.3778 59.0691 12.3519C58.9288 12.326 58.7884 12.3001 58.6481 12.2742C58.5078 12.2483 58.3674 12.2354 58.2271 12.2224C58.0868 12.2095 57.9464 12.1965 57.8061 12.1965C57.6657 12.1836 57.5254 12.1836 57.3851 12.1836C57.2447 12.1836 57.1044 12.1836 56.9641 12.1965C56.8237 12.2095 56.6834 12.2095 56.543 12.2224C56.4027 12.2354 56.2624 12.2483 56.122 12.2742C55.9817 12.3001 55.8414 12.326 55.701 12.3519C55.5607 12.3778 55.4203 12.4166 55.2928 12.4425C55.1524 12.4813 55.0248 12.5202 54.8845 12.559C54.7442 12.5979 54.6166 12.6496 54.4763 12.6885C54.3487 12.7403 54.2083 12.792 54.0808 12.8438C53.9532 12.8956 53.8256 12.9603 53.698 13.0121C53.5704 13.0768 53.4429 13.1416 53.3153 13.2063C53.1877 13.271 53.0729 13.3487 52.9453 13.4134C52.8305 13.4911 52.7029 13.5688 52.5881 13.6464C52.4733 13.7241 52.3584 13.8147 52.2436 13.8924C52.1288 13.983 52.014 14.0607 51.9119 14.1513C51.7971 14.2419 51.695 14.3326 51.593 14.4361C51.4909 14.5267 51.3888 14.6303 51.2868 14.7339C51.1847 14.8374 51.0954 14.941 50.9933 15.0446C50.904 15.1481 50.802 15.2646 50.7127 15.3682C50.6233 15.4847 50.534 15.5883 50.4575 15.7048C50.3682 15.8213 50.2916 15.9378 50.2151 16.0543C50.1385 16.1708 50.062 16.3003 49.9854 16.4168C49.9089 16.5333 49.8451 16.6628 49.7813 16.7922C49.7175 16.9217 49.6537 17.0511 49.59 17.1806C49.5262 17.31 49.4751 17.4395 49.4241 17.569C49.3731 17.6984 49.322 17.8408 49.271 17.9703C49.22 18.0997 49.1817 18.2421 49.1434 18.3845C49.1051 18.5269 49.0669 18.6564 49.0286 18.7988C48.9903 18.9412 48.9648 19.0836 48.9393 19.213C48.9138 19.3555 48.8883 19.4979 48.8627 19.6403C48.8372 19.7827 48.8245 19.9251 48.8117 20.0675C48.799 20.2099 48.7862 20.3523 48.7862 20.4947C48.7734 20.6371 48.7734 20.7795 48.7734 20.9219C48.7734 21.0643 48.7734 21.2067 48.7862 21.3491C48.7862 21.4915 48.799 21.6339 48.8117 21.7763Z" fill="white"/>
<path d="M40.2621 48.0687C40.4407 47.8875 40.6193 47.7062 40.8107 47.5379C41.0021 47.3697 41.1807 47.2014 41.3848 47.0331C41.5762 46.8648 41.7803 46.7094 41.9844 46.567C42.1886 46.4117 42.3927 46.2693 42.5968 46.1269C42.8009 45.9845 43.0178 45.855 43.2347 45.7256C43.4516 45.5961 43.6685 45.4667 43.8981 45.3501C44.1278 45.2336 44.3447 45.1171 44.5743 45.0136C44.8039 44.91 45.0336 44.8064 45.2632 44.7158C45.4929 44.6252 45.7353 44.5346 45.9777 44.4569C46.2201 44.3792 46.4625 44.3015 46.7049 44.2368C46.9473 44.1721 47.1897 44.1074 47.4321 44.0556C47.6745 44.0038 47.9296 43.952 48.172 43.9132C48.4144 43.8743 48.6696 43.8355 48.9248 43.8096C49.1799 43.7837 49.4223 43.7578 49.6775 43.7449C49.9326 43.7319 50.1751 43.719 50.4302 43.719C50.6854 43.719 50.9278 43.719 51.1829 43.7319C51.4381 43.7449 51.6805 43.7578 51.9356 43.7837C52.1908 43.8096 52.4332 43.8355 52.6884 43.8743C52.9435 43.9132 53.1859 43.952 53.4283 44.0038C53.6707 44.0556 53.9259 44.1074 54.1683 44.1721C54.4107 44.2368 54.6531 44.3015 54.8955 44.3792C54.7807 44.1074 54.6531 43.8355 54.5255 43.5636C54.3979 43.2918 54.2576 43.0329 54.1173 42.761C53.9769 42.5021 53.8366 42.2432 53.6835 41.9843C53.5304 41.7254 53.3773 41.4665 53.2114 41.2205C53.0456 40.9745 52.8797 40.7156 52.7139 40.4826C52.548 40.2366 52.3694 39.9907 52.1908 39.7576C52.0122 39.5246 51.8336 39.2916 51.6422 39.0586C51.4508 38.8256 51.2595 38.6055 51.0681 38.3854C50.8767 38.1653 50.6726 37.9453 50.4685 37.7252C50.2644 37.5051 50.0475 37.298 49.8433 37.0909C49.6265 36.8837 49.4096 36.6895 49.1927 36.4824C48.9758 36.2882 48.7462 36.094 48.5165 35.8999C48.2869 35.7057 48.0572 35.5244 47.8148 35.3432C47.5724 35.162 47.3428 34.9937 47.1004 34.8254C46.858 34.6571 46.6156 34.4888 46.3604 34.3334C46.1053 34.1781 45.8629 34.0227 45.6077 33.8674C45.3525 33.7121 45.0974 33.5697 44.8295 33.4402C44.5743 33.2978 44.3064 33.1683 44.0385 33.0389C43.7705 32.9094 43.5026 32.7929 43.2347 32.6635C42.9668 32.547 42.6861 32.4304 42.4182 32.3269C42.1375 32.2233 41.8696 32.1197 41.5889 32.0291C41.3083 31.9385 41.0276 31.8479 40.7469 31.7573C40.4662 31.6667 40.1856 31.589 39.8921 31.5243C39.6115 31.4466 39.318 31.3818 39.0246 31.3171C38.7311 31.2524 38.4505 31.2006 38.157 31.1488C37.8636 31.097 37.5702 31.0582 37.2767 31.0194C36.9833 30.9805 36.6899 30.9546 36.3964 30.9288C36.103 30.9029 35.8096 30.877 35.5161 30.864C35.2227 30.8511 34.9293 30.8381 34.6358 30.8381C34.3424 30.8381 34.049 30.8381 33.7555 30.8511C33.4621 30.864 33.1687 30.877 32.8752 30.8899C32.5818 30.9158 32.2884 30.9417 31.9949 30.9676C31.7015 31.0064 31.4081 31.0323 31.1146 31.0841C30.8212 31.1229 30.5278 31.1747 30.2471 31.2394C29.9537 31.2912 29.673 31.356 29.3796 31.4207C29.0989 31.4854 28.8054 31.5631 28.5248 31.6408C28.2441 31.7184 27.9634 31.8091 27.67 31.8997C27.3893 31.9903 27.1086 32.0809 26.828 32.1845C26.5473 32.288 26.2794 32.3916 25.9987 32.5081C25.7308 32.6246 25.4501 32.7411 25.1822 32.8576C24.9143 32.9742 24.6463 33.1036 24.3784 33.246C24.1105 33.3755 23.8553 33.5179 23.6002 33.6603C23.345 33.8027 23.0899 33.958 22.8347 34.1134C22.5796 34.2687 22.3372 34.4241 22.082 34.5924C21.8396 34.7606 21.5972 34.9289 21.3548 35.0972C21.1124 35.2655 20.8827 35.4468 20.6403 35.628C20.4107 35.8092 20.1811 36.0034 19.9514 36.1976C19.7218 36.3918 19.5049 36.586 19.288 36.7931C19.0711 37.0002 18.8542 37.1944 18.6501 37.4145C18.446 37.6216 18.2291 37.8417 18.0377 38.0618C17.8336 38.2818 17.6422 38.5019 17.4508 38.7349C17.2595 38.968 17.0681 39.188 16.8895 39.4211C16.7109 39.6541 16.5195 39.8871 16.3537 40.1331C16.175 40.379 16.0092 40.625 15.8433 40.871C15.6775 41.1169 15.5116 41.3758 15.3585 41.6218C15.2054 41.8807 15.0523 42.1396 14.912 42.3985C14.7717 42.6575 14.6313 42.9164 14.491 43.1882C14.3507 43.4601 14.2231 43.719 14.0955 43.9909C13.9679 44.2627 13.8531 44.5346 13.7383 44.8064C13.6235 45.0783 13.5214 45.3631 13.4066 45.6349C13.3045 45.9197 13.2024 46.1916 13.1131 46.4764C13.0238 46.7612 12.9345 47.046 12.858 47.3308C12.7814 47.6156 12.7049 47.9134 12.6283 48.1982C12.5518 48.483 12.488 48.7807 12.437 49.0785C12.4242 49.1691 12.3987 49.2727 12.3859 49.3633C12.3732 49.4539 12.3604 49.5575 12.3604 49.6481C12.3477 49.7387 12.3477 49.8423 12.3477 49.9329C12.3477 50.0235 12.3477 50.1271 12.3477 50.2177C12.3477 50.3083 12.3604 50.4119 12.3604 50.5025C12.3732 50.5931 12.3732 50.6967 12.3987 50.7873C12.4114 50.8779 12.4242 50.9815 12.4497 51.0721C12.4625 51.1627 12.488 51.2663 12.5135 51.3569C12.539 51.4475 12.5645 51.5381 12.5901 51.6417C12.6156 51.7323 12.6538 51.8229 12.6794 51.9136C12.7176 52.0042 12.7432 52.0948 12.7814 52.1854C12.8197 52.276 12.858 52.3667 12.909 52.4443C12.9473 52.5349 12.9983 52.6126 13.0493 52.7032C13.1004 52.7809 13.1514 52.8715 13.2024 52.9492C13.2535 53.0269 13.3045 53.1046 13.3683 53.1822C13.4193 53.2599 13.4831 53.3376 13.5469 53.4152C13.6107 53.4929 13.6745 53.5576 13.7383 53.6353C13.8021 53.713 13.8659 53.7777 13.9424 53.8425C14.0062 53.9072 14.0827 53.9719 14.1465 54.0366C14.2231 54.1014 14.2869 54.1661 14.3634 54.2179C14.44 54.2826 14.5165 54.3344 14.5931 54.3862C14.6696 54.4379 14.7462 54.4897 14.8355 54.5415C14.912 54.5933 15.0013 54.6451 15.0779 54.6839C15.1672 54.7357 15.2437 54.7745 15.333 54.8134C15.4223 54.8522 15.5116 54.891 15.5882 54.9299C15.6775 54.9687 15.7668 55.0076 15.8561 55.0334C15.9454 55.0723 16.0347 55.0982 16.124 55.1241C16.2133 55.15 16.3026 55.1758 16.4047 55.2017C16.494 55.2276 16.5961 55.2406 16.6854 55.2535C16.7747 55.2665 16.8767 55.2794 16.966 55.2924C17.0553 55.3053 17.1574 55.3182 17.2467 55.3182C17.336 55.3182 17.4381 55.3312 17.5274 55.3312H36.4602C36.5113 55.0852 36.5623 54.8263 36.6261 54.5803C36.6899 54.3344 36.7537 54.0884 36.8302 53.8425C36.9068 53.5965 36.9833 53.3635 37.0726 53.1175C37.1619 52.8845 37.2512 52.6385 37.3533 52.4055C37.4553 52.1725 37.5574 51.9394 37.6722 51.7064C37.7871 51.4734 37.9019 51.2533 38.0295 51.0333C38.157 50.8132 38.2846 50.5931 38.425 50.373C38.5653 50.153 38.7056 49.9458 38.846 49.7387C38.9863 49.5316 39.1394 49.3244 39.3053 49.1303C39.4584 48.9361 39.6242 48.7419 39.7901 48.5477C39.9049 48.4441 40.0835 48.25 40.2621 48.0687Z" fill="white"/>
<path d="M14.288 37.0519C15.0024 36.1716 15.7679 35.3301 16.5844 34.5534C16.3803 34.4369 16.1634 34.3333 15.9465 34.2297C15.7296 34.1262 15.5127 34.0355 15.2958 33.9449C15.079 33.8543 14.8493 33.7766 14.6324 33.7119C14.4155 33.6472 14.1859 33.5695 13.9563 33.5177C13.7266 33.4659 13.497 33.4142 13.2673 33.3753C13.0377 33.3365 12.7953 33.2977 12.5656 33.2718C12.336 33.2459 12.0936 33.2329 11.8639 33.22C11.6343 33.207 11.3919 33.207 11.1623 33.207C10.9199 33.207 10.6902 33.22 10.4606 33.2459C10.2309 33.2718 9.98853 33.2976 9.75888 33.3235C9.52924 33.3624 9.28684 33.4012 9.0572 33.453C8.82755 33.5048 8.59791 33.5566 8.36826 33.6213C8.13862 33.686 7.92174 33.7637 7.69209 33.8414C7.47521 33.919 7.24556 34.0097 7.02868 34.1003C6.81179 34.1909 6.59491 34.2945 6.39078 34.411C6.17389 34.5145 5.96977 34.631 5.76564 34.7605C5.56151 34.877 5.35738 35.0065 5.16601 35.1489C4.97464 35.2783 4.78327 35.4207 4.5919 35.5761C4.40054 35.7185 4.22192 35.8738 4.04331 36.0421C3.8647 36.1975 3.69885 36.3658 3.53299 36.534C3.36714 36.7023 3.20129 36.8836 3.04819 37.0648C2.89509 37.2461 2.742 37.4273 2.60166 37.6215C2.46132 37.8157 2.32099 38.0098 2.19341 38.204C2.06583 38.3982 1.93825 38.6053 1.82342 38.8125C1.7086 39.0196 1.59378 39.2267 1.49172 39.4468C1.38965 39.6669 1.28759 39.887 1.19828 40.107C1.10898 40.3271 1.03243 40.5472 0.955882 40.7802C0.879334 41.0132 0.815544 41.2333 0.751755 41.4663C0.687965 41.6993 0.636933 41.9324 0.598659 42.1654C0.547627 42.3984 0.509353 42.6314 0.483837 42.8774C0.458321 43.1104 0.432805 43.3564 0.420047 43.5894C0.407289 43.8224 0.394531 44.0684 0.394531 44.3014C0.394531 44.4179 0.407289 44.5344 0.432805 44.638C0.458321 44.7416 0.483837 44.8581 0.534869 44.9616C0.573143 45.0652 0.636933 45.1688 0.700723 45.2594C0.764512 45.35 0.84106 45.4406 0.917608 45.5183C0.994156 45.596 1.08346 45.6736 1.17277 45.7384C1.26207 45.8031 1.36414 45.8549 1.4662 45.9067C1.56826 45.9455 1.68309 45.9843 1.78515 46.0102C1.88721 46.0361 2.00204 46.0491 2.11686 46.0491H9.55476C9.88646 44.9616 10.282 43.8871 10.7412 42.8515C11.2005 41.8158 11.7364 40.8061 12.3232 39.8352C12.9229 38.8643 13.5735 37.9322 14.288 37.0519Z" fill="white"/>
<path d="M68.3314 43.5765C68.3186 43.3434 68.2931 43.0975 68.2676 42.8644C68.2421 42.6314 68.2038 42.3855 68.1528 42.1524C68.1018 41.9194 68.0507 41.6864 67.9869 41.4534C67.9232 41.2204 67.8594 40.9873 67.7828 40.7673C67.7063 40.5342 67.6297 40.3142 67.5404 40.0941C67.4511 39.874 67.349 39.6539 67.247 39.4339C67.1449 39.2138 67.0301 39.0067 66.9153 38.7995C66.8005 38.5924 66.6729 38.3853 66.5453 38.1911C66.4177 37.9969 66.2774 37.7898 66.137 37.6085C65.9967 37.4144 65.8436 37.2331 65.6905 37.0519C65.5374 36.8706 65.3716 36.6894 65.2057 36.5211C65.0399 36.3528 64.874 36.1845 64.6954 36.0292C64.5168 35.8738 64.3382 35.7185 64.1468 35.5631C63.9554 35.4207 63.7768 35.2783 63.5727 35.1359C63.3813 35.0065 63.1772 34.877 62.9731 34.7476C62.7689 34.6311 62.5648 34.5145 62.3479 34.398C62.1438 34.2945 61.9269 34.1909 61.71 34.0873C61.4931 33.9967 61.2762 33.9061 61.0466 33.8284C60.8297 33.7508 60.6001 33.6731 60.3704 33.6084C60.1408 33.5436 59.9111 33.4789 59.6815 33.4401C59.4519 33.3883 59.2222 33.3494 58.9798 33.3106C58.7502 33.2718 58.5078 33.2459 58.2781 33.2329C58.0485 33.207 57.8061 33.207 57.5764 33.1941C57.334 33.1941 57.1044 33.1941 56.8747 33.207C56.6451 33.22 56.4027 33.2329 56.1731 33.2588C55.9434 33.2847 55.701 33.3235 55.4714 33.3624C55.2417 33.4012 55.0121 33.453 54.7824 33.5048C54.5528 33.5566 54.3232 33.6213 54.1063 33.699C53.8766 33.7766 53.6597 33.8543 53.4429 33.932C53.226 34.0226 53.0091 34.1132 52.7922 34.2168C52.5753 34.3204 52.3712 34.4239 52.1543 34.5404C53.4046 35.7314 54.5145 37.0389 55.5096 38.45C56.5048 39.8611 57.334 41.3628 58.0357 42.9551L59.4008 46.0361H66.6346C66.7494 46.0361 66.8642 46.0232 66.9663 45.9973C67.0811 45.9714 67.1832 45.9455 67.2853 45.8937C67.3873 45.8549 67.4894 45.7902 67.5787 45.7254C67.668 45.6607 67.7573 45.583 67.8338 45.5053C67.9104 45.4277 67.9869 45.3371 68.0507 45.2464C68.1145 45.1558 68.1656 45.0523 68.2166 44.9487C68.2549 44.8451 68.2931 44.7286 68.3187 44.6251C68.3442 44.5085 68.3569 44.405 68.3569 44.2885C68.3569 44.0554 68.3442 43.8095 68.3314 43.5765Z" fill="white"/>
</svg>
