<svg width="73" height="73" viewBox="0 0 73 73" fill="none" xmlns="http://www.w3.org/2000/svg">
<g clip-path="url(#clip0_1268_466)">
<path d="M65.4261 59.9752C65.4124 59.7835 65.385 59.5917 65.3576 59.4C65.3302 59.2083 65.3029 59.0165 65.2618 58.8385C65.2207 58.6467 65.1796 58.4687 65.1385 58.2769C65.0974 58.0852 65.0426 57.9071 64.9878 57.7154C64.9331 57.5373 64.8646 57.3456 64.8098 57.1675C64.7413 56.9895 64.6728 56.8114 64.6044 56.6334C64.5359 56.4553 64.4537 56.2773 64.3715 56.1129C64.2893 55.9349 64.2072 55.7705 64.1113 55.5925C64.0154 55.4281 63.9196 55.2501 63.8237 55.0857C63.7278 54.9214 63.6182 54.757 63.5087 54.5927C63.3991 54.4283 63.2895 54.2777 63.18 54.127C63.0704 53.9764 62.9471 53.8257 62.8239 53.675C62.7006 53.5244 62.5773 53.3874 62.4404 53.2368C62.3171 53.0998 62.1802 52.9492 62.0432 52.8259C61.9062 52.6889 61.7693 52.552 61.6323 52.4287C61.4954 52.3054 61.3447 52.1685 61.194 52.0452C61.0434 51.922 60.8927 51.7987 60.7421 51.6891C60.5914 51.5796 60.4271 51.47 60.2764 51.3604C60.112 51.2508 59.9477 51.155 59.7833 51.0454C59.619 50.9495 59.4546 50.8537 59.2766 50.7578C59.1122 50.6619 58.9342 50.5797 58.7561 50.4976C58.5781 50.4154 58.4 50.3332 58.2357 50.2647C58.0576 50.1963 57.8796 50.1278 57.7015 50.0593C57.5235 49.9908 57.3317 49.936 57.1537 49.8812C56.9756 49.8265 56.7839 49.7717 56.5922 49.7306C56.4004 49.6895 56.2224 49.6484 56.0306 49.6073C55.8389 49.5662 55.6471 49.5388 55.4691 49.5114C55.2773 49.4841 55.0856 49.4567 54.8938 49.443C54.7021 49.4293 54.5104 49.4156 54.3186 49.4019C54.1269 49.3882 53.9351 49.3882 53.7434 49.3882C53.5516 49.3882 53.3599 49.3882 53.1681 49.4019C52.9764 49.4156 52.7847 49.4293 52.5929 49.443C52.4012 49.4567 52.2094 49.4841 52.0177 49.5114C51.8259 49.5388 51.6342 49.5662 51.4561 49.6073C51.2644 49.6484 51.0863 49.6895 50.8946 49.7306C50.7029 49.7717 50.5248 49.8265 50.3331 49.8812C50.155 49.936 49.9633 49.9908 49.7852 50.0593C49.6072 50.1278 49.4291 50.1963 49.2511 50.2647C49.073 50.3332 48.895 50.4154 48.7306 50.4976C48.5526 50.5797 48.3882 50.6619 48.2102 50.7578C48.0458 50.8537 47.8678 50.9495 47.7034 51.0454C47.5391 51.1413 47.3747 51.2508 47.2104 51.3467C47.046 51.4563 46.8953 51.5659 46.7447 51.6754C46.594 51.785 46.4434 51.9083 46.2927 52.0315C46.1421 52.1548 46.0051 52.2781 45.8544 52.415C45.7175 52.5383 45.5668 52.6752 45.4299 52.8122C45.2929 52.9492 45.1559 53.0861 45.0327 53.2231C44.9094 53.36 44.7725 53.5107 44.6629 53.6614C44.5396 53.812 44.4164 53.9627 44.3068 54.1133C44.1972 54.264 44.0877 54.4283 43.9781 54.579C43.8685 54.7433 43.7726 54.9077 43.6631 55.072C43.5672 55.2364 43.4713 55.4008 43.3755 55.5788C43.2796 55.7432 43.1974 55.9212 43.1152 56.0993C43.0331 56.2773 42.9509 56.4553 42.8824 56.6197C42.8139 56.7978 42.7454 56.9758 42.677 57.1538C42.6085 57.3319 42.5537 57.5236 42.4989 57.7017C42.4441 57.8797 42.3893 58.0715 42.3483 58.2632C42.3072 58.455 42.2661 58.633 42.225 58.8248C42.1839 59.0165 42.1565 59.2083 42.1291 59.3863C42.1017 59.5781 42.0743 59.7698 42.0606 59.9615C42.0469 60.1533 42.0332 60.345 42.0196 60.5368C42.0059 60.7285 42.0059 60.9203 42.0059 61.112C42.0059 61.3038 42.0059 61.4955 42.0196 61.6872C42.0332 61.879 42.0469 62.0707 42.0606 62.2625C42.0743 62.4542 42.1017 62.646 42.1291 62.8377C42.1565 63.0295 42.1839 63.2212 42.225 63.3993C42.2661 63.591 42.3072 63.769 42.3483 63.9608C42.3893 64.1525 42.4441 64.3306 42.4989 64.5223C42.5537 64.7004 42.6085 64.8921 42.677 65.0702C42.7454 65.2482 42.8139 65.4263 42.8824 65.6043C42.9509 65.7824 43.0331 65.9604 43.1152 66.1248C43.1974 66.3028 43.2796 66.4672 43.3755 66.6452C43.4713 66.8096 43.5672 66.9876 43.6631 67.152C43.759 67.3163 43.8685 67.4807 43.9781 67.645C44.0877 67.8094 44.1972 67.96 44.3068 68.1107C44.4164 68.2614 44.5396 68.412 44.6629 68.5627C44.7862 68.7133 44.9094 68.8503 45.0327 69.0009C45.1559 69.1379 45.2929 69.2886 45.4299 69.4118C45.5668 69.5488 45.7038 69.6857 45.8544 69.809C45.9914 69.9323 46.1421 70.0692 46.2927 70.1925C46.4434 70.3158 46.594 70.439 46.7447 70.5486C46.8953 70.6582 47.0597 70.7677 47.2104 70.8773C47.3747 70.9869 47.5391 71.0827 47.7034 71.1923C47.8678 71.2882 48.0321 71.3841 48.2102 71.4799C48.3882 71.5758 48.5526 71.658 48.7306 71.7402C48.9087 71.8223 49.0867 71.9045 49.2511 71.973C49.4291 72.0415 49.6072 72.1099 49.7852 72.1784C49.9633 72.2469 50.155 72.3017 50.3331 72.3565C50.5111 72.4113 50.7029 72.466 50.8946 72.5071C51.0863 72.5482 51.2644 72.5893 51.4561 72.6304C51.6479 72.6715 51.8396 72.6989 52.0177 72.7263C52.2094 72.7537 52.4012 72.7811 52.5929 72.7947C52.7847 72.8084 52.9764 72.8221 53.1681 72.8358C53.3599 72.8495 53.5516 72.8495 53.7434 72.8495C53.9351 72.8495 54.1269 72.8495 54.3186 72.8358C54.5104 72.8221 54.7021 72.8084 54.8938 72.7947C55.0856 72.7811 55.2773 72.7537 55.4691 72.7263C55.6608 72.6989 55.8526 72.6715 56.0306 72.6304C56.2224 72.5893 56.4004 72.5482 56.5922 72.5071C56.7839 72.466 56.962 72.4113 57.1537 72.3565C57.3317 72.3017 57.5235 72.2469 57.7015 72.1784C57.8796 72.1099 58.0576 72.0415 58.2357 71.973C58.4137 71.9045 58.5918 71.8223 58.7561 71.7402C58.9342 71.658 59.0985 71.5758 59.2766 71.4799C59.4409 71.3841 59.619 71.2882 59.7833 71.1923C59.9477 71.0964 60.112 70.9869 60.2764 70.8773C60.4408 70.7677 60.5914 70.6582 60.7421 70.5486C60.8927 70.439 61.0434 70.3158 61.194 70.1925C61.3447 70.0692 61.4817 69.946 61.6323 69.809C61.7693 69.6857 61.9199 69.5488 62.0432 69.4118C62.1802 69.2749 62.3171 69.1379 62.4404 69.0009C62.5636 68.864 62.7006 68.7133 62.8239 68.5627C62.9471 68.412 63.0704 68.2614 63.18 68.1107C63.2895 67.96 63.3991 67.7957 63.5087 67.645C63.6182 67.4807 63.7141 67.3163 63.8237 67.152C63.9196 66.9876 64.0154 66.8233 64.1113 66.6452C64.2072 66.4809 64.2893 66.3028 64.3715 66.1248C64.4537 65.9467 64.5359 65.7824 64.6044 65.6043C64.6728 65.4263 64.7413 65.2482 64.8098 65.0702C64.8783 64.8921 64.9331 64.7004 64.9878 64.5223C65.0426 64.3443 65.0974 64.1525 65.1385 63.9608C65.1796 63.769 65.2207 63.591 65.2618 63.3993C65.3029 63.2075 65.3302 63.0158 65.3576 62.8377C65.385 62.646 65.4124 62.4542 65.4261 62.2625C65.4398 62.0707 65.4535 61.879 65.4672 61.6872C65.4809 61.4955 65.4809 61.3038 65.4809 61.112C65.4809 60.9203 65.4809 60.7285 65.4672 60.5368C65.4535 60.3587 65.4398 60.167 65.4261 59.9752ZM60.5229 61.3038C60.5229 61.3585 60.5092 61.427 60.4955 61.4818C60.4818 61.5366 60.4681 61.6051 60.4544 61.6599C60.4408 61.7146 60.4134 61.7694 60.3997 61.8379C60.3723 61.8927 60.3449 61.9475 60.3175 62.0023C60.2901 62.057 60.2627 62.1118 60.2216 62.1529C60.1942 62.2077 60.1531 62.2488 60.112 62.3036C60.071 62.3447 60.0299 62.3994 59.9888 62.4405C59.9477 62.4816 59.9066 62.5227 59.8518 62.5638C59.8107 62.6049 59.756 62.6323 59.7012 62.6734C59.6464 62.7008 59.5916 62.7418 59.5505 62.7692C59.4957 62.7966 59.4409 62.824 59.3862 62.8514C59.3314 62.8788 59.2766 62.8925 59.2081 62.9062C59.1533 62.9199 59.0848 62.9336 59.0301 62.9473C58.9753 62.961 58.9068 62.9747 58.852 62.9747C58.7972 62.9747 58.7287 62.9884 58.674 62.9884H55.5787V66.0837C55.5787 66.1385 55.5787 66.2069 55.565 66.2617C55.565 66.3165 55.5513 66.385 55.5376 66.4398C55.5239 66.4946 55.5102 66.563 55.4965 66.6178C55.4828 66.6726 55.4554 66.7274 55.4417 66.7959C55.4143 66.8507 55.3869 66.9054 55.3595 66.9602C55.3321 67.015 55.3047 67.0698 55.2636 67.1109C55.2363 67.1657 55.1952 67.2068 55.1541 67.2615C55.113 67.3026 55.0719 67.3574 55.0308 67.3985C54.9897 67.4396 54.9486 67.4807 54.8938 67.5218C54.8528 67.5629 54.798 67.5902 54.7432 67.6313C54.6884 67.6587 54.6473 67.6998 54.5925 67.7272C54.5378 67.7546 54.483 67.782 54.4282 67.8094C54.3734 67.8368 54.3186 67.8505 54.2501 67.8642C54.1954 67.8779 54.1269 67.8916 54.0721 67.9053C54.0173 67.9189 53.9488 67.9326 53.894 67.9326C53.8393 67.9326 53.7708 67.9463 53.716 67.9463C53.6612 67.9463 53.5927 67.9463 53.5379 67.9326C53.4832 67.9326 53.4147 67.9189 53.3599 67.9053C53.3051 67.8916 53.2366 67.8779 53.1818 67.8642C53.1271 67.8505 53.0723 67.8231 53.0038 67.8094C52.949 67.782 52.8942 67.7546 52.8394 67.7272C52.7847 67.6998 52.7299 67.6724 52.6888 67.6313C52.634 67.6039 52.5929 67.5629 52.5381 67.5218C52.497 67.4807 52.4423 67.4396 52.4012 67.3985C52.3601 67.3574 52.319 67.3163 52.2779 67.2615C52.2368 67.2205 52.2094 67.1657 52.1683 67.1109C52.1409 67.0561 52.0999 67.0013 52.0725 66.9602C52.0451 66.9054 52.0177 66.8507 51.9903 66.7959C51.9629 66.7411 51.9492 66.6863 51.9355 66.6178C51.9218 66.563 51.9081 66.4946 51.8944 66.4398C51.8807 66.385 51.867 66.3165 51.867 66.2617C51.867 66.2069 51.8533 66.1385 51.8533 66.0837V62.9884H48.758C48.7032 62.9884 48.6348 62.9884 48.58 62.9747C48.5252 62.9747 48.4567 62.961 48.4019 62.9473C48.3471 62.9336 48.2787 62.9199 48.2239 62.9062C48.1691 62.8925 48.1143 62.8651 48.0458 62.8514C47.991 62.824 47.9363 62.7966 47.8815 62.7692C47.8267 62.7418 47.7719 62.7144 47.7308 62.6734C47.676 62.646 47.6349 62.6049 47.5802 62.5638C47.5391 62.5227 47.4843 62.4816 47.4432 62.4405C47.4021 62.3994 47.361 62.3584 47.3199 62.3036C47.2788 62.2625 47.2515 62.2077 47.2104 62.1529C47.183 62.0981 47.1419 62.057 47.1145 62.0023C47.0871 61.9475 47.0597 61.8927 47.0323 61.8379C47.0049 61.7831 46.9912 61.7283 46.9775 61.6599C46.9638 61.6051 46.9501 61.5366 46.9364 61.4818C46.9227 61.427 46.909 61.3585 46.909 61.3038C46.909 61.249 46.8954 61.1805 46.8954 61.1257C46.8954 61.0709 46.8954 61.0024 46.909 60.9477C46.909 60.8929 46.9227 60.8244 46.9364 60.7696C46.9501 60.7148 46.9638 60.6463 46.9775 60.5916C46.9912 60.5368 47.0186 60.482 47.0323 60.4135C47.0597 60.3587 47.0871 60.3039 47.1145 60.2492C47.1419 60.1944 47.1693 60.1396 47.2104 60.0985C47.2378 60.0437 47.2788 60.0026 47.3199 59.9478C47.361 59.9068 47.4021 59.852 47.4432 59.8109C47.4843 59.7698 47.5254 59.7287 47.5802 59.6876C47.6212 59.6465 47.676 59.6191 47.7308 59.5781C47.7856 59.5507 47.8267 59.5096 47.8815 59.4822C47.9363 59.4548 47.991 59.4274 48.0458 59.4C48.1006 59.3726 48.1554 59.3589 48.2239 59.3452C48.2787 59.3315 48.3471 59.3178 48.4019 59.3041C48.4567 59.2904 48.5252 59.2767 48.58 59.2767C48.6348 59.2767 48.7032 59.263 48.758 59.263H51.8533V56.1677C51.8533 56.1129 51.8533 56.0445 51.867 55.9897C51.867 55.9349 51.8807 55.8664 51.8944 55.8116C51.9081 55.7569 51.9218 55.6884 51.9355 55.6336C51.9492 55.5788 51.9766 55.524 51.9903 55.4555C52.0177 55.4008 52.0451 55.346 52.0725 55.2912C52.0999 55.2364 52.1272 55.1816 52.1683 55.1405C52.1957 55.0857 52.2368 55.0447 52.2779 54.9899C52.319 54.9488 52.3601 54.894 52.4012 54.8529C52.4423 54.8118 52.4833 54.7707 52.5381 54.7296C52.5792 54.6886 52.634 54.6612 52.6888 54.6201C52.7436 54.5927 52.7984 54.5516 52.8394 54.5242C52.8942 54.4968 52.949 54.4694 53.0038 54.442C53.0586 54.4146 53.1134 54.4009 53.1818 54.3872C53.2366 54.3735 53.3051 54.3599 53.3599 54.3462C53.4147 54.3325 53.4832 54.3188 53.5379 54.3188C53.5927 54.3188 53.6612 54.3051 53.716 54.3051C53.7708 54.3051 53.8393 54.3051 53.894 54.3188C53.9488 54.3188 54.0173 54.3325 54.0721 54.3462C54.1269 54.3599 54.1954 54.3735 54.2501 54.3872C54.3049 54.4009 54.3597 54.4283 54.4282 54.442C54.483 54.4694 54.5378 54.4968 54.5925 54.5242C54.6473 54.5516 54.7021 54.579 54.7432 54.6201C54.798 54.6475 54.8391 54.6886 54.8938 54.7296C54.9349 54.7707 54.9897 54.8118 55.0308 54.8529C55.0719 54.894 55.113 54.9351 55.1541 54.9899C55.1952 55.031 55.2226 55.0857 55.2636 55.1405C55.291 55.1953 55.3321 55.2364 55.3595 55.2912C55.3869 55.346 55.4143 55.4008 55.4417 55.4555C55.4691 55.5103 55.4828 55.5651 55.4965 55.6336C55.5102 55.6884 55.5239 55.7569 55.5376 55.8116C55.5513 55.8664 55.565 55.9349 55.565 55.9897C55.565 56.0445 55.5787 56.1129 55.5787 56.1677V59.263H58.674C58.7287 59.263 58.7972 59.263 58.852 59.2767C58.9068 59.2767 58.9753 59.2904 59.0301 59.3041C59.0848 59.3178 59.1533 59.3315 59.2081 59.3452C59.2629 59.3589 59.3177 59.3863 59.3862 59.4C59.4409 59.4274 59.4957 59.4548 59.5505 59.4822C59.6053 59.5096 59.6601 59.537 59.7012 59.5781C59.756 59.6054 59.797 59.6465 59.8518 59.6876C59.8929 59.7287 59.9477 59.7698 59.9888 59.8109C60.0299 59.852 60.071 59.8931 60.112 59.9478C60.1531 59.9889 60.1805 60.0437 60.2216 60.0985C60.249 60.1533 60.2901 60.2081 60.3175 60.2492C60.3449 60.3039 60.3723 60.3587 60.3997 60.4135C60.4271 60.4683 60.4408 60.5231 60.4544 60.5916C60.4681 60.6463 60.4818 60.7148 60.4955 60.7696C60.5092 60.8244 60.5229 60.8929 60.5229 60.9477C60.5229 61.0024 60.5366 61.0709 60.5366 61.1257C60.5366 61.1805 60.5366 61.249 60.5229 61.3038Z" fill="white"/>
<path d="M22.2697 15.5315C22.297 15.7643 22.3244 15.9972 22.3518 16.23C22.3929 16.4628 22.4203 16.6957 22.4751 16.9148C22.5162 17.1476 22.571 17.3668 22.6257 17.5996C22.6805 17.8187 22.749 18.0516 22.8175 18.2707C22.886 18.4898 22.9545 18.709 23.0366 18.9281C23.1188 19.1473 23.201 19.3664 23.2832 19.5855C23.3653 19.8047 23.4612 20.0101 23.5708 20.2292C23.6667 20.4347 23.7762 20.6538 23.8858 20.8593C23.9954 21.0647 24.1049 21.2701 24.2282 21.4619C24.3515 21.6673 24.4747 21.8591 24.598 22.0508C24.7212 22.2426 24.8582 22.4343 24.9952 22.6261C25.1321 22.8178 25.2828 22.9959 25.4197 23.1739C25.5704 23.352 25.7211 23.53 25.8717 23.708C26.0224 23.8861 26.1867 24.0504 26.3511 24.2148C26.5154 24.3792 26.6798 24.5435 26.8578 24.6942C27.0359 24.8448 27.2002 24.9955 27.392 25.1461C27.57 25.2968 27.7618 25.4338 27.9398 25.5707C28.1316 25.7077 28.3233 25.8446 28.5151 25.9679C28.7068 26.0912 28.8985 26.2281 29.104 26.3377C29.3094 26.461 29.5012 26.5705 29.7066 26.6801C29.9121 26.7897 30.1175 26.8992 30.3229 26.9951C30.5284 27.091 30.7475 27.1868 30.9667 27.2827C31.1858 27.3649 31.4049 27.4608 31.6241 27.5292C31.8432 27.6114 32.0623 27.6799 32.2815 27.7484C32.5006 27.8169 32.7334 27.8717 32.9526 27.9401C33.1854 27.9949 33.4045 28.0497 33.6374 28.0908C33.8702 28.1319 34.0894 28.173 34.3222 28.2141C34.555 28.2551 34.7878 28.2825 35.0207 28.2962C35.2535 28.3236 35.4863 28.3373 35.7192 28.351C35.952 28.3647 36.1848 28.3647 36.4177 28.3647C36.6505 28.3647 36.8833 28.3647 37.1162 28.351C37.349 28.3373 37.5818 28.3236 37.8147 28.2962C38.0475 28.2688 38.2803 28.2414 38.5132 28.2141C38.746 28.1867 38.9788 28.1456 39.198 28.0908C39.4308 28.0497 39.65 27.9949 39.8828 27.9401C40.1156 27.8853 40.3348 27.8169 40.5539 27.7484C40.773 27.6799 40.9922 27.6114 41.2113 27.5292C41.4304 27.4471 41.6496 27.3649 41.8687 27.2827C42.0879 27.1868 42.2933 27.1047 42.5124 26.9951C42.7179 26.8992 42.937 26.7897 43.1424 26.6801C43.3479 26.5705 43.5533 26.461 43.7451 26.3377C43.9505 26.2144 44.1423 26.0912 44.334 25.9679C44.5257 25.8446 44.7175 25.7077 44.9092 25.5707C45.101 25.4338 45.279 25.2831 45.4571 25.1461C45.6351 24.9955 45.8132 24.8448 45.9912 24.6942C46.1693 24.5435 46.3336 24.3792 46.498 24.2148C46.6623 24.0504 46.8267 23.8861 46.9773 23.708C47.128 23.53 47.2787 23.3656 47.4293 23.1739C47.58 22.9959 47.7169 22.8041 47.8539 22.6261C47.9909 22.4343 48.1278 22.2426 48.2511 22.0508C48.3743 21.8591 48.5113 21.6673 48.6209 21.4619C48.7441 21.2565 48.8537 21.0647 48.9633 20.8593C49.0728 20.6538 49.1824 20.4484 49.2783 20.2292C49.3742 20.0238 49.47 19.8047 49.5659 19.5855C49.6481 19.3664 49.7439 19.1473 49.8124 18.9281C49.8946 18.709 49.9631 18.4898 50.0316 18.2707C50.1 18.0516 50.1548 17.8187 50.2233 17.5996C50.2781 17.3805 50.3329 17.1476 50.374 16.9148C50.4151 16.682 50.4561 16.4628 50.4972 16.23C50.5246 15.9972 50.5657 15.7643 50.5794 15.5315C50.6068 15.2987 50.6205 15.0658 50.6342 14.833C50.6479 14.6002 50.6479 14.3673 50.6479 14.1345C50.6479 13.9017 50.6479 13.6688 50.6342 13.436C50.6205 13.2032 50.6068 12.9703 50.5794 12.7375C50.552 12.5047 50.5246 12.2718 50.4972 12.039C50.4698 11.8062 50.4287 11.5733 50.374 11.3542C50.3329 11.1214 50.2781 10.9022 50.2233 10.6694C50.1685 10.4503 50.1 10.2174 50.0316 9.99829C49.9631 9.77916 49.8946 9.56002 49.8124 9.34088C49.7303 9.12174 49.6481 8.90261 49.5659 8.68347C49.4837 8.46433 49.3878 8.25889 49.2783 8.03976C49.1824 7.83432 49.0728 7.61518 48.9633 7.40974C48.8537 7.2043 48.7441 6.99886 48.6209 6.80711C48.4976 6.60167 48.3743 6.40993 48.2511 6.21818C48.1278 6.02644 47.9909 5.83469 47.8539 5.64295C47.7169 5.4512 47.5663 5.27315 47.4293 5.0951C47.2787 4.91705 47.128 4.73901 46.9773 4.56096C46.8267 4.38291 46.6623 4.21856 46.498 4.0542C46.3336 3.88985 46.1693 3.7255 45.9912 3.57484C45.8132 3.42418 45.6488 3.25983 45.4571 3.12287C45.279 2.97221 45.0873 2.83525 44.9092 2.69829C44.7175 2.56133 44.5257 2.42437 44.334 2.30111C44.1423 2.17784 43.9505 2.04088 43.7451 1.93131C43.5396 1.80805 43.3479 1.69848 43.1424 1.58891C42.937 1.47934 42.7316 1.36978 42.5124 1.2739C42.307 1.17803 42.0879 1.08216 41.8687 0.986286C41.6496 0.904109 41.4304 0.808237 41.2113 0.739756C40.9922 0.65758 40.773 0.5891 40.5539 0.52062C40.3348 0.452139 40.1019 0.397355 39.8828 0.328875C39.6636 0.274091 39.4308 0.219306 39.198 0.178218C38.9651 0.13713 38.746 0.0960417 38.5132 0.0549535C38.2803 0.0138654 38.0475 -0.0135268 37.8147 -0.0272228C37.5818 -0.0546149 37.349 -0.068311 37.1162 -0.0820071C36.8833 -0.0957031 36.6505 -0.0957031 36.4177 -0.0957031C36.1848 -0.0957031 35.952 -0.0957031 35.7192 -0.0820071C35.4863 -0.068311 35.2535 -0.0546149 35.0207 -0.0272228C34.7878 0.000169293 34.555 0.0275614 34.3222 0.0549535C34.0894 0.0823457 33.8565 0.123434 33.6374 0.178218C33.4045 0.219306 33.1854 0.274091 32.9526 0.328875C32.7334 0.383659 32.5006 0.452139 32.2815 0.52062C32.0623 0.5891 31.8432 0.65758 31.6241 0.739756C31.4049 0.821933 31.1858 0.904109 30.9667 0.986286C30.7475 1.08216 30.5421 1.16433 30.3229 1.2739C30.1175 1.36978 29.8984 1.47934 29.7066 1.58891C29.5012 1.69848 29.2957 1.80805 29.104 1.93131C28.8985 2.05458 28.7068 2.17784 28.5151 2.30111C28.3233 2.42437 28.1316 2.56133 27.9398 2.69829C27.7481 2.83525 27.57 2.98591 27.392 3.12287C27.2139 3.27353 27.0359 3.42418 26.8578 3.57484C26.6798 3.7255 26.5154 3.88985 26.3511 4.0542C26.1867 4.21856 26.0224 4.38291 25.8717 4.56096C25.7211 4.73901 25.5704 4.90336 25.4197 5.0951C25.2691 5.27315 25.1321 5.4649 24.9952 5.64295C24.8582 5.83469 24.7212 6.02644 24.598 6.21818C24.4747 6.40993 24.3378 6.60167 24.2282 6.80711C24.1049 7.01255 23.9954 7.2043 23.8858 7.40974C23.7762 7.61518 23.6667 7.82062 23.5708 8.03976C23.4749 8.2452 23.379 8.46433 23.2832 8.68347C23.1873 8.90261 23.1051 9.12174 23.0366 9.34088C22.9545 9.56002 22.886 9.77916 22.8175 9.99829C22.749 10.2174 22.6942 10.4503 22.6257 10.6694C22.571 10.8885 22.5162 11.1214 22.4751 11.3542C22.434 11.587 22.3929 11.8062 22.3518 12.039C22.3244 12.2718 22.2833 12.5047 22.2697 12.7375C22.2423 12.9703 22.2286 13.2032 22.2149 13.436C22.2012 13.6688 22.2012 13.9017 22.2012 14.1345C22.2012 14.3673 22.2012 14.6002 22.2149 14.833C22.2286 15.0658 22.2423 15.2987 22.2697 15.5315Z" fill="white"/>
<path d="M2.46492 22.4618C2.47861 22.6124 2.49231 22.7631 2.5197 22.9137C2.54709 23.0644 2.56079 23.2151 2.60188 23.3657C2.62927 23.5164 2.67036 23.667 2.69775 23.804C2.73884 23.9546 2.77993 24.0916 2.82101 24.2423C2.8621 24.3929 2.91689 24.5299 2.95797 24.6805C3.01276 24.8175 3.06754 24.9681 3.12233 25.1051C3.17711 25.2421 3.24559 25.379 3.30038 25.516C3.36886 25.653 3.43734 25.7899 3.50582 25.9269C3.5743 26.0638 3.65647 26.1871 3.72495 26.3241C3.80713 26.4473 3.88931 26.5843 3.97148 26.7075C4.05366 26.8308 4.14953 26.9541 4.23171 27.0773C4.32758 27.2006 4.40976 27.3239 4.50563 27.4334C4.6015 27.5567 4.69737 27.6663 4.80694 27.7758C4.90281 27.8854 5.01238 27.995 5.12195 28.1045C5.23152 28.2141 5.34109 28.31 5.45066 28.4196C5.56023 28.5154 5.68349 28.625 5.79306 28.7209C5.91632 28.8167 6.02589 28.9126 6.14916 28.9948C6.27242 29.0907 6.39569 29.1728 6.51895 29.255C6.64221 29.3372 6.77918 29.4194 6.90244 29.5015C7.0257 29.5837 7.16266 29.6522 7.29963 29.7207C7.43659 29.7892 7.57355 29.8576 7.71051 29.9261C7.84747 29.9946 7.98443 30.0494 8.12139 30.1042C8.25835 30.159 8.40901 30.2137 8.54597 30.2685C8.68293 30.3233 8.83358 30.3644 8.98424 30.4055C9.1349 30.4466 9.27186 30.4877 9.42251 30.5287C9.57317 30.5698 9.72383 30.5972 9.86079 30.6246C10.0114 30.652 10.1621 30.6794 10.3128 30.7068C10.4634 30.7342 10.6141 30.7479 10.7647 30.7616C10.9154 30.7753 11.066 30.789 11.2167 30.789C11.3674 30.8027 11.518 30.8027 11.6687 30.8027C11.8193 30.8027 11.97 30.8027 12.1206 30.789C12.2713 30.7753 12.422 30.7753 12.5726 30.7616C12.7233 30.7479 12.8739 30.7342 13.0246 30.7068C13.1752 30.6794 13.3259 30.652 13.4765 30.6246C13.6272 30.5972 13.7779 30.5561 13.9148 30.5287C14.0655 30.4877 14.2024 30.4466 14.3531 30.4055C14.5038 30.3644 14.6407 30.3096 14.7914 30.2685C14.9283 30.2137 15.079 30.159 15.2159 30.1042C15.3529 30.0494 15.4899 29.9809 15.6268 29.9261C15.7638 29.8576 15.9007 29.7892 16.0377 29.7207C16.1747 29.6522 16.2979 29.57 16.4349 29.5015C16.5582 29.4194 16.6951 29.3372 16.8184 29.255C16.9417 29.1728 17.0649 29.077 17.1882 28.9948C17.3114 28.8989 17.4347 28.8167 17.5443 28.7209C17.6675 28.625 17.7771 28.5291 17.8867 28.4196C17.9962 28.3237 18.1058 28.2141 18.2154 28.1045C18.325 27.995 18.4208 27.8854 18.5304 27.7758C18.6263 27.6663 18.7358 27.543 18.8317 27.4334C18.9276 27.3102 19.0235 27.2006 19.1056 27.0773C19.2015 26.9541 19.2837 26.8308 19.3659 26.7075C19.448 26.5843 19.5302 26.4473 19.6124 26.3241C19.6946 26.1871 19.763 26.0638 19.8315 25.9269C19.9 25.7899 19.9685 25.653 20.037 25.516C20.1054 25.379 20.1602 25.2421 20.215 25.1051C20.2698 24.9681 20.3246 24.8175 20.3794 24.6805C20.4341 24.5436 20.4752 24.3929 20.5163 24.2423C20.5574 24.0916 20.5985 23.9546 20.6396 23.804C20.6807 23.6533 20.7081 23.5027 20.7355 23.3657C20.7629 23.2151 20.7902 23.0644 20.8176 22.9137C20.845 22.7631 20.8587 22.6124 20.8724 22.4618C20.8861 22.3111 20.8998 22.1605 20.8998 22.0098C20.9135 21.8591 20.9135 21.7085 20.9135 21.5578C20.9135 21.4072 20.9135 21.2565 20.8998 21.1059C20.8861 20.9552 20.8861 20.8045 20.8724 20.6539C20.8587 20.5032 20.845 20.3526 20.8176 20.2019C20.7902 20.0513 20.7629 19.9006 20.7355 19.7499C20.7081 19.5993 20.667 19.4486 20.6396 19.3117C20.5985 19.161 20.5574 19.0241 20.5163 18.8734C20.4752 18.7227 20.4205 18.5858 20.3794 18.4351C20.3246 18.2982 20.2698 18.1475 20.215 18.0105C20.1602 17.8736 20.0917 17.7366 20.037 17.5997C19.9685 17.4627 19.9 17.3257 19.8315 17.1888C19.763 17.0518 19.6809 16.9286 19.6124 16.7916C19.5302 16.6546 19.448 16.5314 19.3659 16.4081C19.2837 16.2848 19.1878 16.1616 19.1056 16.0383C19.0098 15.9151 18.9276 15.7918 18.8317 15.6822C18.7358 15.559 18.64 15.4494 18.5304 15.3398C18.4345 15.2302 18.325 15.1207 18.2154 15.0111C18.1058 14.9015 17.9962 14.8057 17.8867 14.6961C17.7771 14.6002 17.6538 14.4907 17.5443 14.3948C17.421 14.2989 17.3114 14.203 17.1882 14.1209C17.0649 14.025 16.9417 13.9428 16.8184 13.8606C16.6951 13.7785 16.5582 13.6963 16.4349 13.6141C16.2979 13.5319 16.1747 13.4635 16.0377 13.395C15.9007 13.3265 15.7638 13.258 15.6268 13.1895C15.4899 13.1211 15.3529 13.0663 15.2159 13.0115C15.079 12.9567 14.9283 12.9019 14.7914 12.8471C14.6544 12.7924 14.5038 12.7513 14.3531 12.7102C14.2024 12.6691 14.0655 12.628 13.9148 12.5869C13.7642 12.5458 13.6135 12.5184 13.4765 12.491C13.3259 12.4636 13.1752 12.4363 13.0246 12.4089C12.8739 12.3815 12.7233 12.3678 12.5726 12.3541C12.422 12.3404 12.2713 12.3267 12.1206 12.3267C11.97 12.313 11.8193 12.313 11.6687 12.313C11.518 12.313 11.3674 12.313 11.2167 12.3267C11.066 12.3404 10.9154 12.3404 10.7647 12.3541C10.6141 12.3678 10.4634 12.3815 10.3128 12.4089C10.1621 12.4363 10.0114 12.4636 9.86079 12.491C9.71013 12.5184 9.55948 12.5595 9.42251 12.5869C9.27186 12.628 9.1349 12.6691 8.98424 12.7102C8.83358 12.7513 8.69662 12.806 8.54597 12.8471C8.40901 12.9019 8.25835 12.9567 8.12139 13.0115C7.98443 13.0663 7.84747 13.1348 7.71051 13.1895C7.57355 13.258 7.43659 13.3265 7.29963 13.395C7.16266 13.4635 7.0394 13.5456 6.90244 13.6141C6.76548 13.6963 6.64221 13.7785 6.51895 13.8606C6.39569 13.9428 6.27242 14.0387 6.14916 14.1209C6.02589 14.2167 5.90263 14.2989 5.79306 14.3948C5.66979 14.4907 5.56023 14.5865 5.45066 14.6961C5.34109 14.792 5.23152 14.9015 5.12195 15.0111C5.01238 15.1207 4.91651 15.2302 4.80694 15.3398C4.71107 15.4494 4.6015 15.5727 4.50563 15.6822C4.40976 15.8055 4.31388 15.9151 4.23171 16.0383C4.13584 16.1616 4.05366 16.2848 3.97148 16.4081C3.88931 16.5314 3.80713 16.6683 3.72495 16.7916C3.64278 16.9149 3.5743 17.0518 3.50582 17.1888C3.43734 17.3257 3.36886 17.4627 3.30038 17.5997C3.2319 17.7366 3.17711 17.8736 3.12233 18.0105C3.06754 18.1475 3.01276 18.2982 2.95797 18.4351C2.90319 18.5721 2.8621 18.7227 2.82101 18.8734C2.77993 19.0241 2.73884 19.161 2.69775 19.3117C2.65666 19.4623 2.62927 19.613 2.60188 19.7499C2.57448 19.9006 2.54709 20.0513 2.5197 20.2019C2.49231 20.3526 2.47861 20.5032 2.46492 20.6539C2.45122 20.8045 2.43752 20.9552 2.43752 21.1059C2.42383 21.2565 2.42383 21.4072 2.42383 21.5578C2.42383 21.7085 2.42383 21.8591 2.43752 22.0098C2.43752 22.1605 2.45122 22.3111 2.46492 22.4618Z" fill="white"/>
<path d="M51.922 22.4618C51.9356 22.6124 51.9493 22.7631 51.9767 22.9137C52.0041 23.0644 52.0315 23.2151 52.0589 23.3657C52.0863 23.5164 52.1274 23.667 52.1548 23.804C52.1959 23.9546 52.237 24.0916 52.278 24.2423C52.3191 24.3929 52.3739 24.5299 52.415 24.6805C52.4698 24.8175 52.5246 24.9681 52.5794 25.1051C52.6341 25.2421 52.7026 25.379 52.7574 25.516C52.8259 25.653 52.8944 25.7899 52.9629 25.9269C53.0313 26.0638 53.1135 26.1871 53.182 26.3241C53.2642 26.4473 53.3463 26.5843 53.4285 26.7075C53.5107 26.8308 53.6066 26.9541 53.6887 27.0773C53.7846 27.2006 53.8668 27.3239 53.9627 27.4334C54.0585 27.5567 54.1544 27.6663 54.264 27.7758C54.3598 27.8854 54.4694 27.995 54.579 28.1045C54.6886 28.2141 54.7981 28.31 54.9077 28.4196C55.0173 28.5154 55.1405 28.625 55.2501 28.7209C55.3734 28.8167 55.4829 28.9126 55.6062 28.9948C55.7295 29.0907 55.8527 29.1728 55.976 29.255C56.0992 29.3372 56.2362 29.4194 56.3595 29.5015C56.4964 29.5837 56.6197 29.6522 56.7567 29.7207C56.8936 29.7892 57.0306 29.8576 57.1675 29.9261C57.3045 29.9946 57.4415 30.0494 57.5784 30.1042C57.7154 30.159 57.866 30.2137 58.003 30.2685C58.14 30.3233 58.2906 30.3644 58.4413 30.4055C58.5919 30.4466 58.7289 30.4877 58.8795 30.5287C59.0302 30.5698 59.1809 30.5972 59.3178 30.6246C59.4685 30.652 59.6191 30.6794 59.7698 30.7068C59.9204 30.7342 60.0711 30.7479 60.2218 30.7616C60.3724 30.7753 60.5231 30.789 60.6737 30.789C60.8244 30.8027 60.975 30.8027 61.1257 30.8027C61.2764 30.8027 61.427 30.8027 61.5777 30.789C61.7283 30.7753 61.879 30.7753 62.0296 30.7616C62.1803 30.7479 62.331 30.7342 62.4816 30.7068C62.6323 30.6794 62.7829 30.652 62.9336 30.6246C63.0842 30.5972 63.2349 30.5561 63.3719 30.5287C63.5225 30.4877 63.6595 30.4466 63.8101 30.4055C63.9608 30.3644 64.0977 30.3096 64.2484 30.2685C64.3854 30.2137 64.536 30.159 64.673 30.1042C64.8099 30.0494 64.9469 29.9809 65.0839 29.9261C65.2208 29.8576 65.3578 29.7892 65.4947 29.7207C65.6317 29.6522 65.755 29.57 65.8919 29.5015C66.0289 29.4194 66.1522 29.3372 66.2754 29.255C66.3987 29.1728 66.5219 29.077 66.6452 28.9948C66.7685 28.8989 66.8917 28.8167 67.0013 28.7209C67.1246 28.625 67.2341 28.5291 67.3437 28.4196C67.4533 28.3237 67.5629 28.2141 67.6724 28.1045C67.782 27.995 67.8779 27.8854 67.9874 27.7758C68.0833 27.6663 68.1929 27.543 68.2887 27.4334C68.3846 27.3102 68.4805 27.2006 68.5627 27.0773C68.6585 26.9541 68.7407 26.8308 68.8229 26.7075C68.9051 26.5843 68.9872 26.4473 69.0694 26.3241C69.1516 26.1871 69.2201 26.0638 69.2886 25.9269C69.357 25.7899 69.4255 25.653 69.494 25.516C69.5625 25.379 69.6173 25.2421 69.672 25.1051C69.7268 24.9681 69.7816 24.8175 69.8364 24.6805C69.8912 24.5436 69.9323 24.3929 69.9734 24.2423C70.0144 24.0916 70.0555 23.9546 70.0966 23.804C70.1377 23.6533 70.1651 23.5027 70.1925 23.3657C70.2199 23.2151 70.2473 23.0644 70.2747 22.9137C70.3021 22.7631 70.3158 22.6124 70.3295 22.4618C70.3431 22.3111 70.3568 22.1605 70.3568 22.0098C70.3705 21.8591 70.3705 21.7085 70.3705 21.5578C70.3705 21.4072 70.3705 21.2565 70.3568 21.1059C70.3432 20.9552 70.3431 20.8045 70.3295 20.6539C70.3158 20.5032 70.3021 20.3526 70.2747 20.2019C70.2473 20.0513 70.2336 19.9006 70.1925 19.7499C70.1651 19.5993 70.124 19.4486 70.0966 19.3117C70.0555 19.161 70.0144 19.0241 69.9734 18.8734C69.9323 18.7227 69.8775 18.5858 69.8364 18.4351C69.7816 18.2982 69.7268 18.1475 69.672 18.0105C69.6173 17.8736 69.5488 17.7366 69.494 17.5997C69.4255 17.4627 69.357 17.3257 69.2886 17.1888C69.2201 17.0518 69.1379 16.9286 69.0694 16.7916C68.9872 16.6546 68.9051 16.5314 68.8229 16.4081C68.7407 16.2848 68.6448 16.1616 68.5627 16.0383C68.4668 15.9151 68.3846 15.7918 68.2887 15.6822C68.1929 15.559 68.097 15.4494 67.9874 15.3398C67.8916 15.2302 67.782 15.1207 67.6724 15.0111C67.5629 14.9015 67.4533 14.8057 67.3437 14.6961C67.2341 14.6002 67.1109 14.4907 67.0013 14.3948C66.878 14.2989 66.7685 14.203 66.6452 14.1209C66.5219 14.025 66.3987 13.9428 66.2754 13.8606C66.1522 13.7785 66.0152 13.6963 65.8919 13.6141C65.7687 13.5319 65.6317 13.4635 65.4947 13.395C65.3578 13.3265 65.2208 13.258 65.0839 13.1895C64.9469 13.1211 64.8099 13.0663 64.673 13.0115C64.536 12.9567 64.3854 12.9019 64.2484 12.8471C64.1114 12.7924 63.9608 12.7513 63.8101 12.7102C63.6595 12.6691 63.5225 12.628 63.3719 12.5869C63.2212 12.5458 63.0705 12.5184 62.9336 12.491C62.7829 12.4636 62.6323 12.4363 62.4816 12.4089C62.331 12.3815 62.1803 12.3678 62.0296 12.3541C61.879 12.3404 61.7283 12.3267 61.5777 12.3267C61.427 12.313 61.2764 12.313 61.1257 12.313C60.975 12.313 60.8244 12.313 60.6737 12.3267C60.5231 12.3404 60.3724 12.3404 60.2218 12.3541C60.0711 12.3678 59.9204 12.3815 59.7698 12.4089C59.6191 12.4363 59.4685 12.4636 59.3178 12.491C59.1672 12.5184 59.0165 12.5595 58.8795 12.5869C58.7289 12.628 58.5919 12.6691 58.4413 12.7102C58.2906 12.7513 58.1537 12.806 58.003 12.8471C57.866 12.9019 57.7154 12.9567 57.5784 13.0115C57.4415 13.0663 57.3045 13.1348 57.1675 13.1895C57.0306 13.258 56.8936 13.3265 56.7567 13.395C56.6197 13.4635 56.4964 13.5456 56.3595 13.6141C56.2362 13.6963 56.0992 13.7785 55.976 13.8606C55.8527 13.9428 55.7295 14.0387 55.6062 14.1209C55.4829 14.2167 55.3597 14.2989 55.2501 14.3948C55.1268 14.4907 55.0173 14.5865 54.9077 14.6961C54.7981 14.792 54.6886 14.9015 54.579 15.0111C54.4694 15.1207 54.3735 15.2302 54.264 15.3398C54.1681 15.4494 54.0585 15.5727 53.9627 15.6822C53.8668 15.8055 53.7709 15.9151 53.6887 16.0383C53.5929 16.1616 53.5107 16.2848 53.4285 16.4081C53.3463 16.5314 53.2642 16.6683 53.182 16.7916C53.0998 16.9149 53.0313 17.0518 52.9629 17.1888C52.8944 17.3257 52.8259 17.4627 52.7574 17.5997C52.6889 17.7366 52.6341 17.8736 52.5794 18.0105C52.5246 18.1475 52.4698 18.2982 52.415 18.4351C52.3602 18.5721 52.3191 18.7227 52.278 18.8734C52.237 19.0241 52.1959 19.161 52.1548 19.3117C52.1137 19.4623 52.0863 19.613 52.0589 19.7499C52.0315 19.9006 52.0041 20.0513 51.9767 20.2019C51.9493 20.3526 51.9356 20.5032 51.922 20.6539C51.9083 20.8045 51.8946 20.9552 51.8946 21.1059C51.8809 21.2565 51.8809 21.4072 51.8809 21.5578C51.8809 21.7085 51.8809 21.8591 51.8946 22.0098C51.8946 22.1605 51.9083 22.3111 51.922 22.4618Z" fill="white"/>
<path d="M42.7453 50.2783C42.937 50.0865 43.1288 49.8948 43.3342 49.7167C43.5397 49.5387 43.7314 49.3606 43.9506 49.1826C44.156 49.0046 44.3751 48.8402 44.5943 48.6895C44.8134 48.5252 45.0325 48.3745 45.2517 48.2239C45.4708 48.0732 45.7036 47.9363 45.9365 47.7993C46.1693 47.6623 46.4021 47.5254 46.6487 47.4021C46.8952 47.2788 47.128 47.1556 47.3746 47.046C47.6211 46.9364 47.8676 46.8269 48.1142 46.731C48.3607 46.6351 48.6209 46.5393 48.8811 46.4571C49.1414 46.3749 49.4016 46.2927 49.6618 46.2242C49.922 46.1558 50.1823 46.0873 50.4425 46.0325C50.7027 45.9777 50.9766 45.9229 51.2369 45.8818C51.4971 45.8408 51.771 45.7997 52.0449 45.7723C52.3188 45.7449 52.5791 45.7175 52.853 45.7038C53.1269 45.6901 53.3871 45.6764 53.6611 45.6764C53.935 45.6764 54.1952 45.6764 54.4691 45.6901C54.7431 45.7038 55.0033 45.7175 55.2772 45.7449C55.5511 45.7723 55.8113 45.7997 56.0853 45.8408C56.3592 45.8818 56.6194 45.9229 56.8796 45.9777C57.1399 46.0325 57.4138 46.0873 57.674 46.1558C57.9342 46.2242 58.1945 46.2927 58.4547 46.3749C58.3314 46.0873 58.1945 45.7997 58.0575 45.5121C57.9205 45.2244 57.7699 44.9505 57.6192 44.6629C57.4686 44.389 57.3179 44.1151 57.1536 43.8411C56.9892 43.5672 56.8248 43.2933 56.6468 43.0331C56.4687 42.7728 56.2907 42.4989 56.1127 42.2524C55.9346 41.9922 55.7429 41.7319 55.5511 41.4854C55.3594 41.2389 55.1676 40.9924 54.9622 40.7458C54.7567 40.4993 54.5513 40.2665 54.3459 40.0336C54.1404 39.8008 53.9213 39.568 53.7021 39.3351C53.483 39.1023 53.2502 38.8832 53.031 38.664C52.7982 38.4449 52.5654 38.2394 52.3325 38.0203C52.0997 37.8149 51.8532 37.6094 51.6066 37.404C51.3601 37.1985 51.1136 37.0068 50.8534 36.8151C50.5931 36.6233 50.3466 36.4453 50.0864 36.2672C49.8262 36.0892 49.5659 35.9111 49.292 35.7468C49.0181 35.5824 48.7579 35.4181 48.4839 35.2537C48.21 35.0894 47.9361 34.9387 47.6485 34.8017C47.3746 34.6511 47.087 34.5141 46.7993 34.3772C46.5117 34.2402 46.2241 34.1169 45.9365 33.98C45.6489 33.8567 45.3475 33.7334 45.0599 33.6239C44.7586 33.5143 44.471 33.4047 44.1697 33.3089C43.8684 33.213 43.5671 33.1171 43.2657 33.0212C42.9644 32.9254 42.6631 32.8432 42.3481 32.7747C42.0468 32.6925 41.7318 32.6241 41.4168 32.5556C41.1018 32.4871 40.8005 32.4323 40.4854 32.3775C40.1704 32.3227 39.8554 32.2817 39.5404 32.2406C39.2254 32.1995 38.9104 32.1721 38.5954 32.1447C38.2804 32.1173 37.9654 32.0899 37.6504 32.0762C37.3354 32.0625 37.0203 32.0488 36.7053 32.0488C36.3903 32.0488 36.0753 32.0488 35.7603 32.0625C35.4453 32.0762 35.1303 32.0899 34.8153 32.1036C34.5003 32.131 34.1853 32.1584 33.8703 32.1858C33.5552 32.2269 33.2402 32.2543 32.9252 32.3091C32.6102 32.3501 32.2952 32.4049 31.9939 32.4734C31.6789 32.5282 31.3776 32.5967 31.0626 32.6652C30.7612 32.7336 30.4462 32.8158 30.1449 32.898C29.8436 32.9802 29.5423 33.076 29.2273 33.1719C28.926 33.2678 28.6247 33.3636 28.3233 33.4732C28.022 33.5828 27.7344 33.6924 27.4331 33.8156C27.1455 33.9389 26.8442 34.0621 26.5566 34.1854C26.2689 34.3087 25.9813 34.4456 25.6937 34.5963C25.4061 34.7333 25.1322 34.8839 24.8582 35.0346C24.5843 35.1852 24.3104 35.3496 24.0365 35.5139C23.7626 35.6783 23.5023 35.8426 23.2284 36.0207C22.9682 36.1987 22.708 36.3768 22.4477 36.5548C22.1875 36.7329 21.941 36.9246 21.6808 37.1164C21.4342 37.3081 21.1877 37.5136 20.9412 37.719C20.6946 37.9244 20.4618 38.1299 20.229 38.349C19.9961 38.5682 19.7633 38.7736 19.5442 39.0064C19.325 39.2256 19.0922 39.4584 18.8868 39.6912C18.6676 39.9241 18.4622 40.1569 18.2567 40.4034C18.0513 40.65 17.8459 40.8828 17.6541 41.1293C17.4624 41.3758 17.2569 41.6224 17.0789 41.8826C16.8871 42.1428 16.7091 42.403 16.531 42.6633C16.353 42.9235 16.1749 43.1974 16.0106 43.4576C15.8462 43.7316 15.6819 44.0055 15.5312 44.2794C15.3806 44.5533 15.2299 44.8273 15.0793 45.1149C14.9286 45.4025 14.7916 45.6764 14.6547 45.964C14.5177 46.2516 14.3945 46.5393 14.2712 46.8269C14.1479 47.1145 14.0384 47.4158 13.9151 47.7034C13.8055 48.0047 13.696 48.2924 13.6001 48.5937C13.5042 48.895 13.4083 49.1963 13.3262 49.4976C13.244 49.7989 13.1618 50.1139 13.0796 50.4152C12.9975 50.7166 12.929 51.0316 12.8742 51.3466C12.8605 51.4424 12.8331 51.552 12.8194 51.6479C12.8057 51.7438 12.792 51.8533 12.792 51.9492C12.7783 52.0451 12.7783 52.1546 12.7783 52.2505C12.7783 52.3464 12.7783 52.456 12.7783 52.5518C12.7783 52.6477 12.792 52.7573 12.792 52.8531C12.8057 52.949 12.8057 53.0586 12.8331 53.1545C12.8468 53.2503 12.8605 53.3599 12.8879 53.4558C12.9016 53.5516 12.929 53.6612 12.9564 53.7571C12.9838 53.853 13.0112 53.9488 13.0385 54.0584C13.0659 54.1543 13.107 54.2501 13.1344 54.346C13.1755 54.4419 13.2029 54.5378 13.244 54.6336C13.2851 54.7295 13.3262 54.8254 13.3809 54.9076C13.422 55.0034 13.4768 55.0856 13.5316 55.1815C13.5864 55.2636 13.6412 55.3595 13.696 55.4417C13.7507 55.5239 13.8055 55.6061 13.874 55.6882C13.9288 55.7704 13.9973 55.8526 14.0657 55.9348C14.1342 56.0169 14.2027 56.0854 14.2712 56.1676C14.3397 56.2498 14.4082 56.3182 14.4903 56.3867C14.5588 56.4552 14.641 56.5237 14.7095 56.5922C14.7916 56.6606 14.8601 56.7291 14.9423 56.7839C15.0245 56.8524 15.1067 56.9072 15.1888 56.962C15.271 57.0167 15.3532 57.0715 15.4491 57.1263C15.5312 57.1811 15.6271 57.2359 15.7093 57.277C15.8051 57.3318 15.8873 57.3728 15.9832 57.4139C16.0791 57.455 16.1749 57.4961 16.2571 57.5372C16.353 57.5783 16.4489 57.6194 16.5447 57.6468C16.6406 57.6879 16.7365 57.7152 16.8324 57.7426C16.9282 57.77 17.0241 57.7974 17.1337 57.8248C17.2295 57.8522 17.3391 57.8659 17.435 57.8796C17.5309 57.8933 17.6404 57.907 17.7363 57.9207C17.8322 57.9344 17.9417 57.9481 18.0376 57.9481C18.1335 57.9481 18.243 57.9618 18.3389 57.9618H38.6639C38.7187 57.7015 38.7734 57.4276 38.8419 57.1674C38.9104 56.9072 38.9789 56.647 39.0611 56.3867C39.1432 56.1265 39.2254 55.88 39.3213 55.6197C39.4172 55.3732 39.513 55.113 39.6226 54.8665C39.7322 54.6199 39.8417 54.3734 39.965 54.1269C40.0883 53.8803 40.2115 53.6475 40.3485 53.4147C40.4854 53.1818 40.6224 52.949 40.7731 52.7162C40.9237 52.4833 41.0744 52.2642 41.225 52.0451C41.3757 51.8259 41.54 51.6068 41.7181 51.4014C41.8824 51.1959 42.0605 50.9905 42.2385 50.785C42.3618 50.6755 42.5536 50.47 42.7453 50.2783Z" fill="white"/>
<path d="M14.8603 38.6229C15.6273 37.6916 16.4491 36.8013 17.3256 35.9796C17.1065 35.8563 16.8736 35.7467 16.6408 35.6372C16.408 35.5276 16.1751 35.4317 15.9423 35.3359C15.7095 35.24 15.4629 35.1578 15.2301 35.0893C14.9973 35.0208 14.7508 34.9387 14.5042 34.8839C14.2577 34.8291 14.0112 34.7743 13.7646 34.7332C13.5181 34.6921 13.2579 34.651 13.0114 34.6237C12.7648 34.5963 12.5046 34.5826 12.2581 34.5689C12.0115 34.5552 11.7513 34.5552 11.5048 34.5552C11.2446 34.5552 10.998 34.5689 10.7515 34.5963C10.505 34.6237 10.2447 34.651 9.99822 34.6784C9.75169 34.7195 9.49147 34.7606 9.24494 34.8154C8.99841 34.8702 8.75188 34.925 8.50535 34.9934C8.25882 35.0619 8.02599 35.1441 7.77946 35.2263C7.54663 35.3085 7.3001 35.4043 7.06726 35.5002C6.83443 35.5961 6.6016 35.7056 6.38246 35.8289C6.14963 35.9385 5.93049 36.0617 5.71135 36.1987C5.49222 36.322 5.27308 36.4589 5.06764 36.6096C4.8622 36.7465 4.65676 36.8972 4.45132 37.0616C4.24588 37.2122 4.05413 37.3766 3.86239 37.5546C3.67064 37.719 3.49259 37.897 3.31454 38.0751C3.13649 38.2531 2.95845 38.4449 2.79409 38.6366C2.62974 38.8283 2.46539 39.0201 2.31473 39.2255C2.16407 39.431 2.01342 39.6364 1.87646 39.8419C1.7395 40.0473 1.60254 40.2664 1.47927 40.4856C1.35601 40.7047 1.23274 40.9238 1.12317 41.1567C1.01361 41.3895 0.904037 41.6223 0.808164 41.8552C0.712292 42.088 0.630115 42.3208 0.547939 42.5674C0.465763 42.8139 0.397282 43.0467 0.328802 43.2933C0.260322 43.5398 0.205538 43.7863 0.164449 44.0328C0.109665 44.2794 0.068577 44.5259 0.0411849 44.7861C0.0137928 45.0327 -0.0135993 45.2929 -0.0272954 45.5394C-0.0409914 45.7859 -0.0546875 46.0462 -0.0546875 46.2927C-0.0546875 46.416 -0.0409914 46.5392 -0.0135993 46.6488C0.0137928 46.7584 0.0411849 46.8816 0.0959692 46.9912C0.137057 47.1008 0.205538 47.2103 0.274018 47.3062C0.342498 47.4021 0.424675 47.498 0.506851 47.5801C0.589027 47.6623 0.6849 47.7445 0.780772 47.813C0.876645 47.8814 0.986213 47.9362 1.09578 47.991C1.20535 48.0321 1.32861 48.0732 1.43818 48.1006C1.54775 48.128 1.67102 48.1417 1.79428 48.1417H9.77908C10.1352 46.9912 10.5598 45.8544 11.0528 44.7587C11.5459 43.6631 12.1211 42.5948 12.7511 41.5676C13.3948 40.5404 14.0933 39.5542 14.8603 38.6229Z" fill="white"/>
<path d="M72.8764 45.5257C72.8627 45.2792 72.8353 45.019 72.8079 44.7725C72.7805 44.5259 72.7394 44.2657 72.6846 44.0192C72.6298 43.7726 72.5751 43.5261 72.5066 43.2796C72.4381 43.0331 72.3696 42.7865 72.2874 42.5537C72.2053 42.3072 72.1231 42.0743 72.0272 41.8415C71.9313 41.6087 71.8218 41.3758 71.7122 41.143C71.6026 40.9102 71.4794 40.691 71.3561 40.4719C71.2328 40.2528 71.0959 40.0336 70.9589 39.8282C70.822 39.6227 70.6713 39.4036 70.5207 39.2119C70.37 39.0064 70.2056 38.8147 70.0413 38.6229C69.8769 38.4312 69.6989 38.2394 69.5208 38.0614C69.3428 37.8833 69.1647 37.7053 68.973 37.5409C68.7812 37.3766 68.5895 37.2122 68.3841 37.0479C68.1786 36.8972 67.9869 36.7466 67.7677 36.5959C67.5623 36.459 67.3432 36.322 67.124 36.185C66.9049 36.0618 66.6858 35.9385 66.4529 35.8152C66.2338 35.7057 66.001 35.5961 65.7681 35.4865C65.5353 35.3907 65.3024 35.2948 65.0559 35.2126C64.8231 35.1304 64.5766 35.0483 64.33 34.9798C64.0835 34.9113 63.837 34.8428 63.5904 34.8017C63.3439 34.7469 63.0974 34.7059 62.8372 34.6648C62.5906 34.6237 62.3304 34.5963 62.0839 34.5826C61.8373 34.5552 61.5771 34.5552 61.3306 34.5415C61.0704 34.5415 60.8238 34.5415 60.5773 34.5552C60.3308 34.5689 60.0706 34.5826 59.824 34.61C59.5775 34.6374 59.3173 34.6785 59.0707 34.7196C58.8242 34.7606 58.5777 34.8154 58.3312 34.8702C58.0846 34.925 57.8381 34.9935 57.6053 35.0757C57.3587 35.1578 57.1259 35.24 56.8931 35.3222C56.6602 35.4181 56.4274 35.5139 56.1946 35.6235C55.9617 35.7331 55.7426 35.8426 55.5098 35.9659C56.852 37.2259 58.0435 38.6092 59.1118 40.1021C60.1801 41.595 61.0704 43.1837 61.8236 44.8683L63.2891 48.128H71.0548C71.1781 48.128 71.3013 48.1143 71.4109 48.0869C71.5342 48.0595 71.6437 48.0321 71.7533 47.9773C71.8629 47.9363 71.9724 47.8678 72.0683 47.7993C72.1642 47.7308 72.26 47.6486 72.3422 47.5665C72.4244 47.4843 72.5066 47.3884 72.5751 47.2925C72.6435 47.1967 72.6983 47.0871 72.7531 46.9775C72.7942 46.868 72.8353 46.7447 72.8627 46.6351C72.8901 46.5119 72.9038 46.4023 72.9038 46.279C72.9038 46.0325 72.8901 45.7723 72.8764 45.5257Z" fill="white"/>
</g>
<defs>
<clipPath id="clip0_1268_466">
<rect width="73" height="73" fill="white"/>
</clipPath>
</defs>
</svg>
