<svg width="79" height="69" viewBox="0 0 79 69" fill="none" xmlns="http://www.w3.org/2000/svg">
<path d="M66.6093 56.5588C66.5965 56.3795 66.5709 56.2003 66.5453 56.0211C66.5197 55.8418 66.494 55.6626 66.4556 55.4962C66.4172 55.3169 66.3788 55.1505 66.3404 54.9713C66.302 54.792 66.2508 54.6256 66.1996 54.4463C66.1484 54.2799 66.0844 54.1007 66.0332 53.9342C65.9691 53.7678 65.9051 53.6014 65.8411 53.4349C65.7771 53.2685 65.7003 53.1021 65.6235 52.9484C65.5467 52.782 65.4698 52.6284 65.3802 52.4619C65.2906 52.3083 65.201 52.1419 65.1114 51.9882C65.0217 51.8346 64.9193 51.681 64.8169 51.5273C64.7145 51.3737 64.6121 51.2329 64.5096 51.0921C64.4072 50.9512 64.292 50.8104 64.1768 50.6696C64.0616 50.5287 63.9463 50.4007 63.8183 50.2599C63.7031 50.1319 63.5751 49.991 63.447 49.8758C63.319 49.7478 63.191 49.6198 63.0629 49.5045C62.9349 49.3893 62.7941 49.2613 62.6533 49.1461C62.5124 49.0308 62.3716 48.9156 62.2308 48.8132C62.0899 48.7108 61.9363 48.6084 61.7955 48.5059C61.6419 48.4035 61.4882 48.3139 61.3346 48.2115C61.181 48.1219 61.0273 48.0322 60.8609 47.9426C60.7073 47.853 60.5408 47.7762 60.3744 47.6994C60.208 47.6226 60.0415 47.5457 59.8879 47.4817C59.7215 47.4177 59.555 47.3537 59.3886 47.2897C59.2222 47.2257 59.0429 47.1745 58.8765 47.1232C58.7101 47.072 58.5308 47.0208 58.3516 46.9824C58.1723 46.944 58.0059 46.9056 57.8267 46.8672C57.6474 46.8288 57.4682 46.8032 57.3018 46.7776C57.1225 46.752 56.9433 46.7264 56.7641 46.7136C56.5848 46.7008 56.4056 46.688 56.2264 46.6752C56.0471 46.6624 55.8679 46.6624 55.6886 46.6624C55.5094 46.6624 55.3302 46.6624 55.1509 46.6752C54.9717 46.688 54.7925 46.7008 54.6132 46.7136C54.434 46.7264 54.2547 46.752 54.0755 46.7776C53.8963 46.8032 53.717 46.8288 53.5506 46.8672C53.3714 46.9056 53.2049 46.944 53.0257 46.9824C52.8465 47.0208 52.68 47.072 52.5008 47.1232C52.3344 47.1745 52.1551 47.2257 51.9887 47.2897C51.8222 47.3537 51.6558 47.4177 51.4894 47.4817C51.3229 47.5457 51.1565 47.6226 51.0029 47.6994C50.8364 47.7762 50.6828 47.853 50.5164 47.9426C50.3628 48.0322 50.1963 48.1219 50.0427 48.2115C49.8891 48.3011 49.7354 48.4035 49.5818 48.4931C49.4282 48.5955 49.2873 48.698 49.1465 48.8004C49.0057 48.9028 48.8648 49.018 48.724 49.1333C48.5832 49.2485 48.4552 49.3637 48.3143 49.4917C48.1863 49.607 48.0455 49.735 47.9175 49.863C47.7894 49.991 47.6614 50.1191 47.5462 50.2471C47.4309 50.3751 47.3029 50.5159 47.2005 50.6568C47.0853 50.7976 46.9701 50.9384 46.8676 51.0793C46.7652 51.2201 46.6628 51.3737 46.5604 51.5145C46.458 51.6682 46.3683 51.8218 46.2659 51.9754C46.1763 52.1291 46.0867 52.2827 45.9971 52.4491C45.9074 52.6028 45.8306 52.7692 45.7538 52.9356C45.677 53.1021 45.6002 53.2685 45.5362 53.4221C45.4722 53.5886 45.4081 53.755 45.3441 53.9214C45.2801 54.0879 45.2289 54.2671 45.1777 54.4335C45.1265 54.6 45.0753 54.7792 45.0369 54.9584C44.9985 55.1377 44.96 55.3041 44.9216 55.4834C44.8832 55.6626 44.8576 55.8418 44.832 56.0083C44.8064 56.1875 44.7808 56.3667 44.768 56.546C44.7552 56.7252 44.7424 56.9044 44.7296 57.0837C44.7168 57.2629 44.7168 57.4422 44.7168 57.6214C44.7168 57.8006 44.7168 57.9799 44.7296 58.1591C44.7424 58.3383 44.7552 58.5176 44.768 58.6968C44.7808 58.8761 44.8064 59.0553 44.832 59.2345C44.8576 59.4138 44.8832 59.593 44.9216 59.7594C44.96 59.9387 44.9985 60.1051 45.0369 60.2843C45.0753 60.4636 45.1265 60.63 45.1777 60.8092C45.2289 60.9757 45.2801 61.1549 45.3441 61.3214C45.4081 61.4878 45.4722 61.6542 45.5362 61.8207C45.6002 61.9871 45.677 62.1535 45.7538 62.3072C45.8306 62.4736 45.9074 62.6272 45.9971 62.7937C46.0867 62.9473 46.1763 63.1137 46.2659 63.2673C46.3555 63.421 46.458 63.5746 46.5604 63.7282C46.6628 63.8819 46.7652 64.0227 46.8676 64.1635C46.9701 64.3044 47.0853 64.4452 47.2005 64.586C47.3157 64.7268 47.4309 64.8549 47.5462 64.9957C47.6614 65.1237 47.7894 65.2646 47.9175 65.3798C48.0455 65.5078 48.1735 65.6358 48.3143 65.7511C48.4424 65.8663 48.5832 65.9943 48.724 66.1095C48.8648 66.2248 49.0057 66.34 49.1465 66.4424C49.2873 66.5448 49.441 66.6472 49.5818 66.7497C49.7354 66.8521 49.8891 66.9417 50.0427 67.0441C50.1963 67.1337 50.3499 67.2234 50.5164 67.313C50.6828 67.4026 50.8364 67.4794 51.0029 67.5562C51.1693 67.633 51.3357 67.7099 51.4894 67.7739C51.6558 67.8379 51.8222 67.9019 51.9887 67.9659C52.1551 68.0299 52.3344 68.0811 52.5008 68.1323C52.6672 68.1836 52.8465 68.2348 53.0257 68.2732C53.2049 68.3116 53.3714 68.35 53.5506 68.3884C53.7298 68.4268 53.9091 68.4524 54.0755 68.478C54.2547 68.5036 54.434 68.5292 54.6132 68.542C54.7925 68.5548 54.9717 68.5676 55.1509 68.5804C55.3302 68.5932 55.5094 68.5932 55.6886 68.5932C55.8679 68.5932 56.0471 68.5932 56.2264 68.5804C56.4056 68.5676 56.5848 68.5548 56.7641 68.542C56.9433 68.5292 57.1225 68.5036 57.3018 68.478C57.481 68.4524 57.6602 68.4268 57.8267 68.3884C58.0059 68.35 58.1723 68.3116 58.3516 68.2732C58.5308 68.2348 58.6973 68.1836 58.8765 68.1323C59.0429 68.0811 59.2222 68.0299 59.3886 67.9659C59.555 67.9019 59.7215 67.8379 59.8879 67.7739C60.0543 67.7099 60.2208 67.633 60.3744 67.5562C60.5408 67.4794 60.6945 67.4026 60.8609 67.313C61.0145 67.2234 61.181 67.1337 61.3346 67.0441C61.4882 66.9545 61.6419 66.8521 61.7955 66.7497C61.9491 66.6472 62.0899 66.5448 62.2308 66.4424C62.3716 66.34 62.5124 66.2248 62.6533 66.1095C62.7941 65.9943 62.9221 65.8791 63.0629 65.7511C63.191 65.6358 63.3318 65.5078 63.447 65.3798C63.5751 65.2518 63.7031 65.1237 63.8183 64.9957C63.9335 64.8677 64.0616 64.7268 64.1768 64.586C64.292 64.4452 64.4072 64.3044 64.5096 64.1635C64.6121 64.0227 64.7145 63.8691 64.8169 63.7282C64.9193 63.5746 65.0089 63.421 65.1114 63.2673C65.201 63.1137 65.2906 62.9601 65.3802 62.7937C65.4698 62.64 65.5467 62.4736 65.6235 62.3072C65.7003 62.1407 65.7771 61.9871 65.8411 61.8207C65.9051 61.6542 65.9691 61.4878 66.0332 61.3214C66.0972 61.1549 66.1484 60.9757 66.1996 60.8092C66.2508 60.6428 66.302 60.4636 66.3404 60.2843C66.3788 60.1051 66.4172 59.9387 66.4556 59.7594C66.494 59.5802 66.5197 59.401 66.5453 59.2345C66.5709 59.0553 66.5965 58.8761 66.6093 58.6968C66.6221 58.5176 66.6349 58.3383 66.6477 58.1591C66.6605 57.9799 66.6605 57.8006 66.6605 57.6214C66.6605 57.4422 66.6605 57.2629 66.6477 57.0837C66.6349 56.9173 66.6221 56.738 66.6093 56.5588ZM62.0259 57.8006C62.0259 57.8518 62.0131 57.9159 62.0003 57.9671C61.9875 58.0183 61.9747 58.0823 61.9619 58.1335C61.9491 58.1847 61.9235 58.2359 61.9107 58.2999C61.8851 58.3511 61.8595 58.4024 61.8339 58.4536C61.8083 58.5048 61.7827 58.556 61.7443 58.5944C61.7187 58.6456 61.6803 58.684 61.6419 58.7352C61.6034 58.7736 61.565 58.8248 61.5266 58.8632C61.4882 58.9017 61.4498 58.9401 61.3986 58.9785C61.3602 59.0169 61.309 59.0425 61.2578 59.0809C61.2066 59.1065 61.1554 59.1449 61.1169 59.1705C61.0657 59.1961 61.0145 59.2217 60.9633 59.2473C60.9121 59.2729 60.8609 59.2857 60.7969 59.2985C60.7457 59.3113 60.6817 59.3241 60.6305 59.3369C60.5792 59.3497 60.5152 59.3625 60.464 59.3625C60.4128 59.3625 60.3488 59.3754 60.2976 59.3754H57.4042V62.2687C57.4042 62.32 57.4042 62.384 57.3914 62.4352C57.3914 62.4864 57.3786 62.5504 57.3658 62.6016C57.353 62.6528 57.3402 62.7168 57.3274 62.768C57.3146 62.8193 57.289 62.8705 57.2762 62.9345C57.2506 62.9857 57.225 63.0369 57.1994 63.0881C57.1737 63.1393 57.1481 63.1905 57.1097 63.2289C57.0841 63.2802 57.0457 63.3186 57.0073 63.3698C56.9689 63.4082 56.9305 63.4594 56.8921 63.4978C56.8537 63.5362 56.8153 63.5746 56.7641 63.613C56.7257 63.6514 56.6744 63.677 56.6232 63.7154C56.572 63.741 56.5336 63.7795 56.4824 63.8051C56.4312 63.8307 56.38 63.8563 56.3288 63.8819C56.2776 63.9075 56.2264 63.9203 56.1623 63.9331C56.1111 63.9459 56.0471 63.9587 55.9959 63.9715C55.9447 63.9843 55.8807 63.9971 55.8295 63.9971C55.7783 63.9971 55.7142 64.0099 55.663 64.0099C55.6118 64.0099 55.5478 64.0099 55.4966 63.9971C55.4454 63.9971 55.3814 63.9843 55.3302 63.9715C55.279 63.9587 55.2149 63.9459 55.1637 63.9331C55.1125 63.9203 55.0613 63.8947 54.9973 63.8819C54.9461 63.8563 54.8949 63.8307 54.8437 63.8051C54.7925 63.7795 54.7412 63.7538 54.7028 63.7154C54.6516 63.6898 54.6132 63.6514 54.562 63.613C54.5236 63.5746 54.4724 63.5362 54.434 63.4978C54.3956 63.4594 54.3572 63.421 54.3188 63.3698C54.2804 63.3314 54.2547 63.2802 54.2163 63.2289C54.1907 63.1777 54.1523 63.1265 54.1267 63.0881C54.1011 63.0369 54.0755 62.9857 54.0499 62.9345C54.0243 62.8833 54.0115 62.8321 53.9987 62.768C53.9859 62.7168 53.9731 62.6528 53.9603 62.6016C53.9475 62.5504 53.9347 62.4864 53.9347 62.4352C53.9347 62.384 53.9219 62.32 53.9219 62.2687V59.3754H51.0285C50.9773 59.3754 50.9133 59.3754 50.8621 59.3625C50.8108 59.3625 50.7468 59.3497 50.6956 59.3369C50.6444 59.3241 50.5804 59.3113 50.5292 59.2985C50.478 59.2857 50.4268 59.2601 50.3627 59.2473C50.3115 59.2217 50.2603 59.1961 50.2091 59.1705C50.1579 59.1449 50.1067 59.1193 50.0683 59.0809C50.0171 59.0553 49.9787 59.0169 49.9275 58.9785C49.8891 58.9401 49.8378 58.9017 49.7994 58.8632C49.761 58.8248 49.7226 58.7864 49.6842 58.7352C49.6458 58.6968 49.6202 58.6456 49.5818 58.5944C49.5562 58.5432 49.5178 58.5048 49.4922 58.4536C49.4666 58.4024 49.441 58.3511 49.4154 58.2999C49.3898 58.2487 49.3769 58.1975 49.3641 58.1335C49.3513 58.0823 49.3385 58.0183 49.3257 57.9671C49.3129 57.9159 49.3001 57.8518 49.3001 57.8006C49.3001 57.7494 49.2873 57.6854 49.2873 57.6342C49.2873 57.583 49.2873 57.519 49.3001 57.4678C49.3001 57.4166 49.3129 57.3525 49.3257 57.3013C49.3385 57.2501 49.3513 57.1861 49.3641 57.1349C49.3769 57.0837 49.4026 57.0325 49.4154 56.9685C49.441 56.9173 49.4666 56.866 49.4922 56.8148C49.5178 56.7636 49.5434 56.7124 49.5818 56.674C49.6074 56.6228 49.6458 56.5844 49.6842 56.5332C49.7226 56.4948 49.761 56.4436 49.7994 56.4051C49.8378 56.3667 49.8762 56.3283 49.9275 56.2899C49.9659 56.2515 50.0171 56.2259 50.0683 56.1875C50.1195 56.1619 50.1579 56.1235 50.2091 56.0979C50.2603 56.0723 50.3115 56.0467 50.3627 56.0211C50.414 55.9955 50.4652 55.9827 50.5292 55.9699C50.5804 55.9571 50.6444 55.9443 50.6956 55.9314C50.7468 55.9186 50.8108 55.9058 50.8621 55.9058C50.9133 55.9058 50.9773 55.893 51.0285 55.893H53.9219V52.9996C53.9219 52.9484 53.9219 52.8844 53.9347 52.8332C53.9347 52.782 53.9475 52.718 53.9603 52.6668C53.9731 52.6156 53.9859 52.5516 53.9987 52.5003C54.0115 52.4491 54.0371 52.3979 54.0499 52.3339C54.0755 52.2827 54.1011 52.2315 54.1267 52.1803C54.1523 52.1291 54.1779 52.0779 54.2163 52.0395C54.2419 51.9882 54.2804 51.9498 54.3188 51.8986C54.3572 51.8602 54.3956 51.809 54.434 51.7706C54.4724 51.7322 54.5108 51.6938 54.562 51.6554C54.6004 51.617 54.6516 51.5914 54.7028 51.553C54.754 51.5273 54.8053 51.4889 54.8437 51.4633C54.8949 51.4377 54.9461 51.4121 54.9973 51.3865C55.0485 51.3609 55.0997 51.3481 55.1637 51.3353C55.2149 51.3225 55.279 51.3097 55.3302 51.2969C55.3814 51.2841 55.4454 51.2713 55.4966 51.2713C55.5478 51.2713 55.6118 51.2585 55.663 51.2585C55.7142 51.2585 55.7783 51.2585 55.8295 51.2713C55.8807 51.2713 55.9447 51.2841 55.9959 51.2969C56.0471 51.3097 56.1111 51.3225 56.1623 51.3353C56.2135 51.3481 56.2648 51.3737 56.3288 51.3865C56.38 51.4121 56.4312 51.4377 56.4824 51.4633C56.5336 51.4889 56.5848 51.5145 56.6232 51.553C56.6744 51.5786 56.7128 51.617 56.7641 51.6554C56.8025 51.6938 56.8537 51.7322 56.8921 51.7706C56.9305 51.809 56.9689 51.8474 57.0073 51.8986C57.0457 51.937 57.0713 51.9882 57.1097 52.0395C57.1353 52.0907 57.1737 52.1291 57.1994 52.1803C57.225 52.2315 57.2506 52.2827 57.2762 52.3339C57.3018 52.3851 57.3146 52.4363 57.3274 52.5003C57.3402 52.5516 57.353 52.6156 57.3658 52.6668C57.3786 52.718 57.3914 52.782 57.3914 52.8332C57.3914 52.8844 57.4042 52.9484 57.4042 52.9996V55.893H60.2976C60.3488 55.893 60.4128 55.893 60.464 55.9058C60.5152 55.9058 60.5792 55.9186 60.6305 55.9314C60.6817 55.9443 60.7457 55.9571 60.7969 55.9699C60.8481 55.9827 60.8993 56.0083 60.9633 56.0211C61.0145 56.0467 61.0657 56.0723 61.1169 56.0979C61.1682 56.1235 61.2194 56.1491 61.2578 56.1875C61.309 56.2131 61.3474 56.2515 61.3986 56.2899C61.437 56.3283 61.4882 56.3667 61.5266 56.4051C61.565 56.4436 61.6034 56.482 61.6419 56.5332C61.6803 56.5716 61.7059 56.6228 61.7443 56.674C61.7699 56.7252 61.8083 56.7764 61.8339 56.8148C61.8595 56.866 61.8851 56.9173 61.9107 56.9685C61.9363 57.0197 61.9491 57.0709 61.9619 57.1349C61.9747 57.1861 61.9875 57.2501 62.0003 57.3013C62.0131 57.3525 62.0259 57.4166 62.0259 57.4678C62.0259 57.519 62.0387 57.583 62.0387 57.6342C62.0387 57.6854 62.0387 57.7494 62.0259 57.8006Z" fill="url(#paint0_linear_1199_1389)"/>
<path d="M26.2681 15.0143C26.2937 15.2319 26.3193 15.4496 26.3449 15.6672C26.3833 15.8849 26.4089 16.1025 26.4602 16.3073C26.4986 16.525 26.5498 16.7298 26.601 16.9475C26.6522 17.1523 26.7162 17.37 26.7802 17.5748C26.8442 17.7796 26.9082 17.9845 26.9851 18.1893C27.0619 18.3942 27.1387 18.599 27.2155 18.8039C27.2923 19.0087 27.3819 19.2007 27.4844 19.4056C27.574 19.5976 27.6764 19.8025 27.7788 19.9945C27.8812 20.1865 27.9837 20.3786 28.0989 20.5578C28.2141 20.7499 28.3293 20.9291 28.4446 21.1083C28.5598 21.2876 28.6878 21.4668 28.8158 21.646C28.9439 21.8253 29.0847 21.9917 29.2127 22.1581C29.3535 22.3246 29.4944 22.491 29.6352 22.6574C29.776 22.8239 29.9297 22.9775 30.0833 23.1311C30.2369 23.2848 30.3906 23.4384 30.557 23.5792C30.7234 23.7201 30.8771 23.8609 31.0563 24.0017C31.2227 24.1425 31.402 24.2706 31.5684 24.3986C31.7476 24.5266 31.9269 24.6547 32.1061 24.7699C32.2853 24.8851 32.4646 25.0131 32.6566 25.1155C32.8487 25.2308 33.0279 25.3332 33.2199 25.4356C33.412 25.538 33.604 25.6405 33.7961 25.7301C33.9881 25.8197 34.1929 25.9093 34.3978 25.9989C34.6026 26.0757 34.8075 26.1654 35.0123 26.2294C35.2171 26.3062 35.422 26.3702 35.6268 26.4342C35.8317 26.4982 36.0493 26.5494 36.2542 26.6135C36.4718 26.6647 36.6766 26.7159 36.8943 26.7543C37.1119 26.7927 37.3168 26.8311 37.5344 26.8695C37.7521 26.9079 37.9697 26.9335 38.1874 26.9463C38.405 26.9719 38.6226 26.9847 38.8403 26.9975C39.0579 27.0103 39.2756 27.0103 39.4932 27.0103C39.7109 27.0103 39.9285 27.0103 40.1462 26.9975C40.3638 26.9847 40.5814 26.9719 40.7991 26.9463C41.0167 26.9207 41.2344 26.8951 41.452 26.8695C41.6697 26.8439 41.8873 26.8055 42.0922 26.7543C42.3098 26.7159 42.5146 26.6647 42.7323 26.6135C42.9499 26.5622 43.1548 26.4982 43.3596 26.4342C43.5645 26.3702 43.7693 26.3062 43.9741 26.2294C44.179 26.1526 44.3838 26.0757 44.5887 25.9989C44.7935 25.9093 44.9855 25.8325 45.1904 25.7301C45.3824 25.6405 45.5873 25.538 45.7793 25.4356C45.9713 25.3332 46.1634 25.2308 46.3426 25.1155C46.5347 25.0003 46.7139 24.8851 46.8931 24.7699C47.0724 24.6547 47.2516 24.5266 47.4308 24.3986C47.6101 24.2706 47.7765 24.1297 47.9429 24.0017C48.1094 23.8609 48.2758 23.7201 48.4422 23.5792C48.6087 23.4384 48.7623 23.2848 48.9159 23.1311C49.0696 22.9775 49.2232 22.8239 49.364 22.6574C49.5049 22.491 49.6457 22.3374 49.7865 22.1581C49.9274 21.9917 50.0554 21.8125 50.1834 21.646C50.3114 21.4668 50.4395 21.2876 50.5547 21.1083C50.6699 20.9291 50.7979 20.7499 50.9004 20.5578C51.0156 20.3658 51.118 20.1865 51.2204 19.9945C51.3228 19.8025 51.4253 19.6104 51.5149 19.4056C51.6045 19.2135 51.6941 19.0087 51.7837 18.8039C51.8605 18.599 51.9502 18.3942 52.0142 18.1893C52.091 17.9845 52.155 17.7796 52.219 17.5748C52.283 17.37 52.3342 17.1523 52.3983 16.9475C52.4495 16.7426 52.5007 16.525 52.5391 16.3073C52.5775 16.0897 52.6159 15.8849 52.6543 15.6672C52.6799 15.4496 52.7183 15.2319 52.7311 15.0143C52.7567 14.7966 52.7695 14.579 52.7823 14.3613C52.7951 14.1437 52.7951 13.9261 52.7951 13.7084C52.7951 13.4908 52.7951 13.2731 52.7823 13.0555C52.7695 12.8378 52.7567 12.6202 52.7311 12.4025C52.7055 12.1849 52.6799 11.9673 52.6543 11.7496C52.6287 11.532 52.5903 11.3143 52.5391 11.1095C52.5007 10.8918 52.4495 10.687 52.3983 10.4694C52.347 10.2645 52.283 10.0469 52.219 9.84202C52.155 9.63718 52.091 9.43234 52.0142 9.2275C51.9374 9.02266 51.8605 8.81781 51.7837 8.61297C51.7069 8.40813 51.6173 8.21609 51.5149 8.01125C51.4253 7.81921 51.3228 7.61437 51.2204 7.42233C51.118 7.23029 51.0156 7.03825 50.9004 6.85901C50.7851 6.66697 50.6699 6.48774 50.5547 6.3085C50.4395 6.12927 50.3114 5.95003 50.1834 5.77079C50.0554 5.59155 49.9145 5.42512 49.7865 5.25869C49.6457 5.09225 49.5049 4.92582 49.364 4.75938C49.2232 4.59295 49.0696 4.43932 48.9159 4.28569C48.7623 4.13206 48.6087 3.97842 48.4422 3.8376C48.2758 3.69677 48.1222 3.54314 47.9429 3.41511C47.7765 3.27428 47.5973 3.14625 47.4308 3.01823C47.2516 2.8902 47.0724 2.76218 46.8931 2.64695C46.7139 2.53173 46.5347 2.4037 46.3426 2.30128C46.1506 2.18606 45.9713 2.08364 45.7793 1.98122C45.5873 1.8788 45.3952 1.77637 45.1904 1.68676C44.9983 1.59714 44.7935 1.50752 44.5887 1.4179C44.3838 1.34109 44.179 1.25147 43.9741 1.18745C43.7693 1.11064 43.5645 1.04663 43.3596 0.982612C43.1548 0.918599 42.9371 0.867388 42.7323 0.803375C42.5274 0.752165 42.3098 0.700954 42.0922 0.662547C41.8745 0.624139 41.6697 0.585731 41.452 0.547323C41.2344 0.508915 41.0167 0.48331 40.7991 0.470507C40.5814 0.444902 40.3638 0.432099 40.1462 0.419297C39.9285 0.406494 39.7109 0.406494 39.4932 0.406494C39.2756 0.406494 39.0579 0.406494 38.8403 0.419297C38.6226 0.432099 38.405 0.444902 38.1874 0.470507C37.9697 0.496112 37.7521 0.521718 37.5344 0.547323C37.3168 0.572928 37.0991 0.611336 36.8943 0.662547C36.6766 0.700954 36.4718 0.752165 36.2542 0.803375C36.0493 0.854586 35.8317 0.918599 35.6268 0.982612C35.422 1.04663 35.2171 1.11064 35.0123 1.18745C34.8075 1.26427 34.6026 1.34109 34.3978 1.4179C34.1929 1.50752 34.0009 1.58434 33.7961 1.68676C33.604 1.77637 33.3992 1.8788 33.2199 1.98122C33.0279 2.08364 32.8359 2.18606 32.6566 2.30128C32.4646 2.41651 32.2853 2.53173 32.1061 2.64695C31.9269 2.76218 31.7476 2.8902 31.5684 3.01823C31.3892 3.14625 31.2227 3.28708 31.0563 3.41511C30.8899 3.55594 30.7234 3.69677 30.557 3.8376C30.3906 3.97842 30.2369 4.13206 30.0833 4.28569C29.9297 4.43932 29.776 4.59295 29.6352 4.75938C29.4944 4.92582 29.3535 5.07945 29.2127 5.25869C29.0719 5.42512 28.9439 5.60436 28.8158 5.77079C28.6878 5.95003 28.5598 6.12927 28.4446 6.3085C28.3293 6.48774 28.2013 6.66697 28.0989 6.85901C27.9837 7.05105 27.8812 7.23029 27.7788 7.42233C27.6764 7.61437 27.574 7.80641 27.4844 8.01125C27.3947 8.20329 27.3051 8.40813 27.2155 8.61297C27.1259 8.81781 27.0491 9.02266 26.9851 9.2275C26.9082 9.43234 26.8442 9.63718 26.7802 9.84202C26.7162 10.0469 26.665 10.2645 26.601 10.4694C26.5498 10.6742 26.4986 10.8918 26.4602 11.1095C26.4217 11.3271 26.3833 11.532 26.3449 11.7496C26.3193 11.9673 26.2809 12.1849 26.2681 12.4025C26.2425 12.6202 26.2297 12.8378 26.2169 13.0555C26.2041 13.2731 26.2041 13.4908 26.2041 13.7084C26.2041 13.9261 26.2041 14.1437 26.2169 14.3613C26.2297 14.579 26.2425 14.7966 26.2681 15.0143Z" fill="url(#paint1_linear_1199_1389)"/>
<path d="M7.7552 21.4926C7.76801 21.6334 7.78081 21.7743 7.80642 21.9151C7.83202 22.0559 7.84482 22.1967 7.88323 22.3376C7.90884 22.4784 7.94724 22.6192 7.97285 22.7473C8.01126 22.8881 8.04966 23.0161 8.08807 23.1569C8.12648 23.2978 8.17769 23.4258 8.2161 23.5666C8.26731 23.6947 8.31852 23.8355 8.36973 23.9635C8.42094 24.0915 8.48495 24.2196 8.53616 24.3476C8.60018 24.4756 8.66419 24.6036 8.7282 24.7317C8.79222 24.8597 8.86903 24.9749 8.93305 25.1029C9.00986 25.2182 9.08668 25.3462 9.16349 25.4614C9.24031 25.5766 9.32993 25.6919 9.40674 25.8071C9.49636 25.9223 9.57318 26.0375 9.6628 26.14C9.75241 26.2552 9.84203 26.3576 9.94445 26.46C10.0341 26.5624 10.1365 26.6649 10.2389 26.7673C10.3413 26.8697 10.4438 26.9593 10.5462 27.0617C10.6486 27.1514 10.7638 27.2538 10.8662 27.3434C10.9815 27.433 11.0839 27.5226 11.1991 27.5995C11.3143 27.6891 11.4296 27.7659 11.5448 27.8427C11.66 27.9195 11.788 27.9963 11.9033 28.0731C12.0185 28.15 12.1465 28.214 12.2745 28.278C12.4026 28.342 12.5306 28.406 12.6586 28.47C12.7866 28.534 12.9147 28.5853 13.0427 28.6365C13.1707 28.6877 13.3115 28.7389 13.4396 28.7901C13.5676 28.8413 13.7084 28.8797 13.8493 28.9181C13.9901 28.9565 14.1181 28.9949 14.2589 29.0333C14.3998 29.0718 14.5406 29.0974 14.6686 29.123C14.8094 29.1486 14.9503 29.1742 15.0911 29.1998C15.2319 29.2254 15.3728 29.2382 15.5136 29.251C15.6544 29.2638 15.7952 29.2766 15.9361 29.2766C16.0769 29.2894 16.2177 29.2894 16.3586 29.2894C16.4994 29.2894 16.6402 29.2894 16.7811 29.2766C16.9219 29.2638 17.0627 29.2638 17.2035 29.251C17.3444 29.2382 17.4852 29.2254 17.626 29.1998C17.7669 29.1742 17.9077 29.1486 18.0485 29.123C18.1893 29.0974 18.3302 29.0589 18.4582 29.0333C18.599 28.9949 18.7271 28.9565 18.8679 28.9181C19.0087 28.8797 19.1367 28.8285 19.2776 28.7901C19.4056 28.7389 19.5464 28.6877 19.6744 28.6365C19.8025 28.5853 19.9305 28.5212 20.0585 28.47C20.1865 28.406 20.3146 28.342 20.4426 28.278C20.5706 28.214 20.6859 28.1372 20.8139 28.0731C20.9291 27.9963 21.0571 27.9195 21.1724 27.8427C21.2876 27.7659 21.4028 27.6763 21.518 27.5995C21.6332 27.5098 21.7485 27.433 21.8509 27.3434C21.9661 27.2538 22.0685 27.1642 22.171 27.0617C22.2734 26.9721 22.3758 26.8697 22.4782 26.7673C22.5806 26.6649 22.6703 26.5624 22.7727 26.46C22.8623 26.3576 22.9647 26.2424 23.0543 26.14C23.144 26.0247 23.2336 25.9223 23.3104 25.8071C23.4 25.6919 23.4768 25.5766 23.5536 25.4614C23.6305 25.3462 23.7073 25.2182 23.7841 25.1029C23.8609 24.9749 23.9249 24.8597 23.9889 24.7317C24.0529 24.6036 24.117 24.4756 24.181 24.3476C24.245 24.2196 24.2962 24.0915 24.3474 23.9635C24.3986 23.8355 24.4498 23.6947 24.501 23.5666C24.5522 23.4386 24.5907 23.2978 24.6291 23.1569C24.6675 23.0161 24.7059 22.8881 24.7443 22.7473C24.7827 22.6064 24.8083 22.4656 24.8339 22.3376C24.8595 22.1967 24.8851 22.0559 24.9107 21.9151C24.9363 21.7743 24.9491 21.6334 24.9619 21.4926C24.9747 21.3518 24.9875 21.2109 24.9875 21.0701C25.0003 20.9293 25.0003 20.7885 25.0003 20.6476C25.0003 20.5068 25.0003 20.366 24.9875 20.2251C24.9747 20.0843 24.9747 19.9435 24.9619 19.8027C24.9491 19.6618 24.9363 19.521 24.9107 19.3802C24.8851 19.2393 24.8595 19.0985 24.8339 18.9577C24.8083 18.8169 24.7699 18.676 24.7443 18.548C24.7059 18.4072 24.6675 18.2791 24.6291 18.1383C24.5907 17.9975 24.5394 17.8695 24.501 17.7286C24.4498 17.6006 24.3986 17.4598 24.3474 17.3317C24.2962 17.2037 24.2322 17.0757 24.181 16.9477C24.117 16.8196 24.0529 16.6916 23.9889 16.5636C23.9249 16.4356 23.8481 16.3203 23.7841 16.1923C23.7073 16.0643 23.6305 15.9491 23.5536 15.8338C23.4768 15.7186 23.3872 15.6034 23.3104 15.4882C23.2208 15.3729 23.144 15.2577 23.0543 15.1553C22.9647 15.0401 22.8751 14.9377 22.7727 14.8352C22.6831 14.7328 22.5806 14.6304 22.4782 14.528C22.3758 14.4256 22.2734 14.3359 22.171 14.2335C22.0685 14.1439 21.9533 14.0415 21.8509 13.9519C21.7357 13.8622 21.6332 13.7726 21.518 13.6958C21.4028 13.6062 21.2876 13.5294 21.1724 13.4526C21.0571 13.3757 20.9291 13.2989 20.8139 13.2221C20.6859 13.1453 20.5706 13.0813 20.4426 13.0173C20.3146 12.9533 20.1865 12.8892 20.0585 12.8252C19.9305 12.7612 19.8025 12.71 19.6744 12.6588C19.5464 12.6076 19.4056 12.5564 19.2776 12.5052C19.1495 12.454 19.0087 12.4155 18.8679 12.3771C18.7271 12.3387 18.599 12.3003 18.4582 12.2619C18.3174 12.2235 18.1765 12.1979 18.0485 12.1723C17.9077 12.1467 17.7669 12.1211 17.626 12.0955C17.4852 12.0699 17.3444 12.0571 17.2035 12.0443C17.0627 12.0315 16.9219 12.0187 16.7811 12.0187C16.6402 12.0059 16.4994 12.0059 16.3586 12.0059C16.2177 12.0059 16.0769 12.0059 15.9361 12.0187C15.7952 12.0315 15.6544 12.0315 15.5136 12.0443C15.3728 12.0571 15.2319 12.0699 15.0911 12.0955C14.9503 12.1211 14.8094 12.1467 14.6686 12.1723C14.5278 12.1979 14.387 12.2363 14.2589 12.2619C14.1181 12.3003 13.9901 12.3387 13.8493 12.3771C13.7084 12.4155 13.5804 12.4668 13.4396 12.5052C13.3115 12.5564 13.1707 12.6076 13.0427 12.6588C12.9147 12.71 12.7866 12.774 12.6586 12.8252C12.5306 12.8892 12.4026 12.9533 12.2745 13.0173C12.1465 13.0813 12.0313 13.1581 11.9033 13.2221C11.7752 13.2989 11.66 13.3757 11.5448 13.4526C11.4296 13.5294 11.3143 13.619 11.1991 13.6958C11.0839 13.7854 10.9687 13.8622 10.8662 13.9519C10.751 14.0415 10.6486 14.1311 10.5462 14.2335C10.4438 14.3231 10.3413 14.4256 10.2389 14.528C10.1365 14.6304 10.0469 14.7328 9.94445 14.8352C9.85483 14.9377 9.75241 15.0529 9.6628 15.1553C9.57318 15.2705 9.48356 15.3729 9.40674 15.4882C9.31712 15.6034 9.24031 15.7186 9.16349 15.8338C9.08668 15.9491 9.00986 16.0771 8.93305 16.1923C8.85623 16.3075 8.79222 16.4356 8.7282 16.5636C8.66419 16.6916 8.60018 16.8196 8.53616 16.9477C8.47215 17.0757 8.42094 17.2037 8.36973 17.3317C8.31852 17.4598 8.26731 17.6006 8.2161 17.7286C8.16489 17.8567 8.12648 17.9975 8.08807 18.1383C8.04966 18.2791 8.01126 18.4072 7.97285 18.548C7.93444 18.6888 7.90884 18.8297 7.88323 18.9577C7.85763 19.0985 7.83202 19.2393 7.80642 19.3802C7.78081 19.521 7.76801 19.6618 7.7552 19.8027C7.7424 19.9435 7.7296 20.0843 7.7296 20.2251C7.7168 20.366 7.7168 20.5068 7.7168 20.6476C7.7168 20.7885 7.7168 20.9293 7.7296 21.0701C7.7296 21.2109 7.7424 21.3518 7.7552 21.4926Z" fill="url(#paint2_linear_1199_1389)"/>
<path d="M53.9867 21.4926C53.9995 21.6334 54.0123 21.7743 54.0379 21.9151C54.0635 22.0559 54.0891 22.1967 54.1147 22.3376C54.1403 22.4784 54.1787 22.6192 54.2043 22.7473C54.2427 22.8881 54.2811 23.0161 54.3195 23.1569C54.3579 23.2978 54.4091 23.4258 54.4475 23.5666C54.4988 23.6947 54.55 23.8355 54.6012 23.9635C54.6524 24.0915 54.7164 24.2196 54.7676 24.3476C54.8316 24.4756 54.8956 24.6036 54.9597 24.7317C55.0237 24.8597 55.1005 24.9749 55.1645 25.1029C55.2413 25.2182 55.3181 25.3462 55.3949 25.4614C55.4718 25.5766 55.5614 25.6919 55.6382 25.8071C55.7278 25.9223 55.8046 26.0375 55.8942 26.14C55.9839 26.2552 56.0735 26.3576 56.1759 26.46C56.2655 26.5624 56.3679 26.6649 56.4704 26.7673C56.5728 26.8697 56.6752 26.9593 56.7776 27.0617C56.88 27.1514 56.9953 27.2538 57.0977 27.3434C57.2129 27.433 57.3153 27.5226 57.4306 27.5995C57.5458 27.6891 57.661 27.7659 57.7762 27.8427C57.8915 27.9195 58.0195 27.9963 58.1347 28.0731C58.2627 28.15 58.3779 28.214 58.506 28.278C58.634 28.342 58.762 28.406 58.8901 28.47C59.0181 28.534 59.1461 28.5853 59.2741 28.6365C59.4022 28.6877 59.543 28.7389 59.671 28.7901C59.799 28.8413 59.9399 28.8797 60.0807 28.9181C60.2215 28.9565 60.3496 28.9949 60.4904 29.0333C60.6312 29.0718 60.772 29.0974 60.9001 29.123C61.0409 29.1486 61.1817 29.1742 61.3226 29.1998C61.4634 29.2254 61.6042 29.2382 61.745 29.251C61.8859 29.2638 62.0267 29.2766 62.1675 29.2766C62.3084 29.2894 62.4492 29.2894 62.59 29.2894C62.7308 29.2894 62.8717 29.2894 63.0125 29.2766C63.1533 29.2638 63.2942 29.2638 63.435 29.251C63.5758 29.2382 63.7166 29.2254 63.8575 29.1998C63.9983 29.1742 64.1391 29.1486 64.28 29.123C64.4208 29.0974 64.5616 29.0589 64.6896 29.0333C64.8305 28.9949 64.9585 28.9565 65.0993 28.9181C65.2402 28.8797 65.3682 28.8285 65.509 28.7901C65.637 28.7389 65.7779 28.6877 65.9059 28.6365C66.0339 28.5853 66.1619 28.5212 66.29 28.47C66.418 28.406 66.546 28.342 66.674 28.278C66.8021 28.214 66.9173 28.1372 67.0453 28.0731C67.1734 27.9963 67.2886 27.9195 67.4038 27.8427C67.519 27.7659 67.6342 27.6763 67.7495 27.5995C67.8647 27.5098 67.9799 27.433 68.0823 27.3434C68.1976 27.2538 68.3 27.1642 68.4024 27.0617C68.5048 26.9721 68.6072 26.8697 68.7097 26.7673C68.8121 26.6649 68.9017 26.5624 69.0041 26.46C69.0937 26.3576 69.1962 26.2424 69.2858 26.14C69.3754 26.0247 69.465 25.9223 69.5418 25.8071C69.6315 25.6919 69.7083 25.5766 69.7851 25.4614C69.8619 25.3462 69.9387 25.2182 70.0155 25.1029C70.0923 24.9749 70.1564 24.8597 70.2204 24.7317C70.2844 24.6036 70.3484 24.4756 70.4124 24.3476C70.4764 24.2196 70.5276 24.0915 70.5788 23.9635C70.6301 23.8355 70.6813 23.6947 70.7325 23.5666C70.7837 23.4386 70.8221 23.2978 70.8605 23.1569C70.8989 23.0161 70.9373 22.8881 70.9757 22.7473C71.0141 22.6064 71.0397 22.4656 71.0653 22.3376C71.091 22.1967 71.1166 22.0559 71.1422 21.9151C71.1678 21.7743 71.1806 21.6334 71.1934 21.4926C71.2062 21.3518 71.219 21.2109 71.219 21.0701C71.2318 20.9293 71.2318 20.7885 71.2318 20.6476C71.2318 20.5068 71.2318 20.366 71.219 20.2251C71.2062 20.0843 71.2062 19.9435 71.1934 19.8027C71.1806 19.6618 71.1678 19.521 71.1422 19.3802C71.1166 19.2393 71.1038 19.0985 71.0653 18.9577C71.0397 18.8169 71.0013 18.676 70.9757 18.548C70.9373 18.4072 70.8989 18.2791 70.8605 18.1383C70.8221 17.9975 70.7709 17.8695 70.7325 17.7286C70.6813 17.6006 70.6301 17.4598 70.5788 17.3317C70.5276 17.2037 70.4636 17.0757 70.4124 16.9477C70.3484 16.8196 70.2844 16.6916 70.2204 16.5636C70.1564 16.4356 70.0795 16.3203 70.0155 16.1923C69.9387 16.0643 69.8619 15.9491 69.7851 15.8338C69.7083 15.7186 69.6187 15.6034 69.5418 15.4882C69.4522 15.3729 69.3754 15.2577 69.2858 15.1553C69.1962 15.0401 69.1065 14.9377 69.0041 14.8352C68.9145 14.7328 68.8121 14.6304 68.7097 14.528C68.6072 14.4256 68.5048 14.3359 68.4024 14.2335C68.3 14.1439 68.1848 14.0415 68.0823 13.9519C67.9671 13.8622 67.8647 13.7726 67.7495 13.6958C67.6342 13.6062 67.519 13.5294 67.4038 13.4526C67.2886 13.3757 67.1605 13.2989 67.0453 13.2221C66.9301 13.1453 66.8021 13.0813 66.674 13.0173C66.546 12.9533 66.418 12.8892 66.29 12.8252C66.1619 12.7612 66.0339 12.71 65.9059 12.6588C65.7779 12.6076 65.637 12.5564 65.509 12.5052C65.381 12.454 65.2402 12.4155 65.0993 12.3771C64.9585 12.3387 64.8305 12.3003 64.6896 12.2619C64.5488 12.2235 64.408 12.1979 64.28 12.1723C64.1391 12.1467 63.9983 12.1211 63.8575 12.0955C63.7166 12.0699 63.5758 12.0571 63.435 12.0443C63.2942 12.0315 63.1533 12.0187 63.0125 12.0187C62.8717 12.0059 62.7308 12.0059 62.59 12.0059C62.4492 12.0059 62.3084 12.0059 62.1675 12.0187C62.0267 12.0315 61.8859 12.0315 61.745 12.0443C61.6042 12.0571 61.4634 12.0699 61.3226 12.0955C61.1817 12.1211 61.0409 12.1467 60.9001 12.1723C60.7592 12.1979 60.6184 12.2363 60.4904 12.2619C60.3496 12.3003 60.2215 12.3387 60.0807 12.3771C59.9399 12.4155 59.8118 12.4668 59.671 12.5052C59.543 12.5564 59.4022 12.6076 59.2741 12.6588C59.1461 12.71 59.0181 12.774 58.8901 12.8252C58.762 12.8892 58.634 12.9533 58.506 13.0173C58.3779 13.0813 58.2627 13.1581 58.1347 13.2221C58.0195 13.2989 57.8915 13.3757 57.7762 13.4526C57.661 13.5294 57.5458 13.619 57.4306 13.6958C57.3153 13.7854 57.2001 13.8622 57.0977 13.9519C56.9825 14.0415 56.88 14.1311 56.7776 14.2335C56.6752 14.3231 56.5728 14.4256 56.4704 14.528C56.3679 14.6304 56.2783 14.7328 56.1759 14.8352C56.0863 14.9377 55.9839 15.0529 55.8942 15.1553C55.8046 15.2705 55.715 15.3729 55.6382 15.4882C55.5486 15.6034 55.4718 15.7186 55.3949 15.8338C55.3181 15.9491 55.2413 16.0771 55.1645 16.1923C55.0877 16.3075 55.0237 16.4356 54.9597 16.5636C54.8956 16.6916 54.8316 16.8196 54.7676 16.9477C54.7036 17.0757 54.6524 17.2037 54.6012 17.3317C54.55 17.4598 54.4988 17.6006 54.4475 17.7286C54.3963 17.8567 54.3579 17.9975 54.3195 18.1383C54.2811 18.2791 54.2427 18.4072 54.2043 18.548C54.1659 18.6888 54.1403 18.8297 54.1147 18.9577C54.0891 19.0985 54.0635 19.2393 54.0379 19.3802C54.0123 19.521 53.9995 19.6618 53.9867 19.8027C53.9738 19.9435 53.961 20.0843 53.961 20.2251C53.9482 20.366 53.9482 20.5068 53.9482 20.6476C53.9482 20.7885 53.9482 20.9293 53.961 21.0701C53.961 21.2109 53.9738 21.3518 53.9867 21.4926Z" fill="url(#paint3_linear_1199_1389)"/>
<path d="M45.4086 47.4946C45.5879 47.3154 45.7671 47.1362 45.9591 46.9697C46.1512 46.8033 46.3304 46.6369 46.5352 46.4704C46.7273 46.304 46.9321 46.1504 47.137 46.0095C47.3418 45.8559 47.5467 45.7151 47.7515 45.5742C47.9563 45.4334 48.174 45.3054 48.3916 45.1774C48.6093 45.0493 48.8269 44.9213 49.0574 44.8061C49.2878 44.6909 49.5055 44.5756 49.7359 44.4732C49.9663 44.3708 50.1968 44.2684 50.4272 44.1788C50.6577 44.0891 50.9009 43.9995 51.1442 43.9227C51.3874 43.8459 51.6307 43.7691 51.8739 43.7051C52.1172 43.641 52.3604 43.577 52.6037 43.5258C52.8469 43.4746 53.103 43.4234 53.3462 43.385C53.5895 43.3466 53.8455 43.3082 54.1016 43.2826C54.3576 43.257 54.6009 43.2314 54.8569 43.2186C55.113 43.2058 55.3562 43.193 55.6123 43.193C55.8684 43.193 56.1116 43.193 56.3677 43.2058C56.6237 43.2186 56.867 43.2314 57.123 43.257C57.3791 43.2826 57.6223 43.3082 57.8784 43.3466C58.1344 43.385 58.3777 43.4234 58.6209 43.4746C58.8642 43.5258 59.1202 43.577 59.3635 43.641C59.6067 43.7051 59.85 43.7691 60.0932 43.8459C59.978 43.577 59.85 43.3082 59.7219 43.0393C59.5939 42.7705 59.4531 42.5144 59.3123 42.2456C59.1714 41.9895 59.0306 41.7335 58.877 41.4774C58.7233 41.2213 58.5697 40.9653 58.4033 40.722C58.2368 40.4788 58.0704 40.2227 57.904 39.9923C57.7375 39.749 57.5583 39.5058 57.3791 39.2753C57.1998 39.0449 57.0206 38.8145 56.8286 38.584C56.6365 38.3536 56.4445 38.1359 56.2524 37.9183C56.0604 37.7006 55.8555 37.483 55.6507 37.2653C55.4459 37.0477 55.2282 36.8429 55.0234 36.638C54.8057 36.4332 54.5881 36.2411 54.3704 36.0363C54.1528 35.8442 53.9224 35.6522 53.6919 35.4602C53.4615 35.2681 53.231 35.0889 52.9878 34.9097C52.7445 34.7304 52.5141 34.564 52.2708 34.3976C52.0276 34.2311 51.7843 34.0647 51.5283 33.9111C51.2722 33.7574 51.029 33.6038 50.7729 33.4502C50.5169 33.2965 50.2608 33.1557 49.992 33.0277C49.7359 32.8868 49.467 32.7588 49.1982 32.6308C48.9293 32.5028 48.6605 32.3875 48.3916 32.2595C48.1228 32.1443 47.8411 32.0291 47.5723 31.9266C47.2906 31.8242 47.0217 31.7218 46.7401 31.6322C46.4584 31.5426 46.1768 31.453 45.8951 31.3633C45.6135 31.2737 45.3318 31.1969 45.0373 31.1329C44.7557 31.0561 44.4612 30.9921 44.1668 30.928C43.8723 30.864 43.5906 30.8128 43.2962 30.7616C43.0017 30.7104 42.7073 30.672 42.4128 30.6336C42.1183 30.5952 41.8239 30.5696 41.5294 30.544C41.235 30.5184 40.9405 30.4928 40.646 30.48C40.3516 30.4671 40.0571 30.4543 39.7627 30.4543C39.4682 30.4543 39.1737 30.4543 38.8793 30.4671C38.5848 30.48 38.2904 30.4928 37.9959 30.5056C37.7014 30.5312 37.407 30.5568 37.1125 30.5824C36.8181 30.6208 36.5236 30.6464 36.2291 30.6976C35.9347 30.736 35.6402 30.7872 35.3586 30.8512C35.0641 30.9024 34.7824 30.9665 34.488 31.0305C34.2063 31.0945 33.9119 31.1713 33.6302 31.2481C33.3485 31.3249 33.0669 31.4145 32.7724 31.5042C32.4908 31.5938 32.2091 31.6834 31.9275 31.7858C31.6458 31.8882 31.3769 31.9907 31.0953 32.1059C30.8264 32.2211 30.5448 32.3363 30.2759 32.4516C30.0071 32.5668 29.7382 32.6948 29.4694 32.8356C29.2005 32.9637 28.9444 33.1045 28.6884 33.2453C28.4323 33.3861 28.1763 33.5398 27.9202 33.6934C27.6642 33.847 27.4209 34.0007 27.1649 34.1671C26.9216 34.3335 26.6784 34.5 26.4351 34.6664C26.1919 34.8328 25.9614 35.0121 25.7182 35.1913C25.4877 35.3706 25.2573 35.5626 25.0268 35.7546C24.7964 35.9467 24.5788 36.1387 24.3611 36.3436C24.1435 36.5484 23.9258 36.7404 23.721 36.9581C23.5161 37.1629 23.2985 37.3806 23.1065 37.5982C22.9016 37.8158 22.7096 38.0335 22.5175 38.2639C22.3255 38.4944 22.1335 38.712 21.9542 38.9425C21.775 39.1729 21.5829 39.4034 21.4165 39.6466C21.2373 39.8899 21.0708 40.1331 20.9044 40.3764C20.738 40.6196 20.5715 40.8757 20.4179 41.1189C20.2643 41.375 20.1106 41.631 19.9698 41.8871C19.829 42.1431 19.6882 42.3992 19.5473 42.668C19.4065 42.9369 19.2785 43.193 19.1504 43.4618C19.0224 43.7307 18.9072 43.9995 18.792 44.2684C18.6767 44.5372 18.5743 44.8189 18.4591 45.0877C18.3567 45.3694 18.2543 45.6382 18.1646 45.9199C18.075 46.2016 17.9854 46.4832 17.9086 46.7649C17.8318 47.0465 17.755 47.341 17.6781 47.6227C17.6013 47.9043 17.5373 48.1988 17.4861 48.4932C17.4733 48.5829 17.4477 48.6853 17.4349 48.7749C17.4221 48.8645 17.4093 48.9669 17.4093 49.0565C17.3965 49.1462 17.3965 49.2486 17.3965 49.3382C17.3965 49.4278 17.3965 49.5302 17.3965 49.6199C17.3965 49.7095 17.4093 49.8119 17.4093 49.9015C17.4221 49.9911 17.4221 50.0936 17.4477 50.1832C17.4605 50.2728 17.4733 50.3752 17.4989 50.4648C17.5117 50.5545 17.5373 50.6569 17.5629 50.7465C17.5885 50.8361 17.6141 50.9257 17.6397 51.0282C17.6653 51.1178 17.7037 51.2074 17.7294 51.297C17.7678 51.3866 17.7934 51.4762 17.8318 51.5659C17.8702 51.6555 17.9086 51.7451 17.9598 51.8219C17.9982 51.9115 18.0494 51.9883 18.1006 52.078C18.1518 52.1548 18.203 52.2444 18.2543 52.3212C18.3055 52.398 18.3567 52.4749 18.4207 52.5517C18.4719 52.6285 18.5359 52.7053 18.5999 52.7821C18.6639 52.8589 18.728 52.9229 18.792 52.9998C18.856 53.0766 18.92 53.1406 18.9968 53.2046C19.0608 53.2686 19.1376 53.3326 19.2017 53.3966C19.2785 53.4607 19.3425 53.5247 19.4193 53.5759C19.4961 53.6399 19.5729 53.6911 19.6497 53.7423C19.7266 53.7935 19.8034 53.8447 19.893 53.8959C19.9698 53.9472 20.0594 53.9984 20.1362 54.0368C20.2259 54.088 20.3027 54.1264 20.3923 54.1648C20.4819 54.2032 20.5715 54.2416 20.6483 54.28C20.738 54.3184 20.8276 54.3568 20.9172 54.3824C21.0068 54.4208 21.0964 54.4465 21.1861 54.4721C21.2757 54.4977 21.3653 54.5233 21.4677 54.5489C21.5573 54.5745 21.6598 54.5873 21.7494 54.6001C21.839 54.6129 21.9414 54.6257 22.031 54.6385C22.1207 54.6513 22.2231 54.6641 22.3127 54.6641C22.4023 54.6641 22.5047 54.6769 22.5943 54.6769H41.5934C41.6446 54.4337 41.6959 54.1776 41.7599 53.9343C41.8239 53.6911 41.8879 53.4479 41.9647 53.2046C42.0415 52.9614 42.1183 52.7309 42.208 52.4877C42.2976 52.2572 42.3872 52.014 42.4896 51.7835C42.592 51.5531 42.6945 51.3226 42.8097 51.0922C42.9249 50.8617 43.0401 50.6441 43.1682 50.4264C43.2962 50.2088 43.4242 49.9911 43.565 49.7735C43.7059 49.5559 43.8467 49.351 43.9875 49.1462C44.1284 48.9413 44.282 48.7365 44.4484 48.5444C44.602 48.3524 44.7685 48.1604 44.9349 47.9683C45.0501 47.8659 45.2294 47.6739 45.4086 47.4946Z" fill="url(#paint4_linear_1199_1389)"/>
<path d="M19.3424 36.5997C20.0594 35.7292 20.8275 34.897 21.6469 34.1288C21.4421 34.0136 21.2244 33.9112 21.0068 33.8088C20.7891 33.7064 20.5715 33.6167 20.3538 33.5271C20.1362 33.4375 19.9058 33.3607 19.6881 33.2967C19.4705 33.2327 19.24 33.1558 19.0096 33.1046C18.7791 33.0534 18.5487 33.0022 18.3182 32.9638C18.0878 32.9254 17.8445 32.887 17.6141 32.8614C17.3836 32.8358 17.1404 32.823 16.9099 32.8102C16.6795 32.7974 16.4362 32.7974 16.2058 32.7974C15.9626 32.7974 15.7321 32.8102 15.5017 32.8358C15.2712 32.8614 15.028 32.887 14.7975 32.9126C14.5671 32.951 14.3238 32.9894 14.0934 33.0406C13.8629 33.0918 13.6325 33.143 13.402 33.207C13.1716 33.2711 12.9539 33.3479 12.7235 33.4247C12.5058 33.5015 12.2754 33.5911 12.0578 33.6807C11.8401 33.7704 11.6225 33.8728 11.4176 33.988C11.2 34.0904 10.9951 34.2056 10.7903 34.3337C10.5855 34.4489 10.3806 34.5769 10.1886 34.7178C9.99653 34.8458 9.80449 34.9866 9.61245 35.1402C9.42041 35.2811 9.24118 35.4347 9.06194 35.6011C8.8827 35.7548 8.71627 35.9212 8.54983 36.0876C8.3834 36.2541 8.21697 36.4333 8.06334 36.6125C7.9097 36.7918 7.75607 36.971 7.61524 37.1631C7.47441 37.3551 7.33359 37.5471 7.20556 37.7392C7.07753 37.9312 6.94951 38.1361 6.83428 38.3409C6.71906 38.5457 6.60384 38.7506 6.50142 38.9682C6.39899 39.1859 6.29657 39.4035 6.20696 39.6212C6.11734 39.8388 6.04052 40.0564 5.96371 40.2869C5.88689 40.5173 5.82288 40.735 5.75886 40.9654C5.69485 41.1959 5.64364 41.4263 5.60523 41.6568C5.55402 41.8872 5.51561 42.1177 5.49001 42.3609C5.4644 42.5914 5.4388 42.8346 5.426 43.0651C5.41319 43.2955 5.40039 43.5388 5.40039 43.7692C5.40039 43.8844 5.41319 43.9997 5.4388 44.1021C5.4644 44.2045 5.49001 44.3197 5.54122 44.4221C5.57963 44.5246 5.64364 44.627 5.70765 44.7166C5.77167 44.8062 5.84848 44.8958 5.9253 44.9727C6.00211 45.0495 6.09173 45.1263 6.18135 45.1903C6.27097 45.2543 6.37339 45.3055 6.47581 45.3567C6.57823 45.3951 6.69346 45.4336 6.79588 45.4592C6.8983 45.4848 7.01352 45.4976 7.12874 45.4976H14.5927C14.9255 44.4221 15.3224 43.3595 15.7833 42.3353C16.2442 41.3111 16.7819 40.3125 17.3708 39.3523C17.9726 38.3921 18.6255 37.4703 19.3424 36.5997Z" fill="url(#paint5_linear_1199_1389)"/>
<path d="M73.5745 43.0521C73.5617 42.8217 73.5361 42.5784 73.5105 42.348C73.4849 42.1175 73.4465 41.8743 73.3953 41.6438C73.3441 41.4134 73.2929 41.1829 73.2289 40.9525C73.1649 40.722 73.1008 40.4916 73.024 40.274C72.9472 40.0435 72.8704 39.8259 72.7808 39.6082C72.6912 39.3906 72.5887 39.1729 72.4863 38.9553C72.3839 38.7376 72.2687 38.5328 72.1535 38.328C72.0382 38.1231 71.9102 37.9183 71.7822 37.7262C71.6541 37.5342 71.5133 37.3294 71.3725 37.1501C71.2317 36.9581 71.078 36.7788 70.9244 36.5996C70.7708 36.4204 70.6043 36.2411 70.4379 36.0747C70.2715 35.9083 70.105 35.7418 69.9258 35.5882C69.7466 35.4346 69.5673 35.2809 69.3753 35.1273C69.1832 34.9865 69.004 34.8456 68.7992 34.7048C68.6071 34.5768 68.4023 34.4488 68.1974 34.3207C67.9926 34.2055 67.7878 34.0903 67.5701 33.9751C67.3653 33.8726 67.1476 33.7702 66.93 33.6678C66.7123 33.5782 66.4947 33.4886 66.2642 33.4118C66.0466 33.3349 65.8162 33.2581 65.5857 33.1941C65.3553 33.1301 65.1248 33.0661 64.8944 33.0277C64.6639 32.9765 64.4335 32.9381 64.1902 32.8996C63.9598 32.8612 63.7165 32.8356 63.4861 32.8228C63.2556 32.7972 63.0124 32.7972 62.7819 32.7844C62.5387 32.7844 62.3082 32.7844 62.0778 32.7972C61.8473 32.81 61.6041 32.8228 61.3736 32.8484C61.1432 32.874 60.8999 32.9125 60.6695 32.9509C60.4391 32.9893 60.2086 33.0405 59.9782 33.0917C59.7477 33.1429 59.5173 33.2069 59.2996 33.2837C59.0692 33.3605 58.8515 33.4374 58.6339 33.5142C58.4162 33.6038 58.1986 33.6934 57.981 33.7958C57.7633 33.8983 57.5585 34.0007 57.3408 34.1159C58.5955 35.2937 59.7093 36.5868 60.7079 37.9823C61.7065 39.3778 62.5387 40.8629 63.2428 42.4376L64.6127 45.4846H71.8718C71.987 45.4846 72.1022 45.4718 72.2047 45.4462C72.3199 45.4206 72.4223 45.395 72.5247 45.3438C72.6272 45.3054 72.7296 45.2414 72.8192 45.1774C72.9088 45.1133 72.9984 45.0365 73.0752 44.9597C73.1521 44.8829 73.2289 44.7933 73.2929 44.7037C73.3569 44.614 73.4081 44.5116 73.4593 44.4092C73.4977 44.3068 73.5361 44.1916 73.5617 44.0891C73.5873 43.9739 73.6001 43.8715 73.6001 43.7563C73.6001 43.5258 73.5873 43.2826 73.5745 43.0521Z" fill="url(#paint6_linear_1199_1389)"/>
<defs>
<linearGradient id="paint0_linear_1199_1389" x1="55.6886" y1="68.5932" x2="55.6886" y2="46.631" gradientUnits="userSpaceOnUse">
<stop stop-color="#16489E"/>
<stop offset="1" stop-color="#02A7EB"/>
</linearGradient>
<linearGradient id="paint1_linear_1199_1389" x1="39.4996" y1="27.0103" x2="39.4996" y2="0.406494" gradientUnits="userSpaceOnUse">
<stop stop-color="#16489E"/>
<stop offset="1" stop-color="#02A7EB"/>
</linearGradient>
<linearGradient id="paint2_linear_1199_1389" x1="16.3586" y1="29.3117" x2="16.3586" y2="11.9733" gradientUnits="userSpaceOnUse">
<stop stop-color="#16489E"/>
<stop offset="1" stop-color="#02A7EB"/>
</linearGradient>
<linearGradient id="paint3_linear_1199_1389" x1="62.59" y1="29.3117" x2="62.59" y2="11.9733" gradientUnits="userSpaceOnUse">
<stop stop-color="#16489E"/>
<stop offset="1" stop-color="#02A7EB"/>
</linearGradient>
<linearGradient id="paint4_linear_1199_1389" x1="38.7449" y1="54.7413" x2="38.7449" y2="30.4676" gradientUnits="userSpaceOnUse">
<stop stop-color="#16489E"/>
<stop offset="1" stop-color="#02A7EB"/>
</linearGradient>
<linearGradient id="paint5_linear_1199_1389" x1="13.5237" y1="45.4976" x2="13.5237" y2="32.7827" gradientUnits="userSpaceOnUse">
<stop stop-color="#16489E"/>
<stop offset="1" stop-color="#02A7EB"/>
</linearGradient>
<linearGradient id="paint6_linear_1199_1389" x1="65.4705" y1="45.4846" x2="65.4705" y2="32.7698" gradientUnits="userSpaceOnUse">
<stop stop-color="#16489E"/>
<stop offset="1" stop-color="#02A7EB"/>
</linearGradient>
</defs>
</svg>
