<svg width="79" height="69" viewBox="0 0 79 69" fill="none" xmlns="http://www.w3.org/2000/svg">
<path fill-rule="evenodd" clip-rule="evenodd" d="M49.8712 61.9306V7.07056H22.9453V61.9306H49.8712ZM38.8041 12.909H42.9374V16.6083H38.8041V12.909ZM38.8041 19.9367H42.9374V23.636H38.8041V19.9367ZM38.8041 26.9644H42.9374V30.6637H38.8041V26.9644ZM38.8041 33.9921H42.9374V37.6902H38.8041V33.9921ZM29.8779 12.9102H34.0125V16.6095H29.8779V12.9102ZM29.8779 19.938H34.0125V23.6372H29.8779V19.938ZM29.8779 26.9657H34.0125V30.6649H29.8779V26.9657ZM29.8779 33.9934H34.0125V37.6914H29.8779V33.9934ZM29.752 42.2699H43.0608V60.6694H29.7558L29.752 42.2699Z" fill="url(#paint0_linear_1199_1372)"/>
<path fill-rule="evenodd" clip-rule="evenodd" d="M21.6636 20.9041H1.45117V61.9307H21.6636V20.9041ZM9.16282 57.3224H5.02821V53.6232H9.16282V57.3224ZM9.16282 50.2947H5.02821V46.5917H9.16282V50.2947ZM9.16282 43.267H5.02821V39.5677H9.16282V43.267ZM9.16282 36.2393H5.02821V32.5413H9.16282V36.2393ZM9.16282 29.2116H5.02821V25.5098H9.16282V29.2116ZM18.0878 57.3224H13.9532V53.6232H18.0878V57.3224ZM18.0878 50.2947H13.9532V46.5917H18.0878V50.2947ZM18.0878 43.267H13.9532V39.5677H18.0878V43.267ZM18.0878 36.2393H13.9532V32.5413H18.0878V36.2393ZM18.0878 29.2116H13.9532V25.5098H18.0878V29.2116Z" fill="url(#paint1_linear_1199_1372)"/>
<path d="M21.6623 15.3335H1.45117V19.6429H21.6623V15.3335Z" fill="url(#paint2_linear_1199_1372)"/>
<path d="M71.3635 15.3335H51.1523V19.6429H71.3635V15.3335Z" fill="url(#paint3_linear_1199_1372)"/>
<path fill-rule="evenodd" clip-rule="evenodd" d="M49.8714 1.50248V1.5H22.9455V1.50248H22.8271V5.85279H49.8714V1.50248Z" fill="url(#paint4_linear_1199_1372)"/>
<path d="M56.2221 61.0787C56.1177 60.8877 56.0283 60.7067 55.9389 60.5194C55.8496 60.3322 55.7589 60.1474 55.6872 59.9601L55.4632 59.386C55.3889 59.195 55.3285 58.9891 55.2693 58.7969C55.2102 58.6047 55.1498 58.4001 55.1045 58.1942C55.0591 57.9884 55.0151 57.7961 54.9698 57.5903C54.9496 57.5035 54.9333 57.4129 54.9182 57.3224H54.7306V53.6232H54.8187C54.8326 53.5078 54.8489 53.3925 54.8653 53.2772C54.8955 53.0862 54.9257 52.8791 54.9698 52.6732C55.0138 52.4674 55.0604 52.2764 55.1045 52.0693C55.1485 51.8622 55.2089 51.6576 55.2693 51.4666C55.3297 51.2756 55.3889 51.0685 55.4632 50.8776L55.6872 50.3034V50.2947H54.7269V46.5917H58.0899C58.2158 46.4677 58.3417 46.335 58.4675 46.2073C58.6173 46.0597 58.7809 45.9134 58.9307 45.7807C59.0805 45.648 59.2441 45.5004 59.409 45.3677C59.5739 45.235 59.7375 45.1036 59.9024 44.9858C60.0672 44.868 60.2309 44.7502 60.4058 44.6324C60.5808 44.5145 60.7645 44.4116 60.9433 44.3087C61.122 44.2058 61.3208 44.1028 61.497 43.9999C61.6733 43.897 61.8746 43.8077 62.0647 43.7196C62.2547 43.6316 62.4423 43.5435 62.6323 43.4716L63.2151 43.2509C63.3573 43.1975 63.5071 43.1517 63.6543 43.107V39.5677H67.7877V42.5353C67.9136 42.5353 68.0394 42.5353 68.1653 42.5353L68.7946 42.5787C69.0048 42.5936 69.2137 42.6234 69.4239 42.6519C69.6341 42.6804 69.8267 42.7114 70.0369 42.7561C70.2471 42.8007 70.4396 42.8441 70.6486 42.8875C70.8575 42.9309 71.0677 42.9904 71.2615 43.05L71.3735 43.0835V20.9041H51.1523V61.9307H56.7306C56.6626 61.8277 56.5972 61.7261 56.5368 61.6231C56.4323 61.447 56.3278 61.2561 56.2221 61.0787ZM63.6481 25.5135H67.7814V29.2116H63.6543L63.6481 25.5135ZM63.6481 32.5413H67.7814V36.2393H63.6543L63.6481 32.5413ZM54.7281 25.5098H58.8627V29.2078H54.7281V25.5098ZM54.7281 32.5375H58.8627V36.2356H54.7281V32.5375ZM54.7281 39.564H58.8627V43.2633H54.7281V39.564Z" fill="url(#paint5_linear_1199_1372)"/>
<path d="M63.813 67.2173C63.6179 67.1591 63.409 67.0933 63.2152 67.0264L62.6324 66.8056C62.4524 66.7312 62.2548 66.6432 62.0648 66.5576C61.8747 66.472 61.6759 66.3803 61.4971 66.2773C61.3184 66.1744 61.1195 66.0715 60.9433 65.9686C60.7671 65.8656 60.5859 65.7478 60.4059 65.63C60.2259 65.5122 60.0623 65.3944 59.9024 65.2766C59.7426 65.1588 59.5727 65.0285 59.4091 64.8946C59.2454 64.7607 59.0806 64.6144 58.9308 64.4817C58.7691 64.3464 58.6145 64.2032 58.4676 64.0526C58.3157 63.9128 58.1712 63.7655 58.0346 63.6111C57.9088 63.461 57.7829 63.3222 57.657 63.1733H0.5V67.5001H64.9873C64.7973 67.4592 64.6173 67.4182 64.4247 67.3761C64.2321 67.3339 64.0056 67.2769 63.813 67.2173Z" fill="url(#paint6_linear_1199_1372)"/>
<path d="M78.4494 54.0548C78.4368 53.8812 78.4116 53.7076 78.3865 53.534C78.3613 53.3604 78.3361 53.1867 78.2983 53.0255C78.2606 52.8643 78.2228 52.6907 78.1851 52.5171C78.1473 52.3435 78.097 52.1822 78.0466 52.0086C77.9963 51.835 77.9333 51.6738 77.883 51.5126L77.6942 51.0289C77.6313 50.8677 77.5558 50.7065 77.4802 50.5577C77.4047 50.4089 77.3292 50.2477 77.2411 50.0865C77.153 49.9252 77.0649 49.7764 76.9768 49.6276C76.8887 49.4788 76.788 49.33 76.6873 49.1812C76.5866 49.0324 76.4859 48.896 76.3852 48.7595C76.2845 48.6231 76.1713 48.4867 76.058 48.3503C75.9447 48.2139 75.8314 48.0899 75.7056 47.9535C75.5904 47.8234 75.4685 47.6993 75.3406 47.5814C75.2147 47.4574 75.0888 47.3334 74.963 47.2218C74.8371 47.1102 74.6987 46.9862 74.5602 46.8746C74.4218 46.763 74.2833 46.6513 74.1449 46.5521C74.0064 46.4529 73.8554 46.3537 73.7169 46.2545C73.5785 46.1553 73.4148 46.0685 73.2638 45.9693C73.1128 45.8701 72.9617 45.7957 72.7981 45.7089C72.6345 45.6221 72.4835 45.5476 72.3198 45.4732C72.1562 45.3988 71.9926 45.3244 71.8416 45.2624L71.3507 45.0764C71.1871 45.0144 71.0109 44.9648 70.8472 44.9152C70.6836 44.8656 70.5074 44.816 70.3312 44.7788L69.8152 44.6672C69.6389 44.63 69.4627 44.6052 69.2991 44.5804C69.1355 44.5556 68.9467 44.5308 68.7705 44.5184L68.2419 44.4812C68.0657 44.4688 67.8895 44.4688 67.7132 44.4688C67.537 44.4688 67.3608 44.4688 67.1846 44.4812L66.656 44.5184C66.4798 44.5308 66.3036 44.5556 66.1274 44.5804C65.9512 44.6052 65.7749 44.63 65.6113 44.6672L65.0953 44.7788C64.9191 44.816 64.7555 44.8656 64.5792 44.9152C64.403 44.9648 64.2394 45.0144 64.0758 45.0764L63.5849 45.2624C63.4213 45.3244 63.2577 45.3988 63.1066 45.4732C62.9556 45.5476 62.792 45.6221 62.6284 45.7089C62.4647 45.7957 62.3137 45.8825 62.1627 45.9693C62.0116 46.0561 61.8606 46.1553 61.7096 46.2421C61.5585 46.3289 61.4201 46.4405 61.2816 46.5397C61.1432 46.6389 61.0047 46.7506 60.8663 46.8622C60.7278 46.9738 60.602 47.0854 60.4635 47.2094C60.3251 47.3334 60.1992 47.445 60.0733 47.569C59.9475 47.693 59.8216 47.8171 59.7083 47.9411C59.5884 48.0676 59.4749 48.2001 59.3685 48.3379C59.2552 48.4743 59.142 48.6107 59.0413 48.7471C58.9406 48.8835 58.8399 49.0324 58.7392 49.1688C58.6385 49.3052 58.5504 49.4664 58.4497 49.6152C58.349 49.764 58.2735 49.9128 58.1854 50.0741C58.0973 50.2353 58.0218 50.3841 57.9462 50.5453C57.8707 50.7065 57.7952 50.8677 57.7323 51.0165L57.5435 51.5002C57.4806 51.6614 57.4302 51.835 57.3799 51.9962C57.3295 52.1574 57.2792 52.3311 57.2414 52.5047C57.2037 52.6783 57.1659 52.8395 57.1281 53.0131C57.0904 53.1867 57.0652 53.3604 57.04 53.5216C57.0149 53.6828 56.9897 53.8688 56.9771 54.0424L56.9393 54.5633C56.9268 54.7369 56.9268 54.9105 56.9268 55.0841C56.9268 55.2577 56.9268 55.4313 56.9393 55.605L56.9771 56.1258C56.9897 56.2994 57.0149 56.473 57.04 56.6466C57.0652 56.8203 57.0904 56.9939 57.1281 57.1551C57.1659 57.3163 57.2037 57.4899 57.2414 57.6635C57.2792 57.8372 57.3295 57.9984 57.3799 58.172C57.4302 58.3456 57.4806 58.5068 57.5435 58.668L57.7323 59.1517C57.7952 59.3129 57.8707 59.4741 57.9462 59.6229C58.0218 59.7717 58.0973 59.9329 58.1854 60.0942C58.2735 60.2554 58.3616 60.4042 58.4497 60.553C58.5378 60.7018 58.6385 60.8506 58.7392 60.9994C58.8399 61.1483 58.9406 61.2847 59.0413 61.4211C59.142 61.5575 59.2552 61.6939 59.3685 61.8303C59.4818 61.9667 59.5951 62.0907 59.7083 62.2272C59.8235 62.3572 59.9454 62.4813 60.0733 62.5992C60.1992 62.7232 60.3251 62.8472 60.4635 62.9588C60.602 63.0704 60.7278 63.1944 60.8663 63.306C61.0047 63.4177 61.1432 63.5293 61.2816 63.6285C61.4201 63.7277 61.5711 63.8269 61.7096 63.9261C61.848 64.0253 62.0116 64.1121 62.1627 64.2113C62.3137 64.3105 62.4647 64.3849 62.6284 64.4718C62.792 64.5586 62.943 64.633 63.1066 64.7074C63.2703 64.7818 63.4339 64.8562 63.5849 64.9182L64.0758 65.1042C64.2394 65.1662 64.4156 65.2158 64.5792 65.2654C64.7429 65.315 64.9191 65.3646 65.0953 65.4018L65.6113 65.5135C65.7875 65.5507 65.9637 65.5755 66.1274 65.6003C66.291 65.6251 66.4798 65.6499 66.656 65.6623L67.1846 65.6995C67.3608 65.7119 67.537 65.7119 67.7132 65.7119C67.8895 65.7119 68.0657 65.7119 68.2419 65.6995L68.7705 65.6623C68.9467 65.6499 69.1229 65.6251 69.2991 65.6003C69.4753 65.5755 69.6515 65.5507 69.8152 65.5135L70.3312 65.4018C70.5074 65.3646 70.671 65.315 70.8472 65.2654C71.0234 65.2158 71.1871 65.1662 71.3507 65.1042L71.8416 64.9182C72.0052 64.8562 72.1688 64.7818 72.3198 64.7074C72.4709 64.633 72.6345 64.5586 72.7981 64.4718C72.9617 64.3849 73.1128 64.2981 73.2638 64.2113C73.4148 64.1245 73.5659 64.0253 73.7169 63.9261C73.868 63.8269 74.0064 63.7277 74.1449 63.6285C74.2833 63.5293 74.4218 63.4177 74.5602 63.306C74.6987 63.1944 74.8245 63.0828 74.963 62.9588C75.0949 62.8453 75.221 62.7253 75.3406 62.5992C75.4664 62.4752 75.5923 62.3512 75.7056 62.2272C75.8188 62.1031 75.9447 61.9667 76.058 61.8303C76.1713 61.6939 76.2845 61.5575 76.3852 61.4211C76.4859 61.2847 76.5866 61.1359 76.6873 60.9994C76.788 60.863 76.8761 60.7018 76.9768 60.553C77.0775 60.4042 77.153 60.2554 77.2411 60.0942C77.3292 59.9329 77.4047 59.7841 77.4802 59.6229C77.5558 59.4617 77.6313 59.3129 77.6942 59.1517L77.883 58.668C77.9459 58.5068 77.9963 58.3332 78.0466 58.172C78.097 58.0108 78.1473 57.8372 78.1851 57.6635C78.2228 57.4899 78.2606 57.3287 78.2983 57.1551C78.3361 56.9815 78.3613 56.8079 78.3865 56.6466C78.4116 56.4854 78.4368 56.2994 78.4494 56.1258L78.4871 55.605C78.4997 55.4313 78.4997 55.2577 78.4997 55.0841C78.4997 54.9105 78.4997 54.7369 78.4871 54.5633C78.4746 54.3896 78.462 54.2284 78.4494 54.0548ZM73.9435 55.2577C73.9413 55.3122 73.9328 55.3663 73.9183 55.4189C73.9057 55.4685 73.8931 55.5305 73.8805 55.5802C73.868 55.6298 73.8428 55.6794 73.8302 55.7414L73.7547 55.8902C73.7328 55.94 73.7031 55.986 73.6666 56.0266C73.6372 56.0749 73.6035 56.1206 73.5659 56.163C73.5281 56.2002 73.4904 56.2498 73.4526 56.287C73.4135 56.3273 73.3715 56.3646 73.3267 56.3986C73.2828 56.4346 73.2366 56.4678 73.1883 56.4978C73.1404 56.5239 73.0941 56.5529 73.0498 56.5846L72.8988 56.659C72.8468 56.6829 72.7918 56.6995 72.7352 56.7087L72.5716 56.7459C72.5181 56.7602 72.4633 56.7685 72.4079 56.7707C72.3576 56.7707 72.2947 56.7831 72.2443 56.7831H69.3998V59.5857C69.4019 59.6397 69.3977 59.6938 69.3872 59.7469C69.385 59.8014 69.3766 59.8555 69.3621 59.9081C69.3495 59.9577 69.3369 60.0198 69.3243 60.0694C69.3117 60.119 69.2865 60.1686 69.2739 60.2306L69.1984 60.3794C69.1766 60.4292 69.1468 60.4752 69.1103 60.5158C69.0809 60.5641 69.0473 60.6098 69.0096 60.6522C68.9719 60.6894 68.9341 60.739 68.8964 60.7762C68.8573 60.8165 68.8152 60.8538 68.7705 60.8878C68.7266 60.9238 68.6803 60.957 68.632 60.987C68.5817 61.0118 68.5439 61.049 68.4936 61.0738L68.3426 61.1483C68.2906 61.1721 68.2355 61.1887 68.1789 61.1979L68.0153 61.2351C67.9619 61.2494 67.907 61.2577 67.8517 61.2599C67.8013 61.2599 67.7384 61.2723 67.6881 61.2723C67.6332 61.2743 67.5783 61.2702 67.5244 61.2599C67.4691 61.2577 67.4142 61.2494 67.3608 61.2351L67.1972 61.1979C67.1469 61.1855 67.0965 61.1607 67.0336 61.1483L66.8825 61.0738C66.832 61.0523 66.7853 61.023 66.7441 60.987C66.695 60.9581 66.6487 60.9249 66.6056 60.8878C66.5679 60.8506 66.5175 60.8134 66.4798 60.7762C66.4389 60.7377 66.4011 60.6963 66.3665 60.6522C66.33 60.6089 66.2963 60.5634 66.2658 60.5158C66.2393 60.4686 66.2099 60.423 66.1777 60.3794L66.1022 60.2306C66.078 60.1793 66.0611 60.1251 66.0518 60.0694C66.0393 60.0198 66.0267 59.9577 66.0141 59.9081C65.9996 59.8555 65.9911 59.8014 65.9889 59.7469C65.9889 59.6973 65.9763 59.6353 65.9763 59.5857V56.7831H63.1318C63.077 56.7851 63.0221 56.7809 62.9682 56.7707C62.9129 56.7685 62.858 56.7602 62.8046 56.7459L62.641 56.7087C62.5906 56.6963 62.5403 56.6715 62.4773 56.659L62.3263 56.5846C62.2758 56.5631 62.229 56.5338 62.1878 56.4978C62.1388 56.4689 62.0925 56.4357 62.0494 56.3986C62.0116 56.3614 61.9613 56.3242 61.9235 56.287C61.8827 56.2485 61.8448 56.2071 61.8103 56.163C61.7737 56.1197 61.7401 56.0742 61.7096 56.0266C61.6844 55.977 61.6466 55.9398 61.6215 55.8902L61.5459 55.7414C61.5218 55.6901 61.5048 55.6359 61.4956 55.5802C61.483 55.5305 61.4704 55.4685 61.4578 55.4189C61.4433 55.3663 61.4349 55.3122 61.4327 55.2577C61.4327 55.2081 61.4201 55.1461 61.4201 55.0965C61.418 55.0425 61.4222 54.9884 61.4327 54.9353C61.4349 54.8808 61.4433 54.8267 61.4578 54.7741C61.4704 54.7245 61.483 54.6625 61.4956 54.6129C61.5082 54.5633 61.5334 54.5137 61.5459 54.4517L61.6215 54.3028C61.6433 54.2531 61.673 54.207 61.7096 54.1664C61.7389 54.1181 61.7726 54.0724 61.8103 54.03C61.848 53.9928 61.8858 53.9432 61.9235 53.906C61.9626 53.8658 62.0047 53.8284 62.0494 53.7944C62.0933 53.7584 62.1396 53.7253 62.1878 53.6952C62.2382 53.6704 62.2759 53.6332 62.3263 53.6084L62.4773 53.534C62.5293 53.5102 62.5844 53.4935 62.641 53.4844L62.8046 53.4472C62.858 53.4329 62.9129 53.4245 62.9682 53.4224C63.0185 53.4224 63.0815 53.41 63.1318 53.41H65.9763V50.6073C65.9742 50.5533 65.9785 50.4992 65.9889 50.4461C65.9911 50.3916 65.9996 50.3375 66.0141 50.2849C66.0267 50.2353 66.0393 50.1733 66.0518 50.1237C66.0644 50.0741 66.0896 50.0245 66.1022 49.9624L66.1777 49.8136C66.1996 49.7639 66.2293 49.7178 66.2658 49.6772C66.2952 49.6289 66.3289 49.5832 66.3665 49.5408C66.4043 49.5036 66.442 49.454 66.4798 49.4168C66.5188 49.3766 66.5609 49.3392 66.6056 49.3052C66.6496 49.2692 66.6958 49.2361 66.7441 49.206C66.792 49.1799 66.8383 49.1509 66.8825 49.1192L67.0336 49.0448C67.0856 49.021 67.1406 49.0043 67.1972 48.9952L67.3608 48.958C67.4142 48.9437 67.4691 48.9353 67.5244 48.9332C67.5748 48.9332 67.6377 48.9208 67.6881 48.9208C67.7429 48.9187 67.7978 48.9229 67.8517 48.9332C67.907 48.9353 67.9619 48.9437 68.0153 48.958L68.1789 48.9952C68.2293 49.0076 68.2796 49.0324 68.3426 49.0448L68.4936 49.1192C68.5441 49.1407 68.5909 49.17 68.632 49.206C68.6811 49.2349 68.7274 49.2681 68.7705 49.3052C68.8083 49.3424 68.8586 49.3796 68.8964 49.4168C68.9372 49.4553 68.9751 49.4967 69.0096 49.5408C69.0462 49.5841 69.0798 49.6296 69.1103 49.6772C69.1355 49.7268 69.1733 49.764 69.1984 49.8136L69.2739 49.9624C69.2981 50.0137 69.315 50.0679 69.3243 50.1237C69.3369 50.1733 69.3495 50.2353 69.3621 50.2849C69.3766 50.3375 69.385 50.3916 69.3872 50.4461C69.3872 50.4957 69.3998 50.5577 69.3998 50.6073V53.4124H72.2443C72.2992 53.4104 72.3541 53.4146 72.4079 53.4248C72.4633 53.427 72.5181 53.4353 72.5716 53.4496L72.7352 53.4868C72.7855 53.4992 72.8359 53.524 72.8988 53.5364L73.0498 53.6109C73.1004 53.6324 73.1471 53.6617 73.1883 53.6977C73.2374 53.7266 73.2837 53.7598 73.3267 53.7969C73.3645 53.8341 73.4148 53.8713 73.4526 53.9085C73.4935 53.947 73.5313 53.9884 73.5659 54.0325C73.6024 54.0758 73.636 54.1213 73.6666 54.1689C73.6931 54.2161 73.7225 54.2617 73.7547 54.3053L73.8302 54.4541C73.8544 54.5054 73.8713 54.5596 73.8805 54.6153C73.8931 54.665 73.9057 54.727 73.9183 54.7766C73.9328 54.8292 73.9413 54.8833 73.9435 54.9378C73.9435 54.9874 73.9561 55.0494 73.9561 55.099C73.9596 55.152 73.9571 55.2053 73.9485 55.2577H73.9435Z" fill="url(#paint7_linear_1199_1372)"/>
<defs>
<linearGradient id="paint0_linear_1199_1372" x1="14.2557" y1="47.1014" x2="58.2288" y2="21.3353" gradientUnits="userSpaceOnUse">
<stop stop-color="#16489E"/>
<stop offset="1" stop-color="#02A7EB"/>
</linearGradient>
<linearGradient id="paint1_linear_1199_1372" x1="-5.03582" y1="50.8565" x2="27.904" y2="31.5541" gradientUnits="userSpaceOnUse">
<stop stop-color="#16489E"/>
<stop offset="1" stop-color="#02A7EB"/>
</linearGradient>
<linearGradient id="paint2_linear_1199_1372" x1="3.03076" y1="22.3376" x2="19.9566" y2="12.4202" gradientUnits="userSpaceOnUse">
<stop stop-color="#16489E"/>
<stop offset="1" stop-color="#02A7EB"/>
</linearGradient>
<linearGradient id="paint3_linear_1199_1372" x1="52.7319" y1="22.3376" x2="69.6566" y2="12.4202" gradientUnits="userSpaceOnUse">
<stop stop-color="#16489E"/>
<stop offset="1" stop-color="#02A7EB"/>
</linearGradient>
<linearGradient id="paint4_linear_1199_1372" x1="25.2525" y1="9.99105" x2="47.2828" y2="-2.91863" gradientUnits="userSpaceOnUse">
<stop stop-color="#16489E"/>
<stop offset="1" stop-color="#02A7EB"/>
</linearGradient>
<linearGradient id="paint5_linear_1199_1372" x1="42.834" y1="47.7351" x2="75.7751" y2="28.4327" gradientUnits="userSpaceOnUse">
<stop stop-color="#16489E"/>
<stop offset="1" stop-color="#02A7EB"/>
</linearGradient>
<linearGradient id="paint6_linear_1199_1372" x1="7.61128" y1="79.6346" x2="62.9586" y2="47.2019" gradientUnits="userSpaceOnUse">
<stop stop-color="#16489E"/>
<stop offset="1" stop-color="#02A7EB"/>
</linearGradient>
<linearGradient id="paint7_linear_1199_1372" x1="67.7132" y1="65.7119" x2="67.7132" y2="44.4377" gradientUnits="userSpaceOnUse">
<stop stop-color="#16489E"/>
<stop offset="1" stop-color="#02A7EB"/>
</linearGradient>
</defs>
</svg>
