<?xml version="1.0" encoding="utf-8"?>
<!-- Generator: Adobe Illustrator 24.3.0, SVG Export Plug-In . SVG Version: 6.00 Build 0)  -->
<svg version="1.1" id="Layer_1" xmlns="http://www.w3.org/2000/svg" xmlns:xlink="http://www.w3.org/1999/xlink" x="0px" y="0px"
	 viewBox="0 0 2500 2235" style="enable-background:new 0 0 2500 2235;" xml:space="preserve">
<style type="text/css">
	.st0{fill:none;}
</style>
<g id="Layer_x0020_1">
	<rect x="0" y="0.2" class="st0" width="2500" height="2234.5"/>
	<path d="M968.5,2101.5v-130.3c0-19,15.4-34.4,34.4-34.4s34.4,15.4,34.4,34.4v130.3h114.6v-194.6c0-39.4-16.1-75.2-42.1-101.2
		c-26-26-61.8-42.1-101.2-42.1H514.2c-39.4,0-75.2,16.1-101.2,42.1c-26,26-42.1,61.8-42.1,101.2v194.6h114.7v-130.3
		c0-19,15.4-34.4,34.4-34.4c19,0,34.4,15.4,34.4,34.4v130.3H968.5L968.5,2101.5z M1717.1,1403.8v-62c0-19,15.4-34.4,34.4-34.4
		c19,0,34.4,15.4,34.4,34.4v62h38.6v-99.6c0-19.1-7.8-36.5-20.5-49.1c-12.6-12.6-30-20.5-49.1-20.5h-289.4
		c-19.1,0-36.5,7.8-49.1,20.5c-12.6,12.6-20.5,30-20.5,49.1v99.6h38.6v-62c0-19,15.4-34.4,34.4-34.4s34.4,15.4,34.4,34.4v62
		L1717.1,1403.8L1717.1,1403.8z M1607.5,743.2c57.5,0,109.6,23.3,147.2,61c37.7,37.7,61,89.7,61,147.2c0,57.5-23.3,109.5-61,147.2
		c-37.7,37.7-89.7,61-147.2,61c-57.5,0-109.5-23.3-147.2-61c-37.7-37.7-61-89.7-61-147.2c0-57.5,23.3-109.5,61-147.2
		C1498,766.5,1550,743.2,1607.5,743.2z M1706.1,852.8c-25.2-25.2-60.1-40.8-98.6-40.8c-38.5,0-73.4,15.6-98.6,40.8
		c-25.2,25.2-40.8,60.1-40.8,98.6c0,38.5,15.6,73.4,40.8,98.6c25.2,25.2,60.1,40.8,98.6,40.8c38.5,0,73.4-15.6,98.6-40.8
		c25.2-25.2,40.8-60.1,40.8-98.6C1747,912.9,1731.4,878.1,1706.1,852.8z M1858.9,1472.6h-497.4c-19,0-34.4-15.4-34.4-34.4v-134
		c0-38.1,15.6-72.7,40.6-97.8c25.1-25.1,59.7-40.6,97.8-40.6h289.4c38.1,0,72.7,15.6,97.8,40.6c25.1,25.1,40.6,59.7,40.6,97.8v134
		C1893.3,1457.2,1877.9,1472.6,1858.9,1472.6L1858.9,1472.6z M756.8,973.1c91.5,0,174.3,37.1,234.3,97c60,60,97,142.8,97,234.3
		c0,91.5-37.1,174.3-97,234.3c-60,60-142.8,97-234.3,97c-91.5,0-174.3-37.1-234.3-97c-60-60-97-142.8-97-234.3
		c0-91.5,37.1-174.3,97-234.3C582.5,1010.2,665.4,973.1,756.8,973.1z M942.5,1118.7c-47.5-47.5-113.2-76.9-185.7-76.9
		c-72.5,0-138.2,29.4-185.7,76.9c-47.5,47.5-76.9,113.2-76.9,185.7c0,72.5,29.4,138.2,76.9,185.7c47.5,47.5,113.2,76.9,185.7,76.9
		c72.5,0,138.2-29.4,185.7-76.9c47.5-47.5,76.9-113.2,76.9-185.7C1019.4,1231.9,990,1166.2,942.5,1118.7z M1186.3,2170.2H336.5
		c-19,0-34.4-15.4-34.4-34.4v-228.9c0-58.3,23.8-111.4,62.3-149.8c38.4-38.4,91.4-62.3,149.8-62.3h494.4
		c58.3,0,111.4,23.8,149.8,62.3c38.4,38.4,62.3,91.4,62.3,149.8v228.9C1220.7,2154.8,1205.3,2170.2,1186.3,2170.2z M1615.3,666.3
		c-19,0-34.4-15.4-34.4-34.4c0-19,15.4-34.4,34.4-34.4h413.2c19,0,34.4,15.4,34.4,34.4v907.7h100.6c19,0,34.4,15.4,34.4,34.4
		c0,3.7-0.6,7.3-1.7,10.7l-62.7,234.2c-4.1,15.4-18,25.5-33.2,25.5v0h-710.4c-19,0-34.4-15.4-34.4-34.4c0-19,15.4-34.4,34.4-34.4
		h684.1l44.8-167.3h-549.6v70.8c0,19-15.4,34.4-34.4,34.4h-352.9c-19,0-34.4-15.4-34.4-34.4v-70.8H1065c-19,0-34.4-15.4-34.4-34.4
		c0-19,15.4-34.4,34.4-34.4h116.9c19,0,34.4,15.4,34.4,34.4v70.8h284.1V1574c0-19,15.4-34.4,34.4-34.4h459.3V666.3L1615.3,666.3
		L1615.3,666.3z M806.9,64.8h412.6c92.3,0,176.2,37.7,237,98.5s98.5,144.7,98.5,237v83.6c0,92.3-37.7,176.2-98.5,237
		c-56.3,56.3-132.4,92.8-216.7,97.9v236.6c0,19-15.4,34.4-34.4,34.4c-9.2,0-17.6-3.6-23.7-9.5L885.2,819.4h-78.4
		c-92.3,0-176.2-37.7-237-98.5c-60.8-60.8-98.5-144.7-98.5-237v-83.6c0-92.3,37.7-176.2,98.5-237C630.7,102.5,714.6,64.8,806.9,64.8
		L806.9,64.8z M1219.4,133.6H806.9c-73.3,0-140,30-188.3,78.4c-48.4,48.4-78.4,115-78.4,188.3v83.6c0,73.3,30,140,78.4,188.3
		c48.4,48.4,115,78.4,188.3,78.4h91.3v0c8.1,0,16.2,2.8,22.7,8.6L1171,979.3V785c0-19,15.4-34.4,34.4-34.4h14.1
		c73.3,0,140-30,188.3-78.4c48.4-48.4,78.4-115,78.4-188.3v-83.6c0-73.3-30-140-78.4-188.3S1292.8,133.6,1219.4,133.6L1219.4,133.6z
		 M748.9,385.5c-19,0-34.4-15.4-34.4-34.4c0-19,15.4-34.4,34.4-34.4h318.8c19,0,34.4,15.4,34.4,34.4c0,19-15.4,34.4-34.4,34.4H748.9
		z M748.9,595c-19,0-34.4-15.4-34.4-34.4c0-19,15.4-34.4,34.4-34.4h534.3c19,0,34.4,15.4,34.4,34.4c0,19-15.4,34.4-34.4,34.4H748.9z
		"/>
</g>
</svg>
