<?xml version="1.0" encoding="utf-8"?>
<!-- Generator: Adobe Illustrator 24.3.0, SVG Export Plug-In . SVG Version: 6.00 Build 0)  -->
<svg version="1.1" id="Layer_1" xmlns="http://www.w3.org/2000/svg" xmlns:xlink="http://www.w3.org/1999/xlink" x="0px" y="0px"
	 viewBox="0 0 2500 2235" style="enable-background:new 0 0 2500 2235;" xml:space="preserve">
<style type="text/css">
	.st0{fill:none;}
	.st1{fill-rule:evenodd;clip-rule:evenodd;}
</style>
<g id="Layer_x0020_1">
	<rect x="0" y="0.2" class="st0" width="2500" height="2234.5"/>
	<g id="_195347216">
		<path class="st1" d="M1099,1799.4c0.8,0.7,2.1,0.7,2.5,2.1c0.3,1.3,1.9,1.6,2.3,2c2.8,2.8,3.1,3.1,5.8,6c5.8-0.5,4.3-1.6,3.5,4.4
			c5.7-0.4,4.1-1.5,3.3,4.6c5.4-0.4,3.9-1.6,3.8,4l5.1,2.7c7.2-1.3,5.5-2.9,5.5,4.4c32.3,42.3,227.9,91.1,302.3,87.6
			c12.6-0.2,19.8-1.6,28.7,4.3c3.4,1.6,7.7-6.4,6.4,15.2c-0.8,13.6-2.1,10.3-7.2,14.5c2,7.1,3.5,5.9-3.7,4.3l-7.1,5.4
			c-60.6-5.2-372.4-0.5-460.1-0.6c-64.2-0.1-428.8,6.3-455.1-4.6c-5.7-26.6-5.9-258.8,1.7-279c34.9-10.8,478.8-5.2,551.5-3.4
			C1088.6,1727.6,1083.8,1751,1099,1799.4L1099,1799.4z M1950.5,1591.8l7.1-5.5l11.6-4.6c1,31.6,7.2,164.7-3.9,181.5l-1.3,6.6
			c1.3,6.2,2.6,4.9-3.7,4.2c0.7,6.1,1.6,4.2-5.1,2.8l-5.7,3.4c-40.7,19.2-65.8,32.8-119.6,44.6c-36.8,8.1-103.3,23.4-141,21.8
			c-6.8,3.1,7.9,0.1-10.2,3.7l-185.1,2.7c-19-3.2-4.7,0-11.3-4.6c-58.5,7.8-237.3-27.1-298.9-65.2c-22.7-14.1-23-19-22.9-50.8
			c0.2-49.3-0.7-99.1,0.4-148.3c45.9,11.1,54.8,30.1,173.6,52.1c156.3,28.9,373.4,25.3,529-14.6
			C1894.5,1613.6,1922.5,1599.6,1950.5,1591.8L1950.5,1591.8z M639.8,1547.6l448.6,0.1l-1.7,53.5l-446.4-0.1L639.8,1547.6
			L639.8,1547.6z M1928.9,1316.3c1.6-4.2-7.9-2.7,7.7-6.6l9-3l8.5-3.3l8-3.8l5.8-2.4c4.4,19.9,2.2,77.1,1.9,100.6
			c-0.2,13.5,6,86.1-5.1,94.6c-14.8,40.1-156.3,70-216.1,78.3c-148.9,20.7-389.3,19.3-525.6-38.2c-70.8-29.8-62.9-36.6-62.5-87.5
			c0.4-48.5,0-97.1,0-145.6c6.8,0.9,73.3,29.3,118.3,39.1c67.7,14.7,84.9,15.6,152.8,23.6c110.9,13.1,296.1,4.4,410.5-21.1
			L1928.9,1316.3L1928.9,1316.3z M535.8,1201.8c3-18.2,16.4-13.3,56.9-13.1c23.7,0.1,47.2-0.1,70.8,0c47.2,0,94.4,0.4,141.6,0.1
			c92.8-0.7,190.4-2.3,283,0.2l0.4,284c-4.8,4.3,0.7,2.3-8.2,4.4l-23.4,0.2c-91.4-2.1-497.2,7.2-515.6-5.3c-6.9,2.4-6.4,4.5-4.7-2.4
			c-6.9,0.9-4.2,1.4-1.4-6.3c-4-5-3.1,7.8-4.3-10.5c-0.2-43.2-0.4-86.6-0.2-129.8C530.9,1311.3,525.8,1207.9,535.8,1201.8z
			 M1833.1,1267.3c-4.1,2.8,2.9,0.6-8.6,5.1c-1.2,0.5-4.9,1.4-6.2,1.8c-5.9,1.4-10.1,1.3-15.6,2c-32,1.9-70.5,10.6-105.2,14
			c-112.3,11-224.5,8-335.7-8.6c-55.5-8.3-140.6-27.2-180.9-55.1c-30.9-21.4-20.6-49.4-20.7-96.2c-0.1-38.7-0.6-78.5,0.4-117.1
			c19.8,3.9,58.1,22.4,85.5,30.3c190.9,55.2,541.2,53,710-27.5c15-10.4,5.1-4.8,13.4-4.7l0.4,178.2c-0.1,3.2-0.1,8.5-0.6,11.5
			c-1.3,7.2-1.9,5.3-4.1,8.7C1952.3,1231.9,1872.5,1264.1,1833.1,1267.3L1833.1,1267.3z M639.7,1063c142.2,1,310.7-3,448.5,0.3
			l-1.5,53.7c-136.2,1.2-315.3-3.7-446.6,1.5L639.7,1063L639.7,1063z M1458.4,833.6c134.9-10.2,325-0.8,441.8,43.6
			c95.3,36.2,84.5,57.8-20.8,92c-171.5,55.7-497.9,53.4-651-6.4c-23.5-9.2-80-26.5-62.8-53.5c6.4-10,63.1-33.4,83.1-39.8
			C1309.7,850.1,1387.7,839,1458.4,833.6L1458.4,833.6z M1088.5,988.4c-5.4,5.7,6.3,4.2-15.4,6l-260-0.3
			c-41.2,0.5-251.3,6.4-272.6-4.3c-7.5,2.1-6.9,4.2-4.8-3l-1.4-6.5c-9.8-15.9-4-106.8-4.2-133.2l0.1-118.2
			c2.5-19.3,0.8-6.3,4.6-12.2c4.9-17,23.1-12.8,46.1-12.7c129.3,0.9,846-5.2,879.5,3.4c5.7,16.6,4.8,34.2,4.1,54.7
			c-84.3,3.9-184.6,19.4-257.4,46.1C1079.6,854.9,1087.2,899,1088.5,988.4L1088.5,988.4z M564.9,1063c8.4,10.2,5.5,40.6,2.8,54.1
			c-18.4,2.8-32.6,2.1-49.3,5c-30.5,19.4-55.6,35.6-58.1,82.9c-2.5,47.8,0.9,100.9,0,149.5c-1.8,103.5-12.4,195.4,103.9,193
			c7,6.7,2.7-6.7,5.5,11.5l-1.9,42.9l-29.8,1.5c-35.8,1.5-68.3,37.2-75.3,68.8c-4.2,19-4.4,267.7-1,286.8c6,33.5,38.8,68.5,78,71.3
			l28.8,1v0.7h71.1h800.5c68.2-4,95.9-37.1,96.7-108c131.5,1.4,499.3-13.1,502.4-171.8c4.3-220.6-3-457.4,0-680.9
			c0.6-44.3,0.5-89.5,0.1-133.8c-0.5-52.9-14.6-67-44.9-91.4c-90.1-72.4-318.3-87.8-455.7-87.5c-3.9-16.6-0.9-28.5-2.4-45.1
			c-1.5-15.8-7.1-23.4-9.9-35.8c-4.2-3.9-0.9,0-6.3-6.5c-9.6-11.4,6.6,12.3-2.9-4.8c-5.9,0.2-4.1,1.2-2.7-5.2
			c-5.8,0.6-4.3,1.8-3.9-4.3l-5.6-2.4l-5.1-2.5c-6.1,0.2-4.7,1.8-4.7-3.9c-32.7-25.3-133.5-14.9-182.4-15.1
			c-103-0.3-756.1-4.2-784.4,2.9c-74.4,18.5-67.4,90-67.5,132.6c-0.1,65.4-0.9,131.4-0.2,196.8
			C461.3,1031.2,498.9,1064.2,564.9,1063L564.9,1063z M926.7,1869.8l72,1.5l1.1-109.5l-74.6,2L926.7,1869.8z M710.4,1386.4
			l0.7-106.7l-71.4,0.7l-0.1,105.6L710.4,1386.4z M708.9,901.5l1.4-105.8l-71.2-0.1l0.7,106.2L708.9,901.5L708.9,901.5z
			 M995.3,901.2l2.7-104.9l-71.3-0.3l0.4,105.4L995.3,901.2L995.3,901.2z M640.6,1868.8l69.7,0.9l-0.4-105l-69.5-0.2L640.6,1868.8
			L640.6,1868.8z M996.8,1385.3l0.4-104.4l-69.9,1.4l-0.5,103.5L996.8,1385.3z M785.4,1386.5l67.9,0.4l-1.2-105.2l-66.7-1.9
			L785.4,1386.5z M785.4,1871.1l67.8,0.4l-1.4-107.2l-65.4,0.5L785.4,1871.1L785.4,1871.1z M787.6,901.6l63.3,0.3l2.4-105.8
			l-68.7-1.1L787.6,901.6z"/>
		<path d="M428,1510h-69.9c-94.2,0-179.9-38.5-241.9-100.6c-62.1-62.1-100.6-147.7-100.6-241.9c0-89.4,34.8-171.2,91.6-232.4
			c49.1-52.8,114.6-90.4,188-104.2l-0.2-11.4c0-131.6,53.4-250.8,139.7-337.1l0.2-0.2c86.3-86.3,205.5-139.7,337.1-139.7
			c46.6,0,91.9,6.8,135,19.5c31.8,9.4,62.3,22,91,37.5c56.1-83.7,131.1-153.7,218.9-203.9c95.3-54.5,205.7-85.7,323.3-85.7
			c180.1,0,343.3,73,461.3,191.1c118.1,118.1,191.1,281.2,191.1,461.3c0,17.7-0.8,35.4-2.2,53.2l-1.2,12.8
			c76.4,10.6,144.9,46.6,196.5,99.1c61,61.9,98.8,146.8,98.8,240c0,94.1-38.5,179.7-100.6,241.8l-0.2,0.2
			c-62.1,62-147.7,100.6-241.8,100.6H2072v-75.6h69.9c73.4,0,140.2-30,188.6-78.3c48.3-48.4,78.3-115.1,78.3-188.6
			c0-72.7-29.4-138.9-77-187.1c-47.7-48.4-113.5-78.8-185.9-79.9l-43.8-0.6l7.1-43.1c2.4-14.9,4.4-30.7,5.7-47.1
			c1.2-15.3,1.9-31.1,1.9-47.3c0-159.3-64.6-303.5-168.9-407.9c-104.4-104.3-248.6-168.9-407.9-168.9c-104,0-201.6,27.5-285.8,75.6
			c-87.4,49.9-160.4,122.1-211.5,208.6l-19.9,33.8l-33.1-21.4c-31.8-20.6-66.9-36.8-104.1-47.8c-35.8-10.5-73.9-16.2-113.7-16.2
			C661,418.1,560.6,463,488,535.5c-72.5,72.6-117.5,173-117.5,283.9l0.4,20.6l1.5,19.8l4,38.5l-38.7,3c-69,5.3-130.9,37-175.4,85
			c-44.1,47.7-71.1,111.4-71.1,181.2c0,73.4,30,140.1,78.4,188.5c48.4,48.4,115.1,78.4,188.5,78.4H428L428,1510L428,1510z"/>
	</g>
</g>
</svg>
