<?xml version="1.0" encoding="utf-8"?>
<!-- Generator: Adobe Illustrator 24.3.0, SVG Export Plug-In . SVG Version: 6.00 Build 0)  -->
<svg version="1.1" id="Layer_1" xmlns="http://www.w3.org/2000/svg" xmlns:xlink="http://www.w3.org/1999/xlink" x="0px" y="0px"
	 viewBox="0 0 2500 2235" style="enable-background:new 0 0 2500 2235;" xml:space="preserve">
<style type="text/css">
	.st0{fill-rule:evenodd;clip-rule:evenodd;}
	.st1{fill:none;}
</style>
<g id="Layer_x0020_1">
	<g id="_391982808">
		<path d="M1334.4,1004.2c9.4,2.3,18.3,5.8,26.6,10.3c7.6,4.1,14.8,9,21.3,14.7c6.5,5.7,12.5,12,17.6,19l1.3,1.7
			c2.2,3,3.8,5.2,6.7,8.3c3.6,3.9,7.6,7.4,11.9,10.6c4.3,3.2,8.9,5.9,13.7,8.2c5.8,2.8,11.9,4.9,18.2,6.4c6.2,1.4,12.6,2.2,19.1,2.2
			c4.9,0,9.8-0.4,14.6-1.3c4.8-0.8,9.6-2.1,14.2-3.7c3.5-1.2,6.9-2.7,10.1-4.4c3.3-1.7,6.5-3.6,9.5-5.6c2.7-1.9,5.1-3.9,7.6-5.9
			c3-2.5,6-5,9.5-7.2c2.2-1.3,4.4-2.6,6.7-3.7c2.3-1.1,4.7-2.1,7.1-2.9c3.7-1.3,7.5-2.3,11.5-2.9c3.9-0.6,7.9-1,11.9-1
			c9.6,0,18.7,1.9,27,5.4c8.6,3.6,16.4,8.8,22.9,15.3c6.5,6.5,11.8,14.3,15.3,22.9c3.5,8.3,5.4,17.5,5.4,27c0,9.6-1.9,18.7-5.4,27
			c-3.6,8.6-8.8,16.4-15.3,22.9c-6.5,6.5-14.3,11.8-22.9,15.3c-8.3,3.4-17.5,5.4-27,5.4c-4.1,0-8.1-0.3-11.9-1
			c-4-0.7-7.8-1.7-11.5-2.9c-2.4-0.8-4.8-1.8-7.1-2.9c-2.3-1.1-4.6-2.3-6.7-3.7c-3.5-2.2-6.5-4.7-9.6-7.2c-2.4-2-4.9-4-7.6-5.9
			c-3.1-2.1-6.3-4-9.5-5.6c-3.3-1.7-6.7-3.1-10.1-4.4c-4.6-1.6-9.4-2.9-14.2-3.7c-4.8-0.8-9.7-1.3-14.6-1.3
			c-6.5,0-12.9,0.7-19.1,2.2c-6.3,1.4-12.4,3.6-18.2,6.4c-4.8,2.3-9.4,5.1-13.7,8.2c-4.3,3.1-8.3,6.7-11.9,10.6
			c-2.9,3-4.5,5.3-6.7,8.3l-1.3,1.7c-5.2,7-11.1,13.4-17.6,19c-6.5,5.6-13.7,10.6-21.3,14.7c-8.3,4.4-17.2,7.9-26.6,10.3
			c-9.1,2.3-18.6,3.5-28.4,3.5c-32.2,0-61.5-13.1-82.6-34.2c-10.8-10.8-19.4-23.6-25.4-37.9c-5.7-13.8-8.8-28.9-8.8-44.7
			c0-15.8,3.1-30.9,8.8-44.7c5.9-14.3,14.6-27.2,25.4-37.9c10.8-10.8,23.6-19.4,37.9-25.4c13.8-5.7,28.9-8.8,44.7-8.8
			C1315.7,1000.7,1325.3,1001.9,1334.4,1004.2L1334.4,1004.2z"/>
		<path d="M1417.9,1229.9c13.9-13.9,32.2-20.9,50.5-20.9c18.3,0,36.6,7,50.5,20.9c14,14,20.9,32.2,20.9,50.5
			c0,18.3-7,36.6-20.9,50.5c-13.9,13.9-29.3,26.4-45.7,37.4c-16.5,11-34.1,20.3-52.5,27.9c-18.4,7.6-37.4,13.4-56.7,17.3
			c-19.2,3.9-38.9,5.8-58.6,5.8c-40.8,0-79.7-8.1-115.3-22.9c-35.5-14.7-67.6-36.1-94.8-62.5h-0.3l-3.1-3.1
			c-27.8-27.8-50.2-61.1-65.5-98.1c-14.8-35.6-22.9-74.6-22.9-115.4s8.1-79.8,22.9-115.4c15.3-37,37.8-70.3,65.5-98.1l4.1-3.8
			c27.7-26.7,60.4-48.1,96.5-62.8c34.9-14.1,73-21.9,112.9-21.9c19.7,0,39.4,2,58.6,5.8c19.3,3.9,38.3,9.7,56.7,17.3
			c18.4,7.6,36,17,52.5,27.9c16.4,10.9,31.8,23.4,45.7,37.4c13.9,14,20.9,32.2,20.9,50.5c0,18.3-7,36.6-20.9,50.5
			c-14,14-32.2,20.9-50.5,20.9c-18.3,0-36.6-7-50.5-20.9c-7.6-7.6-15.7-14.3-24.2-20c-8.6-5.8-17.7-10.7-27.1-14.6
			c-9.4-3.9-19.4-6.9-29.8-8.9c-10.2-2-20.7-3-31.4-3c-21,0-41.1,4-59.3,11.3c-19,7.6-36.1,18.7-50.7,32.6l-2.2,2.4l-0.2,0.3
			c-14.7,14.7-26.5,32.2-34.5,51.6c-7.7,18.7-12,39.3-12,60.9c0,21.6,4.3,42.2,12,60.9c8,19.4,19.9,36.9,34.5,51.6l5.5,5.5
			c13.4,12.2,29,22.1,46,29.1c18.7,7.7,39.3,12,61,12c10.7,0,21.2-1,31.4-3c10.3-2,20.3-5,29.8-8.9c9.4-3.9,18.5-8.8,27.1-14.6
			C1402.1,1244.3,1410.3,1237.6,1417.9,1229.9z"/>
		<path d="M1250,110.1c51.8,0,98.7,21,132.6,54.9c33.9,33.9,54.9,80.8,54.9,132.6s-21,98.7-54.9,132.6
			c-33.9,33.9-80.8,54.9-132.6,54.9s-98.7-21-132.6-54.9c-33.9-33.9-54.9-80.8-54.9-132.6s21-98.7,54.9-132.6
			C1151.4,131,1198.2,110.1,1250,110.1L1250,110.1z M1358.1,189.5c-27.6-27.6-65.8-44.7-108-44.7c-42.2,0-80.4,17.1-108,44.7
			c-27.6,27.6-44.7,65.8-44.7,108s17.1,80.4,44.7,108c27.6,27.6,65.8,44.7,108,44.7c42.2,0,80.4-17.1,108-44.7
			c27.6-27.6,44.7-65.8,44.7-108S1385.7,217.2,1358.1,189.5z"/>
		<path class="st0" d="M1215,463.8c11.6,0,23.3,0,35,0s23.3,0,35,0c-13.9,61.3-23.5,122.6-23.5,183.9c0,61.3,9.6,122.6,23.5,183.8
			c-11.7,0-23.3,0-35,0s-23.3,0-35,0c13.9-61.3,23.5-122.5,23.5-183.8C1238.5,586.4,1228.9,525.1,1215,463.8L1215,463.8z"/>
		<path d="M1250,2090.2c42.2,0,80.4-17.1,108-44.7c27.6-27.6,44.7-65.8,44.7-108c0-42.2-17.1-80.4-44.7-108
			c-27.6-27.6-65.8-44.7-108-44.7c-42.2,0-80.4,17.1-108,44.7c-27.6,27.6-44.7,65.8-44.7,108c0,42.2,17.1,80.4,44.7,108
			C1169.6,2073.1,1207.8,2090.2,1250,2090.2L1250,2090.2z M1382.6,2070.1c-33.9,33.9-80.8,54.9-132.6,54.9s-98.7-21-132.6-54.9
			c-33.9-33.9-54.9-80.8-54.9-132.6c0-51.8,21-98.7,54.9-132.6c33.9-33.9,80.8-54.9,132.6-54.9c51.8,0,98.7,21,132.6,54.9
			c33.9,33.9,54.9,80.8,54.9,132.6S1416.5,2036.1,1382.6,2070.1z"/>
		<path class="st0" d="M1215,1771.3c11.6,0,23.3,0,35,0s23.3,0,35,0c-13.9-61.3-23.5-122.6-23.5-183.9c0-61.3,9.6-122.6,23.5-183.8
			c-11.7,0-23.3,0-35,0s-23.3,0-35,0c13.9,61.3,23.5,122.5,23.5,183.8C1238.5,1648.6,1228.9,1709.9,1215,1771.3z"/>
		<path d="M377.6,613.8c25.9-44.8,67.5-74.9,113.8-87.3c46.3-12.4,97.3-7.1,142.2,18.8h0.1c44.8,25.9,74.9,67.5,87.3,113.8
			c12.4,46.3,7.1,97.3-18.8,142.2v0.1c-25.9,44.8-67.5,74.9-113.8,87.3c-46.3,12.4-97.3,7.1-142.2-18.8h-0.1
			c-44.8-25.9-74.9-67.5-87.3-113.8C346.4,709.8,351.7,658.7,377.6,613.8L377.6,613.8L377.6,613.8z M500.3,559.9
			c-37.8,10.1-71.7,34.7-92.8,71.2l0,0c-21.1,36.5-25.3,78.2-15.2,116c10.1,37.8,34.7,71.7,71.2,92.8l0,0
			c36.5,21.1,78.2,25.3,116,15.2c37.8-10.1,71.7-34.7,92.8-71.2l0,0c21.1-36.5,25.3-78.2,15.2-116c-10.1-37.8-34.7-71.7-71.2-92.8
			l0,0C579.8,554.1,538.1,549.8,500.3,559.9L500.3,559.9z"/>
		<path class="st0" d="M666.4,820.9c5.8-10.1,11.6-20.2,17.5-30.3c5.8-10.1,11.7-20.2,17.5-30.3c101.8,94.1,229,166.3,361.5,207.3
			c-5.8,10.1-11.7,20.2-17.5,30.3c-5.8,10.1-11.7,20.2-17.5,30.3C926.1,934.2,798.7,862.1,666.4,820.9z"/>
		<path d="M2092.5,1603.9c21.1-36.5,25.3-78.2,15.2-116c-10.1-37.8-34.6-71.7-71.1-92.8c-36.5-21.1-78.2-25.4-116-15.2
			c-37.8,10.1-71.7,34.6-92.8,71.1c-21.1,36.5-25.4,78.2-15.2,116c10.1,37.8,34.7,71.7,71.2,92.8l0,0c36.5,21.1,78.2,25.3,116,15.2
			C2037.4,1665,2071.4,1640.4,2092.5,1603.9L2092.5,1603.9L2092.5,1603.9z M2141.2,1479c12.4,46.3,7.1,97.3-18.8,142.2v0.1
			c-25.9,44.8-67.5,74.9-113.8,87.3c-46.3,12.4-97.3,7.1-142.2-18.8h-0.1c-44.8-25.9-74.9-67.5-87.3-113.8
			c-12.4-46.3-7.1-97.3,18.8-142.2c25.9-44.9,67.5-75,113.8-87.4c46.3-12.4,97.3-7.1,142.2,18.8
			C2098.7,1391.1,2128.8,1432.7,2141.2,1479L2141.2,1479z"/>
		<path class="st0" d="M1798.7,1474.7c5.8-10.1,11.6-20.2,17.5-30.3c5.8-10.1,11.7-20.2,17.5-30.3c-60-18.6-118-41-171-71.6
			c-53.1-30.6-101.3-69.6-147.5-112.3c-5.8,10.1-11.7,20.2-17.5,30.3c-5.8,10.1-11.7,20.2-17.5,30.3c60,18.6,117.8,41,170.9,71.6
			C1704.2,1393,1752.5,1432,1798.7,1474.7L1798.7,1474.7z"/>
		<path d="M377.6,1621.2c-25.9-44.8-31.2-95.9-18.8-142.2c12.4-46.3,42.5-87.9,87.3-113.8l0,0l0.1,0c44.8-25.9,95.9-31.2,142.2-18.8
			c46.3,12.4,87.9,42.5,113.8,87.4c25.9,44.9,31.2,95.9,18.8,142.2c-12.4,46.3-42.5,87.9-87.3,113.8l0,0l-0.1,0
			c-44.8,25.9-95.9,31.2-142.2,18.8C445.1,1696.2,403.5,1666.1,377.6,1621.2L377.6,1621.2z M392.3,1487.9
			c-10.1,37.8-5.9,79.5,15.2,116c21.1,36.5,55,61,92.8,71.1c37.7,10.1,79.3,5.9,115.7-15.1l0.2-0.2c36.5-21.1,61.1-55,71.2-92.8
			c10.1-37.8,5.9-79.5-15.2-116c-21.1-36.5-55-61-92.8-71.1c-37.7-10.1-79.3-5.9-115.7,15.1l-0.2,0.2
			C427,1416.2,402.4,1450.2,392.3,1487.9L392.3,1487.9z"/>
		<path class="st0" d="M701.3,1474.7c-5.8-10.1-11.6-20.2-17.5-30.3c-5.8-10.1-11.7-20.2-17.5-30.3
			c132.4-41.1,253.9-110.5,355.6-204.7c5.8,10.1,11.7,20.2,17.5,30.3c5.8,10.1,11.7,20.2,17.5,30.3
			C924.6,1311.1,803.2,1380.7,701.3,1474.7z"/>
		<path d="M2092.5,631.1c-21.1-36.5-55-61.1-92.8-71.2c-37.8-10.1-79.4-5.9-116,15.2l0,0c-36.5,21.1-61.1,55-71.2,92.8
			c-10.1,37.8-5.9,79.4,15.2,116l0,0c21.1,36.5,55,61.1,92.8,71.2c37.8,10.1,79.4,5.9,116-15.2l0,0c36.5-21.1,61.1-55,71.2-92.8
			C2117.8,709.3,2113.6,667.6,2092.5,631.1L2092.5,631.1L2092.5,631.1z M2008.6,526.4c46.3,12.4,87.9,42.5,113.8,87.3v0.1
			c25.9,44.8,31.2,95.9,18.8,142.2c-12.4,46.3-42.5,87.9-87.3,113.8h-0.1c-44.8,25.9-95.9,31.2-142.2,18.8
			c-46.3-12.4-87.9-42.5-113.8-87.3v-0.1c-25.9-44.8-31.2-95.9-18.8-142.2c12.4-46.3,42.5-87.9,87.3-113.8h0.1
			C1911.3,519.3,1962.3,514,2008.6,526.4L2008.6,526.4z"/>
		<path class="st0" d="M1833.6,820.9c-5.8-10.1-11.6-20.2-17.5-30.3c-5.8-10.1-11.7-20.2-17.5-30.3
			c-46.2,42.7-94.5,81.7-147.5,112.3c-53.1,30.6-110.9,53-170.9,71.6c5.8,10.1,11.7,20.2,17.5,30.3c5.8,10.1,11.7,20.2,17.5,30.3
			c46.1-42.6,94.4-81.6,147.5-112.2C1715.7,861.9,1773.6,839.6,1833.6,820.9L1833.6,820.9z"/>
		<path class="st0" d="M493.7,677.8c-5,0-5.6-2.8-3.7-7.5c0.9-2.2,3.3-5.5,4.8-8l7-11.5c1.2-2,0.8-3.2,3.6-3.2h42.8
			c3.7,0,14,8,18.3,10.9c14.7,9.9,13.1,5.6,12.8,31.9c-0.1,13.9-4.8,10.7,35,10.7c1.3,2,2.9,2.5,2.9,4.9c0,2.3-2.6,4.9-4.9,4.9
			h-40.8v-33c-2.2,0.8-0.8,0.1-2.3,1.6l-5.1,7.6c-1.4,2.1-1.7,2.7-3,4.8l-6.4,10.1c-1.6,2.2-2,3.1-3.4,5.3
			c-8.8,14.1-11.2,8.8,15.9,26.4c2.8,1.8,7.2,3.1,7.2,6.4v57.3c0,3.5-4.4,4.9-7.8,4.9c-8.8,0-6.8-12.5-6.8-21.4
			c0-9.2-0.3-19.1,0-28.3c0.3-7.2,3.4-6-11.3-14.9c-6-3.7-11.3-7.3-17.1-11.1c-18.1-11.5-12.6-19.3-3.4-34.9l18.5-30.4
			c2.5-6.6-7.3-3.5-12.9-3.5l-22.4-0.5C506.6,657.3,499.8,677.8,493.7,677.8L493.7,677.8z M474.3,671.9v5.8
			c0,10.2,22.7,29.7,40.4-0.4c1.2-2.1,1.6-3.8,4.1-4.5c6.8-2-3.6,9.8-9.7,21.3c-17.5,32.8,16,46,36.2,59.5c0,13.3,0.1,26.6,0,39.9
			c0,7.6,0.9,11.6,4.6,15.8c14.4,16.4,40.1,4.3,40.1-11V738c0-4.8-3.8-8.7-5.8-11.7c8.8,0,26.6,0.9,33.1-0.9
			c16.6-4.6,17.4-24,10.3-32.7c-7.1-8.6-18.9-6.2-32.7-6.2c0-14.2,2.1-21.8-8.5-32.3c-2.7-2.7-25-17.9-29.8-19.7
			c-7.6-2.9-36-1.4-46.2-1.4c-18.8,0-12.9-2.8-28.4,21.2C478.8,659,474.3,666.1,474.3,671.9L474.3,671.9z M605.5,737
			c0,4.4,5,2.9,15.5,2.9c4,0,2.9-3,2.9-10.7h-18.5V737L605.5,737z M611.3,751.6h6.8c1.4,2.6,5.8,11.2,5.8,14.6
			c0,11.9-19.4,11.3-18.1-0.6c0.3-2.9,1.6-5.3,2.5-7.2c0.5-1.2,0.8-1.7,1.5-3.3C611.4,751.6,610.3,755.4,611.3,751.6z M595.8,763.3
			c0,7.7,0.3,16.9,11.5,20.6c15.6,5.2,27.4-5.5,27.4-17.7c0-2.8-7.2-24.3-11.7-24.3c-24.5,0-16.3-2.2-22.8,9.3
			C598.9,753.6,595.8,760.4,595.8,763.3L595.8,763.3z M445.2,747.7c0,5.3,0.1,7.3,2.1,11.6c1.5,3.2,2.9,5,5.5,7.1
			c2.6,2,5.1,3.1,7.9,4.7l38.1,20.2c3.1,1.3-1.5,1.1,2.8,1.1c16.5,0,14.8,0.2,25.1-14.7c4.5-6.5,8.5-12.9,12.8-19.3l-11.7-7.8
			c-3.5,2.3-15.8,21.8-19.4,27.2c-6.4-0.5-23.3-10.7-30.2-14.5l-14.6-7.8c-4.6-2.9-5.9-12.7,3.9-12.7l27.2,14.6
			c3,1.6,6.6,4.1,9.7,4.9l12.6-18.5c-2.6-3.5-8.7-7.7-13.6-7.8c-2.9,10.8-8.2,3.9-19.4-2c-12.2-6.3-20.8-11.9-32.8,0.2
			C447.9,737.7,445.2,741.5,445.2,747.7L445.2,747.7z M593.8,633.1c-15.8,0-12.5-20.4-1.9-20.4C608.6,612.6,605.6,633.1,593.8,633.1
			z M567.6,621.4c0,26.8,28.6,33.7,42.1,20.7c19.4-18.8,2.1-44-11-44c-10.2,0-17.1-1.2-25,8C570.9,609.3,567.6,615.8,567.6,621.4z"
			/>
		<path class="st0" d="M556.4,1536.7h-9.7c0-24.5-2.7-19.4,8.7-19.4c4.5,0,3.9-5.4,3.9,16.5C559.3,1536,558.6,1536.7,556.4,1536.7z
			 M533.1,1508.5v36.9c0,7.5,20.6,4.9,32.1,4.9c3.5,0,7.8-2.7,7.8-5.8v-34c0-10.7-16.3-7.8-30.1-7.8
			C538.4,1502.6,533.1,1504.5,533.1,1508.5L533.1,1508.5z M445.6,1469.6c5.1-0.1,2.3-0.1,8.7-3.9c13.8-8.2-0.2-13.7,8.8-15.5
			c10.4-2,10.7,6.5,10.7-12.6c0-2.2-0.7-2.9-2.9-2.9h-25.3L445.6,1469.6L445.6,1469.6z M494.2,1516.3h12.6v19.4h-12.6L494.2,1516.3
			L494.2,1516.3z M480.6,1508.5v34c0,3.3,1.7,6.8,4.9,6.8h30.1c3.1,0,5.8-4.2,5.8-7.8v-30.1c0-12.2-14.8-8.7-33-8.7
			C484.8,1502.6,480.6,1505.3,480.6,1508.5L480.6,1508.5z M445.6,1518.2v94.3c0,1.9,3.8,9.7,12.6,9.7H501c8.8,0,12.6-7.7,12.6-9.7
			v-36.9c31.2,0,25.3-5.6,25.3,26.2c0,6.8-1.4,17.7,9.1,20.1c6,1.3,21.1,0.1,28.7,0.7c7,0.6,3.5-2.3,1.1-6.2c-6-10,3.4-8.7-24.4-8.7
			v-36.9c0-1.8-2.9-5.5-4.1-6.6c-6-5.3-24.9-3.1-37.7-3.1c-20.6,0-9,26.7-13.6,46.6h-36.9c-2.3-9.9-1-83.6-1-100.1
			C457.4,1509,445.6,1515,445.6,1518.2L445.6,1518.2z M580.7,1473.5c0-7.9-0.2-17,7.8-22.4c0,26.5,0.2,26.2,26.2,26.2
			c15.6,0,12.6-16.8,12.6-26.2c8.3,5.5,10.6,21.3,5.2,31.4c-3.4,6.4-5.8,7.5-11.1,11.3c-5.8,4.2-4.8,8.1-4.8,17.5
			c0,12.2,0.8,82.3-0.4,88.1c-1.2,6-6.4,9.7-12,7c-5.9-2.9-4.1-10-4.1-18.3c0-12.9,1.5-81.6-1.2-88.2c-3-7.7-6.5-6-11.3-11.1
			C584.6,1485.6,580.7,1479.5,580.7,1473.5L580.7,1473.5z M565.1,1466.7c0,12.8,2.3,21,10.5,31.3c9.9,12.3,8.9-2.7,8.9,27l0,71.9
			c0,8.9,2,13.2,6.6,17.7c15.3,15.2,33.5,4.8,38.2-6.1c3.4-7.7,1.9-22.3,1.9-33.1c0-23.3,0-46.6,0-70c19.9-13.3,25.5-39.2,12.5-59.1
			c-1.9-3-11.8-13.8-15.4-13.8h-7.8c-10.6,0-8.7,23.9-8.7,30.1c-10.6,0-8.1,0.6-7.8-6.7c0.1-2.9,0.2-7.8-0.1-10.7
			c-1.9-18.6-21-16.3-31.3,0.5C569.2,1451.4,565.1,1459.8,565.1,1466.7L565.1,1466.7z M429.1,1494.9c0.1,4.2,1.3,5,3.1,7.6
			c1.8,2.7,2.4,3.9,4.7,6c28.5-19.1,60.9-38.3,89.4-57.3l20.5,11.5c2.6,1.4,4.8,3.3,7.6,4c1.4-6,1.2-9.5,3.9-14.6
			c-3.4-2.2-29.7-18.5-32.1-18.5c-1.8,0-20.8,12.9-23.9,15c-4.2,2.7-7.9,5-12,7.4l-36.7,23.6C448,1483,433.5,1493.7,429.1,1494.9
			L429.1,1494.9z"/>
		<path class="st0" d="M2013.9,1618c3.9,0.1,3.6,0.4,5.8,1.9c-0.9,3.4-0.4,2.2-2.9,3.9C2013.3,1620.5,2015.9,1622.3,2013.9,1618
			L2013.9,1618z M1942.9,1611.2c0,4.7-0.7,6.8,2.9,6.8h58.3c0.7,31.8,37.8,10,21.7-6.1c-2.1-2.1-5.4-4.5-9.1-4.5h-70
			C1944.6,1607.3,1942.9,1608.9,1942.9,1611.2z M2052.7,1604.4c2.6,0.2,2.6,0.5,4.9,1c-0.3,3.9-0.4,3.2-2.9,4.9
			C2053.7,1608.2,2053.5,1606.1,2052.7,1604.4z M1962.4,1596.6v7.8h80.7c0,17.7,14.9,19.7,21.2,12.4c5.4-6.2,5.2-14.3-0.4-19.5
			c-2.7-2.5-7.1-3.6-12-3.6h-86.5C1963.1,1593.7,1962.4,1594.4,1962.4,1596.6z M2030.4,1580.1c0.1-3.9,0.4-3.6,1.9-5.8
			c2.5,1.7,2,0.5,2.9,3.9C2032.1,1580.2,2034.6,1579.7,2030.4,1580.1z M1973.1,1583c0,5.5-0.8,7.8,2.9,7.8h57.3
			c6.7,0,12.5-7.5,12.3-13.5c-0.3-13.3-18.3-19.2-24-6c-4.3,10.2,9.4,9.5-40.9,8.7C1976.7,1580,1973.1,1579.1,1973.1,1583
			L1973.1,1583z M1955.6,1481.9c4.3,0,9,1.6,11.8,2.7c6.2,2.5,10.4,9.3,17.6,1.4c17.8-19.6,42.5-10.7,49.9,7.9
			c4,10,5.8,5.2,13.1,10.2c10.4,7.1,10.3,23.3,0.8,31c-8.3,6.8-16.5,5.4-24.7-0.3c-2.2-1.5-2.9-2.4-6.1-2.4
			c-17.6,0.3-11.2,15.4-31.2,15.4c-2.1,0-7.8-2.3-9.3-3.3c-1.9-1.2-5.2-5.4-7.2-5.4c-7.8,0-14.8,5.3-28.3-1.8
			c-9.6-5.1-8,0.8-17.4,0.8c-8.1,0-15.4-7-17.7-13.5c-3.1-8.7,0.4-16.6,6.8-21.7c4.6-3.7,4.9-2.7,11.7-3.8
			C1932.4,1498.1,1937.2,1481.9,1955.6,1481.9L1955.6,1481.9z M1959.5,1467.4c-15.1,0-22.6,1.7-33.5,11.2c-0.2,0.2-1.9,1.8-2,1.9
			c-3.2,3.3-0.5,2.7-9.4,5.2c-25.9,7.2-35.7,48.3-4.3,64.1c13.9,7,20.4-0.1,30.3,3.7c14.1,5.5,17.5,2.5,23.4,1.9
			c5.7-0.5,18.5,16.1,40.6,3.7c6.2-3.5,7.5-6.9,12.3-10.1c5.3,1.4,8.3,5.8,19.4,5.8c30.6,0,45.5-36.1,26.5-57.6
			c-2.6-2.9-5-4.8-8.6-6.9c-6.1-3.6-4.4-1.1-7.9-7.7c-3.2-6-9.1-11.8-14.6-15.5c-3.3-2.2-6.2-3.8-10.5-5c-13.9-4-26.2-2.9-38.1,5.4
			c-5,3.5-4.3,5.5-10,3C1969.1,1468.8,1964.2,1467.4,1959.5,1467.4L1959.5,1467.4z M1874.9,1508.2c16,0,12.7-3.5,16-9.3
			c1.6-2.9,2.1-2.1,2.5-6.3c-3.9-0.3-2.4-1-8.7-1c-3.8,0-9.3,5.4-17-1.5c-4.8-4.3-6.1-15.5,4.2-20c8.3-3.6,8.1-5.1,11.9-6.5
			c15.1-5.7,2.9-8.1,14.9-21.1c9.3-10,28.2-11.3,37.5,0.6c6.9,8.9,8.6-0.7,19.8,4.5c7.5,3.5,7.2,11,13.3,11c6.6,0,0.9-2.9,14.6-2.9
			c4.2,0,4,1.8,7.1,2.4c1.8,0.3,6.1-0.4,9.5-0.3c12.2,0.1,5.5-4.9,1.7-8.6c-8.3-8.1-16.6-10.1-29.9-7c-6.1-9.1-16.1-9.8-24.3-10.7
			c-7-0.8-10.1-10.7-25.3-10.7c-15.1,0-27.4,0.3-38.1,16.3c-1.8,2.7-2.5,3.6-3.9,6.8c-3.3,7.5,0,4.3-11.2,11.1
			c-6.7,4-24.7,10.3-19.2,33.4C1852.5,1498.5,1862.8,1508.2,1874.9,1508.2L1874.9,1508.2z"/>
		<path class="st0" d="M1239.5,349.3h51.5c4.5,0,2.9-5.5,2.9-16.5h-57.3c-4.9,0-4.3-0.9-8.7-1C1228,336,1236.4,349.3,1239.5,349.3
			L1239.5,349.3z M1316.3,342.5v-58.3c0-3.8,2.5-2.9,8.7-2.9v64.1C1318.8,345.4,1316.3,346.3,1316.3,342.5L1316.3,342.5z
			 M1299.8,273.5v81.6c0,2.1,2.6,5.2,4.5,6.2c3.5,1.9,19.8,0.6,24.6,0.6c0,0,12.6,2.8,12.6-7.8v-82.6c0-9.8-21.6-6.8-33-6.8
			C1303.7,264.7,1299.8,268.7,1299.8,273.5L1299.8,273.5z M1190.9,378.4c0-8.2,2.3-10.7,6.2-17.1c2.1-3.3,7.5-10.9,8.3-14h1.9
			c3,11.4,23.7,22.6,11.4,37.7C1210,396.1,1190.9,389.4,1190.9,378.4L1190.9,378.4z M1174.4,377.5c0,7.5,3,15,8.1,20.1
			c24.2,24.2,68.2-1.4,53.7-35.2c-3.7-8.7-23.7-33.7-29.7-45.1c-3.4,2.2-2.9,2.4-4.9,5.8c-1.5,2.5-2.8,4.3-4.5,7.2
			C1189.4,343.1,1174.4,362.4,1174.4,377.5z M1178.3,203.5h62.2v8.7h-62.2c-4,0-1.9-1-1.9-4.9C1176.4,205,1174.2,203.5,1178.3,203.5
			z M1158.9,196.7c0,12.9-2.6,29.4,6.2,31.7c11.7,3.1,9.3-10.9,9.3,42.2c0,11.8-0.4,22.2,2.3,31.7c4.8,16.6,9.3,19.8,10.3,23.7h3.9
			c1.1-4,7.5-10.5,7.8-12.6l-5.1-12.4c-4.8-16.3-2.7-53.3-2.7-72.1h35v46.6c0,12.2,10.2,20.4,24.3,20.4h40.8c3.4,0,3-2.4,3-5.7
			c0-3.2-0.1-6.6-0.1-9.8c-14.6-3.4-36,1.5-50.5-1.9c-2.2-9.3-1-35.5-1-46.6c0-5.8,13.6-0.3,13.6-8.7v-30.1c0-2.3-2.6-4.9-4.9-4.9
			h-86.5C1161.4,188,1158.9,193.4,1158.9,196.7L1158.9,196.7z"/>
		<path class="st0" d="M2037.7,733.6c2.9,2.7,4.4,5.8,4.4,9.4c0,5.3-1.9,9.6-5.8,12.8c-3.9,3.2-9,4.8-15.4,4.8
			c-5.8,0-11-1.2-15.6-3.7v-13.3c6.4,3.8,12,5.6,16.7,5.6c4.6,0,6.8-1.8,6.8-5.3c0-2.2-1.7-4.1-5.2-5.8c-5.1-2.3-8.8-4.4-11.3-6.1
			c-2.5-1.7-4.4-3.8-5.9-6.3c-1.5-2.5-2.2-5.2-2.2-8.1c0-5.1,2.2-9.3,6.7-12.6c-3.2-3.2-4.7-7-4.7-11.6c0-5,1.8-9.1,5.5-12.1
			c3.7-3.1,8.6-4.6,14.8-4.6c5,0,9.6,1,14,3v13.4c-5-3.4-9.6-5.2-14-5.2c-4.4,0-6.6,1.7-6.6,5.1c0,1.6,0.7,3,2.2,4.2
			c1.5,1.2,4.8,2.9,9.9,5.2c9.1,4,13.7,9.6,13.7,16.6C2045.7,725,2043,729.9,2037.7,733.6L2037.7,733.6z M2020.4,710.5
			c-2.3,1.4-3.5,3.3-3.5,5.9c0,2,0.9,3.9,2.8,5.5c1.8,1.6,5,3.4,9.6,5.3c2.4-1.6,3.6-3.8,3.6-6.6c0-2.2-1-4-2.9-5.4
			C2028,713.8,2024.9,712.2,2020.4,710.5L2020.4,710.5z M1890.1,640.1c5.9-1.6,39.7-25.3,43.4-24.8l32.8,19.5
			c2.9,1.9,9.3,4.6,9.3,8.2v158.4h-85.5V640.1z M1874.5,637.2v173c0,1.4,2.5,6.8,5.8,6.8h104.9c2.3,0,4.9-2.6,4.9-4.9V633.3
			c0-3.4-7.9-7.1-12.4-9.9l-34.5-20.9c-1.8-1-2.2-1.2-3.7-2.2c-3.5-2.3,0.4-2.1-9.6-2.1c-2.7,0-1.6,0.7-3.8,2.1l-40,24.2
			C1881.5,627.7,1874.5,629.7,1874.5,637.2z M1939.7,756.7c0,20.9-3.1,17.5,13.6,17.5c4.6,0,2.9-6,2.9-17.5c0-4.2-4.1-2.9-13.6-2.9
			C1940.3,753.8,1939.7,754.5,1939.7,756.7L1939.7,756.7z M1910.5,774.2h15.5v-20.4h-15.5V774.2z M1910.5,743.1h15.5v-20.4h-15.5
			V743.1z M1939.7,725.6v17.5h16.5c0-24.3,3.3-20.4-13.6-20.4C1940.3,722.7,1939.7,723.4,1939.7,725.6L1939.7,725.6z M1939.7,694.5
			V712c20.2,0,16.5,3.7,16.5-17.5c0-4.2-4.1-2.9-13.6-2.9C1940.3,691.6,1939.7,692.3,1939.7,694.5L1939.7,694.5z M1910.5,712h15.5
			v-20.4h-15.5V712z M1910.5,680.9h15.5v-20.4h-15.5V680.9z M1939.7,663.4c0,20.9-3.1,17.5,13.6,17.5c4.6,0,2.9-6,2.9-17.5
			c0-4.2-4.1-2.9-13.6-2.9C1940.3,660.5,1939.7,661.2,1939.7,663.4L1939.7,663.4z"/>
		<path class="st0" d="M1320.4,2006.4h-2.7c-6.4,0-13.2-6.8-13.2-13.2c0-5.3,0.4-9.4,4.6-13c15.5-13,34.2,7.6,21.3,21.8
			c-0.7,0.8-3.1,2.4-4.1,3C1324.7,2005.9,1322.7,2006.4,1320.4,2006.4L1320.4,2006.4z M1196.4,1976.2c8.5,0,14.6,6.7,15.2,14.4
			c0.6,7.4-5.9,15.8-13.6,15.8c-4.1,0-5.1,0.3-8.8-1.6c-1.2-0.6-1.3-0.6-2.4-1.5C1175.8,1994.4,1181.9,1976.2,1196.4,1976.2z
			 M1289.1,1983.3v-84h54.4c2,0,3.1,5.8,4.3,9.4c1.2,3.5,2.3,6.7,3.4,10.3c1.1,3.4,6.5,18,6.5,20.9v43.4c-8.9,0-7.7,0.6-8.9-1.5
			c-0.1-0.1-0.8-2.1-0.9-2.4c-0.7-2-1.3-2.8-2.3-4.3c-2.1-3.1-3.4-4.9-6.4-7.3c-17.6-14.1-40.7-7.1-48.8,13.1L1289.1,1983.3
			L1289.1,1983.3z M1126.6,1854.3c0,8.1-1.3,14.3,1.6,14.3h144.9v114.7H1226c-0.5-6-6.6-12.8-10.3-16.1c-10.1-9.1-28.6-9.1-38.7,0
			c-3.7,3.3-9.8,10.1-10.3,16.1h-8.8v-38.4h-15.4v54.4h24.2c0.1,4.8,5.9,12.9,9.8,16c12.1,9.6,27.3,9.3,39.6-0.1
			c4.3-3.3,9.4-10.7,9.9-15.9h63.7c0.8,9.7,14.3,23.1,28.5,23.1c9.1,0,15.6-2.3,21.5-7.6c9.7-8.6,7.9-15.5,10.8-15.5h23.1v-60.9
			c0-4-17.2-50.5-17.6-54.9h-67.5v-30.7h-160.3C1127,1852.6,1126.6,1853,1126.6,1854.3L1126.6,1854.3z"/>
		<polygon class="st0" points="1134.9,1898.7 1204,1898.7 1204,1883.4 1134.9,1883.4 		"/>
		<polygon class="st0" points="1142.6,1929.5 1188.7,1929.5 1188.7,1914.1 1142.6,1914.1 		"/>
		<rect x="0" y="0.2" class="st1" width="2500" height="2234.5"/>
	</g>
</g>
</svg>
