<?xml version="1.0" encoding="utf-8"?>
<!-- Generator: Adobe Illustrator 24.3.0, SVG Export Plug-In . SVG Version: 6.00 Build 0)  -->
<svg version="1.1" id="Layer_1" xmlns="http://www.w3.org/2000/svg" xmlns:xlink="http://www.w3.org/1999/xlink" x="0px" y="0px"
	 viewBox="0 0 2500 2235" style="enable-background:new 0 0 2500 2235;" xml:space="preserve">
<style type="text/css">
	.st0{fill:none;}
	.st1{fill-rule:evenodd;clip-rule:evenodd;}
</style>
<g id="Layer_x0020_1">
	<rect x="0" y="0.2" class="st0" width="2500" height="2234.5"/>
	<g id="_446013704">
		<path d="M657.8,952.7h1184.3c32.3,0,61.7,13.2,82.9,34.4c21.2,21.2,34.4,50.6,34.4,82.9v547.4c0,123.5-50.5,235.7-131.9,317.1
			c-81.4,81.5-193.7,132-317.2,132H989.7c-123.5,0-235.9-50.5-317.2-131.9c-81.4-81.5-131.9-193.8-131.9-317.2v-547.4
			c0-32.2,13.2-61.5,34.5-82.8C596.2,966,625.6,952.7,657.8,952.7L657.8,952.7z M1842.1,1021.5H657.8c-13.3,0-25.5,5.5-34.3,14.3
			c-8.8,8.7-14.3,20.9-14.3,34.3v547.4c0,104.6,42.8,199.7,111.7,268.7c69,68.9,164.1,111.7,268.7,111.7h520.6
			c104.6,0,199.7-42.8,268.6-111.8c69-68.9,111.8-164,111.8-268.6v-547.4c0-13.3-5.5-25.5-14.3-34.3
			C1867.6,1027,1855.5,1021.5,1842.1,1021.5L1842.1,1021.5z"/>
		<path d="M756.1,952.7h987.7V663.8c0-133.1-54.5-254.1-142.2-341.9c-87.7-87.7-208.8-142.2-341.9-142.2h-19.5
			c-133.1,0-254.1,54.5-341.9,142.2c-87.7,87.7-142.2,208.8-142.2,341.9L756.1,952.7L756.1,952.7z M1778.2,1021.5H687.4V663.8
			c0-152.1,62.2-290.3,162.4-390.5C949.9,173.2,1088.2,111,1240.2,111h19.5c152.1,0,290.3,62.2,390.5,162.4
			c100.2,100.2,162.4,238.4,162.4,390.5v357.7H1778.2z"/>
		<path d="M901.2,952.7h697.6V675.4c0-95.9-39.3-183.1-102.5-246.3c-63.2-63.2-150.4-102.5-246.3-102.5
			c-95.9,0-183.1,39.3-246.3,102.5S901.2,579.5,901.2,675.4L901.2,952.7L901.2,952.7z M1633.2,1021.5H832.5V675.4
			c0-114.8,47-219.2,122.6-294.9c75.6-75.6,180.1-122.6,294.9-122.6c114.9,0,219.3,47,294.9,122.6s122.6,180.1,122.6,294.9v346.1
			H1633.2z"/>
		<path class="st1" d="M1128.4,1219.9h243.2c45.9,0,83.4,37.5,83.4,83.4V1716c0,45.9-37.5,83.4-83.4,83.4h-243.2
			c-45.9,0-83.4-37.5-83.4-83.4v-412.7C1045,1257.4,1082.5,1219.9,1128.4,1219.9L1128.4,1219.9z M1333.4,1711.1l-15.9-137.9
			l-11-94.9c23-17.2,37.9-44.7,37.9-75.6c0-52.2-42.3-94.4-94.4-94.4c-52.1,0-94.4,42.3-94.4,94.4c0,30.9,14.9,58.4,37.9,75.6
			l-11,94.9l-15.9,137.9H1333.4z"/>
		<path d="M1128.4,1202.7h243.2c27.7,0,52.9,11.3,71.1,29.5c18.2,18.2,29.5,43.4,29.5,71.1V1716c0,27.7-11.3,52.9-29.5,71.1
			c-18.2,18.2-43.4,29.5-71.1,29.5h-243.2c-27.7,0-52.9-11.3-71.1-29.5c-18.2-18.2-29.5-43.4-29.5-71.1v-412.7
			c0-27.7,11.3-52.9,29.5-71.1C1075.5,1214,1100.7,1202.7,1128.4,1202.7z M1371.6,1237.1h-243.2c-18.2,0-34.8,7.5-46.8,19.5
			s-19.5,28.6-19.5,46.8V1716c0,18.2,7.5,34.8,19.5,46.8c12,12,28.6,19.5,46.8,19.5h243.2c18.2,0,34.8-7.5,46.8-19.5
			c12-12,19.5-28.6,19.5-46.8v-412.7c0-18.2-7.5-34.8-19.5-46.8C1406.4,1244.6,1389.8,1237.1,1371.6,1237.1L1371.6,1237.1z
			 M1314.1,1693.9l-25.8-223.5l7.9-5.9c9.6-7.2,17.5-16.6,22.9-27.3c5.2-10.3,8.1-22.1,8.1-34.6c0-21.3-8.7-40.6-22.6-54.6
			c-14-14-33.3-22.6-54.6-22.6c-21.3,0-40.6,8.7-54.6,22.6c-14,14-22.6,33.3-22.6,54.6c0,12.5,2.9,24.2,8.1,34.6
			c5.4,10.8,13.3,20.2,22.9,27.4l7.9,5.9l-25.8,223.5H1314.1z M1334.5,1571.3l18.1,157.1h-205.3l28-242.8
			c-10.3-9.3-18.9-20.5-25.1-33c-7.6-15.1-11.8-32.1-11.8-49.9c0-30.8,12.5-58.8,32.7-78.9c20.2-20.2,48.1-32.7,78.9-32.7
			c30.8,0,58.7,12.5,78.9,32.7c20.2,20.2,32.7,48.1,32.7,78.9c0,17.8-4.3,34.8-11.8,49.9c-6.3,12.6-14.9,23.8-25.1,33.1
			L1334.5,1571.3L1334.5,1571.3z"/>
		<g>
			<polygon points="1044.9,1526.9 739,1526.9 739,1492.5 1044.9,1492.5 			"/>
			<ellipse class="st1" cx="739" cy="1509.7" rx="57.6" ry="57.6"/>
			<g>
				<polygon points="1044.9,1387.6 721.8,1387.6 721.8,1193.4 756.2,1193.4 756.2,1353.2 1044.9,1353.2 				"/>
				<ellipse class="st1" cx="739" cy="1193.3" rx="57.6" ry="57.6"/>
			</g>
		</g>
		<g>
			<polygon points="868.3,1659.7 868.3,1878.8 1139.9,1878.8 1139.9,1778.7 1174.3,1778.7 1174.3,1913.2 833.9,1913.2 833.9,1659.7 
							"/>
			<ellipse class="st1" cx="851.1" cy="1659.7" rx="57.6" ry="57.6"/>
		</g>
		<g>
			<polygon points="1666.9,1659.7 1666.9,1913.2 1326.5,1913.2 1326.5,1778.7 1360.9,1778.7 1360.9,1878.8 1632.5,1878.8 
				1632.5,1659.7 			"/>
			<ellipse class="st1" cx="1649.7" cy="1659.7" rx="57.6" ry="57.6"/>
		</g>
		<g>
			<polygon points="1464.3,1492.5 1770.2,1492.5 1770.2,1526.9 1464.3,1526.9 			"/>
			<ellipse class="st1" cx="1770.2" cy="1509.7" rx="57.6" ry="57.6"/>
			<g>
				<polygon points="1464.3,1353.2 1753,1353.2 1753,1193.4 1787.4,1193.4 1787.4,1387.6 1464.3,1387.6 				"/>
				<ellipse class="st1" cx="1770.2" cy="1193.3" rx="57.6" ry="57.6"/>
			</g>
		</g>
	</g>
</g>
</svg>
