<svg width="24" height="24" viewBox="0 0 24 24" fill="none" xmlns="http://www.w3.org/2000/svg">
<g clip-path="url(#clip0_1318_112)">
<path d="M14.6416 15.5117C14.4541 15.6836 14.2197 15.8685 13.9385 16.0664C13.6624 16.2591 13.363 16.4388 13.04 16.6055C12.7171 16.7669 12.3864 16.9023 12.0479 17.0117C11.7145 17.1211 11.3968 17.1758 11.0947 17.1758C10.8239 17.1758 10.5947 17.1393 10.4072 17.0664C10.2249 16.9883 10.0765 16.8815 9.96191 16.7461C9.84733 16.6107 9.764 16.4466 9.71191 16.2539C9.66504 16.056 9.6416 15.8398 9.6416 15.6055C9.6416 15.2773 9.67806 14.8945 9.75098 14.457C9.89681 13.6133 9.99056 13.1393 10.0322 13.0352C10.1051 12.806 10.251 12.2982 10.4697 11.5117C10.6468 10.8555 10.7562 10.4284 10.7979 10.2305C10.8239 10.1003 10.8968 9.98307 11.0166 9.87891C11.126 9.78516 11.2484 9.70964 11.3838 9.65234C11.5244 9.58984 11.6676 9.54557 11.8135 9.51953C11.9645 9.48828 12.0999 9.47266 12.2197 9.47266C12.4385 9.47266 12.5869 9.51432 12.665 9.59766C12.7432 9.67578 12.7822 9.78255 12.7822 9.91797C12.7822 10.0326 12.7562 10.1992 12.7041 10.418C12.652 10.6315 12.5869 10.8763 12.5088 11.1523C12.4307 11.4232 12.3317 11.7513 12.2119 12.1367C12.0921 12.5169 11.9932 12.8659 11.915 13.1836C11.8369 13.4961 11.7718 13.8034 11.7197 14.1055C11.6676 14.4023 11.6416 14.6706 11.6416 14.9102C11.6416 15.1445 11.6676 15.332 11.7197 15.4727C11.7718 15.6081 11.8786 15.6758 12.04 15.6758C12.2275 15.6758 12.4359 15.6107 12.665 15.4805C12.8942 15.3503 13.126 15.194 13.3604 15.0117C13.5947 14.8242 13.8239 14.6315 14.0479 14.4336C14.2718 14.2357 14.4697 14.0664 14.6416 13.9258V15.5117ZM11.1494 7.32422C11.1494 7.20443 11.1755 7.06901 11.2275 6.91797C11.2796 6.76693 11.363 6.6263 11.4775 6.49609C11.5973 6.36068 11.7536 6.2487 11.9463 6.16016C12.1442 6.06641 12.389 6.01953 12.6807 6.01953C12.863 6.01953 13.0348 6.04036 13.1963 6.08203C13.3577 6.1237 13.4984 6.1888 13.6182 6.27734C13.738 6.36068 13.8317 6.47266 13.8994 6.61328C13.9723 6.75391 14.0088 6.92057 14.0088 7.11328C14.0088 7.29036 13.9801 7.46224 13.9229 7.62891C13.8656 7.79557 13.7744 7.94401 13.6494 8.07422C13.5244 8.20443 13.3656 8.3112 13.1729 8.39453C12.9854 8.47266 12.7588 8.51172 12.4932 8.51172C12.0348 8.51172 11.6963 8.40495 11.4775 8.19141C11.2588 7.97266 11.1494 7.68359 11.1494 7.32422Z" fill="#059DE3"/>
<path d="M21.2457 16.5463C21.887 16.8616 22.6699 16.599 22.9118 15.9266C23.7507 13.5952 23.8245 11.044 23.1022 8.65022C22.2548 5.84153 20.3744 3.45836 17.8399 1.98085C15.3053 0.503328 12.305 0.0412556 9.44339 0.687719C6.58175 1.33418 4.07144 3.04114 2.41819 5.4647C0.764935 7.88827 0.0916052 10.8483 0.533846 13.7486C0.976087 16.6488 2.50103 19.2737 4.80147 21.0943C7.1019 22.915 10.0069 23.7962 12.9311 23.5604C15.4234 23.3595 17.7718 22.3599 19.6364 20.7282C20.1742 20.2576 20.133 19.4328 19.6055 18.9508V18.9508C19.078 18.4688 18.2647 18.5143 17.7121 18.9674C16.3009 20.1246 14.5625 20.8329 12.7232 20.9812C10.4513 21.1644 8.19453 20.4798 6.40736 19.0653C4.62019 17.6508 3.43549 15.6116 3.09192 13.3585C2.74835 11.1054 3.27145 8.80574 4.55583 6.92291C5.84021 5.04009 7.79043 3.71398 10.0136 3.21176C12.2367 2.70953 14.5676 3.06851 16.5367 4.21637C18.5057 5.36422 19.9665 7.21566 20.6249 9.39768C21.1579 11.1643 21.1329 13.0413 20.5703 14.7775C20.3501 15.4572 20.6045 16.2311 21.2457 16.5463V16.5463Z" fill="url(#paint0_linear_1318_112)"/>
</g>
<defs>
<linearGradient id="paint0_linear_1318_112" x1="17.1159" y1="1.59246" x2="6.8821" y2="22.4081" gradientUnits="userSpaceOnUse">
<stop stop-color="#1454A7"/>
<stop offset="1" stop-color="#02A9ED"/>
</linearGradient>
<clipPath id="clip0_1318_112">
<rect width="24" height="24" fill="white"/>
</clipPath>
</defs>
</svg>
