<svg id="SvgjsSvg1057" width="288" height="288" xmlns="http://www.w3.org/2000/svg" version="1.1" xmlns:xlink="http://www.w3.org/1999/xlink" xmlns:svgjs="http://svgjs.com/svgjs"><defs id="SvgjsDefs1058"></defs><g id="SvgjsG1059"><svg xmlns="http://www.w3.org/2000/svg" enable-background="new 0 0 2500 2235" viewBox="0 0 2500 2235" width="288" height="288"><path d="M663,416.7h81.8V202.8c0-22,17.9-39.9,39.9-39.9c22,0,39.9,17.9,39.9,39.9v213.9h152.8V202.8c0-22,17.9-39.9,39.9-39.9
			c22,0,39.9,17.9,39.9,39.9v213.9h152.8V202.8c0-22,17.9-39.9,39.9-39.9c22,0,39.9,17.9,39.9,39.9v213.9h152.8V202.8
			c0-22,17.9-39.9,39.9-39.9c22,0,39.9,17.9,39.9,39.9v213.9h152.8V202.8c0-22,17.9-39.9,39.9-39.9c22,0,39.9,17.9,39.9,39.9v213.9
			h81.8c31.2,0,59.7,12.8,80.3,33.4l0.2,0.2c20.6,20.6,33.4,49.1,33.4,80.3v81.8h213.9c22,0,39.9,17.9,39.9,39.9
			c0,22-17.9,39.9-39.9,39.9h-213.9v850.7h213.9c22,0,39.9,17.9,39.9,39.9c0,22-17.9,39.9-39.9,39.9h-213.9v81.8
			c0,31.4-12.8,59.9-33.4,80.5l-2.7,2.4c-20.4,19.2-47.8,31-77.8,31h-81.8v213.9c0,22-17.9,39.9-39.9,39.9
			c-22,0-39.9-17.9-39.9-39.9v-213.9h-152.8v213.9c0,22-17.9,39.9-39.9,39.9c-22,0-39.9-17.9-39.9-39.9v-213.9h-152.8v213.9
			c0,22-17.9,39.9-39.9,39.9c-22,0-39.9-17.9-39.9-39.9v-213.9h-152.8v213.9c0,22-17.9,39.9-39.9,39.9s-39.9-17.9-39.9-39.9v-213.9
			H824.6v213.9c0,22-17.9,39.9-39.9,39.9c-22,0-39.9-17.9-39.9-39.9v-213.9H663c-31.4,0-59.9-12.8-80.5-33.4l-2.4-2.7
			c-19.2-20.4-31-47.8-31-77.8v-81.8H335.2c-22,0-39.9-17.9-39.9-39.9c0-22,17.9-39.9,39.9-39.9h213.9V692.1H335.2
			c-22,0-39.9-17.9-39.9-39.9c0-22,17.9-39.9,39.9-39.9h213.9v-81.8c0-31.2,12.8-59.7,33.4-80.3C603.2,429.5,631.7,416.7,663,416.7
			L663,416.7z M1836.9,496.5H663c-9.4,0-17.9,3.9-24.1,10c-6.2,6.1-10,14.7-10,24.1v1173.8c0,8.7,3.3,16.7,8.6,22.7l1.4,1.4
			c6.2,6.2,14.7,10,24.1,10h1173.9c8.7,0,16.7-3.3,22.7-8.6l1.4-1.4c6.2-6.2,10-14.7,10-24.1V530.6c0-9.4-3.8-17.9-9.9-24.1
			l-0.2-0.2C1854.8,500.3,1846.3,496.5,1836.9,496.5L1836.9,496.5z M2021.6,924.8c-22,0-39.9-17.9-39.9-39.9
			c0-22,17.9-39.9,39.9-39.9h143.2c22,0,39.9,17.9,39.9,39.9c0,22-17.9,39.9-39.9,39.9H2021.6z M2021.6,1157.4
			c-22,0-39.9-17.9-39.9-39.9c0-22,17.9-39.9,39.9-39.9h143.2c22,0,39.9,17.9,39.9,39.9c0,22-17.9,39.9-39.9,39.9H2021.6z
			 M2021.6,1390c-22,0-39.9-17.9-39.9-39.9c0-22,17.9-39.9,39.9-39.9h143.2c22,0,39.9,17.9,39.9,39.9c0,22-17.9,39.9-39.9,39.9
			H2021.6z M478.4,845c22,0,39.9,17.9,39.9,39.9s-17.9,39.9-39.9,39.9H335.2c-22,0-39.9-17.9-39.9-39.9s17.9-39.9,39.9-39.9H478.4z
			 M478.4,1077.6c22,0,39.9,17.9,39.9,39.9c0,22-17.9,39.9-39.9,39.9H335.2c-22,0-39.9-17.9-39.9-39.9c0-22,17.9-39.9,39.9-39.9
			H478.4z M478.4,1310.2c22,0,39.9,17.9,39.9,39.9c0,22-17.9,39.9-39.9,39.9H335.2c-22,0-39.9-17.9-39.9-39.9s17.9-39.9,39.9-39.9
			H478.4L478.4,1310.2z M1393.8,1354c3.9,5.2,7.1,11.5,9.7,18.9c2.6,7.4,3.9,14.4,3.9,20.9c0,17.5-6.6,32-19.9,43.7
			c-13.3,11.7-28.7,17.5-46.1,17.5c-8.4,0-16.5-1.9-24.3-5.8c-7.8-3.9-14.2-9.4-19.4-16.5L1087,1155l-92.2,88.3v152.4
			c0,17.5-5.7,31.7-17,42.7c-11.3,11-26.1,16.5-44.2,16.5c-17.5,0-31.9-5.7-43.2-17c-11.3-11.3-17-25.4-17-42.2V834.7
			c0-16.8,5.8-30.9,17.5-42.2c11.7-11.3,26.5-17,44.7-17c17.5,0,31.7,5.5,42.7,16.5c11,11,16.5,25.2,16.5,42.7v264l310.6-305.8
			c14.9-14.9,30.7-22.3,47.6-22.3c14.9,0,27.5,6.1,37.8,18.4c10.4,12.3,15.5,25.2,15.5,38.8c0,13.6-5.8,26.2-17.5,37.9l-211.6,201.9
			L1393.8,1354z M1630.6,1395.8c0,16.8-6.1,30.9-18.4,42.2c-12.3,11.3-26.5,17-42.7,17c-17.5,0-31.9-5.7-43.2-17
			c-11.3-11.3-17-25.4-17-42.2V834.7c0-16.8,5.8-30.9,17.5-42.2c11.7-11.3,26.5-17,44.7-17c16.2,0,30.1,5.7,41.7,17
			c11.6,11.3,17.5,25.4,17.5,42.2V1395.8z" fill="#ffffff" class="color000 svgShape"></path><rect width="2500" height="2234.5" y=".2" fill="none"></rect></svg></g></svg>