<svg width="23" height="20" viewBox="0 0 23 20" fill="none" xmlns="http://www.w3.org/2000/svg">
<path d="M16.1885 19.2649V17.2313C16.1885 16.1526 15.7794 15.1181 15.0511 14.3553C14.3229 13.5926 13.3353 13.1641 12.3054 13.1641H4.5393C3.50945 13.1641 2.52178 13.5926 1.79357 14.3553C1.06536 15.1181 0.65625 16.1526 0.65625 17.2313V19.2649" stroke="white" stroke-linecap="round" stroke-linejoin="round"/>
<path d="M8.42212 9.09545C10.5667 9.09545 12.3052 7.27448 12.3052 5.02819C12.3052 2.78191 10.5667 0.960938 8.42212 0.960938C6.27757 0.960938 4.53906 2.78191 4.53906 5.02819C4.53906 7.27448 6.27757 9.09545 8.42212 9.09545Z" stroke="white" stroke-linecap="round" stroke-linejoin="round"/>
<path d="M22.0139 19.2617V17.228C22.0132 16.3269 21.7269 15.4514 21.1997 14.7392C20.6726 14.027 19.9346 13.5183 19.1016 13.293" stroke="white" stroke-linecap="round" stroke-linejoin="round"/>
<path d="M15.2148 1.09375C16.0501 1.31776 16.7904 1.82657 17.3191 2.53998C17.8478 3.25338 18.1347 4.1308 18.1347 5.0339C18.1347 5.93701 17.8478 6.81443 17.3191 7.52783C16.7904 8.24124 16.0501 8.75005 15.2148 8.97406" stroke="white" stroke-linecap="round" stroke-linejoin="round"/>
</svg>
