<svg width="79" height="66" viewBox="0 0 79 66" fill="none" xmlns="http://www.w3.org/2000/svg">
<g clip-path="url(#clip0_1268_450)">
<path fill-rule="evenodd" clip-rule="evenodd" d="M49.8712 60.4309V5.5708H22.9453V60.4309H49.8712ZM38.8041 11.4092H42.9374V15.1085H38.8041V11.4092ZM38.8041 18.437H42.9374V22.1362H38.8041V18.437ZM38.8041 25.4647H42.9374V29.1639H38.8041V25.4647ZM38.8041 32.4924H42.9374V36.1904H38.8041V32.4924ZM29.8779 11.4105H34.0125V15.1097H29.8779V11.4105ZM29.8779 18.4382H34.0125V22.1375H29.8779V18.4382ZM29.8779 25.4659H34.0125V29.1652H29.8779V25.4659ZM29.8779 32.4936H34.0125V36.1916H29.8779V32.4936ZM29.752 40.7701H43.0608V59.1697H29.7558L29.752 40.7701Z" fill="white"/>
<path fill-rule="evenodd" clip-rule="evenodd" d="M21.6636 19.4038H1.45117V60.4304H21.6636V19.4038ZM9.16282 55.8222H5.02821V52.1229H9.16282V55.8222ZM9.16282 48.7945H5.02821V45.0915H9.16282V48.7945ZM9.16282 41.7667H5.02821V38.0675H9.16282V41.7667ZM9.16282 34.739H5.02821V31.041H9.16282V34.739ZM9.16282 27.7113H5.02821V24.0096H9.16282V27.7113ZM18.0878 55.8222H13.9532V52.1229H18.0878V55.8222ZM18.0878 48.7945H13.9532V45.0915H18.0878V48.7945ZM18.0878 41.7667H13.9532V38.0675H18.0878V41.7667ZM18.0878 34.739H13.9532V31.041H18.0878V34.739ZM18.0878 27.7113H13.9532V24.0096H18.0878V27.7113Z" fill="white"/>
<path d="M21.6623 13.8335H1.45117V18.1429H21.6623V13.8335Z" fill="white"/>
<path d="M71.3635 13.8335H51.1523V18.1429H71.3635V13.8335Z" fill="white"/>
<path fill-rule="evenodd" clip-rule="evenodd" d="M49.8714 0.00248022V0H22.9455V0.00248022H22.8271V4.35279H49.8714V0.00248022Z" fill="white"/>
<path d="M56.2221 59.5785C56.1177 59.3875 56.0283 59.2064 55.9389 59.0192C55.8496 58.8319 55.7589 58.6472 55.6872 58.4599L55.4632 57.8857C55.3889 57.6947 55.3285 57.4889 55.2693 57.2967C55.2102 57.1045 55.1498 56.8998 55.1045 56.694C55.0591 56.4881 55.0151 56.2959 54.9698 56.09C54.9496 56.0032 54.9333 55.9127 54.9182 55.8222H54.7306V52.1229H54.8187C54.8326 52.0076 54.8489 51.8923 54.8653 51.7769C54.8955 51.586 54.9257 51.3789 54.9698 51.173C55.0138 50.9671 55.0604 50.7762 55.1045 50.5691C55.1485 50.362 55.2089 50.1573 55.2693 49.9664C55.3297 49.7754 55.3889 49.5683 55.4632 49.3773L55.6872 48.8031V48.7945H54.7269V45.0915H58.0899C58.2158 44.9675 58.3417 44.8348 58.4675 44.7071C58.6173 44.5595 58.7809 44.4131 58.9307 44.2805C59.0805 44.1478 59.2441 44.0002 59.409 43.8675C59.5739 43.7348 59.7375 43.6034 59.9024 43.4855C60.0672 43.3677 60.2309 43.2499 60.4058 43.1321C60.5808 43.0143 60.7645 42.9114 60.9433 42.8084C61.122 42.7055 61.3208 42.6026 61.497 42.4997C61.6733 42.3967 61.8746 42.3074 62.0647 42.2194C62.2547 42.1313 62.4423 42.0433 62.6323 41.9714L63.2151 41.7506C63.3573 41.6973 63.5071 41.6514 63.6543 41.6068V38.0675H67.7877V41.0351C67.9136 41.0351 68.0394 41.0351 68.1653 41.0351L68.7946 41.0785C69.0048 41.0934 69.2137 41.1231 69.4239 41.1517C69.6341 41.1802 69.8267 41.2112 70.0369 41.2558C70.2471 41.3005 70.4396 41.3439 70.6486 41.3873C70.8575 41.4307 71.0677 41.4902 71.2615 41.5497L71.3735 41.5832V19.4038H51.1523V60.4304H56.7306C56.6626 60.3275 56.5972 60.2258 56.5368 60.1229C56.4323 59.9468 56.3278 59.7558 56.2221 59.5785ZM63.6481 24.0133H67.7814V27.7113H63.6543L63.6481 24.0133ZM63.6481 31.041H67.7814V34.739H63.6543L63.6481 31.041ZM54.7281 24.0096H58.8627V27.7076H54.7281V24.0096ZM54.7281 31.0373H58.8627V34.7353H54.7281V31.0373ZM54.7281 38.0638H58.8627V41.763H54.7281V38.0638Z" fill="white"/>
<path d="M63.813 65.7173C63.6179 65.6591 63.409 65.5933 63.2152 65.5264L62.6324 65.3056C62.4524 65.2312 62.2548 65.1432 62.0648 65.0576C61.8747 64.972 61.6759 64.8803 61.4971 64.7773C61.3184 64.6744 61.1195 64.5715 60.9433 64.4686C60.7671 64.3656 60.5859 64.2478 60.4059 64.13C60.2259 64.0122 60.0623 63.8944 59.9024 63.7766C59.7426 63.6588 59.5727 63.5285 59.4091 63.3946C59.2454 63.2607 59.0806 63.1144 58.9308 62.9817C58.7691 62.8464 58.6145 62.7032 58.4676 62.5526C58.3157 62.4128 58.1712 62.2655 58.0346 62.1111C57.9088 61.961 57.7829 61.8222 57.657 61.6733H0.5V66.0001H64.9873C64.7973 65.9592 64.6173 65.9182 64.4247 65.8761C64.2321 65.8339 64.0056 65.7769 63.813 65.7173Z" fill="white"/>
<path d="M78.4494 52.5548C78.4368 52.3812 78.4116 52.2076 78.3865 52.034C78.3613 51.8604 78.3361 51.6867 78.2983 51.5255C78.2606 51.3643 78.2228 51.1907 78.1851 51.0171C78.1473 50.8435 78.097 50.6822 78.0466 50.5086C77.9963 50.335 77.9333 50.1738 77.883 50.0126L77.6942 49.5289C77.6313 49.3677 77.5558 49.2065 77.4802 49.0577C77.4047 48.9089 77.3292 48.7477 77.2411 48.5865C77.153 48.4252 77.0649 48.2764 76.9768 48.1276C76.8887 47.9788 76.788 47.83 76.6873 47.6812C76.5866 47.5324 76.4859 47.396 76.3852 47.2595C76.2845 47.1231 76.1713 46.9867 76.058 46.8503C75.9447 46.7139 75.8314 46.5899 75.7056 46.4535C75.5904 46.3234 75.4685 46.1993 75.3406 46.0814C75.2147 45.9574 75.0888 45.8334 74.963 45.7218C74.8371 45.6102 74.6987 45.4862 74.5602 45.3746C74.4218 45.263 74.2833 45.1513 74.1449 45.0521C74.0064 44.9529 73.8554 44.8537 73.7169 44.7545C73.5785 44.6553 73.4148 44.5685 73.2638 44.4693C73.1128 44.3701 72.9617 44.2957 72.7981 44.2089C72.6345 44.1221 72.4835 44.0476 72.3198 43.9732C72.1562 43.8988 71.9926 43.8244 71.8416 43.7624L71.3507 43.5764C71.1871 43.5144 71.0109 43.4648 70.8472 43.4152C70.6836 43.3656 70.5074 43.316 70.3312 43.2788L69.8152 43.1672C69.6389 43.13 69.4627 43.1052 69.2991 43.0804C69.1355 43.0556 68.9467 43.0308 68.7705 43.0184L68.2419 42.9812C68.0657 42.9688 67.8895 42.9688 67.7132 42.9688C67.537 42.9688 67.3608 42.9688 67.1846 42.9812L66.656 43.0184C66.4798 43.0308 66.3036 43.0556 66.1274 43.0804C65.9512 43.1052 65.7749 43.13 65.6113 43.1672L65.0953 43.2788C64.9191 43.316 64.7555 43.3656 64.5792 43.4152C64.403 43.4648 64.2394 43.5144 64.0758 43.5764L63.5849 43.7624C63.4213 43.8244 63.2577 43.8988 63.1066 43.9732C62.9556 44.0476 62.792 44.1221 62.6284 44.2089C62.4647 44.2957 62.3137 44.3825 62.1627 44.4693C62.0116 44.5561 61.8606 44.6553 61.7096 44.7421C61.5585 44.8289 61.4201 44.9405 61.2816 45.0397C61.1432 45.1389 61.0047 45.2506 60.8663 45.3622C60.7278 45.4738 60.602 45.5854 60.4635 45.7094C60.3251 45.8334 60.1992 45.945 60.0733 46.069C59.9475 46.193 59.8216 46.3171 59.7083 46.4411C59.5884 46.5676 59.4749 46.7001 59.3685 46.8379C59.2552 46.9743 59.142 47.1107 59.0413 47.2471C58.9406 47.3835 58.8399 47.5324 58.7392 47.6688C58.6385 47.8052 58.5504 47.9664 58.4497 48.1152C58.349 48.264 58.2735 48.4128 58.1854 48.5741C58.0973 48.7353 58.0218 48.8841 57.9462 49.0453C57.8707 49.2065 57.7952 49.3677 57.7323 49.5165L57.5435 50.0002C57.4806 50.1614 57.4302 50.335 57.3799 50.4962C57.3295 50.6574 57.2792 50.8311 57.2414 51.0047C57.2037 51.1783 57.1659 51.3395 57.1281 51.5131C57.0904 51.6867 57.0652 51.8604 57.04 52.0216C57.0149 52.1828 56.9897 52.3688 56.9771 52.5424L56.9393 53.0633C56.9268 53.2369 56.9268 53.4105 56.9268 53.5841C56.9268 53.7577 56.9268 53.9313 56.9393 54.105L56.9771 54.6258C56.9897 54.7994 57.0149 54.973 57.04 55.1466C57.0652 55.3203 57.0904 55.4939 57.1281 55.6551C57.1659 55.8163 57.2037 55.9899 57.2414 56.1635C57.2792 56.3372 57.3295 56.4984 57.3799 56.672C57.4302 56.8456 57.4806 57.0068 57.5435 57.168L57.7323 57.6517C57.7952 57.8129 57.8707 57.9741 57.9462 58.1229C58.0218 58.2717 58.0973 58.4329 58.1854 58.5942C58.2735 58.7554 58.3616 58.9042 58.4497 59.053C58.5378 59.2018 58.6385 59.3506 58.7392 59.4994C58.8399 59.6483 58.9406 59.7847 59.0413 59.9211C59.142 60.0575 59.2552 60.1939 59.3685 60.3303C59.4818 60.4667 59.5951 60.5907 59.7083 60.7272C59.8235 60.8572 59.9454 60.9813 60.0733 61.0992C60.1992 61.2232 60.3251 61.3472 60.4635 61.4588C60.602 61.5704 60.7278 61.6944 60.8663 61.806C61.0047 61.9177 61.1432 62.0293 61.2816 62.1285C61.4201 62.2277 61.5711 62.3269 61.7096 62.4261C61.848 62.5253 62.0116 62.6121 62.1627 62.7113C62.3137 62.8105 62.4647 62.8849 62.6284 62.9718C62.792 63.0586 62.943 63.133 63.1066 63.2074C63.2703 63.2818 63.4339 63.3562 63.5849 63.4182L64.0758 63.6042C64.2394 63.6662 64.4156 63.7158 64.5792 63.7654C64.7429 63.815 64.9191 63.8646 65.0953 63.9018L65.6113 64.0135C65.7875 64.0507 65.9637 64.0755 66.1274 64.1003C66.291 64.1251 66.4798 64.1499 66.656 64.1623L67.1846 64.1995C67.3608 64.2119 67.537 64.2119 67.7132 64.2119C67.8895 64.2119 68.0657 64.2119 68.2419 64.1995L68.7705 64.1623C68.9467 64.1499 69.1229 64.1251 69.2991 64.1003C69.4753 64.0755 69.6515 64.0507 69.8152 64.0135L70.3312 63.9018C70.5074 63.8646 70.671 63.815 70.8472 63.7654C71.0234 63.7158 71.1871 63.6662 71.3507 63.6042L71.8416 63.4182C72.0052 63.3562 72.1688 63.2818 72.3198 63.2074C72.4709 63.133 72.6345 63.0586 72.7981 62.9718C72.9617 62.8849 73.1128 62.7981 73.2638 62.7113C73.4148 62.6245 73.5659 62.5253 73.7169 62.4261C73.868 62.3269 74.0064 62.2277 74.1449 62.1285C74.2833 62.0293 74.4218 61.9177 74.5602 61.806C74.6987 61.6944 74.8245 61.5828 74.963 61.4588C75.0949 61.3453 75.221 61.2253 75.3406 61.0992C75.4664 60.9752 75.5923 60.8512 75.7056 60.7272C75.8188 60.6031 75.9447 60.4667 76.058 60.3303C76.1713 60.1939 76.2845 60.0575 76.3852 59.9211C76.4859 59.7847 76.5866 59.6359 76.6873 59.4994C76.788 59.363 76.8761 59.2018 76.9768 59.053C77.0775 58.9042 77.153 58.7554 77.2411 58.5942C77.3292 58.4329 77.4047 58.2841 77.4802 58.1229C77.5558 57.9617 77.6313 57.8129 77.6942 57.6517L77.883 57.168C77.9459 57.0068 77.9963 56.8332 78.0466 56.672C78.097 56.5108 78.1473 56.3372 78.1851 56.1635C78.2228 55.9899 78.2606 55.8287 78.2983 55.6551C78.3361 55.4815 78.3613 55.3079 78.3865 55.1466C78.4116 54.9854 78.4368 54.7994 78.4494 54.6258L78.4871 54.105C78.4997 53.9313 78.4997 53.7577 78.4997 53.5841C78.4997 53.4105 78.4997 53.2369 78.4871 53.0633C78.4746 52.8896 78.462 52.7284 78.4494 52.5548ZM73.9435 53.7577C73.9413 53.8122 73.9328 53.8663 73.9183 53.9189C73.9057 53.9685 73.8931 54.0305 73.8805 54.0802C73.868 54.1298 73.8428 54.1794 73.8302 54.2414L73.7547 54.3902C73.7328 54.44 73.7031 54.486 73.6666 54.5266C73.6372 54.5749 73.6035 54.6206 73.5659 54.663C73.5281 54.7002 73.4904 54.7498 73.4526 54.787C73.4135 54.8273 73.3715 54.8646 73.3267 54.8986C73.2828 54.9346 73.2366 54.9678 73.1883 54.9978C73.1404 55.0239 73.0941 55.0529 73.0498 55.0846L72.8988 55.159C72.8468 55.1829 72.7918 55.1995 72.7352 55.2087L72.5716 55.2459C72.5181 55.2602 72.4633 55.2685 72.4079 55.2707C72.3576 55.2707 72.2947 55.2831 72.2443 55.2831H69.3998V58.0857C69.4019 58.1397 69.3977 58.1938 69.3872 58.2469C69.385 58.3014 69.3766 58.3555 69.3621 58.4081C69.3495 58.4577 69.3369 58.5198 69.3243 58.5694C69.3117 58.619 69.2865 58.6686 69.2739 58.7306L69.1984 58.8794C69.1766 58.9292 69.1468 58.9752 69.1103 59.0158C69.0809 59.0641 69.0473 59.1098 69.0096 59.1522C68.9719 59.1894 68.9341 59.239 68.8964 59.2762C68.8573 59.3165 68.8152 59.3538 68.7705 59.3878C68.7266 59.4238 68.6803 59.457 68.632 59.487C68.5817 59.5118 68.5439 59.549 68.4936 59.5738L68.3426 59.6483C68.2906 59.6721 68.2355 59.6887 68.1789 59.6979L68.0153 59.7351C67.9619 59.7494 67.907 59.7577 67.8517 59.7599C67.8013 59.7599 67.7384 59.7723 67.6881 59.7723C67.6332 59.7743 67.5783 59.7702 67.5244 59.7599C67.4691 59.7577 67.4142 59.7494 67.3608 59.7351L67.1972 59.6979C67.1469 59.6855 67.0965 59.6607 67.0336 59.6483L66.8825 59.5738C66.832 59.5523 66.7853 59.523 66.7441 59.487C66.695 59.4581 66.6487 59.4249 66.6056 59.3878C66.5679 59.3506 66.5175 59.3134 66.4798 59.2762C66.4389 59.2377 66.4011 59.1963 66.3665 59.1522C66.33 59.1089 66.2963 59.0634 66.2658 59.0158C66.2393 58.9686 66.2099 58.923 66.1777 58.8794L66.1022 58.7306C66.078 58.6793 66.0611 58.6251 66.0518 58.5694C66.0393 58.5198 66.0267 58.4577 66.0141 58.4081C65.9996 58.3555 65.9911 58.3014 65.9889 58.2469C65.9889 58.1973 65.9763 58.1353 65.9763 58.0857V55.2831H63.1318C63.077 55.2851 63.0221 55.2809 62.9682 55.2707C62.9129 55.2685 62.858 55.2602 62.8046 55.2459L62.641 55.2087C62.5906 55.1963 62.5403 55.1715 62.4773 55.159L62.3263 55.0846C62.2758 55.0631 62.229 55.0338 62.1878 54.9978C62.1388 54.9689 62.0925 54.9357 62.0494 54.8986C62.0116 54.8614 61.9613 54.8242 61.9235 54.787C61.8827 54.7485 61.8448 54.7071 61.8103 54.663C61.7737 54.6197 61.7401 54.5742 61.7096 54.5266C61.6844 54.477 61.6466 54.4398 61.6215 54.3902L61.5459 54.2414C61.5218 54.1901 61.5048 54.1359 61.4956 54.0802C61.483 54.0305 61.4704 53.9685 61.4578 53.9189C61.4433 53.8663 61.4349 53.8122 61.4327 53.7577C61.4327 53.7081 61.4201 53.6461 61.4201 53.5965C61.418 53.5425 61.4222 53.4884 61.4327 53.4353C61.4349 53.3808 61.4433 53.3267 61.4578 53.2741C61.4704 53.2245 61.483 53.1625 61.4956 53.1129C61.5082 53.0633 61.5334 53.0137 61.5459 52.9517L61.6215 52.8028C61.6433 52.7531 61.673 52.707 61.7096 52.6664C61.7389 52.6181 61.7726 52.5724 61.8103 52.53C61.848 52.4928 61.8858 52.4432 61.9235 52.406C61.9626 52.3658 62.0047 52.3284 62.0494 52.2944C62.0933 52.2584 62.1396 52.2253 62.1878 52.1952C62.2382 52.1704 62.2759 52.1332 62.3263 52.1084L62.4773 52.034C62.5293 52.0102 62.5844 51.9935 62.641 51.9844L62.8046 51.9472C62.858 51.9329 62.9129 51.9245 62.9682 51.9224C63.0185 51.9224 63.0815 51.91 63.1318 51.91H65.9763V49.1073C65.9742 49.0533 65.9785 48.9992 65.9889 48.9461C65.9911 48.8916 65.9996 48.8375 66.0141 48.7849C66.0267 48.7353 66.0393 48.6733 66.0518 48.6237C66.0644 48.5741 66.0896 48.5245 66.1022 48.4624L66.1777 48.3136C66.1996 48.2639 66.2293 48.2178 66.2658 48.1772C66.2952 48.1289 66.3289 48.0832 66.3665 48.0408C66.4043 48.0036 66.442 47.954 66.4798 47.9168C66.5188 47.8766 66.5609 47.8392 66.6056 47.8052C66.6496 47.7692 66.6958 47.7361 66.7441 47.706C66.792 47.6799 66.8383 47.6509 66.8825 47.6192L67.0336 47.5448C67.0856 47.521 67.1406 47.5043 67.1972 47.4952L67.3608 47.458C67.4142 47.4437 67.4691 47.4353 67.5244 47.4332C67.5748 47.4332 67.6377 47.4208 67.6881 47.4208C67.7429 47.4187 67.7978 47.4229 67.8517 47.4332C67.907 47.4353 67.9619 47.4437 68.0153 47.458L68.1789 47.4952C68.2293 47.5076 68.2796 47.5324 68.3426 47.5448L68.4936 47.6192C68.5441 47.6407 68.5909 47.67 68.632 47.706C68.6811 47.7349 68.7274 47.7681 68.7705 47.8052C68.8083 47.8424 68.8586 47.8796 68.8964 47.9168C68.9372 47.9553 68.9751 47.9967 69.0096 48.0408C69.0462 48.0841 69.0798 48.1296 69.1103 48.1772C69.1355 48.2268 69.1733 48.264 69.1984 48.3136L69.2739 48.4624C69.2981 48.5137 69.315 48.5679 69.3243 48.6237C69.3369 48.6733 69.3495 48.7353 69.3621 48.7849C69.3766 48.8375 69.385 48.8916 69.3872 48.9461C69.3872 48.9957 69.3998 49.0577 69.3998 49.1073V51.9124H72.2443C72.2992 51.9104 72.3541 51.9146 72.4079 51.9248C72.4633 51.927 72.5181 51.9353 72.5716 51.9496L72.7352 51.9868C72.7855 51.9992 72.8359 52.024 72.8988 52.0364L73.0498 52.1109C73.1004 52.1324 73.1471 52.1617 73.1883 52.1977C73.2374 52.2266 73.2837 52.2598 73.3267 52.2969C73.3645 52.3341 73.4148 52.3713 73.4526 52.4085C73.4935 52.447 73.5313 52.4884 73.5659 52.5325C73.6024 52.5758 73.636 52.6213 73.6666 52.6689C73.6931 52.7161 73.7225 52.7617 73.7547 52.8053L73.8302 52.9541C73.8544 53.0054 73.8713 53.0596 73.8805 53.1153C73.8931 53.165 73.9057 53.227 73.9183 53.2766C73.9328 53.3292 73.9413 53.3833 73.9435 53.4378C73.9435 53.4874 73.9561 53.5494 73.9561 53.599C73.9596 53.652 73.9571 53.7053 73.9485 53.7577H73.9435Z" fill="white"/>
</g>
<defs>
<clipPath id="clip0_1268_450">
<rect width="78" height="66" fill="white" transform="translate(0.5)"/>
</clipPath>
</defs>
</svg>
