<svg width="22" height="23" viewBox="0 0 22 23" fill="none" xmlns="http://www.w3.org/2000/svg">
<path d="M21.4844 10.6814L14.2311 1.57687C14.1059 1.42099 13.9511 1.29139 13.7756 1.19553C13.6002 1.09967 13.4075 1.03943 13.2086 1.01828C13.0098 0.997128 12.8088 1.01548 12.6171 1.07228C12.4254 1.12908 12.2468 1.22321 12.0916 1.34925C11.9357 1.47447 11.8061 1.62927 11.7102 1.80474C11.6144 1.98021 11.5541 2.17289 11.533 2.37172C11.5118 2.57054 11.5302 2.77159 11.587 2.9633C11.6438 3.15501 11.7379 3.3336 11.8639 3.48881L18.3433 11.6374L11.5453 19.7859C11.4175 19.9392 11.3212 20.1163 11.262 20.3069C11.2028 20.4974 11.1817 20.6979 11.2 20.8966C11.2183 21.0953 11.2757 21.2885 11.3688 21.4651C11.4619 21.6416 11.5889 21.7981 11.7425 21.9255C12.0176 22.1462 12.361 22.2643 12.7137 22.2593C12.9366 22.2596 13.1569 22.2109 13.3588 22.1165C13.5608 22.0221 13.7394 21.8843 13.8821 21.713L21.4692 12.6085C21.6945 12.3387 21.8192 11.9991 21.822 11.6477C21.8248 11.2962 21.7054 10.9546 21.4844 10.6814Z" fill="url(#paint0_linear_230_250)"/>
<path d="M3.61002 1.57563C3.35648 1.25166 2.98463 1.04168 2.57627 0.991882C2.16791 0.942082 1.75649 1.05654 1.43252 1.31008C1.10856 1.56362 0.898574 1.93547 0.848774 2.34383C0.798974 2.75219 0.913434 3.16361 1.16697 3.48758L7.72222 11.6361L0.924188 19.7695C0.796418 19.9228 0.700153 20.0999 0.640906 20.2904C0.581659 20.481 0.560594 20.6814 0.578918 20.8802C0.597243 21.0789 0.654595 21.2721 0.747692 21.4487C0.840789 21.6252 0.967801 21.7817 1.12145 21.909C1.39445 22.1353 1.73805 22.2587 2.0926 22.2581C2.31553 22.2584 2.53579 22.2097 2.73774 22.1152C2.93968 22.0208 3.11834 21.8831 3.26101 21.7118L10.8481 12.6073C11.0713 12.3357 11.1933 11.9952 11.1933 11.6437C11.1933 11.2922 11.0713 10.9517 10.8481 10.6801L3.61002 1.57563Z" fill="url(#paint1_linear_230_250)"/>
<defs>
<linearGradient id="paint0_linear_230_250" x1="16.5078" y1="1.00977" x2="16.5078" y2="22.2594" gradientUnits="userSpaceOnUse">
<stop stop-color="#1358AA"/>
<stop offset="1" stop-color="#03A1E7"/>
</linearGradient>
<linearGradient id="paint1_linear_230_250" x1="5.88291" y1="0.980469" x2="5.88291" y2="22.2581" gradientUnits="userSpaceOnUse">
<stop stop-color="#1358AA"/>
<stop offset="1" stop-color="#03A1E7"/>
</linearGradient>
</defs>
</svg>
