<svg width="901" height="416" viewBox="0 0 901 416" fill="none" xmlns="http://www.w3.org/2000/svg">
<path fill-rule="evenodd" clip-rule="evenodd" d="M30.6348 0.587402C14.0662 0.587402 0.634766 14.0189 0.634766 30.5874V283.191C0.634766 299.759 14.0662 313.191 30.6348 313.191H762.669C825.855 315.522 890.15 334.523 899.903 415.722L900.638 415.721V312.928H900.635V0.587402H30.6348Z" fill="url(#paint0_linear_247_56)"/>
<mask id="mask0_247_56" style="mask-type:alpha" maskUnits="userSpaceOnUse" x="34" y="0" width="833" height="313">
<rect x="34.7236" y="0.587891" width="832.263" height="312.277" rx="20" fill="#E6E6E6"/>
</mask>
<g mask="url(#mask0_247_56)">
<g style="mix-blend-mode:multiply">
<path d="M661.003 113.589C648.944 107.205 635.466 103.658 621.278 103.658C597.869 103.658 576.587 112.88 560.981 128.486C546.084 144.093 536.862 164.665 536.862 188.074C536.862 211.484 546.084 232.765 560.981 247.662C576.587 263.268 597.869 272.49 621.278 272.49C635.466 272.49 648.944 268.943 661.003 262.559C672.353 256.884 681.575 248.371 689.378 238.44C691.507 235.602 692.216 233.474 695.053 231.346C700.019 225.671 706.403 220.705 713.497 217.159C722.01 212.902 731.232 210.774 741.163 210.774C748.257 210.774 755.35 212.193 762.444 215.03C767.41 216.449 772.376 219.287 776.632 222.124C780.888 224.962 784.435 228.509 789.401 231.346C792.238 233.474 795.785 234.893 799.332 236.312C804.298 238.44 809.973 239.149 815.648 239.149C829.835 239.149 842.604 233.474 851.826 224.252C861.048 215.03 866.723 202.262 866.723 188.074C866.723 173.887 861.048 161.118 851.826 151.896C842.604 142.674 829.835 136.999 815.648 136.999C809.973 136.999 804.298 138.418 799.332 139.836C795.785 141.255 792.238 142.674 789.401 144.802C784.435 147.64 780.888 151.186 776.632 154.733C772.376 157.571 767.41 159.699 762.444 161.827C755.35 163.955 748.257 165.374 741.163 165.374C731.232 165.374 722.01 163.246 713.497 158.99C706.403 155.443 700.019 151.186 695.053 145.511C692.216 142.674 691.507 140.546 689.378 137.708C681.575 127.777 672.353 119.265 661.003 113.589Z" fill="url(#paint1_linear_247_56)" fill-opacity="0.04"/>
<path d="M707.822 275.312C725.556 258.287 753.222 258.287 770.957 275.312C787.982 293.047 787.982 320.712 770.957 338.447C751.094 358.309 727.685 373.206 701.438 384.556C675.9 394.488 648.944 400.163 620.569 400.163C562.4 400.163 509.196 376.753 470.89 338.447C432.584 300.14 408.465 246.937 408.465 188.059C408.465 129.89 432.584 76.6866 470.89 38.3803L473.728 35.5428C511.325 -1.34485 563.818 -24.0449 620.569 -24.0449C648.944 -24.0449 675.9 -18.3699 701.438 -7.72925C727.685 2.91141 751.094 18.5177 770.957 38.3803C787.982 55.4053 787.982 83.7804 770.957 100.805C753.222 118.54 725.556 118.54 707.822 100.805C696.472 89.4554 682.994 80.2335 668.097 73.8491C653.2 68.1741 637.594 64.6272 620.569 64.6272C587.937 64.6272 557.434 78.1054 535.443 98.6773L533.315 100.805C511.325 123.506 497.137 154.009 497.137 188.059C497.137 222.109 511.325 253.322 533.315 275.312C556.015 298.012 586.519 311.49 620.569 311.49C637.594 311.49 653.2 308.653 668.097 302.269C682.994 296.594 696.472 287.372 707.822 275.312Z" fill="#184297" fill-opacity="0.04"/>
</g>
</g>
<defs>
<linearGradient id="paint0_linear_247_56" x1="0.63477" y1="43.7564" x2="901.075" y2="386.095" gradientUnits="userSpaceOnUse">
<stop stop-color="#FCFCFC"/>
<stop offset="1" stop-color="#EBEBEB"/>
</linearGradient>
<linearGradient id="paint1_linear_247_56" x1="866.892" y1="188.227" x2="536.587" y2="188.227" gradientUnits="userSpaceOnUse">
<stop stop-color="#00ADEF"/>
<stop offset="1" stop-color="#184297"/>
</linearGradient>
</defs>
</svg>
