<svg width="901" height="417" viewBox="0 0 901 417" fill="none" xmlns="http://www.w3.org/2000/svg">
<path d="M0.634766 133.594C0.634766 117.026 14.0662 103.594 30.6348 103.594H900.635V416.198H30.6348C14.0662 416.198 0.634766 402.766 0.634766 386.198V133.594Z" fill="url(#paint0_linear_247_46)"/>
<path d="M747.875 103.642C815.453 103.642 889.387 88.4043 899.903 0.848145L900.638 0.848792V103.642H747.875Z" fill="url(#paint1_linear_247_46)"/>
<mask id="mask0_247_46" style="mask-type:alpha" maskUnits="userSpaceOnUse" x="34" y="103" width="833" height="313">
<rect x="34.7236" y="103.595" width="832.263" height="312.277" rx="20" fill="#E6E6E6"/>
</mask>
<g mask="url(#mask0_247_46)">
<g style="mix-blend-mode:multiply">
<path d="M661.003 216.596C648.944 210.212 635.466 206.665 621.278 206.665C597.869 206.665 576.587 215.887 560.981 231.493C546.084 247.1 536.862 267.671 536.862 291.081C536.862 314.49 546.084 335.772 560.981 350.669C576.587 366.275 597.869 375.497 621.278 375.497C635.466 375.497 648.944 371.95 661.003 365.566C672.353 359.891 681.575 351.378 689.378 341.447C691.507 338.609 692.216 336.481 695.053 334.353C700.019 328.678 706.403 323.712 713.497 320.165C722.01 315.909 731.232 313.781 741.163 313.781C748.257 313.781 755.35 315.2 762.444 318.037C767.41 319.456 772.376 322.294 776.632 325.131C780.888 327.969 784.435 331.515 789.401 334.353C792.238 336.481 795.785 337.9 799.332 339.319C804.298 341.447 809.973 342.156 815.648 342.156C829.835 342.156 842.604 336.481 851.826 327.259C861.048 318.037 866.723 305.268 866.723 291.081C866.723 276.893 861.048 264.125 851.826 254.903C842.604 245.681 829.835 240.006 815.648 240.006C809.973 240.006 804.298 241.425 799.332 242.843C795.785 244.262 792.238 245.681 789.401 247.809C784.435 250.646 780.888 254.193 776.632 257.74C772.376 260.578 767.41 262.706 762.444 264.834C755.35 266.962 748.257 268.381 741.163 268.381C731.232 268.381 722.01 266.253 713.497 261.996C706.403 258.45 700.019 254.193 695.053 248.518C692.216 245.681 691.507 243.553 689.378 240.715C681.575 230.784 672.353 222.271 661.003 216.596Z" fill="url(#paint2_linear_247_46)" fill-opacity="0.04"/>
<path d="M707.822 378.319C725.556 361.294 753.222 361.294 770.957 378.319C787.982 396.054 787.982 423.719 770.957 441.454C751.094 461.316 727.685 476.213 701.438 487.563C675.9 497.494 648.944 503.169 620.569 503.169C562.4 503.169 509.196 479.76 470.89 441.454C432.584 403.147 408.465 349.944 408.465 291.066C408.465 232.897 432.584 179.693 470.89 141.387L473.728 138.55C511.325 101.662 563.818 78.9619 620.569 78.9619C648.944 78.9619 675.9 84.6369 701.438 95.2776C727.685 105.918 751.094 121.525 770.957 141.387C787.982 158.412 787.982 186.787 770.957 203.812C753.222 221.547 725.556 221.547 707.822 203.812C696.472 192.462 682.994 183.24 668.097 176.856C653.2 171.181 637.594 167.634 620.569 167.634C587.937 167.634 557.434 181.112 535.443 201.684L533.315 203.812C511.325 226.512 497.137 257.016 497.137 291.066C497.137 325.116 511.325 356.328 533.315 378.319C556.015 401.019 586.519 414.497 620.569 414.497C637.594 414.497 653.2 411.66 668.097 405.275C682.994 399.6 696.472 390.378 707.822 378.319Z" fill="#184297" fill-opacity="0.04"/>
</g>
</g>
<defs>
<linearGradient id="paint0_linear_247_46" x1="0.63477" y1="136.101" x2="821.88" y2="550.738" gradientUnits="userSpaceOnUse">
<stop stop-color="#FCFCFC"/>
<stop offset="1" stop-color="#EBEBEB"/>
</linearGradient>
<linearGradient id="paint1_linear_247_46" x1="747.875" y1="103.642" x2="900.639" y2="103.642" gradientUnits="userSpaceOnUse">
<stop stop-color="#EFEFEF"/>
<stop offset="1" stop-color="#EDEDED"/>
</linearGradient>
<linearGradient id="paint2_linear_247_46" x1="866.892" y1="291.234" x2="536.587" y2="291.234" gradientUnits="userSpaceOnUse">
<stop stop-color="#00ADEF"/>
<stop offset="1" stop-color="#184297"/>
</linearGradient>
</defs>
</svg>
