<svg width="636" height="589" viewBox="0 0 636 589" fill="none" xmlns="http://www.w3.org/2000/svg">
<path d="M350.637 191.444C333.908 182.587 315.212 177.667 295.531 177.667C263.057 177.667 233.536 190.46 211.887 212.108C191.222 233.757 178.43 262.295 178.43 294.768C178.43 327.241 191.222 356.763 211.887 377.428C233.536 399.077 263.057 411.869 295.531 411.869C315.212 411.869 333.908 406.949 350.637 398.092C366.382 390.22 379.174 378.412 389.999 364.635C392.951 360.699 393.935 357.747 397.871 354.795C404.759 346.922 413.616 340.034 423.456 335.114C435.265 329.21 448.057 326.257 461.834 326.257C471.674 326.257 481.515 328.225 491.355 332.162C498.243 334.13 505.132 338.066 511.036 342.002C516.94 345.938 521.86 350.858 528.749 354.795C532.685 357.747 537.605 359.715 542.525 361.683C549.414 364.635 557.286 365.619 565.158 365.619C584.839 365.619 602.552 357.747 615.345 344.954C628.137 332.162 636.009 314.449 636.009 294.768C636.009 275.087 628.137 257.374 615.345 244.582C602.552 231.789 584.839 223.917 565.158 223.917C557.286 223.917 549.414 225.885 542.525 227.853C537.605 229.821 532.685 231.789 528.749 234.741C521.86 238.678 516.94 243.598 511.036 248.518C505.132 252.454 498.243 255.406 491.355 258.358C481.515 261.311 471.674 263.279 461.834 263.279C448.057 263.279 435.265 260.327 423.456 254.422C413.616 249.502 404.759 243.598 397.871 235.725C393.935 231.789 392.951 228.837 389.999 224.901C379.174 211.124 366.382 199.316 350.637 191.444Z" fill="url(#paint0_linear_1369_584)" fill-opacity="0.02"/>
<path d="M415.582 415.784C440.183 392.167 478.561 392.167 503.162 415.784C526.779 440.385 526.779 478.763 503.162 503.364C475.609 530.917 443.136 551.582 406.726 567.327C371.3 581.104 333.907 588.976 294.545 588.976C213.854 588.976 140.05 556.502 86.9121 503.364C33.7739 450.226 0.316406 376.423 0.316406 294.747C0.316406 214.056 33.7739 140.253 86.9121 87.1143L90.8483 83.1781C143.003 32.0079 215.822 0.518555 294.545 0.518555C333.907 0.518555 371.3 8.39089 406.726 23.1515C443.136 37.9122 475.609 59.5611 503.162 87.1143C526.779 110.731 526.779 150.093 503.162 173.71C478.561 198.311 440.183 198.311 415.582 173.71C399.838 157.965 381.141 145.173 360.476 136.316C339.811 128.444 318.162 123.524 294.545 123.524C249.279 123.524 206.965 142.221 176.46 170.758L173.508 173.71C143.003 205.199 123.322 247.513 123.322 294.747C123.322 341.981 143.003 385.279 173.508 415.784C204.997 447.274 247.311 465.971 294.545 465.971C318.162 465.971 339.811 462.034 360.476 453.178C381.141 445.306 399.838 432.513 415.582 415.784Z" fill="#184297" fill-opacity="0.02"/>
<defs>
<linearGradient id="paint0_linear_1369_584" x1="636.245" y1="294.981" x2="178.048" y2="294.981" gradientUnits="userSpaceOnUse">
<stop stop-color="#00ADEF"/>
<stop offset="1" stop-color="#184297"/>
</linearGradient>
</defs>
</svg>
