<svg width="901" height="416" viewBox="0 0 901 416" fill="none" xmlns="http://www.w3.org/2000/svg">
<path fill-rule="evenodd" clip-rule="evenodd" d="M531.229 415.7H30.6348C14.0662 415.7 0.634766 402.269 0.634766 385.7V133.097C0.634766 116.528 14.0662 103.097 30.6348 103.097H762.669C825.855 100.766 890.15 81.7647 899.903 0.565918L900.638 0.566528V103.36H900.635V415.516H900.638L900.639 415.7H531.229V415.7Z" fill="url(#paint0_linear_283_132)"/>
<mask id="mask0_283_132" style="mask-type:alpha" maskUnits="userSpaceOnUse" x="376" y="103" width="492" height="313">
<rect x="376.909" y="103.423" width="490.459" height="312.277" rx="20" fill="#E6E6E6"/>
</mask>
<g mask="url(#mask0_283_132)">
<g style="mix-blend-mode:multiply">
<path d="M661.385 216.425C649.326 210.041 635.848 206.494 621.66 206.494C598.251 206.494 576.969 215.716 561.363 231.322C546.466 246.929 537.244 267.501 537.244 290.91C537.244 314.319 546.466 335.601 561.363 350.498C576.969 366.104 598.251 375.326 621.66 375.326C635.848 375.326 649.326 371.779 661.385 365.395C672.735 359.72 681.957 351.207 689.76 341.276C691.888 338.438 692.598 336.31 695.435 334.182C700.401 328.507 706.785 323.541 713.879 319.994C722.392 315.738 731.614 313.61 741.545 313.61C748.639 313.61 755.732 315.029 762.826 317.866C767.792 319.285 772.757 322.123 777.014 324.96C781.27 327.798 784.817 331.345 789.782 334.182C792.62 336.31 796.167 337.729 799.714 339.148C804.679 341.276 810.354 341.985 816.029 341.985C830.217 341.985 842.986 336.31 852.208 327.088C861.43 317.866 867.105 305.098 867.105 290.91C867.105 276.722 861.43 263.954 852.208 254.732C842.986 245.51 830.217 239.835 816.029 239.835C810.354 239.835 804.679 241.254 799.714 242.672C796.167 244.091 792.62 245.51 789.782 247.638C784.817 250.476 781.27 254.022 777.014 257.569C772.757 260.407 767.792 262.535 762.826 264.663C755.732 266.791 748.639 268.21 741.545 268.21C731.614 268.21 722.392 266.082 713.879 261.826C706.785 258.279 700.401 254.022 695.435 248.347C692.598 245.51 691.888 243.382 689.76 240.544C681.957 230.613 672.735 222.1 661.385 216.425Z" fill="url(#paint1_linear_283_132)" fill-opacity="0.04"/>
<path d="M708.204 378.148C725.938 361.123 753.604 361.123 771.338 378.148C788.364 395.883 788.364 423.548 771.338 441.283C751.476 461.145 728.066 476.042 701.819 487.392C676.282 497.324 649.326 502.999 620.95 502.999C562.782 502.999 509.578 479.589 471.272 441.283C432.966 402.976 408.847 349.773 408.847 290.895C408.847 232.726 432.966 179.523 471.272 141.216L474.109 138.379C511.706 101.491 564.2 78.791 620.95 78.791C649.326 78.791 676.282 84.466 701.819 95.1067C728.066 105.747 751.476 121.354 771.338 141.216C788.364 158.241 788.364 186.616 771.338 203.641C753.604 221.376 725.938 221.376 708.204 203.641C696.854 192.291 683.376 183.069 668.479 176.685C653.582 171.01 637.976 167.463 620.95 167.463C588.319 167.463 557.816 180.941 535.825 201.513L533.697 203.641C511.706 226.341 497.519 256.845 497.519 290.895C497.519 324.945 511.706 356.157 533.697 378.148C556.397 400.848 586.9 414.326 620.95 414.326C637.976 414.326 653.582 411.489 668.479 405.105C683.376 399.429 696.854 390.208 708.204 378.148Z" fill="#184297" fill-opacity="0.04"/>
</g>
</g>
<defs>
<linearGradient id="paint0_linear_283_132" x1="-94.1532" y1="259.438" x2="1057.99" y2="259.438" gradientUnits="userSpaceOnUse">
<stop stop-color="#FBFBFB"/>
<stop offset="0.957658" stop-color="#E4E4E4"/>
</linearGradient>
<linearGradient id="paint1_linear_283_132" x1="867.274" y1="291.063" x2="536.969" y2="291.063" gradientUnits="userSpaceOnUse">
<stop stop-color="#00ADEF"/>
<stop offset="1" stop-color="#184297"/>
</linearGradient>
</defs>
</svg>
