<svg width="24" height="34" viewBox="0 0 24 34" fill="none" xmlns="http://www.w3.org/2000/svg">
<path d="M22.5909 27.2115L16.3157 20.2725C15.9739 19.891 15.5306 19.608 15.0342 19.4544C14.5377 19.3009 14.0074 19.2827 13.501 19.4018L12.9843 19.5206C12.7139 19.5845 12.4288 19.5533 12.1799 19.4325C11.9309 19.3118 11.7341 19.1092 11.6246 18.861C11.208 17.9069 10.909 16.9083 10.734 15.8861C10.7008 15.6712 10.7524 15.452 10.8784 15.2723C11.0044 15.0926 11.1956 14.9656 11.4138 14.9165C11.841 14.8211 12.2395 14.6308 12.578 14.3607C12.9166 14.0906 13.186 13.748 13.3651 13.3599C13.5484 12.9441 13.6254 12.4915 13.5894 12.0407L12.9435 3.92752C12.9084 3.42128 12.7545 2.92951 12.4937 2.48976C12.2328 2.05 11.8718 1.67387 11.4383 1.39008C11.0048 1.10629 10.5102 0.922328 9.99221 0.852243C9.47424 0.782158 8.94662 0.827799 8.44961 0.985683L3.84689 2.70065C2.97877 2.97446 2.21167 3.48771 1.63936 4.17767C1.06706 4.86763 0.714332 5.70441 0.624306 6.58572C-0.368304 15.4772 2.88147 25.4768 9.81615 32.1454C9.99457 32.3117 10.2113 32.4343 10.4483 32.5031C10.6853 32.5719 10.9358 32.5849 11.179 32.5411C11.4223 32.4972 11.6512 32.3978 11.8469 32.251C12.0427 32.1042 12.1995 31.9142 12.3045 31.6969L12.3453 31.6243C12.4813 31.3367 12.5216 31.0151 12.4607 30.7043C12.3998 30.3934 12.2406 30.1087 12.0053 29.8895C5.95449 24.0389 3.10583 15.3387 3.73811 7.56194C3.77676 7.08063 3.96325 6.62163 4.2735 6.24419C4.58375 5.86676 5.00352 5.58824 5.47858 5.44461L8.60598 4.19796C8.73801 4.15912 8.87732 4.14944 9.0137 4.16963C9.15008 4.18982 9.28008 4.23936 9.39417 4.31463C9.50825 4.38989 9.60353 4.48897 9.67301 4.6046C9.7425 4.72023 9.78444 4.84949 9.79575 4.98289L10.2853 11.0842C10.3054 11.3327 10.2337 11.5801 10.083 11.7819C9.93222 11.9838 9.71229 12.127 9.46261 12.1858L8.40202 12.4364C8.00383 12.5321 7.6566 12.7682 7.42788 13.0986C7.19917 13.429 7.10534 13.8301 7.16465 14.2239C7.72895 17.6869 8.52439 20.0812 10.4756 22.9637C10.6849 23.2644 10.9939 23.4866 11.3513 23.5934C11.7087 23.7002 12.0931 23.6851 12.4404 23.5507L13.875 22.9901C14.0858 22.9088 14.3178 22.8943 14.5377 22.9488C14.7575 23.0034 14.9539 23.124 15.0987 23.2935L19.6403 28.5308C19.7372 28.6404 19.8051 28.7712 19.8383 28.9119C19.8715 29.0526 19.8689 29.1991 19.8308 29.3387C19.7926 29.4782 19.7201 29.6067 19.6194 29.713C19.5187 29.8193 19.3929 29.9003 19.2527 29.9489L16.71 30.8196C16.4968 30.8918 16.3017 31.0068 16.1374 31.1572C15.9731 31.3076 15.8434 31.4899 15.7568 31.6922C15.6702 31.8946 15.6285 32.1124 15.6346 32.3314C15.6407 32.5505 15.6944 32.7658 15.7922 32.9633C15.9629 33.3123 16.2617 33.587 16.6302 33.7334C16.9987 33.8798 17.4102 33.8874 17.7842 33.7548L21.1836 32.5675C21.7193 32.3909 22.2011 32.0873 22.5853 31.6843C22.9695 31.2813 23.2439 30.7916 23.3836 30.2596C23.5234 29.7277 23.5241 29.1703 23.3857 28.6381C23.2473 28.1058 22.9741 27.6155 22.5909 27.2115Z" fill="white"/>
<path d="M15.7587 3.03792C15.7848 3.37432 15.9178 3.69459 16.1394 3.95452C16.361 4.21445 16.6604 4.40122 16.9961 4.48905C17.6863 4.65817 18.3044 5.03325 18.7631 5.56138C19.2218 6.08951 19.4981 6.74404 19.5529 7.43265C19.6078 8.12126 19.4384 8.80919 19.0687 9.3994C18.699 9.98962 18.1476 10.4523 17.4924 10.7223C17.1733 10.8606 16.9064 11.0916 16.7286 11.3835C16.5508 11.6754 16.4708 12.0136 16.4998 12.3515C16.5239 12.6167 16.6132 12.8724 16.7603 13.0971C16.9075 13.3218 17.1081 13.5089 17.3453 13.6427C17.5825 13.7765 17.8493 13.8531 18.1234 13.866C18.3974 13.8789 18.6707 13.8278 18.9201 13.7169C20.2032 13.1634 21.2781 12.2381 21.9972 11.068C22.7163 9.89797 23.0444 8.54058 22.9364 7.18233C22.8284 5.82409 22.2895 4.53161 21.3938 3.48244C20.4982 2.43328 19.2897 1.67891 17.9343 1.32295C17.6697 1.24873 17.3905 1.23775 17.1206 1.29096C16.8507 1.34417 16.5981 1.45997 16.3843 1.62848C16.1705 1.79699 16.002 2.0132 15.893 2.25864C15.7841 2.50408 15.738 2.77145 15.7587 3.03792Z" fill="white" fill-opacity="0.7"/>
</svg>
