<svg width="901" height="519" viewBox="0 0 901 519" fill="none" xmlns="http://www.w3.org/2000/svg">
<path d="M900.635 103.593V415.75H900.638V518.543L899.903 518.543C890.15 437.345 825.855 418.344 762.669 416.013H30.6348C14.0662 416.013 0.634766 402.581 0.634766 386.013V133.409C0.634766 116.841 14.0662 103.409 30.6348 103.409H760.336C824.264 101.458 890.03 82.9983 899.903 0.799805L900.638 0.800453V103.593H900.635Z" fill="url(#paint0_linear_289_143)"/>
<mask id="mask0_289_143" style="mask-type:alpha" maskUnits="userSpaceOnUse" x="376" y="103" width="491" height="313">
<rect x="376.528" y="103.41" width="490.459" height="312.277" rx="20" fill="#E6E6E6"/>
</mask>
<g mask="url(#mask0_289_143)">
<g style="mix-blend-mode:multiply">
<path d="M661.003 216.412C648.944 210.027 635.466 206.48 621.278 206.48C597.869 206.48 576.587 215.702 560.981 231.309C546.084 246.915 536.862 267.487 536.862 290.896C536.862 314.306 546.084 335.587 560.981 350.484C576.587 366.09 597.869 375.312 621.278 375.312C635.466 375.312 648.944 371.765 661.003 365.381C672.353 359.706 681.575 351.193 689.378 341.262C691.507 338.425 692.216 336.297 695.053 334.168C700.019 328.493 706.403 323.528 713.497 319.981C722.01 315.725 731.232 313.596 741.163 313.596C748.257 313.596 755.35 315.015 762.444 317.853C767.41 319.271 772.376 322.109 776.632 324.946C780.888 327.784 784.435 331.331 789.401 334.168C792.238 336.297 795.785 337.715 799.332 339.134C804.298 341.262 809.973 341.972 815.648 341.972C829.835 341.972 842.604 336.297 851.826 327.075C861.048 317.853 866.723 305.084 866.723 290.896C866.723 276.709 861.048 263.94 851.826 254.718C842.604 245.496 829.835 239.821 815.648 239.821C809.973 239.821 804.298 241.24 799.332 242.659C795.785 244.077 792.238 245.496 789.401 247.624C784.435 250.462 780.888 254.009 776.632 257.556C772.376 260.393 767.41 262.521 762.444 264.649C755.35 266.778 748.257 268.196 741.163 268.196C731.232 268.196 722.01 266.068 713.497 261.812C706.403 258.265 700.019 254.009 695.053 248.334C692.216 245.496 691.507 243.368 689.378 240.531C681.575 230.599 672.353 222.087 661.003 216.412Z" fill="url(#paint1_linear_289_143)" fill-opacity="0.04"/>
<path d="M707.822 378.135C725.556 361.109 753.222 361.109 770.957 378.135C787.982 395.869 787.982 423.535 770.957 441.269C751.094 461.132 727.685 476.029 701.438 487.379C675.9 497.31 648.944 502.985 620.569 502.985C562.4 502.985 509.196 479.575 470.89 441.269C432.584 402.963 408.465 349.759 408.465 290.881C408.465 232.712 432.584 179.509 470.89 141.203L473.728 138.365C511.325 101.477 563.818 78.7773 620.569 78.7773C648.944 78.7773 675.9 84.4524 701.438 95.093C727.685 105.734 751.094 121.34 770.957 141.203C787.982 158.228 787.982 186.603 770.957 203.628C753.222 221.362 725.556 221.362 707.822 203.628C696.472 192.278 682.994 183.056 668.097 176.671C653.2 170.996 637.594 167.449 620.569 167.449C587.937 167.449 557.434 180.928 535.443 201.5L533.315 203.628C511.325 226.328 497.137 256.831 497.137 290.881C497.137 324.931 511.325 356.144 533.315 378.135C556.015 400.835 586.519 414.313 620.569 414.313C637.594 414.313 653.2 411.475 668.097 405.091C682.994 399.416 696.472 390.194 707.822 378.135Z" fill="#184297" fill-opacity="0.04"/>
</g>
</g>
<defs>
<linearGradient id="paint0_linear_289_143" x1="-95.4486" y1="201.181" x2="922.285" y2="465.371" gradientUnits="userSpaceOnUse">
<stop offset="0.354053" stop-color="white"/>
<stop offset="0.957658" stop-color="#CFCFCF"/>
</linearGradient>
<linearGradient id="paint1_linear_289_143" x1="866.892" y1="291.05" x2="536.587" y2="291.05" gradientUnits="userSpaceOnUse">
<stop stop-color="#00ADEF"/>
<stop offset="1" stop-color="#184297"/>
</linearGradient>
</defs>
</svg>
