<svg width="901" height="416" viewBox="0 0 901 416" fill="none" xmlns="http://www.w3.org/2000/svg">
<path fill-rule="evenodd" clip-rule="evenodd" d="M531.229 0.849609H30.6348C14.0662 0.849609 0.634766 14.2811 0.634766 30.8496V283.453C0.634766 300.022 14.0662 313.453 30.6348 313.453H762.669C825.855 315.784 890.15 334.785 899.903 415.984L900.638 415.983V313.19H900.635V1.03385H900.638L900.639 0.850098H531.229V0.849609Z" fill="url(#paint0_linear_283_131)"/>
<mask id="mask0_283_131" style="mask-type:alpha" maskUnits="userSpaceOnUse" x="376" y="0" width="492" height="314">
<rect x="376.909" y="0.849609" width="490.459" height="312.277" rx="20" fill="#E6E6E6"/>
</mask>
<g mask="url(#mask0_283_131)">
<g style="mix-blend-mode:multiply">
<path d="M661.385 113.851C649.326 107.467 635.848 103.92 621.66 103.92C598.251 103.92 576.969 113.142 561.363 128.748C546.466 144.354 537.244 164.926 537.244 188.336C537.244 211.745 546.466 233.027 561.363 247.923C576.969 263.53 598.251 272.752 621.66 272.752C635.848 272.752 649.326 269.205 661.385 262.82C672.735 257.145 681.957 248.633 689.76 238.702C691.888 235.864 692.598 233.736 695.435 231.608C700.401 225.933 706.785 220.967 713.879 217.42C722.392 213.164 731.614 211.036 741.545 211.036C748.639 211.036 755.732 212.455 762.826 215.292C767.792 216.711 772.757 219.548 777.014 222.386C781.27 225.223 784.817 228.77 789.782 231.608C792.62 233.736 796.167 235.155 799.714 236.573C804.679 238.702 810.354 239.411 816.029 239.411C830.217 239.411 842.986 233.736 852.208 224.514C861.43 215.292 867.105 202.523 867.105 188.336C867.105 174.148 861.43 161.379 852.208 152.158C842.986 142.936 830.217 137.261 816.029 137.261C810.354 137.261 804.679 138.679 799.714 140.098C796.167 141.517 792.62 142.936 789.782 145.064C784.817 147.901 781.27 151.448 777.014 154.995C772.757 157.833 767.792 159.961 762.826 162.089C755.732 164.217 748.639 165.636 741.545 165.636C731.614 165.636 722.392 163.508 713.879 159.251C706.785 155.704 700.401 151.448 695.435 145.773C692.598 142.936 691.888 140.808 689.76 137.97C681.957 128.039 672.735 119.526 661.385 113.851Z" fill="url(#paint1_linear_283_131)" fill-opacity="0.04"/>
<path d="M708.204 275.574C725.938 258.549 753.604 258.549 771.338 275.574C788.364 293.308 788.364 320.974 771.338 338.709C751.476 358.571 728.066 373.468 701.819 384.818C676.282 394.749 649.326 400.424 620.95 400.424C562.782 400.424 509.578 377.015 471.272 338.709C432.966 300.402 408.847 247.199 408.847 188.321C408.847 130.152 432.966 76.9484 471.272 38.642L474.109 35.8045C511.706 -1.08313 564.2 -23.7832 620.95 -23.7832C649.326 -23.7832 676.282 -18.1082 701.819 -7.46753C728.066 3.17313 751.476 18.7794 771.338 38.642C788.364 55.667 788.364 84.0421 771.338 101.067C753.604 118.802 725.938 118.802 708.204 101.067C696.854 89.7171 683.376 80.4952 668.479 74.1108C653.582 68.4358 637.976 64.8889 620.95 64.8889C588.319 64.8889 557.816 78.3671 535.825 98.939L533.697 101.067C511.706 123.767 497.519 154.27 497.519 188.321C497.519 222.371 511.706 253.583 533.697 275.574C556.397 298.274 586.9 311.752 620.95 311.752C637.976 311.752 653.582 308.915 668.479 302.53C683.376 296.855 696.854 287.633 708.204 275.574Z" fill="#184297" fill-opacity="0.04"/>
</g>
</g>
<defs>
<linearGradient id="paint0_linear_283_131" x1="-94.1532" y1="157.112" x2="1057.99" y2="157.112" gradientUnits="userSpaceOnUse">
<stop stop-color="#FBFBFB"/>
<stop offset="0.957658" stop-color="#E4E4E4"/>
</linearGradient>
<linearGradient id="paint1_linear_283_131" x1="867.274" y1="188.489" x2="536.969" y2="188.489" gradientUnits="userSpaceOnUse">
<stop stop-color="#00ADEF"/>
<stop offset="1" stop-color="#184297"/>
</linearGradient>
</defs>
</svg>
