<?xml version="1.0" encoding="UTF-8"?>
<!DOCTYPE svg PUBLIC "-//W3C//DTD SVG 1.1//EN" "http://www.w3.org/Graphics/SVG/1.1/DTD/svg11.dtd">
<!-- Creator: CorelDRAW X8 -->
<svg xmlns="http://www.w3.org/2000/svg" xml:space="preserve" width="114.3mm" height="36.9578mm" version="1.1" style="shape-rendering:geometricPrecision; text-rendering:geometricPrecision; image-rendering:optimizeQuality; fill-rule:evenodd; clip-rule:evenodd"
viewBox="0 0 11430 3696"
 xmlns:xlink="http://www.w3.org/1999/xlink">
 <defs>
  <style type="text/css">
   <![CDATA[
    .fil2 {fill:none;fill-rule:nonzero}
    .fil1 {fill:#194695;fill-rule:nonzero}
    .fil0 {fill:#2C2C2C;fill-rule:nonzero}
   ]]>
  </style>
 </defs>
 <g id="Layer_x0020_1">
  <metadata id="CorelCorpID_0Corel-Layer"/>
  <g id="_339944352">
   <g>
    <path class="fil0" d="M1335 2674c0,-173 -140,-313 -313,-313 -173,0 -313,140 -313,313 0,173 140,313 313,313 173,0 313,-140 313,-313z"/>
    <path class="fil0" d="M1335 1022c0,-173 -140,-313 -313,-313 -173,0 -313,140 -313,313 0,173 140,313 313,313 173,0 313,-140 313,-313z"/>
    <path class="fil0" d="M2987 1022c0,-173 -140,-313 -313,-313 -172,0 -313,140 -313,313 0,173 141,313 313,313 173,0 313,-140 313,-313z"/>
    <path class="fil0" d="M2987 2674c0,-173 -140,-313 -313,-313 -172,0 -313,140 -313,313 0,173 141,313 313,313 173,0 313,-140 313,-313z"/>
    <path class="fil1" d="M1022 1652c-565,0 -1022,458 -1022,1022l391 0c0,-348 282,-631 631,-631 250,0 467,147 569,358l180 -421c-186,-201 -453,-328 -749,-328z"/>
    <path class="fil0" d="M0 1022c0,564 457,1021 1022,1021 564,0 1021,-457 1021,-1021 0,-565 -457,-1022 -1021,-1022l0 391c348,0 630,282 630,631 0,348 -282,630 -630,630 -349,0 -631,-282 -631,-630l-391 0z"/>
    <path class="fil1" d="M3305 1022c0,348 -282,630 -631,630 -348,0 -630,-282 -630,-630 0,-349 282,-631 630,-631l0 -391c-564,0 -1021,457 -1021,1022 0,564 457,1021 1021,1021 565,0 1022,-457 1022,-1021l-391 0z"/>
    <path class="fil0" d="M3696 2674c0,-564 -457,-1022 -1022,-1022 -564,0 -1021,458 -1021,1022 0,564 457,1022 1021,1022l0 -391c-348,0 -630,-282 -630,-631 0,-348 282,-631 630,-631 349,0 631,283 631,631l391 0z"/>
    <path class="fil1" d="M1771 1980l-180 421c39,83 61,175 61,273 0,349 -282,631 -630,631l0 391c564,0 1021,-458 1021,-1022 0,-268 -103,-512 -272,-694z"/>
    <path class="fil1" d="M1833 2053l-223 393c-6,-15 -12,-30 -19,-45 -52,-107 -133,-198 -233,-261l280 -280c48,36 93,76 133,120 22,23 42,48 62,73z"/>
    <g>
     <line class="fil2" x1="1638" y1="1860" x2="1358" y2= "2140" />
    </g>
    <g>
     <line class="fil2" x1="1833" y1="2053" x2="1610" y2= "2446" />
    </g>
   </g>
   <g>
    <path class="fil0" d="M5203 1693c41,52 62,112 62,181 0,100 -34,178 -100,234 -67,57 -163,85 -287,85l-544 0 0 -1169 531 0c119,0 211,26 276,78 65,51 97,125 97,221 0,71 -19,129 -56,176 -38,47 -87,78 -147,92 70,16 126,51 168,102zm-586 -191l0 0 185 0c98,0 147,-42 147,-126 0,-84 -50,-126 -151,-126l-181 0 0 252zm358 332l0 0c0,-42 -14,-75 -41,-98 -28,-24 -67,-36 -117,-36l-200 0 0 263 201 0c105,0 157,-43 157,-129z"/>
    <polygon class="fil0" points="5895,1024 5895,2193 5612,2193 5612,1024 "/>
    <path class="fil0" d="M6888 2193l-253 -442 -64 0 0 442 -283 0 0 -1169 483 0c92,0 171,16 235,48 64,32 111,76 143,131 32,56 48,120 48,191 0,85 -23,157 -70,217 -47,59 -115,100 -204,122l278 460 -313 0zm-317 -635l0 0 175 0c56,0 98,-13 124,-37 27,-25 40,-62 40,-110 0,-47 -14,-83 -41,-109 -27,-27 -68,-40 -123,-40l-175 0 0 296z"/>
    <polygon class="fil0" points="7821,1249 7821,1493 8216,1493 8216,1707 7821,1707 7821,1966 8265,1966 8265,2193 7538,2193 7538,1024 8265,1024 8265,1249 "/>
    <polygon class="fil0" points="9939,1032 9939,2193 9656,2193 9656,1467 9405,2193 9160,2193 8907,1465 8907,2193 8624,2193 8624,1032 8970,1032 9286,1841 9595,1032 "/>
    <path class="fil0" d="M11056 1979l-438 0 -73 214 -297 0 428 -1161 326 0 428 1161 -301 0 -73 -214zm-72 -214l0 0 -146 -430 -147 430 293 0z"/>
   </g>
   <g>
    <g>
     <path class="fil1" d="M4478 2577c9,10 13,22 13,36 0,18 -6,33 -18,44 -13,12 -31,17 -55,17l-84 0 0 -227 83 0c22,0 40,6 52,16 11,10 17,23 17,41 0,15 -4,26 -12,35 -7,9 -17,15 -30,18 14,3 26,9 34,20zm-115 -30l0 0 49 0c14,0 25,-4 33,-10 7,-7 11,-16 11,-28 0,-12 -3,-21 -11,-27 -7,-7 -19,-10 -34,-10l-48 0 0 75zm85 92l0 0c9,-7 13,-17 13,-30 0,-12 -4,-22 -13,-30 -9,-7 -21,-10 -36,-10l-49 0 0 81 50 0c15,0 27,-4 35,-11z"/>
     <polygon class="fil1" points="4596,2447 4596,2674 4567,2674 4567,2447 "/>
     <path class="fil1" d="M4842 2459c17,10 30,24 40,42 9,17 14,37 14,60 0,22 -5,42 -14,60 -10,17 -23,31 -40,41 -17,10 -36,15 -57,15 -21,0 -40,-5 -57,-15 -17,-10 -30,-24 -40,-41 -10,-18 -14,-38 -14,-60 0,-23 4,-43 14,-60 10,-18 23,-32 40,-42 17,-9 36,-14 57,-14 21,0 40,5 57,14zm-99 24l0 0c-12,7 -22,17 -29,31 -7,13 -10,29 -10,47 0,17 3,33 10,47 7,13 17,23 29,31 13,7 27,10 42,10 16,0 29,-3 42,-11 12,-7 22,-17 29,-31 7,-13 10,-29 10,-46 0,-18 -3,-34 -10,-47 -7,-14 -17,-24 -29,-31 -13,-7 -26,-11 -42,-11 -15,0 -29,4 -42,11z"/>
     <polygon class="fil1" points="5003,2651 5084,2651 5084,2674 4974,2674 4974,2447 5003,2447 "/>
     <path class="fil1" d="M5313 2459c17,10 30,24 40,42 9,17 14,37 14,60 0,22 -5,42 -14,60 -10,17 -23,31 -40,41 -17,10 -36,15 -57,15 -21,0 -40,-5 -57,-15 -17,-10 -30,-24 -40,-41 -10,-18 -14,-38 -14,-60 0,-23 4,-43 14,-60 10,-18 23,-32 40,-42 17,-9 36,-14 57,-14 21,0 40,5 57,14zm-99 24l0 0c-12,7 -22,17 -29,31 -7,13 -10,29 -10,47 0,17 3,33 10,47 7,13 17,23 29,31 12,7 26,10 42,10 16,0 29,-3 42,-11 12,-7 22,-17 29,-31 7,-13 10,-29 10,-46 0,-18 -3,-34 -10,-47 -7,-14 -17,-24 -29,-31 -13,-7 -26,-11 -42,-11 -16,0 -30,4 -42,11z"/>
     <path class="fil1" d="M5614 2465c18,13 30,31 37,53l-31 0c-6,-14 -15,-25 -27,-33 -13,-8 -27,-12 -45,-12 -15,0 -29,3 -41,10 -12,8 -22,18 -29,31 -7,13 -10,29 -10,47 0,18 3,34 10,48 7,13 17,23 30,31 12,7 27,10 43,10 14,0 27,-3 38,-9 12,-6 21,-14 29,-26 7,-11 11,-25 13,-40l-89 0 0 -22 114 0 0 27c-2,18 -8,34 -17,49 -9,14 -22,26 -37,35 -16,8 -34,12 -54,12 -21,0 -41,-4 -57,-14 -17,-10 -30,-24 -40,-41 -9,-18 -14,-38 -14,-60 0,-23 5,-43 14,-60 10,-17 23,-31 40,-41 16,-10 35,-15 57,-15 26,0 49,7 66,20z"/>
     <polygon class="fil1" points="5763,2447 5763,2674 5734,2674 5734,2447 "/>
     <path class="fil1" d="M6017 2466c18,13 31,32 38,55l-31 0c-6,-15 -15,-27 -28,-35 -13,-9 -29,-14 -47,-14 -15,0 -28,4 -40,11 -12,7 -21,17 -28,31 -6,13 -10,29 -10,47 0,18 4,33 10,47 7,13 16,23 28,30 12,7 25,11 40,11 18,0 34,-4 47,-13 13,-9 22,-21 28,-36l31 0c-7,23 -20,42 -38,56 -18,13 -40,20 -68,20 -21,0 -40,-5 -56,-15 -17,-9 -29,-23 -38,-40 -10,-18 -14,-38 -14,-60 0,-23 4,-43 14,-60 9,-18 21,-31 38,-41 16,-10 35,-15 56,-15 28,0 50,7 68,21z"/>
     <path class="fil1" d="M6265 2622l-99 0 -19 52 -32 0 84 -222 33 0 84 222 -32 0 -19 -52zm-8 -23l0 0 -42 -115 -41 115 83 0z"/>
     <polygon class="fil1" points="6413,2651 6494,2651 6494,2674 6384,2674 6384,2447 6413,2447 "/>
    </g>
    <g>
     <path class="fil1" d="M6818 2674l-59 -92 -32 0 0 92 -29 0 0 -227 74 0c26,0 45,7 58,19 13,12 19,29 19,49 0,18 -5,33 -15,45 -10,11 -25,18 -45,21l62 93 -33 0zm-91 -114l0 0 43 0c33,0 50,-14 50,-43 0,-30 -17,-44 -50,-44l-43 0 0 87z"/>
     <polygon class="fil1" points="6953,2471 6953,2549 7039,2549 7039,2571 6953,2571 6953,2650 7049,2650 7049,2674 6924,2674 6924,2447 7049,2447 7049,2471 "/>
     <path class="fil1" d="M7261 2645c-6,9 -13,17 -24,23 -10,5 -23,8 -39,8 -15,0 -28,-2 -40,-8 -11,-5 -21,-13 -28,-22 -7,-10 -11,-21 -12,-33l31 0c1,6 3,13 7,19 4,6 9,11 16,15 7,4 15,6 25,6 13,0 23,-4 30,-10 7,-7 10,-16 10,-27 0,-9 -2,-16 -7,-22 -5,-6 -11,-11 -18,-14 -7,-3 -17,-7 -29,-11 -14,-4 -26,-9 -34,-13 -9,-4 -16,-10 -23,-19 -6,-8 -9,-19 -9,-33 0,-12 3,-22 9,-31 5,-9 14,-16 24,-21 11,-5 23,-7 38,-7 22,0 40,5 53,16 13,11 20,24 23,41l-32 0c-2,-9 -6,-17 -14,-24 -7,-7 -17,-10 -30,-10 -12,0 -22,3 -29,9 -7,6 -10,15 -10,26 0,9 2,16 7,21 4,6 10,10 17,13 7,3 16,7 28,11 15,4 26,9 35,13 9,5 17,11 23,20 6,8 9,20 9,34 0,11 -2,21 -7,30z"/>
     <path class="fil1" d="M7507 2459c17,10 30,24 39,42 10,17 15,37 15,60 0,22 -5,42 -15,60 -9,17 -22,31 -39,41 -17,10 -36,15 -57,15 -21,0 -40,-5 -57,-15 -17,-10 -30,-24 -40,-41 -10,-18 -15,-38 -15,-60 0,-23 5,-43 15,-60 10,-18 23,-32 40,-42 17,-9 36,-14 57,-14 21,0 40,5 57,14zm-99 24l0 0c-12,7 -22,17 -29,31 -7,13 -10,29 -10,47 0,17 3,33 10,47 7,13 17,23 29,31 12,7 26,10 42,10 15,0 29,-3 42,-11 12,-7 22,-17 29,-31 7,-13 10,-29 10,-46 0,-18 -3,-34 -10,-47 -7,-14 -17,-24 -29,-31 -13,-7 -27,-11 -42,-11 -16,0 -30,4 -42,11z"/>
     <path class="fil1" d="M7667 2447l0 136c0,23 5,39 14,50 10,10 24,16 41,16 17,0 31,-6 40,-16 10,-11 15,-27 15,-50l0 -136 29 0 0 136c0,31 -7,55 -23,70 -15,16 -36,23 -61,23 -26,0 -46,-7 -62,-23 -15,-15 -23,-39 -23,-70l0 -136 30 0z"/>
     <path class="fil1" d="M8010 2674l-59 -92 -32 0 0 92 -29 0 0 -227 75 0c25,0 45,7 58,19 12,12 19,29 19,49 0,18 -5,33 -16,45 -10,11 -25,18 -44,21l61 93 -33 0zm-91 -114l0 0 43 0c33,0 50,-14 50,-43 0,-30 -17,-44 -50,-44l-43 0 0 87z"/>
     <path class="fil1" d="M8285 2466c18,13 30,32 37,55l-31 0c-5,-15 -15,-27 -28,-35 -13,-9 -28,-14 -47,-14 -15,0 -28,4 -40,11 -11,7 -21,17 -27,31 -7,13 -10,29 -10,47 0,18 3,33 10,47 6,13 16,23 27,30 12,7 25,11 40,11 19,0 34,-4 47,-13 13,-9 23,-21 28,-36l31 0c-7,23 -19,42 -37,56 -18,13 -41,20 -69,20 -21,0 -40,-5 -56,-15 -16,-9 -29,-23 -38,-40 -9,-18 -14,-38 -14,-60 0,-23 5,-43 14,-60 9,-18 22,-31 38,-41 16,-10 35,-15 56,-15 28,0 51,7 69,21z"/>
     <polygon class="fil1" points="8429,2471 8429,2549 8515,2549 8515,2571 8429,2571 8429,2650 8525,2650 8525,2674 8400,2674 8400,2447 8525,2447 8525,2471 "/>
     <path class="fil1" d="M8737 2645c-5,9 -13,17 -24,23 -10,5 -23,8 -38,8 -15,0 -29,-2 -40,-8 -12,-5 -21,-13 -28,-22 -7,-10 -11,-21 -13,-33l32 0c0,6 2,13 6,19 4,6 9,11 16,15 7,4 16,6 26,6 12,0 22,-4 29,-10 7,-7 10,-16 10,-27 0,-9 -2,-16 -7,-22 -5,-6 -11,-11 -18,-14 -7,-3 -16,-7 -29,-11 -14,-4 -25,-9 -34,-13 -9,-4 -16,-10 -22,-19 -6,-8 -9,-19 -9,-33 0,-12 2,-22 8,-31 6,-9 14,-16 24,-21 11,-5 24,-7 38,-7 22,0 40,5 53,16 13,11 21,24 23,41l-32 0c-1,-9 -6,-17 -14,-24 -7,-7 -17,-10 -30,-10 -12,0 -21,3 -28,9 -7,6 -11,15 -11,26 0,9 2,16 7,21 5,6 10,10 17,13 7,3 16,7 28,11 15,4 27,9 36,13 9,5 16,11 22,20 7,8 10,20 10,34 0,11 -3,21 -8,30z"/>
    </g>
    <g>
     <polygon class="fil1" points="9176,2451 9176,2674 9146,2674 9146,2496 9075,2674 9049,2674 8978,2497 8978,2674 8949,2674 8949,2451 8984,2451 9063,2638 9141,2451 "/>
     <path class="fil1" d="M9394 2622l-100 0 -19 52 -31 0 84 -222 33 0 84 222 -32 0 -19 -52zm-8 -23l0 0 -42 -115 -41 115 83 0z"/>
     <polygon class="fil1" points="9689,2674 9660,2674 9542,2495 9542,2674 9513,2674 9513,2447 9542,2447 9660,2627 9660,2447 9689,2447 "/>
     <path class="fil1" d="M9907 2622l-100 0 -18 52 -32 0 84 -222 33 0 84 222 -32 0 -19 -52zm-8 -23l0 0 -42 -115 -41 115 83 0z"/>
     <path class="fil1" d="M10195 2465c18,13 30,31 36,53l-31 0c-5,-14 -14,-25 -27,-33 -12,-8 -27,-12 -44,-12 -15,0 -29,3 -42,10 -12,8 -21,18 -28,31 -7,13 -11,29 -11,47 0,18 4,34 11,48 7,13 17,23 29,31 13,7 27,10 44,10 13,0 26,-3 38,-9 11,-6 21,-14 28,-26 8,-11 12,-25 14,-40l-89 0 0 -22 113 0 0 27c-2,18 -7,34 -16,49 -10,14 -22,26 -38,35 -15,8 -33,12 -53,12 -22,0 -41,-4 -58,-14 -17,-10 -30,-24 -39,-41 -9,-18 -14,-38 -14,-60 0,-23 5,-43 14,-60 9,-17 22,-31 39,-41 17,-10 36,-15 58,-15 26,0 48,7 66,20z"/>
     <polygon class="fil1" points="10344,2471 10344,2549 10430,2549 10430,2571 10344,2571 10344,2650 10440,2650 10440,2674 10314,2674 10314,2447 10440,2447 10440,2471 "/>
     <polygon class="fil1" points="10743,2451 10743,2674 10713,2674 10713,2496 10642,2674 10616,2674 10545,2497 10545,2674 10516,2674 10516,2451 10551,2451 10630,2638 10708,2451 "/>
     <polygon class="fil1" points="10857,2471 10857,2549 10944,2549 10944,2571 10857,2571 10857,2650 10953,2650 10953,2674 10828,2674 10828,2447 10953,2447 10953,2471 "/>
     <polygon class="fil1" points="11206,2674 11176,2674 11059,2495 11059,2674 11029,2674 11029,2447 11059,2447 11176,2627 11176,2447 11206,2447 "/>
     <polygon class="fil1" points="11430,2447 11430,2471 11366,2471 11366,2674 11337,2674 11337,2471 11273,2471 11273,2447 "/>
    </g>
   </g>
   <g>
    <path class="fil0" d="M11356 743c23,13 41,30 54,52 13,23 19,49 19,78 0,28 -6,54 -19,77 -13,22 -31,40 -54,53 -23,12 -49,19 -79,19 -29,0 -56,-7 -79,-19 -23,-13 -41,-31 -54,-53 -12,-23 -19,-49 -19,-77 0,-29 7,-55 19,-78 13,-22 31,-39 54,-52 23,-13 50,-19 79,-19 30,0 56,6 79,19zm-11 240l0 0c20,-10 35,-25 45,-44 11,-19 16,-41 16,-66 0,-26 -5,-48 -16,-67 -10,-19 -25,-34 -44,-44 -20,-11 -43,-16 -69,-16 -26,0 -49,5 -68,16 -20,10 -34,25 -45,44 -10,19 -15,41 -15,67 0,25 5,47 15,66 11,19 26,34 45,44 19,11 42,16 68,16 26,0 49,-5 68,-16zm-3 -116l0 0c-7,9 -17,15 -30,19l43 72 -48 0 -40 -69 -8 0 0 69 -44 0 0 -177 72 0c22,0 38,5 49,16 11,10 17,23 17,38 0,12 -4,23 -11,32zm-83 -6l0 0 24 0c16,0 24,-7 24,-20 0,-13 -8,-20 -24,-20l-24 0 0 40z"/>
   </g>
  </g>
 </g>
</svg>
