<?xml version="1.0" encoding="UTF-8"?>
<!DOCTYPE svg PUBLIC "-//W3C//DTD SVG 1.1//EN" "http://www.w3.org/Graphics/SVG/1.1/DTD/svg11.dtd">
<!-- Creator: CorelDRAW X8 -->
<svg xmlns="http://www.w3.org/2000/svg" xml:space="preserve" width="127mm" height="20.6549mm" version="1.1" style="shape-rendering:geometricPrecision; text-rendering:geometricPrecision; image-rendering:optimizeQuality; fill-rule:evenodd; clip-rule:evenodd"
viewBox="0 0 12700 2065"
 xmlns:xlink="http://www.w3.org/1999/xlink">
 <defs>
  <style type="text/css">
   <![CDATA[
    .fil13 {fill:#412814;fill-rule:nonzero}
    .fil0 {fill:#422A15;fill-rule:nonzero}
    .fil1 {fill:#432A16;fill-rule:nonzero}
    .fil2 {fill:#432B17;fill-rule:nonzero}
    .fil3 {fill:#442C17;fill-rule:nonzero}
    .fil12 {fill:#C9971C;fill-rule:nonzero}
    .fil8 {fill:#C9971D;fill-rule:nonzero}
    .fil6 {fill:#CA9921;fill-rule:nonzero}
    .fil11 {fill:#CA9922;fill-rule:nonzero}
    .fil10 {fill:#CA9A22;fill-rule:nonzero}
    .fil9 {fill:#CB9A23;fill-rule:nonzero}
    .fil7 {fill:#CB9A24;fill-rule:nonzero}
    .fil4 {fill:#CB9B26;fill-rule:nonzero}
    .fil5 {fill:#CB9B27;fill-rule:nonzero}
   ]]>
  </style>
 </defs>
 <g id="Layer_x0020_1">
  <metadata id="CorelCorpID_0Corel-Layer"/>
  <g id="_340153784">
   <g>
    <path class="fil0" d="M5746 142c0,-8 0,-12 0,-18 9,0 18,-1 26,-1 171,0 342,-1 512,0 82,0 161,12 235,46 59,26 109,63 144,117 64,98 75,201 21,307 -20,39 -50,70 -85,96 -44,33 -95,55 -149,68 -11,3 -23,5 -35,8 -3,0 -5,3 -9,6 6,4 11,9 17,11 60,30 111,72 155,122 26,29 51,61 74,93 47,65 92,131 138,197 33,46 67,91 107,130 35,35 77,58 126,69 7,1 15,3 22,6 1,1 1,6 2,9 -28,5 -185,6 -277,2 -26,-28 -54,-58 -78,-91 -74,-100 -147,-201 -220,-301 -21,-28 -43,-56 -66,-83 -32,-37 -69,-68 -110,-94 -68,-44 -144,-60 -224,-57 -2,0 -4,2 -7,3 -1,10 -1,21 -1,32 0,140 0,280 0,420 0,17 1,35 4,52 7,41 30,71 69,87 15,6 31,10 47,14 13,3 26,3 39,6 3,0 4,6 8,11 -9,1 -14,2 -19,2 -167,3 -435,2 -468,-3 2,-4 3,-9 6,-10 10,-3 22,-3 32,-6 15,-3 31,-6 45,-11 46,-19 73,-52 77,-102 2,-14 2,-29 2,-43 0,-312 0,-623 0,-935 0,-16 0,-31 -2,-46 -4,-45 -25,-77 -66,-96 -21,-10 -43,-16 -66,-17 -8,0 -16,0 -26,0zm318 607l0 0c31,0 58,0 86,0 48,0 96,-4 144,-12 47,-8 92,-22 134,-46 55,-33 89,-80 104,-142 10,-42 12,-83 6,-125 -11,-66 -36,-124 -86,-170 -37,-34 -77,-59 -125,-73 -67,-21 -135,-26 -205,-22 -18,1 -37,1 -58,8 0,193 0,385 0,582z"/>
    <path class="fil1" d="M11895 84c181,2 349,46 501,146 83,55 154,124 209,209 125,193 132,458 -10,663 -58,86 -132,156 -220,211 -115,72 -240,114 -375,127 -145,14 -286,1 -423,-49 -129,-47 -243,-119 -334,-223 -73,-84 -124,-179 -145,-289 -30,-154 -3,-298 80,-431 58,-94 136,-167 228,-225 107,-67 223,-110 348,-128 47,-7 94,-11 141,-11zm622 686l0 0c-1,-73 -6,-144 -23,-214 -34,-142 -115,-250 -233,-333 -22,-14 -45,-27 -69,-37 -93,-39 -189,-61 -289,-63 -79,-1 -156,11 -231,34 -93,29 -175,77 -242,149 -58,61 -99,134 -126,215 -16,51 -26,104 -30,158 -8,103 -5,205 24,305 56,198 183,330 381,390 151,47 304,44 454,-6 175,-59 291,-177 349,-351 27,-81 34,-164 35,-247z"/>
    <path class="fil0" d="M4757 84c181,2 352,48 505,152 97,65 174,148 229,251 54,104 74,214 65,330 -13,150 -78,276 -182,382 -103,106 -228,177 -370,214 -205,53 -406,44 -603,-35 -122,-49 -229,-123 -313,-226 -63,-77 -109,-162 -129,-260 -33,-158 -9,-307 77,-444 42,-68 96,-126 159,-176 122,-96 261,-153 414,-177 48,-7 96,-11 148,-11zm-629 682l0 0c1,67 6,137 24,206 55,204 183,340 386,402 153,48 308,43 461,-9 78,-26 148,-67 207,-125 70,-70 117,-154 142,-250 38,-146 37,-294 2,-441 -32,-135 -110,-238 -221,-318 -24,-18 -50,-33 -77,-44 -93,-40 -190,-62 -292,-64 -67,-1 -134,8 -199,26 -195,52 -328,172 -396,363 -28,81 -36,165 -37,254z"/>
    <path class="fil0" d="M7463 749c10,0 19,0 28,0 83,0 165,0 248,0 44,0 87,-6 130,-17 50,-14 80,-44 90,-95 1,-3 0,-8 2,-9 4,-3 9,-4 14,-5 1,5 3,8 3,11 0,87 0,174 0,261 0,7 1,14 -6,18 -5,2 -10,-4 -14,-15 -5,-18 -11,-36 -23,-51 -22,-27 -49,-47 -85,-52 -29,-3 -57,-6 -86,-6 -95,-1 -189,-1 -284,-1 -5,0 -11,1 -14,1 -8,6 -7,13 -7,19 0,145 0,289 0,433 0,27 5,53 15,77 11,25 28,40 53,46 17,4 35,7 52,7 87,1 174,1 261,0 33,0 64,-4 95,-13 53,-16 95,-45 123,-94 9,-15 17,-31 26,-46 2,-4 7,-6 11,-9 2,4 4,6 4,8 -17,64 -33,128 -49,191 -34,5 -668,7 -890,3 -6,0 -13,-1 -20,-2 1,-5 2,-9 4,-10 6,-1 13,-2 19,-2 32,-2 60,-12 86,-30 28,-18 44,-43 49,-75 2,-14 3,-29 3,-43 0,-319 0,-639 0,-958 0,-31 -4,-61 -19,-90 -17,-33 -44,-54 -81,-59 -20,-3 -39,-5 -59,-7 -1,-3 -1,-6 -1,-9 28,-4 877,-4 906,0 1,5 2,10 2,15 0,55 0,110 0,165 0,6 -2,11 -4,16 0,1 -7,1 -7,0 -3,-3 -5,-8 -5,-12 -4,-64 -41,-102 -98,-124 -37,-15 -77,-20 -116,-23 -18,-1 -35,-1 -53,-1 -90,0 -181,0 -271,0 -11,0 -22,1 -32,1 -2,5 -4,8 -4,11 0,187 0,374 0,562 0,3 2,6 4,13z"/>
    <path class="fil2" d="M8770 174c-6,0 -14,-1 -21,-1 -95,0 -190,0 -284,0 -48,0 -95,6 -140,21 -11,4 -21,8 -31,13 -32,13 -54,36 -70,67 -10,21 -17,43 -21,66 -1,8 -2,17 -5,25 -1,4 -5,8 -8,9 -7,1 -9,-5 -9,-11 0,-5 0,-11 0,-16 0,-87 0,-174 0,-261 0,-7 0,-14 1,-20 1,-5 8,-9 13,-6 5,4 10,8 14,13 21,26 48,40 79,44 24,3 49,5 73,5 90,1 180,1 271,1 236,0 473,0 710,0 18,0 35,0 53,-3 39,-5 74,-21 102,-48 7,-7 14,-16 26,-11 4,23 5,259 1,309 -13,3 -14,3 -16,-6 -3,-16 -5,-33 -9,-48 -6,-18 -13,-36 -21,-52 -13,-25 -34,-43 -60,-55 -40,-19 -83,-29 -127,-33 -13,-2 -26,-2 -39,-2 -99,-1 -198,-1 -298,-1 -6,0 -12,2 -20,2 -1,9 -2,16 -2,24 0,349 0,698 0,1047 0,15 2,31 5,46 7,41 31,69 68,86 23,11 47,14 71,17 6,1 13,2 19,3 1,4 1,7 1,10 -27,4 -454,4 -483,0 2,-4 3,-9 6,-10 11,-3 23,-4 35,-6 21,-3 41,-11 59,-21 35,-18 54,-47 59,-86 2,-13 2,-26 2,-39 0,-348 0,-696 0,-1044 0,-9 2,-18 -4,-28z"/>
    <path class="fil2" d="M10991 62c4,39 3,286 -1,310 -7,3 -13,1 -15,-7 -3,-15 -4,-30 -8,-45 -4,-15 -9,-30 -15,-44 -15,-32 -39,-55 -72,-70 -38,-17 -79,-26 -121,-30 -17,-2 -35,-3 -52,-3 -93,0 -185,0 -278,0 -9,0 -17,1 -26,2 -7,12 -4,24 -4,36 0,187 0,375 0,562 0,155 0,310 0,466 1,18 2,37 5,55 8,40 31,68 68,84 15,6 32,10 48,14 12,3 26,3 39,6 2,0 4,5 7,10 -5,1 -8,3 -11,3 -158,0 -315,0 -476,0 3,-6 3,-12 5,-12 12,-3 24,-5 36,-7 21,-3 40,-10 59,-20 37,-18 56,-49 61,-89 1,-12 1,-24 1,-36 0,-348 0,-696 0,-1044 0,-9 0,-17 0,-28 -8,-1 -14,-2 -21,-2 -97,0 -194,0 -290,0 -40,0 -80,4 -118,15 -17,5 -33,11 -50,18 -33,14 -56,38 -71,70 -10,20 -17,41 -20,62 -2,10 -4,20 -6,30 -2,7 -7,7 -15,4 0,-3 -2,-7 -2,-11 0,-95 0,-190 0,-284 0,-4 0,-7 0,-10 1,-7 11,-10 16,-6 5,4 10,9 14,14 19,23 44,36 73,41 17,3 33,5 49,6 16,1 31,1 47,1 320,0 641,0 961,0 17,0 33,0 50,-2 40,-5 76,-20 106,-49 7,-7 13,-16 27,-10z"/>
    <path class="fil3" d="M2189 124c302,0 605,0 910,0 1,5 2,11 2,16 0,54 0,108 0,162 0,4 -1,8 -2,12 -1,2 -3,3 -5,3 -2,0 -5,-1 -6,-2 -3,-5 -4,-10 -6,-15 -6,-16 -11,-33 -19,-49 -23,-44 -61,-72 -110,-81 -23,-4 -46,-7 -69,-8 -118,0 -236,0 -354,0 -6,0 -13,1 -20,2 -1,7 -2,14 -2,20 -3,152 -2,526 3,560 7,0 14,2 21,2 108,0 216,0 324,0 20,0 40,-2 60,-5 55,-7 88,-40 105,-92 2,-8 4,-17 8,-25 1,-2 5,-4 8,-4 2,1 6,3 7,6 1,4 1,9 1,13 0,85 0,170 0,254 0,7 1,14 -7,17 -4,3 -10,-3 -13,-14 -1,-4 -2,-7 -2,-10 -15,-54 -51,-87 -107,-95 -20,-3 -41,-6 -62,-6 -107,0 -214,0 -321,0 -6,0 -13,1 -18,1 -9,8 -7,17 -7,25 0,71 0,141 0,212 0,73 0,145 0,218 0,12 1,24 2,36 8,68 64,106 109,114 18,4 37,5 56,7 3,6 3,11 -4,12 -8,2 -16,1 -23,1 -145,0 -289,0 -433,0 -8,0 -16,0 -23,-1 -2,0 -5,-4 -5,-7 0,-2 3,-6 6,-6 14,-2 28,-2 42,-5 65,-10 109,-58 114,-123 1,-11 1,-22 1,-33 0,-313 0,-626 0,-939 0,-13 0,-26 -1,-39 -5,-65 -34,-99 -103,-115 -17,-5 -35,-4 -52,-6 -7,-1 -9,-6 -5,-13z"/>
    <path class="fil0" d="M3758 1410c-162,0 -321,0 -480,0 -5,-7 -3,-12 4,-13 10,-3 22,-4 32,-5 24,-3 45,-12 65,-23 29,-17 47,-41 53,-73 3,-18 5,-37 5,-55 1,-111 0,-221 0,-331 0,-205 0,-410 0,-615 0,-20 -2,-41 -5,-62 -6,-33 -26,-58 -57,-72 -20,-10 -40,-17 -63,-20 -10,-1 -21,-2 -32,-5 -3,0 -4,-6 -7,-11 10,-1 16,-2 22,-2 148,0 296,0 443,0 5,0 11,1 16,2 2,0 3,3 3,5 0,2 -1,5 -3,6 -9,2 -19,4 -29,5 -24,2 -47,10 -69,21 -36,19 -55,50 -59,89 -2,13 -2,27 -2,40 0,316 0,632 0,948 0,14 0,27 2,40 4,37 21,66 54,86 22,14 47,24 73,28 10,1 20,2 29,5 2,1 3,6 5,12z"/>
    <path class="fil4" d="M12699 1827c0,10 0,17 0,22 -2,1 -3,2 -4,3 -1,0 -2,1 -3,1 -1334,0 -2668,1 -4002,1 -4,0 -9,-1 -12,-1 -8,-8 -7,-15 -4,-22 2,-1 4,-3 6,-3 11,-1 22,-1 33,-1 1315,0 2631,0 3946,0 12,0 24,0 40,0z"/>
    <path class="fil5" d="M5608 1827c0,11 0,17 0,22 -3,2 -5,4 -6,4 -13,1 -25,1 -37,1 -1112,0 -2225,0 -3337,0 -13,0 -27,0 -42,0 0,-9 -1,-16 -1,-22 3,-2 5,-4 7,-4 11,-1 22,-1 33,-1 1115,0 2230,0 3344,0 12,0 24,0 39,0z"/>
    <path class="fil6" d="M6685 1713c-47,95 -84,191 -124,284 -15,7 -28,6 -43,1 -18,-48 -37,-96 -56,-144 -19,-47 -36,-95 -59,-141 -5,15 -4,30 -4,45 0,16 0,33 0,49 0,16 0,31 0,46 0,16 0,31 0,47 0,16 0,33 0,49 0,15 0,31 0,46 -15,10 -28,8 -43,3 -1,-7 -3,-13 -3,-19 0,-97 0,-194 0,-291 0,-30 5,-35 34,-35 3,0 7,0 10,0 23,-1 37,9 45,31 25,63 51,126 76,190 7,17 14,34 23,55 5,-10 9,-16 12,-22 30,-71 60,-142 89,-213 16,-39 19,-43 68,-41 14,1 20,7 22,21 0,6 0,13 0,19 0,93 0,185 0,278 0,8 -1,17 -2,26 -13,7 -26,6 -38,3 -9,-10 -6,-20 -6,-30 0,-75 0,-150 0,-224 0,-11 0,-22 -1,-33z"/>
    <path class="fil7" d="M6073 1926c4,-9 8,-17 11,-25 29,-69 58,-138 87,-207 3,-6 6,-12 8,-18 7,-16 19,-23 36,-23 45,-1 46,3 46,43 0,90 0,180 0,271 0,9 0,19 0,28 -15,10 -29,9 -44,2 -3,-32 -1,-63 -2,-95 0,-31 0,-62 0,-93 0,-32 0,-63 0,-95 -11,-2 -11,7 -13,12 -33,80 -66,161 -99,241 0,2 -1,4 -2,6 -13,31 -14,32 -50,26 -9,-8 -11,-21 -16,-32 -28,-72 -57,-145 -85,-218 -5,-12 -10,-24 -15,-35 -3,0 -4,-1 -5,0 0,0 -1,2 -1,3 0,91 -1,183 -1,274 0,1 -1,2 -2,5 -11,9 -25,8 -41,2 0,-7 -2,-14 -2,-22 0,-95 0,-191 0,-287 0,-33 4,-36 36,-36 5,0 11,0 16,0 16,1 27,9 33,24 3,6 5,12 8,18 27,67 53,135 81,202 4,10 5,22 16,29z"/>
    <path class="fil8" d="M8488 1921c0,-87 0,-174 0,-261 0,-1 1,-2 2,-3 18,-8 18,-8 38,0 1,6 2,12 2,18 1,97 0,194 1,291 0,35 -12,35 -38,34 -11,0 -20,-4 -26,-13 -6,-9 -12,-18 -18,-28 -41,-75 -83,-150 -124,-225 -3,-5 -6,-9 -9,-14 -2,1 -3,1 -4,2 -1,0 -1,1 -1,2 0,90 0,180 0,271 -13,9 -26,8 -41,3 -1,-7 -3,-14 -3,-21 0,-96 0,-192 0,-288 0,-4 0,-9 0,-13 2,-16 7,-21 23,-23 6,0 11,0 17,0 15,0 27,6 35,20 5,7 9,15 13,23 40,71 79,143 118,214 2,5 5,9 8,13 3,-1 5,-1 7,-2z"/>
    <path class="fil9" d="M7360 1814c8,5 13,9 19,12 54,30 54,119 1,154 -19,12 -40,19 -62,20 -35,0 -71,1 -106,0 -16,0 -21,-5 -22,-21 -1,-6 -1,-11 -1,-17 0,-90 0,-180 0,-270 0,-38 2,-39 40,-39 24,0 48,-1 72,1 14,0 29,3 42,7 53,19 73,86 38,131 -5,7 -12,13 -21,22zm-123 146l0 0c31,2 58,3 85,0 33,-5 53,-34 48,-67 -5,-27 -21,-44 -47,-49 -28,-6 -56,-5 -86,0 -1,38 -1,75 0,116zm1 -157l0 0c22,0 40,0 59,-1 37,-2 59,-32 51,-68 -3,-15 -9,-28 -23,-34 -12,-5 -26,-8 -39,-9 -16,0 -32,-4 -49,5 0,34 -2,68 1,107z"/>
    <path class="fil10" d="M7117 1837c-3,15 -5,41 -12,65 -17,58 -57,92 -117,102 -30,5 -60,3 -88,-6 -38,-12 -66,-37 -79,-74 -23,-63 -23,-126 0,-188 17,-42 48,-70 93,-81 35,-10 70,-9 104,0 40,12 67,37 83,75 12,31 15,64 16,107zm-48 -10l0 0c-1,-28 -5,-55 -15,-81 -10,-23 -26,-41 -50,-50 -62,-25 -125,6 -142,71 -11,39 -10,78 -1,117 2,10 4,20 8,29 9,18 22,33 40,42 62,31 132,0 150,-66 5,-20 7,-41 10,-62z"/>
    <path class="fil11" d="M8183 1690c-45,5 -90,-1 -136,5 -3,35 -3,68 0,104 8,0 16,1 23,2 28,0 55,-1 83,0 13,0 17,5 17,18 0,14 -4,20 -16,20 -24,1 -47,0 -70,1 -12,0 -24,0 -37,1 -4,40 -1,78 -2,118 8,1 14,2 21,2 32,1 64,0 95,1 9,0 18,1 25,2 5,17 5,17 0,34 -6,1 -12,2 -19,2 -46,0 -92,0 -138,0 -6,0 -11,0 -17,-1 -7,-1 -12,-5 -13,-13 -1,-6 -1,-13 -1,-19 0,-94 0,-188 0,-281 0,-6 0,-11 1,-17 1,-9 6,-14 15,-15 5,-1 11,-1 16,-1 45,0 91,0 136,0 22,0 25,5 22,29 0,2 -2,4 -5,8z"/>
    <path class="fil11" d="M7630 1657c16,-8 29,-8 44,2 1,48 1,98 1,147 0,50 0,99 0,150 7,2 13,4 19,4 28,0 55,0 83,0 8,0 17,1 25,2 8,11 7,22 3,34 -6,2 -12,4 -18,4 -44,0 -88,0 -132,0 -5,0 -9,0 -13,-1 -8,-1 -12,-6 -13,-13 -1,-6 -1,-11 -1,-17 0,-99 0,-198 0,-297 0,-4 1,-9 2,-15z"/>
    <path class="fil11" d="M7862 1999c-4,-35 -3,-317 0,-342 20,-7 20,-7 40,0 1,1 2,2 2,3 1,1 1,2 1,3 0,106 1,213 1,319 0,5 -1,9 -1,14 -14,9 -27,6 -43,3z"/>
    <path class="fil11" d="M5744 1659c17,-10 30,-10 45,-1 4,27 1,56 2,84 0,29 0,57 0,86 0,27 0,55 0,82 0,29 0,57 0,85 -15,10 -29,8 -42,4 -1,-2 -2,-3 -3,-4 0,-1 -1,-2 -1,-3 0,-102 -1,-204 -1,-306 0,-9 0,-17 0,-27z"/>
    <path class="fil11" d="M7533 1657c4,26 4,309 0,340 -13,8 -26,6 -40,1 -1,-1 -1,-2 -2,-3 0,-1 -1,-2 -1,-3 0,-107 -1,-213 -1,-320 0,-4 1,-8 2,-14 14,-9 28,-10 42,-1z"/>
   </g>
   <g>
    <path class="fil12" d="M1780 1624c-10,25 -26,42 -39,62 -13,18 -24,38 -41,55 -25,-18 -46,-40 -68,-60 -22,-20 -45,-41 -68,-62 -17,16 -27,35 -39,54 30,33 66,59 95,92 -14,27 -33,51 -50,76 -17,25 -34,50 -51,74 -18,25 -34,51 -52,75 -17,25 -32,51 -53,75 -23,-16 -42,-36 -62,-56 22,-32 43,-63 65,-95 -15,-13 -28,-25 -39,-36 -10,0 -12,6 -15,10 -15,22 -30,44 -45,65 -3,5 -7,9 -10,13 -23,-15 -84,-73 -98,-91 11,-24 90,-137 107,-154 27,25 54,49 81,74 16,-12 20,-17 34,-45 -24,-29 -55,-50 -81,-79 12,-31 37,-54 52,-84 -9,-13 -20,-22 -34,-32 -13,12 -19,27 -29,39 -10,12 -17,27 -29,39 -32,-22 -55,-53 -86,-74 -16,13 -23,29 -34,45 29,27 56,52 84,78 -5,17 -17,29 -25,43 -8,12 -17,25 -26,37 -9,13 -18,27 -27,40 -9,12 -16,25 -28,37 -7,-5 -13,-9 -18,-14 -26,-26 -56,-49 -81,-77 19,-33 43,-61 62,-94 -11,-15 -25,-27 -41,-39 -15,14 -23,31 -34,46 -11,15 -21,29 -31,44 -19,-11 -46,-36 -60,-56 -1,-1 -1,-2 -1,-2 1,-1 1,-2 1,-3 66,-95 131,-191 196,-286 1,-2 3,-4 6,-8 6,4 12,7 17,11 23,21 45,42 68,63 4,4 9,7 14,12 17,-16 26,-36 38,-51 0,-3 0,-4 0,-5 -1,-1 -1,-2 -2,-3l-612 -565c-6,5 -11,8 -15,11 -16,16 -43,12 -55,-10 -3,-5 -5,-10 -9,-16 -25,4 -43,-7 -55,-30 -9,1 -15,8 -22,13 -43,32 -91,56 -145,66 -48,8 -94,6 -140,-10 -6,-3 -12,-4 -21,-7 0,8 0,14 -1,20 -1,9 -3,19 -6,27 -4,11 -13,17 -24,18 -15,2 -30,3 -44,-5 -41,-20 -70,-51 -82,-96 -2,-8 -3,-17 -1,-25 2,-18 12,-31 31,-35 6,-2 11,-3 18,-4 -2,-5 -2,-8 -4,-11 -35,-62 -48,-129 -48,-199 1,-67 15,-131 40,-193 2,-5 3,-9 5,-13 0,-1 0,-2 0,-3 -1,-2 -2,-4 -3,-4 -25,-6 -33,-24 -33,-46 -1,-10 1,-21 3,-31 9,-34 26,-63 53,-85 9,-8 20,-15 31,-19 18,-7 34,-2 46,13 3,4 6,9 10,15 5,-4 11,-8 16,-12 34,-30 71,-56 114,-73 69,-27 139,-33 209,-4 3,1 6,1 9,2 0,0 1,0 5,-1 0,-3 1,-7 1,-12 0,-6 -1,-13 0,-19 4,-21 18,-34 39,-34 9,0 18,0 25,3 47,19 79,52 91,101 3,9 2,19 1,28 -3,15 -12,26 -27,30 -6,2 -12,4 -20,6 11,26 23,49 30,74 8,25 14,52 17,78 3,25 4,51 3,76 -2,26 -6,53 -11,79 -5,25 -12,51 -19,78 23,10 39,26 36,55 18,6 34,13 40,32 6,19 0,35 -8,52l1009 932zm-1593 -1115l0 0c-1,43 7,83 27,121 25,46 64,71 116,77 52,6 97,-9 132,-49 23,-26 35,-58 38,-93 1,-16 7,-25 22,-32 48,-20 75,-59 86,-109 12,-53 3,-104 -20,-152 -31,-67 -99,-99 -171,-83 -33,8 -63,21 -89,42 -91,70 -136,164 -141,278z"/>
    <path class="fil13" d="M877 1000l-288 273c-35,32 -70,64 -104,96 -4,4 -8,8 -13,13 13,18 24,35 37,53 5,-3 10,-6 14,-9 23,-22 47,-44 70,-66 4,-4 9,-6 15,-10 3,3 7,5 9,7 65,95 129,189 194,283 2,2 2,5 4,8 -10,16 -39,43 -62,58 -21,-30 -42,-59 -64,-91 -9,7 -16,13 -23,19 -6,6 -12,12 -19,18 18,34 43,62 61,95 -11,16 -76,76 -98,91 -2,-1 -5,-2 -7,-4 -34,-49 -67,-98 -101,-147 10,-19 28,-29 41,-43 14,-13 28,-26 43,-39 -9,-17 -19,-31 -31,-47 -16,12 -29,25 -43,38 -14,12 -28,25 -43,39 -23,-24 -37,-54 -59,-79 -13,8 -24,18 -34,31 15,28 37,52 53,81 -4,5 -6,10 -10,13 -19,18 -38,35 -56,52 -6,5 -11,10 -18,16 10,17 19,33 33,47 29,-24 55,-52 83,-76 18,17 94,127 109,155 -12,15 -65,66 -98,93 -3,-4 -7,-8 -10,-12 -14,-18 -26,-37 -39,-56 -5,-7 -11,-15 -16,-22 -12,2 -17,10 -24,16 -6,6 -12,12 -19,19 3,6 6,11 9,17 14,21 29,42 43,63 4,5 7,11 10,17 -18,21 -38,38 -57,55 -11,-1 -13,-9 -18,-15 -45,-65 -89,-131 -134,-196 -18,-25 -35,-50 -52,-75 -2,-4 -4,-8 -7,-13 3,-4 6,-9 10,-13 21,-20 43,-40 65,-60 6,-6 13,-13 20,-20 -12,-18 -24,-35 -35,-51 -9,0 -13,6 -18,10 -33,31 -66,62 -100,92 -7,7 -12,15 -22,16 -15,-15 -65,-87 -78,-111 0,-9 8,-12 13,-17 70,-65 140,-130 211,-195 145,-134 291,-269 437,-403l115 -108 101 94zm130 -306c-1,-4 -2,-8 -3,-11 -16,-38 -6,-61 34,-73 4,-36 6,-39 38,-59 -42,-129 -48,-257 21,-382 -5,-2 -9,-4 -13,-5 -29,-7 -41,-25 -36,-54 2,-10 5,-20 9,-30 14,-30 36,-53 65,-69 13,-8 28,-11 43,-11 22,1 36,12 39,34 1,10 0,21 0,33 4,-1 8,0 11,-1 83,-35 163,-24 241,15 33,17 62,39 90,63 3,4 7,6 11,10 7,-4 8,-11 11,-16 11,-14 24,-19 40,-13 10,3 20,7 28,13 33,25 55,57 63,98 2,12 2,25 1,37 -3,15 -11,28 -28,31 -3,1 -5,2 -8,4 57,140 70,280 -5,418 3,9 11,6 17,7 19,4 29,17 32,35 1,8 0,17 -2,25 -12,45 -41,76 -82,96 -14,8 -29,7 -44,5 -16,-2 -27,-16 -29,-34 -1,-10 0,-20 0,-32 -123,48 -229,15 -327,-62 -11,9 -15,25 -30,28 -8,2 -17,2 -28,4 -1,3 -4,8 -7,14 -14,23 -36,27 -58,11 -3,-3 -6,-7 -11,-11 -6,5 -11,8 -16,12 -24,22 -46,41 -70,63l-104 -94 107 -99zm584 -178l0 0c3,-108 -55,-221 -135,-282 -30,-22 -62,-39 -99,-46 -66,-12 -123,11 -157,66 -32,53 -43,111 -29,172 11,50 39,88 87,108 13,5 20,13 20,27 0,4 0,8 1,12 6,35 19,67 45,93 69,68 189,52 237,-31 22,-38 31,-79 30,-119z"/>
   </g>
  </g>
 </g>
</svg>
