<?xml version="1.0" encoding="UTF-8"?>
<!DOCTYPE svg PUBLIC "-//W3C//DTD SVG 1.1//EN" "http://www.w3.org/Graphics/SVG/1.1/DTD/svg11.dtd">
<!-- Creator: CorelDRAW X8 -->
<svg xmlns="http://www.w3.org/2000/svg" xml:space="preserve" width="127.004mm" height="24.6708mm" version="1.1" style="shape-rendering:geometricPrecision; text-rendering:geometricPrecision; image-rendering:optimizeQuality; fill-rule:evenodd; clip-rule:evenodd"
viewBox="0 0 12700 2467"
 xmlns:xlink="http://www.w3.org/1999/xlink">
 <defs>
  <style type="text/css">
   <![CDATA[
    .fil0 {fill:black}
    .fil1 {fill:#184297}
   ]]>
  </style>
 </defs>
 <g id="Layer_x0020_1">
  <metadata id="CorelCorpID_0Corel-Layer"/>
  <path class="fil0" d="M12700 940c1,114 -9,227 -34,338 -17,78 -42,152 -80,222 -86,158 -215,259 -390,299 -132,31 -265,31 -396,-2 -172,-43 -298,-147 -383,-301 -47,-85 -75,-177 -93,-273 -28,-146 -31,-293 -20,-441 10,-122 34,-242 81,-356 43,-105 104,-197 191,-270 85,-72 183,-116 293,-134 111,-17 221,-15 330,15 153,42 270,133 353,268 56,91 91,191 115,295 24,112 34,226 33,340zm-302 -6l0 0c0,-90 -6,-177 -26,-263 -16,-72 -41,-141 -83,-202 -46,-65 -107,-110 -184,-131 -50,-13 -101,-15 -152,-10 -70,8 -133,33 -186,80 -47,42 -80,94 -105,152 -33,79 -49,162 -56,247 -9,107 -8,215 7,322 9,60 24,120 49,176 38,82 95,145 179,181 53,23 108,32 165,31 104,-2 192,-41 261,-120 51,-58 81,-128 101,-202 24,-86 31,-174 30,-261zm-5961 5c-1,124 -11,246 -41,365 -17,70 -42,138 -77,201 -83,152 -209,251 -377,292 -140,34 -280,34 -420,-4 -158,-42 -276,-139 -358,-279 -51,-87 -83,-180 -102,-278 -29,-148 -34,-297 -22,-447 9,-111 28,-220 66,-325 41,-113 101,-214 191,-295 88,-79 191,-128 308,-147 111,-17 221,-15 330,15 161,44 281,141 363,285 56,96 89,200 111,308 20,102 27,206 28,309zm-302 -9l0 0c-2,-89 -8,-179 -28,-267 -18,-72 -43,-141 -87,-201 -46,-62 -105,-104 -180,-124 -49,-13 -100,-15 -151,-10 -62,8 -119,28 -169,66 -52,40 -88,92 -115,151 -36,78 -53,161 -61,246 -9,80 -10,160 -5,241 5,72 15,144 37,214 14,44 32,85 59,123 62,87 147,135 253,145 139,14 252,-31 337,-144 37,-51 60,-108 77,-168 26,-88 32,-179 33,-272zm388 -862c6,0 10,0 14,0 245,0 491,-1 737,0 126,1 233,48 318,141 57,62 91,137 108,218 23,108 20,215 -18,320 -21,60 -53,113 -103,154 -20,16 -43,28 -65,42 -5,2 -9,5 -14,7 18,10 36,18 53,28 61,36 96,92 108,160 7,37 12,75 13,112 1,167 0,334 0,502 0,2 0,5 0,9 -100,0 -199,0 -299,0 0,-8 0,-16 0,-23 0,-135 0,-269 0,-404 -1,-29 -3,-59 -7,-87 -13,-86 -59,-130 -144,-142 -23,-3 -46,-5 -69,-6 -107,0 -214,0 -321,0 -4,0 -8,0 -14,0 0,221 0,441 0,662 -100,0 -198,0 -297,0 0,-564 0,-1127 0,-1693zm297 745l0 0c6,0 10,0 14,0 123,0 245,1 368,0 23,0 47,-3 70,-7 63,-10 107,-44 133,-102 14,-33 21,-66 22,-101 2,-59 -7,-115 -40,-166 -19,-28 -44,-48 -76,-60 -29,-11 -60,-15 -91,-15 -128,0 -256,0 -384,0 -5,0 -10,0 -16,1 0,150 0,299 0,450zm966 -744c359,0 716,0 1074,0 0,98 0,195 0,295 -259,0 -517,0 -776,0 0,121 0,240 0,361 59,1 118,1 178,1 59,0 118,0 177,0 60,0 120,0 180,0 59,0 118,0 177,0 4,16 6,262 2,298 -238,0 -475,0 -714,0 0,147 0,290 0,436 270,0 540,0 811,0 0,101 0,200 0,301 -369,0 -739,0 -1109,0 0,-564 0,-1127 0,-1692zm-3200 0c0,98 0,195 0,295 -245,0 -490,0 -735,0 0,129 0,256 0,385 214,0 427,0 642,0 0,100 0,198 0,298 -214,0 -427,0 -642,0 0,239 0,476 0,714 -104,0 -204,0 -307,0 0,-564 0,-1127 0,-1690 16,-4 979,-7 1042,-2zm5066 1692c-103,0 -204,0 -307,0 0,-465 0,-930 0,-1396 -147,0 -292,0 -437,0 -5,-16 -6,-263 -2,-296 395,0 791,0 1188,0 0,98 0,195 0,295 -147,0 -293,0 -442,0 0,467 0,931 0,1397zm1229 0c-103,0 -204,0 -307,0 0,-465 0,-930 0,-1396 -147,0 -293,0 -437,0 -5,-16 -6,-262 -2,-296 395,0 790,0 1187,0 0,98 0,195 0,295 -146,0 -293,0 -441,0 0,467 0,931 0,1397zm-5930 0c-102,0 -202,0 -304,0 0,-563 0,-1127 0,-1692 101,0 201,0 304,0 0,563 0,1127 0,1692z"/>
  <path class="fil0" d="M3693 2467c-37,0 -72,-6 -107,-17 -34,-12 -61,-27 -81,-45l26 -55c19,17 43,31 72,42 29,10 59,15 90,15 41,0 72,-7 92,-20 20,-14 30,-33 30,-56 0,-16 -6,-30 -17,-41 -11,-10 -24,-18 -40,-24 -17,-5 -39,-12 -69,-19 -37,-9 -67,-18 -89,-26 -23,-9 -43,-23 -59,-42 -16,-18 -24,-43 -24,-74 0,-27 7,-50 21,-71 14,-21 35,-38 63,-51 28,-12 63,-19 104,-19 29,0 58,4 86,11 28,8 52,19 72,33l-23 56c-20,-13 -42,-23 -66,-30 -23,-7 -46,-10 -69,-10 -39,0 -69,7 -89,22 -20,14 -30,33 -30,56 0,17 6,30 17,41 11,10 25,19 42,24 16,6 39,13 67,19 37,9 67,18 90,27 22,9 41,22 57,41 17,18 25,42 25,73 0,26 -7,50 -21,71 -14,21 -36,38 -64,50 -29,13 -64,19 -106,19zm1444 -176l0 170 -70 0 0 -171 -195 -320 75 0 157 259 158 -259 70 0 -195 321zm1371 176c-37,0 -72,-6 -107,-17 -34,-12 -61,-27 -81,-45l26 -55c19,17 43,31 72,42 29,10 59,15 90,15 41,0 71,-7 91,-20 21,-14 31,-33 31,-56 0,-16 -6,-30 -17,-41 -11,-10 -24,-18 -41,-24 -16,-5 -39,-12 -68,-19 -37,-9 -67,-18 -90,-26 -22,-9 -42,-23 -58,-42 -16,-18 -24,-43 -24,-74 0,-27 7,-50 21,-71 13,-21 34,-38 63,-51 28,-12 62,-19 104,-19 29,0 58,4 86,11 28,8 52,19 72,33l-23 56c-21,-13 -43,-23 -66,-30 -23,-7 -46,-10 -69,-10 -40,0 -69,7 -89,22 -20,14 -30,33 -30,56 0,17 5,30 17,41 11,10 25,19 41,24 17,6 40,13 68,19 37,9 67,18 89,27 23,9 42,22 58,41 16,18 25,42 25,73 0,26 -7,50 -22,71 -14,21 -35,38 -63,50 -29,13 -64,19 -106,19zm1356 -436l-168 0 0 -61 406 0 0 61 -168 0 0 430 -70 0 0 -430zm1644 369l0 61 -356 0 0 -491 347 0 0 61 -277 0 0 151 246 0 0 60 -246 0 0 158 286 0zm1543 61l-1 -358 -178 299 -32 0 -178 -297 0 356 -67 0 0 -491 57 0 206 345 202 -345 57 0 1 491 -67 0zm1331 6c-37,0 -73,-6 -108,-17 -34,-12 -61,-27 -81,-45l26 -55c19,17 43,31 72,42 30,10 60,15 91,15 40,0 71,-7 91,-20 20,-14 30,-33 30,-56 0,-16 -5,-30 -16,-41 -11,-10 -25,-18 -41,-24 -16,-5 -39,-12 -69,-19 -37,-9 -67,-18 -89,-26 -23,-9 -42,-23 -59,-42 -16,-18 -24,-43 -24,-74 0,-27 7,-50 21,-71 14,-21 35,-38 63,-51 28,-12 63,-19 104,-19 29,0 58,4 86,11 28,8 52,19 72,33l-23 56c-20,-13 -42,-23 -66,-30 -23,-7 -46,-10 -69,-10 -39,0 -69,7 -89,22 -20,14 -30,33 -30,56 0,17 6,30 17,41 11,10 25,19 42,24 16,6 39,13 67,19 37,9 67,18 90,27 22,9 41,22 58,41 16,18 24,42 24,73 0,26 -7,50 -21,71 -14,21 -36,38 -64,50 -29,13 -64,19 -105,19z"/>
  <path class="fil1" d="M1651 0l367 0 1198 0 -310 432 -875 0 0 547 462 0 0 435 -462 0 0 1031 -380 0 0 -2013 0 -432zm-453 0l-1198 0 310 432 874 0 0 547 -462 0 0 435 462 0 0 645 380 386 0 -2013 0 -432 -366 0z"/>
 </g>
</svg>
