<?xml version="1.0" encoding="UTF-8"?>
<!DOCTYPE svg PUBLIC "-//W3C//DTD SVG 1.1//EN" "http://www.w3.org/Graphics/SVG/1.1/DTD/svg11.dtd">
<!-- Creator: CorelDRAW X8 -->
<svg xmlns="http://www.w3.org/2000/svg" xml:space="preserve" width="127mm" height="14.9982mm" version="1.1" style="shape-rendering:geometricPrecision; text-rendering:geometricPrecision; image-rendering:optimizeQuality; fill-rule:evenodd; clip-rule:evenodd"
viewBox="0 0 12700 1500"
 xmlns:xlink="http://www.w3.org/1999/xlink">
 <defs>
  <style type="text/css">
   <![CDATA[
    .fil2 {fill:#184297}
    .fil0 {fill:#2E3035;fill-rule:nonzero}
    .fil1 {fill:#313438;fill-rule:nonzero}
   ]]>
  </style>
 </defs>
 <g id="Layer_x0020_1">
  <metadata id="CorelCorpID_0Corel-Layer"/>
  <g id="_568370712">
   <path class="fil0" d="M8636 1007c-68,0 -135,0 -202,0 0,-60 0,-119 0,-179 127,0 255,0 382,0 0,193 0,385 0,578 -9,3 -125,4 -158,1 -1,-17 -2,-34 -2,-51 -1,-17 -2,-33 -3,-52 -2,3 -3,4 -4,5 -29,54 -74,89 -130,110 -96,36 -191,38 -285,-6 -60,-29 -107,-73 -147,-126 -50,-67 -82,-144 -102,-225 -23,-91 -29,-183 -21,-276 8,-82 25,-162 60,-237 31,-68 73,-128 133,-174 62,-48 132,-75 210,-82 67,-6 133,0 196,24 135,53 217,151 246,293 4,16 5,33 7,50 -65,0 -129,0 -194,0 -1,-5 -2,-11 -3,-16 -21,-85 -74,-139 -158,-159 -81,-20 -151,3 -208,64 -39,42 -62,93 -76,148 -19,79 -23,159 -16,240 5,56 17,110 40,161 17,37 39,70 68,99 76,75 195,75 272,13 51,-41 81,-94 92,-157 2,-12 2,-24 3,-36 1,-3 0,-6 0,-10z"/>
   <path class="fil0" d="M3644 884c1,76 -6,152 -24,227 -11,47 -27,93 -51,136 -52,95 -131,157 -237,183 -86,22 -173,21 -259,-2 -98,-26 -171,-85 -223,-171 -34,-56 -55,-116 -68,-180 -17,-86 -21,-172 -17,-259 4,-72 14,-143 35,-213 21,-66 51,-128 97,-181 59,-68 133,-110 222,-125 71,-13 142,-11 212,9 98,27 171,87 222,173 34,57 56,119 70,184 16,72 22,145 21,219zm-189 -8l0 0c0,-54 -4,-110 -17,-166 -10,-46 -26,-90 -53,-129 -28,-39 -64,-67 -111,-80 -28,-9 -58,-11 -87,-9 -64,4 -116,30 -156,81 -14,19 -26,39 -35,60 -24,54 -34,111 -39,169 -5,61 -5,122 2,182 5,44 14,87 31,127 26,60 67,104 129,127 21,7 43,11 65,13 77,5 141,-20 191,-80 29,-34 46,-73 58,-115 17,-58 22,-117 22,-180z"/>
   <path class="fil0" d="M10654 868c0,96 -7,175 -26,252 -14,53 -33,104 -63,151 -51,78 -121,131 -212,156 -87,24 -175,25 -262,4 -110,-27 -189,-94 -242,-192 -30,-55 -49,-114 -60,-175 -17,-93 -19,-186 -12,-279 6,-78 20,-153 49,-226 24,-59 57,-114 103,-159 60,-58 131,-92 214,-104 64,-9 127,-7 190,10 104,27 181,90 235,184 33,59 54,123 68,190 13,67 18,135 18,188zm-190 11l0 0c0,-56 -4,-113 -16,-168 -10,-46 -26,-90 -53,-129 -28,-40 -64,-68 -111,-81 -29,-9 -59,-11 -89,-9 -64,5 -116,31 -155,82 -14,18 -25,38 -35,59 -23,53 -34,109 -38,166 -6,62 -5,124 2,187 5,43 14,85 31,125 52,122 165,156 265,135 64,-14 111,-53 144,-109 16,-28 28,-59 36,-90 15,-55 20,-111 19,-168z"/>
   <path class="fil0" d="M7578 884c-1,78 -6,156 -25,232 -14,55 -34,108 -65,156 -52,79 -123,132 -214,156 -86,23 -172,24 -258,3 -107,-26 -185,-90 -239,-184 -32,-56 -51,-116 -63,-179 -17,-90 -20,-181 -14,-273 5,-71 17,-140 40,-208 18,-54 43,-104 79,-149 65,-81 148,-128 251,-142 69,-9 137,-6 204,15 88,27 156,81 205,159 37,58 61,121 76,188 17,74 23,149 23,226zm-190 -7l0 0c0,-57 -4,-116 -18,-173 -10,-44 -26,-86 -53,-124 -27,-39 -64,-66 -110,-80 -28,-8 -57,-10 -86,-8 -62,4 -114,29 -153,78 -22,26 -37,55 -48,87 -17,47 -26,96 -30,146 -5,75 -4,149 9,223 7,40 19,79 40,115 26,46 64,79 114,97 21,7 42,11 64,13 79,5 145,-21 195,-84 27,-34 44,-73 56,-115 16,-57 20,-115 20,-175z"/>
   <path class="fil0" d="M4312 891c10,5 20,10 30,15 39,23 61,58 70,101 6,27 8,54 8,82 1,104 1,207 1,311 0,2 -1,4 -1,7 -62,0 -124,0 -188,0 0,-4 0,-9 0,-14 0,-86 0,-173 0,-260 0,-23 -1,-45 -6,-67 -10,-44 -38,-69 -82,-76 -17,-3 -34,-5 -51,-5 -66,-1 -133,-1 -200,-1 -3,0 -5,1 -9,1 0,141 0,281 0,422 -63,0 -124,0 -186,0 -2,-9 -3,-1056 0,-1080 4,0 9,0 13,0 150,0 300,1 451,0 118,-1 224,69 263,188 28,84 29,169 -2,253 -19,49 -50,89 -97,114 -5,2 -9,5 -13,7 0,0 0,0 -1,2zm-428 -376l0 0c0,96 0,191 0,287 4,0 6,0 9,0 79,0 158,0 238,0 11,0 23,-1 35,-3 41,-7 69,-29 86,-68 7,-17 12,-36 13,-55 3,-40 -3,-78 -25,-112 -12,-20 -30,-34 -52,-41 -18,-7 -38,-9 -57,-8 -78,0 -157,0 -235,0 -3,0 -7,0 -12,0z"/>
   <path class="fil0" d="M9179 985c0,141 0,281 0,421 -11,3 -159,4 -185,1 -3,-9 -4,-1051 -2,-1080 5,0 10,0 14,0 150,0 300,1 451,0 119,-1 227,71 265,193 26,84 26,168 -6,250 -20,53 -54,93 -106,117 -1,1 -2,2 -4,3 3,2 5,3 7,4 55,23 86,64 96,122 4,28 7,55 7,83 0,99 0,199 0,298 0,3 -1,6 -1,10 -62,0 -124,0 -188,0 0,-5 0,-9 0,-14 0,-86 0,-171 0,-256 0,-23 0,-46 -6,-68 -2,-9 -5,-17 -8,-25 -9,-23 -26,-38 -49,-47 -23,-9 -46,-12 -70,-12 -70,-1 -141,0 -211,0 -1,0 -2,0 -4,0zm0 -470l0 0c0,96 0,191 0,286 3,1 6,1 9,1 79,0 157,0 236,0 12,0 23,-1 35,-3 41,-6 70,-28 87,-66 7,-16 11,-32 13,-49 4,-36 1,-71 -15,-104 -16,-35 -43,-56 -81,-62 -12,-2 -25,-3 -38,-3 -78,-1 -156,0 -233,0 -4,0 -8,0 -13,0z"/>
   <path class="fil0" d="M4490 328c225,0 450,0 675,0 0,62 0,124 0,187 -162,0 -324,0 -487,0 0,78 0,154 0,231 148,0 297,0 446,0 3,11 4,158 2,191 -149,0 -298,0 -447,0 -3,10 -3,262 -1,279 170,0 339,0 509,0 0,64 0,127 0,191 -232,0 -464,0 -697,0 0,-360 0,-719 0,-1079z"/>
   <path class="fil0" d="M10707 328c66,0 130,0 196,0 0,5 0,10 0,16 0,230 0,460 0,691 0,36 3,73 14,108 6,19 15,37 26,53 25,36 60,56 103,61 28,3 55,1 82,-6 55,-14 91,-48 109,-102 10,-29 14,-60 14,-92 0,-9 0,-18 0,-27 0,-229 0,-458 0,-686 0,-5 0,-10 0,-16 66,0 131,0 196,0 0,3 1,6 1,10 0,240 0,481 0,721 0,54 -7,106 -23,158 -36,111 -111,181 -224,212 -58,16 -118,19 -179,14 -41,-3 -81,-12 -118,-28 -95,-39 -154,-110 -180,-209 -12,-46 -17,-93 -17,-140 0,-243 0,-485 0,-728 0,-3 0,-6 0,-10z"/>
   <path class="fil0" d="M11704 1015c0,132 0,262 0,392 -65,0 -128,0 -192,0 0,-360 0,-719 0,-1079 3,0 6,-1 10,-1 134,0 268,0 402,0 90,1 161,40 215,111 35,46 55,98 65,154 14,76 11,151 -14,225 -25,73 -70,131 -140,168 -39,20 -82,30 -126,30 -68,1 -136,0 -204,0 -5,0 -10,0 -16,0zm0 -183l0 0c6,0 10,0 15,0 52,0 105,0 157,-1 13,0 25,0 38,-1 56,-5 97,-31 116,-85 17,-45 18,-92 3,-138 -15,-48 -48,-79 -98,-88 -14,-3 -29,-4 -44,-4 -59,-1 -118,0 -177,0 -3,0 -6,0 -10,1 0,105 0,209 0,316z"/>
   <path class="fil0" d="M1829 328c218,0 435,0 653,0 0,62 0,124 0,187 -51,1 -102,1 -153,1 -51,0 -102,0 -153,0 -51,0 -103,0 -155,0 0,82 0,163 0,246 135,0 269,0 403,0 0,63 0,126 0,190 -14,1 -29,0 -43,0 -15,0 -31,0 -46,0 -15,0 -29,0 -44,0 -15,0 -30,0 -46,0 -14,0 -29,0 -44,0 -15,0 -30,0 -45,0 -15,0 -30,0 -45,0 -15,0 -30,0 -45,0 -15,0 -30,0 -46,0 0,153 0,304 0,455 -64,0 -128,0 -191,0 0,-360 0,-719 0,-1079z"/>
   <path class="fil0" d="M5940 328c0,63 0,124 0,187 -92,0 -184,0 -277,0 0,298 0,595 0,892 -65,0 -128,0 -193,0 0,-297 0,-593 0,-891 -93,0 -184,0 -276,0 0,-63 0,-125 0,-188 248,0 497,0 746,0z"/>
   <path class="fil0" d="M6434 515c0,299 0,595 0,892 -64,0 -127,0 -192,0 -2,-32 -1,-65 -1,-98 0,-33 0,-66 0,-99 0,-33 0,-65 0,-98 0,-33 0,-66 0,-99 0,-34 0,-67 0,-101 0,-33 0,-66 0,-99 0,-33 0,-65 0,-98 0,-33 0,-66 0,-99 0,-33 0,-66 0,-100 -93,0 -184,0 -276,0 0,-63 0,-125 0,-188 248,0 497,0 746,0 0,62 0,124 0,187 -92,0 -184,0 -277,0z"/>
   <path class="fil0" d="M2712 1408c-64,0 -127,0 -190,0 -2,-9 -3,-1065 0,-1080 63,0 126,0 190,0 0,360 0,719 0,1080z"/>
   <path class="fil1" d="M12450 499c-138,0 -249,-112 -249,-250 0,-137 112,-249 249,-249 139,0 250,112 250,251 0,137 -113,248 -250,248zm0 -458l0 0c-116,0 -210,93 -210,209 0,116 94,210 209,210 117,0 210,-93 210,-210 0,-116 -93,-209 -209,-209z"/>
   <path class="fil1" d="M12518 244c23,8 27,24 27,43 -1,21 0,43 0,65 -16,0 -31,0 -47,0 0,-6 0,-12 0,-19 0,-13 0,-27 0,-40 -1,-20 -7,-28 -27,-29 -19,-1 -38,0 -59,0 0,29 0,59 0,89 -16,0 -31,0 -46,0 0,-76 0,-151 0,-227 3,-1 7,-1 10,-1 34,0 69,0 103,0 9,0 17,1 26,3 42,12 55,57 41,90 -5,11 -14,19 -28,26zm-106 -18l0 0c17,0 33,0 49,0 6,0 13,0 20,-1 17,-3 27,-15 26,-31 0,-17 -9,-27 -26,-29 -3,-1 -6,-1 -9,-1 -17,0 -34,0 -51,0 -3,0 -6,1 -9,1 0,21 0,40 0,61z"/>
   <path class="fil2" d="M820 285l182 0 595 0 -154 215 -434 0 0 272 229 0 0 216 -229 0 0 512 -189 0 0 -1000 0 -215zm-225 0l-595 0 154 215 434 0 0 272 -229 0 0 216 229 0 0 320 189 192 0 -1000 0 -215 -182 0z"/>
  </g>
 </g>
</svg>
