<?xml version="1.0" encoding="UTF-8"?>
<!DOCTYPE svg PUBLIC "-//W3C//DTD SVG 1.1//EN" "http://www.w3.org/Graphics/SVG/1.1/DTD/svg11.dtd">
<!-- Creator: CorelDRAW X8 -->
<svg xmlns="http://www.w3.org/2000/svg" xml:space="preserve" width="113.874mm" height="19.25mm" version="1.1" style="shape-rendering:geometricPrecision; text-rendering:geometricPrecision; image-rendering:optimizeQuality; fill-rule:evenodd; clip-rule:evenodd"
viewBox="0 0 11387 1925"
 xmlns:xlink="http://www.w3.org/1999/xlink">
 <defs>
  <style type="text/css">
   <![CDATA[
    .fil0 {fill:#EB5F30;fill-rule:nonzero}
    .fil1 {fill:#004264;fill-rule:nonzero}
   ]]>
  </style>
 </defs>
 <g id="Layer_x0020_1">
  <metadata id="CorelCorpID_0Corel-Layer"/>
  <path class="fil0" d="M2470 1925c-1556,-47 -2470,-478 -2470,-956l0 -1c0,-462 890,-919 2471,-968l0 0c1,0 10,1 12,10 2,10 -8,12 -8,12 -1068,159 -1745,538 -1740,950 3,365 682,839 1735,928 23,1 27,26 0,25z"/>
  <path class="fil1" d="M3256 403c0,-17 -2,-32 -7,-46 -4,-13 -10,-24 -19,-33 -8,-9 -19,-16 -32,-21 -14,-5 -29,-7 -48,-7l-180 0c-25,0 -47,2 -66,7 -19,5 -35,14 -49,26 -14,13 -26,28 -37,48 -10,20 -20,44 -29,72l-295 783 -4 0 -285 -785c-8,-28 -17,-52 -28,-71 -11,-20 -25,-35 -41,-47 -16,-12 -35,-21 -58,-26 -22,-5 -49,-7 -80,-7l-175 0c-31,0 -55,9 -73,27 -19,19 -28,45 -28,80l0 1172c0,7 2,13 6,19 3,5 10,10 20,13 10,3 23,6 39,8 16,2 37,3 61,3 25,0 46,-1 62,-3 16,-2 29,-5 39,-8 10,-3 17,-8 21,-13 4,-6 5,-12 5,-19l0 -1071 2 0 369 1070c2,8 6,14 12,20 6,5 14,10 25,13 10,4 24,7 40,9 16,1 36,2 59,2 23,0 43,0 59,-1 16,-1 30,-4 40,-7 11,-3 19,-8 25,-14 6,-6 11,-13 13,-22l382 -1070 2 0 0 1071c0,7 2,13 6,19 4,5 11,10 20,13 10,3 23,6 39,8 16,2 36,3 61,3 25,0 46,-1 62,-3 16,-2 29,-5 39,-8 10,-3 17,-8 20,-13 4,-6 6,-12 6,-19l0 -1172zm1106 1055c-2,-13 -4,-24 -7,-32 -4,-8 -8,-14 -13,-18 -5,-4 -11,-6 -17,-6l-474 0 0 -371 398 0c6,0 11,-2 17,-5 5,-3 9,-9 12,-17 4,-7 6,-18 8,-31 2,-13 2,-29 2,-49 0,-19 0,-35 -2,-48 -2,-13 -4,-24 -8,-31 -3,-8 -7,-14 -12,-18 -6,-3 -11,-5 -17,-5l-398 0 0 -322 470 0c6,0 12,-2 16,-5 5,-4 9,-10 12,-18 4,-8 6,-19 8,-32 2,-13 3,-29 3,-48 0,-21 -1,-38 -3,-51 -2,-13 -4,-24 -8,-32 -3,-9 -7,-15 -12,-18 -4,-4 -10,-5 -16,-5l-657 0c-22,0 -41,6 -57,20 -15,13 -22,34 -22,64l0 1148c0,29 7,51 22,64 16,13 35,20 57,20l661 0c6,0 12,-2 17,-6 5,-3 9,-9 13,-17 3,-9 5,-19 7,-32 2,-14 3,-30 3,-50 0,-19 -1,-36 -3,-49zm1237 92c-3,-9 -12,-27 -27,-55l-394 -595 362 -473c16,-27 28,-46 34,-58 6,-12 9,-24 9,-36 0,-6 -2,-13 -6,-18 -4,-5 -11,-10 -22,-14 -10,-3 -24,-6 -42,-8 -18,-2 -40,-3 -67,-3 -26,0 -48,0 -65,2 -17,1 -31,3 -42,7 -11,3 -20,8 -26,14 -7,5 -13,13 -18,21l-385 560 0 -561c0,-7 -2,-14 -6,-19 -4,-5 -11,-10 -22,-13 -10,-4 -23,-6 -40,-8 -17,-2 -39,-3 -65,-3 -26,0 -48,1 -65,3 -17,2 -31,4 -41,8 -10,3 -18,8 -22,13 -4,5 -7,12 -7,19l0 1240c0,8 3,14 7,20 4,5 12,10 22,13 10,4 24,7 41,9 17,2 39,3 65,3 26,0 48,-1 65,-3 17,-2 30,-5 40,-9 11,-3 18,-8 22,-13 4,-6 6,-12 6,-20l0 -624 398 624c4,10 11,18 19,25 9,7 23,12 42,15 20,3 51,5 95,5 28,0 51,-1 69,-3 19,-2 33,-5 44,-9 10,-3 17,-8 21,-14 4,-6 6,-12 6,-20 0,-5 -2,-12 -5,-22zm1416 -1213c-1,-10 -3,-18 -7,-24 -3,-6 -7,-10 -11,-13 -5,-3 -9,-4 -14,-4l-592 0c-16,0 -30,5 -44,15 -14,11 -21,30 -21,56l0 1219c0,4 1,9 4,13 3,5 7,8 14,10 7,3 16,5 28,7 11,1 25,2 41,2 18,0 32,-1 43,-2 11,-2 20,-4 26,-7 7,-2 12,-5 15,-10 2,-4 4,-9 4,-13l0 -549 455 0c5,0 10,-1 14,-4 5,-3 8,-8 12,-14 3,-5 6,-13 7,-22 1,-9 2,-20 2,-33 0,-14 -1,-26 -2,-35 -1,-9 -4,-16 -7,-22 -4,-5 -7,-9 -12,-12 -4,-2 -9,-3 -14,-3l-455 0 0 -448 482 0c5,0 9,-1 14,-4 4,-3 8,-7 11,-13 4,-5 6,-13 7,-22 2,-10 2,-21 2,-34 0,-13 0,-24 -2,-34zm375 334c0,-5 -2,-9 -4,-13 -3,-4 -7,-8 -13,-10 -7,-3 -15,-5 -26,-6 -11,-2 -25,-2 -42,-2 -16,0 -29,0 -40,2 -11,1 -20,3 -26,6 -7,2 -11,6 -14,10 -2,4 -3,8 -3,13l0 916c0,5 1,10 3,13 3,4 7,7 14,10 6,3 15,5 26,6 11,1 24,2 40,2 17,0 31,-1 42,-2 11,-1 19,-3 26,-6 6,-3 10,-6 13,-10 2,-3 4,-8 4,-13l0 -916zm-3 -388c-14,-14 -41,-21 -81,-21 -40,0 -67,7 -82,22 -15,14 -22,41 -22,80 0,39 7,65 22,79 14,14 41,21 80,21 40,0 68,-8 83,-22 15,-14 22,-41 22,-80 0,-39 -7,-65 -22,-79zm1101 745c0,-65 -5,-121 -16,-167 -12,-47 -30,-87 -56,-122 -26,-34 -59,-62 -101,-83 -42,-20 -93,-31 -154,-31 -52,0 -104,14 -155,41 -52,26 -103,69 -154,126l0 -121c0,-5 -2,-10 -4,-14 -2,-3 -6,-7 -12,-10 -5,-3 -13,-5 -23,-6 -9,-1 -22,-1 -37,-1 -15,0 -28,0 -37,1 -10,1 -18,3 -24,6 -6,3 -10,7 -12,10 -2,4 -3,9 -3,14l0 916c0,5 1,10 4,13 2,4 6,7 13,10 6,3 15,5 26,6 11,1 24,2 40,2 17,0 31,-1 42,-2 11,-1 19,-3 26,-6 6,-3 10,-6 13,-10 2,-3 4,-8 4,-13l0 -640c46,-58 90,-102 132,-131 42,-30 84,-45 126,-45 33,0 61,6 86,18 25,12 45,30 61,53 15,23 27,50 35,82 8,32 13,74 13,127l0 536c0,5 1,10 4,13 2,4 7,7 13,10 6,3 14,5 25,6 11,1 25,2 42,2 16,0 30,-1 41,-2 10,-1 19,-3 25,-6 6,-3 11,-6 13,-10 3,-3 4,-8 4,-13l0 -559zm955 -58c0,-57 -7,-107 -20,-149 -13,-43 -33,-79 -62,-108 -28,-28 -66,-50 -112,-65 -46,-15 -102,-23 -168,-23 -35,0 -70,4 -104,10 -35,6 -67,15 -96,24 -29,10 -55,21 -77,33 -23,12 -38,22 -48,31 -9,9 -15,18 -17,28 -2,10 -3,23 -3,40 0,10 0,20 2,28 1,9 3,16 6,21 3,5 7,9 11,12 4,3 9,4 14,4 8,0 21,-5 37,-15 17,-9 38,-20 62,-32 25,-12 54,-23 87,-33 33,-9 70,-14 111,-14 39,0 71,4 98,13 26,10 48,23 64,41 17,18 29,41 36,68 8,27 12,58 12,93l0 71 -126 0c-72,0 -136,7 -193,19 -57,13 -105,32 -144,57 -39,25 -70,56 -91,94 -21,38 -31,83 -31,135 0,44 7,83 23,118 15,34 36,63 64,87 27,24 60,42 99,54 39,13 83,19 131,19 55,0 107,-12 156,-35 49,-24 94,-57 134,-100l0 92c0,8 2,14 7,18 5,4 13,7 23,9 11,2 25,3 42,3 19,0 32,-1 42,-3 10,-2 17,-5 22,-9 6,-4 9,-10 9,-18l0 -618zm-167 394c-42,46 -81,80 -119,103 -37,22 -78,33 -122,33 -55,0 -97,-14 -127,-42 -30,-28 -45,-66 -45,-114 0,-27 5,-52 15,-73 11,-22 27,-40 50,-55 22,-15 50,-27 84,-35 34,-8 74,-11 120,-11l144 0 0 194zm1263 -336c0,-65 -6,-121 -17,-167 -11,-47 -29,-87 -55,-122 -26,-34 -60,-62 -101,-83 -42,-20 -93,-31 -154,-31 -53,0 -104,14 -156,41 -51,26 -102,69 -154,126l0 -121c0,-5 -1,-10 -3,-14 -3,-3 -7,-7 -12,-10 -5,-3 -13,-5 -23,-6 -10,-1 -22,-1 -37,-1 -16,0 -28,0 -38,1 -9,1 -17,3 -23,6 -6,3 -10,7 -12,10 -2,4 -3,9 -3,14l0 916c0,5 1,10 3,13 3,4 7,7 14,10 6,3 15,5 25,6 11,1 25,2 41,2 17,0 31,-1 42,-2 11,-1 19,-3 25,-6 6,-3 11,-6 14,-10 2,-3 4,-8 4,-13l0 -640c46,-58 90,-102 132,-131 42,-30 84,-45 126,-45 32,0 61,6 86,18 25,12 45,30 60,53 16,23 28,50 36,82 8,32 12,74 12,127l0 536c0,5 2,10 4,13 3,4 7,7 14,10 6,3 14,5 25,6 11,1 25,2 42,2 16,0 30,-1 40,-2 11,-1 20,-3 26,-6 6,-3 10,-6 13,-10 3,-3 4,-8 4,-13l0 -559zm845 480c-2,-9 -4,-17 -7,-22 -3,-6 -7,-9 -11,-12 -5,-2 -10,-3 -15,-3l-429 0 401 -629c7,-11 13,-21 18,-30 4,-8 8,-17 11,-24 2,-8 5,-16 6,-24 1,-8 2,-17 2,-27l0 -32c0,-12 -1,-21 -4,-29 -2,-7 -5,-13 -9,-18 -4,-5 -9,-8 -15,-10 -6,-2 -12,-3 -20,-3l-525 0c-6,0 -11,1 -15,3 -5,3 -9,7 -12,12 -3,6 -5,14 -6,23 -2,9 -2,20 -2,32 0,25 3,43 9,54 7,11 15,17 26,17l392 0 -404 629c-7,10 -13,20 -17,29 -5,8 -9,16 -11,24 -3,7 -5,14 -6,22 -2,7 -3,16 -3,25l0 35c0,22 5,38 14,48 9,9 21,14 35,14l564 0c5,0 10,-1 15,-4 5,-2 9,-6 11,-12 3,-6 5,-13 7,-22 2,-9 3,-20 3,-33 0,-13 -1,-24 -3,-33z"/>
 </g>
</svg>
