<svg id="Layer_1" data-name="Layer 1" xmlns="http://www.w3.org/2000/svg" viewBox="0 0 1157.2 337.72"><defs><style>.cls-1{fill:#fff;}.cls-2{fill:none;}</style></defs><title>Kunden hinzufugen</title><path class="cls-1" d="M891.41,322.08c-.7.3-1,.9-1.4,1.3-8.2,8.7-18.5,13.3-30.6,14.3a68.12,68.12,0,0,1-35.9-6.1c-18.2-8.7-29.3-22.8-32.9-42.2a61,61,0,0,1,3.1-33.8c5.8-15.2,16.3-26.5,31.6-32.9,20.2-8.6,40.5-8.2,60.3,1.3,14.5,7,23.8,18.4,27.7,33.8l.6,2.7a4.57,4.57,0,0,1-2,.2h-27.4a2.5,2.5,0,0,1-2.7-1.6c-4-8.9-11.3-13.7-21.1-15.2a40.36,40.36,0,0,0-16.6.9c-10.3,2.8-17.6,9-21.5,18.6-3.9,9.9-4.1,19.9.6,29.6,5.1,10.5,14,16.2,25.7,17.9a38,38,0,0,0,18.9-1.8c7.4-2.7,14-8.6,17.1-15.3-.8-.6-1.7-.3-2.5-.3l-28.6-.3h-1.4c-1.7-.1-1.7-.1-1.7-1.7v-20c0-.8.3-1.1,1.1-1.1h60.9c2.5,0,2.3-.2,2.3,2.2v61.6c.1,1.2-.3,1.7-1.6,1.6-1.6-.1-3.2,0-4.8,0h-14.2c-1.3,0-1.8-.4-1.9-1.7-.2-3.5-.6-6.9-.9-10.4A1.39,1.39,0,0,0,891.41,322.08Z" transform="translate(-1.6 -0.68)"/><path class="cls-1" d="M212.61,273.28v62.4c0,2.8.4,2.5-2.5,2.5h-25.2c-2.3,0-2.1.2-2.1-1.9v-116c-.1-1,.4-1.2,1.3-1.1h19.7a3.48,3.48,0,0,1,3,1.4c18.2,21,36.4,42.1,54.5,63.1.6.7,1.2,1.4,2.3,2.5v-64.4c0-2.9-.4-2.6,2.7-2.6h25c2.3,0,2.3,0,2.3,2.1v115.1c0,1.9,0,1.9-2.2,1.9-6.2,0-12.5-.1-18.7,0a4.75,4.75,0,0,1-3.9-1.7q-17.4-19.8-34.8-39.4c-6.6-7.5-13.2-15-19.8-22.4A3.36,3.36,0,0,0,212.61,273.28Z" transform="translate(-1.6 -0.68)"/><path class="cls-1" d="M1127.81,285.38v-63.6c0-2.9-.4-2.6,2.7-2.6h25c2.3,0,2.3-.3,2.3,2.1v115c0,2.2.1,2-2.1,2-6.2,0-12.5-.1-18.7,0a4.75,4.75,0,0,1-3.9-1.7c-11.7-13.3-23.4-26.5-35.1-39.8-6.5-7.4-13-14.7-19.5-22.1-.4-.4-.8-.9-1.6-1.6V336c0,2.5.3,2.2-2.3,2.2h-25.2c-2.7,0-2.3.3-2.4-2.4V221.88c0-3.3-.4-2.7,3-2.8h18a3.48,3.48,0,0,1,3,1.4c18.1,21,36.2,41.9,54.4,62.9.7.8,1.3,1.5,2,2.2C1127.51,285.48,1127.61,285.48,1127.81,285.38Z" transform="translate(-1.6 -0.68)"/><path class="cls-1" d="M1.61,278.58v-56.9c0-3-.3-2.6,2.7-2.6h25.2c1.9,0,2,0,2,1.9v44.1c0,1.7,0,1.8,1.9,1.8h45.1c2,0,2,0,2-2.1v-41.6c0-1.3-.6-2.9.3-3.8s2.6-.3,3.9-.3H108c2.6,0,2.4-.3,2.4,2.4V336c0,2.3.2,2.1-2.2,2.1H83c-2.8,0-2.5.2-2.5-2.3v-41.4c0-.7-.3-1-1-1h-47c-.7,0-1,.3-1,1v42.2c.1,1-.2,1.4-1.3,1.4a28.05,28.05,0,0,0-2.9,0H3.81c-2.4,0-2.1.2-2.1-2.2C1.61,316.88,1.61,297.78,1.61,278.58Z" transform="translate(-1.6 -0.68)"/><path class="cls-1" d="M939,278.38v-56.7c0-2.9-.4-2.6,2.7-2.6h85.5a4.82,4.82,0,0,0,1.2,0c1.4-.2,1.6.5,1.6,1.6V243c0,1.7,0,1.8-1.8,1.8h-57.1c-2.1,0-2.1,0-2.1,2.1v17.7c0,2.1-.1,2,2.1,2h49.5c1.7,0,1.7,0,1.8,1.6v21.9c0,1.7,0,1.7-1.9,1.7h-49.4c-1.9,0-1.9,0-1.9,2V311c0,1.2.4,1.6,1.6,1.6h58.5c.6,0,.8.3.8.9v22.6c0,2.5.3,2.3-2.3,2.3h-86.4c-2.4,0-2.2.2-2.2-2.1C939,316.88,939,297.58,939,278.38Z" transform="translate(-1.6 -0.68)"/><path class="cls-1" d="M541.31,255v26a68.9,68.9,0,0,1-3.7,23.8c-6.2,17.4-18.8,28-37.3,31.9a71.28,71.28,0,0,1-32.8-.6c-18.5-4.8-30.1-16.5-35.5-34.1a69.4,69.4,0,0,1-2.8-20.2c-.1-20.1,0-40.3,0-60.4v-1.2c0-.7.3-1,1-1H457c2.5,0,2.3-.1,2.3,2.3v60a38.84,38.84,0,0,0,2.5,14.3c7.5,18.8,30.4,18.6,40.3,9.4,5-4.6,7.5-10.5,8.6-17a48.52,48.52,0,0,0,.5-7.6v-58.8c0-2.9-.4-2.6,2.7-2.6h25.4c1.9,0,2,0,2,1.9Z" transform="translate(-1.6 -0.68)"/><path class="cls-1" d="M774.21,255.18v26.3c-.1,7.9-1,15.8-3.7,23.3-6.2,17.4-18.8,28-37.3,32a71.28,71.28,0,0,1-32.8-.6c-18.6-4.8-30.3-16.5-35.6-34.3a70.64,70.64,0,0,1-2.7-20.4v-61.4c0-.6.3-.8.9-.8h27.1c2.2,0,2.1-.1,2.1,2v60a41,41,0,0,0,1.9,13c2.8,8.1,8.1,13.9,16.8,16.1,12.8,3.2,28-1.7,32.1-19.3a39.48,39.48,0,0,0,1-9.7v-59.5c0-2.9-.4-2.6,2.7-2.6h25c2.7,0,2.5-.2,2.5,2.3Z" transform="translate(-1.6 -0.68)"/><path class="cls-1" d="M369.21,245.18h-53.7c-3,0-2.6.3-2.6-2.4v-21.6c0-2.1-.1-2,2.1-2h95.6c2.9,0,2.6-.2,2.6,2.5,0,3.2-.1,6.4,0,9.5a5.78,5.78,0,0,1-1.2,3.6l-54.3,75a6.92,6.92,0,0,0-1.4,2.4h55.2c3.1,0,2.7-.3,2.7,2.6v21.6c0,1.9,0,1.9-2,1.9H311.81c-2.1,0-1.9,0-1.9-1.9,0-3.3.1-6.7,0-10a5.85,5.85,0,0,1,1.3-3.8c14.1-18.6,28.2-37.3,42.2-55.9,4.9-6.4,9.7-12.9,14.6-19.3A6.6,6.6,0,0,0,369.21,245.18Z" transform="translate(-1.6 -0.68)"/><path class="cls-1" d="M560.71,278.58v-57.1c0-2.4-.3-2.3,2.3-2.3h86.4c.7,0,1,.3,1,1v23c0,2.3.2,2.1-2.2,2.1h-55c-2.9,0-2.6-.4-2.6,2.6v20c0,2.9-.3,2.6,2.8,2.6h46.3c2.8,0,2.6-.3,2.6,2.5v20.9c0,2.7.2,2.4-2.6,2.4h-47.8c-.9,0-1.3.3-1.3,1.2v37.9a6.55,6.55,0,0,0,0,1.4c.2,1.3-.5,1.5-1.6,1.5h-26.6c-1.6,0-1.6,0-1.6-1.7v-25.3C560.71,300.28,560.71,289.38,560.71,278.58Z" transform="translate(-1.6 -0.68)"/><path class="cls-1" d="M161.51,278.88v56.7c0,2.9.4,2.6-2.7,2.6h-25.2c-2.3,0-2.1,0-2.1-2v-115c0-2,0-2,2.1-2h25.7c2.3,0,2.2-.2,2.2,2.2Z" transform="translate(-1.6 -0.68)"/><path class="cls-1" d="M738.11,178.18c8.2,0,14.8,5.1,16.1,12.3A15.11,15.11,0,0,1,742,208a18.83,18.83,0,0,1-9.7-.7,14.92,14.92,0,0,1-10.2-14.6,15.08,15.08,0,0,1,11.7-13.9A11.68,11.68,0,0,1,738.11,178.18Z" transform="translate(-1.6 -0.68)"/><path class="cls-1" d="M713.91,193.08c.1,8.7-7.6,15.8-17.4,15.1a16.57,16.57,0,0,1-10.3-4.4,14.35,14.35,0,0,1-1-20.2c4.3-4.8,9.9-6.4,16.3-5a14.91,14.91,0,0,1,12,11.1A10.49,10.49,0,0,1,713.91,193.08Z" transform="translate(-1.6 -0.68)"/><path class="cls-1" d="M256.48,91.89v70.18H212V2h44.51V71L306.22,2h51.32L298.72,79.63l61.78,82.44H306.67Z" transform="translate(-1.6 -0.68)"/><path class="cls-1" d="M377.53,2h44.29V94.84c0,16.58,7.49,27,24.3,27s24.76-10.45,24.76-27V2h44.51V94.84c0,45.65-31.8,68.82-70.18,68.82-38.61,0-67.68-23.17-67.68-68.82Z" transform="translate(-1.6 -0.68)"/><path class="cls-1" d="M689.58,2V162.07H645.07L585.79,72.59v89.48H541.28V2h44.51l59.28,90.62V2Z" transform="translate(-1.6 -0.68)"/><path class="cls-1" d="M863.33,81.9c0,46.33-32.48,80.17-83.58,80.17H716.39V2h63.36C830.85,2,863.33,34.88,863.33,81.9Zm-87,40.88c25.67,0,41.79-14.54,41.79-40.88,0-26.57-16.12-41.34-41.79-41.34H760.9v82.22Z" transform="translate(-1.6 -0.68)"/><path class="cls-1" d="M987.1,37.61H929.19V63.73h51.1V97.57h-51.1v28.84H987.1v35.66H884.68V2H987.1Z" transform="translate(-1.6 -0.68)"/><path class="cls-1" d="M1158.8,2V162.07h-44.52L1055,72.59v89.48h-44.52V2H1055l59.27,90.62V2Z" transform="translate(-1.6 -0.68)"/><path class="cls-1" d="M140.84,102v18.86h18.4v8.75h-18.4v18.86h-9.66V129.62H112.77v-8.75h18.41V102Z" transform="translate(-1.6 -0.68)"/><path class="cls-1" d="M93.19,1.11c-.64,0-1.28.21-1.71-.43H93c.43.21.43.21.21.43Z" transform="translate(-1.6 -0.68)"/><path class="cls-2" d="M110.14,154.87a67.66,67.66,0,0,1-42.25,0,69.41,69.41,0,0,1-24-13.29c-5.15-4.29-9.22-9.22-13.3-14.37a4.55,4.55,0,0,1-.64-4.93,3.13,3.13,0,0,0,.43-1.29c3-8.36,8.79-14.58,16.08-19.3a40.31,40.31,0,0,1,16.51-6,1.22,1.22,0,0,1,1.72,1.08c.43,3,2.36,5.14,4.72,6.86a22.63,22.63,0,0,0,6,3,47.56,47.56,0,0,0,25.1.64,4,4,0,0,0,2.78-2.14c6.44-10.51,15.87-16.73,28.1-18,12.87-1.5,23.59,2.79,32.38,12.23.22.21.43.86,1.07.64,5.79-33.67-12.22-68.2-45.25-82.57C87.4,3.46,47.08,13.12,25.85,44,7.19,71,5.91,111.12,32.29,139.86c24,26.17,60.47,30.46,86.85,18.66a31.83,31.83,0,0,1-5.36-3.22A3.21,3.21,0,0,0,110.14,154.87Z" transform="translate(-1.6 -0.68)"/><path class="cls-1" d="M175.76,97a85,85,0,0,0-1.5-26.59c-2.36-10.3-5.79-20.38-11.8-29.17C146.81,17.83,124.93,4.32,96.84,1.11c-.64-.22-1.29,0-1.93-.22h-1.5c-.65,0-1.29.22-1.72-.21H86.55c-.65.43-1.29.21-2.15.21h-.86c-.64,0-1.28-.21-1.93.22A87.43,87.43,0,0,0,71.1,2.82c-20.8,4.5-38,15-50.82,31.74C4,55.58-1.38,79.38,3.55,105.33a87.11,87.11,0,0,0,54.9,64.34,88.61,88.61,0,0,0,26,5.36c2.57.43,4.93,0,7.51.22a3.69,3.69,0,0,0,2.14-.22c1.5-.21,3.22-.21,4.72-.43a83.39,83.39,0,0,0,33.88-11.36,7.19,7.19,0,0,1,3.65-1.07,35.76,35.76,0,0,0,4.93-.43,37.57,37.57,0,0,0,31.1-45.68,5.63,5.63,0,0,1,.21-3.22A97.9,97.9,0,0,0,175.76,97ZM32.29,140.08C5.91,111.12,7.19,71,25.85,44,47.08,13.12,87.4,3.46,119.57,17.4c33,14.37,51,49.12,45.25,82.57-.64.22-.85-.43-1.07-.64C155,89.89,144,85.6,131.37,87.1c-12.23,1.29-21.66,7.72-28.1,18a4.74,4.74,0,0,1-2.78,2.14,47.56,47.56,0,0,1-25.1-.64,19.76,19.76,0,0,1-6-3c-2.36-1.72-4.29-3.86-4.72-6.86-.21-1.08-.64-1.08-1.72-1.08a36,36,0,0,0-16.51,6A40.46,40.46,0,0,0,30.36,121a3,3,0,0,0-.43,1.29,5.08,5.08,0,0,0,.64,4.93,76.68,76.68,0,0,0,13.3,14.37,69.41,69.41,0,0,0,24,13.29,71,71,0,0,0,42.25,0,3.68,3.68,0,0,1,3.86.65,32.48,32.48,0,0,0,5.36,3.21C92.76,170.53,56.31,166.24,32.29,140.08ZM135.66,157a32.39,32.39,0,1,1,32.6-32.38A32.82,32.82,0,0,1,135.66,157Z" transform="translate(-1.6 -0.68)"/><path class="cls-1" d="M58,55.79c.22-8.15,1.72-15.65,6.44-22.09a29.89,29.89,0,0,1,24-12.44c10.5-.21,18.65,4.51,24.87,12.87a32.58,32.58,0,0,1,6.22,21.66c-.43,8.15-1.93,16.09-5.36,23.38a38,38,0,0,1-9.86,13.3,24,24,0,0,1-12.87,6,21.1,21.1,0,0,1-14.8-3.22,27.24,27.24,0,0,1-8.79-8.36,53.58,53.58,0,0,1-9.44-23.81C58.24,60.94,58.24,58.15,58,55.79Z" transform="translate(-1.6 -0.68)"/></svg>