<?xml version="1.0" encoding="utf-8"?>
<!-- Generator: Adobe Illustrator 23.0.1, SVG Export Plug-In . SVG Version: 6.00 Build 0)  -->
<!DOCTYPE svg PUBLIC "-//W3C//DTD SVG 1.1//EN" "http://www.w3.org/Graphics/SVG/1.1/DTD/svg11.dtd" [
	<!ENTITY ns_extend "http://ns.adobe.com/Extensibility/1.0/">
	<!ENTITY ns_ai "http://ns.adobe.com/AdobeIllustrator/10.0/">
	<!ENTITY ns_graphs "http://ns.adobe.com/Graphs/1.0/">
	<!ENTITY ns_vars "http://ns.adobe.com/Variables/1.0/">
	<!ENTITY ns_imrep "http://ns.adobe.com/ImageReplacement/1.0/">
	<!ENTITY ns_sfw "http://ns.adobe.com/SaveForWeb/1.0/">
	<!ENTITY ns_custom "http://ns.adobe.com/GenericCustomNamespace/1.0/">
	<!ENTITY ns_adobe_xpath "http://ns.adobe.com/XPath/1.0/">
]>
<svg version="1.1" id="Layer_1" xmlns:x="&ns_extend;" xmlns:i="&ns_ai;" xmlns:graph="&ns_graphs;"
	 xmlns="http://www.w3.org/2000/svg" xmlns:xlink="http://www.w3.org/1999/xlink" x="0px" y="0px" viewBox="0 0 470 288"
	 style="enable-background:new 0 0 470 288;" xml:space="preserve">
<style type="text/css">
	.st0{display:none;}
	.st1{display:inline;}
	.st2{fill:none;}
	.st3{fill:#125FAF;}
	.st4{font-family:'Poppins-Regular';}
	.st5{font-size:48.783px;}
	.st6{display:inline;fill:#125FAF;}
	.st7{font-size:47.0466px;}
	.st8{display:none;enable-background:new    ;}
</style>
<metadata>
	<sfw  xmlns="&ns_sfw;">
		<slices></slices>
		<sliceSourceBounds  bottomLeftOrigin="true" height="377.9" width="434.6" x="20.4" y="-112"></sliceSourceBounds>
	</sfw>
</metadata>
<g class="st0">
	<g id="SvgjsSvg1070" xmlns:svgjs="http://svgjs.com/svgjs" class="st1">
		<g id="SvgjsG1072">
			<rect x="139.3" y="22.1" class="st2" width="201.5" height="180.1"/>
			<path class="st3" d="M217.3,191.4v-10.5c0-1.5,1.2-2.8,2.8-2.8s2.8,1.2,2.8,2.8v10.5h9.2v-15.7c0-3.2-1.3-6.1-3.4-8.2
				s-5-3.4-8.2-3.4h-39.8c-3.2,0-6.1,1.3-8.2,3.4s-3.4,5-3.4,8.2v15.7h9.2v-10.5c0-1.5,1.2-2.8,2.8-2.8c1.5,0,2.8,1.2,2.8,2.8v10.5
				H217.3L217.3,191.4z M277.7,135.2v-5c0-1.5,1.2-2.8,2.8-2.8c1.5,0,2.8,1.2,2.8,2.8v5h3.1v-8c0-1.5-0.6-2.9-1.7-4
				c-1-1-2.4-1.7-4-1.7h-23.3c-1.5,0-2.9,0.6-4,1.7c-1,1-1.7,2.4-1.7,4v8h3.1v-5c0-1.5,1.2-2.8,2.8-2.8c1.5,0,2.8,1.2,2.8,2.8v5
				H277.7L277.7,135.2z M268.8,81.9c4.6,0,8.8,1.9,11.9,4.9c3,3,4.9,7.2,4.9,11.9c0,4.6-1.9,8.8-4.9,11.9c-3,3-7.2,4.9-11.9,4.9
				s-8.8-1.9-11.9-4.9c-3-3-4.9-7.2-4.9-11.9s1.9-8.8,4.9-11.9C260,83.8,264.2,81.9,268.8,81.9z M276.8,90.8c-2-2-4.8-3.3-7.9-3.3
				s-5.9,1.3-7.9,3.3s-3.3,4.8-3.3,7.9s1.3,5.9,3.3,7.9s4.8,3.3,7.9,3.3s5.9-1.3,7.9-3.3s3.3-4.8,3.3-7.9
				C280.1,95.6,278.8,92.8,276.8,90.8z M289.1,140.7H249c-1.5,0-2.8-1.2-2.8-2.8v-10.8c0-3.1,1.3-5.9,3.3-7.9s4.8-3.3,7.9-3.3h23.3
				c3.1,0,5.9,1.3,7.9,3.3s3.3,4.8,3.3,7.9V138C291.9,139.5,290.6,140.7,289.1,140.7L289.1,140.7z M200.3,100.5c7.4,0,14,3,18.9,7.8
				c4.8,4.8,7.8,11.5,7.8,18.9s-3,14-7.8,18.9c-4.8,4.8-11.5,7.8-18.9,7.8s-14-3-18.9-7.8c-4.8-4.8-7.8-11.5-7.8-18.9s3-14,7.8-18.9
				C186.2,103.5,192.9,100.5,200.3,100.5z M215.2,112.2c-3.8-3.8-9.1-6.2-15-6.2c-5.8,0-11.1,2.4-15,6.2c-3.8,3.8-6.2,9.1-6.2,15
				c0,5.9,2.4,11.1,6.2,15c3.8,3.8,9.1,6.2,15,6.2c5.8,0,11.1-2.4,15-6.2c3.8-3.8,6.2-9.1,6.2-15S219.1,116,215.2,112.2z
				 M234.9,196.9h-68.5c-1.5,0-2.8-1.2-2.8-2.8v-18.4c0-4.7,1.9-9,5-12.1s7.4-5,12.1-5h39.8c4.7,0,9,1.9,12.1,5s5,7.4,5,12.1v18.4
				C237.7,195.7,236.4,196.9,234.9,196.9z M269.5,75.8c-1.5,0-2.8-1.2-2.8-2.8c0-1.5,1.2-2.8,2.8-2.8h33.3c1.5,0,2.8,1.2,2.8,2.8
				v73.1h8.1c1.5,0,2.8,1.2,2.8,2.8c0,0.3,0,0.6-0.1,0.9l-5.1,18.9c-0.3,1.2-1.5,2.1-2.7,2.1l0,0h-57.2c-1.5,0-2.8-1.2-2.8-2.8
				c0-1.5,1.2-2.8,2.8-2.8h55.1l3.6-13.5h-44.3v5.7c0,1.5-1.2,2.8-2.8,2.8h-28.4c-1.5,0-2.8-1.2-2.8-2.8v-5.7h-6.6
				c-1.5,0-2.8-1.2-2.8-2.8s1.2-2.8,2.8-2.8h9.4c1.5,0,2.8,1.2,2.8,2.8v5.7h22.9v-5.7c0-1.5,1.2-2.8,2.8-2.8h37V75.8H269.5
				L269.5,75.8z M204.3,27.3h33.3c7.4,0,14.2,3,19.1,7.9c4.9,4.9,7.9,11.7,7.9,19.1V61c0,7.4-3,14.2-7.9,19.1
				c-4.5,4.5-10.7,7.5-17.5,7.9v19.1c0,1.5-1.2,2.8-2.8,2.8c-0.7,0-1.4-0.3-1.9-0.8l-23.9-21h-6.3c-7.4,0-14.2-3-19.1-7.9
				c-4.9-4.9-7.9-11.7-7.9-19.1v-6.7c0-7.4,3-14.2,7.9-19.1C190.1,30.3,196.9,27.3,204.3,27.3L204.3,27.3z M237.6,32.8h-33.2
				c-5.9,0-11.3,2.4-15.2,6.3s-6.3,9.3-6.3,15.2V61c0,5.9,2.4,11.3,6.3,15.2c3.9,3.9,9.3,6.3,15.2,6.3h7.4l0,0
				c0.7,0,1.3,0.2,1.8,0.7l20.2,17.7V85.3c0-1.5,1.2-2.8,2.8-2.8h1.1c5.9,0,11.3-2.4,15.2-6.3c3.9-3.9,6.3-9.3,6.3-15.2v-6.7
				c0-5.9-2.4-11.3-6.3-15.2C248.8,35.2,243.5,32.8,237.6,32.8L237.6,32.8z M199.6,53.1c-1.5,0-2.8-1.2-2.8-2.8
				c0-1.5,1.2-2.8,2.8-2.8h25.7c1.5,0,2.8,1.2,2.8,2.8c0,1.5-1.2,2.8-2.8,2.8H199.6z M199.6,70c-1.5,0-2.8-1.2-2.8-2.8
				s1.2-2.8,2.8-2.8h43.1c1.5,0,2.8,1.2,2.8,2.8s-1.2,2.8-2.8,2.8H199.6z"/>
		</g>
		<g>
			<path class="st3" d="M72.5,242.4H66v14.2h-4.4v-34h11c8,0,11.8,4.4,11.8,10C84.2,237.7,80.9,242.4,72.5,242.4z M72.5,238.7
				c5.1,0,7.2-2.4,7.2-6.2c0-4-2.1-6.3-7.2-6.3H66v12.5H72.5z"/>
			<path class="st3" d="M100.7,222.5c8,0,11.8,4.4,11.8,10c0,4.3-2.4,8.5-8.1,9.8l8.5,14.2h-5.3l-8.1-13.9h-5.4v13.9h-4.4v-34H100.7
				z M100.7,226.2h-6.5v12.9h6.5c5,0,7.2-2.7,7.2-6.5C107.9,228.7,105.8,226.2,100.7,226.2z"/>
			<path class="st3" d="M119.4,222.5h4.4v34h-4.4V222.5z"/>
			<path class="st3" d="M154.8,222.5h4.7l-12.8,34h-5.1l-12.8-34h4.7l10.7,29.3L154.8,222.5z"/>
			<path class="st3" d="M184.5,249h-14.8l-2.7,7.6h-4.7l12.3-33.8h5.1l12.2,33.8h-4.7L184.5,249z M177.1,228.2l-6.1,17.2h12.3
				L177.1,228.2z"/>
			<path class="st3" d="M195.2,222.5h23v3.6h-9.3v30.4h-4.4v-30.4h-9.3V222.5z"/>
			<path class="st3" d="M228.1,241v15.5h-4.4v-34h4.4v15.8l14-15.8h5.6l-15.4,17l15.6,17h-5.8L228.1,241z"/>
			<path class="st3" d="M252.8,222.5h4.4V244c0,6.2,3.4,8.9,8.4,8.9s8.3-2.7,8.3-8.9v-21.5h4.4V244c0,8.8-5.8,12.9-12.8,12.9
				s-12.8-4-12.8-12.9v-21.5H252.8z"/>
			<path class="st3" d="M312.5,222.5v34h-4.4l-17.9-27.1v27.1h-4.4v-34h4.4l17.9,27v-27H312.5z"/>
			<path class="st3" d="M348.7,239.6c0,10.5-6.9,16.9-18,16.9h-10.6v-34h10.6C341.9,222.5,348.7,229.1,348.7,239.6z M330.7,252.9
				c8.9,0,13.5-5,13.5-13.3s-4.6-13.5-13.5-13.5h-6.1v26.7h6.1V252.9z"/>
			<path class="st3" d="M372.9,226.2H359v11.4h12.4v3.7H359V253h13.9v3.7h-18.3v-34h18.3V226.2z"/>
			<path class="st3" d="M406.3,222.5v34h-4.4L384,229.4v27.1h-4.4v-34h4.4l17.9,27v-27H406.3z"/>
		</g>
	</g>
	<g class="st1">
		<g id="SvgjsG1008" transform="matrix(0.9167,0,0,0.9167,11.995200000000011,11.994720096492784)">
			<rect x="125.5" y="15.5" class="st2" width="214.8" height="192"/>
			<path class="st3" d="M274.2,42.5c0.8-1.4,2.6-1.9,4-1.1c1.4,0.8,1.9,2.6,1.1,4l-7.7,13.3c-0.8,1.4-2.6,1.9-4,1.1
				c-1.4-0.8-1.9-2.6-1.1-4L274.2,42.5z M254.9,30.6c0.4-1.6,2-2.5,3.6-2.1s2.5,2,2.1,3.6l-6.2,23.3c-0.4,1.6-2,2.5-3.6,2.1
				s-2.5-2-2.1-3.6L254.9,30.6z M190.8,45.4c-0.8-1.4-0.3-3.2,1.1-4c1.4-0.8,3.2-0.3,4,1.1l7.7,13.3c0.8,1.4,0.3,3.2-1.1,4
				c-1.4,0.8-3.2,0.3-4-1.1L190.8,45.4z M232.1,26.5c0-1.6,1.3-2.9,2.9-2.9c1.6,0,2.9,1.3,2.9,2.9v27.9c0,1.6-1.3,2.9-2.9,2.9
				c-1.6,0-2.9-1.3-2.9-2.9V26.5L232.1,26.5z M209.5,32.2c-0.4-1.6,0.5-3.2,2.1-3.6s3.2,0.5,3.6,2.1l6.2,23.3
				c0.4,1.6-0.5,3.2-2.1,3.6s-3.2-0.5-3.6-2.1L209.5,32.2L209.5,32.2z M303.6,69.2c1.3-0.9,3.1-0.6,4.1,0.8c0.9,1.3,0.6,3.2-0.7,4.1
				l-18.4,12.8c5.3,4.4,9.8,9.2,13.1,14.4c4.1,6.3,6.6,13.1,7.3,20.6c0.2,1.6-1,3.1-2.6,3.2c-1.6,0.2-3-1-3.2-2.7
				c-0.6-6.5-2.8-12.4-6.4-17.9c-3.3-5.1-7.8-9.8-13.3-14.1l-8.4,5.9c-0.6,0.4-1.2,0.6-1.8,0.5l-36.4-0.4l-17.1,7.9L208,127.4
				c-0.7,1.5-0.7,2.9-0.2,3.9c0.5,0.9,1.3,1.7,2.3,2.3c1.1,0.7,2.5,1.2,3.9,1.4c2.6,0.4,5.4-0.1,7.3-1.8l11.6-17.4
				c0.5-0.8,1.4-1.3,2.3-1.3l0,0l20.4-0.9c1.6-0.1,3,1.2,3,2.8c0.1,1.6-1.2,3-2.8,3.1l-19,0.8L226,136.8c-0.1,0.2-0.3,0.4-0.4,0.5
				c-3.3,3.3-8.1,4.3-12.4,3.6c-2.2-0.3-4.3-1.1-6.1-2.2c-1.9-1.2-3.4-2.8-4.4-4.6c-1.4-2.7-1.5-5.8,0.1-9.2l12.2-24
				c0.3-0.6,0.8-1.2,1.5-1.5l18.6-8.6l0,0c0.4-0.2,0.8-0.3,1.3-0.3l36.3,0.4l9.3-6.5c0.1-0.1,0.2-0.1,0.3-0.2L303.6,69.2L303.6,69.2
				z M307.2,130.4c1.6-0.2,3.1,0.9,3.3,2.6c0.2,1.6-0.9,3.1-2.5,3.3c-3,0.4-5.4,2-7.5,4.5c-2.3,2.7-4.1,6.5-5.8,10.8
				c-0.6,1.5-2.3,2.3-3.8,1.7s-2.3-2.3-1.7-3.8c1.8-4.9,4-9.2,6.8-12.5C299,133.4,302.7,131,307.2,130.4L307.2,130.4z M161,74.8
				c-1.3-1-1.6-2.8-0.6-4.1c1-1.3,2.8-1.6,4.1-0.6l27.2,20.3c5-2,9.9-3.3,14.7-3.9c5.4-0.7,10.7-0.4,15.8,0.8
				c1.6,0.4,2.6,1.9,2.2,3.5c-0.4,1.6-1.9,2.6-3.5,2.2c-4.5-1-9.1-1.2-13.8-0.7c-4.7,0.6-9.6,1.9-14.5,4c-1,0.5-2.1,0.4-3-0.3
				L161,74.8L161,74.8z M185.2,102.8c0.5-1.5,2.2-2.3,3.7-1.8c1.5,0.6,2.3,2.3,1.7,3.8c-2.8,7.6-6.2,14.2-10.3,19.7
				c-3.4,4.5-7.1,8.4-11.3,11.7l6.7,6.2c1.2,1.1,1.3,3,0.2,4.2s-2.9,1.3-4.1,0.2l-9.2-8.5c-0.2-0.2-0.4-0.4-0.6-0.6
				c-0.9-1.3-0.6-3.2,0.8-4.1c4.8-3.3,9.1-7.4,12.8-12.5C179.5,115.9,182.6,109.9,185.2,102.8L185.2,102.8z M174,153.7L174,153.7
				L174,153.7c0.1-0.1,0.1-0.1,0.1-0.2l8.2-8.2c2.2-2.2,5.2-3.3,8.1-3.3c2.9,0,5.9,1.1,8.1,3.4l0,0l0,0l0.1,0.1
				c2.1,2.2,3.2,5.1,3.2,8s-1.1,5.9-3.4,8.1l-5.6,5.6c-1.1,1.1-1.6,2.5-1.6,4c0,1.4,0.5,2.8,1.5,3.8c0.1,0.1,0.1,0.1,0.2,0.2l0,0
				c1.1,1.1,2.5,1.6,4,1.6s2.9-0.5,4-1.6l2-2l0,0l0.1-0.1l8.8-8.8c0.1-0.1,0.1-0.1,0.2-0.2l0,0c1.1-1.1,1.6-2.5,1.6-4
				c0-1.4-0.5-2.8-1.5-3.8l-0.1-0.1c-0.1-0.1-0.1-0.1-0.2-0.2c-0.4-0.4-0.9-0.7-1.4-1c-0.6-0.3-1.2-0.5-1.8-0.5
				c-1.6-0.2-2.8-1.6-2.6-3.2c0.2-1.6,1.6-2.8,3.2-2.6c1.3,0.1,2.6,0.5,3.7,1c1.1,0.5,2.2,1.3,3.2,2.2l0,0l0,0l0.1,0.1
				c2.1,2.2,3.2,5.1,3.2,8s-1.1,5.9-3.4,8.1l0,0l0,0l-0.1,0.1l-8.8,8.8c-0.1,0.1-0.1,0.1-0.2,0.2l0,0c-1.1,1.1-1.6,2.5-1.6,4
				c0,1.4,0.5,2.7,1.5,3.8c0.1,0.1,0.2,0.2,0.2,0.2c1.1,1,2.5,1.5,3.9,1.5c1.5,0,2.9-0.5,4-1.6l12.7-12.7c1.1-1.1,1.6-2.5,1.6-4
				c0-1.4-0.5-2.8-1.5-3.8c-0.1-0.1-0.1-0.1-0.2-0.2l0,0c-0.4-0.4-0.9-0.8-1.5-1c-0.5-0.3-1.2-0.4-1.8-0.5c-1.6-0.2-2.7-1.7-2.5-3.3
				s1.7-2.8,3.3-2.6c1.2,0.2,2.4,0.5,3.6,1.1c1.1,0.5,2.1,1.3,3,2.2l0,0l0,0l0.1,0.1c2.1,2.2,3.2,5.1,3.2,8s-1.1,5.9-3.4,8.1l-9,9
				c-0.9,0.9-1.3,2-1.3,3.2c0,1.1,0.4,2.2,1.2,3c0.1,0.1,0.1,0.1,0.2,0.2l0,0c0.9,0.9,2,1.3,3.2,1.3s2.3-0.4,3.2-1.3l5-5
				c0.1-0.1,0.1-0.1,0.2-0.2l0,0c0.9-0.9,1.3-2,1.3-3.1s-0.4-2.2-1.2-3c-0.2-0.2-0.4-0.4-0.5-0.6c-0.9-1.4-0.5-3.2,0.9-4.1
				c1.3-0.8,2.9-0.5,3.8,0.6c1.9,2,2.8,4.6,2.8,7.2c0,2.7-1,5.3-3,7.3l0,0l0,0l-0.1,0.1l-5,5c-2,2-4.7,3-7.3,3s-5.3-1-7.3-3l0,0l0,0
				l-0.1-0.1c-1.2-1.3-2.1-2.8-2.5-4.4c-1.6,0.8-3.3,1.2-5,1.2c-2.9,0-5.9-1.1-8.1-3.4l0,0l0,0l-0.1-0.1c-1.9-1.9-2.9-4.4-3.1-6.9
				c-0.9,0.2-1.8,0.3-2.7,0.3c-2.9,0-5.9-1.1-8.1-3.4l0,0l0,0l-0.1-0.1c-1.7-1.8-2.8-4-3.1-6.4c-1.1,0.4-2.3,0.5-3.5,0.5
				c-2.9,0-5.9-1.1-8.1-3.4l0,0l0,0l-0.1-0.1c-2.1-2.2-3.2-5.1-3.2-8C170.6,158.9,171.7,156,174,153.7L174,153.7z M186.4,149.6
				l-8.2,8.2c-0.1,0.1-0.1,0.1-0.2,0.2l0,0c-1.1,1.1-1.6,2.5-1.6,4c0,1.4,0.5,2.7,1.5,3.8c0.1,0.1,0.2,0.2,0.2,0.2
				c1.1,1,2.5,1.5,3.9,1.5c1.5,0,2.9-0.5,4-1.6l8.4-8.4c1.1-1.1,1.6-2.5,1.6-4c0-1.4-0.5-2.8-1.5-3.8c-0.1-0.1-0.1-0.1-0.2-0.2l0,0
				c-1.1-1.1-2.5-1.6-4-1.6C189,147.9,187.5,148.5,186.4,149.6L186.4,149.6z M258.9,135.9c-1.1-1.1-1.2-3,0-4.2c1.1-1.2,3-1.2,4.1,0
				l27.5,27.5c2.3,2.3,3.4,5.3,3.4,8.3s-1.1,6-3.4,8.3l0,0l0,0c-0.1,0.1-0.1,0.1-0.2,0.2c-2.2,2.1-5.2,3.2-8.1,3.2
				c-1.5,0-3-0.3-4.3-0.8c-0.8,0-1.6-0.2-2.2-0.9L252,153.8c-1.1-1.1-1.2-3,0-4.2c1.1-1.2,3-1.2,4.1,0l22,22
				c1.1,1.1,2.6,1.7,4.1,1.7c1.4,0,2.9-0.5,4-1.6c0-0.1,0.1-0.1,0.1-0.1l0,0c1.1-1.1,1.7-2.6,1.7-4.1s-0.6-3-1.7-4.1L258.9,135.9z
				 M277.2,183.1c0.4-1.6,2-2.5,3.6-2.1s2.5,2,2.1,3.6c-0.3,1-0.7,1.9-1.2,2.8c-0.5,0.9-1.1,1.7-1.9,2.4l0,0l0,0
				c-0.1,0.1-0.1,0.1-0.2,0.2c-2.2,2.1-5.2,3.2-8.1,3.2c-2,0-3.9-0.5-5.7-1.5c-0.5,1.5-1.3,3-2.5,4.2l0,0c-2,2-4.5,2.9-7.1,2.9
				s-5.2-1-7.1-2.9l-4.9-4.9c-1.1-1.1-1.2-3,0-4.2s3-1.2,4.1,0l4.9,4.9c0.8,0.8,1.9,1.2,3,1.2c1,0,2.1-0.4,2.9-1.1
				c0.1-0.1,0.2-0.2,0.2-0.2c0.7-0.8,1.1-1.8,1.1-2.9c0-1.1-0.4-2.2-1.2-3L245.5,172c-1.1-1.1-1.2-3,0-4.2s3-1.2,4.1,0l17.6,17.6
				c0.1,0.1,0.1,0.1,0.2,0.2l0,0c1.1,1.1,2.6,1.7,4.1,1.7c1.4,0,2.9-0.5,4-1.6c0-0.1,0.1-0.1,0.1-0.1l0,0c0.4-0.4,0.7-0.8,0.9-1.2
				C276.9,184.1,277.1,183.6,277.2,183.1L277.2,183.1z"/>
		</g>
		<text transform="matrix(1 0 0 1 28.7064 256.8896)" class="st3 st4 st5">PRODUKTPARTNER</text>
	</g>
	<g id="Layer_3" class="st1">
		<path class="st3" d="M181.1,153.1c5.6-3.6,11.7-3.8,16.9,3c0.5,0.6,1.7,1,2.5,0.9c13.9-0.9,18.2,4.3,13.9,17.4
			c6.7,1.9,10.7,6,10.3,13.6c0,1,2.4,3,3.6,2.9c2.1-0.1,5-1,6.1-2.5c1-1.6,0.8-4.8-0.2-6.5c-1.2-2.1-3.8-3.3-6-5.1
			c0.6-1.2,1.3-2.4,2.2-4.1c4.3,2.7,8.3,5.2,12.3,7.7c4.3,2.6,7.6,2.2,9.8-1s1.2-6.4-3-9.2c-3.9-2.6-7.8-5.1-12.1-7.8
			c0.8-1.4,1.6-2.7,2.5-4.3c7.1,4.4,13.8,8.9,20.7,12.8c2.1,1.2,5.4,1.9,7.6,1.1c4.6-1.6,4.4-7.6-0.3-10.7
			c-6.8-4.6-13.8-8.8-21.1-13.5c0.8-1.4,1.5-2.7,2.5-4.4c8.9,5.6,17.4,11,26,16.3c1.1,0.7,2.2,1.4,3.3,2c4.6,2.6,8.2,2.2,10.2-1.1
			c1.9-3.4,0.9-6.4-3.5-9.1c-14.2-8.9-28.4-17.7-42.7-26.4c-6.2-3.8-14.8-2.7-19.9,2.3c-1.8,1.8-3.6,3.7-5.6,5.3
			c-5.2,4.3-11.7,4-16.1-0.6c-4.3-4.4-4.4-11.3,0.3-16.1c3.6-3.8,7.7-7.1,11.5-10.6c-0.3-0.4-0.6-0.9-0.9-1.3c-3.8,0-7.6,0-11.8,0
			c-0.2-1.7-0.3-3-0.5-4.6c1.6-0.2,2.8-0.4,4.1-0.4c15.1,0,30.3-0.1,45.4,0.1c1.4,0,2.8,1.4,4.3,2.2c-1.4,0.8-2.9,2.4-4.3,2.4
			c-7.4,0.3-14.8,0.1-22.2,0.1c-1.1,0-2.3-0.1-3.4,0c-3.9,0.3-20.3,15.5-20.3,19.4c0,2.1,1.3,5.1,2.9,6c1.8,1,5,0.7,7-0.1
			c2.1-0.9,3.6-3.1,5.3-4.8c7.9-7.9,18.4-9.1,28-3.1c11.4,7,22.7,14.1,34,21.1c1.5,0.9,3,1.8,5,2.9c3.2-8,9.7-8.4,16.6-8.1
			c2.6,0.1,5.2-0.1,7.7,0c3.9,0,3.9,0.1,3.6,5.3c-4.7,0-9.5-0.1-14.2,0.1c-2,0.1-4.2,0.5-6,1.3c-2.4,1.1-3.3,3.2-1.5,5.5
			c3.7,4.9,4.7,10,0.8,15.1c-3.7,4.9-8.9,5.2-15.1,2.9c-2.2,9.6-8.7,12-17.3,9.4c-5.5,10.2-8.4,11.7-18.2,9.3
			c-0.5,1.2-1,2.5-1.6,3.7c-2.6,5.5-8.1,7.7-14.1,6.1c-2.5-0.7-5.6-0.6-8.1,0.1c-5.4,1.5-10.3,0.3-13.3-4.8c-1.4-2.5-3-3.3-5.7-3.2
			c-4.3,0.3-7.1-2-9.5-5.5c-1.1-1.6-3.1-3.1-4.9-3.4c-4.3-0.7-7.4-2.4-9.7-6.2c-0.9-1.5-3.3-2.6-5.2-2.9c-8.7-1.1-13-10-8-17.2
			c3.2-4.6,1.7-9.2-3.8-10.2c-4.5-0.8-9.3-0.4-13.9-0.7c-1.9-0.1-4.9,0.9-4.4-2.5c0.1-0.9,2.7-2.1,4.3-2.2c3.8-0.3,7.7-0.3,11.6-0.1
			c5.6,0.3,10.4,1.8,12.6,7.9c0.5,1.3,1.9,2.6,3.2,3.3C173.8,149.8,177.1,151.2,181.1,153.1z M212.5,167c-2.2-2.3-3.4-4.5-5.1-5.1
			c-1.7-0.6-4.9-0.2-5.9,1.1c-3.1,3.8-5.9,8-8.1,12.5c-0.7,1.4,0.4,4.6,1.7,5.8s5.2,1.9,5.9,1C205,177.6,208.4,172.5,212.5,167z
			 M185.3,173.7c4.6-0.9,6.4-5.6,8.1-9.7c0.8-1.8-0.4-5.3-2-6.9c-2.2-2.3-5.5-1.8-7.6,0.9c-1.8,2.4-3.5,5-4.8,7.7
			C177.4,169.9,180.2,173.8,185.3,173.7z M164.1,157.2c0.4,5.1,2.4,7.2,5.8,7.6c3,0.4,6.2-2.7,6-5.6c-0.3-3.5-2.6-6-5.9-5.7
			C167.7,153.7,165.6,156.2,164.1,157.2z M215.4,191.5c1-1.5,3.2-3.4,3.8-5.7c0.7-3.1-2.9-6.1-6.2-5.8c-3.4,0.3-5.3,2.4-5.1,5.7
			C208,189.3,210.3,191,215.4,191.5z"/>
		<path class="st3" d="M227,45c-0.7-0.4-1.1-0.5-1.2-0.8c-3.7-8.2-10.4-9.4-18.6-9c-12.2,0.6-24.5,0.3-36.7,0.1
			c-4.2-0.1-6,1.4-7.2,5.3c-6.3,20.2-12.8,40.4-19.5,60.6c-0.5,1.4-2.5,2.2-4.7,2.8c3.6-23.7,14.1-45,20.1-68.5
			c-2.8,0-5,0.2-7.1-0.1c-0.9-0.1-2.2-1.5-2.2-2.3s1.2-2.1,2.1-2.4c1.3-0.4,2.9-0.1,4.3-0.1c19.3,0,38.6,0,58.9,0
			c-1.6-2.7-2.8-4.8-4.3-7.3c10.5,0,20.6,0,31.2,0c-1.4,2.3-2.6,4.3-4.3,7.1c21.7,0,42.8,0,64.2,0c0.5,2.8,1.5,5.1-2.3,5.2
			c-2.1,0-4.1,0-6.8,0c0.8,2.9,1.4,5.2,2.2,7.4c5.1,14.9,10.5,29.7,15.4,44.7c1.4,4.4,2,9,2.6,13.6c0.1,0.8-1.2,1.8-1.9,2.6
			c-0.9-0.8-2.3-1.5-2.6-2.5c-6.9-20.9-13.5-41.9-20.5-62.7c-0.5-1.4-3-3-4.6-3c-15.5-0.2-30.9-0.2-46.4,0.1c-1.8,0-3.8,1.4-5.2,2.7
			C230.2,40.1,228.8,42.6,227,45z M232.9,27.9c-4.3,0-8,0-12.4,0c2.1,3,4,5.6,6.2,8.8C228.9,33.6,230.7,31,232.9,27.9z"/>
		<path class="st3" d="M223.5,63.5c-4.2-1.3-5.8-0.2-5.7,3.9c0.2,8.2,0.1,16.3,0.1,24.5c-3.4,1.2-5,0.6-4.9-2.9
			c0.1-6.9,0-13.8,0.1-20.8c0.1-3,0-5.4-3.9-5.8c-0.7-0.1-1.5-1.8-1.6-2.8c0-0.6,1.4-1.7,2.2-1.7c11.6-0.1,23.1-0.1,34.9-0.1
			c0.1,1.6,0.2,2.9,0.3,4.4c-1.6,0.5-3.1,0.9-5.1,1.4c0,7.3,0,14.7,0,22.1c0,1.3,0.3,2.7-0.1,3.8c-0.4,1.2-1.5,2.1-2.2,3.1
			c-0.9-1.1-2.4-2.1-2.5-3.2c-0.3-7.4-0.3-14.8-0.2-22.2c0-3.7-1.4-5-5.9-3.5c0,6,0,12.4,0,18.8c0,2.3,0.3,4.6-0.1,6.7
			c-0.3,1.3-1.7,2.4-2.7,3.6c-0.8-1.2-2.1-2.3-2.2-3.5c-0.2-7.4-0.1-14.8-0.1-22.2C223.7,66,223.6,64.9,223.5,63.5z"/>
		<path class="st3" d="M137.4,108.8c19,0,35.9,0,52.8,0c2.7,0,3.7,1.4,3,3.6c-0.8,2.7-1.9,5.6-3.7,7.5
			c-12.6,12.8-35.7,12.4-47.7-0.9C139.7,116.6,139.1,113,137.4,108.8z M144.9,114c9.6,13.5,34.9,13.4,41.7,0
			C172.8,114,159.1,114,144.9,114z"/>
		<path class="st3" d="M313,109.1c1.6,5.9-1,9.6-5.1,12.8c-13.2,10.2-31.9,9.6-44-1.4c-3.4-3-5.4-6.4-4.1-11.4
			C277.4,109.1,295.1,109.1,313,109.1z M307.5,114.1c-14,0-27.8,0-41.8,0C273.7,127.3,298.6,127.4,307.5,114.1z"/>
		<path class="st3" d="M170.6,37.7c1.3,1.3,3.4,2.4,3.9,3.9c6,17.8,11.8,35.6,17.7,53.4c0.4,1.4,1,2.8,0.9,4.2
			c-0.1,1.5-1,2.9-1.6,4.4c-1.3-1.1-3.3-1.9-3.7-3.2c-3.2-9.9-6-19.9-9.1-29.8c-2.6-8.3-5.5-16.4-8.2-24.6c-0.7-2.2-1.1-4.6-1.6-6.9
			C169.5,38.6,170,38.2,170.6,37.7z"/>
		<path class="st3" d="M259,103.1c0.5-2.9,0.6-5.5,1.4-7.9c5.9-18,11.9-35.9,18-53.8c0.5-1.4,2.3-2.3,3.5-3.5
			c0.6,0.4,1.1,0.7,1.7,1.1c-0.5,2.4-0.8,4.8-1.5,7.1c-5.2,15.8-10.6,31.6-15.9,47.4c-0.8,2.3-1.7,4.6-1.9,6.9
			C264.1,103.8,262.4,103.9,259,103.1z"/>
		<path class="st3" d="M244.6,51.5c-12.4,0-24.6,0-36.9,0c-0.9-3.1,0-4.6,3.3-4.6c10.3,0,20.5,0.1,30.8,0
			C245,46.9,245.7,48.3,244.6,51.5z"/>
		<g>
			<text transform="matrix(1 0 0 1 20.4114 256.5479)" class="st3 st4 st5">FINANZVERMITTLER</text>
		</g>
	</g>
</g>
<g class="st0">
	<text transform="matrix(0.8889 0 0 1 20.4111 256.4414)" class="st6 st4 st7">ALLGEMEINE ANFRAGE</text>
	<path class="st6" d="M210.5,44.9c9.5-7.6,16.4-12.9,24.8-19.6c2,6.2,3.4,10.6,4.8,14.9c52.8,4.2,54.6,6.2,54.6,60.7
		c0,12.7,0,25.4,0,38.2c-1.4,0.2-2.8,0.4-4.2,0.6c-0.9-3.2-2.6-6.3-2.7-9.5c-0.3-15.3-0.1-30.5-0.1-45.8
		c-0.1-29.2-7.3-36.4-36.3-36.2c-3.5,0-7,0-11.6,0c-0.9,4.7-1.8,8.9-3.2,15.8C227.8,57.6,220.2,52,210.5,44.9z"/>
	<path class="st6" d="M181.9,139.2c0-20.2,0.7-40.5-0.4-60.7c-0.4-7.1-3.7-15-8-20.8c-6.5-9-8.9-18.4,0.2-24.5
		c5.6-3.7,17.4-4.1,22.8-0.6c10,6.6,7.7,16.4,0.1,25.7c-3.9,4.8-7.1,11.6-7.3,17.6c-0.9,21.1-0.3,42.2-0.3,63.4
		C186.6,139.2,184.3,139.2,181.9,139.2z"/>
	<path class="st6" d="M181.2,184.7c-4.4-7-12.6-14.3-12.1-21c0.4-5.9,11.7-16.3,16.1-15.4c6.8,1.5,15.4,10.5,16.5,17.3
		c0.9,5.5-8.3,12.5-13.1,18.9C186.2,184.6,183.7,184.7,181.2,184.7z"/>
	<path class="st6" d="M287.6,184.8c-4.6-6.9-13-13.9-12.7-20.6c0.2-5.9,10.1-11.4,15.8-17.1c6,5.9,15.5,11.2,16.8,18
		c1.1,5.4-7.9,12.8-12.3,19.3C292.7,184.6,290.1,184.7,287.6,184.8z"/>
</g>
<g class="st8">
	<path class="st6" d="M106.6,221.6h-9.2l-1.6,4.5H92l7.9-22.1h4.2l7.9,22.1h-3.8L106.6,221.6z M102,208.4l-3.6,10.3h7.2L102,208.4z"
		/>
	<path class="st6" d="M116.4,204h3.6v14.1c0,3.4,1.9,5.1,5,5.1c3.1,0,5-1.6,5-5.1V204h3.6v14c0,5.6-4.1,8.3-8.7,8.3
		c-4.6,0-8.6-2.7-8.6-8.3L116.4,204L116.4,204z"/>
	<path class="st6" d="M146.6,226.3c-4.4,0-7.8-2.4-7.8-6.3h3.9c0.2,1.8,1.4,3.3,3.9,3.3s4-1.4,4-3.2c0-5.3-11.7-1.9-11.7-10
		c0-3.9,3.1-6.3,7.6-6.3c4.2,0,7.2,2.2,7.5,6h-4c-0.1-1.5-1.4-2.9-3.7-2.9c-2.1-0.1-3.7,1-3.7,3.1c0,5,11.7,1.9,11.7,9.9
		C154.2,223.1,151.5,226.3,146.6,226.3z"/>
	<path class="st6" d="M166.8,226.3c-4.4,0-7.8-2.4-7.8-6.3h3.9c0.2,1.8,1.4,3.3,3.9,3.3s4-1.4,4-3.2c0-5.3-11.7-1.9-11.7-10
		c0-3.9,3.1-6.3,7.6-6.3c4.2,0,7.2,2.2,7.5,6h-4c-0.1-1.5-1.4-2.9-3.7-2.9c-2.1-0.1-3.7,1-3.7,3.1c0,5,11.7,1.9,11.7,9.9
		C174.4,223.1,171.7,226.3,166.8,226.3z"/>
	<path class="st6" d="M189.8,203.7c4.6,0,8.6,2.3,10.3,6.6h-4.4c-1.2-2.4-3.3-3.5-5.9-3.5c-4.4,0-7.6,3.1-7.6,8.1s3.2,8.1,7.6,8.1
		c2.6,0,4.7-1.1,5.9-3.5h4.4c-1.7,4.3-5.7,6.6-10.3,6.6c-6.2,0-11.3-4.6-11.3-11.3C178.5,208.4,183.5,203.7,189.8,203.7z"/>
	<path class="st6" d="M219.3,216.4h-10.4v9.7h-3.6V204h3.6v9.5h10.4V204h3.6v22.1h-3.6V216.4z"/>
	<path class="st6" d="M236.3,204c5.2,0,7.8,3,7.8,6.6c0,2.6-1.4,5.4-5.1,6.3l5.5,9.2h-4.3l-5.1-8.8h-2.8v8.8h-3.6V204H236.3z
		 M236.3,207h-4v7.4h4c2.8,0,4.1-1.6,4.1-3.8C240.4,208.4,239.1,207,236.3,207z"/>
	<path class="st6" d="M261.9,206.9h-8.6v6.5h7.6v3h-7.6v6.8h8.6v3h-12.2V204h12.2V206.9z"/>
	<path class="st6" d="M267.3,204h3.6v22.1h-3.6V204z"/>
	<path class="st6" d="M285.5,226.1h-8.8V204h8.4c4.7,0,7.2,2.6,7.2,5.7c0,2.7-1.6,4.3-3.8,5.1c2.4,0.4,4.3,2.8,4.3,5.4
		C292.8,223.5,290.1,226.1,285.5,226.1z M284.8,207h-4.5v6.3h4.5c2.4,0,3.8-1.1,3.8-3.1C288.6,208.1,287.2,207,284.8,207z
		 M285.1,216.2h-4.8v6.9h4.9c2.4,0,3.9-1.2,3.9-3.4C289.2,217.6,287.5,216.2,285.1,216.2z"/>
	<path class="st6" d="M297.7,204h3.6v14.1c0,3.4,1.9,5.1,5,5.1s5-1.6,5-5.1V204h3.6v14c0,5.6-4.1,8.3-8.7,8.3s-8.6-2.7-8.6-8.3v-14
		H297.7z"/>
	<path class="st6" d="M338.8,204v22.1h-3.6l-10.9-16.5v16.5h-3.6V204h3.6l10.9,16.5V204H338.8z"/>
	<path class="st6" d="M364.9,210.4h-4.4c-1.2-2.2-3.3-3.3-5.9-3.3c-4.4,0-7.6,3.1-7.6,8s3.2,8,7.6,8c4,0,6.5-2.4,7.1-6.1h-8.3v-3
		h12.2v2.8c-0.7,5.1-5,9.5-10.9,9.5c-6.2,0-11.3-4.6-11.3-11.3c0-6.6,5.1-11.3,11.3-11.3C359.2,203.7,363.2,206,364.9,210.4z"/>
</g>
<g class="st8">
	<path class="st6" d="M57.3,244.3h-4.1c-1.1-2.1-3.1-3.1-5.6-3.1c-4.1,0-7.1,2.9-7.1,7.5s3,7.6,7.1,7.6c3.8,0,6.1-2.3,6.7-5.8h-7.8
		v-2.7H58v2.7c-0.6,4.8-4.7,8.9-10.3,8.9c-5.9,0-10.6-4.4-10.6-10.6c0-6.2,4.8-10.6,10.6-10.6C52,238.1,55.8,240.3,57.3,244.3z"/>
	<path class="st6" d="M73.8,241.1h-8.1v6.1h7.2v2.8h-7.2v6.4h8.1v2.8H62.3v-20.9h11.5V241.1z"/>
	<path class="st6" d="M77.4,238.3H81l4.3,17l4.7-17h3.8l4.4,16.9l4.3-16.9h3.7l-6.2,20.8h-3.9l-4.4-15.8l-4.6,15.8h-3.8L77.4,238.3z
		"/>
	<path class="st6" d="M121.5,241.1h-8.1v6.1h7.2v2.8h-7.2v6.4h8.1v2.8H110v-20.9h11.5V241.1z"/>
	<path class="st6" d="M133.9,238.3c4.9,0,7.4,2.9,7.4,6.2c0,2.5-1.3,5.1-4.8,6l5.2,8.6h-4.1l-4.8-8.3h-2.6v8.3h-3.4v-20.8H133.9z
		 M133.9,241.1h-3.8v7h3.8c2.7,0,3.9-1.5,3.9-3.5C137.8,242.5,136.6,241.1,133.9,241.1z"/>
	<path class="st6" d="M155,259.2h-8.3v-20.8h7.9c4.4,0,6.7,2.4,6.7,5.4c0,2.5-1.5,4-3.5,4.8c2.2,0.4,4,2.6,4,5.1
		C161.8,256.8,159.3,259.2,155,259.2z M154.3,241.1h-4.2v6h4.2c2.2,0,3.6-1,3.6-3C157.9,242.2,156.5,241.1,154.3,241.1z
		 M154.6,249.9h-4.5v6.5h4.6c2.3,0,3.7-1.2,3.7-3.2C158.4,251.2,156.9,249.9,154.6,249.9z"/>
	<path class="st6" d="M178.1,241.1H170v6.1h7.2v2.8H170v6.4h8.1v2.8h-11.5v-20.9h11.5V241.1z"/>
	<path class="st6" d="M197.6,238.3h3.6l-7.8,20.8h-4l-7.9-20.8h3.7l6.2,17.3L197.6,238.3z"/>
	<path class="st6" d="M216.6,241.1h-8.1v6.1h7.2v2.8h-7.2v6.4h8.1v2.8h-11.5v-20.9h11.5V241.1z"/>
	<path class="st6" d="M229,238.3c4.9,0,7.4,2.9,7.4,6.2c0,2.5-1.3,5.1-4.8,6l5.2,8.6h-4.1l-4.8-8.3h-2.6v8.3h-3.4v-20.8H229z
		 M229,241.1h-3.8v7h3.8c2.7,0,3.9-1.5,3.9-3.5C232.8,242.5,231.6,241.1,229,241.1z"/>
	<path class="st6" d="M248.6,259.4c-4.2,0-7.4-2.3-7.4-6h3.7c0.1,1.7,1.3,3.1,3.7,3.1s3.8-1.3,3.8-3.1c0-5-11.1-1.8-11.1-9.5
		c0-3.7,2.9-5.9,7.2-5.9c4,0,6.8,2.1,7.1,5.7h-3.8c-0.1-1.4-1.3-2.7-3.5-2.8c-2-0.1-3.5,0.9-3.5,2.9c0,4.7,11,1.8,11,9.4
		C255.8,256.4,253.2,259.4,248.6,259.4z"/>
	<path class="st6" d="M260.8,238.3h3.4v20.8h-3.4V238.3z"/>
	<path class="st6" d="M279.3,238.1c4.3,0,8.1,2.2,9.7,6.3h-4.1c-1.1-2.2-3.1-3.3-5.6-3.3c-4.1,0-7.1,2.9-7.1,7.6s3,7.7,7.1,7.7
		c2.5,0,4.5-1,5.6-3.3h4.1c-1.6,4.1-5.3,6.2-9.7,6.2c-5.9,0-10.6-4.4-10.6-10.6C268.6,242.5,273.4,238.1,279.3,238.1z"/>
	<path class="st6" d="M307.2,250.1h-9.8v9.1H294v-20.8h3.4v8.9h9.8v-8.9h3.4v20.8h-3.4V250.1z"/>
	<path class="st6" d="M327.6,241.1h-8.1v6.1h7.2v2.8h-7.2v6.4h8.1v2.8h-11.5v-20.9h11.5V241.1z"/>
	<path class="st6" d="M340,238.3c5,0,7.4,2.9,7.4,6.2c0,2.5-1.3,5.1-4.8,6l5.2,8.6h-4.1l-4.8-8.3h-2.6v8.3h-3.4v-20.8H340z
		 M340,241.1h-3.8v7h3.8c2.7,0,3.9-1.5,3.9-3.5C343.8,242.5,342.6,241.1,340,241.1z"/>
	<path class="st6" d="M352.7,238.3h3.4v13.3c0,3.2,1.8,4.8,4.7,4.8c2.9,0,4.7-1.5,4.7-4.8v-13.3h3.4v13.2c0,5.3-3.8,7.8-8.2,7.8
		c-4.4,0-8.1-2.5-8.1-7.8v-13.2H352.7z"/>
	<path class="st6" d="M391.5,238.3v20.9h-3.4l-10.3-15.6v15.6h-3.4v-20.9h3.4l10.3,15.5v-15.5L391.5,238.3L391.5,238.3z"/>
	<path class="st6" d="M416.2,244.3h-4.1c-1.1-2.1-3.1-3.1-5.6-3.1c-4.1,0-7.1,2.9-7.1,7.5s3,7.6,7.1,7.6c3.8,0,6.1-2.3,6.7-5.8h-7.8
		v-2.7h11.5v2.7c-0.6,4.8-4.7,8.9-10.3,8.9c-5.9,0-10.6-4.4-10.6-10.6c0-6.2,4.8-10.6,10.6-10.6
		C410.9,238.1,414.6,240.3,416.2,244.3z"/>
</g>
<path class="st3" d="M243.3,169.5c0-4.5-3.4-7.9-7.9-7.9h-63.1c-4.5,0-7.9,3.4-7.9,7.9v13.2h78.9L243.3,169.5L243.3,169.5z
	 M238,177.4h-68.4v-7.9c0-1.6,1.1-2.6,2.6-2.6h63.1c1.6,0,2.6,1.1,2.6,2.6L238,177.4L238,177.4z"/>
<path class="st3" d="M232.7,159v-2.6c0-4.5-3.4-7.9-7.9-7.9h-42.1c-4.5,0-7.9,3.4-7.9,7.9v2.6h5.3v-2.6c0-1.6,1.1-2.6,2.6-2.6h42.1
	c1.6,0,2.6,1.1,2.6,2.6v2.6H232.7z"/>
<rect x="232.7" y="140.5" class="st3" width="10.5" height="5.3"/>
<rect x="167" y="140.5" class="st3" width="10.5" height="5.3"/>
<rect x="176.2" y="120.6" transform="matrix(0.7071 -0.7071 0.7071 0.7071 -36.7883 163.4087)" class="st3" width="5.3" height="11"/>
<polygon class="st3" points="264.3,38 264.3,63 283.8,76.9 286.9,72.7 269.6,60.3 269.6,38 "/>
<rect x="223.3" y="126.1" transform="matrix(0.7071 -0.7071 0.7071 0.7071 -24.0389 199.496)" class="st3" width="11" height="5.3"/>
<path class="st3" d="M269.8,130.8c0.5-0.5,1.1-0.8,1.8-0.8H283c0.8,0,1.3,0.3,1.8,0.8L320,166l3.7-3.7l-35-35.2
	c-1.6-1.6-3.4-2.4-5.5-2.4h-7.4l-30.2-30.2l9.2-9.2h5.3l4.2-4.2c2.1-2.1,2.1-5.3,0-7.4l0,0l-22.6-22.6c-2.1-2.1-5.3-2.1-7.4,0
	l-4.2,4.2v5.3l-37.9,37.9H187l-4.2,4.2c-2.1,2.1-2.1,5.3,0,7.4l0,0l22.6,22.6c2.1,2.1,5.3,2.1,7.4,0l0,0l4.2-4.2v-5.3l14.5-14.5
	l26.6,26.6l-1.6,1.3c-4.2,4.2-4.2,11.3,0,15.5c0.3,0.3,0.5,0.5,0.8,0.8l0,0l25.3,22.9c3.2,2.9,7.9,2.6,10.8-0.3l3.2-3.2
	c1.1-1.1,2.6-1.1,3.7,0l0,0l12.1,12.1l3.7-3.7L304,168.6c-3.2-3.2-8.2-3.2-11,0l-3.2,3.2c-1.1,1.1-2.6,1.1-3.7,0l-1.1-1.1l5-5
	l-3.7-3.7l-5,5l-4.5-3.9l5.3-5.3l-3.7-3.7l-5.5,5.5l-5.5-5c1.8-0.5,3.4-1.3,4.7-2.6l3.4-3.4c1.1-1.1,2.6-1.1,3.7,0l0,0l5.3,5.3
	c1.6,1.6,3.4,2.4,5.5,2.4h8.7V151h-8.4c-0.8,0-1.3-0.3-1.8-0.8L283,145c-3.2-3.2-8.2-3.2-11,0l-3.7,3.4c-2.4,2.4-5.8,2.4-8.2,0
	c-2.4-2.4-2.4-5.8,0-8.2L269.8,130.8z M238,54.8l22.6,22.6L258,80h-3.2l-19.5-19.5v-3.2L238,54.8z M232.7,65.3l17.4,17.4l-35.8,35.8
	L197,101.1L232.7,65.3z M209.1,129l-22.6-22.6l2.6-2.6h3.2l19.5,19.5v3.2L209.1,129z M235.1,105l6.8-6.8l27.1,27.1
	c-1.1,0.3-2.1,1.1-2.9,1.8l-4.5,4.5L235.1,105z"/>
<path class="st3" d="M252.7,95.6c18.7,7.9,40.2-1.1,48.1-19.7s-1.1-40.5-19.7-48.1C265.9,21.4,248,25.9,238,39l4.2,3.2
	c10.8-13.7,30.5-16,44.2-5.5c13.7,10.5,16,30.5,5.5,44.2c-8.7,11-23.9,15.3-37.1,9.7L252.7,95.6z"/>
<g>
	<path class="st3" d="M107.4,221.6h-10l-1.7,4.9h-4.1l8.6-24h4.6l8.6,24h-4.1L107.4,221.6z M102.4,207.2l-3.9,11.2h7.8L102.4,207.2z
		"/>
	<path class="st3" d="M116.9,202.5h3.9v15.3c0,3.7,2.1,5.5,5.4,5.5c3.3,0,5.5-1.8,5.5-5.5v-15.3h3.9v15.2c0,6.1-4.4,9-9.4,9
		c-5,0-9.3-2.9-9.3-9V202.5z"/>
	<path class="st3" d="M148.7,226.7c-4.8,0-8.5-2.6-8.5-6.9h4.2c0.2,2,1.6,3.6,4.3,3.6c2.8,0,4.3-1.5,4.3-3.5c0-5.8-12.7-2-12.7-10.9
		c0-4.2,3.3-6.8,8.3-6.8c4.6,0,7.8,2.4,8.2,6.5h-4.4c-0.1-1.6-1.6-3.1-4-3.2c-2.3-0.1-4,1-4,3.3c0,5.4,12.7,2,12.7,10.8
		C157,223.3,154,226.7,148.7,226.7z"/>
	<path class="st3" d="M169.5,226.7c-4.8,0-8.5-2.6-8.5-6.9h4.2c0.2,2,1.6,3.6,4.3,3.6c2.8,0,4.3-1.5,4.3-3.5c0-5.8-12.7-2-12.7-10.9
		c0-4.2,3.3-6.8,8.3-6.8c4.6,0,7.8,2.4,8.2,6.5h-4.4c-0.1-1.6-1.6-3.1-4-3.2c-2.3-0.1-4,1-4,3.3c0,5.4,12.7,2,12.7,10.8
		C177.8,223.3,174.9,226.7,169.5,226.7z"/>
	<path class="st3" d="M193.4,202.2c5,0,9.3,2.5,11.2,7.2h-4.7c-1.3-2.6-3.6-3.8-6.4-3.8c-4.8,0-8.2,3.4-8.2,8.8
		c0,5.4,3.5,8.8,8.2,8.8c2.9,0,5.1-1.2,6.4-3.8h4.7c-1.8,4.7-6.1,7.2-11.2,7.2c-6.8,0-12.3-5-12.3-12.3
		C181.2,207.3,186.7,202.2,193.4,202.2z"/>
	<path class="st3" d="M224.4,216h-11.3v10.5h-3.9v-24h3.9v10.3h11.3v-10.3h3.9v24h-3.9V216z"/>
	<path class="st3" d="M241.8,202.5c5.7,0,8.5,3.3,8.5,7.2c0,2.8-1.5,5.9-5.6,6.9l5.9,9.9H246l-5.5-9.6h-3v9.6h-3.9v-24H241.8z
		 M241.8,205.7h-4.4v8h4.4c3.1,0,4.5-1.7,4.5-4.1C246.3,207.3,244.9,205.7,241.8,205.7z"/>
	<path class="st3" d="M268.6,205.7h-9.3v7h8.3v3.2h-8.3v7.4h9.3v3.2h-13.3v-24h13.3V205.7z"/>
	<path class="st3" d="M273.4,202.5h3.9v24h-3.9V202.5z"/>
	<path class="st3" d="M292.1,226.5h-9.6v-24h9.2c5.1,0,7.8,2.8,7.8,6.2c0,2.9-1.8,4.7-4.1,5.5c2.6,0.4,4.6,3,4.6,5.9
		C300,223.7,297,226.5,292.1,226.5z M291.3,205.7h-4.9v6.9h4.9c2.6,0,4.1-1.2,4.1-3.4C295.5,207,293.9,205.7,291.3,205.7z
		 M291.7,215.8h-5.2v7.5h5.3c2.7,0,4.3-1.3,4.3-3.7C296.1,217.2,294.3,215.8,291.7,215.8z"/>
	<path class="st3" d="M304.3,202.5h3.9v15.3c0,3.7,2.1,5.5,5.4,5.5c3.3,0,5.5-1.8,5.5-5.5v-15.3h3.9v15.2c0,6.1-4.4,9-9.4,9
		c-5,0-9.3-2.9-9.3-9V202.5z"/>
	<path class="st3" d="M347.8,202.5v24h-3.9L332,208.6v17.9h-3.9v-24h3.9l11.8,17.9v-17.9H347.8z"/>
	<path class="st3" d="M375.1,209.4h-4.7c-1.3-2.4-3.6-3.6-6.4-3.6c-4.8,0-8.2,3.4-8.2,8.7s3.5,8.7,8.2,8.7c4.4,0,7.1-2.6,7.7-6.7h-9
		v-3.1h13.2v3.1c-0.7,5.6-5.4,10.3-11.9,10.3c-6.8,0-12.3-5-12.3-12.3c0-7.2,5.5-12.3,12.3-12.3C369,202.2,373.3,204.7,375.1,209.4z
		"/>
	<path class="st3" d="M48.8,250.8h-4.7c-1.3-2.4-3.6-3.6-6.4-3.6c-4.8,0-8.2,3.4-8.2,8.7s3.5,8.7,8.2,8.7c4.4,0,7.1-2.6,7.7-6.7h-9
		v-3.1h13.2v3.1c-0.7,5.6-5.4,10.3-11.9,10.3c-6.8,0-12.3-5-12.3-12.3c0-7.2,5.5-12.3,12.3-12.3C42.6,243.6,47,246.1,48.8,250.8z"/>
	<path class="st3" d="M66.6,247.1h-9.3v7h8.3v3.2h-8.3v7.4h9.3v3.2H53.4v-24h13.3V247.1z"/>
	<path class="st3" d="M69.5,243.9h4.2l5,19.5l5.4-19.5h4.4l5,19.4l5-19.4h4.2l-7.1,24h-4.5l-5-18.2l-5.4,18.2l-4.4,0L69.5,243.9z"/>
	<path class="st3" d="M119.2,247.1h-9.3v7h8.3v3.2h-8.3v7.4h9.3v3.2H106v-24h13.3V247.1z"/>
	<path class="st3" d="M132.3,243.9c5.7,0,8.5,3.3,8.5,7.2c0,2.8-1.5,5.9-5.6,6.9l5.9,9.9h-4.7l-5.5-9.6h-3v9.6H124v-24H132.3z
		 M132.3,247.1H128v8h4.4c3.1,0,4.5-1.7,4.5-4.1C136.8,248.7,135.4,247.1,132.3,247.1z"/>
	<path class="st3" d="M155.5,267.9h-9.6v-24h9.2c5.1,0,7.8,2.8,7.8,6.2c0,2.9-1.8,4.7-4.1,5.5c2.6,0.4,4.6,3,4.6,5.9
		C163.3,265.1,160.4,267.9,155.5,267.9z M154.7,247.1h-4.9v6.9h4.9c2.6,0,4.1-1.2,4.1-3.4C158.8,248.4,157.2,247.1,154.7,247.1z
		 M155,257.2h-5.2v7.5h5.3c2.7,0,4.3-1.3,4.3-3.7C159.4,258.7,157.6,257.2,155,257.2z"/>
	<path class="st3" d="M180.9,247.1h-9.3v7h8.3v3.2h-8.3v7.4h9.3v3.2h-13.3v-24h13.3V247.1z"/>
	<path class="st3" d="M202.3,243.9h4.1l-9,24h-4.6l-9-24h4.2l7.1,20L202.3,243.9z"/>
	<path class="st3" d="M222.9,247.1h-9.3v7h8.3v3.2h-8.3v7.4h9.3v3.2h-13.3v-24h13.3V247.1z"/>
	<path class="st3" d="M236,243.9c5.7,0,8.5,3.3,8.5,7.2c0,2.8-1.5,5.9-5.6,6.9l5.9,9.9h-4.7l-5.5-9.6h-3v9.6h-3.9v-24H236z
		 M236,247.1h-4.4v8h4.4c3.1,0,4.5-1.7,4.5-4.1C240.5,248.7,239.1,247.1,236,247.1z"/>
	<path class="st3" d="M257.5,268.2c-4.8,0-8.5-2.6-8.5-6.9h4.2c0.2,2,1.6,3.6,4.3,3.6c2.8,0,4.3-1.5,4.3-3.5c0-5.8-12.7-2-12.7-10.9
		c0-4.2,3.3-6.8,8.3-6.8c4.6,0,7.8,2.4,8.2,6.5h-4.4c-0.1-1.6-1.6-3.1-4-3.2c-2.3-0.1-4,1-4,3.3c0,5.4,12.7,2,12.7,10.8
		C265.8,264.7,262.8,268.2,257.5,268.2z"/>
	<path class="st3" d="M270.4,243.9h3.9v24h-3.9V243.9z"/>
	<path class="st3" d="M290.5,243.6c5,0,9.3,2.5,11.2,7.2h-4.7c-1.3-2.6-3.6-3.8-6.4-3.8c-4.8,0-8.2,3.4-8.2,8.8
		c0,5.4,3.5,8.8,8.2,8.8c2.9,0,5.1-1.2,6.4-3.8h4.7c-1.8,4.7-6.1,7.2-11.2,7.2c-6.8,0-12.3-5-12.3-12.3
		C278.2,248.7,283.7,243.6,290.5,243.6z"/>
	<path class="st3" d="M321.5,257.4h-11.3v10.5h-3.9v-24h3.9v10.3h11.3v-10.3h3.9v24h-3.9V257.4z"/>
	<path class="st3" d="M343.8,247.1h-9.3v7h8.3v3.2h-8.3v7.4h9.3v3.2h-13.3v-24h13.3V247.1z"/>
	<path class="st3" d="M357,243.9c5.7,0,8.5,3.3,8.5,7.2c0,2.8-1.5,5.9-5.6,6.9l5.9,9.9h-4.7l-5.5-9.6h-3v9.6h-3.9v-24H357z
		 M357,247.1h-4.4v8h4.4c3.1,0,4.5-1.7,4.5-4.1C361.4,248.7,360,247.1,357,247.1z"/>
	<path class="st3" d="M370.5,243.9h3.9v15.3c0,3.7,2.1,5.5,5.4,5.5c3.3,0,5.5-1.8,5.5-5.5v-15.3h3.9v15.2c0,6.1-4.4,9-9.4,9
		c-5,0-9.3-2.9-9.3-9V243.9z"/>
	<path class="st3" d="M414,243.9v24h-3.9L398.2,250v17.9h-3.9v-24h3.9l11.8,17.9v-17.9H414z"/>
	<path class="st3" d="M441.3,250.8h-4.7c-1.3-2.4-3.6-3.6-6.4-3.6c-4.8,0-8.2,3.4-8.2,8.7s3.5,8.7,8.2,8.7c4.4,0,7.1-2.6,7.7-6.7h-9
		v-3.1H442v3.1c-0.7,5.6-5.4,10.3-11.9,10.3c-6.8,0-12.3-5-12.3-12.3c0-7.2,5.5-12.3,12.3-12.3C435.2,243.6,439.5,246.1,441.3,250.8
		z"/>
</g>
<text transform="matrix(1 0 0 1 88.158 338.4844)" class="st0"><tspan x="0" y="0" class="st6" style="font-family:'Poppins-Medium'; font-size:34.5253px;">AUSSCHREIBUNG</tspan><tspan x="-66.2" y="41.4" class="st6" style="font-family:'Poppins-Medium'; font-size:34.5253px;">GEWERBEVERSICHERUNG</tspan></text>
</svg>
