<svg width="37" height="19" viewBox="0 0 37 19" fill="none" xmlns="http://www.w3.org/2000/svg">
<path fill-rule="evenodd" clip-rule="evenodd" d="M19.5586 7.43262H6.94922L11.0781 3.30371C11.4297 2.95117 11.5977 2.53125 11.5977 2.07031C11.5977 1.63086 11.418 1.18359 11.1055 0.84668C10.7891 0.509766 10.3398 0.282227 9.80859 0.282227C9.33594 0.282227 8.92188 0.455078 8.57422 0.800781L1.46094 7.91406C1.16797 8.20703 0.871094 8.56934 0.871094 9.2207C0.871094 9.56543 0.941406 9.81543 1.05469 10.0225C1.15625 10.208 1.29297 10.3594 1.44922 10.5137L8.57422 17.6406C8.92188 17.9863 9.33594 18.1592 9.80859 18.1592C10.4805 18.1592 11.0156 17.7979 11.3203 17.3105C11.5 17.0244 11.5977 16.6963 11.5977 16.3711C11.5977 15.9102 11.4297 15.4893 11.0781 15.1377L6.94922 11.0078H19.5586C20.5469 11.0078 21.3477 10.207 21.3477 9.2207C21.3477 8.2334 20.5469 7.43262 19.5586 7.43262ZM24.1289 9.21875C24.1289 8.22949 24.9297 7.42773 25.9219 7.42773H28.1758C28.5898 7.42773 28.9688 7.56641 29.2695 7.7998C29.6953 8.12793 29.9688 8.6416 29.9688 9.21875C29.9688 10.208 29.168 11.0098 28.1758 11.0098H25.9219C25.5078 11.0098 25.125 10.8701 24.8203 10.6357C24.3984 10.3076 24.1289 9.79492 24.1289 9.21875ZM34.0547 7.42773C33.0625 7.42773 32.2617 8.22949 32.2617 9.21875C32.2617 10.208 33.0625 11.0098 34.0547 11.0098H34.2266C35.2188 11.0098 36.0195 10.208 36.0195 9.21875C36.0195 8.22949 35.2188 7.42773 34.2266 7.42773H34.0547Z" fill="white"/>
</svg>
