<?xml version="1.0" encoding="utf-8"?>
<!-- Generator: Adobe Illustrator 24.3.0, SVG Export Plug-In . SVG Version: 6.00 Build 0)  -->
<svg version="1.1" xmlns="http://www.w3.org/2000/svg" xmlns:xlink="http://www.w3.org/1999/xlink" x="0px" y="0px"
	 viewBox="0 0 500 227" style="enable-background:new 0 0 500 227;" xml:space="preserve">
<style type="text/css">
	.st0{fill-rule:evenodd;clip-rule:evenodd;fill:#FFFFFF;}
	.st1{fill:#184298;}
	.st2{fill-rule:evenodd;clip-rule:evenodd;fill:#00ADEF;}
	.st3{fill-rule:evenodd;clip-rule:evenodd;fill:#184297;}
	
		.st4{clip-path:url(#SVGID_4_);fill-rule:evenodd;clip-rule:evenodd;fill:none;stroke:#184297;stroke-width:0.216;stroke-miterlimit:2.6131;}
	
		.st5{clip-path:url(#SVGID_8_);fill-rule:evenodd;clip-rule:evenodd;fill:none;stroke:#184297;stroke-width:0.216;stroke-miterlimit:2.6131;}
</style>
<g id="Layer_2">
	<path class="st0" d="M482,227.5H18c-9.9,0-18-8.1-18-18V18C0,8.1,8.1,0,18,0h464c9.9,0,18,8.1,18,18v191.5
		C500,219.5,491.9,227.5,482,227.5z"/>
</g>
<g id="Layer_1">
	<path class="st2" d="M280.7,97.8h-3.6h-3.6c-0.8-1.5-1.6-2.8-2.3-4l6-4.5l6,4.5C282.3,94.9,281.5,96.2,280.7,97.8z"/>
	<polygon class="st2" points="283.2,114.2 280.7,97.8 277.1,97.8 273.4,97.8 270.9,114.6 276.9,131.4 	"/>
	<path class="st3" d="M245.6,119.4l-5.1,3.3c-1.7,1.1-3.4,2-5.3,3.3c-1.4,0.9-9.6,5.8-10.3,6.7l28.6-0.1l2.7,0
		c1.7,0.2,9.8,0.3,11.4-0.1c-0.1-12.4,2.3-32.4-14.9-36.2l-0.4,9c-4.1,1.6-12.3,3.8-15.6,5.2l-1,0.5L245.6,119.4z"/>
	<path class="st3" d="M205.8,111l-16.4-5.6l-0.4-9.1c-17.5,4.4-14.9,23-14.9,36.4l11.4-0.1l2.7,0.1l28.6,0c-1-1-8.4-5.4-10.3-6.7
		l-10.5-6.7L205.8,111z"/>
	<path class="st3" d="M250,95.3c-2.3-0.4-4.7-1.2-7.5-1.7c-5.3-0.9-3.8-0.8-6.5,1.2c-3.1,2.3-2.2,0.7-3.5,5c-0.6,2-1.2,4.1-1.8,6.1
		c-2.5,8.1-5.2,17.9-7.6,25c0.1,0,0.2-0.1,0.3-0.1l2.3-1.4c5-3.3,11.1-6.8,16-10.2c-1.2-1.8-9-7.1-10.6-9.1l18.6-6L250,95.3z"/>
	<path class="st3" d="M191.9,103.7c2.6,1.5,16.6,5.2,18.5,6.4c-1.6,2.1-9.2,7-10.5,9c0.9,0.5,1.5,1.2,2.4,1.7
		c2.9,1.6,15,9.7,16.2,10c-1.9-4.3-9.5-31.6-10.8-34.2c-0.2-0.4-4-3.5-4.9-3.5c-2.1,0-9.2,1.5-11.3,2.4L191.9,103.7z"/>
	<path class="st2" d="M230.3,98.2c-3.5,0.8-4.8,1.9-9.5,1.9c-4.6,0-6.3-1.1-9.8-1.9l9.9,30.8L230.3,98.2z"/>
	<path class="st3" d="M219.7,39.3c5.8,0,11,2.9,14.7,7.6c3.7,4.6,5.9,10.9,5.9,17.9c0,7-2.3,13.3-5.9,17.9
		c-3.7,4.7-8.9,7.6-14.7,7.6c-5.8,0-11-2.9-14.7-7.6c-3.7-4.6-5.9-10.9-5.9-17.9c0-7,2.3-13.3,5.9-17.9
		C208.7,42.2,213.9,39.3,219.7,39.3L219.7,39.3z M231.9,48.8c-3.2-3.9-7.5-6.4-12.2-6.4c-4.8,0-9.1,2.4-12.2,6.4
		c-3.2,4.1-5.2,9.7-5.2,15.9c0,6.2,2,11.8,5.2,15.9c3.2,4,7.5,6.4,12.2,6.4c4.8,0,9.1-2.4,12.2-6.4c3.2-4.1,5.2-9.7,5.2-15.9
		C237.1,58.5,235.1,52.9,231.9,48.8z"/>
	<path class="st3" d="M221.8,74.2c-0.4,0.8-1.3,1.3-2.2,1.3c-1,0-1.8-0.5-2.2-1.3H221.8z"/>
	<path class="st3" d="M230,66.7c1.4,0,2.6-1.3,2.6-2.9s-1.2-2.9-2.6-2.9s-2.6,1.3-2.6,2.9S228.6,66.7,230,66.7z"/>
	<path class="st3" d="M234.5,55.3h-8c-0.4,0-0.7,0.3-0.7,0.7l0,0c0,0.4,0.3,0.7,0.7,0.7h8c0.4,0,0.7-0.3,0.7-0.7l0,0
		C235.2,55.6,234.9,55.3,234.5,55.3z"/>
	<path class="st3" d="M211.4,66.7c1.4,0,2.6-1.3,2.6-2.9s-1.2-2.9-2.6-2.9c-1.4,0-2.6,1.3-2.6,2.9S209.9,66.7,211.4,66.7z"/>
	<path class="st3" d="M206.9,55.3h8c0.4,0,0.7,0.3,0.7,0.7l0,0c0,0.4-0.3,0.7-0.7,0.7h-8c-0.4,0-0.7-0.3-0.7-0.7l0,0
		C206.2,55.6,206.5,55.3,206.9,55.3z"/>
	<path class="st3" d="M213.8,88.7l0.1-1.2c-7.8-3-13.4-12.1-13.4-22.8c0-3.8,0.7-7.3,1.9-10.5c0.8-3.8,23.5-0.9,24.1-11.7
		c1.7,6.7,4.7,10.4,8.8,8.9c2,3.8,3.2,8.4,3.2,13.3c0,9.7-4.6,18.1-11.3,21.8l0.4,2.3c7.9,6.1,15.3,5.9,22,2.4
		c-3.2-14.2-3.8-29.3-5.6-43.7c-3.7-12.7-12.1-19-24.5-19.8c-12.4,0.8-20.9,7-24.5,19.8c-1.8,14.3-1,29.3-3.5,43.4
		C198.4,94.9,205.9,94.2,213.8,88.7z"/>
	<path class="st3" d="M277,27.2c5.9,0,11.3,3.2,15.1,8.4c3.8,5.1,6.1,12.1,6.1,19.8c0,7.7-2.3,14.7-6.1,19.8
		c-3.8,5.2-9.2,8.4-15.1,8.4c-5.9,0-11.3-3.2-15.1-8.4c-3.8-5.1-6.1-12.1-6.1-19.8c0-7.7,2.3-14.7,6.1-19.8
		C265.7,30.4,271,27.2,277,27.2L277,27.2z M290.2,37c-3.4-4.6-8.1-7.5-13.3-7.5c-5.2,0-9.9,2.9-13.3,7.5c-3.5,4.7-5.7,11.3-5.7,18.5
		c0,7.2,2.2,13.8,5.7,18.5c3.4,4.6,8.1,7.5,13.3,7.5c5.2,0,9.9-2.9,13.3-7.5c3.5-4.7,5.7-11.3,5.7-18.5
		C295.9,48.2,293.7,41.7,290.2,37z"/>
	<path class="st3" d="M255.3,55.4c-0.4,0.1-0.8,0.5-1.1,1.3c-0.4,1-0.5,2.2-0.3,3.6c0.2,1.4,0.7,2.6,1.3,3.4c0.5,0.6,1,1,1.4,0.9
		c0.1,0,0.1,0,0.2-0.1c-0.3-1.3-0.6-2.7-0.8-4.1c-0.2-1.6-0.3-3.3-0.3-5c0,0-0.1,0-0.1-0.1C255.5,55.4,255.4,55.3,255.3,55.4
		L255.3,55.4z M252.1,55.9c0.6-1.5,1.6-2.5,2.9-2.7c0.5-0.1,0.9,0,1.4,0.1c0.4,0.1,0.9,0.4,1.2,0.7l0.4,0.3l0,1.2
		c0,1.6,0.1,3.2,0.3,4.7c0.2,1.6,0.5,3.1,0.9,4.5l0.2,0.6l-0.4,0.5c-0.3,0.3-0.6,0.6-0.9,0.8c-0.3,0.2-0.7,0.4-1.1,0.4
		c-1.3,0.2-2.6-0.5-3.5-1.8c-0.8-1.1-1.5-2.7-1.7-4.4C251.5,58.8,251.6,57.2,252.1,55.9z"/>
	<path class="st3" d="M261.2,27.2c-0.7,0.4-1.8,1.3-2.4,1.8c-0.8,0.7-1.3,1.3-2.1,2.3c-1.1,1.3-2.3,3.8-3,5.9
		c-2,6.3,2.9,17.3,2.3,20.2c4-4.2,6.7-10.2,10.9-11.2c5.7,5.7,14.7,1.2,24.3-4.3c1.8,7.7,4.3,9.9,6.6,12.3
		c-0.3-0.7,2.8-12.2,0.8-17.4c-2.1-5.6-5-5.2-7.2-6c-1-0.4-0.4-0.8-1.8-2.7c-1.4-1.9-2.4-2.8-4.8-4c-3-1.6-4.1-1.2-7.7-1
		c-3,0.1-6,0.2-9,0.1c-1.5,0-7.8-0.4-8.7-0.2C259,24.9,260.7,26.1,261.2,27.2z"/>
	<path class="st3" d="M280.5,72c0.5-0.3,1.1-0.1,1.4,0.4c0.3,0.5,0.1,1.1-0.4,1.4c-0.8,0.4-1.6,0.8-2.4,1c-0.8,0.2-1.7,0.3-2.6,0.3
		c-0.9,0-1.7-0.1-2.6-0.3c-0.8-0.2-1.6-0.6-2.4-1c-0.5-0.3-0.7-0.9-0.4-1.4c0.3-0.5,0.9-0.7,1.4-0.4c0.6,0.3,1.2,0.6,1.9,0.8
		c0.7,0.2,1.3,0.3,2,0.3c0.7,0,1.4-0.1,2-0.3C279.3,72.6,279.9,72.4,280.5,72z"/>
	<path class="st3" d="M279.2,67.3c-0.5,0.9-1.5,1.6-2.7,1.6s-2.1-0.6-2.7-1.6H279.2z"/>
	<path class="st3" d="M268.2,61c1.3,0,2.4-1.1,2.4-2.4c0-1.3-1.1-2.4-2.4-2.4c-1.3,0-2.4,1.1-2.4,2.4C265.8,59.9,266.9,61,268.2,61z
		"/>
	<path class="st3" d="M265.2,51h6.3c0.5,0,0.8,0.4,0.8,0.8l0,0c0,0.5-0.4,0.8-0.8,0.8h-6.3c-0.5,0-0.8-0.4-0.8-0.8l0,0
		C264.4,51.4,264.8,51,265.2,51z"/>
	<path class="st3" d="M285.7,61c1.3,0,2.4-1.1,2.4-2.4c0-1.3-1.1-2.4-2.4-2.4c-1.3,0-2.4,1.1-2.4,2.4C283.3,59.9,284.4,61,285.7,61z
		"/>
	<path class="st3" d="M288.7,51h-6.3c-0.5,0-0.8,0.4-0.8,0.8l0,0c0,0.5,0.4,0.8,0.8,0.8h6.3c0.5,0,0.8-0.4,0.8-0.8l0,0
		C289.5,51.4,289.2,51,288.7,51z"/>
	<path class="st3" d="M288,54.4l-4.8,0.1c-0.4,0-0.8,0.1-1.2,0.3c-0.4,0.2-0.7,0.4-1,0.7c-0.3,0.3-0.5,0.6-0.6,0.9
		c-0.1,0.3-0.2,0.7-0.2,1.1l0,1.4c0,0.4,0.1,0.7,0.2,1.1c0.2,0.4,0.4,0.7,0.6,1c0.3,0.3,0.6,0.5,1,0.7c0.4,0.2,0.8,0.3,1.2,0.3
		l4.8,0.2c0.5,0,0.9,0,1.3-0.2c0.4-0.1,0.8-0.4,1.1-0.6c0.3-0.3,0.6-0.6,0.8-1c0.2-0.4,0.3-0.8,0.3-1.2v-1.5c0-0.4-0.1-0.8-0.3-1.2
		c-0.2-0.4-0.5-0.7-0.8-1c-0.3-0.3-0.7-0.5-1.2-0.7C289,54.5,288.5,54.4,288,54.4L288,54.4z M275,56.7h1.9h1.9
		c0.1-0.3,0.1-0.5,0.2-0.8c0.2-0.5,0.5-1,0.9-1.4c0.4-0.4,0.9-0.7,1.4-1c0.5-0.2,1.1-0.4,1.7-0.4l2.4-0.1L288,53c0.3,0,0.6,0,0.8,0
		l0,0l6.5,1.4h1.1V56h-2.1l-1.4,0.6c0.1,0.3,0.1,0.6,0.1,0.9v1.5c0,0.6-0.1,1.2-0.4,1.8c-0.3,0.6-0.7,1.1-1.1,1.5
		c-0.5,0.4-1,0.7-1.6,0.9c-0.6,0.2-1.2,0.3-1.9,0.3l-4.8-0.2c-0.6,0-1.2-0.2-1.7-0.4c-0.5-0.2-1-0.6-1.4-1c-0.4-0.4-0.7-0.9-0.9-1.4
		c-0.2-0.5-0.3-1.1-0.3-1.6l0-0.5H277h-1.9l0,0.5c0,0.6-0.1,1.1-0.3,1.6c-0.2,0.5-0.5,1-0.9,1.4c-0.4,0.4-0.9,0.7-1.4,1
		c-0.5,0.2-1.1,0.4-1.7,0.4l-4.8,0.2c-0.7,0-1.3-0.1-1.9-0.3c-0.6-0.2-1.1-0.5-1.6-0.9c-0.5-0.4-0.9-0.9-1.1-1.5
		c-0.3-0.5-0.4-1.2-0.4-1.8v-1.5c0-0.3,0-0.6,0.1-0.9l-1.4-0.6h-2.1v-1.7h1.1l6.5-1.4l0,0c0.3,0,0.6-0.1,0.8,0l4.8,0.1
		c0.6,0,1.2,0.1,1.7,0.4c0.5,0.2,1,0.6,1.4,1c0.4,0.4,0.7,0.9,0.9,1.4C274.9,56.1,275,56.4,275,56.7L275,56.7z M268.3,54.5l-2.5-0.1
		c-0.5,0-0.9,0.1-1.4,0.2c-0.4,0.2-0.8,0.4-1.2,0.7c-0.3,0.3-0.6,0.6-0.8,1c-0.2,0.4-0.3,0.8-0.3,1.2v1.5c0,0.4,0.1,0.8,0.3,1.2
		c0.2,0.4,0.4,0.7,0.8,1c0.3,0.3,0.7,0.5,1.1,0.6c0.4,0.1,0.9,0.2,1.3,0.2l4.8-0.2c0.4,0,0.8-0.1,1.2-0.3c0.4-0.2,0.7-0.4,1-0.7
		c0.3-0.3,0.5-0.6,0.7-1c0.1-0.3,0.2-0.7,0.2-1.1l0-1.4c0-0.4-0.1-0.7-0.2-1.1c-0.1-0.3-0.4-0.7-0.6-0.9c-0.3-0.3-0.6-0.5-1-0.7
		c-0.4-0.2-0.8-0.2-1.2-0.3L268.3,54.5z"/>
	<path class="st2" d="M288.4,81.1l-11.3,6.7L265,97l-4.5-11.7c1.1-0.6,2.2-1.4,3.2-2.2c0.7-0.6,1.3-1.3,1.9-2l11.4,6.8l12,9.2
		l4.5-11.6c-1.2-0.6-2.4-1.4-3.4-2.3C289.5,82.5,288.9,81.8,288.4,81.1z"/>
	<path class="st3" d="M296.9,84c4.7,2.1,21.2,10.4,23.2,11.9c4,2.9,5.7,10.7,5.9,15.3c0.3,4.7,0.1,15.5,0,17.9
		c-0.1,4.4-2.6,3.6-6.6,3.6c-3.2,0-6.4,0.1-9.6-0.1l-31.5,0L294.8,86c-1.6-0.7-3.3-1.7-4.7-2.9c-1.5-1.4-2.8-3-3.4-5l2.5-0.8
		c0.5,1.5,1.5,2.8,2.7,3.9C293.4,82.5,295.3,83.4,296.9,84L296.9,84z"/>
	<g>
		<defs>
			<path id="SVGID_1_" d="M296.9,84c4.7,2.1,21.2,10.4,23.2,11.9c4,2.9,5.7,10.7,5.9,15.3c0.3,4.7,0.1,15.5,0,17.9
				c-0.1,4.4-2.6,3.6-6.6,3.6c-3.2,0-6.4,0.1-9.6-0.1l-31.5,0L294.8,86c-1.6-0.7-3.3-1.7-4.7-2.9c-1.5-1.4-2.8-3-3.4-5l2.5-0.8
				c0.5,1.5,1.5,2.8,2.7,3.9C293.4,82.5,295.3,83.4,296.9,84L296.9,84z"/>
		</defs>
		<clipPath id="SVGID_2_">
			<use xlink:href="#SVGID_1_"  style="overflow:visible;"/>
		</clipPath>
	</g>
	<g>
		<defs>
			<path id="SVGID_3_" d="M296.9,84c4.7,2.1,21.2,10.4,23.2,11.9c4,2.9,5.7,10.7,5.9,15.3c0.3,4.7,0.1,15.5,0,17.9
				c-0.1,4.4-2.6,3.6-6.6,3.6c-3.2,0-6.4,0.1-9.6-0.1l-31.5,0L294.8,86c-1.6-0.7-3.3-1.7-4.7-2.9c-1.5-1.4-2.8-3-3.4-5l2.5-0.8
				c0.5,1.5,1.5,2.8,2.7,3.9C293.4,82.5,295.3,83.4,296.9,84L296.9,84z"/>
		</defs>
		<clipPath id="SVGID_4_">
			<use xlink:href="#SVGID_3_"  style="overflow:visible;"/>
		</clipPath>
		<path class="st4" d="M278.4,77.2l47.8,55.6 M326.2,77.2l-47.8,55.6"/>
	</g>
	<path class="st3" d="M257,84c-1,0.4-2.5,1.1-4.3,2c0.3,1.4,0.6,2.8,0.9,4.2c0.2,0.8,0.2,1.6-0.1,2.3c3.9,0.9,7,2.4,9.4,4.4
		L259.1,86c1.6-0.7,3.3-1.7,4.7-2.9c1.5-1.4,2.8-3,3.4-5l-2.5-0.8c-0.5,1.5-1.5,2.8-2.7,3.9C260.5,82.5,258.6,83.4,257,84L257,84
		L257,84z M271.4,132.7l4.1,0l-4.1-11.6c0.1,2.5,0,5,0,7.3c0,1.5,0,2.9,0,4.2L271.4,132.7z"/>
	<g>
		<defs>
			<path id="SVGID_5_" d="M257,84c-1,0.4-2.5,1.1-4.3,2c0.3,1.4,0.6,2.8,0.9,4.2c0.2,0.8,0.2,1.6-0.1,2.3c3.9,0.9,7,2.4,9.4,4.4
				L259.1,86c1.6-0.7,3.3-1.7,4.7-2.9c1.5-1.4,2.8-3,3.4-5l-2.5-0.8c-0.5,1.5-1.5,2.8-2.7,3.9C260.5,82.5,258.6,83.4,257,84L257,84
				L257,84z M271.4,132.7l4.1,0l-4.1-11.6c0.1,2.5,0,5,0,7.3c0,1.5,0,2.9,0,4.2L271.4,132.7z"/>
		</defs>
		<clipPath id="SVGID_6_">
			<use xlink:href="#SVGID_5_"  style="overflow:visible;"/>
		</clipPath>
	</g>
	<g>
		<defs>
			<path id="SVGID_7_" d="M257,84c-1,0.4-2.5,1.1-4.3,2c0.3,1.4,0.6,2.8,0.9,4.2c0.2,0.8,0.2,1.6-0.1,2.3c3.9,0.9,7,2.4,9.4,4.4
				L259.1,86c1.6-0.7,3.3-1.7,4.7-2.9c1.5-1.4,2.8-3,3.4-5l-2.5-0.8c-0.5,1.5-1.5,2.8-2.7,3.9C260.5,82.5,258.6,83.4,257,84L257,84
				L257,84z M271.4,132.7l4.1,0l-4.1-11.6c0.1,2.5,0,5,0,7.3c0,1.5,0,2.9,0,4.2L271.4,132.7z"/>
		</defs>
		<clipPath id="SVGID_8_">
			<use xlink:href="#SVGID_7_"  style="overflow:visible;"/>
		</clipPath>
		<path class="st5" d="M252.7,77.2l22.8,55.4 M275.6,77.2l-22.8,55.4"/>
	</g>
	<path class="st3" d="M299,53.1c1.3,0.2,2.3,1.2,2.9,2.7c0.5,1.3,0.6,3,0.4,4.7c-0.3,1.8-0.9,3.3-1.7,4.4c-1,1.3-2.2,2-3.5,1.8
		c-0.4-0.1-0.8-0.2-1.1-0.4c-0.3-0.2-0.6-0.5-0.9-0.8l-0.4-0.5l0.2-0.6c0.4-1.4,0.7-2.9,0.9-4.5c0.2-1.5,0.3-3.1,0.3-4.7l0-1.2
		l0.4-0.3c0.4-0.3,0.8-0.6,1.2-0.7C298,53.1,298.5,53.1,299,53.1L299,53.1z M299.7,56.6c-0.3-0.7-0.6-1.2-1.1-1.3
		c-0.1,0-0.2,0-0.4,0l-0.1,0l0,0c0,1.7-0.1,3.3-0.3,5c-0.2,1.4-0.5,2.8-0.8,4.1c0.1,0,0.1,0.1,0.2,0.1c0.4,0.1,0.9-0.3,1.4-0.9
		c0.6-0.8,1.1-2,1.3-3.4C300.2,58.9,300,57.6,299.7,56.6z"/>
	<path class="st3" d="M210.8,76.8c-0.3-0.4-0.3-1,0.1-1.4c0.4-0.3,1-0.3,1.4,0.1c0.3,0.3,0.6,0.6,0.9,0.9c1.7,1.4,4,2.1,6.4,2.1
		c2.3,0,4.7-0.7,6.4-2.1c0.3-0.3,0.6-0.6,0.9-0.9c0.3-0.4,1-0.5,1.4-0.1c0.4,0.3,0.5,1,0.1,1.4c-0.3,0.4-0.7,0.8-1.1,1.1
		c-2.1,1.7-4.9,2.6-7.6,2.6c-2.8,0-5.6-0.9-7.6-2.6C211.5,77.6,211.1,77.2,210.8,76.8z"/>
	<g>
		<path class="st1" d="M51.6,167.1h19.9v3.4H55.7v9.6h13.9v3.4H55.7v13.9h-4V167.1z"/>
		<path class="st1" d="M75.9,167.1h4v30.3h-4V167.1z"/>
		<path class="st1" d="M86.5,167.1h4.3l15.9,24.6h0.1v-24.6h3.8v30.3h-4.4l-15.8-24.3h-0.1v24.3h-3.8V167.1z"/>
		<path class="st1" d="M125.2,167.1h4.5l11.8,30.3H137l-3.3-9.1h-12.8l-3.4,9.1h-4.2L125.2,167.1z M122.2,184.9h10.3l-5-14.1h-0.1
			L122.2,184.9z"/>
		<path class="st1" d="M144.2,167.1h4.3l15.9,24.6h0.1v-24.6h3.8v30.3h-4.4l-15.8-24.3H148v24.3h-3.8V167.1z"/>
		<path class="st1" d="M172.2,194l18.8-23.5h-17.4v-3.4h22.1v3.4L177,194h19.3v3.4h-24.1V194z"/>
		<path class="st1" d="M212.2,197.4h-4.6L197,167.1h4.4l8.7,26.2h0.1l8.7-26.2h4.2L212.2,197.4z"/>
		<path class="st1" d="M226,167.1h20.9v3.4H230v9.6h15.7v3.4H230V194h17v3.4h-21V167.1z"/>
		<path class="st1" d="M251.7,167.1H266c5.7,0,9.2,3.1,9.2,7.9c0,3.6-1.6,6.7-5.3,7.7v0.1c3.5,0.7,4.2,3.3,4.5,6.2
			c0.3,3,0.1,6.3,1.8,8.4h-4.5c-1.1-1.2-0.5-4.5-1.1-7.5c-0.4-3-1.1-5.5-5-5.5h-9.8v12.9h-4V167.1z M264.1,181c3.8,0,7-1,7-5.4
			c0-3-1.6-5.2-5.4-5.2h-10V181H264.1z"/>
		<path class="st1" d="M280.6,167.1h5.5l9.5,25.4l9.6-25.4h5.5v30.3H307v-25.2h-0.1l-9.5,25.2H294l-9.5-25.2h-0.1v25.2h-3.8V167.1z"
			/>
		<path class="st1" d="M317.4,167.1h4v30.3h-4V167.1z"/>
		<path class="st1" d="M334.9,170.5h-10.1v-3.4H349v3.4h-10.1v26.9h-4V170.5z"/>
		<path class="st1" d="M359,170.5h-10.1v-3.4h24.2v3.4h-10.1v26.9h-4V170.5z"/>
		<path class="st1" d="M376.3,167.1h4V194h16v3.4h-20.1V167.1z"/>
		<path class="st1" d="M399.7,167.1h20.9v3.4h-16.9v9.6h15.7v3.4h-15.7V194h17v3.4h-21V167.1z"/>
		<path class="st1" d="M425.3,167.1h14.2c5.7,0,9.2,3.1,9.2,7.9c0,3.6-1.6,6.7-5.3,7.7v0.1c3.5,0.7,4.2,3.3,4.5,6.2
			c0.3,3,0.1,6.3,1.8,8.4h-4.5c-1.1-1.2-0.5-4.5-1.1-7.5c-0.4-3-1.1-5.5-5-5.5h-9.8v12.9h-4V167.1z M437.8,181c3.8,0,7-1,7-5.4
			c0-3-1.6-5.2-5.4-5.2h-10V181H437.8z"/>
	</g>
</g>
</svg>
