<svg width="36" height="33" viewBox="0 0 36 33" fill="none" xmlns="http://www.w3.org/2000/svg">
<path d="M19.6438 11.0175C18.7352 10.5365 17.7198 10.2693 16.6509 10.2693C14.8872 10.2693 13.2839 10.9641 12.1081 12.1398C10.9858 13.3156 10.291 14.8655 10.291 16.6292C10.291 18.3929 10.9858 19.9962 12.1081 21.1185C13.2839 22.2943 14.8872 22.9891 16.6509 22.9891C17.7198 22.9891 18.7352 22.7219 19.6438 22.2409C20.4989 21.8133 21.1937 21.172 21.7816 20.4237C21.9419 20.21 21.9954 20.0496 22.2091 19.8893C22.5833 19.4617 23.0643 19.0876 23.5987 18.8204C24.24 18.4997 24.9348 18.3394 25.683 18.3394C26.2175 18.3394 26.7519 18.4463 27.2864 18.6601C27.6605 18.767 28.0346 18.9807 28.3553 19.1945C28.6759 19.4083 28.9431 19.6755 29.3173 19.8893C29.531 20.0496 29.7983 20.1565 30.0655 20.2634C30.4396 20.4237 30.8671 20.4772 31.2947 20.4772C32.3636 20.4772 33.3256 20.0496 34.0204 19.3549C34.7152 18.6601 35.1427 17.6981 35.1427 16.6292C35.1427 15.5603 34.7152 14.5983 34.0204 13.9035C33.3256 13.2087 32.3636 12.7812 31.2947 12.7812C30.8671 12.7812 30.4396 12.8881 30.0655 12.995C29.7983 13.1018 29.531 13.2087 29.3173 13.3691C28.9431 13.5828 28.6759 13.8501 28.3553 14.1173C28.0346 14.3311 27.6605 14.4914 27.2864 14.6517C26.7519 14.8121 26.2175 14.919 25.683 14.919C24.9348 14.919 24.24 14.7586 23.5987 14.438C23.0643 14.1707 22.5833 13.8501 22.2091 13.4225C21.9954 13.2087 21.9419 13.0484 21.7816 12.8346C21.1937 12.0864 20.4989 11.4451 19.6438 11.0175Z" fill="url(#paint0_linear_607_1770)"/>
<path d="M23.1708 23.2023C24.5069 21.9196 26.5912 21.9196 27.9273 23.2023C29.21 24.5384 29.21 26.6227 27.9273 27.9588C26.4309 29.4553 24.6672 30.5776 22.6898 31.4327C20.7658 32.1809 18.7349 32.6085 16.5971 32.6085C12.2146 32.6085 8.20631 30.8448 5.3203 27.9588C2.4343 25.0728 0.617188 21.0645 0.617188 16.6286C0.617188 12.2461 2.4343 8.2378 5.3203 5.3518L5.53408 5.13802C8.36664 2.35891 12.3215 0.648682 16.5971 0.648682C18.7349 0.648682 20.7658 1.07624 22.6898 1.87791C24.6672 2.67957 26.4309 3.85535 27.9273 5.3518C29.21 6.63447 29.21 8.77225 27.9273 10.0549C26.5912 11.391 24.5069 11.391 23.1708 10.0549C22.3157 9.1998 21.3002 8.50502 20.1779 8.02402C19.0555 7.59647 17.8798 7.32924 16.5971 7.32924C14.1386 7.32924 11.8405 8.34469 10.1838 9.89458L10.0234 10.0549C8.36664 11.7651 7.29775 14.0633 7.29775 16.6286C7.29775 19.1939 8.36664 21.5455 10.0234 23.2023C11.7336 24.9125 14.0318 25.9279 16.5971 25.9279C17.8798 25.9279 19.0555 25.7142 20.1779 25.2332C21.3002 24.8056 22.3157 24.1108 23.1708 23.2023Z" fill="#184297"/>
<defs>
<linearGradient id="paint0_linear_607_1770" x1="35.1555" y1="16.6407" x2="10.2703" y2="16.6407" gradientUnits="userSpaceOnUse">
<stop stop-color="#00ADEF"/>
<stop offset="1" stop-color="#184297"/>
</linearGradient>
</defs>
</svg>
