<svg width="266" height="56" viewBox="0 0 266 56" fill="none" xmlns="http://www.w3.org/2000/svg">
<path d="M33.0972 18.369C31.5182 17.533 29.7534 17.0686 27.8958 17.0686C24.8306 17.0686 22.0442 18.2761 20.0008 20.3195C18.0502 22.3629 16.8428 25.0565 16.8428 28.1216C16.8428 31.1867 18.0502 33.9732 20.0008 35.9237C22.0442 37.9671 24.8306 39.1746 27.8958 39.1746C29.7534 39.1746 31.5182 38.7102 33.0972 37.8742C34.5833 37.1312 35.7907 36.0166 36.8124 34.7162C37.0911 34.3447 37.184 34.066 37.5555 33.7874C38.2057 33.0443 39.0416 32.3942 39.9704 31.9298C41.085 31.3725 42.2925 31.0938 43.5928 31.0938C44.5217 31.0938 45.4505 31.2796 46.3793 31.6511C47.0295 31.8369 47.6797 32.2084 48.237 32.5799C48.7942 32.9515 49.2587 33.4159 49.9088 33.7874C50.2804 34.066 50.7448 34.2518 51.2092 34.4376C51.8594 34.7162 52.6024 34.8091 53.3455 34.8091C55.2031 34.8091 56.875 34.066 58.0825 32.8586C59.2899 31.6511 60.033 29.9792 60.033 28.1216C60.033 26.2639 59.2899 24.5921 58.0825 23.3846C56.875 22.1771 55.2031 21.4341 53.3455 21.4341C52.6024 21.4341 51.8594 21.6198 51.2092 21.8056C50.7448 21.9914 50.2804 22.1771 49.9088 22.4558C49.2587 22.8273 48.7942 23.2917 48.237 23.7561C47.6797 24.1276 47.0295 24.4063 46.3793 24.6849C45.4505 24.9636 44.5217 25.1494 43.5928 25.1494C42.2925 25.1494 41.085 24.8707 39.9704 24.3134C39.0416 23.849 38.2057 23.2917 37.5555 22.5487C37.184 22.1771 37.0911 21.8985 36.8124 21.5269C35.7907 20.2266 34.5833 19.112 33.0972 18.369Z" fill="url(#paint0_linear_540_1936)"/>
<path d="M39.2275 39.5481C41.5496 37.3189 45.172 37.3189 47.494 39.5481C49.7232 41.8701 49.7232 45.4925 47.494 47.8146C44.8933 50.4153 41.8282 52.3658 38.3916 53.8519C35.0478 55.1523 31.5183 55.8954 27.803 55.8954C20.1867 55.8954 13.2205 52.8302 8.20488 47.8146C3.18924 42.799 0.03125 35.8328 0.03125 28.1236C0.03125 20.5072 3.18924 13.5411 8.20488 8.52544L8.57641 8.15391C13.4992 3.32404 20.3724 0.351807 27.803 0.351807C31.5183 0.351807 35.0478 1.09486 38.3916 2.4881C41.8282 3.88133 44.8933 5.92474 47.494 8.52544C49.7232 10.7546 49.7232 14.4699 47.494 16.6991C45.172 19.0211 41.5496 19.0211 39.2275 16.6991C37.7414 15.213 35.9767 14.0055 34.0261 13.1695C32.0756 12.4265 30.0322 11.9621 27.803 11.9621C23.5304 11.9621 19.5365 13.7268 16.6572 16.4204L16.3785 16.6991C13.4992 19.6713 11.6415 23.6652 11.6415 28.1236C11.6415 32.5819 13.4992 36.6687 16.3785 39.5481C19.3507 42.5203 23.3447 44.2851 27.803 44.2851C30.0322 44.2851 32.0756 43.9136 34.0261 43.0776C35.9767 42.3346 37.7414 41.1271 39.2275 39.5481Z" fill="white"/>
<path d="M97.5571 36.7596C98.9504 35.3663 101.365 35.3663 102.759 36.7596C104.245 38.2457 104.245 40.5677 102.759 42.0538C100.994 43.9115 98.8575 45.3047 96.4426 46.2335C94.1205 47.2552 91.6127 47.7197 89.012 47.7197C83.7177 47.7197 78.7949 45.5834 75.3583 42.0538C71.8288 38.5243 69.5996 33.6944 69.5996 28.3073C69.5996 22.9201 71.8288 18.0902 75.3583 14.5607C78.7949 11.0312 83.7177 8.8949 89.012 8.8949C91.6127 8.8949 94.1205 9.35931 96.4426 10.381C98.8575 11.3098 100.994 12.7959 102.759 14.5607C104.245 16.0468 104.245 18.3689 102.759 19.855C101.365 21.3411 98.9504 21.3411 97.5571 19.855C96.3497 18.7404 95.0493 17.8116 93.6561 17.2543C92.2629 16.697 90.6839 16.3255 89.012 16.3255C85.7611 16.3255 82.7889 17.7187 80.5597 19.855C78.4234 21.9913 77.1231 25.0564 77.1231 28.3073C77.1231 31.651 78.4234 34.6233 80.5597 36.7596C82.7889 38.9887 85.7611 40.2891 89.012 40.2891C90.6839 40.2891 92.2629 40.0104 93.6561 39.3603C95.0493 38.803 96.3497 37.967 97.5571 36.7596ZM237.345 45.3047C236.509 47.1624 234.28 47.9983 232.422 47.0695C230.564 46.2335 229.729 44.0972 230.657 42.1467L244.775 11.4027C246.076 8.43049 250.255 8.52337 251.556 11.4027L265.674 42.1467C266.51 44.0972 265.674 46.2335 263.816 47.0695C261.959 47.9983 259.729 47.1624 258.894 45.3047L255.921 38.803H240.317L237.345 45.3047ZM252.485 31.3724L248.119 21.8055L243.754 31.3724H252.485ZM181.058 43.7257C181.058 45.7691 179.386 47.441 177.343 47.441C175.3 47.441 173.628 45.7691 173.628 43.7257V12.8888C173.628 10.8454 175.3 9.17354 177.343 9.17354C179.386 9.17354 181.058 10.8454 181.058 12.8888V43.7257ZM195.176 43.7257C195.176 48.6485 187.653 48.6485 187.653 43.7257V12.8888C187.653 8.98778 192.947 7.78031 194.712 11.217L207.158 31.4653L219.604 11.217C221.369 7.78031 226.663 8.98778 226.663 12.8888V43.7257C226.663 48.6485 219.14 48.6485 219.14 43.7257V26.0781L210.316 40.4748C208.923 42.8898 205.393 42.8898 204 40.4748L195.176 26.0781V43.7257ZM148.085 24.592H160.903C162.946 24.592 164.618 26.2639 164.618 28.3073C164.618 30.3507 162.946 32.0226 160.903 32.0226H148.085V43.8186C148.085 45.862 146.413 47.5339 144.277 47.5339C142.233 47.5339 140.562 45.862 140.562 43.8186V28.3073V12.8888C140.562 10.8454 142.233 9.17354 144.277 9.17354H164.711C166.754 9.17354 168.426 10.8454 168.426 12.8888C168.426 14.9322 166.754 16.6041 164.711 16.6041H148.085V24.592ZM132.852 40.0104C137.775 40.0104 137.775 47.5339 132.852 47.5339H112.511C110.468 47.5339 108.796 45.862 108.796 43.8186V28.3073V12.8888C108.796 10.8454 110.468 9.17354 112.511 9.17354H132.852C137.775 9.17354 137.775 16.6041 132.852 16.6041H116.226V24.592H129.044C131.181 24.592 132.852 26.2639 132.852 28.3073C132.852 30.3507 131.181 32.0226 129.044 32.0226H116.226V40.0104H132.852Z" fill="white"/>
<defs>
<linearGradient id="paint0_linear_540_1936" x1="60.0552" y1="28.1416" x2="16.8067" y2="28.1416" gradientUnits="userSpaceOnUse">
<stop stop-color="white"/>
<stop offset="1" stop-color="white"/>
</linearGradient>
</defs>
</svg>
