<svg width="61" height="56" viewBox="0 0 61 56" fill="none" xmlns="http://www.w3.org/2000/svg">
<path d="M33.6411 18.369C32.0621 17.533 30.2973 17.0686 28.4397 17.0686C25.3746 17.0686 22.5881 18.2761 20.5447 20.3195C18.5942 22.3629 17.3867 25.0565 17.3867 28.1216C17.3867 31.1867 18.5942 33.9732 20.5447 35.9237C22.5881 37.9671 25.3746 39.1746 28.4397 39.1746C30.2973 39.1746 32.0621 38.7102 33.6411 37.8742C35.1272 37.1312 36.3347 36.0166 37.3564 34.7162C37.635 34.3447 37.7279 34.066 38.0994 33.7874C38.7496 33.0443 39.5856 32.3942 40.5144 31.9298C41.629 31.3725 42.8364 31.0938 44.1368 31.0938C45.0656 31.0938 45.9944 31.2796 46.9233 31.6511C47.5734 31.8369 48.2236 32.2084 48.7809 32.5799C49.3382 32.9515 49.8026 33.4159 50.4528 33.7874C50.8243 34.066 51.2887 34.2518 51.7531 34.4376C52.4033 34.7162 53.1464 34.8091 53.8894 34.8091C55.7471 34.8091 57.4189 34.066 58.6264 32.8586C59.8339 31.6511 60.5769 29.9792 60.5769 28.1216C60.5769 26.2639 59.8339 24.5921 58.6264 23.3846C57.4189 22.1771 55.7471 21.4341 53.8894 21.4341C53.1464 21.4341 52.4033 21.6198 51.7531 21.8056C51.2887 21.9914 50.8243 22.1771 50.4528 22.4558C49.8026 22.8273 49.3382 23.2917 48.7809 23.7561C48.2236 24.1276 47.5734 24.4063 46.9233 24.6849C45.9944 24.9636 45.0656 25.1494 44.1368 25.1494C42.8364 25.1494 41.629 24.8707 40.5144 24.3134C39.5856 23.849 38.7496 23.2917 38.0994 22.5487C37.7279 22.1771 37.635 21.8985 37.3564 21.5269C36.3347 20.2266 35.1272 19.112 33.6411 18.369Z" fill="url(#paint0_linear_540_2153)"/>
<path d="M39.7715 39.5481C42.0935 37.3189 45.7159 37.3189 48.038 39.5481C50.2672 41.8701 50.2672 45.4925 48.038 47.8146C45.4373 50.4153 42.3722 52.3658 38.9355 53.8519C35.5918 55.1523 32.0623 55.8954 28.347 55.8954C20.7306 55.8954 13.7645 52.8302 8.74883 47.8146C3.73319 42.799 0.575195 35.8328 0.575195 28.1236C0.575195 20.5072 3.73319 13.5411 8.74883 8.52544L9.12036 8.15391C14.0431 3.32404 20.9164 0.351807 28.347 0.351807C32.0623 0.351807 35.5918 1.09486 38.9355 2.4881C42.3722 3.88133 45.4373 5.92474 48.038 8.52544C50.2672 10.7546 50.2672 14.4699 48.038 16.6991C45.7159 19.0211 42.0935 19.0211 39.7715 16.6991C38.2854 15.213 36.5206 14.0055 34.5701 13.1695C32.6196 12.4265 30.5761 11.9621 28.347 11.9621C24.0744 11.9621 20.0805 13.7268 17.2011 16.4204L16.9225 16.6991C14.0431 19.6713 12.1855 23.6652 12.1855 28.1236C12.1855 32.5819 14.0431 36.6687 16.9225 39.5481C19.8947 42.5203 23.8886 44.2851 28.347 44.2851C30.5761 44.2851 32.6196 43.9136 34.5701 43.0776C36.5206 42.3346 38.2854 41.1271 39.7715 39.5481Z" fill="white"/>
<defs>
<linearGradient id="paint0_linear_540_2153" x1="60.5991" y1="28.1416" x2="17.3507" y2="28.1416" gradientUnits="userSpaceOnUse">
<stop stop-color="white"/>
<stop offset="1" stop-color="white"/>
</linearGradient>
</defs>
</svg>
