<svg id="SvgjsSvg1037" xmlns="http://www.w3.org/2000/svg" viewBox="0 0 288 257.41"><defs><style>.cls-1{fill:none;}.cls-2{fill:#fff;}</style></defs><title>1</title><rect class="cls-1" width="288" height="257.41"/><path class="cls-2" d="M32.65,121.74c.57-4.14.94-8.32,1.74-12.42,7-35.69,26.39-62.37,58.55-79.46a107.84,107.84,0,0,1,54.44-12.45,109.64,109.64,0,0,1,47.34,12.2c.5.26,1,.59,1.62,1-5.35,5.32-10.56,10.56-15.87,15.7a2.62,2.62,0,0,1-2.26.13,91.75,91.75,0,0,0-23.67-6.16,85.81,85.81,0,0,0-47,7.23C81.21,59.67,64.43,80,57.37,108.06c-9.72,38.64,9,80.37,44.26,99,44.48,23.53,98,7.27,121.32-37.32,12.49-23.88,13.51-48.76,3.73-73.95-.81-2.08-.78-3.37.95-5,4.89-4.62,9.56-9.49,14.48-14.42.41.69.75,1.2,1,1.74,29.11,56,4.16,126.76-53.66,152.18a112.69,112.69,0,0,1-37.28,9.4,12.55,12.55,0,0,0-1.68.35H137a8.6,8.6,0,0,0-1.46-.35A101,101,0,0,1,103,232.14Q46.42,208.2,34.4,147.87c-.79-4-1.17-8.14-1.75-12.21Z" transform="translate(0 0)"/><path class="cls-2" d="M171.08,55.87c-6.25,6.07-4.37,14-4.8,21.65-17-6.75-33.58-6.16-49.55,2.57a54.12,54.12,0,0,0-23.4,25.2,55.78,55.78,0,0,0,77.83,72.16,54.63,54.63,0,0,0,25.61-30.89c4.54-13.44,3.85-26.77-1.66-40.12,7.63-.51,15.57,1.47,21.62-4.75,9.82,22.65,7.57,61.26-22.19,86.59a77.71,77.71,0,0,1-102.65-1.11C62,160.23,57,116.08,79.93,83.87,103.07,51.32,143.2,44.49,171.08,55.87Z" transform="translate(0 0)"/><path class="cls-2" d="M161.38,87.65c-.68.7-1.21,1.28-1.76,1.84-9.07,9.07-18.19,18.09-27.19,27.22s-5.61,24,6.36,27.81c6.68,2.12,12.56.42,17.51-4.53q13.37-13.36,26.73-26.75a18.14,18.14,0,0,0,1.64-2.35c7.15,14.9,5.06,37.8-12.28,52a44.49,44.49,0,0,1-65.69-58.41C118.33,86.42,141.85,79.07,161.38,87.65Z" transform="translate(0 0)"/><path class="cls-2" d="M221.93,50.77h14.13c1,0,2,0,3,0a5.46,5.46,0,0,1,4.09,8.57,12.66,12.66,0,0,1-1.57,1.79C231.18,71.63,220.7,82.06,210.3,92.55a8.37,8.37,0,0,1-6.56,2.7q-8.27-.18-16.52,0a5.11,5.11,0,0,0-3.16,1.33c-11.73,11.62-23.36,23.34-35.13,34.94a9.81,9.81,0,0,1-4.81,2.51c-2,.4-3.79-.82-4.83-2.67a5.24,5.24,0,0,1,.17-5.76,14.34,14.34,0,0,1,1.87-2.11q17.28-17.3,34.59-34.56a4.72,4.72,0,0,0,1.61-3.77c-.11-5.57,0-11.15-.06-16.73a7.36,7.36,0,0,1,2.28-5.63q16-15.93,32-32c2-2,4.13-3,6.83-1.86s3.44,3.42,3.4,6.19C221.88,40.26,221.93,45.32,221.93,50.77Z" transform="translate(0 0)"/></svg>