<?xml version="1.0" encoding="utf-8"?>
<!-- Generator: Adobe Illustrator 23.0.1, SVG Export Plug-In . SVG Version: 6.00 Build 0)  -->
<!DOCTYPE svg PUBLIC "-//W3C//DTD SVG 1.1//EN" "http://www.w3.org/Graphics/SVG/1.1/DTD/svg11.dtd" [
	<!ENTITY ns_extend "http://ns.adobe.com/Extensibility/1.0/">
	<!ENTITY ns_ai "http://ns.adobe.com/AdobeIllustrator/10.0/">
	<!ENTITY ns_graphs "http://ns.adobe.com/Graphs/1.0/">
	<!ENTITY ns_vars "http://ns.adobe.com/Variables/1.0/">
	<!ENTITY ns_imrep "http://ns.adobe.com/ImageReplacement/1.0/">
	<!ENTITY ns_sfw "http://ns.adobe.com/SaveForWeb/1.0/">
	<!ENTITY ns_custom "http://ns.adobe.com/GenericCustomNamespace/1.0/">
	<!ENTITY ns_adobe_xpath "http://ns.adobe.com/XPath/1.0/">
]>
<svg version="1.1" id="Layer_1" xmlns:x="&ns_extend;" xmlns:i="&ns_ai;" xmlns:graph="&ns_graphs;"
	 xmlns="http://www.w3.org/2000/svg" xmlns:xlink="http://www.w3.org/1999/xlink" x="0px" y="0px" viewBox="0 0 10592 1392.9"
	 style="enable-background:new 0 0 10592 1392.9;" xml:space="preserve">
<style type="text/css">
	.st0{fill:#2E3034;}
	.st1{fill:#1C4695;stroke:#FFFFFF;stroke-width:23.8153;stroke-miterlimit:10;}
	.st2{fill:#FFFFFF;}
	.st3{fill:none;}
	.st4{fill:#184397;}
</style>
<metadata>
	<sfw  xmlns="&ns_sfw;">
		<slices></slices>
		<sliceSourceBounds  bottomLeftOrigin="true" height="1281" width="10487.4" x="-3413.8" y="131.4"></sliceSourceBounds>
	</sfw>
</metadata>
<g>
	<path class="st0" d="M1172.5,148.6h146.3l-170.1,513.1H973L802.2,148.6h147l112,370.4L1172.5,148.6z"/>
	<path class="st0" d="M1677.2,262.9h-178.5v83.7h157.5V455h-157.5v92.4h178.5v114.3h-315.7V148.6h315.7V262.9z"/>
	<path class="st0" d="M1961.4,148.6c122.5,0,184.1,72.8,184.1,164.5c0,67-35,125.2-108.5,148.5l111.3,200.1H1995l-98-189.2h-14.7
		v189.2h-137.2V148.6H1961.4z M1950.2,268h-67.9v107h67.9c37.1,0,56-18.9,56-53.9C2006.2,289.1,1987.3,268,1950.2,268z"/>
	<path class="st0" d="M2394,666.8c-109.9,0-195.3-54.6-200.9-164.5h146.3c2.8,38.6,24.5,51.7,49.7,51.7c24.5,0,43.4-13.1,43.4-37.1
		c-0.7-82.2-240.1-43.7-238-222c0-100.4,80.5-154.3,184.8-154.3c113.4,0,187.6,57.5,192.5,159.4h-149.1c-1.4-32-20.3-46.6-45.5-46.6
		c-20.3-0.7-36.4,11.6-36.4,36.4c0,76.4,237.3,51.7,237.3,216.1C2578.1,596.2,2510.9,666.8,2394,666.8z"/>
	<path class="st0" d="M2641.8,148.6H2779v513.1h-137.2V148.6z"/>
	<path class="st0" d="M3086.3,143.5c123.9,0,212.1,74.2,236.6,190.7h-147.7c-17.5-38.6-50.4-59.7-91-59.7
		c-63,0-104.3,50.9-104.3,129.5c0,79.3,41.3,130.3,104.3,130.3c40.6,0,73.5-21.1,91-59.7h147.7c-24.5,116.4-112.7,190.7-236.6,190.7
		c-148.4,0-245.7-107.7-245.7-261.3C2840.6,251.2,2937.9,143.5,3086.3,143.5z"/>
	<path class="st0" d="M3692.5,455.7h-167.3v206H3388V148.6h137.2v192.9h167.3V148.6h137.2v513.1h-137.2V455.7z"/>
	<path class="st0" d="M4223.8,262.9h-178.5v83.7h157.5V455h-157.5v92.4h178.5v114.3h-315.7V148.6h315.7V262.9z"/>
	<path class="st0" d="M4508,148.6c122.5,0,184.1,72.8,184.1,164.5c0,67-35,125.2-108.5,148.5l111.3,200.1h-153.3l-98-189.2h-14.7
		v189.2h-137.2V148.6H4508z M4496.8,268h-67.9v107h67.9c37.1,0,56-18.9,56-53.9C4552.8,289.1,4533.9,268,4496.8,268z"/>
	<path class="st0" d="M4752.3,148.6h136.5v297.7c0,53.1,23.1,86.6,74.9,86.6s76.3-33.5,76.3-86.6V148.6h137.2v297.7
		c0,146.3-98,220.5-216.3,220.5c-119,0-208.6-74.2-208.6-220.5V148.6z"/>
	<path class="st0" d="M5709.9,148.6v513.1h-137.2L5390,374.9v286.7h-137.2V148.6H5390L5572.7,439V148.6H5709.9z"/>
	<path class="st0" d="M6251,317.4h-147.7c-15.4-26.9-43.4-42.2-81.2-42.2c-69.3,0-111.3,50.2-111.3,128.8
		c0,88.1,43.4,135.4,124.6,135.4c47.6,0,82.6-23.3,102.9-67.7h-137.9V369.1h256.2v138.3c-29.4,75-105.7,157.9-234.5,157.9
		c-151.2,0-250.6-107.7-250.6-261.3c0-152.8,98.7-260.5,249.9-260.5C6146,143.5,6231.4,210.5,6251,317.4z"/>
	<path class="st0" d="M6504.4,666.8c-109.9,0-195.3-54.6-200.9-164.5h146.3c2.8,38.6,24.5,51.7,49.7,51.7
		c24.5,0,43.4-13.1,43.4-37.1c-0.7-82.2-240.1-43.7-238-222c0-100.4,80.5-154.3,184.8-154.3c113.4,0,187.6,57.5,192.5,159.4h-149.1
		c-1.4-32-20.3-46.6-45.5-46.6c-20.3-0.7-36.4,11.6-36.4,36.4c0,76.4,237.3,51.7,237.3,216.1
		C6688.5,596.2,6621.3,666.8,6504.4,666.8z"/>
	<path class="st0" d="M6957.3,488.5h-67.9v173.2h-137.2V148.6h205.1c122.5,0,184.8,72,184.8,171
		C7142.1,409.1,7082.6,488.5,6957.3,488.5z M6944,374.9c41.3,0,58.1-21.8,58.1-55.3c0-34.2-16.8-56-58.1-56h-54.6v111.3H6944z"/>
	<path class="st0" d="M7434,666.8c-140,0-253.4-109.2-253.4-263.5c0-154.3,113.4-262.7,253.4-262.7c140.7,0,252.7,108.4,252.7,262.7
		C7686.7,557.6,7574,666.8,7434,666.8z M7434,534.3c70.7,0,113.4-51.7,113.4-131c0-80.8-42.7-131.7-113.4-131.7
		c-71.4,0-113.4,50.9-113.4,131.7C7320.6,482.6,7362.6,534.3,7434,534.3z"/>
	<path class="st0" d="M7885.5,148.6v403.9h153.3v109.2h-290.5V148.6H7885.5z"/>
	<path class="st0" d="M8092,148.6h137.2v513.1H8092V148.6z"/>
	<path class="st0" d="M8536.5,143.5c123.9,0,212.1,74.2,236.6,190.7h-147.7c-17.5-38.6-50.4-59.7-91-59.7
		c-63,0-104.3,50.9-104.3,129.5c0,79.3,41.3,130.3,104.3,130.3c40.6,0,73.5-21.1,91-59.7h147.7c-24.5,116.4-112.7,190.7-236.6,190.7
		c-148.4,0-245.7-107.7-245.7-261.3C8290.8,251.2,8388.1,143.5,8536.5,143.5z"/>
	<path class="st0" d="M9153.8,262.9h-178.5v83.7h157.5V455h-157.5v92.4h178.5v114.3h-315.7V148.6h315.7V262.9z"/>
	<path class="st0" d="M9678.8,148.6v513.1h-137.2l-182.7-286.7v286.7h-137.2V148.6h137.2L9541.6,439V148.6H9678.8z"/>
</g>
<g>
	<path class="st0" d="M619.5,1046c0,144.9-103.8,244.5-265.3,244.5H164.7V801.5h189.6C515.7,801.5,619.5,900.4,619.5,1046z
		 M346.4,1187.5c93,0,147.8-51.6,147.8-141.4s-54.8-142.8-147.8-142.8H288v284.3H346.4z"/>
	<path class="st0" d="M955.4,801.5h123.3v489.1H955.4V801.5z"/>
	<path class="st0" d="M1906.9,956.1h-136.2c-18.7-32.7-53.3-50.2-99.5-50.2c-79.3,0-131.9,54.3-131.9,139.3
		c0,90.6,53.3,143.5,142,143.5c61.3,0,103.8-31.4,122.5-86.4h-156.4v-87.8h268.1v110.8c-25.9,84.3-110.3,168.6-243.6,168.6
		c-151.4,0-258-102.4-258-248.7s106-249.4,257.3-249.4C1792.3,795.9,1880.2,855.8,1906.9,956.1z"/>
	<path class="st0" d="M2250.7,801.5H2374v489.1h-123.3V801.5z"/>
	<path class="st0" d="M2702.7,801.5h391.4v95.5H2960v393.6h-123.3V896.9h-134.1V801.5z"/>
	<path class="st0" d="M3737.7,1204.2h-188.9l-30.3,86.4h-129l183.1-489.1h142.7l183.1,489.1H3768L3737.7,1204.2z M3643.3,933.2
		l-62,179.1H3706L3643.3,933.2z"/>
	<path class="st0" d="M4343.9,801.5v397.1h161.5v92h-284.7V801.5H4343.9z"/>
	<path class="st0" d="M4831.2,801.5h123.3v489.1h-123.3V801.5z"/>
	<path class="st0" d="M5620.5,896.9h-186.7v98.9h165.1v92h-165.1v107.3h186.7v95.5h-309.9V801.5h309.9V896.9z"/>
	<path class="st0" d="M6150.3,1295.4c-108.8,0-193.9-52.3-197.5-151.2H6084c3.6,37.6,28.1,55.7,62.7,55.7c36,0,59.1-17.4,59.1-46
		c0-90.6-253-41.8-251.6-215.3c0-92.7,78.6-144.2,184.5-144.2c110.3,0,184.5,53,189.6,146.3H6195c-2.2-31.4-25.2-50.2-58.4-50.9
		c-29.6-0.7-51.9,13.9-51.9,44.6c0,85,250.1,46.7,250.1,210.4C6334.8,1227.2,6268.5,1295.4,6150.3,1295.4z"/>
	<path class="st0" d="M6677.2,801.5h123.3v489.1h-123.3V801.5z"/>
	<path class="st0" d="M7466.5,896.9h-186.7v98.9h165.1v92h-165.1v107.3h186.7v95.5h-309.9V801.5h309.9V896.9z"/>
	<path class="st0" d="M8020,801.5c124,0,186,69,186,154c0,61.3-34.6,119.1-112.4,141.4l116.8,193.7h-139.1L7966,1105.9h-29.6v184.6
		h-123.3V801.5H8020z M8012.8,900.4h-76.4v121.2h76.4c46.1,0,67.8-23,67.8-61.3C8080.6,924.1,8059,900.4,8012.8,900.4z"/>
	<path class="st0" d="M8859.8,896.9h-186.7v98.9h165.1v92h-165.1v107.3h186.7v95.5h-309.9V801.5h309.9V896.9z"/>
	<path class="st0" d="M9659.2,801.5v489.1h-123.3l-206.2-301.7v301.7h-123.3V801.5h123.3l206.2,303.1V801.5H9659.2z"/>
</g>
<g>
	<circle class="st1" cx="409.8" cy="396.2" r="369.8"/>
	<path class="st2" d="M636,477.6c-11.2-6.6-21.7-4.8-32.1,2c-34.8,22.8-69.7,45.4-104.5,68.2c-7.5,4.9-8.9,8-6.1,12.3
		c2.9,4.3,6.5,4.3,13.8-0.1c0.7-0.4,1.4-0.8,2.1-1.3c22.5-14.8,45-29.6,67.4-44.4c11.6-7.6,23-15.5,34.8-22.8
		c11.9-7.4,23.5-1.2,24.2,12.5c0.3,6.6-1.9,12-7.2,16c-3.9,2.9-7.9,5.8-12,8.5c-57.1,37-114.2,74.1-171.9,110.1
		c-12.7,8-25.4,9.6-39.5,4.2c-20.6-7.8-41.4-14.8-62.1-22.5c-19.9-7.4-39.5-15.5-61.5-10.8c-4.7,1-6.6-1.7-6.5-6.3
		c0.1-9.8,0.1-19.6,0-29.4c0-28.5-0.1-57.1,0-85.6c0-10.9,0.3-10.7,11.3-13.1c10.9-2.3,21.9-2.4,32.9-2.3
		c18.7,0.2,35.4,5.1,48.2,19.7c5.2,5.9,12,8.1,19.7,8c7.3-0.1,14.7,0,22,0c17.9,0,35.9,0,53.8,0c5.8,0,11.5,0.6,15.5,5.5
		c4.4,5.5,5.8,11.7,2.9,18.3c-2.9,6.7-8,9.9-15.4,9.9c-22.4-0.1-44.9,0-67.3,0c-4.1,0-8.2-0.3-12.2,0.4
		c-16.1,2.8-24.4,23.9-14.7,36.4c2.5,3.2,5.4,5.1,9.5,3.4c3.6-1.5,4.1-4.7,3.5-8.2c-0.1-0.8-0.4-1.6-0.5-2.4
		c-1.3-12.7,0.1-14.3,12.8-14.4c23.2-0.1,46.5,0.1,69.7,0c18.7-0.1,30.9-11.8,31.6-30c0.8-17.9-10.8-31.3-28.9-33.2
		c-3.2-0.3-6.5-0.1-9.8-0.1c-22.8,0-45.7,0-68.5,0c-4.5,0-8.7,0.3-12.3-3.8c-16-18.3-37.3-23.4-60.5-24c-11.9-0.3-23.6,0.8-35.2,3
		c-5.1,1-6.8-0.7-6.5-5.5c0.1-1.6,0.1-3.3-0.1-4.9c-0.6-8-2.4-10-10.3-10.4c-4.9-0.3-9.8,0.3-14.7,0.3c-28.1,0-56.3-0.1-84.4,0
		c-10.6,0-12.1,1.7-12.4,11.9c-0.1,4.1,0,8.2,0,12.2c0,53.8,0,107.7-0.1,161.5c0,3.3,1.7,7.3-1.8,10.2c-2-1.6-3.9-3.1-5.8-4.6
		c1,7.9,6.6,11.7,13.1,14.8c-0.9-6.3,3.9-3.8,6.4-3.8c32.2-0.2,64.4-0.1,96.6-0.2c10.7-0.1,11.8-0.9,13-11.5c0.5-4.7,2.3-6,6.6-6.6
		c13.5-2,26.5-1.7,39.6,3.3c25.9,9.9,52.1,18.9,78.2,28.3c19.4,7,37.4,4.2,54.7-7c50-32.3,100.2-64.3,150.2-96.5
		c11-7.1,22.1-14,32.3-22C655.6,516.9,654.3,488.4,636,477.6z M261.1,618.1c0,9.7-0.2,9.7-9.3,9.8c-24,0.1-48.1,0.1-72.1,0.1
		c-3.7,0-6.2-0.1-7.8-0.7c-3.6-0.9-3.9-3.4-3.9-10.7c0.1-31.4,0.4-62.7,0.5-94.1c0-18.7-0.2-37.5-0.4-56.2
		c-0.1-11.2,0.4-11.9,11.4-11.9c23.2,0,46.5,0,69.7,0.1c4.1,0,6.7,0,8.3,0.7c3.4,0.9,3.5,3.4,3.5,11.3c0.1,24.9,0,49.8,0,74.6
		c0,0,0,0,0.1,0C261.2,566.7,261.2,592.4,261.1,618.1z"/>
	<g>
		<g>
			<path class="st3" d="M383.1,244.3C383.1,244.3,383.1,244.3,383.1,244.3c12.5-5.6,12.5-5.6,10.9-16.3c-6.9,3.7-11.2,9.3-14.9,15.7
				C380.5,243.9,381.8,244.1,383.1,244.3C383.1,244.3,383.1,244.3,383.1,244.3z"/>
			<path class="st3" d="M382.7,307.3c-6-4.5-9-10.5-8.5-18.2c0.1-1.7,0-3.5-0.2-5.2c-0.4-3.2-2.6-4.5-5.5-4.3
				c-3.1,0.2-2.8,2.9-2.9,5c-1,20,4.7,37.8,18.8,53.1c0.8-5.3,0.7-10.5,2.7-15.4C389.6,316.1,388,311.2,382.7,307.3z"/>
			<path class="st3" d="M424.5,262.2c8.7-0.6,17.2-1,25.7,2c3.2,1.1,6.8,1,10.3,1.1c2,0.1,4.8,0.6,5.2-2.2c0.6-3.5-2.5-4.3-4.9-4.7
				c-3.4-0.6-6.9-0.6-10.3-0.8c-5.2-0.3-10.4-0.5-15.5-0.7C432.6,261,426.6,257.8,424.5,262.2z"/>
			<path class="st3" d="M519.5,269.1c-2.7,6.3,0.9,13.4-6.3,14.9c-6.2,1.3-7-5.7-11.3-8.2c-3.5,4.7-4.3,11.9-11.6,12.9
				c-0.3,0-0.6,0.3-0.9,0.8c-0.3,0.5-0.1,1.1,0.7,1.8l0,0c0.9,0.7,1.9,1.4,2.9,1.9c5.6,6.1,0.3,10.6-2.6,15.1
				c-3.6,5.5-8,10.5-7.9,17.6c0.1,8.7-4.7,14.8-10.8,20.1c-12.4,10.8-22.9,7.3-26.4-9c-1.1-5.1-0.9-10.4-2.5-15.5
				c-3.2-10.6-3-10.4-14.1-12.2c-9-1.4-17.1-4.9-20-14.6c-2.9-9.6-0.6-18.3,6.5-25.4c2.7-2.7,6.2-4.7,9.4-7.1
				c2.1-4.5,8.2-1.2,10.4-5.4c-2.1-2.9-4.7-6.9-2.1-9.6c7.4-7.5,7.8-22.3,22.9-21.8c5.1,0.2,3-4.3,3.2-6.9c0.2-2.7,2.7-6-1.4-8.1
				c-5.9-3-14.3-0.5-16.6,5.7c-1.5,4.1-4.2,6.6-7.9,8.3c-3.6,1.6-7.4,2.7-9.8,6.2c-1.8,2.6-4,5.4-7.3,2.2c-3.4-3.3-1.1-6.5,1.3-9.1
				c2.7-2.9,6.2-4.8,9.9-6.4c2.3-1,5.2-1.7,4.5-5.8c-7.2-1.4-13.3,2.3-19.7,4.6c-6.5,2.3-10.1,5.7-8.1,13.6
				c2.1,8.7-1.2,15.7-9.8,19.1c-10.3,4.1-15,15.2-26.9,18.4c14.3,7.8,14.4,7.8,15.8,22.7c0.4,4.8,2.5,8.3,6.1,11.1
				c7.6,6.1,11,13.3,6.8,23c-3,7,1.5,14.9-2.3,21.9c-0.4,0.7,0.7,2.4,1.5,3.3c5.8,7.4,16.6,10.3,25.4,7c12.3-4.6,24.2-5.2,34.2,4.7
				c4.2,4.2,8.2,3.9,13.1,2.2c29.4-10.1,47.7-30.3,53.9-60.8C523.5,292.2,524,281.5,519.5,269.1z"/>
			<path class="st3" d="M446.9,248.5c6.4,1.2,13.2-0.5,19.4,2.1c6.9,2.9,10.5,9.2,8.9,15.6c-1.7,7-7.3,8.5-13.2,8.2
				c-6.1-0.3-12.2-1.5-18.1-2.9c-4.3-1-8.6-1.8-13-1.2c-8.7,1.3-14.8,8.8-14.7,17.5c0.2,7.8,4.7,11.6,15.3,12.5
				c2.2,0.2,4.4,0,6.5,0.3c6.3,1,10.4,4.6,11.7,10.8c1.3,6,2.4,12,3.2,18c0.7,5.1,0,12.3,6,13.1c5.6,0.7,9.5-5.2,12.6-10.1
				c0.7-1.1,1.4-2.4,1.4-3.7c-0.2-11.1,5.6-19.8,11.6-28.5c-2.5-2.1-4.8-3.5-6.5-5.4c-4.8-5.2-6.3-14.1-3-18
				c4.8-5.8,9.4,0.4,14.8,0.3c-0.9-4.1-8.1-6.8-3.2-12c4.3-4.6,9.4-3.8,14.5-1.7c0.8,0.3,1.7,0.6,2.4,1.1c4.6,4.2,6.7-0.5,9.8-2.5
				c4-2.6,3.2-5.4,1.4-8.9c-8.4-16.7-21-29-37.9-36.7c-6.7-3.1-7.8-2.2-8.2,5.7c-0.6,9.9-1.5,11-9.6,12.6
				C449.1,236.6,449.1,236.6,446.9,248.5z"/>
			<path class="st2" d="M444.6,200.7c-48.6-0.3-88.2,38.7-88.3,87.2c-0.1,48.4,39.3,87.7,87.9,87.7c48.6-0.1,87.9-39.5,87.7-87.9
				C531.6,239.8,492.7,201,444.6,200.7z M468.6,222.2c0.5-7.9,1.5-8.8,8.2-5.7c16.9,7.8,29.5,20.1,37.9,36.7
				c1.8,3.5,2.6,6.3-1.4,8.9c-3.1,2-5.1,6.7-9.8,2.5c-0.6-0.6-1.5-0.8-2.4-1.1c-5.2-2.1-10.2-2.9-14.5,1.7c-4.9,5.2,2.3,7.9,3.2,12
				c-5.3,0.1-10-6-14.8-0.3c-3.3,3.9-1.8,12.8,3,18c1.8,1.9,4,3.3,6.5,5.4c-6,8.7-11.8,17.5-11.6,28.5c0,1.2-0.7,2.6-1.4,3.7
				c-3.1,4.8-7,10.8-12.6,10.1c-6-0.8-5.3-8-6-13.1c-0.9-6-2-12-3.2-18c-1.3-6.2-5.4-9.9-11.7-10.8c-2.1-0.3-4.3-0.2-6.5-0.3
				c-10.6-0.9-15.2-4.6-15.3-12.5c-0.2-8.7,5.9-16.1,14.7-17.5c4.4-0.7,8.6,0.1,13,1.2c5.9,1.4,12,2.6,18.1,2.9
				c5.9,0.3,11.5-1.2,13.2-8.2c1.6-6.5-2-12.7-8.9-15.6c-6.3-2.7-13-0.9-19.4-2.1c2.2-11.9,2.2-11.9,12.1-13.7
				C467.1,233.2,468,232.1,468.6,222.2z M379.1,243.6L379.1,243.6c3.6-6.4,8-12,14.9-15.7c1.7,10.7,1.7,10.7-10.9,16.3c0,0,0,0,0,0
				c-1.1,1.9-2.9,4-4.9,3.1C376.3,246.6,377.3,244.6,379.1,243.6z M387.2,322.2c-2,4.9-1.9,10.1-2.7,15.4
				c-14.2-15.2-19.8-33.1-18.8-53.1c0.1-2-0.2-4.8,2.9-5c2.9-0.2,5.1,1.1,5.5,4.3c0.2,1.7,0.3,3.5,0.2,5.2
				c-0.5,7.6,2.5,13.7,8.5,18.2C388,311.2,389.6,316.1,387.2,322.2z M467.5,363.4c-4.9,1.7-8.8,2-13.1-2.2c-10-9.9-22-9.3-34.2-4.7
				c-8.8,3.3-19.6,0.4-25.4-7c-0.7-1-1.8-2.6-1.5-3.3c3.8-7-0.7-15,2.3-21.9c4.1-9.7,0.8-16.9-6.8-23c-3.6-2.8-5.6-6.3-6.1-11.1
				c-1.3-14.9-1.5-14.9-15.8-22.7c11.9-3.3,16.6-14.4,26.9-18.4c8.6-3.4,12-10.5,9.8-19.1c-1.9-7.9,1.6-11.3,8.1-13.6
				c6.4-2.3,12.5-5.9,19.7-4.6c0.7,4.1-2.2,4.8-4.5,5.8c-3.6,1.6-7.2,3.4-9.9,6.4c-2.5,2.7-4.7,5.8-1.3,9.1c3.3,3.2,5.5,0.4,7.3-2.2
				c2.4-3.5,6.2-4.6,9.8-6.2c3.7-1.7,6.3-4.1,7.9-8.3c2.3-6.2,10.6-8.7,16.6-5.7c4.1,2.1,1.6,5.3,1.4,8.1c-0.2,2.6,1.8,7.1-3.2,6.9
				c-15.1-0.5-15.5,14.3-22.9,21.8c-2.6,2.6,0,6.6,2.1,9.6c5.2,0.2,10.4,0.5,15.5,0.7c3.4,0.2,6.9,0.2,10.3,0.8
				c2.5,0.4,5.5,1.2,4.9,4.7c-0.5,2.8-3.2,2.3-5.2,2.2c-3.5-0.1-7.1,0-10.3-1.1c-8.5-3-17-2.6-25.7-2c-3.2,2.3-6.7,4.3-9.4,7.1
				c-7.1,7.1-9.4,15.8-6.5,25.4c2.9,9.7,11,13.2,20,14.6c11.1,1.8,10.9,1.6,14.1,12.2c1.6,5.1,1.4,10.4,2.5,15.5
				c3.5,16.3,14,19.8,26.4,9c6.1-5.3,10.9-11.4,10.8-20.1c-0.1-7.1,4.3-12.1,7.9-17.6c2.9-4.5,8.2-9,2.6-15.1c-1-0.6-2-1.2-2.9-1.9
				l0,0c-0.8-0.6-1-1.2-0.7-1.8c0.3-0.5,0.6-0.8,0.9-0.8c7.3-1,8.1-8.3,11.6-12.9c4.3,2.6,5.1,9.5,11.3,8.2
				c7.1-1.5,3.6-8.7,6.3-14.9c4.6,12.4,4,23.2,1.9,33.5C515.2,333,496.9,353.2,467.5,363.4z"/>
		</g>
		<g>
			<path class="st2" d="M434.7,388.6c0-2.6-2.1-3.8-4.4-4c-3.6-0.4-4.3,2.2-4.4,5c-0.1,6.1,0,12.3-0.1,18.4
				c-0.2,9.4-0.3,9.6-9.5,9.7c-28.5,0.1-56.9,0-85.4,0.1c-3.9,0-7.2-0.5-10.6-3.6c-7.1-6.5-13-6.8-18.7-2.6
				c-5.2,3.9-8.3,15.5-5.6,21.7c0.4,1,1.7,2.4,2.6,2.4c6.5,0.4,14.2,2.9,18.8-2.5c5.9-7,13-6,20.3-6.1c13.1-0.1,26.3,0,39.4,0
				c4.4,0,8.8,0,13.1,0c11.8,0,23.6,0,35.5-0.1c4,0,8.6-0.3,8.8-5.6C434.9,410.5,434.8,399.5,434.7,388.6z M309.3,426.9
				c-2.8-0.5-4.3-2.7-3.8-5.6c0.4-2.3,2.2-3.9,4.4-3.8c2.8,0.1,4.5,1.9,4.5,5C313.9,425.3,312.3,427.4,309.3,426.9z"/>
		</g>
		<g>
			<path class="st2" d="M589.6,414.8c-4.1-5.7-11.4-7.7-17.4-4.6c-1.9,1-3.7,2.5-5,4.2c-2.1,2.9-5,3.2-8.1,3.2
				c-29.8,0-59.6-0.1-89.4,0.1c-6.1,0-7.4-2.9-7.3-8.1c0.2-6.6,0.1-13.2,0-19.7c0-2.7-0.4-5.5-4.1-5.3c-3,0.1-4.8,1.8-4.8,5
				c0,5.3,0,10.5,0,15.8c0,0-0.1,0-0.1,0c0,2.2,0,4.4,0,6.6c0.1,15,0.1,15.1,15.4,15.1c26.3,0,52.6,0,78.9,0c8.6,0,17-1.1,24.1,6.7
				c4.3,4.7,11.7,2.7,16.4-2.3C593.1,426.3,593.6,420.4,589.6,414.8z M578,426.9c-2.7-0.2-4.4-2.4-4.2-5.3c0.2-2.3,1.8-3.9,4.1-4
				c2.9-0.1,4.6,1.6,4.8,4.5C582.5,425.2,580.8,427.1,578,426.9z"/>
		</g>
		<g>
			<path class="st2" d="M341.6,297.3c-7.4-0.1-14.9,0.1-22.3-0.1c-6.8-0.2-9.3,3.1-9.2,9.6c0.2,10.9,0,21.9,0.1,32.8
				c0.1,4.9-0.2,9.3-4.8,12.7c-4,3-5.7,7.8-4.2,13c1.6,5.4,5.2,9.1,11,10c5.7,0.9,10.4-1,13.6-5.8c3.2-4.8,3.2-9.9,0-14.7
				c-2.5-3.8-7.3-5.9-6.9-11.9c0.6-9.6,0.4-19.3,0.1-28.9c-0.2-5.9,2.4-7.6,7.8-7.4c5.7,0.2,11.4,0,17.1-0.1c2.6-0.1,4-1.4,3.8-3.6
				C347.7,298.3,345,297.3,341.6,297.3z M319.3,362.5c-0.2,3-2,4.7-5.1,4.5c-3.2-0.2-3.9-2.7-4.8-4.4c0.9-3.7,2.5-5.6,5.5-5.3
				C317.9,357.5,319.5,359.5,319.3,362.5z"/>
		</g>
		<g>
			<path class="st2" d="M583,352.9c-4.3-4.3-5.2-8.6-5-14c0.1-4.8,0-9.6,0-14.4c0,0,0,0-0.1,0c0-6.6,0-13.1,0-19.7
				c0-4-1.7-7.1-5.9-7.2c-9.2-0.3-18.4-0.2-27.5,0.1c-3.2,0.1-4.2,2.7-4,5.6c0.2,2.8,2.3,3.4,4.6,3.4c5.7,0.1,11.4,0.2,17.1,0
				c4.9-0.2,7.2,1.7,7,6.8c-0.2,8.7-0.1,17.5,0,26.3c0.1,4.9-0.7,8.8-4.6,12.8c-6.5,6.5-5.9,14.3-0.1,19.6c5,4.6,12.8,4.7,18,0.3
				C588.6,367.1,589.5,359.4,583,352.9z M574,367c-3.1,0.3-4.8-1.6-5.1-4.5c-0.2-3,1.4-4.8,4.5-5.2c3,0.1,4.9,1.7,5.1,4.6
				C578.7,364.8,576.9,366.7,574,367z"/>
		</g>
		<g>
			<path class="st2" d="M587.8,144.5c-5.3-5.5-12.6-6.3-18.5-0.1c-4.4,4.7-8.8,4.9-14.1,4.9c-14.4,0-28.9,0-43.3,0c0,0,0,0,0,0
				c-16.2,0-32.4,0-48.6,0c-4.5,0-9.5,0-9.7,6.1c-0.4,10.5-0.2,21-0.1,31.5c0,3.2,2,4.6,5.1,4.5c2.8-0.1,3.6-2,3.7-4.3
				c0.1-5.3,0.1-10.5,0.1-15.8c0.1-12.5,0.1-12.6,11.9-12.6c26.7-0.1,53.4,0,80.1-0.1c5.8,0,10.6,0.5,15.3,5.3
				c5.7,5.8,13.5,4.7,18.6-0.8C593.8,157.3,593.6,150.4,587.8,144.5z M578.1,158.8c-2.8-0.6-4.6-2.3-4.3-5.3c0.2-2.3,1.6-4,3.9-4.2
				c3-0.3,4.8,1.5,5,4.4C582.9,156.8,580.8,158.1,578.1,158.8z"/>
			<path class="st2" d="M575.4,200.9c-5.7-0.6-10.4,1.4-13.4,6.4c-3,5-2.6,10,0.7,14.7c2.4,3.4,6.8,5.2,6.5,10.6
				c-0.5,8.7-0.3,17.5-0.1,26.2c0.1,4.5-1.9,6.3-6.3,6.2c-6.1-0.1-12.2,0-18.3,0.1c-2.3,0-4.5,0.4-4.7,3.2c-0.1,2.8,0.9,5.4,4.1,5.6
				c4.8,0.3,9.6,0.1,14.4,0.1c0,0.1,0,0.2,0,0.3c3.1,0,6.1,0.1,9.2,0c9.6-0.4,10.3-1,10.5-10.7c0.2-8.7,0.1-17.5,0-26.2
				c-0.1-5.4,0.2-10.1,5.1-13.9c4-3.1,5.4-7.9,3.6-13C584.8,205,581.2,201.5,575.4,200.9z M573.4,218.9c-2.9-0.3-4.6-2.1-4.4-5.1
				c0.2-3,2.1-4.6,5.1-4.3c2.9,0.2,4.5,2,4.6,4.8C578,217.4,576.3,219.2,573.4,218.9z"/>
			<path class="st2" d="M537.3,172.7c-5.2-5.7-13.1-7.1-18.4-1c-5.3,6-11.2,5.7-17.6,5.7c-4.4,0-8.7,0-13.1,0.1
				c-2.3,0-4.7,0.3-5.7,2.5c-2.1,5-1.3,10.3-0.8,15.5c0.3,3.7,3.5,4.6,8.1,5.6c0.2-3.9,0.4-6.9,0.4-9.9c0.1-3.1,1.4-5.2,4.6-4.9
				c8.3,0.7,16.9-2.8,24.2,5.6c5.2,6,13.5,4.5,18.5-1.2C542,185.5,541.9,177.8,537.3,172.7z M532,182.5c-0.3,2.4-2,3.7-4.4,3.7
				c-3.1,0.1-5-1.8-5.1-4.6c0-3,2.4-4.2,4.7-4.5C530.7,177.8,532.5,179.3,532,182.5z"/>
		</g>
		<g>
			<path class="st2" d="M434.9,163.8c-0.1-14.5-0.1-14.5-14.7-14.5c-25.9,0-51.7,0-77.6,0c-9.4,0-19.1,2-26.5-7
				c-2.7-3.3-17.2-3.1-18.8-0.7c-3,4.7-2.1,10.3-0.9,15.2c2.6,10.7,13.8,14,22.7,6.9c3.1-2.5,5.5-5.1,10.1-5.1
				c29.8,0.2,59.6,0.2,89.4,0c6,0,7.5,2.8,7.4,8.1c-0.2,6.6,0,13.1,0,19.7c0,2.9,0.9,5.2,4.4,5c3.3-0.2,4.4-2.3,4.4-5.3
				c0-4.8,0-9.6,0-14.5c0,0,0,0,0.1,0C434.9,169.1,434.9,166.4,434.9,163.8z M310,158.8c-2.7-0.7-4.7-2.2-4.5-5.3
				c0.3-2.9,2.1-4.6,5.1-4.2c2.4,0.3,3.7,2,3.8,4.3C314.6,156.7,312.8,158.3,310,158.8z"/>
			<path class="st2" d="M343.8,265.1c-1.3,0-2.6,0-3.9-0.1c-6.4-0.5-14.5,2.8-18.9-1.6c-4.9-4.9-1.7-13.3-1.7-20.1
				c0-7-2-14.2,5.1-20.4c6.1-5.3,4.8-13.5-0.6-18.5c-5.3-4.9-13.9-4.7-19,0.4c-5.3,5.4-6,12.6,0.2,18.5c4.9,4.7,5.3,9.6,5.2,15.3
				c-0.1,5.2-0.1,10.5,0,15.7c0.2,20.4-2.9,20.2,19.5,19.8c4.8,0,9.6,0.2,14.4-0.1c3.2-0.2,4.3-2.7,4.2-5.5
				C348.3,265.5,346.1,265.1,343.8,265.1z M314.7,218.7c-3-0.3-5-1.9-4.8-4.9c0.2-3,2.3-4.5,5.3-4.2c2.4,0.2,3.9,1.7,4,4.1
				C319.3,216.8,317.7,218.4,314.7,218.7z"/>
			<path class="st2" d="M395.5,177.4c-1.3-0.1-2.6,0-3.9,0c-8.5-0.1-17.3,1.7-23.7-6.9c-2.6-3.4-7.8-3.3-12.2-1.2
				c-7.2,3.4-10.4,11.8-6.9,18.7c3.7,7.3,13,9.4,20.2,4.6c3.1-2.1,4.5-6.7,9.3-6.4c6,0.4,12.7-1.9,18,1.2c4.4,2.6,0.1,9.2,3.2,13.3
				c7-3.4,9.1-8.6,7.4-17.6C405.4,175.9,399.9,177.8,395.5,177.4z M361.3,186.3c-3.8-0.4-5.5-2-5.2-5.1c0.2-2.4,1.9-3.8,4.2-3.9
				c3-0.2,5.1,1.4,5.2,4.3C365.6,184.5,363.4,186,361.3,186.3z"/>
		</g>
		<g>
			<path class="st2" d="M399.2,375.9c-1.6,2.8-1,5.9-1.2,8.9c-0.1,2.3-0.5,5.1-3,5c-8.2-0.4-17.4,4.1-24.3-4.4
				c-3.2-4-7.9-5.6-13-4.1c-5.4,1.6-9.1,5-10.1,10.8c-0.9,5.7,0.9,10.5,5.7,13.6c5.3,3.3,11.6,3.8,15.6-0.8
				c5.1-5.9,10.9-6.1,17.5-5.8c3.5,0.2,7,0,10.4,0c4.4,0,8.8,0.3,9.8-5.9C408.3,384.1,406.5,379.2,399.2,375.9z M361,399.2
				c-3,0.2-4.9-1.4-5-4.4c-0.1-3,1.7-4.8,4.6-5.1c3-0.3,4.4,1.9,5.3,3.9C365.5,397.2,364,399,361,399.2z"/>
		</g>
		<g>
			<path class="st2" d="M540.4,391.5c-1.2-5.7-5-9.1-10.5-10.4c-5.1-1.2-9.7,0.7-12.8,4.7c-3.1,4.1-7,4.4-11.5,4.5
				c-14.7,0.3-14.7,0.4-16.6-14.9c-7.1,4-9.5,10.4-7.6,18.4c1.6,6.9,7.1,5,11.6,5.2c9.6,0.6,19.6-2.2,27.7,6.9
				c3.4,3.9,9.8,2.8,14.5-0.6C540.1,401.9,541.6,397.2,540.4,391.5z M527.7,399.3c-3,0-5-1.6-5.3-4.4c-0.3-3,1.7-4.8,4.5-5.1
				c2.9-0.3,4.9,1.4,5.2,4.4C532.5,397.3,530.7,398.8,527.7,399.3z"/>
		</g>
	</g>
</g>
<g>
	<path class="st4" d="M10458.9,809.2h-562.1c-27.6,0-49.9-22.4-49.9-49.9v0c0-27.6,22.4-49.9,49.9-49.9h562.1
		c27.6,0,49.9,22.4,49.9,49.9v0C10508.9,786.9,10486.5,809.2,10458.9,809.2z"/>
	<g>
		<path class="st4" d="M10428.4,806.4l-264.9-254.2c-15.9-15.3-17.6-41.9-3.7-59.4l18-22.7c13.9-17.5,38-19.4,53.9-4.1l264.9,254.2
			c15.9,15.3,17.6,41.9,3.7,59.4l-18,22.7C10468.5,819.8,10444.3,821.7,10428.4,806.4z"/>
		<path class="st4" d="M10500.7,798.3l-277.7,237c-16.7,14.2-40.7,10.9-53.6-7.5l-16.8-23.8c-12.9-18.4-9.9-44.8,6.8-59.1l277.7-237
			c16.7-14.2,40.7-10.9,53.6,7.5l16.8,23.8C10520.5,757.7,10517.4,784.1,10500.7,798.3z"/>
	</g>
</g>
</svg>
