<?xml version="1.0" encoding="utf-8"?>
<!-- Generator: Adobe Illustrator 23.0.1, SVG Export Plug-In . SVG Version: 6.00 Build 0)  -->
<!DOCTYPE svg PUBLIC "-//W3C//DTD SVG 1.1//EN" "http://www.w3.org/Graphics/SVG/1.1/DTD/svg11.dtd" [
	<!ENTITY ns_extend "http://ns.adobe.com/Extensibility/1.0/">
	<!ENTITY ns_ai "http://ns.adobe.com/AdobeIllustrator/10.0/">
	<!ENTITY ns_graphs "http://ns.adobe.com/Graphs/1.0/">
	<!ENTITY ns_vars "http://ns.adobe.com/Variables/1.0/">
	<!ENTITY ns_imrep "http://ns.adobe.com/ImageReplacement/1.0/">
	<!ENTITY ns_sfw "http://ns.adobe.com/SaveForWeb/1.0/">
	<!ENTITY ns_custom "http://ns.adobe.com/GenericCustomNamespace/1.0/">
	<!ENTITY ns_adobe_xpath "http://ns.adobe.com/XPath/1.0/">
]>
<svg version="1.1" id="Layer_1" xmlns:x="&ns_extend;" xmlns:i="&ns_ai;" xmlns:graph="&ns_graphs;"
	 xmlns="http://www.w3.org/2000/svg" xmlns:xlink="http://www.w3.org/1999/xlink" x="0px" y="0px" viewBox="0 0 10594.8 1226.4"
	 style="enable-background:new 0 0 10594.8 1226.4;" xml:space="preserve">
<style type="text/css">
	.st0{fill:#2E3034;}
	.st1{fill:#1C4695;stroke:#FFFFFF;stroke-width:21.0116;stroke-miterlimit:10;}
	.st2{fill:#FFFFFF;}
	.st3{fill:none;}
	.st4{fill:#184397;}
</style>
<metadata>
	<sfw  xmlns="&ns_sfw;">
		<slices></slices>
		<sliceSourceBounds  bottomLeftOrigin="true" height="1198.1" width="10471.6" x="-3328.8" y="131.4"></sliceSourceBounds>
	</sfw>
</metadata>
<g>
	<path class="st0" d="M1073.7,54.8H1220l-170.1,513.1H874.2L703.4,54.8h147l112,370.4L1073.7,54.8z"/>
	<path class="st0" d="M1578.4,169h-178.5v83.7h157.5v108.4h-157.5v92.4h178.5v114.3h-315.7V54.8h315.7V169z"/>
	<path class="st0" d="M1862.6,54.8c122.5,0,184.1,72.8,184.1,164.5c0,67-35,125.2-108.5,148.5l111.3,200.1h-153.3l-98-189.2h-14.7
		v189.2h-137.2V54.8H1862.6z M1851.4,174.1h-67.9v107h67.9c37.1,0,56-18.9,56-53.9C1907.4,195.2,1888.5,174.1,1851.4,174.1z"/>
	<path class="st0" d="M2295.2,573c-109.9,0-195.3-54.6-200.9-164.5h146.3c2.8,38.6,24.5,51.7,49.7,51.7c24.5,0,43.4-13.1,43.4-37.1
		c-0.7-82.2-240.1-43.7-238-222c0-100.4,80.5-154.3,184.8-154.3c113.4,0,187.6,57.5,192.5,159.4h-149.1c-1.4-32-20.3-46.6-45.5-46.6
		c-20.3-0.7-36.4,11.6-36.4,36.4c0,76.4,237.3,51.7,237.3,216.1C2479.3,502.4,2412.1,573,2295.2,573z"/>
	<path class="st0" d="M2543,54.8h137.2v513.1H2543V54.8z"/>
	<path class="st0" d="M2987.5,49.7c123.9,0,212.1,74.2,236.6,190.7h-147.7c-17.5-38.6-50.4-59.7-91-59.7
		c-63,0-104.3,50.9-104.3,129.5c0,79.3,41.3,130.3,104.3,130.3c40.6,0,73.5-21.1,91-59.7h147.7c-24.5,116.4-112.7,190.7-236.6,190.7
		c-148.4,0-245.7-107.7-245.7-261.3C2741.8,157.4,2839.1,49.7,2987.5,49.7z"/>
	<path class="st0" d="M3593.7,361.9h-167.3v206h-137.2V54.8h137.2v192.9h167.3V54.8h137.2v513.1h-137.2V361.9z"/>
	<path class="st0" d="M4125,169h-178.5v83.7H4104v108.4h-157.5v92.4H4125v114.3h-315.7V54.8H4125V169z"/>
	<path class="st0" d="M4409.2,54.8c122.5,0,184.1,72.8,184.1,164.5c0,67-35,125.2-108.5,148.5l111.3,200.1h-153.3l-98-189.2h-14.7
		v189.2h-137.2V54.8H4409.2z M4398,174.1h-67.9v107h67.9c37.1,0,56-18.9,56-53.9C4454,195.2,4435.1,174.1,4398,174.1z"/>
	<path class="st0" d="M4653.5,54.8H4790v297.7c0,53.1,23.1,86.6,74.9,86.6s76.3-33.5,76.3-86.6V54.8h137.2v297.7
		c0,146.3-98,220.5-216.3,220.5c-119,0-208.6-74.2-208.6-220.5V54.8z"/>
	<path class="st0" d="M5611.1,54.8v513.1h-137.2l-182.7-286.7v286.7H5154V54.8h137.2l182.7,290.4V54.8H5611.1z"/>
	<path class="st0" d="M6152.2,223.6h-147.7c-15.4-26.9-43.4-42.2-81.2-42.2c-69.3,0-111.3,50.2-111.3,128.8
		c0,88.1,43.4,135.4,124.6,135.4c47.6,0,82.6-23.3,102.9-67.7h-137.9V275.3h256.2v138.3c-29.4,75-105.7,157.9-234.5,157.9
		c-151.2,0-250.6-107.7-250.6-261.3c0-152.8,98.7-260.5,249.9-260.5C6047.2,49.7,6132.6,116.6,6152.2,223.6z"/>
	<path class="st0" d="M6405.6,573c-109.9,0-195.3-54.6-200.9-164.5H6351c2.8,38.6,24.5,51.7,49.7,51.7c24.5,0,43.4-13.1,43.4-37.1
		c-0.7-82.2-240.1-43.7-238-222c0-100.4,80.5-154.3,184.8-154.3c113.4,0,187.6,57.5,192.5,159.4h-149.1c-1.4-32-20.3-46.6-45.5-46.6
		c-20.3-0.7-36.4,11.6-36.4,36.4c0,76.4,237.3,51.7,237.3,216.1C6589.7,502.4,6522.5,573,6405.6,573z"/>
	<path class="st0" d="M6858.4,394.6h-67.9v173.2h-137.2V54.8h205.1c122.5,0,184.8,72,184.8,171
		C7043.2,315.3,6983.7,394.6,6858.4,394.6z M6845.1,281.1c41.3,0,58.1-21.8,58.1-55.3c0-34.2-16.8-56-58.1-56h-54.6v111.3H6845.1z"
		/>
	<path class="st0" d="M7335.1,573c-140,0-253.4-109.2-253.4-263.5c0-154.3,113.4-262.7,253.4-262.7c140.7,0,252.7,108.4,252.7,262.7
		C7587.8,463.8,7475.1,573,7335.1,573z M7335.1,440.5c70.7,0,113.4-51.7,113.4-131c0-80.8-42.7-131.7-113.4-131.7
		c-71.4,0-113.4,50.9-113.4,131.7C7221.7,388.8,7263.7,440.5,7335.1,440.5z"/>
	<path class="st0" d="M7786.6,54.8v403.9h153.3v109.2h-290.5V54.8H7786.6z"/>
	<path class="st0" d="M7993.1,54.8h137.2v513.1h-137.2V54.8z"/>
	<path class="st0" d="M8437.6,49.7c123.9,0,212.1,74.2,236.6,190.7h-147.7c-17.5-38.6-50.4-59.7-91-59.7
		c-63,0-104.3,50.9-104.3,129.5c0,79.3,41.3,130.3,104.3,130.3c40.6,0,73.5-21.1,91-59.7h147.7c-24.5,116.4-112.7,190.7-236.6,190.7
		c-148.4,0-245.7-107.7-245.7-261.3C8191.9,157.4,8289.2,49.7,8437.6,49.7z"/>
	<path class="st0" d="M9055,169h-178.5v83.7H9034v108.4h-157.5v92.4H9055v114.3h-315.7V54.8H9055V169z"/>
	<path class="st0" d="M9580,54.8v513.1h-137.2l-182.7-286.7v286.7h-137.2V54.8h137.2l182.7,290.4V54.8H9580z"/>
</g>
<g>
	<path class="st0" d="M568.9,947.2c0,144.9-103.2,244.5-263.8,244.5H116.5V702.7h188.6C465.7,702.7,568.9,801.6,568.9,947.2z
		 M297.2,1088.6c92.5,0,147-51.6,147-141.4s-54.5-142.8-147-142.8h-58.1v284.3H297.2z"/>
	<path class="st0" d="M903,702.7h122.6v489.1H903V702.7z"/>
	<path class="st0" d="M1849.4,857.3h-135.5c-18.6-32.7-53.1-50.2-98.9-50.2c-78.9,0-131.2,54.3-131.2,139.3
		c0,90.6,53.1,143.5,141.2,143.5c60.9,0,103.2-31.4,121.9-86.4h-155.6v-87.8H1858v110.8c-25.8,84.3-109.7,168.6-242.3,168.6
		c-150.6,0-256.7-102.4-256.7-248.7s105.4-249.4,256-249.4C1735.4,697.1,1822.9,757,1849.4,857.3z"/>
	<path class="st0" d="M2191.4,702.7H2314v489.1h-122.6V702.7z"/>
	<path class="st0" d="M2641,702.7h389.3v95.5h-133.4v393.6h-122.6V798.1H2641V702.7z"/>
	<path class="st0" d="M3670.5,1105.4h-187.8l-30.1,86.4h-128.3l182.1-489.1h142l182.1,489.1h-129.8L3670.5,1105.4z M3576.6,834.3
		l-61.7,179.1h124L3576.6,834.3z"/>
	<path class="st0" d="M4273.5,702.7v397.1h160.6v92h-283.2V702.7H4273.5z"/>
	<path class="st0" d="M4758.1,702.7h122.6v489.1h-122.6V702.7z"/>
	<path class="st0" d="M5543.2,798.1h-185.7V897h164.2v92h-164.2v107.3h185.7v95.5h-308.3V702.7h308.3V798.1z"/>
	<path class="st0" d="M6070.2,1196.6c-108.3,0-192.9-52.3-196.4-151.2h130.5c3.6,37.6,28,55.7,62.4,55.7c35.8,0,58.8-17.4,58.8-46
		c0-90.6-251.7-41.8-250.2-215.3c0-92.7,78.1-144.2,183.5-144.2c109.7,0,183.5,53,188.6,146.3h-132.6c-2.2-31.4-25.1-50.2-58.1-50.9
		c-29.4-0.7-51.6,13.9-51.6,44.6c0,85,248.8,46.7,248.8,210.4C6253.7,1128.3,6187.8,1196.6,6070.2,1196.6z"/>
	<path class="st0" d="M6594.3,702.7h122.6v489.1h-122.6V702.7z"/>
	<path class="st0" d="M7379.3,798.1h-185.7V897h164.2v92h-164.2v107.3h185.7v95.5h-308.3V702.7h308.3V798.1z"/>
	<path class="st0" d="M7930,702.7c123.3,0,185,69,185,154c0,61.3-34.4,119.1-111.8,141.4l116.1,193.7h-138.4l-104.7-184.6h-29.4
		v184.6h-122.6V702.7H7930z M7922.8,801.6h-76v121.2h76c45.9,0,67.4-23,67.4-61.3C7990.2,825.3,7968.7,801.6,7922.8,801.6z"/>
	<path class="st0" d="M8765.2,798.1h-185.7V897h164.2v92h-164.2v107.3h185.7v95.5h-308.3V702.7h308.3V798.1z"/>
	<path class="st0" d="M9560.3,702.7v489.1h-122.6l-205.1-301.7v301.7h-122.6V702.7h122.6l205.1,303.1V702.7H9560.3z"/>
</g>
<g>
	<circle class="st1" cx="351" cy="335.3" r="326.3"/>
	<path class="st2" d="M550.5,407.2c-9.9-5.8-19.2-4.2-28.4,1.8C491.5,429,460.7,449,430,469.1c-6.6,4.3-7.8,7.1-5.4,10.8
		c2.5,3.8,5.7,3.8,12.2-0.1c0.6-0.4,1.2-0.7,1.8-1.1c19.8-13,39.7-26.1,59.5-39.1c10.2-6.7,20.3-13.7,30.7-20.1
		c10.5-6.5,20.8-1,21.3,11.1c0.3,5.8-1.7,10.6-6.3,14.1c-3.4,2.6-6.9,5.2-10.6,7.5c-50.4,32.6-100.8,65.4-151.7,97.2
		c-11.2,7-22.4,8.4-34.8,3.7c-18.1-6.9-36.6-13.1-54.8-19.8c-17.5-6.5-34.9-13.7-54.3-9.5c-4.2,0.9-5.8-1.5-5.7-5.6
		c0.1-8.6,0-17.3,0-25.9c0-25.2-0.1-50.4,0-75.6c0-9.6,0.2-9.5,10-11.5c9.6-2.1,19.3-2.1,29-2c16.5,0.2,31.2,4.5,42.5,17.4
		c4.6,5.2,10.6,7.2,17.4,7c6.5-0.1,13,0,19.4,0c15.8,0,31.7,0,47.5,0c5.2,0,10.2,0.5,13.7,4.9c3.9,4.9,5.1,10.3,2.6,16.2
		c-2.5,5.9-7.1,8.8-13.6,8.7c-19.8-0.1-39.6,0-59.4,0c-3.6,0-7.3-0.2-10.8,0.4c-14.2,2.5-21.6,21.1-12.9,32.1c2.2,2.8,4.8,4.5,8.3,3
		c3.2-1.3,3.6-4.2,3.1-7.3c-0.1-0.7-0.4-1.4-0.4-2.1c-1.1-11.2,0.1-12.7,11.3-12.7c20.5-0.1,41,0.1,61.5,0
		c16.5-0.1,27.2-10.4,27.9-26.5c0.7-15.8-9.5-27.6-25.5-29.3c-2.8-0.3-5.8-0.1-8.6-0.1c-20.1,0-40.3,0-60.4,0
		c-3.9,0-7.7,0.3-10.8-3.3c-14.1-16.2-32.9-20.7-53.4-21.2c-10.5-0.3-20.8,0.7-31.1,2.7c-4.5,0.9-6-0.6-5.8-4.9
		c0.1-1.4,0.1-2.9,0-4.3c-0.5-7-2.1-8.8-9.1-9.2c-4.3-0.2-8.6,0.2-12.9,0.2c-24.8,0-49.7-0.1-74.5,0c-9.3,0-10.7,1.5-11,10.5
		c-0.1,3.6,0,7.2,0,10.8c0,47.5,0,95-0.1,142.5c0,2.9,1.5,6.4-1.6,9c-1.8-1.4-3.4-2.8-5.1-4.1c0.9,6.9,5.8,10.3,11.6,13
		c-0.8-5.5,3.5-3.4,5.6-3.4c28.4-0.2,56.8,0,85.3-0.2c9.5-0.1,10.5-0.8,11.5-10.2c0.5-4.2,2-5.3,5.8-5.8c11.9-1.7,23.4-1.5,35,2.9
		c22.8,8.7,46,16.7,69,25c17.2,6.2,33,3.7,48.3-6.2c44.1-28.5,88.4-56.7,132.5-85.1c9.7-6.2,19.5-12.3,28.5-19.4
		C567.8,441.9,566.7,416.8,550.5,407.2z M219.8,531.2c0,8.6-0.2,8.6-8.2,8.6c-21.2,0.1-42.4,0.1-63.6,0.1c-3.3,0-5.4-0.1-6.9-0.6
		c-3.2-0.8-3.4-3-3.4-9.4c0.1-27.7,0.4-55.4,0.4-83c0-16.5-0.2-33.1-0.3-49.6c-0.1-9.9,0.4-10.5,10-10.5c20.5,0,41,0,61.5,0.1
		c3.6,0,5.9,0,7.3,0.6c3,0.8,3,3,3.1,9.9c0.1,21.9,0,43.9,0,65.8c0,0,0,0,0.1,0C219.9,485.8,219.9,508.5,219.8,531.2z"/>
	<g>
		<g>
			<path class="st3" d="M327.4,201.3C327.5,201.3,327.5,201.3,327.4,201.3c11.1-4.9,11.1-4.9,9.6-14.4c-6.1,3.3-9.9,8.2-13.1,13.8
				C325.1,201,326.3,201.2,327.4,201.3C327.5,201.3,327.5,201.3,327.4,201.3z"/>
			<path class="st3" d="M327.1,256.9c-5.3-3.9-7.9-9.3-7.5-16c0.1-1.5,0-3.1-0.2-4.6c-0.4-2.8-2.3-3.9-4.9-3.8
				c-2.7,0.2-2.5,2.6-2.6,4.4c-0.9,17.7,4.1,33.4,16.6,46.8c0.7-4.7,0.6-9.3,2.4-13.6C333.2,264.7,331.8,260.4,327.1,256.9z"/>
			<path class="st3" d="M363.9,217.2c7.6-0.6,15.2-0.9,22.7,1.7c2.8,1,6,0.9,9.1,1c1.8,0.1,4.2,0.5,4.6-2c0.5-3.1-2.2-3.8-4.4-4.1
				c-3-0.5-6.1-0.5-9.1-0.7c-4.6-0.2-9.1-0.4-13.7-0.6C371.1,216.1,365.8,213.2,363.9,217.2z"/>
			<path class="st3" d="M447.7,223.2c-2.4,5.5,0.8,11.8-5.5,13.2c-5.5,1.2-6.2-5-10-7.3c-3.1,4.1-3.8,10.5-10.2,11.4
				c-0.3,0-0.5,0.2-0.8,0.7c-0.3,0.5-0.1,1,0.6,1.6l0,0c0.8,0.6,1.7,1.2,2.5,1.7c4.9,5.4,0.3,9.3-2.3,13.3c-3.2,4.9-7.1,9.3-7,15.6
				c0.1,7.7-4.1,13.1-9.5,17.8c-11,9.6-20.2,6.4-23.3-7.9c-1-4.5-0.8-9.2-2.2-13.7c-2.8-9.3-2.6-9.2-12.4-10.7
				c-8-1.3-15.1-4.3-17.7-12.9c-2.5-8.4-0.5-16.2,5.7-22.4c2.4-2.4,5.5-4.2,8.3-6.2c1.8-3.9,7.2-1.1,9.2-4.7
				c-1.9-2.6-4.1-6.1-1.9-8.4c6.5-6.6,6.9-19.7,20.2-19.2c4.5,0.1,2.7-3.8,2.9-6.1c0.2-2.4,2.3-5.3-1.3-7.1
				c-5.2-2.7-12.6-0.5-14.6,5c-1.3,3.6-3.7,5.8-6.9,7.3c-3.2,1.4-6.5,2.4-8.7,5.5c-1.6,2.3-3.6,4.8-6.5,1.9c-3-2.9-1-5.7,1.2-8
				c2.4-2.6,5.5-4.2,8.7-5.6c2-0.9,4.6-1.5,3.9-5.1c-6.3-1.2-11.7,2-17.4,4c-5.7,2-8.9,5-7.2,12c1.9,7.6-1.1,13.9-8.7,16.9
				c-9.1,3.6-13.2,13.4-23.8,16.3c12.6,6.9,12.7,6.8,13.9,20c0.4,4.2,2.2,7.3,5.3,9.8c6.7,5.4,9.7,11.7,6,20.3
				c-2.6,6.1,1.3,13.1-2,19.3c-0.3,0.6,0.6,2.1,1.3,2.9c5.1,6.5,14.6,9.1,22.4,6.2c10.8-4.1,21.4-4.6,30.2,4.2
				c3.7,3.7,7.2,3.4,11.5,2c26-9,42.1-26.8,47.5-53.6C451.3,243.7,451.8,234.2,447.7,223.2z"/>
			<path class="st3" d="M383.7,205c5.7,1.1,11.6-0.5,17.1,1.9c6.1,2.6,9.3,8.1,7.9,13.8c-1.5,6.1-6.5,7.5-11.7,7.2
				c-5.4-0.3-10.7-1.3-16-2.6c-3.8-0.9-7.6-1.6-11.4-1c-7.7,1.2-13.1,7.8-12.9,15.4c0.1,6.9,4.2,10.2,13.5,11c1.9,0.2,3.9,0,5.7,0.3
				c5.5,0.9,9.1,4.1,10.3,9.6c1.1,5.3,2.1,10.6,2.8,15.9c0.6,4.5,0,10.8,5.3,11.5c5,0.7,8.4-4.6,11.2-8.9c0.6-0.9,1.2-2.2,1.2-3.2
				c-0.2-9.8,4.9-17.5,10.2-25.2c-2.2-1.8-4.2-3.1-5.8-4.8c-4.3-4.6-5.5-12.4-2.7-15.9c4.2-5.1,8.3,0.3,13,0.2
				c-0.8-3.6-7.1-6-2.8-10.6c3.8-4,8.3-3.4,12.8-1.5c0.7,0.3,1.5,0.5,2.1,1c4.1,3.7,5.9-0.5,8.6-2.2c3.5-2.3,2.8-4.8,1.2-7.9
				c-7.4-14.7-18.5-25.6-33.4-32.4c-5.9-2.7-6.8-1.9-7.3,5c-0.5,8.7-1.3,9.7-8.5,11.1C385.7,194.6,385.7,194.6,383.7,205z"/>
			<path class="st2" d="M381.7,162.9c-42.9-0.3-77.8,34.2-77.9,77c-0.1,42.7,34.7,77.4,77.6,77.4c42.9-0.1,77.6-34.9,77.3-77.6
				C458.5,197.4,424.1,163.2,381.7,162.9z M402.9,181.9c0.4-6.9,1.4-7.8,7.3-5c14.9,6.9,26,17.7,33.4,32.4c1.6,3.1,2.3,5.5-1.2,7.9
				c-2.7,1.8-4.5,6-8.6,2.2c-0.5-0.5-1.4-0.7-2.1-1c-4.5-1.9-9-2.5-12.8,1.5c-4.3,4.6,2,6.9,2.8,10.6c-4.7,0.1-8.8-5.3-13-0.2
				c-2.9,3.5-1.6,11.3,2.7,15.9c1.6,1.7,3.5,2.9,5.8,4.8c-5.3,7.7-10.4,15.4-10.2,25.2c0,1.1-0.6,2.3-1.2,3.2
				c-2.8,4.3-6.2,9.5-11.2,8.9c-5.3-0.7-4.6-7-5.3-11.5c-0.8-5.3-1.7-10.6-2.8-15.9c-1.2-5.5-4.8-8.7-10.3-9.6
				c-1.9-0.3-3.8-0.1-5.7-0.3c-9.4-0.8-13.4-4.1-13.5-11c-0.2-7.7,5.2-14.2,12.9-15.4c3.8-0.6,7.6,0.1,11.4,1
				c5.2,1.2,10.6,2.3,16,2.6c5.2,0.3,10.1-1.1,11.7-7.2c1.4-5.7-1.8-11.2-7.9-13.8c-5.5-2.4-11.5-0.8-17.1-1.9
				c2-10.5,2-10.5,10.7-12.1C401.6,191.6,402.3,190.6,402.9,181.9z M323.9,200.8L323.9,200.8c3.2-5.6,7-10.6,13.1-13.8
				c1.5,9.5,1.5,9.5-9.6,14.4c0,0,0,0,0,0c-1,1.7-2.5,3.6-4.3,2.8C321.4,203.3,322.3,201.6,323.9,200.8z M331,270.1
				c-1.8,4.3-1.7,8.9-2.4,13.6c-12.5-13.4-17.5-29.2-16.6-46.8c0.1-1.8-0.1-4.2,2.6-4.4c2.5-0.2,4.5,1,4.9,3.8
				c0.2,1.5,0.3,3.1,0.2,4.6c-0.4,6.7,2.2,12.1,7.5,16C331.8,260.4,333.2,264.7,331,270.1z M401.9,306.4c-4.3,1.5-7.8,1.7-11.5-2
				c-8.9-8.7-19.4-8.2-30.2-4.2c-7.7,2.9-17.3,0.3-22.4-6.2c-0.7-0.8-1.6-2.3-1.3-2.9c3.3-6.2-0.6-13.2,2-19.3
				c3.7-8.6,0.7-14.9-6-20.3c-3.1-2.5-5-5.6-5.3-9.8c-1.2-13.2-1.3-13.2-13.9-20c10.5-2.9,14.7-12.7,23.8-16.3
				c7.6-3,10.5-9.2,8.7-16.9c-1.7-7,1.4-10,7.2-12c5.6-2,11-5.2,17.4-4c0.7,3.6-1.9,4.2-3.9,5.1c-3.2,1.4-6.3,3-8.7,5.6
				c-2.2,2.4-4.2,5.1-1.2,8c2.9,2.8,4.9,0.4,6.5-1.9c2.1-3.1,5.5-4,8.7-5.5c3.2-1.5,5.6-3.7,6.9-7.3c2-5.5,9.4-7.7,14.6-5
				c3.6,1.8,1.4,4.7,1.3,7.1c-0.2,2.3,1.6,6.3-2.9,6.1c-13.3-0.4-13.7,12.6-20.2,19.2c-2.3,2.3,0,5.8,1.9,8.4
				c4.6,0.2,9.1,0.4,13.7,0.6c3,0.2,6.1,0.2,9.1,0.7c2.2,0.4,4.9,1.1,4.4,4.1c-0.4,2.4-2.9,2-4.6,2c-3-0.1-6.3,0-9.1-1
				c-7.5-2.6-15-2.3-22.7-1.7c-2.8,2.1-5.9,3.8-8.3,6.2c-6.2,6.3-8.3,14-5.7,22.4c2.6,8.5,9.7,11.6,17.7,12.9
				c9.8,1.5,9.6,1.4,12.4,10.7c1.4,4.5,1.2,9.2,2.2,13.7c3.1,14.4,12.3,17.5,23.3,7.9c5.4-4.7,9.7-10.1,9.5-17.8
				c-0.1-6.3,3.8-10.7,7-15.6c2.6-3.9,7.2-7.9,2.3-13.3c-0.9-0.5-1.7-1.1-2.5-1.7l0,0c-0.7-0.6-0.9-1.1-0.6-1.6
				c0.3-0.5,0.5-0.7,0.8-0.7c6.4-0.9,7.2-7.3,10.2-11.4c3.8,2.3,4.5,8.4,10,7.3c6.3-1.3,3.1-7.6,5.5-13.2c4,11,3.6,20.4,1.7,29.6
				C444,279.7,427.9,297.5,401.9,306.4z"/>
		</g>
		<g>
			<path class="st2" d="M372.9,328.7c0-2.3-1.8-3.3-3.8-3.6c-3.2-0.4-3.8,2-3.8,4.4c-0.1,5.4,0,10.8-0.1,16.2
				c-0.2,8.3-0.3,8.5-8.4,8.5c-25.1,0.1-50.2,0-75.3,0c-3.5,0-6.4-0.4-9.4-3.2c-6.2-5.7-11.5-6-16.5-2.3c-4.6,3.5-7.3,13.7-5,19.2
				c0.4,0.9,1.5,2.1,2.3,2.1c5.7,0.4,12.5,2.5,16.6-2.2c5.2-6.2,11.5-5.3,17.9-5.4c11.6-0.1,23.2,0,34.8,0c3.9,0,7.7,0,11.6,0
				c10.4,0,20.9,0,31.3-0.1c3.5,0,7.6-0.2,7.8-4.9C373.2,348,373,338.3,372.9,328.7z M262.4,362.4c-2.5-0.4-3.8-2.4-3.4-4.9
				c0.3-2,1.9-3.4,3.9-3.3c2.5,0.1,4,1.7,3.9,4.4C266.3,361.1,265,362.9,262.4,362.4z"/>
		</g>
		<g>
			<path class="st2" d="M509.6,351.8c-3.6-5-10.1-6.8-15.4-4.1c-1.7,0.9-3.3,2.2-4.4,3.7c-1.9,2.6-4.4,2.8-7.2,2.8
				c-26.3,0-52.6-0.1-78.9,0.1c-5.3,0-6.6-2.6-6.4-7.1c0.1-5.8,0.1-11.6,0-17.4c0-2.4-0.3-4.9-3.6-4.7c-2.6,0.1-4.2,1.6-4.3,4.4
				c0,4.6,0,9.3,0,13.9c0,0,0,0-0.1,0c0,1.9,0,3.9,0,5.8c0,13.3,0,13.3,13.6,13.3c23.2,0,46.4,0,69.6,0c7.6,0,15-1,21.3,5.9
				c3.8,4.2,10.3,2.4,14.5-2C512.7,361.9,513.1,356.7,509.6,351.8z M499.4,362.5c-2.4-0.2-3.9-2.1-3.7-4.7c0.2-2.1,1.6-3.5,3.6-3.6
				c2.6-0.1,4,1.4,4.3,4C503.4,360.9,501.8,362.7,499.4,362.5z"/>
		</g>
		<g>
			<path class="st2" d="M290.8,248.1c-6.6-0.1-13.1,0.1-19.7-0.1c-6-0.1-8.2,2.7-8.1,8.5c0.2,9.6,0,19.3,0.1,29
				c0.1,4.4-0.2,8.2-4.3,11.2c-3.6,2.7-5,6.9-3.7,11.4c1.4,4.8,4.6,8,9.7,8.8c5,0.8,9.2-0.9,12-5.2c2.8-4.3,2.8-8.7,0-13
				c-2.2-3.4-6.4-5.2-6.1-10.5c0.5-8.5,0.4-17,0.1-25.5c-0.2-5.2,2.1-6.7,6.9-6.5c5,0.2,10,0,15.1-0.1c2.3,0,3.5-1.2,3.4-3.2
				C296.2,249,293.8,248.1,290.8,248.1z M271.1,305.6c-0.2,2.6-1.8,4.1-4.5,4c-2.8-0.2-3.5-2.4-4.3-3.9c0.8-3.2,2.2-4.9,4.9-4.7
				C269.9,301.3,271.3,303,271.1,305.6z"/>
		</g>
		<g>
			<path class="st2" d="M503.8,297.2c-3.8-3.8-4.6-7.6-4.4-12.4c0.1-4.2,0-8.5,0-12.7c0,0,0,0-0.1,0c0-5.8,0-11.6,0-17.4
				c0-3.5-1.5-6.3-5.2-6.4c-8.1-0.2-16.2-0.2-24.3,0.1c-2.8,0.1-3.7,2.4-3.6,4.9c0.1,2.5,2.1,3,4.1,3c5,0.1,10,0.2,15.1,0
				c4.4-0.2,6.3,1.5,6.2,6c-0.2,7.7-0.1,15.4,0,23.2c0.1,4.3-0.6,7.8-4.1,11.3c-5.7,5.8-5.2,12.6,0,17.3c4.4,4,11.3,4.1,15.9,0.2
				C508.8,309.7,509.6,302.9,503.8,297.2z M495.8,309.6c-2.7,0.2-4.3-1.4-4.5-4c-0.2-2.7,1.3-4.2,4-4.6c2.6,0.1,4.3,1.5,4.5,4.1
				C500,307.6,498.4,309.4,495.8,309.6z"/>
		</g>
		<g>
			<path class="st2" d="M508,113.3c-4.7-4.8-11.1-5.6-16.3-0.1c-3.9,4.1-7.8,4.3-12.4,4.3c-12.7,0-25.5,0-38.2,0c0,0,0,0,0,0
				c-14.3,0-28.6,0-42.9,0c-4,0-8.4,0-8.5,5.4c-0.3,9.3-0.2,18.5-0.1,27.8c0,2.8,1.7,4.1,4.5,4c2.5-0.1,3.2-1.7,3.3-3.8
				c0.1-4.6,0.1-9.3,0.1-13.9c0.1-11,0.1-11.1,10.5-11.1c23.6-0.1,47.1,0,70.7-0.1c5.1,0,9.4,0.5,13.5,4.7
				c5.1,5.1,11.9,4.1,16.4-0.7C513.3,124.6,513.1,118.5,508,113.3z M499.5,126c-2.5-0.6-4-2-3.8-4.7c0.1-2,1.4-3.5,3.5-3.7
				c2.6-0.2,4.2,1.3,4.4,3.9C503.7,124.2,501.8,125.3,499.5,126z"/>
			<path class="st2" d="M497.1,163.1c-5-0.5-9.2,1.2-11.8,5.6c-2.6,4.4-2.3,8.8,0.6,13c2.1,3,6,4.6,5.7,9.4
				c-0.4,7.7-0.2,15.4-0.1,23.1c0.1,4-1.7,5.5-5.5,5.4c-5.4-0.1-10.8,0-16.2,0.1c-2,0-4,0.3-4.1,2.8c-0.1,2.5,0.8,4.8,3.6,5
				c4.2,0.3,8.5,0.1,12.7,0.1c0,0.1,0,0.2,0,0.3c2.7,0,5.4,0.1,8.1,0c8.5-0.4,9.1-0.9,9.3-9.4c0.2-7.7,0.1-15.4,0-23.1
				c-0.1-4.7,0.2-8.9,4.5-12.3c3.5-2.7,4.8-7,3.2-11.5C505.4,166.7,502.2,163.6,497.1,163.1z M495.3,178.9c-2.5-0.2-4.1-1.9-3.9-4.5
				c0.2-2.7,1.9-4,4.5-3.8c2.6,0.2,4,1.8,4.1,4.3C499.4,177.6,497.9,179.2,495.3,178.9z"/>
			<path class="st2" d="M463.5,138.2c-4.6-5.1-11.5-6.2-16.3-0.9c-4.7,5.3-9.8,5.1-15.6,5c-3.9,0-7.7,0-11.6,0.1c-2,0-4.2,0.3-5,2.2
				c-1.9,4.4-1.1,9.1-0.7,13.7c0.3,3.3,3.1,4,7.2,5c0.2-3.5,0.3-6.1,0.4-8.8c0.1-2.7,1.2-4.6,4.1-4.4c7.3,0.6,14.9-2.5,21.3,5
				c4.6,5.3,11.9,3.9,16.3-1.1C467.6,149.5,467.5,142.7,463.5,138.2z M458.8,146.8c-0.3,2.1-1.8,3.2-3.9,3.3c-2.7,0.1-4.4-1.6-4.5-4
				c0-2.6,2.1-3.7,4.1-4C457.6,142.7,459.2,144,458.8,146.8z"/>
		</g>
		<g>
			<path class="st2" d="M373.1,130.3c-0.1-12.7-0.1-12.8-12.9-12.8c-22.8,0-45.6,0-68.4,0c-8.3,0-16.8,1.8-23.4-6.2
				c-2.4-2.9-15.2-2.7-16.6-0.6c-2.7,4.2-1.9,9.1-0.8,13.4c2.3,9.4,12.1,12.4,20,6.1c2.7-2.2,4.9-4.5,8.9-4.5
				c26.3,0.1,52.6,0.2,78.9,0c5.3,0,6.6,2.5,6.5,7.1c-0.2,5.8,0,11.6,0,17.4c0,2.6,0.8,4.6,3.9,4.4c2.9-0.2,3.9-2,3.9-4.7
				c0-4.3,0-8.5,0-12.8c0,0,0,0,0,0C373.1,135,373.1,132.7,373.1,130.3z M262.9,126c-2.4-0.7-4.2-1.9-3.9-4.6
				c0.2-2.5,1.8-4.1,4.5-3.7c2.1,0.3,3.2,1.8,3.4,3.8C267,124.1,265.4,125.5,262.9,126z"/>
			<path class="st2" d="M292.8,219.7c-1.2,0-2.3,0-3.5-0.1c-5.7-0.5-12.8,2.5-16.7-1.4c-4.3-4.3-1.5-11.7-1.5-17.8
				c0-6.2-1.8-12.6,4.5-18c5.4-4.6,4.3-11.9-0.5-16.3c-4.6-4.3-12.3-4.1-16.7,0.4c-4.7,4.8-5.3,11.1,0.2,16.3
				c4.3,4.1,4.6,8.4,4.5,13.5c-0.1,4.6-0.1,9.2,0,13.9c0.2,18-2.6,17.9,17.2,17.5c4.2,0,8.5,0.2,12.7-0.1c2.8-0.1,3.8-2.4,3.7-4.9
				C296.7,220.1,294.8,219.7,292.8,219.7z M267.1,178.8c-2.7-0.3-4.4-1.7-4.2-4.3c0.2-2.6,2-4,4.6-3.7c2.1,0.2,3.4,1.5,3.6,3.7
				C271.2,177.1,269.7,178.5,267.1,178.8z"/>
			<path class="st2" d="M338.3,142.4c-1.1-0.1-2.3,0-3.5,0c-7.5-0.1-15.2,1.5-20.9-6.1c-2.3-3-6.9-2.9-10.8-1.1
				c-6.4,3-9.2,10.4-6.1,16.5c3.3,6.5,11.5,8.3,17.8,4c2.8-1.9,3.9-5.9,8.2-5.6c5.3,0.4,11.2-1.6,15.8,1.1c3.9,2.3,0.1,8.1,2.8,11.7
				c6.2-3,8-7.6,6.5-15.5C347.1,141,342.3,142.7,338.3,142.4z M308.2,150.2c-3.3-0.4-4.8-1.8-4.6-4.5c0.2-2.1,1.7-3.3,3.7-3.5
				c2.6-0.2,4.5,1.2,4.6,3.8C312,148.6,310.1,149.9,308.2,150.2z"/>
		</g>
		<g>
			<path class="st2" d="M341.6,317.5c-1.4,2.5-0.9,5.2-1.1,7.9c-0.1,2-0.5,4.5-2.7,4.4c-7.3-0.3-15.3,3.7-21.5-3.9
				c-2.8-3.5-6.9-4.9-11.4-3.6c-4.8,1.4-8,4.4-8.9,9.5c-0.8,5,0.8,9.3,5.1,12c4.6,2.9,10.3,3.4,13.8-0.7c4.5-5.2,9.7-5.4,15.5-5.2
				c3.1,0.1,6.1,0,9.2,0c3.9,0,7.7,0.3,8.6-5.2C349.7,324.7,348,320.4,341.6,317.5z M308,338c-2.6,0.1-4.3-1.2-4.4-3.9
				c-0.1-2.7,1.5-4.2,4-4.5c2.7-0.2,3.9,1.7,4.6,3.4C311.9,336.2,310.6,337.9,308,338z"/>
		</g>
		<g>
			<path class="st2" d="M466.2,331.3c-1.1-5-4.4-8-9.3-9.2c-4.5-1-8.6,0.6-11.3,4.2c-2.7,3.6-6.2,3.9-10.1,3.9
				c-13,0.3-13,0.3-14.6-13.2c-6.3,3.6-8.3,9.2-6.7,16.2c1.4,6.1,6.3,4.4,10.2,4.6c8.5,0.5,17.3-2,24.4,6.1c3,3.4,8.7,2.5,12.8-0.5
				C465.9,340.4,467.3,336.2,466.2,331.3z M455,338.1c-2.6,0-4.4-1.4-4.7-3.9c-0.3-2.6,1.5-4.3,4-4.5c2.6-0.2,4.3,1.3,4.6,3.9
				C459.3,336.3,457.6,337.7,455,338.1z"/>
		</g>
	</g>
</g>
<g>
	<path class="st4" d="M10417.2,670.4h-681.2c-33.4,0-60.5-27.1-60.5-60.5v0c0-33.4,27.1-60.5,60.5-60.5h681.2
		c33.4,0,60.5,27.1,60.5,60.5v0C10477.8,643.3,10450.7,670.4,10417.2,670.4z"/>
	<g>
		<path class="st4" d="M10380.3,666.9l-321-308.1c-19.3-18.5-21.3-50.7-4.5-72l21.8-27.6c16.8-21.2,46.1-23.5,65.3-5l321,308.1
			c19.3,18.5,21.3,50.7,4.5,72l-21.8,27.6C10428.8,683.2,10399.5,685.5,10380.3,666.9z"/>
		<path class="st4" d="M10467.9,657.2l-336.6,287.2c-20.2,17.3-49.3,13.2-65-9.1l-20.3-28.9c-15.7-22.3-12-54.3,8.3-71.6
			l336.6-287.2c20.2-17.3,49.3-13.2,65,9.1l20.3,28.9C10491.8,607.9,10488.1,639.9,10467.9,657.2z"/>
	</g>
</g>
</svg>
