<svg xmlns="http://www.w3.org/2000/svg" xmlns:xlink="http://www.w3.org/1999/xlink" width="246.417" height="31.472" viewBox="0 0 246.417 31.472"><defs><style>.a{fill:#454545;}.b{opacity:0.3;}.c{clip-path:url(#a);}.d{clip-path:url(#b);}.e{clip-path:url(#c);}.f{opacity:0.69;}.g{clip-path:url(#d);}.h{clip-path:url(#e);}.i{clip-path:url(#f);}.j{clip-path:url(#g);}.k{clip-path:url(#h);}</style><clipPath id="a"><rect class="a" width="23.416" height="30.408"/></clipPath><clipPath id="b"><rect class="a" width="27.973" height="31.47"/></clipPath><clipPath id="c"><rect class="a" width="32.309" height="31.469"/></clipPath><clipPath id="d"><rect class="a" width="25.319" height="31.47"/></clipPath><clipPath id="e"><rect class="a" width="26.866" height="30.408"/></clipPath><clipPath id="f"><rect class="a" width="32.088" height="30.406"/></clipPath><clipPath id="g"><rect class="a" width="25.714" height="30.406"/></clipPath><clipPath id="h"><rect class="a" width="27.574" height="30.408"/></clipPath></defs><g class="b" transform="translate(0 0.533)"><g class="c"><path class="a" d="M2007.72,494.318h23.415v-5.887h-16.864v-6.684h15.27v-5.887h-15.27V469.8h16.864V463.91H2007.72Z" transform="translate(-2007.72 -463.91)"/></g></g><g class="b" transform="translate(27.18 0.002)"><g transform="translate(0 0)"><g class="d"><path class="a" d="M2094.141,468.468a9.475,9.475,0,0,1,7.082,3.408l4.736-4.249a16.275,16.275,0,0,0-11.818-5.09c-8.719,0-16.156,7.17-16.156,15.713s7.436,15.757,16.156,15.757a16.45,16.45,0,0,0,11.818-5.09l-4.736-4.249a9.474,9.474,0,0,1-7.082,3.408,9.812,9.812,0,0,1,0-19.608" transform="translate(-2077.987 -462.537)"/></g></g></g><g class="b" transform="translate(57.326)"><g transform="translate(0)"><g class="e"><path class="a" d="M2172.074,462.532c-8.71,0-16.148,7.167-16.148,15.719s7.438,15.75,16.148,15.75c8.815,0,16.161-7.21,16.161-15.75s-7.345-15.719-16.161-15.719m0,25.54a9.811,9.811,0,1,1,9.48-9.821,9.788,9.788,0,0,1-9.48,9.821" transform="translate(-2155.927 -462.532)"/></g></g></g><g class="f" transform="translate(92.466 0.002)"><g transform="translate(0 0)"><g class="g"><path class="a" d="M2261.214,475.329c-4.692-1.062-6.507-1.77-6.507-3.984,0-1.815,1.682-3.275,4.471-3.275a14.094,14.094,0,0,1,8.675,3.364l3.409-4.692a17.561,17.561,0,0,0-11.907-4.2c-6.639,0-11.242,3.851-11.242,9.472,0,5.887,4.559,7.7,10.977,9.162,4.648,1.062,6.419,1.726,6.419,3.895,0,1.9-1.682,3.408-4.958,3.408a15.011,15.011,0,0,1-10-3.984l-3.762,4.47a19.533,19.533,0,0,0,13.5,5.046c7.436,0,11.818-3.85,11.818-9.648,0-5.622-4.338-7.569-10.889-9.03" transform="translate(-2246.783 -462.537)"/></g></g></g><g class="f" transform="translate(122.478 0.533)"><g transform="translate(0)"><g class="h"><path class="a" d="M2344.734,475.861H2330.88V463.91h-6.506v30.408h6.506v-12.57h13.854v12.57h6.506V463.91h-6.506Z" transform="translate(-2324.373 -463.91)"/></g></g></g><g class="f" transform="translate(152.937 0.534)"><g transform="translate(0 0)"><g class="i"><path class="a" d="M2422.8,463.912h-7.295l-12.393,30.406h7.3l1.946-4.777h13.549l1.946,4.777h7.349Zm-8.184,20.1,4.518-11.109,4.514,11.109Z" transform="translate(-2403.117 -463.912)"/></g></g></g><g class="f" transform="translate(188.615 0.534)"><g transform="translate(0 0)"><g class="j"><path class="a" d="M2513.589,483.7a9.9,9.9,0,0,0,6.9-9.519c0-6.018-4.87-10.265-11.464-10.265h-13.673v30.406h6.5v-9.871h4.827l6.947,9.871h7.438Zm-5.264-5.222h-6.467v-8.591h6.467c3.23,0,5.435,1.683,5.435,4.293s-2.2,4.3-5.435,4.3" transform="translate(-2495.357 -463.912)"/></g></g></g><g class="f" transform="translate(218.842 0.533)"><g transform="translate(0)"><g class="k"><path class="a" d="M2588.38,477.1l11.862-13.19h-7.923l-12.3,13.942V463.91h-6.507v30.408h6.507v-8.5l3.806-4.072,9.34,12.57h7.922Z" transform="translate(-2573.509 -463.91)"/></g></g></g></svg>