<svg id="Layer_1" data-name="Layer 1" xmlns="http://www.w3.org/2000/svg" viewBox="0 0 806.79 216.49"><defs><style>.cls-1{fill:#fff;}.cls-2{fill:none;}</style></defs><title>Ereignis hinzufügen</title><path class="cls-1" d="M214.05,26.22H180.8v15h29.34V60.64H180.8V77.2h33.25V97.68H155.24V5.74h58.81Z" transform="translate(-0.2 -1.18)"/><path class="cls-1" d="M277.69,5.74c22.82,0,34.29,13,34.29,29.47,0,12-6.52,22.43-20.21,26.6L312.5,97.68H284L265.69,63.77H263V97.68H237.39V5.74ZM275.6,27.13H263V46.3h12.65c6.91,0,10.43-3.39,10.43-9.65C286,30.91,282.51,27.13,275.6,27.13Z" transform="translate(-0.2 -1.18)"/><path class="cls-1" d="M393.09,26.22H359.84v15h29.34V60.64H359.84V77.2h33.25V97.68H334.28V5.74h58.81Z" transform="translate(-0.2 -1.18)"/><path class="cls-1" d="M416.43,5.74H442V97.68H416.43Z" transform="translate(-0.2 -1.18)"/><path class="cls-1" d="M553.49,36H526c-2.87-4.82-8.08-7.56-15.13-7.56-12.9,0-20.73,9-20.73,23.08,0,15.78,8.09,24.26,23.21,24.26,8.87,0,15.39-4.17,19.17-12.13H506.8V45.25h47.73V70c-5.48,13.43-19.69,28.3-43.69,28.3-28.16,0-46.68-19.3-46.68-46.82S482.55,4.83,510.71,4.83C534,4.83,549.83,16.83,553.49,36Z" transform="translate(-0.2 -1.18)"/><path class="cls-1" d="M661.85,5.74V97.68H636.29l-34-51.38V97.68H576.7V5.74h25.56l34,52v-52Z" transform="translate(-0.2 -1.18)"/><path class="cls-1" d="M687.15,5.74h25.56V97.68H687.15Z" transform="translate(-0.2 -1.18)"/><path class="cls-1" d="M772.69,98.59c-20.47,0-36.38-9.78-37.42-29.47h27.25c.52,6.91,4.56,9.26,9.26,9.26s8.08-2.35,8.08-6.65C779.73,57,735.14,63.9,735.53,32c0-18,15-27.64,34.42-27.64,21.13,0,35,10.3,35.86,28.56H778c-.26-5.74-3.78-8.35-8.48-8.35-3.78-.13-6.78,2.09-6.78,6.52,0,13.69,44.21,9.26,44.21,38.73C807,86,794.47,98.59,772.69,98.59Z" transform="translate(-0.2 -1.18)"/><path class="cls-1" d="M52.8,182.6H23.9v34.2H.2V131.5H23.9v32.1H52.8V131.5H76.5v85.3H52.8Z" transform="translate(-0.2 -1.18)"/><path class="cls-1" d="M94,131.5h23.7v85.3H94Z" transform="translate(-0.2 -1.18)"/><path class="cls-1" d="M214.1,131.5v85.3H190.4l-31.6-47.7v47.7H135.1V131.5h23.7l31.6,48.3V131.5Z" transform="translate(-0.2 -1.18)"/><path class="cls-1" d="M292.9,149.6l-35.5,48h35.5v19.2H230.8v-18l35.1-48.2H230.8V131.5h62.1Z" transform="translate(-0.2 -1.18)"/><path class="cls-1" d="M309.3,131.5h23.6V181c0,8.8,4,14.4,13,14.4s13.2-5.6,13.2-14.4v-49.5h23.7V181c0,24.3-16.9,36.7-37.4,36.7s-36.1-12.3-36.1-36.7Z" transform="translate(-0.2 -1.18)"/><path class="cls-1" d="M399.6,131.5h57.8v18.9H423.3v15h25.2v18H423.3v33.4H399.6V131.5Z" transform="translate(-0.2 -1.18)"/><path class="cls-1" d="M471,131.5h23.6V181c0,8.8,4,14.4,13,14.4s13.2-5.6,13.2-14.4v-49.5h23.7V181c0,24.3-16.9,36.7-37.4,36.7S471,205.3,471,181Zm14.2-17.1a9.5,9.5,0,0,1,9.19-9.8h.41a9.6,9.6,0,0,1,9.8,9.4h0v.4a9.62,9.62,0,0,1-9.4,9.6h-.4a9.44,9.44,0,0,1-9.6-9.1h0Zm25.8,0a9.6,9.6,0,0,1,19.2-.6h0v.6a9.6,9.6,0,0,1-19.2,0Z" transform="translate(-0.2 -1.18)"/><path class="cls-1" d="M641.4,159.6H615.9c-2.7-4.5-7.5-7-14-7-12,0-19.2,8.4-19.2,21.4,0,14.6,7.5,22.5,21.5,22.5,8.2,0,14.3-3.9,17.8-11.2H598.1V168.2h44.3v23c-5.1,12.5-18.3,26.3-40.5,26.3-26.1,0-43.3-17.9-43.3-43.4s17.1-43.3,43.2-43.3C623.3,130.6,638,141.8,641.4,159.6Z" transform="translate(-0.2 -1.18)"/><path class="cls-1" d="M711.5,150.5H680.6v13.9h27.2v18H680.6v15.4h30.9v19H656.9V131.5h54.6Z" transform="translate(-0.2 -1.18)"/><path class="cls-1" d="M806.1,131.5v85.3H782.4l-31.5-47.7v47.7H727.2V131.5h23.7l31.6,48.3V131.5Z" transform="translate(-0.2 -1.18)"/><path class="cls-1" d="M76.82,100.61A48.3,48.3,0,0,1,12.94,76.42l0,0a48.91,48.91,0,0,1-4.3-19.5,48.39,48.39,0,0,1,95.3-11.3,43.12,43.12,0,0,1,8,1A55.92,55.92,0,0,0,1.08,56.91a55.86,55.86,0,0,0,56.26,55.47h.08a57.62,57.62,0,0,0,25.1-6.1A37.27,37.27,0,0,1,76.82,100.61Z" transform="translate(-0.2 -1.18)"/><path class="cls-1" d="M96.82,57v14.5H111v6.7H96.82v14.5h-7.4V78.31H75.22v-6.7h14.2V57Z" transform="translate(-0.2 -1.18)"/><rect class="cls-1" x="32.2" y="28.95" width="3.38" height="3.32"/><path class="cls-2" d="M61,61.48c.4-1,.9-2,1.4-3a34.43,34.43,0,0,1,6.09-8.2H29v33.8h30.6l-.14-.5A34.9,34.9,0,0,1,61,61.48Z" transform="translate(-0.2 -1.18)"/><path class="cls-1" d="M57.62,84.08H27V50.28H66.47A34.48,34.48,0,0,1,81.06,41.6V33.45H74.3v3.38H70.93V33.45H64.17v3.38H60.8V33.45H54v3.38H50.66V33.45H43.91v3.38H40.53V33.45H33.78v3.38H30.4V33.45H23.65v54h35.1c-.27-.69-.54-1.38-.77-2.08C57.83,85,57.73,84.51,57.62,84.08Z" transform="translate(-0.2 -1.18)"/><path class="cls-1" d="M113.88,47.58a36.41,36.41,0,0,0-12.7-6.4l0,0c.3,1.7.6,3.5.8,5.3a29.68,29.68,0,1,1-25.8,52.8,26.59,26.59,0,0,1-5.9-5.3A28.35,28.35,0,0,1,66,87.46c-.32-.68-.63-1.37-.9-2.08l-.44-1.3-.16-.5a29.58,29.58,0,0,1,1.3-21.3,14.12,14.12,0,0,1,1.1-2.2A29.34,29.34,0,0,1,92.78,45a7.27,7.27,0,0,1,1.4.1V45a25.68,25.68,0,0,1,7.8,1.5c-.2-1.8-.5-3.5-.8-5.3a35.69,35.69,0,0,0-7.9-1h-.4a34.61,34.61,0,0,0-30.5,18.3c-.5,1-1,2-1.4,3a34.9,34.9,0,0,0-1.5,22.1l.14.5c.11.43.21.87.36,1.3.23.7.5,1.39.77,2.08a36.44,36.44,0,0,0,5,8.72,31.3,31.3,0,0,0,5.7,5.8,34.49,34.49,0,0,0,42.4-54.4Z" transform="translate(-0.2 -1.18)"/><rect class="cls-1" x="52.46" y="28.95" width="3.38" height="3.32"/><rect class="cls-1" x="42.33" y="28.95" width="3.38" height="3.32"/><rect class="cls-1" x="62.6" y="28.95" width="3.38" height="3.32"/><rect class="cls-1" x="72.73" y="28.95" width="3.38" height="3.32"/><rect class="cls-1" x="30.2" y="54.17" width="10.13" height="3.38"/><rect class="cls-1" x="47.09" y="54.17" width="10.13" height="3.38"/><rect class="cls-1" x="30.2" y="60.92" width="10.13" height="3.38"/><rect class="cls-1" x="47.09" y="60.92" width="10.13" height="3.38"/><rect class="cls-1" x="30.2" y="74.43" width="10.13" height="3.38"/><rect class="cls-1" x="47.09" y="74.43" width="10.13" height="3.38"/><rect class="cls-1" x="30.2" y="67.68" width="10.13" height="3.38"/><rect class="cls-1" x="47.09" y="67.68" width="10.13" height="3.38"/></svg>