<?xml version="1.0" encoding="utf-8"?>
<!-- Generator: Adobe Illustrator 23.0.1, SVG Export Plug-In . SVG Version: 6.00 Build 0)  -->
<!DOCTYPE svg PUBLIC "-//W3C//DTD SVG 1.1//EN" "http://www.w3.org/Graphics/SVG/1.1/DTD/svg11.dtd" [
	<!ENTITY ns_extend "http://ns.adobe.com/Extensibility/1.0/">
	<!ENTITY ns_ai "http://ns.adobe.com/AdobeIllustrator/10.0/">
	<!ENTITY ns_graphs "http://ns.adobe.com/Graphs/1.0/">
	<!ENTITY ns_vars "http://ns.adobe.com/Variables/1.0/">
	<!ENTITY ns_imrep "http://ns.adobe.com/ImageReplacement/1.0/">
	<!ENTITY ns_sfw "http://ns.adobe.com/SaveForWeb/1.0/">
	<!ENTITY ns_custom "http://ns.adobe.com/GenericCustomNamespace/1.0/">
	<!ENTITY ns_adobe_xpath "http://ns.adobe.com/XPath/1.0/">
]>
<svg version="1.1" id="Layer_1" xmlns:x="&ns_extend;" xmlns:i="&ns_ai;" xmlns:graph="&ns_graphs;"
	 xmlns="http://www.w3.org/2000/svg" xmlns:xlink="http://www.w3.org/1999/xlink" x="0px" y="0px" viewBox="0 0 1187 1280"
	 style="enable-background:new 0 0 1187 1280;" xml:space="preserve">
<style type="text/css">
	.st0{fill:#184397;}
</style>
<metadata>Created by potrace 1.15, written by Peter Selinger 2001-2017<sfw  xmlns="&ns_sfw;">
	<slices></slices>
	<sliceSourceBounds  bottomLeftOrigin="true" height="1144.8" width="1050.1" x="59.8" y="78"></sliceSourceBounds>
</sfw>
</metadata>
<g transform="translate(0.000000,1280.000000) scale(0.100000,-0.100000)">
	<g>
		<path class="st0" d="M8470,12223c-1884-61-3608-1033-4633-2614c-177-273-370-641-500-954l-25-60l-1019-5c-782-4-1023-8-1040-17
			c-24-14-14,11-275-688c-321-862-379-1024-380-1057c-1-22,6-38,24-53c24-21,38-22,268-28c134-4,563-8,954-9s648-5,571-8
			c-138-6-139-6-40-8c98-3,243-21,317-40c53-14,159-66,185-91c13-12,24-18,24-14c5,27,17-123,19-232c1-71,5-175,9-231l6-101l-834-6
			l-834-6l-23-23c-33-35-644-1676-644-1732c0-19,9-44,19-57l19-24l1128-3c636-1,1132-6,1138-11s52-12,101-16c200-14,329-44,422-96
			c41-23,44-23,37-1c-3,9,36-59,86-153c322-595,645-1032,1082-1461c456-448,909-770,1483-1054c582-289,1158-463,1810-550
			c314-41,863-53,1196-25c101,9,189,13,196,10c8-2,12-1,9,4c-6,10,116,25,198,25c33,0,51,3,40,6c-27,10,58,22,104,15c29-4,33-3,17,5
			c-15,7-8,8,30,5c37-3,43-2,25,4c-15,5-18,9-9,10s32,3,50,6c29,4,30,3,9-4c-60-21,20-9,179,28c175,41,376,99,368,107
			c-2,3-16,0-31-6c-15-5-33-10-39-9c-7,0,65,26,158,58c275,94,571,218,608,255c11,11,17,33,17,59v42l-767,767
			c-518,517-777,769-795,773c-16,4-77-2-140-14c-196-36-307-50-520-62c-300-17-598,5-908,67c-559,113-1098,366-1535,720
			c-107,87-200,172-165,150l25-15l1,62c1,94,42,148,149,198c143,67,362,89,1001,98c426,6,463,7,482,24c11,10,59,121,108,247
			c48,126,91,227,95,225c4-3,9,1,12,8c134,333,188,487,180,518c-4,15-3,20,5,15c7-4,10-2,7,6s48,164,114,347s123,345,126,361
			c5,22,0,35-22,58l-28,30l-330,6c-181,3-935,7-1675,7c-740,1-1329,4-1310,8c26,5,31,8,18,13c-27,11-67,100-80,178
			c-15,85-1,186,36,258c45,89,144,168,258,206c81,27,208,44,348,48c89,2,86,3-45,8c-77,3,370,7,993,8c1011,2,1138,4,1167,18
			c37,17,53,50,155,321c29,78,57,140,62,137c4-3,5,2,2,10s-1,23,6,33c9,15,10,14,4-7c-25-96,90,188,155,378c43,128,48,147,30,122
			c-15-20-22-41,126,370c70,195,127,370,128,388c1,21-7,40-21,55l-23,22l-1237,5c-680,3-1237,7-1237,8s-1,37-3,80
			c-4,90,11,145,68,242c46,79,81,121,180,221c87,88,182,168,277,236c38,26,70,50,73,53s43,30,90,61c205,134,361,218,605,324
			c117,51,422,153,540,180c133,31,300,63,360,70c33,4,68,9,79,11c10,2,51,6,90,9c39,4,89,8,111,11c22,2,141,4,265,2
			c481-4,471-4,450-18c-11-8-8-9,13-4c57,13,428-75,671-160c163-57,194-63,226-46c10,5,68,95,130,200c62,104,116,187,120,185
			c13-8,176,250,353,562c57,99,119,234,112,241c-3,3-5,1-5-4c0-6-7-19-15-30c-15-17-15-16-1,11c8,17,80,147,160,290
			c152,271,164,302,129,343c-38,45-504,230-793,315c-494,146-921,216-1445,237c-137,5-259,9-270,8S8517,12225,8470,12223z
			 M10400,10340c-6-11-13-20-16-20c-2,0,0,9,6,20s13,20,16,20C10408,10360,10406,10351,10400,10340z M10368,10285c-6-14-13-23-15-21
			c-5,5,15,46,22,46C10378,10310,10374,10299,10368,10285z M8688,10123c-32-2-84-2-115,0c-32,2-6,3,57,3S8719,10125,8688,10123z
			 M8918,10113c-15-2-42-2-60,0s-6,4,27,4S8933,10115,8918,10113z M9028,10103c-10-2-28-2-40,0c-13,2-5,4,17,4
			C9027,10108,9037,10106,9028,10103z M8241,7673c-12-20-14-14-5,12c4,9,9,14,11,11C8250,7694,8247,7683,8241,7673z M8121,7353
			c-12-20-14-14-5,12c4,9,9,14,11,11C8130,7374,8127,7363,8121,7353z M8259,5131c-6-18-13-30-15-28s1,18,7,36s13,30,15,28
			S8265,5149,8259,5131z M8099,4701c-6-18-13-30-15-28s1,18,7,36s13,30,15,28S8105,4719,8099,4701z M2963,4153c-7-2-21-2-30,0
			c-10,3-4,5,12,5C2962,4158,2969,4156,2963,4153z M6893,4153c-13-2-35-2-50,0c-16,2-5,4,22,4C6893,4157,6905,4155,6893,4153z
			 M10247,994c-3-3-12-4-19-1c-8,3-5,6,6,6C10245,1000,10251,997,10247,994z M10177,974c-3-3-12-4-19-1c-8,3-5,6,6,6
			C10175,980,10181,977,10177,974z M10107,954c-3-3-12-4-19-1c-8,3-5,6,6,6C10105,960,10111,957,10107,954z M10027,934
			c-3-3-12-4-19-1c-8,3-5,6,6,6C10025,940,10031,937,10027,934z M9943,913c-7-2-19-2-25,0c-7,3-2,5,12,5S9949,916,9943,913z
			 M9897,904c-3-3-12-4-19-1c-8,3-5,6,6,6C9895,910,9901,907,9897,904z M9853,893c-7-2-19-2-25,0c-7,3-2,5,12,5S9859,896,9853,893z"
			/>
		<path class="st0" d="M9093,10083c9-2,23-2,30,0c6,3-1,5-18,5C9089,10088,9083,10086,9093,10083z"/>
		<path class="st0" d="M8071,4633c-1-6-4-20-7-30c-5-17-5-17,6,0c6,10,9,23,6,30C8073,4642,8071,4642,8071,4633z"/>
		<path class="st0" d="M2017,4143c161-2,425-2,585,0c161,1,30,2-292,2S1857,4144,2017,4143z"/>
		<path class="st0" d="M7003,4143c31-2,83-2,115,0c31,2,5,3-58,3S6971,4145,7003,4143z"/>
		<path class="st0" d="M9613,843c9-2,23-2,30,0c6,3-1,5-18,5C9609,848,9603,846,9613,843z"/>
		<path class="st0" d="M9488,823c6-2,18-2,25,0c6,3,1,5-13,5S9481,826,9488,823z"/>
		<path class="st0" d="M9418,813c7-3,16-2,19,1c4,3-2,6-13,5C9413,819,9410,816,9418,813z"/>
		<path class="st0" d="M9258,793c6-2,18-2,25,0c6,3,1,5-13,5S9251,796,9258,793z"/>
	</g>
</g>
</svg>
