<svg width="197" height="192" viewBox="0 0 197 192" fill="none" xmlns="http://www.w3.org/2000/svg">
<path d="M98.1917 176.772C52.6549 176.772 15.7398 140.611 15.7398 96.003C15.7398 51.3955 52.6549 15.2338 98.1917 15.2338C143.729 15.2338 180.644 51.3955 180.644 96.003C180.644 140.611 143.729 176.772 98.1917 176.772ZM98.1917 188.311C150.234 188.311 192.422 146.983 192.422 96.003C192.422 45.0229 150.234 3.69531 98.1917 3.69531C46.1496 3.69531 3.96094 45.0229 3.96094 96.003C3.96094 146.983 46.1496 188.311 98.1917 188.311Z" fill="#F8C08E"/>
<path d="M86.4219 130.617C86.4219 124.244 91.6954 119.078 98.2007 119.078C104.706 119.078 109.98 124.244 109.98 130.617C109.98 136.989 104.706 142.155 98.2007 142.155C91.6954 142.155 86.4219 136.989 86.4219 130.617Z" fill="#F8C08E"/>
<path d="M87.5773 61.3289C86.9501 55.1816 91.8776 49.8477 98.1843 49.8477C104.491 49.8477 109.419 55.1816 108.791 61.3289L104.66 101.8C104.327 105.058 101.528 107.54 98.1843 107.54C94.841 107.54 92.0416 105.058 91.7088 101.8L87.5773 61.3289Z" fill="#F8C08E"/>
<path d="M178.753 96.0015C178.753 139.59 142.682 174.925 98.1857 174.925V178.617C144.764 178.617 182.522 141.629 182.522 96.0015H178.753ZM98.1857 17.0784C142.682 17.0784 178.753 52.4134 178.753 96.0015H182.522C182.522 50.3742 144.764 13.3861 98.1857 13.3861V17.0784ZM17.6184 96.0015C17.6184 52.4134 53.6895 17.0784 98.1857 17.0784V13.3861C51.6078 13.3861 13.8492 50.3742 13.8492 96.0015H17.6184ZM98.1857 174.925C53.6895 174.925 17.6184 139.59 17.6184 96.0015H13.8492C13.8492 141.629 51.6078 178.617 98.1857 178.617V174.925ZM190.532 96.0015C190.532 145.962 149.187 186.463 98.1857 186.463V190.155C151.269 190.155 194.301 148.001 194.301 96.0015H190.532ZM98.1857 5.53996C149.187 5.53996 190.532 46.0409 190.532 96.0015H194.301C194.301 44.0016 151.269 1.84766 98.1857 1.84766V5.53996ZM5.83954 96.0015C5.83954 46.0409 47.1842 5.53996 98.1857 5.53996V1.84766C45.1025 1.84766 2.07031 44.0016 2.07031 96.0015H5.83954ZM98.1857 186.463C47.1842 186.463 5.83954 145.962 5.83954 96.0015H2.07031C2.07031 148.001 45.1025 190.155 98.1857 190.155V186.463ZM88.3096 130.617C88.3096 125.264 92.7395 120.925 98.2038 120.925V117.232C90.6578 117.232 84.5403 123.225 84.5403 130.617H88.3096ZM98.2038 120.925C103.668 120.925 108.098 125.264 108.098 130.617H111.867C111.867 123.225 105.75 117.232 98.2038 117.232V120.925ZM108.098 130.617C108.098 135.97 103.668 140.309 98.2038 140.309V144.002C105.75 144.002 111.867 138.009 111.867 130.617H108.098ZM98.2038 140.309C92.7395 140.309 88.3096 135.97 88.3096 130.617H84.5403C84.5403 138.009 90.6578 144.002 98.2038 144.002V140.309ZM89.4543 61.145C88.9375 56.0847 92.9943 51.6938 98.1857 51.6938V48.0015C90.7641 48.0015 84.9651 54.2784 85.7035 61.5124L89.4543 61.145ZM98.1857 51.6938C103.377 51.6938 107.434 56.0847 106.917 61.145L110.668 61.5124C111.406 54.2784 105.607 48.0015 98.1857 48.0015V51.6938ZM106.917 61.145L102.786 101.616L106.536 101.983L110.668 61.5124L106.917 61.145ZM102.786 101.616C102.55 103.931 100.561 105.694 98.1857 105.694V109.386C102.497 109.386 106.107 106.186 106.536 101.983L102.786 101.616ZM98.1857 105.694C95.8107 105.694 93.8217 103.931 93.5853 101.616L89.835 101.983C90.2639 106.186 93.8741 109.386 98.1857 109.386V105.694ZM93.5853 101.616L89.4543 61.145L85.7035 61.5124L89.835 101.983L93.5853 101.616Z" fill="#F8C08E"/>
</svg>
