<?xml version="1.0" encoding="utf-8"?>
<!-- Generator: Adobe Illustrator 23.0.1, SVG Export Plug-In . SVG Version: 6.00 Build 0)  -->
<!DOCTYPE svg PUBLIC "-//W3C//DTD SVG 1.1//EN" "http://www.w3.org/Graphics/SVG/1.1/DTD/svg11.dtd" [
	<!ENTITY ns_extend "http://ns.adobe.com/Extensibility/1.0/">
	<!ENTITY ns_ai "http://ns.adobe.com/AdobeIllustrator/10.0/">
	<!ENTITY ns_graphs "http://ns.adobe.com/Graphs/1.0/">
	<!ENTITY ns_vars "http://ns.adobe.com/Variables/1.0/">
	<!ENTITY ns_imrep "http://ns.adobe.com/ImageReplacement/1.0/">
	<!ENTITY ns_sfw "http://ns.adobe.com/SaveForWeb/1.0/">
	<!ENTITY ns_custom "http://ns.adobe.com/GenericCustomNamespace/1.0/">
	<!ENTITY ns_adobe_xpath "http://ns.adobe.com/XPath/1.0/">
]>
<svg version="1.1" id="Layer_1" xmlns:x="&ns_extend;" xmlns:i="&ns_ai;" xmlns:graph="&ns_graphs;"
	 xmlns="http://www.w3.org/2000/svg" xmlns:xlink="http://www.w3.org/1999/xlink" x="0px" y="0px" viewBox="0 0 470 288"
	 style="enable-background:new 0 0 470 288;" xml:space="preserve">
<style type="text/css">
	.st0{display:none;}
	.st1{display:inline;}
	.st2{fill:#ffffff;}
	.st3{fill:#ffffff;}
	.st4{display:inline;fill:#ffffff;}
	.st5{font-family:'Poppins-Regular';}
	.st6{font-size:48.783px;}
	.st7{display:inline;enable-background:new    ;}
</style>
<metadata>
	<sfw  xmlns="&ns_sfw;">
		<slices></slices>
		<sliceSourceBounds  bottomLeftOrigin="true" height="392.3" width="434.4" x="20.3" y="-126.4"></sliceSourceBounds>
	</sfw>
</metadata>
<g id="SvgjsSvg1070" xmlns:svgjs="http://svgjs.com/svgjs" class="st0">
	<g id="SvgjsG1072" class="st1">
		<rect x="139.3" y="22.1" class="st2" width="201.5" height="180.1"/>
		<path class="st3" d="M217.3,191.4v-10.5c0-1.5,1.2-2.8,2.8-2.8s2.8,1.2,2.8,2.8v10.5h9.2v-15.7c0-3.2-1.3-6.1-3.4-8.2
			s-5-3.4-8.2-3.4h-39.8c-3.2,0-6.1,1.3-8.2,3.4s-3.4,5-3.4,8.2v15.7h9.2v-10.5c0-1.5,1.2-2.8,2.8-2.8c1.5,0,2.8,1.2,2.8,2.8v10.5
			H217.3L217.3,191.4z M277.7,135.2v-5c0-1.5,1.2-2.8,2.8-2.8c1.5,0,2.8,1.2,2.8,2.8v5h3.1v-8c0-1.5-0.6-2.9-1.7-4
			c-1-1-2.4-1.7-4-1.7h-23.3c-1.5,0-2.9,0.6-4,1.7c-1,1-1.7,2.4-1.7,4v8h3.1v-5c0-1.5,1.2-2.8,2.8-2.8c1.5,0,2.8,1.2,2.8,2.8v5
			H277.7L277.7,135.2z M268.8,81.9c4.6,0,8.8,1.9,11.9,4.9c3,3,4.9,7.2,4.9,11.9c0,4.6-1.9,8.8-4.9,11.9c-3,3-7.2,4.9-11.9,4.9
			s-8.8-1.9-11.9-4.9c-3-3-4.9-7.2-4.9-11.9s1.9-8.8,4.9-11.9C260,83.8,264.2,81.9,268.8,81.9z M276.8,90.8c-2-2-4.8-3.3-7.9-3.3
			s-5.9,1.3-7.9,3.3s-3.3,4.8-3.3,7.9s1.3,5.9,3.3,7.9s4.8,3.3,7.9,3.3s5.9-1.3,7.9-3.3s3.3-4.8,3.3-7.9
			C280.1,95.6,278.8,92.8,276.8,90.8z M289.1,140.7H249c-1.5,0-2.8-1.2-2.8-2.8v-10.8c0-3.1,1.3-5.9,3.3-7.9s4.8-3.3,7.9-3.3h23.3
			c3.1,0,5.9,1.3,7.9,3.3s3.3,4.8,3.3,7.9V138C291.9,139.5,290.6,140.7,289.1,140.7L289.1,140.7z M200.3,100.5c7.4,0,14,3,18.9,7.8
			c4.8,4.8,7.8,11.5,7.8,18.9s-3,14-7.8,18.9c-4.8,4.8-11.5,7.8-18.9,7.8s-14-3-18.9-7.8c-4.8-4.8-7.8-11.5-7.8-18.9s3-14,7.8-18.9
			C186.2,103.5,192.9,100.5,200.3,100.5z M215.2,112.2c-3.8-3.8-9.1-6.2-15-6.2c-5.8,0-11.1,2.4-15,6.2c-3.8,3.8-6.2,9.1-6.2,15
			c0,5.9,2.4,11.1,6.2,15c3.8,3.8,9.1,6.2,15,6.2c5.8,0,11.1-2.4,15-6.2c3.8-3.8,6.2-9.1,6.2-15S219.1,116,215.2,112.2z
			 M234.9,196.9h-68.5c-1.5,0-2.8-1.2-2.8-2.8v-18.4c0-4.7,1.9-9,5-12.1s7.4-5,12.1-5h39.8c4.7,0,9,1.9,12.1,5s5,7.4,5,12.1v18.4
			C237.7,195.7,236.4,196.9,234.9,196.9z M269.5,75.8c-1.5,0-2.8-1.2-2.8-2.8c0-1.5,1.2-2.8,2.8-2.8h33.3c1.5,0,2.8,1.2,2.8,2.8
			v73.1h8.1c1.5,0,2.8,1.2,2.8,2.8c0,0.3,0,0.6-0.1,0.9l-5.1,18.9c-0.3,1.2-1.5,2.1-2.7,2.1l0,0h-57.2c-1.5,0-2.8-1.2-2.8-2.8
			c0-1.5,1.2-2.8,2.8-2.8h55.1l3.6-13.5h-44.3v5.7c0,1.5-1.2,2.8-2.8,2.8h-28.4c-1.5,0-2.8-1.2-2.8-2.8v-5.7h-6.6
			c-1.5,0-2.8-1.2-2.8-2.8s1.2-2.8,2.8-2.8h9.4c1.5,0,2.8,1.2,2.8,2.8v5.7h22.9v-5.7c0-1.5,1.2-2.8,2.8-2.8h37V75.8H269.5
			L269.5,75.8z M204.3,27.3h33.3c7.4,0,14.2,3,19.1,7.9c4.9,4.9,7.9,11.7,7.9,19.1V61c0,7.4-3,14.2-7.9,19.1
			c-4.5,4.5-10.7,7.5-17.5,7.9v19.1c0,1.5-1.2,2.8-2.8,2.8c-0.7,0-1.4-0.3-1.9-0.8l-23.9-21h-6.3c-7.4,0-14.2-3-19.1-7.9
			c-4.9-4.9-7.9-11.7-7.9-19.1v-6.7c0-7.4,3-14.2,7.9-19.1C190.1,30.3,196.9,27.3,204.3,27.3L204.3,27.3z M237.6,32.8h-33.2
			c-5.9,0-11.3,2.4-15.2,6.3s-6.3,9.3-6.3,15.2V61c0,5.9,2.4,11.3,6.3,15.2c3.9,3.9,9.3,6.3,15.2,6.3h7.4l0,0c0.7,0,1.3,0.2,1.8,0.7
			l20.2,17.7V85.3c0-1.5,1.2-2.8,2.8-2.8h1.1c5.9,0,11.3-2.4,15.2-6.3c3.9-3.9,6.3-9.3,6.3-15.2v-6.7c0-5.9-2.4-11.3-6.3-15.2
			C248.8,35.2,243.5,32.8,237.6,32.8L237.6,32.8z M199.6,53.1c-1.5,0-2.8-1.2-2.8-2.8c0-1.5,1.2-2.8,2.8-2.8h25.7
			c1.5,0,2.8,1.2,2.8,2.8c0,1.5-1.2,2.8-2.8,2.8H199.6z M199.6,70c-1.5,0-2.8-1.2-2.8-2.8s1.2-2.8,2.8-2.8h43.1
			c1.5,0,2.8,1.2,2.8,2.8s-1.2,2.8-2.8,2.8H199.6z"/>
	</g>
	<g class="st1">
		<path class="st3" d="M72.5,242.4H66v14.2h-4.4v-34h11c8,0,11.8,4.4,11.8,10C84.2,237.7,80.9,242.4,72.5,242.4z M72.5,238.7
			c5.1,0,7.2-2.4,7.2-6.2c0-4-2.1-6.3-7.2-6.3H66v12.5H72.5z"/>
		<path class="st3" d="M100.7,222.5c8,0,11.8,4.4,11.8,10c0,4.3-2.4,8.5-8.1,9.8l8.5,14.2h-5.3l-8.1-13.9h-5.4v13.9h-4.4v-34H100.7z
			 M100.7,226.2h-6.5v12.9h6.5c5,0,7.2-2.7,7.2-6.5C107.9,228.7,105.8,226.2,100.7,226.2z"/>
		<path class="st3" d="M119.4,222.5h4.4v34h-4.4V222.5z"/>
		<path class="st3" d="M154.8,222.5h4.7l-12.8,34h-5.1l-12.8-34h4.7l10.7,29.3L154.8,222.5z"/>
		<path class="st3" d="M184.5,249h-14.8l-2.7,7.6h-4.7l12.3-33.8h5.1l12.2,33.8h-4.7L184.5,249z M177.1,228.2l-6.1,17.2h12.3
			L177.1,228.2z"/>
		<path class="st3" d="M195.2,222.5h23v3.6h-9.3v30.4h-4.4v-30.4h-9.3V222.5z"/>
		<path class="st3" d="M228.1,241v15.5h-4.4v-34h4.4v15.8l14-15.8h5.6l-15.4,17l15.6,17h-5.8L228.1,241z"/>
		<path class="st3" d="M252.8,222.5h4.4V244c0,6.2,3.4,8.9,8.4,8.9s8.3-2.7,8.3-8.9v-21.5h4.4V244c0,8.8-5.8,12.9-12.8,12.9
			s-12.8-4-12.8-12.9v-21.5H252.8z"/>
		<path class="st3" d="M312.5,222.5v34h-4.4l-17.9-27.1v27.1h-4.4v-34h4.4l17.9,27v-27H312.5z"/>
		<path class="st3" d="M348.7,239.6c0,10.5-6.9,16.9-18,16.9h-10.6v-34h10.6C341.9,222.5,348.7,229.1,348.7,239.6z M330.7,252.9
			c8.9,0,13.5-5,13.5-13.3s-4.6-13.5-13.5-13.5h-6.1v26.7h6.1V252.9z"/>
		<path class="st3" d="M372.9,226.2H359v11.4h12.4v3.7H359V253h13.9v3.7h-18.3v-34h18.3V226.2z"/>
		<path class="st3" d="M406.3,222.5v34h-4.4L384,229.4v27.1h-4.4v-34h4.4l17.9,27v-27H406.3z"/>
	</g>
</g>
<g class="st0">
	<g id="SvgjsG1008" transform="matrix(0.9167,0,0,0.9167,11.995200000000011,11.994720096492784)" class="st1">
		<rect x="125.5" y="15.5" class="st2" width="214.8" height="192"/>
		<path class="st3" d="M274.2,42.5c0.8-1.4,2.6-1.9,4-1.1c1.4,0.8,1.9,2.6,1.1,4l-7.7,13.3c-0.8,1.4-2.6,1.9-4,1.1
			c-1.4-0.8-1.9-2.6-1.1-4L274.2,42.5z M254.9,30.6c0.4-1.6,2-2.5,3.6-2.1s2.5,2,2.1,3.6l-6.2,23.3c-0.4,1.6-2,2.5-3.6,2.1
			s-2.5-2-2.1-3.6L254.9,30.6z M190.8,45.4c-0.8-1.4-0.3-3.2,1.1-4c1.4-0.8,3.2-0.3,4,1.1l7.7,13.3c0.8,1.4,0.3,3.2-1.1,4
			c-1.4,0.8-3.2,0.3-4-1.1L190.8,45.4z M232.1,26.5c0-1.6,1.3-2.9,2.9-2.9c1.6,0,2.9,1.3,2.9,2.9v27.9c0,1.6-1.3,2.9-2.9,2.9
			c-1.6,0-2.9-1.3-2.9-2.9V26.5L232.1,26.5z M209.5,32.2c-0.4-1.6,0.5-3.2,2.1-3.6s3.2,0.5,3.6,2.1l6.2,23.3
			c0.4,1.6-0.5,3.2-2.1,3.6s-3.2-0.5-3.6-2.1L209.5,32.2L209.5,32.2z M303.6,69.2c1.3-0.9,3.1-0.6,4.1,0.8c0.9,1.3,0.6,3.2-0.7,4.1
			l-18.4,12.8c5.3,4.4,9.8,9.2,13.1,14.4c4.1,6.3,6.6,13.1,7.3,20.6c0.2,1.6-1,3.1-2.6,3.2c-1.6,0.2-3-1-3.2-2.7
			c-0.6-6.5-2.8-12.4-6.4-17.9c-3.3-5.1-7.8-9.8-13.3-14.1l-8.4,5.9c-0.6,0.4-1.2,0.6-1.8,0.5l-36.4-0.4l-17.1,7.9L208,127.4
			c-0.7,1.5-0.7,2.9-0.2,3.9c0.5,0.9,1.3,1.7,2.3,2.3c1.1,0.7,2.5,1.2,3.9,1.4c2.6,0.4,5.4-0.1,7.3-1.8l11.6-17.4
			c0.5-0.8,1.4-1.3,2.3-1.3l0,0l20.4-0.9c1.6-0.1,3,1.2,3,2.8c0.1,1.6-1.2,3-2.8,3.1l-19,0.8L226,136.8c-0.1,0.2-0.3,0.4-0.4,0.5
			c-3.3,3.3-8.1,4.3-12.4,3.6c-2.2-0.3-4.3-1.1-6.1-2.2c-1.9-1.2-3.4-2.8-4.4-4.6c-1.4-2.7-1.5-5.8,0.1-9.2l12.2-24
			c0.3-0.6,0.8-1.2,1.5-1.5l18.6-8.6l0,0c0.4-0.2,0.8-0.3,1.3-0.3l36.3,0.4l9.3-6.5c0.1-0.1,0.2-0.1,0.3-0.2L303.6,69.2L303.6,69.2z
			 M307.2,130.4c1.6-0.2,3.1,0.9,3.3,2.6c0.2,1.6-0.9,3.1-2.5,3.3c-3,0.4-5.4,2-7.5,4.5c-2.3,2.7-4.1,6.5-5.8,10.8
			c-0.6,1.5-2.3,2.3-3.8,1.7s-2.3-2.3-1.7-3.8c1.8-4.9,4-9.2,6.8-12.5C299,133.4,302.7,131,307.2,130.4L307.2,130.4z M161,74.8
			c-1.3-1-1.6-2.8-0.6-4.1c1-1.3,2.8-1.6,4.1-0.6l27.2,20.3c5-2,9.9-3.3,14.7-3.9c5.4-0.7,10.7-0.4,15.8,0.8
			c1.6,0.4,2.6,1.9,2.2,3.5c-0.4,1.6-1.9,2.6-3.5,2.2c-4.5-1-9.1-1.2-13.8-0.7c-4.7,0.6-9.6,1.9-14.5,4c-1,0.5-2.1,0.4-3-0.3
			L161,74.8L161,74.8z M185.2,102.8c0.5-1.5,2.2-2.3,3.7-1.8c1.5,0.6,2.3,2.3,1.7,3.8c-2.8,7.6-6.2,14.2-10.3,19.7
			c-3.4,4.5-7.1,8.4-11.3,11.7l6.7,6.2c1.2,1.1,1.3,3,0.2,4.2s-2.9,1.3-4.1,0.2l-9.2-8.5c-0.2-0.2-0.4-0.4-0.6-0.6
			c-0.9-1.3-0.6-3.2,0.8-4.1c4.8-3.3,9.1-7.4,12.8-12.5C179.5,115.9,182.6,109.9,185.2,102.8L185.2,102.8z M174,153.7L174,153.7
			L174,153.7c0.1-0.1,0.1-0.1,0.1-0.2l8.2-8.2c2.2-2.2,5.2-3.3,8.1-3.3c2.9,0,5.9,1.1,8.1,3.4l0,0l0,0l0.1,0.1
			c2.1,2.2,3.2,5.1,3.2,8s-1.1,5.9-3.4,8.1l-5.6,5.6c-1.1,1.1-1.6,2.5-1.6,4c0,1.4,0.5,2.8,1.5,3.8c0.1,0.1,0.1,0.1,0.2,0.2l0,0
			c1.1,1.1,2.5,1.6,4,1.6s2.9-0.5,4-1.6l2-2l0,0l0.1-0.1l8.8-8.8c0.1-0.1,0.1-0.1,0.2-0.2l0,0c1.1-1.1,1.6-2.5,1.6-4
			c0-1.4-0.5-2.8-1.5-3.8l-0.1-0.1c-0.1-0.1-0.1-0.1-0.2-0.2c-0.4-0.4-0.9-0.7-1.4-1c-0.6-0.3-1.2-0.5-1.8-0.5
			c-1.6-0.2-2.8-1.6-2.6-3.2c0.2-1.6,1.6-2.8,3.2-2.6c1.3,0.1,2.6,0.5,3.7,1c1.1,0.5,2.2,1.3,3.2,2.2l0,0l0,0l0.1,0.1
			c2.1,2.2,3.2,5.1,3.2,8s-1.1,5.9-3.4,8.1l0,0l0,0l-0.1,0.1l-8.8,8.8c-0.1,0.1-0.1,0.1-0.2,0.2l0,0c-1.1,1.1-1.6,2.5-1.6,4
			c0,1.4,0.5,2.7,1.5,3.8c0.1,0.1,0.2,0.2,0.2,0.2c1.1,1,2.5,1.5,3.9,1.5c1.5,0,2.9-0.5,4-1.6l12.7-12.7c1.1-1.1,1.6-2.5,1.6-4
			c0-1.4-0.5-2.8-1.5-3.8c-0.1-0.1-0.1-0.1-0.2-0.2l0,0c-0.4-0.4-0.9-0.8-1.5-1c-0.5-0.3-1.2-0.4-1.8-0.5c-1.6-0.2-2.7-1.7-2.5-3.3
			s1.7-2.8,3.3-2.6c1.2,0.2,2.4,0.5,3.6,1.1c1.1,0.5,2.1,1.3,3,2.2l0,0l0,0l0.1,0.1c2.1,2.2,3.2,5.1,3.2,8s-1.1,5.9-3.4,8.1l-9,9
			c-0.9,0.9-1.3,2-1.3,3.2c0,1.1,0.4,2.2,1.2,3c0.1,0.1,0.1,0.1,0.2,0.2l0,0c0.9,0.9,2,1.3,3.2,1.3s2.3-0.4,3.2-1.3l5-5
			c0.1-0.1,0.1-0.1,0.2-0.2l0,0c0.9-0.9,1.3-2,1.3-3.1s-0.4-2.2-1.2-3c-0.2-0.2-0.4-0.4-0.5-0.6c-0.9-1.4-0.5-3.2,0.9-4.1
			c1.3-0.8,2.9-0.5,3.8,0.6c1.9,2,2.8,4.6,2.8,7.2c0,2.7-1,5.3-3,7.3l0,0l0,0l-0.1,0.1l-5,5c-2,2-4.7,3-7.3,3s-5.3-1-7.3-3l0,0l0,0
			l-0.1-0.1c-1.2-1.3-2.1-2.8-2.5-4.4c-1.6,0.8-3.3,1.2-5,1.2c-2.9,0-5.9-1.1-8.1-3.4l0,0l0,0l-0.1-0.1c-1.9-1.9-2.9-4.4-3.1-6.9
			c-0.9,0.2-1.8,0.3-2.7,0.3c-2.9,0-5.9-1.1-8.1-3.4l0,0l0,0l-0.1-0.1c-1.7-1.8-2.8-4-3.1-6.4c-1.1,0.4-2.3,0.5-3.5,0.5
			c-2.9,0-5.9-1.1-8.1-3.4l0,0l0,0l-0.1-0.1c-2.1-2.2-3.2-5.1-3.2-8C170.6,158.9,171.7,156,174,153.7L174,153.7z M186.4,149.6
			l-8.2,8.2c-0.1,0.1-0.1,0.1-0.2,0.2l0,0c-1.1,1.1-1.6,2.5-1.6,4c0,1.4,0.5,2.7,1.5,3.8c0.1,0.1,0.2,0.2,0.2,0.2
			c1.1,1,2.5,1.5,3.9,1.5c1.5,0,2.9-0.5,4-1.6l8.4-8.4c1.1-1.1,1.6-2.5,1.6-4c0-1.4-0.5-2.8-1.5-3.8c-0.1-0.1-0.1-0.1-0.2-0.2l0,0
			c-1.1-1.1-2.5-1.6-4-1.6C189,147.9,187.5,148.5,186.4,149.6L186.4,149.6z M258.9,135.9c-1.1-1.1-1.2-3,0-4.2c1.1-1.2,3-1.2,4.1,0
			l27.5,27.5c2.3,2.3,3.4,5.3,3.4,8.3s-1.1,6-3.4,8.3l0,0l0,0c-0.1,0.1-0.1,0.1-0.2,0.2c-2.2,2.1-5.2,3.2-8.1,3.2
			c-1.5,0-3-0.3-4.3-0.8c-0.8,0-1.6-0.2-2.2-0.9L252,153.8c-1.1-1.1-1.2-3,0-4.2c1.1-1.2,3-1.2,4.1,0l22,22c1.1,1.1,2.6,1.7,4.1,1.7
			c1.4,0,2.9-0.5,4-1.6c0-0.1,0.1-0.1,0.1-0.1l0,0c1.1-1.1,1.7-2.6,1.7-4.1s-0.6-3-1.7-4.1L258.9,135.9z M277.2,183.1
			c0.4-1.6,2-2.5,3.6-2.1s2.5,2,2.1,3.6c-0.3,1-0.7,1.9-1.2,2.8c-0.5,0.9-1.1,1.7-1.9,2.4l0,0l0,0c-0.1,0.1-0.1,0.1-0.2,0.2
			c-2.2,2.1-5.2,3.2-8.1,3.2c-2,0-3.9-0.5-5.7-1.5c-0.5,1.5-1.3,3-2.5,4.2l0,0c-2,2-4.5,2.9-7.1,2.9s-5.2-1-7.1-2.9l-4.9-4.9
			c-1.1-1.1-1.2-3,0-4.2s3-1.2,4.1,0l4.9,4.9c0.8,0.8,1.9,1.2,3,1.2c1,0,2.1-0.4,2.9-1.1c0.1-0.1,0.2-0.2,0.2-0.2
			c0.7-0.8,1.1-1.8,1.1-2.9c0-1.1-0.4-2.2-1.2-3L245.5,172c-1.1-1.1-1.2-3,0-4.2s3-1.2,4.1,0l17.6,17.6c0.1,0.1,0.1,0.1,0.2,0.2l0,0
			c1.1,1.1,2.6,1.7,4.1,1.7c1.4,0,2.9-0.5,4-1.6c0-0.1,0.1-0.1,0.1-0.1l0,0c0.4-0.4,0.7-0.8,0.9-1.2
			C276.9,184.1,277.1,183.6,277.2,183.1L277.2,183.1z"/>
	</g>
	<text transform="matrix(1 0 0 1 28.7064 256.8896)" class="st4 st5 st6">PRODUKTPARTNER</text>
</g>
<g id="Layer_3">
	<path class="st3" d="M181.1,153.1c5.6-3.6,11.7-3.8,16.9,3c0.5,0.6,1.7,1,2.5,0.9c13.9-0.9,18.2,4.3,13.9,17.4
		c6.7,1.9,10.7,6,10.3,13.6c0,1,2.4,3,3.6,2.9c2.1-0.1,5-1,6.1-2.5c1-1.6,0.8-4.8-0.2-6.5c-1.2-2.1-3.8-3.3-6-5.1
		c0.6-1.2,1.3-2.4,2.2-4.1c4.3,2.7,8.3,5.2,12.3,7.7c4.3,2.6,7.6,2.2,9.8-1s1.2-6.4-3-9.2c-3.9-2.6-7.8-5.1-12.1-7.8
		c0.8-1.4,1.6-2.7,2.5-4.3c7.1,4.4,13.8,8.9,20.7,12.8c2.1,1.2,5.4,1.9,7.6,1.1c4.6-1.6,4.4-7.6-0.3-10.7
		c-6.8-4.6-13.8-8.8-21.1-13.5c0.8-1.4,1.5-2.7,2.5-4.4c8.9,5.6,17.4,11,26,16.3c1.1,0.7,2.2,1.4,3.3,2c4.6,2.6,8.2,2.2,10.2-1.1
		c1.9-3.4,0.9-6.4-3.5-9.1c-14.2-8.9-28.4-17.7-42.7-26.4c-6.2-3.8-14.8-2.7-19.9,2.3c-1.8,1.8-3.6,3.7-5.6,5.3
		c-5.2,4.3-11.7,4-16.1-0.6c-4.3-4.4-4.4-11.3,0.3-16.1c3.6-3.8,7.7-7.1,11.5-10.6c-0.3-0.4-0.6-0.9-0.9-1.3c-3.8,0-7.6,0-11.8,0
		c-0.2-1.7-0.3-3-0.5-4.6c1.6-0.2,2.8-0.4,4.1-0.4c15.1,0,30.3-0.1,45.4,0.1c1.4,0,2.8,1.4,4.3,2.2c-1.4,0.8-2.9,2.4-4.3,2.4
		c-7.4,0.3-14.8,0.1-22.2,0.1c-1.1,0-2.3-0.1-3.4,0c-3.9,0.3-20.3,15.5-20.3,19.4c0,2.1,1.3,5.1,2.9,6c1.8,1,5,0.7,7-0.1
		c2.1-0.9,3.6-3.1,5.3-4.8c7.9-7.9,18.4-9.1,28-3.1c11.4,7,22.7,14.1,34,21.1c1.5,0.9,3,1.8,5,2.9c3.2-8,9.7-8.4,16.6-8.1
		c2.6,0.1,5.2-0.1,7.7,0c3.9,0,3.9,0.1,3.6,5.3c-4.7,0-9.5-0.1-14.2,0.1c-2,0.1-4.2,0.5-6,1.3c-2.4,1.1-3.3,3.2-1.5,5.5
		c3.7,4.9,4.7,10,0.8,15.1c-3.7,4.9-8.9,5.2-15.1,2.9c-2.2,9.6-8.7,12-17.3,9.4c-5.5,10.2-8.4,11.7-18.2,9.3c-0.5,1.2-1,2.5-1.6,3.7
		c-2.6,5.5-8.1,7.7-14.1,6.1c-2.5-0.7-5.6-0.6-8.1,0.1c-5.4,1.5-10.3,0.3-13.3-4.8c-1.4-2.5-3-3.3-5.7-3.2c-4.3,0.3-7.1-2-9.5-5.5
		c-1.1-1.6-3.1-3.1-4.9-3.4c-4.3-0.7-7.4-2.4-9.7-6.2c-0.9-1.5-3.3-2.6-5.2-2.9c-8.7-1.1-13-10-8-17.2c3.2-4.6,1.7-9.2-3.8-10.2
		c-4.5-0.8-9.3-0.4-13.9-0.7c-1.9-0.1-4.9,0.9-4.4-2.5c0.1-0.9,2.7-2.1,4.3-2.2c3.8-0.3,7.7-0.3,11.6-0.1c5.6,0.3,10.4,1.8,12.6,7.9
		c0.5,1.3,1.9,2.6,3.2,3.3C173.8,149.8,177.1,151.2,181.1,153.1z M212.5,167c-2.2-2.3-3.4-4.5-5.1-5.1c-1.7-0.6-4.9-0.2-5.9,1.1
		c-3.1,3.8-5.9,8-8.1,12.5c-0.7,1.4,0.4,4.6,1.7,5.8s5.2,1.9,5.9,1C205,177.6,208.4,172.5,212.5,167z M185.3,173.7
		c4.6-0.9,6.4-5.6,8.1-9.7c0.8-1.8-0.4-5.3-2-6.9c-2.2-2.3-5.5-1.8-7.6,0.9c-1.8,2.4-3.5,5-4.8,7.7
		C177.4,169.9,180.2,173.8,185.3,173.7z M164.1,157.2c0.4,5.1,2.4,7.2,5.8,7.6c3,0.4,6.2-2.7,6-5.6c-0.3-3.5-2.6-6-5.9-5.7
		C167.7,153.7,165.6,156.2,164.1,157.2z M215.4,191.5c1-1.5,3.2-3.4,3.8-5.7c0.7-3.1-2.9-6.1-6.2-5.8c-3.4,0.3-5.3,2.4-5.1,5.7
		C208,189.3,210.3,191,215.4,191.5z"/>
	<path class="st3" d="M227,45c-0.7-0.4-1.1-0.5-1.2-0.8c-3.7-8.2-10.4-9.4-18.6-9c-12.2,0.6-24.5,0.3-36.7,0.1
		c-4.2-0.1-6,1.4-7.2,5.3c-6.3,20.2-12.8,40.4-19.5,60.6c-0.5,1.4-2.5,2.2-4.7,2.8c3.6-23.7,14.1-45,20.1-68.5c-2.8,0-5,0.2-7.1-0.1
		c-0.9-0.1-2.2-1.5-2.2-2.3s1.2-2.1,2.1-2.4c1.3-0.4,2.9-0.1,4.3-0.1c19.3,0,38.6,0,58.9,0c-1.6-2.7-2.8-4.8-4.3-7.3
		c10.5,0,20.6,0,31.2,0c-1.4,2.3-2.6,4.3-4.3,7.1c21.7,0,42.8,0,64.2,0c0.5,2.8,1.5,5.1-2.3,5.2c-2.1,0-4.1,0-6.8,0
		c0.8,2.9,1.4,5.2,2.2,7.4c5.1,14.9,10.5,29.7,15.4,44.7c1.4,4.4,2,9,2.6,13.6c0.1,0.8-1.2,1.8-1.9,2.6c-0.9-0.8-2.3-1.5-2.6-2.5
		c-6.9-20.9-13.5-41.9-20.5-62.7c-0.5-1.4-3-3-4.6-3c-15.5-0.2-30.9-0.2-46.4,0.1c-1.8,0-3.8,1.4-5.2,2.7
		C230.2,40.1,228.8,42.6,227,45z M232.9,27.9c-4.3,0-8,0-12.4,0c2.1,3,4,5.6,6.2,8.8C228.9,33.6,230.7,31,232.9,27.9z"/>
	<path class="st3" d="M223.5,63.5c-4.2-1.3-5.8-0.2-5.7,3.9c0.2,8.2,0.1,16.3,0.1,24.5c-3.4,1.2-5,0.6-4.9-2.9
		c0.1-6.9,0-13.8,0.1-20.8c0.1-3,0-5.4-3.9-5.8c-0.7-0.1-1.5-1.8-1.6-2.8c0-0.6,1.4-1.7,2.2-1.7c11.6-0.1,23.1-0.1,34.9-0.1
		c0.1,1.6,0.2,2.9,0.3,4.4c-1.6,0.5-3.1,0.9-5.1,1.4c0,7.3,0,14.7,0,22.1c0,1.3,0.3,2.7-0.1,3.8c-0.4,1.2-1.5,2.1-2.2,3.1
		c-0.9-1.1-2.4-2.1-2.5-3.2c-0.3-7.4-0.3-14.8-0.2-22.2c0-3.7-1.4-5-5.9-3.5c0,6,0,12.4,0,18.8c0,2.3,0.3,4.6-0.1,6.7
		c-0.3,1.3-1.7,2.4-2.7,3.6c-0.8-1.2-2.1-2.3-2.2-3.5c-0.2-7.4-0.1-14.8-0.1-22.2C223.7,66,223.6,64.9,223.5,63.5z"/>
	<path class="st3" d="M137.4,108.8c19,0,35.9,0,52.8,0c2.7,0,3.7,1.4,3,3.6c-0.8,2.7-1.9,5.6-3.7,7.5c-12.6,12.8-35.7,12.4-47.7-0.9
		C139.7,116.6,139.1,113,137.4,108.8z M144.9,114c9.6,13.5,34.9,13.4,41.7,0C172.8,114,159.1,114,144.9,114z"/>
	<path class="st3" d="M313,109.1c1.6,5.9-1,9.6-5.1,12.8c-13.2,10.2-31.9,9.6-44-1.4c-3.4-3-5.4-6.4-4.1-11.4
		C277.4,109.1,295.1,109.1,313,109.1z M307.5,114.1c-14,0-27.8,0-41.8,0C273.7,127.3,298.6,127.4,307.5,114.1z"/>
	<path class="st3" d="M170.6,37.7c1.3,1.3,3.4,2.4,3.9,3.9c6,17.8,11.8,35.6,17.7,53.4c0.4,1.4,1,2.8,0.9,4.2
		c-0.1,1.5-1,2.9-1.6,4.4c-1.3-1.1-3.3-1.9-3.7-3.2c-3.2-9.9-6-19.9-9.1-29.8c-2.6-8.3-5.5-16.4-8.2-24.6c-0.7-2.2-1.1-4.6-1.6-6.9
		C169.5,38.6,170,38.2,170.6,37.7z"/>
	<path class="st3" d="M259,103.1c0.5-2.9,0.6-5.5,1.4-7.9c5.9-18,11.9-35.9,18-53.8c0.5-1.4,2.3-2.3,3.5-3.5
		c0.6,0.4,1.1,0.7,1.7,1.1c-0.5,2.4-0.8,4.8-1.5,7.1c-5.2,15.8-10.6,31.6-15.9,47.4c-0.8,2.3-1.7,4.6-1.9,6.9
		C264.1,103.8,262.4,103.9,259,103.1z"/>
	<path class="st3" d="M244.6,51.5c-12.4,0-24.6,0-36.9,0c-0.9-3.1,0-4.6,3.3-4.6c10.3,0,20.5,0.1,30.8,0
		C245,46.9,245.7,48.3,244.6,51.5z"/>
	<g class="st0">
		<g class="st7">
			<path class="st3" d="M24.2,222.5h19.2v3.6H28.6v11.5h12v3.6h-12v15.3h-4.4C24.2,256.5,24.2,222.5,24.2,222.5z"/>
			<path class="st3" d="M48.8,222.5h4.4v34h-4.4V222.5z"/>
			<path class="st3" d="M87.5,222.5v34H83l-17.9-27.1v27.1h-4.4v-34h4.4l17.9,27v-27H87.5z"/>
			<path class="st3" d="M115.1,249h-14.8l-2.7,7.6h-4.7l12.3-33.8h5.1l12.2,33.8h-4.7L115.1,249z M107.7,228.2l-6.1,17.2h12.3
				L107.7,228.2z"/>
			<path class="st3" d="M154.7,222.5v34h-4.4l-17.9-27.1v27.1H128v-34h4.4l17.9,27v-27H154.7z"/>
			<path class="st3" d="M182.5,226.1L166,252.7h16.6v3.9h-21.9V253l16.5-26.6h-16.3v-3.9h21.6L182.5,226.1L182.5,226.1z"/>
			<path class="st3" d="M212,222.5h4.7l-12.8,34h-5.1l-12.8-34h4.7l10.7,29.3L212,222.5z"/>
			<path class="st3" d="M239.9,226.2H226v11.4h12.4v3.7H226V253h13.9v3.7h-18.3v-34h18.3V226.2z"/>
			<path class="st3" d="M257.6,222.5c8,0,11.8,4.4,11.8,10c0,4.3-2.4,8.5-8.1,9.8l8.5,14.2h-5.3l-8.1-13.9H251v13.9h-4.4v-34H257.6z
				 M257.6,226.2h-6.5v12.9h6.5c5,0,7.2-2.7,7.2-6.5C264.8,228.7,262.7,226.2,257.6,226.2z"/>
			<path class="st3" d="M276.3,222.8h4.8l12.5,27.9l12.5-27.9h4.7v33.8h-4.4v-25.2l-11.2,25.2H292l-11.3-25.2v25.2h-4.4L276.3,222.8
				L276.3,222.8z"/>
			<path class="st3" d="M318.3,222.5h4.4v34h-4.4V222.5z"/>
			<path class="st3" d="M328.2,222.5h23v3.6h-9.3v30.4h-4.4v-30.4h-9.3L328.2,222.5L328.2,222.5z"/>
			<path class="st3" d="M354.6,222.5h23v3.6h-9.3v30.4h-4.4v-30.4h-9.3L354.6,222.5L354.6,222.5z"/>
			<path class="st3" d="M387.5,222.5v30.4h11.9v3.6h-16.3v-34H387.5z"/>
			<path class="st3" d="M422.4,226.2h-13.9v11.4H421v3.7h-12.4V253h13.9v3.7h-18.3v-34h18.3v3.5H422.4z"/>
			<path class="st3" d="M440.1,222.5c8,0,11.8,4.4,11.8,10c0,4.3-2.4,8.5-8.1,9.8l8.5,14.2H447l-8.1-13.9h-5.4v13.9h-4.4v-34H440.1z
				 M440.1,226.2h-6.5v12.9h6.5c5,0,7.2-2.7,7.2-6.5C447.4,228.7,445.2,226.2,440.1,226.2z"/>
		</g>
	</g>
</g>
<g>
	<path class="st3" d="M23.8,222h19.3v4.4H29.2v9.7h10.9v4.4H29.2v14.4h-5.4V222z"/>
	<path class="st3" d="M48.1,222h5.4v32.8h-5.4V222z"/>
	<path class="st3" d="M87.6,222v32.9h-5.4L66,230.4v24.5h-5.4V222H66l16.2,24.5V222H87.6z"/>
	<path class="st3" d="M114.4,248.2h-13.7l-2.4,6.7h-5.6l11.8-32.9h6.2l11.8,32.9h-5.7L114.4,248.2z M107.6,228.5l-5.4,15.3h10.7
		L107.6,228.5z"/>
	<path class="st3" d="M154.5,222v32.9h-5.4L133,230.4v24.5h-5.4V222h5.4l16.2,24.5V222H154.5z"/>
	<path class="st3" d="M182.1,226.3l-15.3,23.9h15.3v4.7h-21.6v-4.2l15.2-23.9h-15.2V222h21.6V226.3z"/>
	<path class="st3" d="M210.6,222h5.7l-12.3,32.8h-6.2L185.3,222h5.8l9.7,27.3L210.6,222z"/>
	<path class="st3" d="M238.9,226.4h-12.8v9.6h11.3v4.4h-11.3v10.1h12.8v4.4h-18.1V222h18.1V226.4z"/>
	<path class="st3" d="M256.8,222c7.8,0,11.6,4.5,11.6,9.8c0,3.9-2.1,8-7.6,9.4l8.1,13.6h-6.4l-7.6-13.1h-4.1v13.1h-5.4V222H256.8z
		 M256.8,226.4h-6v11h6c4.2,0,6.1-2.3,6.1-5.6C262.9,228.6,261,226.4,256.8,226.4z"/>
	<path class="st3" d="M275.3,222h5.8l11.5,25.7l11.5-25.7h5.8v32.8h-5.4v-22.5l-10,22.5h-3.7l-10.1-22.5v22.5h-5.4V222z"/>
	<path class="st3" d="M317,222h5.4v32.8H317V222z"/>
	<path class="st3" d="M327.7,222h22.9v4.4h-8.7v28.4h-5.4v-28.4h-8.8V222z"/>
	<path class="st3" d="M354.4,222h22.9v4.4h-8.7v28.4h-5.4v-28.4h-8.8V222z"/>
	<path class="st3" d="M388.1,222v28.5h11.1v4.3h-16.5V222H388.1z"/>
	<path class="st3" d="M421.8,226.4h-12.8v9.6h11.3v4.4h-11.3v10.1h12.8v4.4h-18.1V222h18.1V226.4z"/>
	<path class="st3" d="M439.7,222c7.8,0,11.6,4.5,11.6,9.8c0,3.9-2.1,8-7.6,9.4l8.1,13.6h-6.4l-7.6-13.1h-4.1v13.1h-5.4V222H439.7z
		 M439.7,226.4h-6v11h6c4.2,0,6.1-2.3,6.1-5.6C445.8,228.6,443.9,226.4,439.7,226.4z"/>
</g>
<text transform="matrix(1 0 0 1 20.2866 386.9289)" style="display:none;fill:##ffffff; font-family:'Poppins-Medium'; font-size:47.2209px;">FINANZVERMITTLER</text>
</svg>
