<?xml version="1.0" encoding="utf-8"?>
<!-- Generator: Adobe Illustrator 23.0.1, SVG Export Plug-In . SVG Version: 6.00 Build 0)  -->
<!DOCTYPE svg PUBLIC "-//W3C//DTD SVG 1.1//EN" "http://www.w3.org/Graphics/SVG/1.1/DTD/svg11.dtd" [
	<!ENTITY ns_extend "http://ns.adobe.com/Extensibility/1.0/">
	<!ENTITY ns_ai "http://ns.adobe.com/AdobeIllustrator/10.0/">
	<!ENTITY ns_graphs "http://ns.adobe.com/Graphs/1.0/">
	<!ENTITY ns_vars "http://ns.adobe.com/Variables/1.0/">
	<!ENTITY ns_imrep "http://ns.adobe.com/ImageReplacement/1.0/">
	<!ENTITY ns_sfw "http://ns.adobe.com/SaveForWeb/1.0/">
	<!ENTITY ns_custom "http://ns.adobe.com/GenericCustomNamespace/1.0/">
	<!ENTITY ns_adobe_xpath "http://ns.adobe.com/XPath/1.0/">
]>
<svg version="1.1" id="Layer_1" xmlns:x="&ns_extend;" xmlns:i="&ns_ai;" xmlns:graph="&ns_graphs;"
	 xmlns="http://www.w3.org/2000/svg" xmlns:xlink="http://www.w3.org/1999/xlink" x="0px" y="0px" viewBox="0 0 1125.6 332.6"
	 style="enable-background:new 0 0 1125.6 332.6;" xml:space="preserve">
<style type="text/css">
	.st0{fill:none;}
	.st1{fill:#FFFFFF;}
	.st2{fill-rule:evenodd;clip-rule:evenodd;fill:url(#SVGID_1_);}
	.st3{fill-rule:evenodd;clip-rule:evenodd;fill:url(#SVGID_2_);}
	.st4{fill-rule:evenodd;clip-rule:evenodd;fill:url(#SVGID_3_);}
	.st5{fill-rule:evenodd;clip-rule:evenodd;fill:url(#SVGID_4_);}
	.st6{fill-rule:evenodd;clip-rule:evenodd;fill:url(#SVGID_5_);}
	.st7{fill-rule:evenodd;clip-rule:evenodd;fill:url(#SVGID_6_);}
	.st8{fill-rule:evenodd;clip-rule:evenodd;fill:url(#SVGID_7_);}
	.st9{fill-rule:evenodd;clip-rule:evenodd;fill:url(#SVGID_8_);}
	.st10{fill-rule:evenodd;clip-rule:evenodd;fill:url(#SVGID_9_);}
	.st11{fill-rule:evenodd;clip-rule:evenodd;fill:url(#SVGID_10_);}
	.st12{fill-rule:evenodd;clip-rule:evenodd;fill:url(#SVGID_11_);}
	.st13{fill:#404040;}
	.st14{fill-rule:evenodd;clip-rule:evenodd;fill:url(#SVGID_12_);}
	.st15{fill-rule:evenodd;clip-rule:evenodd;fill:url(#SVGID_13_);}
	.st16{fill-rule:evenodd;clip-rule:evenodd;fill:url(#SVGID_14_);}
	.st17{fill-rule:evenodd;clip-rule:evenodd;fill:url(#SVGID_15_);}
	.st18{fill-rule:evenodd;clip-rule:evenodd;fill:url(#SVGID_16_);}
</style>
<metadata>
	<sfw  xmlns="&ns_sfw;">
		<slices></slices>
		<sliceSourceBounds  bottomLeftOrigin="true" height="500" width="1291.6" x="0.2" y="0"></sliceSourceBounds>
	</sfw>
</metadata>
<polygon class="st0" points="1208.6,415.6 -83,415.6 -83,-84.4 1208.6,-84.4 "/>
<path d="M1083.6,332.3H42c-22.9,0-41.7-18.8-41.7-41.7v-250C0.3,17.7,19-1.1,42-1.1h1041.7c22.9,0,41.7,18.7,41.7,41.7v250
	C1125.3,313.5,1106.5,332.3,1083.6,332.3z"/>
<path class="st1" d="M891.4,248.9H907V144.8h-15.6V248.9L891.4,248.9z M1031.5,182.3l-17.8,45.2h-0.5l-18.5-45.2h-16.8l27.7,63.1
	l-15.8,35.1h16.2l42.8-98.2H1031.5L1031.5,182.3z M943.3,237.1c-5.1,0-12.2-2.5-12.2-8.8c0-8,8.8-11.1,16.5-11.1
	c6.8,0,10,1.5,14.2,3.5C960.6,230.3,952.3,237.1,943.3,237.1z M945.2,180c-11.3,0-22.9,5-27.7,15.9l13.8,5.8c3-5.8,8.4-7.6,14.2-7.6
	c8,0,16.2,4.8,16.4,13.4v1.1c-2.8-1.6-8.8-4-16.2-4c-14.9,0-30,8.2-30,23.5c0,13.9,12.2,22.9,25.9,22.9c10.5,0,16.2-4.7,19.8-10.2
	h0.5v8h15v-39.9C976.8,190.3,963,180,945.2,180L945.2,180z M849.1,195H827v-35.7h22.1c11.6,0,18.2,9.6,18.2,17.9
	C867.3,185.2,860.7,195,849.1,195z M848.7,144.8h-37.3V249h15.5v-39.5h21.7c17.2,0,34.2-12.5,34.2-32.4
	C882.9,157.2,865.9,144.8,848.7,144.8z M645.5,237.1c-10.7,0-19.7-9-19.7-21.3c0-12.5,9-21.6,19.7-21.6c10.6,0,18.9,9.1,18.9,21.6
	C664.4,228.1,656.1,237.1,645.5,237.1z M663.4,188.1h-0.6c-3.5-4.2-10.2-7.9-18.7-7.9c-17.7,0-34,15.6-34,35.6
	c0,19.9,16.2,35.3,34,35.3c8.5,0,15.2-3.8,18.7-8.1h0.5v5.1c0,13.6-7.2,20.8-18.9,20.8c-9.5,0-15.4-6.8-17.9-12.6l-13.6,5.6
	c3.9,9.4,14.2,20.9,31.4,20.9c18.3,0,33.7-10.7,33.7-36.9v-63.6h-14.8v5.8L663.4,188.1L663.4,188.1z M688.9,248.9h15.6V144.8h-15.6
	V248.9z M727.4,214.6c-0.4-13.7,10.6-20.7,18.5-20.7c6.2,0,11.4,3.1,13.2,7.5L727.4,214.6L727.4,214.6z M775.7,202.8
	c-3-7.9-12-22.6-30.3-22.6S712,194.6,712,215.6c0,19.9,15,35.4,35.2,35.4c16.2,0,25.6-9.9,29.5-15.7l-12.1-8.1
	c-4,5.9-9.5,9.8-17.5,9.8c-7.9,0-13.6-3.6-17.2-10.7l47.4-19.6L775.7,202.8L775.7,202.8z M398.2,191.1v15h36
	c-1.1,8.5-3.9,14.6-8.2,18.9c-5.2,5.2-13.4,11-27.8,11c-22.2,0-39.5-17.9-39.5-40c0-22.2,17.3-40,39.5-40c12,0,20.7,4.7,27.1,10.7
	l10.6-10.6c-9-8.6-20.9-15.2-37.7-15.2c-30.3,0-55.8,24.7-55.8,55s25.5,55,55.8,55c16.4,0,28.7-5.4,38.4-15.4
	c9.9-9.9,13-23.9,13-35.2c0-3.5-0.3-6.7-0.8-9.4h-50.6L398.2,191.1L398.2,191.1z M490.5,237.1c-10.7,0-20-8.9-20-21.5
	c0-12.8,9.3-21.5,20-21.5s20,8.7,20,21.5C510.5,228.3,501.2,237.1,490.5,237.1L490.5,237.1z M490.5,180.2
	c-19.6,0-35.6,14.9-35.6,35.4c0,20.4,16,35.4,35.6,35.4s35.6-15,35.6-35.4C526.1,195.1,510.1,180.2,490.5,180.2z M568.1,237.1
	c-10.7,0-20-8.9-20-21.5c0-12.8,9.3-21.5,20-21.5s20,8.7,20,21.5C588.1,228.3,578.8,237.1,568.1,237.1L568.1,237.1z M568.1,180.2
	c-19.6,0-35.6,14.9-35.6,35.4c0,20.4,16,35.4,35.6,35.4s35.6-15,35.6-35.4C603.7,195.1,587.7,180.2,568.1,180.2z"/>
<linearGradient id="SVGID_1_" gradientUnits="userSpaceOnUse" x1="296866.4375" y1="284886.3438" x2="-312376.6875" y2="-324356.75" gradientTransform="matrix(9.997460e-06 0 0 -9.997460e-06 -643.0024 -1831.4177)">
	<stop  offset="0" style="stop-color:#00A0FF"/>
	<stop  offset="1.176470e-02" style="stop-color:#00A1FF"/>
	<stop  offset="0.2588" style="stop-color:#00BEFF"/>
	<stop  offset="0.5098" style="stop-color:#00D2FF"/>
	<stop  offset="0.7608" style="stop-color:#00DFFF"/>
	<stop  offset="1" style="stop-color:#00E3FF"/>
</linearGradient>
<path class="st2" d="M87.9,268.8l-0.6-0.6c-2.4-2.5-3.8-6.4-3.9-11.5v-0.2V74.7c0-5.6,1.7-9.8,4.5-12.3l103.2,103.2L87.9,268.8z
	 M83.4,256.5v0.2V256.5z M83.4,256.8v1V256.8z M83.4,74.7v-1.2V74.7z M83.4,73.5L83.4,73.5L83.4,73.5z M83.4,73.5
	C83.4,73.4,83.4,73.4,83.4,73.5L83.4,73.5z M83.4,73.4L83.4,73.4L83.4,73.4L83.4,73.4L83.4,73.4v-0.1l0,0l0,0l0,0l0,0l0,0l0,0l0,0
	l0,0l0,0l0,0l0,0l0,0l0,0l0,0l0,0l0,0l0,0l0,0l0,0l0,0l0,0l0,0l0,0l0,0l0,0l0,0l0,0l0,0l0,0l0,0l0,0l0,0l0,0l0,0l0,0l0,0l0,0l0,0
	l0,0l0,0l0,0l0,0l0,0l0,0l0,0l0,0l0,0l0,0l0,0l0,0l0,0l0,0l0,0l0,0l0,0l0,0l0,0l0,0l0,0l0,0l0,0l0,0l0,0l0,0l0,0l0,0l0,0l0,0l0,0
	l0,0l0,0l0,0l0,0l0,0l0,0l0,0l0,0l0,0l0,0l0,0l0,0l0,0l0,0l0,0l0,0l0,0l0,0l0,0l0,0l0,0l0,0l0,0l0,0l0,0l0,0l0,0l0,0l0,0l0,0l0,0
	l0,0l0,0l0,0l0,0l0,0l0,0l0,0l0,0l0,0l0,0l0,0l0,0l0,0l0,0l0,0l0,0l0,0l0,0l0,0l0,0l0,0l0,0l0,0l0,0l0,0l0,0l0,0l0,0l0,0l0,0l0,0
	l0,0l0,0l0,0l0,0l0,0l0,0l0,0l0,0l0,0l0,0l0,0l0,0l0,0l0,0l0,0l0,0l0,0V73.4L83.4,73.4L83.4,73.4L83.4,73.4L83.4,73.4z M83.4,72
	L83.4,72L83.4,72z"/>
<linearGradient id="SVGID_2_" gradientUnits="userSpaceOnUse" x1="322955.3438" y1="-16217.0742" x2="-354644.75" y2="-16217.0742" gradientTransform="matrix(9.997460e-06 0 0 -9.997460e-06 -643.0024 -1831.4177)">
	<stop  offset="0" style="stop-color:#FFE000"/>
	<stop  offset="0.4118" style="stop-color:#FFBD00"/>
	<stop  offset="0.7804" style="stop-color:#FFA500"/>
	<stop  offset="1" style="stop-color:#FF9C00"/>
</linearGradient>
<path class="st3" d="M225.5,201.3L225.5,201.3l0.8-0.4l40.8-23.2c3.9-2.2,6.5-4.9,7.8-7.7c-1.3,2.8-3.9,5.5-7.8,7.7l-40.8,23.2
	L225.5,201.3z M225.5,200l-34.4-34.4l34.4-34.4l41.6,23.6c5.3,3,8.2,6.9,8.7,10.8l0,0c-0.5,3.9-3.5,7.8-8.7,10.8L225.5,200z"/>
<linearGradient id="SVGID_3_" gradientUnits="userSpaceOnUse" x1="1060114.875" y1="1048086.6875" x2="278913.5938" y2="266865.0625" gradientTransform="matrix(9.997460e-06 0 0 -9.997460e-06 -643.0024 -1831.4177)">
	<stop  offset="0" style="stop-color:#FF3A44"/>
	<stop  offset="1" style="stop-color:#C31162"/>
</linearGradient>
<path class="st4" d="M95.2,272.8h-0.1l0,0H95l0,0h-0.1l0,0h-0.1l0,0h-0.1l0,0h-0.1l0,0h-0.1l0,0h-0.1l0,0h-0.1l0,0h-0.1l0,0h-0.1
	l0,0H94l0,0h-0.1l0,0h-0.1l0,0h-0.1l0,0h-0.1l0,0h-0.1l0,0h-0.1l0,0h-0.1l0,0h-0.1l0,0h-0.1l0,0H93l0,0h-0.1l0,0h-0.1l0,0h-0.1l0,0
	h-0.1l0,0h-0.1l0,0c-0.2-0.1-0.5-0.2-0.7-0.2l0,0l-0.6-0.2l0,0c-0.2-0.1-0.4-0.2-0.7-0.3l0,0l-0.1-0.1c-0.7-0.4-1.3-0.8-1.9-1.4l0,0
	c0.6,0.5,1.2,1,1.9,1.4l0.1,0.1l0,0c0.2,0.1,0.4,0.2,0.7,0.3l0,0l0.6,0.2l0,0c0.2,0.1,0.5,0.2,0.7,0.2l0,0h0.1l0,0h0.1l0,0h0.1l0,0
	h0.1l0,0H93l0,0h0.1l0,0h0.1l0,0h0.1l0,0h0.1l0,0h0.1l0,0h0.1l0,0h0.1l0,0h0.1l0,0h0.1l0,0H94l0,0h0.1l0,0h0.1l0,0h0.1l0,0h0.1l0,0
	h0.1l0,0h0.1l0,0h0.1l0,0h0.1l0,0h0.1l0,0H95l0,0H95.2L95.2,272.8L95.2,272.8L95.2,272.8L95.2,272.8L95.2,272.8z M95.3,272.8
	L95.3,272.8L95.3,272.8L95.3,272.8L95.3,272.8L95.3,272.8L95.3,272.8L95.3,272.8L95.3,272.8h0.1l0,0l0,0l0,0l0,0l0,0l0,0l0,0l0,0
	l0,0l0,0l0,0l0,0l0,0l0,0l0,0l0,0l0,0l0,0l0,0l0,0l0,0l0,0l0,0l0,0l0,0l0,0l0,0l0,0l0,0l0,0l0,0l0,0l0,0l0,0l0,0l0,0l0,0l0,0l0,0
	l0,0l0,0l0,0l0,0l0,0l0,0l0,0l0,0l0,0l0,0l0,0l0,0l0,0l0,0l0,0l0,0l0,0l0,0l0,0l0,0l0,0l0,0l0,0l0,0l0,0l0,0l0,0l0,0l0,0l0,0l0,0
	l0,0l0,0l0,0l0,0l0,0l0,0l0,0l0,0l0,0l0,0l0,0l0,0l0,0l0,0l0,0l0,0l0,0l0,0l0,0l0,0l0,0l0,0H95.3L95.3,272.8L95.3,272.8L95.3,272.8
	L95.3,272.8L95.3,272.8L95.3,272.8L95.3,272.8L95.3,272.8L95.3,272.8z M95.2,271.6c-2.9,0-5.4-0.9-7.4-2.7l0,0l103.3-103.3
	l34.4,34.4l0,0l-121,68.7C101.2,270.7,98.1,271.6,95.2,271.6L95.2,271.6z M87.9,270c-0.2-0.2-0.4-0.3-0.5-0.5L87.9,270z"/>
<linearGradient id="SVGID_4_" gradientUnits="userSpaceOnUse" x1="3874.3049" y1="-8020.8774" x2="3972.1687" y2="-8118.7407" gradientTransform="matrix(9.997460e-06 0 0 -9.997460e-06 -643.0024 -1831.4177)">
	<stop  offset="0" style="stop-color:#32A071"/>
	<stop  offset="7.058820e-02" style="stop-color:#2DA771"/>
	<stop  offset="0.4784" style="stop-color:#15CF74"/>
	<stop  offset="0.8" style="stop-color:#06E775"/>
	<stop  offset="1" style="stop-color:#00F076"/>
</linearGradient>
<path class="st5" d="M191.1,165.6L191.1,165.6L87.9,62.4c2-1.8,4.5-2.7,7.4-2.7c2.8,0,6,0.9,9.4,2.8l121,68.7L191.1,165.6
	L191.1,165.6z M226.3,130.4L104.6,61.2c-3.4-1.9-6.5-2.8-9.4-2.8l0,0l0,0c2.8,0,6,0.9,9.3,2.8L226.3,130.4L226.3,130.4z M95.2,58.4
	L95.2,58.4z"/>
<path d="M96,272.8c2.6-0.2,5.5-1.1,8.6-2.8l120.9-68.7l0,0L104.6,270C101.5,271.7,98.6,272.6,96,272.8z M87.9,270.1L87.9,270.1
	L87.9,270.1L87.9,270.1L87.9,270.1z M87.3,269.5L87.3,269.5L87.3,269.5L87.3,269.5z"/>
<linearGradient id="SVGID_5_" gradientUnits="userSpaceOnUse" x1="-12749.4258" y1="-16251.874" x2="-19042.3848" y2="-16251.874" gradientTransform="matrix(9.997460e-06 0 0 -9.997460e-06 -643.0024 -1831.4177)">
	<stop  offset="0" style="stop-color:#CCB300"/>
	<stop  offset="0.4118" style="stop-color:#CC9700"/>
	<stop  offset="0.7804" style="stop-color:#CC8400"/>
	<stop  offset="1" style="stop-color:#CC7D00"/>
</linearGradient>
<polygon class="st6" points="225.5,201.3 225.5,201.3 226.3,200.8 "/>
<linearGradient id="SVGID_6_" gradientUnits="userSpaceOnUse" x1="1060328.5" y1="1048253.875" x2="273735.9688" y2="261657.1719" gradientTransform="matrix(9.997460e-06 0 0 -9.997460e-06 -643.0024 -1831.4177)">
	<stop  offset="0" style="stop-color:#CC2E36"/>
	<stop  offset="1" style="stop-color:#9C0E4E"/>
</linearGradient>
<path class="st7" d="M95.3,272.8c-2.9,0-5.4-0.9-7.4-2.7l0,0l0,0l-0.5-0.5c0,0,0,0-0.1-0.1l0.6-0.6c2,1.8,4.5,2.7,7.4,2.7
	c2.8,0,6-0.9,9.3-2.8l121-68.7l0.8,0.8l-0.8,0.4L104.7,270c-3,1.7-6,2.6-8.6,2.8C95.8,272.8,95.5,272.8,95.3,272.8L95.3,272.8z"/>
<linearGradient id="SVGID_7_" gradientUnits="userSpaceOnUse" x1="3190.4011" y1="-8928.2549" x2="-18630.6797" y2="-30749.6855" gradientTransform="matrix(9.997460e-06 0 0 -9.997460e-06 -643.0024 -1831.4177)">
	<stop  offset="0" style="stop-color:#CC2E36"/>
	<stop  offset="1" style="stop-color:#9C0E4E"/>
</linearGradient>
<path class="st8" d="M87.3,269.5c-2.4-2.6-3.9-6.6-3.9-11.7l0,0C83.4,262.9,84.8,266.9,87.3,269.5L87.3,269.5L87.3,269.5L87.3,269.5
	z"/>
<linearGradient id="SVGID_8_" gradientUnits="userSpaceOnUse" x1="4940.4927" y1="-7177.3936" x2="-20381.8086" y2="-32499.6934" gradientTransform="matrix(9.997460e-06 0 0 -9.997460e-06 -643.0024 -1831.4177)">
	<stop  offset="0" style="stop-color:#008DE0"/>
	<stop  offset="1.176470e-02" style="stop-color:#008DE0"/>
	<stop  offset="0.2588" style="stop-color:#00A7E0"/>
	<stop  offset="0.5098" style="stop-color:#00B8E0"/>
	<stop  offset="0.7608" style="stop-color:#00C4E0"/>
	<stop  offset="1" style="stop-color:#00C7E0"/>
</linearGradient>
<path class="st9" d="M87.3,269.5L87.3,269.5c-2.4-2.6-3.9-6.5-3.9-11.7v-1.2c0,5.2,1.4,9.1,3.9,11.7l0.6,0.6L87.3,269.5z"/>
<linearGradient id="SVGID_9_" gradientUnits="userSpaceOnUse" x1="-7220.4336" y1="-19346.9473" x2="-7220.8574" y2="-19347.3711" gradientTransform="matrix(9.997460e-06 0 0 -9.997460e-06 -643.0024 -1831.4177)">
	<stop  offset="0" style="stop-color:#E0333C"/>
	<stop  offset="1" style="stop-color:#AB0F56"/>
</linearGradient>
<polygon class="st10" points="87.3,269.5 87.3,269.5 87.3,269.5 87.9,268.8 87.9,268.8 "/>
<linearGradient id="SVGID_10_" gradientUnits="userSpaceOnUse" x1="-7420.8589" y1="-19407.8281" x2="-7421.5654" y2="-19408.5352" gradientTransform="matrix(9.997460e-06 0 0 -9.997460e-06 -643.0024 -1831.4177)">
	<stop  offset="0" style="stop-color:#E0333C"/>
	<stop  offset="1" style="stop-color:#AB0F56"/>
</linearGradient>
<path class="st11" d="M274.9,169.9c0.6-1.4,1-2.9,1-4.3l0,0C275.8,167.1,275.5,168.5,274.9,169.9L274.9,169.9z"/>
<linearGradient id="SVGID_11_" gradientUnits="userSpaceOnUse" x1="185232.2656" y1="-16234.0244" x2="-216367.8438" y2="-16234.0244" gradientTransform="matrix(9.997460e-06 0 0 -9.997460e-06 -643.0024 -1831.4177)">
	<stop  offset="0" style="stop-color:#E0C500"/>
	<stop  offset="0.4118" style="stop-color:#E0A600"/>
	<stop  offset="0.7804" style="stop-color:#E09100"/>
	<stop  offset="1" style="stop-color:#E08900"/>
</linearGradient>
<path class="st12" d="M226.3,200.8L226.3,200.8l-0.8-0.8l41.5-23.6c5.3-3,8.2-6.9,8.7-10.8c0,1.4-0.3,2.9-1,4.3
	c-1.3,2.8-3.9,5.5-7.8,7.7L226.3,200.8L226.3,200.8z"/>
<path class="st13" d="M275.8,165.6L275.8,165.6c0-4.4-2.9-8.7-8.7-12l-40.8-23.2l0,0l0,0l40.8,23.2
	C272.9,156.9,275.8,161.2,275.8,165.6z"/>
<linearGradient id="SVGID_12_" gradientUnits="userSpaceOnUse" x1="185251.2188" y1="-16198.8242" x2="-217043.0313" y2="-16198.8242" gradientTransform="matrix(9.997460e-06 0 0 -9.997460e-06 -643.0024 -1831.4177)">
	<stop  offset="0" style="stop-color:#FFE840"/>
	<stop  offset="0.4118" style="stop-color:#FFCE40"/>
	<stop  offset="0.7804" style="stop-color:#FFBC40"/>
	<stop  offset="1" style="stop-color:#FFB540"/>
</linearGradient>
<path class="st14" d="M275.8,165.6c-0.5-3.9-3.5-7.8-8.7-10.8l-41.6-23.6l0.8-0.8l0,0l40.8,23.2
	C272.9,156.9,275.8,161.2,275.8,165.6L275.8,165.6z"/>
<linearGradient id="SVGID_13_" gradientUnits="userSpaceOnUse" x1="31292.0234" y1="-16116.7744" x2="-62307.9531" y2="-16116.7744" gradientTransform="matrix(9.997460e-06 0 0 -9.997460e-06 -643.0024 -1831.4177)">
	<stop  offset="0" style="stop-color:#FFE840"/>
	<stop  offset="0.4118" style="stop-color:#FFCE40"/>
	<stop  offset="0.7804" style="stop-color:#FFBC40"/>
	<stop  offset="1" style="stop-color:#FFB540"/>
</linearGradient>
<path class="st15" d="M83.4,73.4L83.4,73.4L83.4,73.4z M83.4,72.1C83.4,72.1,83.4,72,83.4,72.1C83.4,72,83.4,72.1,83.4,72.1z
	 M83.4,72L83.4,72L83.4,72z M83.4,72c0.5-8.6,5.1-13.5,11.7-13.5c-2.9,0-5.3,1-7.3,2.7l0,0l0,0c-0.2,0.2-0.4,0.4-0.6,0.6l0,0
	C85.1,64.1,83.7,67.5,83.4,72L83.4,72z"/>
<linearGradient id="SVGID_14_" gradientUnits="userSpaceOnUse" x1="4795.9468" y1="-7046.0264" x2="-20513.1758" y2="-32355.1484" gradientTransform="matrix(9.997460e-06 0 0 -9.997460e-06 -643.0024 -1831.4177)">
	<stop  offset="0" style="stop-color:#40B8FF"/>
	<stop  offset="1.176470e-02" style="stop-color:#40B9FF"/>
	<stop  offset="0.2588" style="stop-color:#40CEFF"/>
	<stop  offset="0.5098" style="stop-color:#40DDFF"/>
	<stop  offset="0.7608" style="stop-color:#40E7FF"/>
	<stop  offset="1" style="stop-color:#40EAFF"/>
</linearGradient>
<path class="st16" d="M83.4,74.7v-1.2l0,0l0,0c0-0.5,0-0.9,0-1.3l0,0l0,0l0,0l0,0c0.3-4.4,1.6-7.9,3.8-10.2l0.6,0.6
	C85.1,64.9,83.4,69.1,83.4,74.7z M87.3,61.8L87.3,61.8z M87.9,61.2L87.9,61.2L87.9,61.2z"/>
<linearGradient id="SVGID_15_" gradientUnits="userSpaceOnUse" x1="454.6235" y1="-15749.8242" x2="454.6235" y2="-15749.8242" gradientTransform="matrix(9.997460e-06 0 0 -9.997460e-06 -643.0024 -1831.4177)">
	<stop  offset="0" style="stop-color:#40B8FF"/>
	<stop  offset="1.176470e-02" style="stop-color:#40B9FF"/>
	<stop  offset="0.2588" style="stop-color:#40CEFF"/>
	<stop  offset="0.5098" style="stop-color:#40DDFF"/>
	<stop  offset="0.7608" style="stop-color:#40E7FF"/>
	<stop  offset="1" style="stop-color:#40EAFF"/>
</linearGradient>
<path class="st17" d="M95.2,58.4L95.2,58.4L95.2,58.4z"/>
<linearGradient id="SVGID_16_" gradientUnits="userSpaceOnUse" x1="3861.7312" y1="-8032.5967" x2="3960.0188" y2="-8130.8848" gradientTransform="matrix(9.997460e-06 0 0 -9.997460e-06 -643.0024 -1831.4177)">
	<stop  offset="0" style="stop-color:#65B895"/>
	<stop  offset="7.058820e-02" style="stop-color:#62BD95"/>
	<stop  offset="0.4784" style="stop-color:#50DB97"/>
	<stop  offset="0.8" style="stop-color:#44ED98"/>
	<stop  offset="1" style="stop-color:#40F498"/>
</linearGradient>
<path class="st18" d="M225.5,131.2l-121-68.7c-3.4-1.9-6.5-2.8-9.4-2.8s-5.4,0.9-7.4,2.7l-0.6-0.6l0,0c0.2-0.2,0.4-0.4,0.6-0.6l0,0
	c1.9-1.8,4.4-2.7,7.3-2.7l0,0l0,0l0,0c2.8,0,6,0.9,9.4,2.8l121.7,69.2l0,0L225.5,131.2L225.5,131.2z"/>
<path class="st1" d="M358.7,108.4c-3.6,0-6.7-1-9.3-3c-2.6-2-4.4-4.9-5.4-8.6l5.9-2.4c1.5,5.3,4.5,7.9,9.1,7.9c3,0,5.3-1,6.9-2.9
	s2.4-4.5,2.4-7.9V57.3h6.4v34.1c0,5.4-1.5,9.6-4.5,12.6S363.4,108.4,358.7,108.4L358.7,108.4z"/>
<path class="st1" d="M358.7,108.4v-0.8c-3.5,0-6.4-1-8.8-2.9l0,0c-2.4-1.9-4.1-4.6-5.2-8.1l-0.8,0.2l0.3,0.8l5.9-2.4l-0.3-0.8
	l-0.8,0.2c1.5,5.5,5,8.5,9.9,8.5c3.1,0,5.8-1.1,7.5-3.2c1.8-2.1,2.6-5,2.6-8.4V58.1h4.8v33.2c0,5.3-1.4,9.2-4.3,12
	s-6.4,4.2-10.9,4.2v1.7c4.8,0,8.9-1.6,12.1-4.7c3.2-3.1,4.8-7.6,4.8-13.2V56.4h-8.1v35.1c0,3.2-0.8,5.6-2.2,7.3
	c-1.4,1.7-3.4,2.6-6.2,2.6c-4.2,0-6.9-2.2-8.3-7.3l-0.3-0.9l-6.7,2.8l-0.7,0.3l0.2,0.7c1.1,3.8,3,6.8,5.7,9l0,0
	c2.7,2.1,6,3.2,9.8,3.2V108.4L358.7,108.4z"/>
<polygon class="st1" points="414.5,63.4 391.8,63.4 391.8,79.3 412.3,79.3 412.3,85.3 391.8,85.3 391.8,101.1 414.5,101.1 
	414.5,107.3 385.3,107.3 385.3,57.3 414.5,57.3 "/>
<polygon class="st1" points="414.5,63.4 414.5,62.6 390.9,62.6 390.9,80.1 411.4,80.1 411.4,84.4 390.9,84.4 390.9,102 413.7,102 
	413.7,106.4 386.2,106.4 386.2,58.1 413.7,58.1 413.7,63.4 414.5,63.4 414.5,62.6 414.5,63.4 415.4,63.4 415.4,56.4 384.5,56.4 
	384.5,108.1 415.4,108.1 415.4,100.3 392.6,100.3 392.6,86.1 413.1,86.1 413.1,78.4 392.6,78.4 392.6,64.2 415.4,64.2 415.4,63.4 
	"/>
<polygon class="st1" points="441.6,107.3 435.2,107.3 435.2,63.4 421.2,63.4 421.2,57.3 455.6,57.3 455.6,63.4 441.6,63.4 "/>
<polygon class="st1" points="441.6,107.3 441.6,106.4 436,106.4 436,62.6 422.1,62.6 422.1,58.1 454.7,58.1 454.7,62.6 440.8,62.6 
	440.8,107.3 441.6,107.3 441.6,106.4 441.6,107.3 442.4,107.3 442.4,64.2 456.4,64.2 456.4,56.4 420.4,56.4 420.4,64.2 434.3,64.2 
	434.3,108.1 442.4,108.1 442.4,107.3 "/>
<polygon class="st1" points="460.9,107.3 460.9,100.6 487.5,63.4 462,63.4 462,57.3 495,57.3 495,64 468.4,101.1 495.3,101.1 
	495.3,107.3 "/>
<polygon class="st1" points="460.9,107.3 461.7,107.3 461.7,100.8 489.1,62.6 462.8,62.6 462.8,58.1 494.1,58.1 494.1,63.7 
	466.7,102 494.4,102 494.4,106.4 460.9,106.4 460.9,107.3 461.7,107.3 460.9,107.3 460.9,108.1 496.1,108.1 496.1,100.3 470,100.3 
	495.8,64.2 495.8,56.4 461.2,56.4 461.2,64.2 485.9,64.2 460.1,100.3 460.1,108.1 460.9,108.1 "/>
<polygon class="st1" points="521.5,107.3 515.1,107.3 515.1,63.4 501.1,63.4 501.1,57.3 535.5,57.3 535.5,63.4 521.5,63.4 "/>
<polygon class="st1" points="521.5,107.3 521.5,106.4 515.9,106.4 515.9,62.6 501.9,62.6 501.9,58.1 534.6,58.1 534.6,62.6 
	520.7,62.6 520.7,107.3 521.5,107.3 521.5,106.4 521.5,107.3 522.3,107.3 522.3,64.2 536.3,64.2 536.3,56.4 500.3,56.4 500.3,64.2 
	514.2,64.2 514.2,108.1 522.3,108.1 522.3,107.3 "/>
<path class="st1" d="M566.8,101.1h12.9c2.5,0,4.5-0.9,6-2.6c1.5-1.7,2.3-3.6,2.3-5.7c0-2-0.8-3.9-2.4-5.6c-1.6-1.7-3.7-2.6-6.2-2.6
	h-12.6V101.1L566.8,101.1z M566.8,78.7h11.7c2.4,0,4.4-0.8,5.8-2.4c1.5-1.6,2.2-3.4,2.2-5.3c0-1.9-0.7-3.7-2.1-5.2
	c-1.4-1.6-3.3-2.4-5.6-2.4h-12L566.8,78.7L566.8,78.7z M560.3,107.3v-50h18.1c3.9,0,7.3,1.3,10.2,3.9c2.9,2.6,4.3,5.8,4.3,9.7
	c0,2.4-0.6,4.5-1.9,6.3c-1.2,1.8-2.9,3.2-4.9,4.1v0.3c2.5,0.8,4.5,2.3,6.1,4.3c1.6,2.1,2.4,4.4,2.4,7.1c0,4.1-1.5,7.5-4.5,10.2
	s-6.6,4.1-10.7,4.1L560.3,107.3L560.3,107.3z"/>
<path class="st1" d="M566.8,101.1v0.8h12.9c2.7,0,4.9-1,6.6-2.9l0,0c1.6-1.8,2.5-3.9,2.5-6.2s-0.9-4.4-2.6-6.2l0,0
	c-1.7-1.9-4.1-2.8-6.8-2.8h-13.5v18.1h0.8L566.8,101.1h0.8V85.5h11.8c2.4,0,4.2,0.8,5.6,2.3l0,0c1.5,1.6,2.1,3.2,2.2,5.1
	c0,1.8-0.7,3.5-2.1,5.1l0,0c-1.4,1.5-3.1,2.3-5.4,2.3h-12.9V101.1h0.8H566.8L566.8,101.1z M566.8,78.7v0.8h11.7
	c2.6,0,4.8-0.9,6.5-2.7l0,0c1.6-1.7,2.4-3.7,2.4-5.8s-0.8-4.1-2.3-5.8l0,0c-1.6-1.8-3.7-2.7-6.2-2.7h-12.8v17h0.8v-0.8h0.8V64.2
	h11.1c2.1,0,3.7,0.7,5,2.1l0,0c1.3,1.5,1.9,3,1.9,4.7s-0.6,3.2-2,4.7l0,0c-1.3,1.4-3,2.1-5.2,2.1h-11.7V78.7h0.8H566.8z
	 M560.3,107.3h0.8V58.1h17.2c3.7,0,6.9,1.2,9.6,3.7l0,0c2.7,2.5,4,5.4,4,9.1c0,2.2-0.6,4.1-1.7,5.8l0,0c-1.1,1.7-2.7,3-4.6,3.8
	l-0.5,0.2v1.4l0.6,0.2c2.3,0.8,4.2,2.1,5.7,4.1l0,0c1.5,1.9,2.2,4.1,2.2,6.6c0,3.9-1.4,7-4.2,9.6c-2.9,2.6-6.2,3.8-10.1,3.8h-19.1
	L560.3,107.3h0.7H560.3v0.8h19.1c4.3,0,8.1-1.4,11.2-4.3c3.2-2.8,4.8-6.5,4.8-10.8c0-2.9-0.9-5.4-2.5-7.6l0,0
	c-1.7-2.2-3.9-3.7-6.5-4.6l-0.3,0.8h0.8v-0.3h-0.8l0.3,0.8c2.2-1,4-2.5,5.3-4.4l0,0c1.3-2,2-4.2,2-6.8c0-4.1-1.5-7.6-4.6-10.4l0,0
	l0,0c-3-2.7-6.6-4.1-10.7-4.1h-18.9v51.7h0.8L560.3,107.3L560.3,107.3z"/>
<polygon class="st1" points="632.4,63.4 609.6,63.4 609.6,79.3 630.2,79.3 630.2,85.3 609.6,85.3 609.6,101.1 632.4,101.1 
	632.4,107.3 603.2,107.3 603.2,57.3 632.4,57.3 "/>
<polygon class="st1" points="632.4,63.4 632.4,62.6 608.8,62.6 608.8,80.1 629.3,80.1 629.3,84.4 608.8,84.4 608.8,102 631.6,102 
	631.6,106.4 604,106.4 604,58.1 631.6,58.1 631.6,63.4 632.4,63.4 632.4,62.6 632.4,63.4 633.2,63.4 633.2,56.4 602.4,56.4 
	602.4,108.1 633.2,108.1 633.2,100.3 610.5,100.3 610.5,86.1 631,86.1 631,78.4 610.5,78.4 610.5,64.2 633.2,64.2 633.2,63.4 "/>
<polygon class="st1" points="642.5,107.3 648.9,107.3 648.9,57.3 642.5,57.3 "/>
<polygon class="st1" points="642.5,107.3 643.3,107.3 643.3,58.1 648,58.1 648,106.4 642.5,106.4 642.5,107.3 643.3,107.3 
	642.5,107.3 642.5,108.1 649.7,108.1 649.7,56.4 641.6,56.4 641.6,108.1 642.5,108.1 "/>
</svg>
