<?xml version="1.0" encoding="utf-8"?>
<!-- Generator: Adobe Illustrator 23.0.1, SVG Export Plug-In . SVG Version: 6.00 Build 0)  -->
<!DOCTYPE svg PUBLIC "-//W3C//DTD SVG 1.1//EN" "http://www.w3.org/Graphics/SVG/1.1/DTD/svg11.dtd" [
	<!ENTITY ns_extend "http://ns.adobe.com/Extensibility/1.0/">
	<!ENTITY ns_ai "http://ns.adobe.com/AdobeIllustrator/10.0/">
	<!ENTITY ns_graphs "http://ns.adobe.com/Graphs/1.0/">
	<!ENTITY ns_vars "http://ns.adobe.com/Variables/1.0/">
	<!ENTITY ns_imrep "http://ns.adobe.com/ImageReplacement/1.0/">
	<!ENTITY ns_sfw "http://ns.adobe.com/SaveForWeb/1.0/">
	<!ENTITY ns_custom "http://ns.adobe.com/GenericCustomNamespace/1.0/">
	<!ENTITY ns_adobe_xpath "http://ns.adobe.com/XPath/1.0/">
]>
<svg version="1.1" id="Layer_1" xmlns:x="&ns_extend;" xmlns:i="&ns_ai;" xmlns:graph="&ns_graphs;"
	 xmlns="http://www.w3.org/2000/svg" xmlns:xlink="http://www.w3.org/1999/xlink" x="0px" y="0px" viewBox="0 0 1269.9 162.9"
	 style="enable-background:new 0 0 1269.9 162.9;" xml:space="preserve">
<style type="text/css">
	.st0{fill:#6E6E6E;}
	.st1{fill:#A3A3A3;}
	.st2{fill:#848484;}
	.st3{fill:#282828;}
	.st4{fill:none;}
	.st5{fill:#1C4695;}
</style>
<metadata>
	<sfw  xmlns="&ns_sfw;">
		<slices></slices>
		<sliceSourceBounds  bottomLeftOrigin="true" height="710.7" width="2302.5" x="-1044.4" y="-550.3"></sliceSourceBounds>
	</sfw>
</metadata>
<path class="st0" d="M-1043.5,705.2c-0.3,2.7,1.3,5.6-0.8,8c0-2.7,0-5.3,0-8C-1044.1,704.8-1043.8,704.8-1043.5,705.2z"/>
<path class="st1" d="M-1044.4,694.2c2.2,1.7,0.5,4,0.8,6c-0.3,0.5-0.5,0.5-0.8,0C-1044.4,698.2-1044.4,696.2-1044.4,694.2z"/>
<path class="st2" d="M-1044.4,700.2c0.3,0,0.6,0,0.8,0c0,1.7,0,3.3,0,5c-0.3,0-0.6,0-0.8,0C-1044.4,703.6-1044.4,701.9-1044.4,700.2
	z"/>
<g>
	<g>
		<path class="st3" d="M284.8,94.3h-47.3v56h-38.8V10.8h38.8v52.5h47.3V10.8h38.8v139.6h-38.8V94.3z"/>
		<path class="st3" d="M434.1,127.6h-49.5l-7.5,22.8h-40.8l50.9-139.6H432l50.7,139.6h-41L434.1,127.6z M409.4,52.8L394.5,98h29.9
			L409.4,52.8z"/>
		<path class="st3" d="M494.7,10.8h38.6v81c0,14.5,6.5,23.6,21.2,23.6s21.6-9.1,21.6-23.6v-81h38.8v81c0,39.8-27.7,60-61.2,60
			c-33.7,0-59-20.2-59-60L494.7,10.8L494.7,10.8z"/>
		<path class="st3" d="M689,151.8c-31.1,0-55.3-14.9-56.8-44.8h41.4c0.8,10.5,6.9,14.1,14.1,14.1c6.9,0,12.3-3.6,12.3-10.1
			c-0.2-22.4-67.9-11.9-67.3-60.4c0-27.3,22.8-42,52.3-42c32.1,0,53.1,15.6,54.5,43.4h-42.2c-0.4-8.7-5.7-12.7-12.9-12.7
			c-5.7-0.2-10.3,3.2-10.3,9.9c0,20.8,67.1,14.1,67.1,58.8C741.1,132.6,722.1,151.8,689,151.8z"/>
		<path class="st3" d="M845.2,94.3h-47.3v56h-38.8V10.8h38.8v52.5h47.3V10.8H884v139.6h-38.8V94.3z"/>
		<path class="st3" d="M994.5,127.6H945l-7.5,22.8h-40.8l50.9-139.6h44.8l50.7,139.6h-41L994.5,127.6z M969.8,52.8L954.9,98h29.9
			L969.8,52.8z"/>
		<path class="st3" d="M1094.5,10.8v109.9h43.4v29.7h-82.2V10.8H1094.5z"/>
		<path class="st3" d="M1145.2,10.8h112.9v30.9h-37.2v108.7h-38.8V41.7h-36.8L1145.2,10.8L1145.2,10.8z"/>
	</g>
	<g>
		<path class="st4" d="M89.1,11.5c-39.4,0-71.4,32-71.4,71.4s32,71.4,71.4,71.4c9.4,0,18.3-1.8,26.6-5.1c-7.3-5.8-12-14.7-12-24.7
			c0-17.3,14.1-31.4,31.4-31.4c8.9,0,16.9,3.7,22.6,9.6c1.8-6.3,2.8-12.9,2.8-19.8C160.5,43.6,128.4,11.5,89.1,11.5z"/>
		<path class="st5" d="M89.1,154.3c-39.4,0-71.4-32-71.4-71.4s32-71.4,71.4-71.4s71.4,32,71.4,71.4c0,6.9-1,13.5-2.8,19.8
			c2.6,2.7,4.8,5.9,6.3,9.4c3.6-9.1,5.5-18.9,5.5-29.2c0-44.3-36.1-80.4-80.4-80.4C44.7,2.5,8.7,38.6,8.7,82.9s36.1,80.4,80.4,80.4
			c13.2,0,25.6-3.2,36.6-8.8c-3.7-1.2-7.1-3-10-5.3C107.4,152.5,98.5,154.3,89.1,154.3z"/>
	</g>
	<path class="st5" d="M137.3,161c-18.8,0-34.1-15.3-34.1-34.1s15.3-34.1,34.1-34.1s34.1,15.3,34.1,34.1S156.1,161,137.3,161z
		 M137.3,97.6c-16.1,0-29.3,13.1-29.3,29.3c0,16.1,13.1,29.3,29.3,29.3c16.1,0,29.3-13.1,29.3-29.3S153.4,97.6,137.3,97.6z"/>
	<g>
		<path class="st3" d="M142,111.7v11.6h11.3v7.3H142v11.6h-7.9v-11.6h-11.3v-7.3h11.3v-11.6C134.1,111.7,142,111.7,142,111.7z"/>
	</g>
	<g>
		<path class="st5" d="M107.9,97.8c-0.3-1.1-0.6-2.2-1.1-3.2c-2.3-5.1-6.2-8.4-11.4-10.4c-0.8-0.4-1.8-0.5-2.7-0.7l0,0
			c-0.5-0.4-1.1-0.2-1.6-0.2c-4.8,0-9.7,0-14.5,0c-1.3,0-2.5,0.2-3.7,0.6c-0.1,0.1-0.3,0.2-0.4,0.2c-7.6,2.2-12.8,8.3-13.6,16.1
			c-0.5,5.1-0.1,10.2-0.2,15.3c-0.1,1.4,0.4,1.9,1.7,2.3c9.6,2.8,19.3,4.4,29.3,3.7c3.5-0.3,5.2-0.7,8.6-1.6
			c-0.1-0.8,0.2-1.2,0.4-2.4C99.9,109.8,103,103,107.9,97.8z"/>
		<path class="st5" d="M70,81.5c1.4-0.5,1.1-0.9,0.4-1.8c-2.5-2.9-4-6.4-4.4-10.2c-0.1-0.9-0.6-1.3-1.3-1.3
			c-2.4,0.2-4.8-0.4-7.2-0.3c-1.4,0.1-2.7,0.3-4.1,0.3c-2.5,0-5,0.3-7.4,1c-6.9,2.2-12.6,9.7-12.6,17c0,4.9,0,9.8,0,14.7
			c0,0.5-0.2,1,0.2,1.4c6.4,1.9,12.8,3.5,19.5,4c2.5,0.2,2.6,0.2,2.5-2.4c-0.1-4.3,0.4-8.5,2.6-12.2C60.9,87.1,64.7,83.4,70,81.5z"
			/>
		<path class="st5" d="M132.3,84.7c0,0-3.1-9-6.8-12.3c-2.3-2.3-5.2-3.4-8.3-3.9c-4.8-0.7-9.7-0.7-14.5-0.4
			c-1.2,0.1-1.3,0.8-1.4,1.6c-0.1,2-0.8,4-1.6,5.8c-0.8,1.8-2.1,3.2-3.2,4.8c-0.1,1.1,0.9,0.9,1.5,1.2c6.3,2.7,10.6,7.2,12.8,13.6
			c5-4,9.3-5.2,15.8-6.6c2.4-0.5,5-0.7,7-0.6"/>
		<path class="st5" d="M69.2,69.7c0.8,5.6,4,9.4,9,11.7c2.8,1.2,5.6,1.5,8.6,0.6c0.1-0.1,0.3-0.2,0.4-0.2c8.8-2.4,13.2-11.7,9.6-20
			c-2.9-6.5-10.4-10-17.3-7.9C72.7,56,68.2,62.8,69.2,69.7z"/>
		<path class="st5" d="M50.8,63.7c0,0.1,0.1,0.2,0.2,0.3c4.5,2.5,9.1,2.6,13.7,0.2c0.6-0.3,1.3-0.7,1.4-1.5c0.2-1.9,1.2-3.5,1.8-5.3
			c0.7-1.8,2-3.3,3.5-4.5c1-0.8,1.3-1.6,1.2-2.8c-0.5-7.5-7.1-13.7-14.6-13.6c-7.7,0.1-14.2,6.3-14.4,13.8
			C43.4,56.2,46,60.6,50.8,63.7z"/>
		<path class="st5" d="M94.3,51.7c4.1,3.1,6.6,7.2,7.1,12.3c0.3,0.6,0.9,0.7,1.5,0.9c3.3,1.4,6.6,1.1,9.9-0.1
			c6.7-2.4,10.1-9.2,9.6-14.7c-0.5-6-3.6-10.5-9.4-12.8c-4.2-1.7-8.3-1.5-12.3,0.8c-4,2.6-6.8,6-7.5,10.9
			C93.1,50.3,93.3,51,94.3,51.7z"/>
		<path class="st5" d="M107.9,97.8c-0.3-1.1-0.6-2.2-1.1-3.2c-2.3-5.1-6.2-8.4-11.4-10.4c-0.8-0.4-1.8-0.5-2.7-0.7l0,0
			c-0.5-0.4-1.1-0.2-1.6-0.2c-4.8,0-9.7,0-14.5,0c-1.3,0-2.5,0.2-3.7,0.6c-0.1,0.1-0.3,0.2-0.4,0.2c-7.6,2.2-12.8,8.3-13.6,16.1
			c-0.5,5.1-0.1,10.2-0.2,15.3c-0.1,1.4,0.4,1.9,1.7,2.3c9.6,2.8,19.3,4.4,29.3,3.7c3.5-0.3,8.4-0.3,8.6-1.6
			c0.2-0.9,0.2-1.2,0.4-2.4C99.9,109.8,103,103,107.9,97.8z"/>
		<path class="st5" d="M89.7,121.6c3.5-0.3,8.5-0.5,8.6-1.6"/>
		<path class="st5" d="M89.7,121.6c3.5-0.3,8.5-0.4,8.6-1.6"/>
	</g>
</g>
</svg>
