<svg width="25" height="25" viewBox="0 0 25 25" fill="none" xmlns="http://www.w3.org/2000/svg">
<path d="M15.168 16.0352C14.9805 16.207 14.7461 16.3919 14.4648 16.5898C14.1888 16.7826 13.8893 16.9622 13.5664 17.1289C13.2435 17.2904 12.9128 17.4258 12.5742 17.5352C12.2409 17.6445 11.9232 17.6992 11.6211 17.6992C11.3503 17.6992 11.1211 17.6628 10.9336 17.5898C10.7513 17.5117 10.6029 17.4049 10.4883 17.2695C10.3737 17.1341 10.2904 16.9701 10.2383 16.7773C10.1914 16.5794 10.168 16.3633 10.168 16.1289C10.168 15.8008 10.2044 15.418 10.2773 14.9805C10.4232 14.1367 10.5169 13.6628 10.5586 13.5586C10.6315 13.3294 10.7773 12.8216 10.9961 12.0352C11.1732 11.3789 11.2826 10.9518 11.3242 10.7539C11.3503 10.6237 11.4232 10.5065 11.543 10.4023C11.6523 10.3086 11.7747 10.2331 11.9102 10.1758C12.0508 10.1133 12.194 10.069 12.3398 10.043C12.4909 10.0117 12.6263 9.99609 12.7461 9.99609C12.9648 9.99609 13.1133 10.0378 13.1914 10.1211C13.2695 10.1992 13.3086 10.306 13.3086 10.4414C13.3086 10.556 13.2826 10.7227 13.2305 10.9414C13.1784 11.1549 13.1133 11.3997 13.0352 11.6758C12.957 11.9466 12.8581 12.2747 12.7383 12.6602C12.6185 13.0404 12.5195 13.3893 12.4414 13.707C12.3633 14.0195 12.2982 14.3268 12.2461 14.6289C12.194 14.9258 12.168 15.194 12.168 15.4336C12.168 15.668 12.194 15.8555 12.2461 15.9961C12.2982 16.1315 12.4049 16.1992 12.5664 16.1992C12.7539 16.1992 12.9622 16.1341 13.1914 16.0039C13.4206 15.8737 13.6523 15.7174 13.8867 15.5352C14.1211 15.3477 14.3503 15.1549 14.5742 14.957C14.7982 14.7591 14.9961 14.5898 15.168 14.4492V16.0352ZM11.6758 7.84766C11.6758 7.72786 11.7018 7.59245 11.7539 7.44141C11.806 7.29036 11.8893 7.14974 12.0039 7.01953C12.1237 6.88411 12.2799 6.77214 12.4727 6.68359C12.6706 6.58984 12.9154 6.54297 13.207 6.54297C13.3893 6.54297 13.5612 6.5638 13.7227 6.60547C13.8841 6.64714 14.0247 6.71224 14.1445 6.80078C14.2643 6.88411 14.3581 6.99609 14.4258 7.13672C14.4987 7.27734 14.5352 7.44401 14.5352 7.63672C14.5352 7.8138 14.5065 7.98568 14.4492 8.15234C14.3919 8.31901 14.3008 8.46745 14.1758 8.59766C14.0508 8.72786 13.8919 8.83464 13.6992 8.91797C13.5117 8.99609 13.2852 9.03516 13.0195 9.03516C12.5612 9.03516 12.2227 8.92839 12.0039 8.71484C11.7852 8.49609 11.6758 8.20703 11.6758 7.84766Z" fill="#059DE3"/>
<path d="M21.7721 17.0708C22.4134 17.386 23.1963 17.1234 23.4382 16.451C24.2771 14.1197 24.3509 11.5684 23.6286 9.17463C22.7812 6.36594 20.9008 3.98278 18.3662 2.50526C15.8317 1.02774 12.8314 0.56567 9.96976 1.21213C7.10812 1.8586 4.59781 3.56555 2.94455 5.98912C1.2913 8.41268 0.617972 11.3727 1.06021 14.273C1.50245 17.1732 3.0274 19.7981 5.32784 21.6188C7.62827 23.4394 10.5332 24.3207 13.4575 24.0849C15.9498 23.8839 18.2982 22.8843 20.1628 21.2526C20.7005 20.782 20.6594 19.9573 20.1319 19.4753V19.4753C19.6044 18.9932 18.791 19.0387 18.2385 19.4918C16.8273 20.649 15.0888 21.3573 13.2495 21.5056C10.9777 21.6888 8.7209 21.0042 6.93373 19.5897C5.14656 18.1753 3.96186 16.136 3.61829 13.8829C3.27472 11.6298 3.79782 9.33015 5.0822 7.44733C6.36658 5.5645 8.3168 4.2384 10.54 3.73617C12.7631 3.23395 15.094 3.59292 17.063 4.74078C19.0321 5.88864 20.4929 7.74007 21.1513 9.9221C21.6843 11.6887 21.6592 13.5658 21.0967 15.3019C20.8764 15.9816 21.1308 16.7555 21.7721 17.0708V17.0708Z" fill="url(#paint0_linear_1800_6)"/>
<defs>
<linearGradient id="paint0_linear_1800_6" x1="17.6422" y1="2.11688" x2="7.40847" y2="22.9326" gradientUnits="userSpaceOnUse">
<stop stop-color="#1454A7"/>
<stop offset="1" stop-color="#02A9ED"/>
</linearGradient>
</defs>
</svg>
