<svg id="Layer_1" data-name="Layer 1" xmlns="http://www.w3.org/2000/svg" viewBox="0 0 1187 1280"><defs><style>.cls-1{fill:#184397;}.cls-2{fill:none;}</style></defs><title>i icon</title><path class="cls-1" d="M631.47,71c20.11,2.86,40.3,5.19,60.3,8.67,118.66,20.65,220.53,74,305.37,159.23,89.47,89.84,144.41,197.84,160.66,323.62,22.78,176.35-25.64,332-145.23,463.76-87.94,97-197.86,156.33-327.1,176.81-150,23.77-289.45-6.34-414.5-93.23C133.49,1014.39,51.57,882.49,29,716.62-6.6,455,141.12,206.32,386.55,109.86A553.94,553.94,0,0,1,547.28,72.93c2.87-.22,5.68-1.25,8.51-1.89ZM411.59,678.82c4-2.43,7-4.7,10.35-6.2,25-11.15,49.74-22.75,75.1-32.91,11.37-4.56,15.13-.79,14.19,11.3a112.16,112.16,0,0,1-3.18,17.45c-17.15,70.89-34.64,141.7-51.45,212.67-6.06,25.6-11.14,51.57-5.47,78.1,5.05,23.6,20.22,36.88,44.39,37.41a123.1,123.1,0,0,0,31.86-3.57c67.37-16.65,124.48-52.39,176.85-96.59,10.95-9.25,21.22-19.31,31.95-29.13l-22.33-29.73c-3.8,2.62-6.62,4.93-9.76,6.69-19,10.65-37.69,22.06-57.37,31.32-8,3.75-18.2,2.73-27.4,3.87-.68-9.66-3.87-19.94-1.64-28.88,16.88-67.9,34.64-135.57,52.51-203.22,7.69-29.12,14.79-58.21,12.52-88.68-2.15-28.94-18.05-42.34-46.47-38.61a197.36,197.36,0,0,0-29.37,5.8c-52,15.17-99.61,39.94-144.74,69.4-24.07,15.72-47,33.25-70.85,50.3ZM616.71,425.21c61,.33,102.44-34.46,107.3-87.67,3.91-42.92-19.75-71.91-62.54-75.58a147.65,147.65,0,0,0-34.33,1c-38.28,5.76-67.3,24.89-81.26,62.17-18.6,49.68,5.36,91.44,56.06,99.09C607.78,425.06,613.76,425,616.71,425.21Z"/><rect class="cls-2" width="1187" height="1280"/></svg>