<?xml version="1.0" encoding="utf-8"?>
<!-- Generator: Adobe Illustrator 23.0.1, SVG Export Plug-In . SVG Version: 6.00 Build 0)  -->
<!DOCTYPE svg PUBLIC "-//W3C//DTD SVG 1.1//EN" "http://www.w3.org/Graphics/SVG/1.1/DTD/svg11.dtd" [
	<!ENTITY ns_extend "http://ns.adobe.com/Extensibility/1.0/">
	<!ENTITY ns_ai "http://ns.adobe.com/AdobeIllustrator/10.0/">
	<!ENTITY ns_graphs "http://ns.adobe.com/Graphs/1.0/">
	<!ENTITY ns_vars "http://ns.adobe.com/Variables/1.0/">
	<!ENTITY ns_imrep "http://ns.adobe.com/ImageReplacement/1.0/">
	<!ENTITY ns_sfw "http://ns.adobe.com/SaveForWeb/1.0/">
	<!ENTITY ns_custom "http://ns.adobe.com/GenericCustomNamespace/1.0/">
	<!ENTITY ns_adobe_xpath "http://ns.adobe.com/XPath/1.0/">
]>
<svg version="1.1" id="Layer_1" xmlns:x="&ns_extend;" xmlns:i="&ns_ai;" xmlns:graph="&ns_graphs;"
	 xmlns="http://www.w3.org/2000/svg" xmlns:xlink="http://www.w3.org/1999/xlink" x="0px" y="0px" viewBox="0 0 1125.6 335.4"
	 style="enable-background:new 0 0 1125.6 335.4;" xml:space="preserve">
<style type="text/css">
	.st0{fill:#FFFFFF;}
</style>
<metadata>
	<sfw  xmlns="&ns_sfw;">
		<slices></slices>
		<sliceSourceBounds  bottomLeftOrigin="true" height="333.4" width="1125.1" x="83.5" y="83.3"></sliceSourceBounds>
	</sfw>
</metadata>
<path d="M1083.6,335.1H42c-22.9,0-41.7-18.8-41.7-41.7v-250C0.3,20.5,19,1.7,42,1.7h1041.7c22.9,0,41.7,18.7,41.7,41.7v250
	C1125.3,316.3,1106.5,335.1,1083.6,335.1z"/>
<g>
	<g>
		<g id="_Group_">
			<g id="_Group_2">
				<g id="_Group_3">
					<path id="_Path_" class="st0" d="M253,170c0.2-14.9,8-28.6,20.7-36.4c-8-11.5-21-18.5-35-18.9c-14.7-1.5-29,8.8-36.5,8.8
						c-7.6,0-19.2-8.7-31.6-8.4c-16.4,0.5-31.2,9.6-39.2,23.9c-17,29.4-4.3,72.5,11.9,96.2c8.1,11.6,17.6,24.6,30,24.1
						c12.2-0.5,16.7-7.8,31.4-7.8c14.5,0,18.8,7.8,31.5,7.5c13-0.2,21.3-11.7,29.1-23.4c5.8-8.3,10.3-17.4,13.3-27.1
						C263.1,202,253,186.9,253,170z"/>
					<path id="_Path_2" class="st0" d="M229,99.1c7.1-8.5,10.6-19.5,9.8-30.6c-10.9,1.1-20.9,6.3-28.1,14.5
						c-7.1,8.1-10.7,18.7-10,29.5C211.7,112.6,222.1,107.7,229,99.1z"/>
				</g>
			</g>
			<g>
				<path class="st0" d="M406.7,230h-41.5l-10,29.4h-17.6l39.3-108.9h18.3l39.3,108.9h-17.9L406.7,230z M369.5,216.4h32.9
					l-16.2-47.8h-0.5L369.5,216.4z"/>
				<path class="st0" d="M519.4,219.7c0,24.7-13.2,40.5-33.1,40.5c-10.3,0.5-20-4.9-25-13.9h-0.4v39.3h-16.3V180h15.8v13.2h0.3
					c5.2-9,14.9-14.4,25.3-14C506.1,179.2,519.4,195.1,519.4,219.7z M502.6,219.7c0-16.1-8.3-26.6-21-26.6
					c-12.4,0-20.8,10.8-20.8,26.6c0,16,8.4,26.7,20.8,26.7C494.3,246.4,502.6,235.9,502.6,219.7z"/>
				<path class="st0" d="M606.7,219.7c0,24.7-13.2,40.5-33.1,40.5c-10.3,0.5-20-4.9-25-13.9h-0.4v39.3h-16.3V180h15.8v13.2h0.3
					c5.2-9,14.9-14.4,25.3-14C593.5,179.2,606.7,195.1,606.7,219.7z M590,219.7c0-16.1-8.3-26.6-21-26.6
					c-12.4,0-20.8,10.8-20.8,26.6c0,16,8.4,26.7,20.8,26.7C581.7,246.4,590,235.9,590,219.7L590,219.7z"/>
				<path class="st0" d="M664.5,229.1c1.2,10.8,11.7,17.9,26,17.9c13.7,0,23.6-7.1,23.6-16.8c0-8.4-6-13.5-20.1-17l-14.1-3.4
					c-20-4.8-29.3-14.2-29.3-29.3c0-18.8,16.4-31.7,39.6-31.7c23,0,38.8,12.9,39.3,31.7h-16.4c-1-10.9-10-17.4-23.1-17.4
					s-22.1,6.6-22.1,16.3c0,7.7,5.7,12.2,19.8,15.7l12,2.9c22.3,5.3,31.6,14.3,31.6,30.2c0,20.4-16.2,33.1-42,33.1
					c-24.1,0-40.4-12.5-41.5-32.1L664.5,229.1z"/>
				<path class="st0" d="M766.5,161.3v18.8h15.1V193h-15.1v43.8c0,6.8,3,10,9.7,10c1.8,0,3.6-0.2,5.4-0.4v12.8c-3,0.6-6,0.8-9,0.8
					c-16.1,0-22.3-6-22.3-21.4v-45.5h-11.5v-12.9h11.5v-18.8L766.5,161.3L766.5,161.3z"/>
				<path class="st0" d="M790.3,219.7c0-25,14.7-40.7,37.6-40.7c23,0,37.7,15.7,37.7,40.7s-14.6,40.7-37.7,40.7
					C804.9,260.4,790.3,244.8,790.3,219.7z M849,219.7c0-17.1-7.9-27.2-21.1-27.2c-13.2,0-21,10.2-21,27.2c0,17.2,7.8,27.2,21,27.2
					C841.2,247,849,236.9,849,219.7L849,219.7z"/>
				<path class="st0" d="M879,180h15.5v13.5h0.4c2.2-8.7,10.1-14.7,19.1-14.3c1.9,0,3.7,0.2,5.6,0.6V195c-2.4-0.7-4.8-1.1-7.3-1
					c-9.1-0.4-16.7,6.7-17.1,15.7c0,0.8,0,1.7,0.1,2.5v47.2H879V180z"/>
				<path class="st0" d="M994.7,236.1c-2.2,14.4-16.2,24.3-34.2,24.3c-23.1,0-37.4-15.5-37.4-40.3c0-24.9,14.4-41,36.7-41
					c22,0,35.8,15.1,35.8,39.1v5.6h-56.1v1c-1,11.4,7.4,21.4,18.8,22.4c0.9,0.1,1.7,0.1,2.6,0.1c7.9,0.7,15.4-3.8,18.3-11.2H994.7z
					 M939.7,212.4h39.7c0.6-10.5-7.5-19.5-18-20.1c-0.5,0-1,0-1.5,0c-11.1-0.1-20.1,8.9-20.2,20
					C939.7,212.3,939.7,212.3,939.7,212.4z"/>
			</g>
		</g>
	</g>
	<g id="_Group_4">
		<g>
			<path class="st0" d="M381.2,120.9h-32.6V68.6h8.1v44.8h24.5V120.9z"/>
			<path class="st0" d="M389.4,109.7c0-7.1,5.3-11.2,14.7-11.8l10.7-0.6v-3.4c0-4.2-2.8-6.5-8.1-6.5c-4.3,0-7.4,1.6-8.2,4.4H391
				c0.8-6.8,7.2-11.1,16.1-11.1c9.9,0,15.5,4.9,15.5,13.3v27h-7.5v-5.6h-0.6c-2.5,4.1-7.1,6.4-11.9,6.2c-6.6,0.7-12.4-4.1-13.1-10.6
				C389.4,110.5,389.4,110.1,389.4,109.7z M414.7,106.4v-3.3l-9.6,0.6c-5.4,0.4-7.9,2.2-7.9,5.7c0,3.6,3.1,5.6,7.3,5.6
				c5.1,0.5,9.7-3.2,10.2-8.3C414.7,106.6,414.7,106.5,414.7,106.4z"/>
			<path class="st0" d="M432.7,101.2c0-12.5,6.4-20.4,16.4-20.4c5-0.2,9.8,2.5,12.1,6.9h0.6V66h7.8v54.9h-7.5v-6.2h-0.6
				c-2.5,4.4-7.3,7.1-12.4,6.9C439.1,121.6,432.7,113.7,432.7,101.2z M440.8,101.2c0,8.4,3.9,13.4,10.5,13.4s10.6-5.1,10.6-13.4
				c0-8.2-4.1-13.4-10.6-13.4C444.8,87.8,440.8,92.9,440.8,101.2L440.8,101.2z"/>
			<path class="st0" d="M515.8,110.3c-2.2,7.4-9.4,12.3-17.1,11.4c-9.9,0.3-18.1-7.6-18.4-17.5c0-1,0-2,0.2-2.9
				c-1.3-10,5.7-19.1,15.6-20.5c0.9-0.1,1.7-0.2,2.6-0.2c11,0,17.6,7.5,17.6,19.9v2.7h-27.9v0.4c-0.5,5.7,3.8,10.8,9.5,11.3
				c0.3,0,0.7,0,1,0c3.8,0.5,7.5-1.4,9.4-4.8L515.8,110.3z M488.4,97.5h19.9c0.4-5.2-3.5-9.8-8.8-10.2c-0.3,0-0.6,0-0.9,0
				c-5.6-0.1-10.2,4.4-10.2,10C488.4,97.4,488.4,97.4,488.4,97.5L488.4,97.5z"/>
			<path class="st0" d="M526.7,81.4h7.5v6.3h0.6c2-4.6,6.8-7.4,11.8-7c7.1-0.5,13.2,4.8,13.8,11.8c0.1,0.9,0,1.9-0.1,2.8v25.6h-7.8
				V97.3c0-6.3-2.8-9.5-8.5-9.5c-5-0.2-9.2,3.6-9.5,8.6c0,0.5,0,0.9,0,1.4v23.1h-7.8V81.4z"/>
			<path class="st0" d="M592.7,69.8c-0.2-2.8,2-5.2,4.7-5.3c2.8-0.2,5.2,2,5.3,4.7c0.2,2.8-2,5.2-4.7,5.3c-0.1,0-0.2,0-0.3,0
				c-2.6,0.1-4.9-1.9-5-4.5C592.7,69.9,592.7,69.8,592.7,69.8z M593.8,81.4h7.8v39.5h-7.8V81.4z"/>
			<path class="st0" d="M614.2,81.4h7.5v6.3h0.6c2.7-6,9.7-8.8,15.8-6.1c2.7,1.2,4.9,3.4,6.1,6.1h0.6c2.3-4.5,7-7.3,12-7.1
				c6.5-0.5,12.1,4.3,12.6,10.7c0.1,0.8,0,1.5,0,2.3v27.2h-7.8V95.6c0-5.3-2.5-7.9-7.7-7.9c-4.4-0.2-8.1,3.2-8.3,7.6
				c0,0.2,0,0.4,0,0.6v24.8h-7.7V94.8c0.2-3.8-2.7-7-6.5-7.2c-0.4,0-0.7,0-1.1,0c-4.7,0.1-8.4,3.9-8.3,8.6c0,0.1,0,0.2,0,0.3v24.1
				h-7.8L614.2,81.4z"/>
		</g>
	</g>
</g>
</svg>
