<svg id="Layer_1" data-name="Layer 1" xmlns="http://www.w3.org/2000/svg" xmlns:xlink="http://www.w3.org/1999/xlink" viewBox="0 0 778.82 245.42" width="778.82"  height="245.42" ><defs><style>.cls-1{fill:#000;}.cls-2{fill:url(#linear-gradient);}.cls-3{fill:url(#linear-gradient-2);}.cls-4{fill:url(#linear-gradient-3);}.cls-5{fill:url(#linear-gradient-4);}</style><linearGradient id="linear-gradient" x1="262.84" y1="245.61" x2="316.68" y2="245.61" gradientUnits="userSpaceOnUse"><stop offset="0" stop-color="#8dc63f"></stop><stop offset="1" stop-color="#184397"></stop></linearGradient><linearGradient id="linear-gradient-2" x1="222.57" y1="426.82" x2="273.89" y2="426.82" xlink:href="#linear-gradient"></linearGradient><linearGradient id="linear-gradient-3" x1="90.59" y1="307.07" x2="134.7" y2="307.07" xlink:href="#linear-gradient"></linearGradient><linearGradient id="linear-gradient-4" x1="144.48" y1="322.22" x2="353.42" y2="322.22" gradientUnits="userSpaceOnUse"><stop offset="0" stop-color="#184397"></stop><stop offset="0.23" stop-color="#406f79"></stop><stop offset="0.46" stop-color="#619560"></stop><stop offset="0.67" stop-color="#79b04e"></stop><stop offset="0.86" stop-color="#88c043"></stop><stop offset="1" stop-color="#8dc63f"></stop></linearGradient><linearGradient id="linear-gradient" x1="262.84" y1="245.61" x2="316.68" y2="245.61" gradientUnits="userSpaceOnUse"><stop offset="0" stop-color="#8dc63f"></stop><stop offset="1" stop-color="#184397"></stop></linearGradient><linearGradient id="linear-gradient-2" x1="222.57" y1="426.82" x2="273.89" y2="426.82" xlink:href="#linear-gradient"></linearGradient><linearGradient id="linear-gradient-3" x1="90.59" y1="307.07" x2="134.7" y2="307.07" xlink:href="#linear-gradient"></linearGradient><linearGradient id="linear-gradient-4" x1="144.48" y1="322.22" x2="353.42" y2="322.22" gradientUnits="userSpaceOnUse"><stop offset="0" stop-color="#184397"></stop><stop offset="0.23" stop-color="#406f79"></stop><stop offset="0.46" stop-color="#619560"></stop><stop offset="0.67" stop-color="#79b04e"></stop><stop offset="0.86" stop-color="#88c043"></stop><stop offset="1" stop-color="#8dc63f"></stop></linearGradient></defs><title>ISM-Technology-10</title><path class="cls-1" d="M394.58,350.86V303.73H379.92V293.57H420v10.16h-14.5v47.13Z" transform="translate(-90.59 -207.29)"></path><path class="cls-1" d="M427.52,350.86V293.57h31.21v10.16h-21v12.69h20.65v10.09H437.76V340.7h21v10.16Z" transform="translate(-90.59 -207.29)"></path><path class="cls-1" d="M512,332.9a23.07,23.07,0,0,1-2,7.76,20.2,20.2,0,0,1-4.3,6,19.34,19.34,0,0,1-6.15,3.94,20.42,20.42,0,0,1-7.68,1.42,25.39,25.39,0,0,1-9.54-1.74,19.19,19.19,0,0,1-7.48-5.36,24.92,24.92,0,0,1-4.89-9.26,53.34,53.34,0,0,1,0-26.95,25,25,0,0,1,4.89-9.26,19.29,19.29,0,0,1,7.48-5.36,25.38,25.38,0,0,1,9.54-1.73,20.81,20.81,0,0,1,7.68,1.38,19.23,19.23,0,0,1,6.19,3.9,19.6,19.6,0,0,1,4.33,6,22.72,22.72,0,0,1,2.05,7.76l-10.08,1a11.35,11.35,0,0,0-3.67-6.7,10.92,10.92,0,0,0-7.29-2.36,10.72,10.72,0,0,0-9,4.45q-3.36,4.45-3.35,14.31T482,336.52a11.64,11.64,0,0,0,16.27,2.09,11.64,11.64,0,0,0,3.63-6.74Z" transform="translate(-90.59 -207.29)"></path><path class="cls-1" d="M552.59,350.86V326.51H531.08v24.35H520.83V293.57h10.25v22.85h21.51V293.57h10.17v57.29Z" transform="translate(-90.59 -207.29)"></path><path class="cls-1" d="M605.32,350.86l-21.6-38.77h-.39v38.77h-10V293.57h12.13l19.47,36.8h.4v-36.8h10v57.29Z" transform="translate(-90.59 -207.29)"></path><path class="cls-1" d="M648.74,352.05a21.77,21.77,0,0,1-9.38-2.05,21.46,21.46,0,0,1-7.49-5.91,29,29,0,0,1-5-9.38,44,44,0,0,1,0-25,28.94,28.94,0,0,1,5-9.38,21.24,21.24,0,0,1,7.49-5.91,21.62,21.62,0,0,1,9.38-2.05,20.15,20.15,0,0,1,16.39,8.07,29.68,29.68,0,0,1,4.69,9.38,45.75,45.75,0,0,1,0,24.71,29.48,29.48,0,0,1-4.69,9.42,20.2,20.2,0,0,1-16.39,8.08Zm-.47-11a11.64,11.64,0,0,0,5.12-1.14,11,11,0,0,0,4.1-3.51,18.18,18.18,0,0,0,2.72-5.91,35.43,35.43,0,0,0,0-16.55,17.85,17.85,0,0,0-2.72-5.87,11.25,11.25,0,0,0-4.1-3.47,11.64,11.64,0,0,0-5.12-1.14,11.49,11.49,0,0,0-5,1.14,11.22,11.22,0,0,0-4.09,3.47,18.08,18.08,0,0,0-2.76,5.87,33.76,33.76,0,0,0,0,16.55,18.42,18.42,0,0,0,2.76,5.91,11,11,0,0,0,4.09,3.51A11.49,11.49,0,0,0,648.27,341Z" transform="translate(-90.59 -207.29)"></path><path class="cls-1" d="M681.29,350.86V293.57h10.24V340.7h26.25v10.16Z" transform="translate(-90.59 -207.29)"></path><path class="cls-1" d="M746.31,352.05a21.74,21.74,0,0,1-9.38-2.05,21.46,21.46,0,0,1-7.49-5.91,29,29,0,0,1-5-9.38,43.77,43.77,0,0,1,0-25,28.94,28.94,0,0,1,5-9.38,21.24,21.24,0,0,1,7.49-5.91,21.59,21.59,0,0,1,9.38-2.05,20.15,20.15,0,0,1,16.39,8.07,29.68,29.68,0,0,1,4.69,9.38,46,46,0,0,1,0,24.71A29.48,29.48,0,0,1,762.7,344a20.2,20.2,0,0,1-16.39,8.08Zm-.48-11a11.68,11.68,0,0,0,5.13-1.14,11.07,11.07,0,0,0,4.1-3.51,18.18,18.18,0,0,0,2.72-5.91,35.43,35.43,0,0,0,0-16.55,17.85,17.85,0,0,0-2.72-5.87,11.33,11.33,0,0,0-4.1-3.47,11.68,11.68,0,0,0-5.13-1.14,11.48,11.48,0,0,0-5,1.14,11.33,11.33,0,0,0-4.1,3.47,18.5,18.5,0,0,0-2.76,5.87,34.08,34.08,0,0,0,0,16.55,18.85,18.85,0,0,0,2.76,5.91,11.07,11.07,0,0,0,4.1,3.51A11.48,11.48,0,0,0,745.83,341Z" transform="translate(-90.59 -207.29)"></path><path class="cls-1" d="M803.52,331.08V320.92h20.57c.06.57.09,1.31.12,2.2s0,1.82,0,2.76a39.82,39.82,0,0,1-1.18,9.7c-.79,3.15-2.73,5.67-4.52,8.11a19.29,19.29,0,0,1-7,5.87,20.87,20.87,0,0,1-10.1,2.49,23.43,23.43,0,0,1-9-1.74A19.79,19.79,0,0,1,785,345a26.15,26.15,0,0,1-5-9.26,50,50,0,0,1,0-26.95,25.2,25.2,0,0,1,5.16-9.26,20.45,20.45,0,0,1,7.8-5.36,26.65,26.65,0,0,1,9.7-1.73,21.7,21.7,0,0,1,7,1.14,20.35,20.35,0,0,1,10.6,8.2,20.33,20.33,0,0,1,2.76,6.42l-9.85,1.73a11,11,0,0,0-4.38-5.16,13.63,13.63,0,0,0-12.45-.79,11,11,0,0,0-4.25,3.51,18,18,0,0,0-2.8,6,32.66,32.66,0,0,0-1,8.71,33,33,0,0,0,1,8.78,18,18,0,0,0,2.8,6,11,11,0,0,0,4.25,3.51,12.82,12.82,0,0,0,5.4,1.14,12.68,12.68,0,0,0,8.47-2.76,10.81,10.81,0,0,0,3.67-7.8Z" transform="translate(-90.59 -207.29)"></path><path class="cls-1" d="M841.35,350.86V329.11l-16.94-35.54h11.5l11.12,24,11-24h11.35L852.62,329v21.91Z" transform="translate(-90.59 -207.29)"></path><rect class="cls-1" x="723.33" y="113.63" width="10.48" height="29.95"></rect><path class="cls-2" d="M310.41,264.6l5.81-21.68a12.93,12.93,0,0,0-15.84-15.84l-37.54,10.06Z" transform="translate(-90.59 -207.29)" fill="url(&quot;#linear-gradient&quot;)"></path><path class="cls-3" d="M222.57,430.55l18.37,18.36a12.93,12.93,0,0,0,21.64-5.79l11.31-42.2Z" transform="translate(-90.59 -207.29)" fill="url(&quot;#linear-gradient-2&quot;)"></path><path class="cls-4" d="M134.7,271.47l-34.51,9.25a12.93,12.93,0,0,0-5.8,21.64l40.31,40.32Z" transform="translate(-90.59 -207.29)" fill="url(&quot;#linear-gradient-3&quot;)"></path><path class="cls-5" d="M334.81,290,200.32,212.33c-24.82-14.33-55.84,3.58-55.84,32.24V399.86c0,28.66,31,46.57,55.84,32.24l134.49-77.65C359.62,340.13,359.62,304.31,334.81,290ZM186.5,353.05H175.39V291.38H186.5Zm48.19-9.54a16.81,16.81,0,0,1-4,5.85,17.27,17.27,0,0,1-6.19,3.69,23.7,23.7,0,0,1-7.94,1.28,24.69,24.69,0,0,1-7.59-1.15,20,20,0,0,1-6.41-3.35,18.14,18.14,0,0,1-4.62-5.51,19.56,19.56,0,0,1-2.25-7.64l11-2.88a20.85,20.85,0,0,0,.81,3.39,10.74,10.74,0,0,0,1.61,3.14,7.87,7.87,0,0,0,2.76,2.33,9,9,0,0,0,4.24.89,8.79,8.79,0,0,0,6.28-2.16,8.19,8.19,0,0,0,2.29-6.24,6.53,6.53,0,0,0-2.42-5.13,22.2,22.2,0,0,0-7-3.69,73.75,73.75,0,0,1-7.47-3,21.26,21.26,0,0,1-5.64-3.82,15,15,0,0,1-3.56-5.39,20.93,20.93,0,0,1-1.23-7.63,14.76,14.76,0,0,1,1.61-7,16.39,16.39,0,0,1,4.24-5.17,17.87,17.87,0,0,1,6.07-3.18,24.07,24.07,0,0,1,7.17-1.06,24.92,24.92,0,0,1,7.42,1.06,15.9,15.9,0,0,1,5.94,3.26,15.28,15.28,0,0,1,3.94,5.6,20.62,20.62,0,0,1,1.45,8.15l-10.78,1a11.1,11.1,0,0,0-1.69-6.23c-1.14-1.73-3.14-2.59-6-2.59s-4.88.65-6.32,1.95a5.91,5.91,0,0,0-2.16,4.5,8.2,8.2,0,0,0,.38,2.63,5.11,5.11,0,0,0,1.53,2.12,13.58,13.58,0,0,0,3.18,2q2,1,5.34,2.17a49,49,0,0,1,8.11,3.64,20.88,20.88,0,0,1,5.43,4.42,15.81,15.81,0,0,1,3,5.43,21.74,21.74,0,0,1,.93,6.53A19.91,19.91,0,0,1,234.69,343.51Zm62.78,9.54h-11V313.86h-.42l-9.93,26.89h-9.33l-9.5-26.89h-.51v39.19H245.89V291.38h14.59l11.28,32.75h.43l11.53-32.75h13.75Z" transform="translate(-90.59 -207.29)" fill="url(&quot;#linear-gradient-4&quot;)"></path></svg>