<svg width="80" height="69" viewBox="0 0 80 69" fill="none" xmlns="http://www.w3.org/2000/svg">
<path d="M64.8084 12.389C61.8072 9.0066 58.1537 6.26522 54.067 4.32935C52.0711 3.38433 49.9859 2.64086 47.8423 2.10998C41.376 0.507051 34.5784 0.870836 28.3202 3.15475C22.0619 5.43866 16.6279 9.53872 12.714 14.9298C8.80015 20.3209 6.58466 26.7576 6.3513 33.4155C6.11794 40.0734 7.87733 46.6494 11.4041 52.3013L13.6543 50.8943C13.308 50.1382 12.9725 49.3839 12.6752 48.6187L12.454 48.0439C12.3832 47.8517 12.318 47.6559 12.2509 47.4637C12.1113 47.0793 11.9934 46.6876 11.8756 46.2996C10.4655 41.7162 10.1384 36.868 10.92 32.1367C11.1665 30.61 11.5351 29.1057 12.0224 27.6381C12.5066 26.1916 13.0975 24.7831 13.7903 23.4242C15.1729 20.7525 16.9614 18.3113 19.0921 16.1877C21.184 14.1065 23.5868 12.3631 26.2144 11.0201C28.7923 9.70594 31.5602 8.80352 34.4173 8.34561C35.8335 8.13469 37.2628 8.02381 38.6947 8.01379L39.7663 8.02648C40.1235 8.04824 40.4807 8.05731 40.8361 8.09176C41.5468 8.14253 42.2522 8.23319 42.9521 8.34198C43.302 8.39456 43.652 8.4544 43.9983 8.52331L40.3447 14.6175L64.8084 12.389Z" fill="url(#paint0_linear_1_3)"/>
<path d="M46.2353 67.2349C43.5701 67.7621 40.8508 67.9638 38.137 67.8356C35.9313 67.7299 33.7416 67.404 31.6007 66.8628C27.2168 65.7546 23.102 63.7723 19.503 61.0347L24.9586 59.4318L24.9604 59.4322L43.0728 54.113L40.6674 60.7988C41.0203 60.7997 41.3745 60.7917 41.7301 60.7747C42.4368 60.7471 43.1464 60.6978 43.8534 60.6108C44.2088 60.5752 44.562 60.5168 44.9166 60.468L45.9693 60.2726C47.3721 59.9862 48.7529 59.6011 50.1014 59.1203C52.816 58.1174 55.3572 56.6964 57.633 54.9088C59.9503 53.082 61.9699 50.9065 63.6198 48.46C65.2998 45.9646 66.5823 43.2235 67.4214 40.3347C67.8371 38.867 68.1442 37.3707 68.34 35.858C68.5082 34.5574 68.5825 33.2464 68.5623 31.9351C68.5609 31.7007 68.5555 31.4672 68.5506 31.232C68.4921 29.0542 68.1955 26.8892 67.6659 24.7759L71.3736 23.4692C72.9363 27.9895 73.5119 32.7923 73.0616 37.5538C72.6114 42.3154 71.1459 46.9251 68.7637 51.0725C66.3815 55.2198 63.1381 58.8084 59.252 61.5964C55.3658 64.3844 50.9272 66.3071 46.2353 67.2349Z" fill="url(#paint1_linear_1_3)"/>
<path d="M31.6717 44.9739H46.4737V43.1236H50.1742V37.5729C50.1742 34.8743 48.3873 32.586 45.9348 31.8274C47.0912 31.0868 47.8614 29.7935 47.8614 28.3216C47.8614 26.0264 45.994 24.1585 43.6983 24.1585C43.3028 24.1585 42.9106 24.2177 42.5276 24.3311C41.6797 23.3768 40.447 22.7709 39.0727 22.7709C37.6984 22.7709 36.4657 23.3768 35.6178 24.3311C35.2348 24.2177 34.8425 24.1585 34.447 24.1585C32.1513 24.1585 30.284 26.0264 30.284 28.3216C30.284 29.7935 31.0541 31.0868 32.2106 31.8274C29.758 32.586 27.9712 34.8743 27.9712 37.5729V43.1236H31.6717V44.9739ZM45.5486 44.0487H32.5968V43.1236V37.1103C32.5968 36.9558 32.6065 36.8032 32.6199 36.6519C32.6246 36.6024 32.6306 36.5534 32.6361 36.5039C32.6486 36.3993 32.6648 36.2962 32.6838 36.194C32.6935 36.1422 32.7013 36.0899 32.7124 36.0385C32.7411 35.9058 32.7749 35.7753 32.8133 35.6463C32.8327 35.5825 32.8558 35.5205 32.8776 35.4576C32.9026 35.3845 32.9289 35.3123 32.9571 35.2406C32.9844 35.1717 33.0131 35.1032 33.0432 35.0357C33.0728 34.9696 33.1052 34.9048 33.1375 34.84C33.1847 34.7457 33.2347 34.6532 33.2874 34.562C33.3337 34.4829 33.3799 34.4038 33.4299 34.3275C33.4687 34.2683 33.5104 34.211 33.5515 34.1531C33.595 34.0921 33.6399 34.0319 33.6861 33.9732C33.7287 33.9191 33.7712 33.8654 33.8161 33.8132C33.8744 33.7452 33.935 33.6795 33.9965 33.6147C34.0534 33.5546 34.1117 33.4954 34.1714 33.438C34.2449 33.3677 34.3194 33.2988 34.3971 33.2326C34.448 33.1896 34.5007 33.1484 34.5534 33.1073C34.614 33.0601 34.6751 33.0138 34.738 32.9694C34.7963 32.9278 34.8546 32.8866 34.9152 32.8473C34.9762 32.8075 35.0391 32.771 35.1016 32.734C35.2195 32.6641 35.3407 32.5989 35.4651 32.5383C35.5276 32.5078 35.5891 32.4759 35.6529 32.4477L35.7274 32.4144C36.3306 32.1623 36.9916 32.0221 37.685 32.0221H40.4604C41.1537 32.0221 41.8147 32.1623 42.4175 32.4148L42.4919 32.4481C42.5558 32.4759 42.6173 32.5083 42.6797 32.5388C42.8042 32.5994 42.9254 32.6646 43.0433 32.7345C43.1062 32.7715 43.1691 32.808 43.2297 32.8478C43.2899 32.8871 43.3486 32.9283 43.4069 32.9699C43.4693 33.0143 43.5309 33.0606 43.5915 33.1077C43.6442 33.1489 43.6969 33.1901 43.7478 33.2331C43.8255 33.2988 43.9 33.3682 43.9735 33.4385C44.0337 33.4958 44.0915 33.555 44.1484 33.6152C44.2099 33.6799 44.271 33.7456 44.3288 33.8136C44.3732 33.8659 44.4162 33.9195 44.4588 33.9737C44.505 34.0324 44.5499 34.0925 44.5934 34.1536C44.6345 34.2114 44.6766 34.2683 44.715 34.328C44.765 34.4043 44.8117 34.4834 44.8575 34.5625C44.9102 34.6536 44.9602 34.7466 45.0074 34.8405C45.0397 34.9053 45.0721 34.97 45.1017 35.0362C45.1322 35.1037 45.1605 35.1722 45.1878 35.2411C45.216 35.3123 45.2419 35.3849 45.2673 35.458C45.2891 35.5209 45.3122 35.5834 45.3316 35.6468C45.3705 35.7753 45.4042 35.9062 45.4325 36.039C45.4436 36.0903 45.4519 36.1426 45.4611 36.1944C45.4796 36.2967 45.4963 36.4003 45.5088 36.5043C45.5148 36.5534 45.5208 36.6029 45.525 36.6524C45.5388 36.8032 45.5486 36.9558 45.5486 37.1103V43.1236V44.0487ZM49.2491 37.5729V42.1985H46.4737V37.1103C46.4737 36.8906 46.4603 36.6741 46.4371 36.4604C46.4316 36.41 46.421 36.3609 46.4145 36.311C46.3923 36.1459 46.3664 35.9816 46.3312 35.8211C46.3196 35.7684 46.3039 35.7175 46.291 35.6653C46.2521 35.5084 46.2091 35.3535 46.1582 35.2018C46.1411 35.1504 46.1212 35.1005 46.1027 35.05C46.0481 34.9006 45.9885 34.7535 45.9228 34.6101C45.8996 34.5597 45.8751 34.5098 45.8501 34.4603C45.7812 34.3201 45.7072 34.1837 45.6277 34.05C45.5985 34.001 45.5694 33.9519 45.5384 33.9034C45.4551 33.7724 45.3668 33.6457 45.2743 33.5217C45.2405 33.4764 45.2081 33.4306 45.173 33.3862C45.0717 33.2581 44.9639 33.1355 44.8524 33.0162C44.8209 32.9824 44.7918 32.9468 44.7594 32.9139C44.6133 32.7641 44.4606 32.6207 44.2996 32.487C47.0412 32.5605 49.2491 34.8137 49.2491 37.5729ZM43.1076 25.1396C43.3028 25.1026 43.4999 25.0837 43.6983 25.0837C45.4833 25.0837 46.9362 26.5361 46.9362 28.3216C46.9362 30.1071 45.4833 31.5595 43.6983 31.5595C43.0632 31.5595 42.4522 31.3745 41.9285 31.0304C41.9355 31.0253 41.941 31.0188 41.9475 31.0133C42.3458 30.6964 42.689 30.3153 42.9647 29.8855C42.9735 29.8717 42.9813 29.8578 42.9901 29.8439C43.0701 29.7162 43.1437 29.5849 43.2112 29.4493C43.2223 29.4271 43.2325 29.4049 43.2431 29.3827C43.3047 29.2546 43.3597 29.1232 43.4092 28.9886C43.4194 28.9609 43.43 28.9331 43.4397 28.9054C43.4846 28.7763 43.523 28.6445 43.5563 28.5103C43.5646 28.477 43.5743 28.4442 43.5817 28.4109C43.6113 28.28 43.6335 28.1468 43.6516 28.0117C43.6567 27.9761 43.6641 27.9409 43.6678 27.9048C43.6872 27.7383 43.6983 27.5686 43.6983 27.3965C43.6983 27.2133 43.6849 27.0338 43.6641 26.8562C43.6576 26.7998 43.647 26.7443 43.6382 26.6878C43.6187 26.5639 43.5956 26.4413 43.5669 26.3206C43.5531 26.2618 43.5383 26.2035 43.5221 26.1457C43.4846 26.012 43.4407 25.8811 43.3916 25.753C43.3777 25.7174 43.3666 25.6808 43.3523 25.6457C43.282 25.4745 43.202 25.3089 43.1122 25.1484C43.1099 25.1452 43.109 25.1424 43.1076 25.1396ZM41.9235 25.0397L41.9517 25.0763C41.9743 25.1045 41.9947 25.1341 42.0164 25.1628C42.2523 25.4731 42.4327 25.8113 42.5595 26.1679C42.5678 26.191 42.5771 26.2137 42.5849 26.2373C42.64 26.4034 42.6816 26.5731 42.7126 26.7461C42.7191 26.7822 42.7241 26.8192 42.7292 26.8557C42.7551 27.0338 42.7732 27.2138 42.7732 27.3965C42.7732 27.5482 42.7616 27.6981 42.7431 27.8466C42.739 27.8812 42.7325 27.9155 42.7274 27.9502C42.7084 28.0727 42.6848 28.1939 42.6538 28.3128C42.6474 28.3378 42.6413 28.3632 42.6344 28.3882C42.5507 28.6861 42.4313 28.972 42.2778 29.2384C42.275 29.243 42.2722 29.2477 42.2694 29.2523C42.195 29.3804 42.1117 29.5039 42.022 29.6223C42.0137 29.633 42.0058 29.6441 41.9975 29.6552C41.8092 29.8989 41.5899 30.1196 41.3434 30.312C41.3291 30.3231 41.3138 30.3338 41.2995 30.3449C41.1852 30.4314 41.0659 30.5118 40.941 30.5854C40.9188 30.5983 40.8979 30.6127 40.8753 30.6252L40.8226 30.6557C40.3008 30.9369 39.7055 31.097 39.0727 31.097C38.4399 31.097 37.8446 30.9369 37.3233 30.6557L37.2705 30.6252C37.2483 30.6127 37.2271 30.5983 37.2048 30.5854C37.08 30.5118 36.9606 30.4314 36.8464 30.3449C36.8316 30.3338 36.8168 30.3231 36.8024 30.312C36.5563 30.1196 36.3371 29.8989 36.1484 29.6552C36.14 29.6445 36.1322 29.6334 36.1238 29.6223C36.0341 29.5039 35.9513 29.3804 35.8764 29.2523C35.8736 29.2477 35.8708 29.243 35.868 29.2384C35.714 28.9715 35.5947 28.6856 35.5109 28.3878C35.504 28.3632 35.498 28.3378 35.4915 28.3133C35.4605 28.1939 35.4369 28.0727 35.418 27.9502C35.4129 27.9155 35.4064 27.8817 35.4022 27.8466C35.3837 27.6981 35.3722 27.5482 35.3722 27.3965C35.3722 27.2138 35.3902 27.0338 35.4161 26.8562C35.4217 26.8197 35.4263 26.7831 35.4328 26.7466C35.4638 26.574 35.5054 26.4038 35.5604 26.2378C35.5683 26.2142 35.5776 26.1915 35.5859 26.1684C35.7126 25.8117 35.893 25.4731 36.1289 25.1632C36.1507 25.1345 36.171 25.1045 36.1937 25.0767L36.2219 25.0402C36.9014 24.2196 37.9269 23.696 39.0727 23.696C40.2184 23.696 41.2439 24.2196 41.9235 25.0397ZM31.2091 28.3216C31.2091 26.5361 32.662 25.0837 34.447 25.0837C34.6455 25.0837 34.8425 25.1026 35.0377 25.1396C35.0364 25.1424 35.035 25.1456 35.0336 25.1484C34.9443 25.3085 34.8638 25.4741 34.7935 25.6452C34.7787 25.6808 34.7676 25.7174 34.7537 25.7535C34.7047 25.8816 34.6608 26.0125 34.6233 26.1457C34.6071 26.2035 34.5923 26.2618 34.5784 26.3206C34.5497 26.4413 34.5266 26.5639 34.5072 26.6878C34.4984 26.7438 34.4882 26.7993 34.4813 26.8562C34.4605 27.0338 34.447 27.2133 34.447 27.3965C34.447 27.5686 34.4581 27.7383 34.4767 27.9053C34.4808 27.9414 34.4882 27.9761 34.4928 28.0117C34.5109 28.1468 34.5335 28.2804 34.5627 28.4113C34.5701 28.4446 34.5798 28.477 34.5881 28.5099C34.6214 28.644 34.6598 28.7763 34.7047 28.9058C34.7144 28.934 34.725 28.9613 34.7352 28.9895C34.7847 29.1237 34.8402 29.2551 34.9013 29.3832C34.9119 29.4054 34.9226 29.4281 34.9337 29.4503C35.0012 29.5858 35.0747 29.7172 35.1548 29.8448C35.1636 29.8587 35.1714 29.8726 35.1802 29.8865C35.4559 30.3162 35.7996 30.6969 36.1974 31.0142C36.2039 31.0197 36.2099 31.0257 36.2164 31.0313C35.6932 31.3745 35.0821 31.5595 34.447 31.5595C32.662 31.5595 31.2091 30.1071 31.2091 28.3216ZM28.8963 42.1985V37.5729C28.8963 34.8137 31.1041 32.5605 33.8462 32.4865C33.6852 32.6202 33.5326 32.7641 33.3864 32.9135C33.354 32.9463 33.3249 32.9819 33.2934 33.0157C33.1819 33.135 33.0742 33.2576 32.9724 33.3862C32.9377 33.4301 32.9053 33.4759 32.8716 33.5213C32.7786 33.6452 32.6902 33.772 32.607 33.9034C32.5764 33.9519 32.5473 34.0005 32.5177 34.05C32.4381 34.1837 32.3641 34.3201 32.2952 34.4603C32.2707 34.5102 32.2462 34.5597 32.2226 34.6101C32.1564 34.7535 32.0972 34.9006 32.0426 35.05C32.0241 35.1009 32.0043 35.1504 31.9871 35.2018C31.9363 35.3539 31.8932 35.5089 31.8539 35.6662C31.841 35.718 31.8257 35.7689 31.8141 35.8211C31.779 35.9821 31.7531 36.1463 31.7309 36.3119C31.7239 36.3619 31.7138 36.4104 31.7082 36.4609C31.6851 36.6741 31.6717 36.8906 31.6717 37.1103V42.1985H28.8963Z" fill="url(#paint2_linear_1_3)"/>
<defs>
<linearGradient id="paint0_linear_1_3" x1="35.5696" y1="1.12698" x2="35.5696" y2="52.3013" gradientUnits="userSpaceOnUse">
<stop stop-color="white"/>
<stop offset="1" stop-color="white"/>
</linearGradient>
<linearGradient id="paint1_linear_1_3" x1="46.3566" y1="23.4692" x2="46.3566" y2="67.873" gradientUnits="userSpaceOnUse">
<stop stop-color="white"/>
<stop offset="1" stop-color="white"/>
</linearGradient>
<linearGradient id="paint2_linear_1_3" x1="39.0727" y1="22.7709" x2="39.0727" y2="44.9739" gradientUnits="userSpaceOnUse">
<stop stop-color="white"/>
<stop offset="1" stop-color="white"/>
</linearGradient>
</defs>
</svg>
