<svg width="80" height="69" viewBox="0 0 80 69" fill="none" xmlns="http://www.w3.org/2000/svg">
<path d="M64.8087 12.389C61.8075 9.00657 58.154 6.26519 54.0673 4.32932C52.0714 3.3843 49.9862 2.64083 47.8426 2.10996C41.3763 0.507024 34.5787 0.870809 28.3205 3.15472C22.0622 5.43863 16.6281 9.5387 12.7143 14.9298C8.80044 20.3209 6.58496 26.7576 6.3516 33.4155C6.11824 40.0734 7.87762 46.6494 11.4044 52.3013L13.6546 50.8942C13.3083 50.1381 12.9728 49.3838 12.6755 48.6187L12.4543 48.0439C12.3835 47.8517 12.3183 47.6559 12.2512 47.4637C12.1116 47.0793 11.9937 46.6876 11.8758 46.2996C10.4658 41.7161 10.1387 36.868 10.9203 32.1366C11.1668 30.61 11.5354 29.1057 12.0227 27.6381C12.5069 26.1916 13.0978 24.7831 13.7906 23.4242C15.1732 20.7525 16.9617 18.3113 19.0924 16.1877C21.1843 14.1064 23.5871 12.3631 26.2147 11.0201C28.7926 9.70591 31.5605 8.80349 34.4176 8.34558C35.8338 8.13466 37.2631 8.02378 38.6949 8.01376L39.7666 8.02646C40.1238 8.04822 40.481 8.05728 40.8364 8.09173C41.5471 8.14251 42.2525 8.23317 42.9524 8.34196C43.3023 8.39453 43.6523 8.45437 43.9986 8.52328L40.345 14.6174L64.8087 12.389Z" fill="url(#paint0_linear_1521_417)"/>
<path d="M46.2352 67.235C43.57 67.7622 40.8507 67.9639 38.1369 67.8357C35.9312 67.73 33.7415 67.4041 31.6006 66.8629C27.2167 65.7547 23.1018 63.7724 19.5029 61.0348L24.9585 59.4319L24.9603 59.4323L43.0727 54.1131L40.6673 60.7988C41.0202 60.7998 41.3744 60.7917 41.73 60.7747C42.4367 60.7471 43.1463 60.6979 43.8533 60.6109C44.2087 60.5753 44.5619 60.5168 44.9165 60.468L45.9692 60.2726C47.372 59.9862 48.7528 59.6012 50.1013 59.1203C52.8159 58.1175 55.3571 56.6965 57.6329 54.9089C59.9502 53.0821 61.9698 50.9065 63.6196 48.46C65.2997 45.9647 66.5822 43.2236 67.4213 40.3347C67.837 38.8671 68.1441 37.3708 68.3399 35.858C68.5081 34.5574 68.5824 33.2464 68.5622 31.9352C68.5608 31.7008 68.5554 31.4673 68.5505 31.2321C68.492 29.0542 68.1954 26.8893 67.6658 24.776L71.3735 23.4692C72.9361 27.9896 73.5117 32.7923 73.0615 37.5539C72.6113 42.3154 71.1458 46.9252 68.7636 51.0725C66.3814 55.2199 63.138 58.8085 59.2519 61.5965C55.3657 64.3845 50.9271 66.3072 46.2352 67.235Z" fill="url(#paint1_linear_1521_417)"/>
<path d="M31.6722 44.9738H46.4742V43.1235H50.1747V37.5728C50.1747 34.8742 48.3878 32.5859 45.9353 31.8273C47.0917 31.0867 47.8619 29.7934 47.8619 28.3215C47.8619 26.0263 45.9945 24.1584 43.6988 24.1584C43.3033 24.1584 42.9111 24.2176 42.5281 24.331C41.6802 23.3767 40.4475 22.7708 39.0732 22.7708C37.6989 22.7708 36.4662 23.3767 35.6183 24.331C35.2353 24.2176 34.8431 24.1584 34.4476 24.1584C32.1519 24.1584 30.2845 26.0263 30.2845 28.3215C30.2845 29.7934 31.0547 31.0867 32.2111 31.8273C29.7586 32.5859 27.9717 34.8742 27.9717 37.5728V43.1235H31.6722V44.9738ZM45.5491 44.0486H32.5973V43.1235V37.1102C32.5973 36.9557 32.607 36.8031 32.6204 36.6518C32.6251 36.6023 32.6311 36.5533 32.6366 36.5038C32.6491 36.3992 32.6653 36.2961 32.6843 36.1939C32.694 36.1421 32.7018 36.0898 32.7129 36.0384C32.7416 35.9057 32.7754 35.7752 32.8138 35.6462C32.8332 35.5824 32.8563 35.5204 32.8781 35.4575C32.9031 35.3844 32.9294 35.3122 32.9576 35.2405C32.9849 35.1716 33.0136 35.1031 33.0437 35.0356C33.0733 34.9695 33.1057 34.9047 33.138 34.8399C33.1852 34.7456 33.2352 34.6531 33.2879 34.5619C33.3342 34.4828 33.3804 34.4037 33.4304 34.3274C33.4692 34.2682 33.5109 34.2109 33.552 34.153C33.5955 34.092 33.6404 34.0318 33.6866 33.9731C33.7292 33.919 33.7718 33.8653 33.8166 33.8131C33.8749 33.7451 33.9355 33.6794 33.997 33.6146C34.0539 33.5545 34.1122 33.4953 34.1719 33.4379C34.2454 33.3676 34.3199 33.2987 34.3976 33.2325C34.4485 33.1895 34.5012 33.1483 34.5539 33.1072C34.6145 33.06 34.6756 33.0137 34.7385 32.9693C34.7968 32.9277 34.8551 32.8865 34.9157 32.8472C34.9767 32.8074 35.0396 32.7709 35.1021 32.7339C35.22 32.664 35.3412 32.5988 35.4657 32.5382C35.5281 32.5077 35.5896 32.4758 35.6535 32.4476L35.7279 32.4143C36.3311 32.1622 36.9921 32.022 37.6855 32.022H40.4609C41.1543 32.022 41.8153 32.1622 42.418 32.4147L42.4925 32.448C42.5563 32.4758 42.6178 32.5082 42.6803 32.5387C42.8047 32.5993 42.9259 32.6645 43.0438 32.7344C43.1067 32.7714 43.1696 32.8079 43.2302 32.8477C43.2904 32.887 43.3491 32.9282 43.4074 32.9698C43.4698 33.0142 43.5314 33.0605 43.592 33.1076C43.6447 33.1488 43.6974 33.19 43.7483 33.233C43.826 33.2987 43.9005 33.3681 43.974 33.4384C44.0342 33.4957 44.092 33.5549 44.1489 33.6151C44.2104 33.6798 44.2715 33.7455 44.3293 33.8135C44.3737 33.8658 44.4167 33.9194 44.4593 33.9736C44.5055 34.0323 44.5504 34.0924 44.5939 34.1535C44.635 34.2113 44.6771 34.2682 44.7155 34.3279C44.7655 34.4042 44.8122 34.4833 44.858 34.5624C44.9107 34.6535 44.9607 34.7465 45.0079 34.8404C45.0402 34.9052 45.0726 34.9699 45.1022 35.0361C45.1328 35.1036 45.161 35.1721 45.1883 35.241C45.2165 35.3122 45.2424 35.3848 45.2678 35.4579C45.2896 35.5208 45.3127 35.5833 45.3321 35.6467C45.371 35.7752 45.4047 35.9061 45.433 36.0389C45.4441 36.0902 45.4524 36.1425 45.4616 36.1943C45.4801 36.2966 45.4968 36.4002 45.5093 36.5042C45.5153 36.5533 45.5213 36.6028 45.5255 36.6523C45.5394 36.8031 45.5491 36.9557 45.5491 37.1102V43.1235V44.0486ZM49.2496 37.5728V42.1984H46.4742V37.1102C46.4742 36.8905 46.4608 36.674 46.4377 36.4603C46.4321 36.4099 46.4215 36.3608 46.415 36.3109C46.3928 36.1458 46.3669 35.9815 46.3317 35.821C46.3202 35.7683 46.3044 35.7174 46.2915 35.6652C46.2526 35.5083 46.2096 35.3534 46.1587 35.2017C46.1416 35.1503 46.1217 35.1004 46.1032 35.0499C46.0486 34.9005 45.989 34.7534 45.9233 34.61C45.9002 34.5596 45.8756 34.5097 45.8507 34.4602C45.7817 34.32 45.7077 34.1836 45.6282 34.0499C45.599 34.0009 45.5699 33.9518 45.5389 33.9033C45.4556 33.7723 45.3673 33.6456 45.2748 33.5216C45.241 33.4763 45.2086 33.4305 45.1735 33.3861C45.0722 33.258 44.9644 33.1354 44.8529 33.0161C44.8215 32.9823 44.7923 32.9467 44.7599 32.9138C44.6138 32.764 44.4611 32.6206 44.3001 32.4869C47.0418 32.5604 49.2496 34.8136 49.2496 37.5728ZM43.1081 25.1395C43.3033 25.1025 43.5004 25.0836 43.6988 25.0836C45.4838 25.0836 46.9368 26.536 46.9368 28.3215C46.9368 30.107 45.4838 31.5594 43.6988 31.5594C43.0637 31.5594 42.4527 31.3744 41.9291 31.0303C41.936 31.0252 41.9415 31.0187 41.948 31.0132C42.3463 30.6963 42.6895 30.3152 42.9652 29.8854C42.974 29.8716 42.9818 29.8577 42.9906 29.8438C43.0707 29.7161 43.1442 29.5848 43.2117 29.4492C43.2228 29.427 43.233 29.4048 43.2437 29.3826C43.3052 29.2545 43.3602 29.1231 43.4097 28.9885C43.4199 28.9608 43.4305 28.933 43.4402 28.9053C43.4851 28.7762 43.5235 28.6444 43.5568 28.5102C43.5651 28.4769 43.5748 28.4441 43.5823 28.4108C43.6119 28.2799 43.6341 28.1467 43.6521 28.0116C43.6572 27.976 43.6646 27.9408 43.6683 27.9047C43.6877 27.7382 43.6988 27.5685 43.6988 27.3964C43.6988 27.2132 43.6854 27.0337 43.6646 26.8561C43.6581 26.7997 43.6475 26.7442 43.6387 26.6877C43.6193 26.5638 43.5961 26.4412 43.5674 26.3205C43.5536 26.2617 43.5388 26.2034 43.5226 26.1456C43.4851 26.0119 43.4412 25.881 43.3921 25.7529C43.3783 25.7173 43.3672 25.6807 43.3528 25.6456C43.2825 25.4744 43.2025 25.3088 43.1127 25.1483C43.1104 25.1451 43.1095 25.1423 43.1081 25.1395ZM41.924 25.0396L41.9522 25.0762C41.9748 25.1044 41.9952 25.134 42.0169 25.1627C42.2528 25.473 42.4332 25.8112 42.56 26.1678C42.5683 26.1909 42.5776 26.2136 42.5854 26.2372C42.6405 26.4033 42.6821 26.573 42.7131 26.746C42.7196 26.7821 42.7247 26.8191 42.7297 26.8556C42.7556 27.0337 42.7737 27.2137 42.7737 27.3964C42.7737 27.5481 42.7621 27.698 42.7436 27.8465C42.7395 27.8811 42.733 27.9154 42.7279 27.9501C42.7089 28.0726 42.6853 28.1938 42.6543 28.3127C42.6479 28.3377 42.6419 28.3631 42.6349 28.3881C42.5512 28.686 42.4319 28.9719 42.2783 29.2383C42.2755 29.2429 42.2727 29.2476 42.27 29.2522C42.1955 29.3803 42.1122 29.5038 42.0225 29.6222C42.0142 29.6329 42.0063 29.644 41.998 29.6551C41.8097 29.8988 41.5905 30.1195 41.3439 30.3119C41.3296 30.323 41.3143 30.3337 41.3 30.3448C41.1857 30.4313 41.0664 30.5117 40.9415 30.5853C40.9193 30.5982 40.8985 30.6126 40.8758 30.6251L40.8231 30.6556C40.3013 30.9368 39.706 31.0969 39.0732 31.0969C38.4404 31.0969 37.8451 30.9368 37.3238 30.6556L37.271 30.6251C37.2488 30.6126 37.2276 30.5982 37.2054 30.5853C37.0805 30.5117 36.9611 30.4313 36.8469 30.3448C36.8321 30.3337 36.8173 30.323 36.8029 30.3119C36.5568 30.1195 36.3376 29.8988 36.1489 29.6551C36.1405 29.6444 36.1327 29.6333 36.1243 29.6222C36.0346 29.5038 35.9518 29.3803 35.8769 29.2522C35.8741 29.2476 35.8713 29.2429 35.8686 29.2383C35.7145 28.9714 35.5952 28.6855 35.5115 28.3877C35.5045 28.3631 35.4985 28.3377 35.492 28.3132C35.461 28.1938 35.4374 28.0726 35.4185 27.9501C35.4134 27.9154 35.4069 27.8816 35.4028 27.8465C35.3842 27.698 35.3727 27.5481 35.3727 27.3964C35.3727 27.2137 35.3907 27.0337 35.4166 26.8561C35.4222 26.8196 35.4268 26.783 35.4333 26.7465C35.4643 26.5739 35.5059 26.4037 35.5609 26.2377C35.5688 26.2141 35.5781 26.1914 35.5864 26.1683C35.7131 25.8116 35.8935 25.473 36.1294 25.1631C36.1512 25.1344 36.1715 25.1044 36.1942 25.0766L36.2224 25.0401C36.9019 24.2195 37.9274 23.6959 39.0732 23.6959C40.219 23.6959 41.2445 24.2195 41.924 25.0396ZM31.2096 28.3215C31.2096 26.536 32.6625 25.0836 34.4476 25.0836C34.646 25.0836 34.8431 25.1025 35.0383 25.1395C35.0369 25.1423 35.0355 25.1455 35.0341 25.1483C34.9448 25.3084 34.8643 25.474 34.794 25.6451C34.7792 25.6807 34.7681 25.7173 34.7542 25.7534C34.7052 25.8815 34.6613 26.0124 34.6238 26.1456C34.6076 26.2034 34.5928 26.2617 34.5789 26.3205C34.5502 26.4412 34.5271 26.5638 34.5077 26.6877C34.4989 26.7437 34.4887 26.7992 34.4818 26.8561C34.461 27.0337 34.4476 27.2132 34.4476 27.3964C34.4476 27.5685 34.4587 27.7382 34.4772 27.9052C34.4813 27.9413 34.4887 27.976 34.4934 28.0116C34.5114 28.1467 34.5341 28.2803 34.5632 28.4112C34.5706 28.4445 34.5803 28.4769 34.5886 28.5098C34.6219 28.6439 34.6603 28.7762 34.7052 28.9057C34.7149 28.9339 34.7256 28.9612 34.7357 28.9894C34.7852 29.1236 34.8407 29.255 34.9018 29.3831C34.9124 29.4053 34.9231 29.428 34.9342 29.4502C35.0017 29.5857 35.0753 29.7171 35.1553 29.8447C35.1641 29.8586 35.1719 29.8725 35.1807 29.8864C35.4564 30.3161 35.8001 30.6968 36.1979 31.0141C36.2044 31.0196 36.2104 31.0256 36.2169 31.0312C35.6937 31.3744 35.0827 31.5594 34.4476 31.5594C32.6625 31.5594 31.2096 30.107 31.2096 28.3215ZM28.8968 42.1984V37.5728C28.8968 34.8136 31.1046 32.5604 33.8467 32.4864C33.6857 32.6201 33.5331 32.764 33.3869 32.9134C33.3545 32.9462 33.3254 32.9818 33.2939 33.0156C33.1824 33.1349 33.0747 33.2575 32.9729 33.3861C32.9382 33.43 32.9058 33.4758 32.8721 33.5212C32.7791 33.6451 32.6907 33.7719 32.6075 33.9033C32.577 33.9518 32.5478 34.0004 32.5182 34.0499C32.4386 34.1836 32.3646 34.32 32.2957 34.4602C32.2712 34.5101 32.2467 34.5596 32.2231 34.61C32.1569 34.7534 32.0977 34.9005 32.0432 35.0499C32.0247 35.1008 32.0048 35.1503 31.9877 35.2017C31.9368 35.3538 31.8937 35.5088 31.8544 35.6661C31.8415 35.7179 31.8262 35.7688 31.8147 35.821C31.7795 35.982 31.7536 36.1462 31.7314 36.3118C31.7245 36.3618 31.7143 36.4103 31.7087 36.4608C31.6856 36.674 31.6722 36.8905 31.6722 37.1102V42.1984H28.8968Z" fill="url(#paint2_linear_1521_417)"/>
<defs>
<linearGradient id="paint0_linear_1521_417" x1="35.5699" y1="1.12695" x2="35.5699" y2="52.3013" gradientUnits="userSpaceOnUse">
<stop stop-color="#1451A5"/>
<stop offset="1" stop-color="#049DE3"/>
</linearGradient>
<linearGradient id="paint1_linear_1521_417" x1="46.3565" y1="23.4692" x2="46.3565" y2="67.8731" gradientUnits="userSpaceOnUse">
<stop stop-color="#1451A5"/>
<stop offset="1" stop-color="#049DE3"/>
</linearGradient>
<linearGradient id="paint2_linear_1521_417" x1="39.0732" y1="22.7708" x2="39.0732" y2="44.9738" gradientUnits="userSpaceOnUse">
<stop stop-color="#1451A5"/>
<stop offset="1" stop-color="#049DE3"/>
</linearGradient>
</defs>
</svg>
