<?xml version="1.0" encoding="utf-8"?>
<!-- Generator: Adobe Illustrator 23.0.1, SVG Export Plug-In . SVG Version: 6.00 Build 0)  -->
<!DOCTYPE svg PUBLIC "-//W3C//DTD SVG 1.1//EN" "http://www.w3.org/Graphics/SVG/1.1/DTD/svg11.dtd" [
	<!ENTITY ns_extend "http://ns.adobe.com/Extensibility/1.0/">
	<!ENTITY ns_ai "http://ns.adobe.com/AdobeIllustrator/10.0/">
	<!ENTITY ns_graphs "http://ns.adobe.com/Graphs/1.0/">
	<!ENTITY ns_vars "http://ns.adobe.com/Variables/1.0/">
	<!ENTITY ns_imrep "http://ns.adobe.com/ImageReplacement/1.0/">
	<!ENTITY ns_sfw "http://ns.adobe.com/SaveForWeb/1.0/">
	<!ENTITY ns_custom "http://ns.adobe.com/GenericCustomNamespace/1.0/">
	<!ENTITY ns_adobe_xpath "http://ns.adobe.com/XPath/1.0/">
]>
<svg version="1.1" id="Layer_1" xmlns:x="&ns_extend;" xmlns:i="&ns_ai;" xmlns:graph="&ns_graphs;"
	 xmlns="http://www.w3.org/2000/svg" xmlns:xlink="http://www.w3.org/1999/xlink" x="0px" y="0px" viewBox="0 0 582.8 84.4"
	 style="enable-background:new 0 0 582.8 84.4;" xml:space="preserve">
<style type="text/css">
	.st0{fill:#4B6DAE;}
	.st1{fill:#2E3034;}
	.st2{fill:none;}
	.st3{fill:#184397;}
</style>
<metadata>
	<sfw  xmlns="&ns_sfw;">
		<slices></slices>
		<sliceSourceBounds  bottomLeftOrigin="true" height="81.4" width="574.4" x="8.8" y="304"></sliceSourceBounds>
	</sfw>
</metadata>
<g>
	<path class="st0" d="M45.8,2.4c-0.3,0-0.6,0.1-0.8-0.2c0.2,0,0.5,0,0.7,0C45.9,2.3,45.9,2.3,45.8,2.4C45.8,2.4,45.8,2.4,45.8,2.4z"
		/>
	<path class="st1" d="M289.8,38.6c0,0.3,0,0.7,0,1c0,13.2,0,26.5,0,39.7c0,1.2,0.2,1.1-1.1,1.1c-5.6,0-11.3,0-16.9,0
		c-0.1,0-0.2,0-0.4,0c-0.7,0-0.7,0-0.7-0.7c0-0.2,0-0.3,0-0.5c0-24.8,0-49.6,0-74.4c0-1.4-0.2-1.2,1.2-1.2c4.1,0,8.3,0,12.4,0
		c0.7,0,1.1,0.2,1.6,0.7c11.7,13.8,23.5,27.5,35.3,41.2c0.3,0.4,0.6,0.7,1,1.1c0.2-0.4,0.1-0.7,0.1-1c0-13.6,0-27.2,0-40.8
		c0-1.2,0-1.2,1.3-1.2c5.6,0,11.2,0,16.8,0c1.1,0,1-0.1,1,1c0,24.9,0,49.8,0,74.7c0,1.1,0.1,1-1,1c-4.3,0-8.7,0-13,0
		c-0.6,0-1-0.2-1.4-0.6c-11.8-13.5-23.6-27-35.4-40.5c-0.2-0.3-0.5-0.5-0.7-0.8C290,38.6,289.9,38.6,289.8,38.6z"/>
	<path class="st1" d="M526,38.7c0,0.3,0,0.7,0,1c0,13.1,0,26.3,0,39.4c0,0.2,0,0.4,0,0.6c0,0.8,0,0.8-0.8,0.8c-5.8,0-11.6,0-17.5,0
		c-0.8,0-0.8,0.1-0.8-0.7c0-0.2,0-0.3,0-0.5c0-24.8,0-49.6,0-74.4c0-1.4-0.2-1.2,1.2-1.2c4.1,0,8.3,0,12.4,0c0.7,0,1.1,0.2,1.6,0.7
		c11.7,13.6,23.3,27.3,35,40.9c0.4,0.5,0.8,0.9,1.3,1.5c0.3-0.4,0.1-0.7,0.1-1c0-13.6,0-27.2,0-40.8c0-1.2,0-1.2,1.2-1.2
		c5.6,0,11.1,0,16.7,0c0.1,0,0.2,0,0.3,0c1,0,0.9,0,0.9,0.9c0,25,0,49.9,0,74.9c0,0.2,0,0.4,0,0.6c0,0.2-0.1,0.3-0.3,0.3
		c-0.2,0-0.4,0-0.6,0c-4.4,0-8.7,0-13.1,0c-0.6,0-1-0.2-1.4-0.6c-11.8-13.5-23.6-27-35.3-40.4c-0.2-0.3-0.5-0.5-0.7-0.8
		C526.1,38.6,526,38.6,526,38.7z"/>
	<path class="st1" d="M179,3.9c-1.8,2.1-3.7,4.2-5.5,6.3c-7.6,8.8-15.3,17.6-22.9,26.4c-0.1,0.1-0.2,0.3-0.4,0.4
		c-0.2,0.2-0.2,0.4,0,0.6c0.1,0.1,0.2,0.3,0.3,0.5c10.1,13.7,20.2,27.5,30.3,41.2c0.2,0.3,0.5,0.6,0.6,1c-0.3,0.2-0.7,0.1-1,0.1
		c-7.1,0-14.1,0-21.2,0c-0.7,0-1.1-0.2-1.5-0.8c-6.6-8.8-13.3-17.6-20-26.3c-0.3-0.3-0.5-0.7-0.8-1c-0.3,0-0.4,0.2-0.5,0.3
		c-3.3,3.9-6.7,7.7-10,11.6c-0.4,0.4-0.5,0.8-0.5,1.4c0,4.5,0,9,0,13.5c0,0.2,0,0.4,0,0.7c0,0.4-0.1,0.6-0.5,0.6c-0.2,0-0.3,0-0.5,0
		c-5.7,0-11.4,0-17.1,0c0,0-0.1,0-0.1,0c-0.9,0-0.9,0-0.9-0.9c0-25,0-49.9,0-74.9c0-0.2,0-0.4,0-0.6c0-0.2,0.1-0.3,0.3-0.3
		c0.2,0,0.4,0,0.7,0c5.7,0,11.4,0,17.1,0c0.1,0,0.3,0,0.4,0c0.5-0.1,0.6,0.2,0.6,0.6c0,0.4,0,0.9,0,1.3c0,10.6,0,21.1,0,31.7
		c0,0.3-0.1,0.7,0.1,1c0.4-0.2,0.5-0.5,0.8-0.7c9.7-11.1,19.4-22.1,29.1-33.2c0.4-0.5,0.8-0.7,1.5-0.7c6.8,0,13.7,0,20.5,0
		c0.3,0,0.6,0,0.9,0C179,3.8,179,3.9,179,3.9z"/>
	<path class="st1" d="M438,42c0-12.4,0-24.8,0-37.2c0-1.3-0.2-1.1,1.2-1.1c18.6,0,37.2,0,55.8,0c1.3,0,1.1-0.1,1.1,1.2
		c0,4.8,0,9.5,0,14.3c0,0.2,0,0.4,0,0.7c0,0.3-0.1,0.5-0.4,0.5c-0.2,0-0.5,0-0.7,0c-12.2,0-24.4,0-36.6,0c-1.4,0-1.2-0.1-1.2,1.2
		c0,3.9,0,7.8,0,11.7c0,0.2,0,0.4,0,0.7c0,0.3,0.1,0.5,0.4,0.5c0.2,0,0.5,0,0.7,0c10.6,0,21.2,0,31.8,0c1.2,0,1-0.1,1,1.1
		c0,4.7,0,9.5,0,14.2c0,0.2,0,0.4,0,0.6c0,0.3-0.1,0.5-0.4,0.4c-0.2,0-0.5,0-0.7,0c-10.6,0-21.1,0-31.7,0c-1.3,0-1.1-0.1-1.1,1.1
		c0,3.7,0,7.4,0,11.1c0,0.2,0,0.4,0,0.6c0,0.4,0.2,0.5,0.6,0.5c0.2,0,0.5,0,0.7,0c12.2,0,24.3,0,36.5,0c1.3,0,1.1-0.1,1.1,1.1
		c0,4.8,0,9.5,0,14.3c0,0.2,0,0.4,0,0.7c0,0.4-0.2,0.5-0.5,0.5c-0.2,0-0.4,0-0.7,0c-18.6,0-37.2,0-55.8,0c-1.3,0-1.1,0.1-1.1-1.2
		C438,66.9,438,54.4,438,42z"/>
	<path class="st1" d="M186.9,26.9c0-7.3,0-14.6,0-21.9c0-0.2,0-0.4,0-0.6c0-0.8,0-0.8,0.8-0.8c5.9,0,11.7,0,17.6,0
		c0.1,0,0.1,0,0.2,0c0.5-0.1,0.7,0.1,0.6,0.6c0,0.2,0,0.4,0,0.7c0,13.3,0,26.6,0,39.9c0,3.1,0.4,6.2,1.5,9.2
		c1.8,4.5,4.7,7.9,9.5,9.4c5.5,1.7,10.7,1.2,15.4-2.4c3-2.3,4.8-5.4,5.8-9c0.7-2.4,0.9-4.9,0.9-7.4c0-13.2,0-26.5,0-39.7
		c0-1.2,0-1.2,1.2-1.2c5.6,0,11.2,0,16.8,0c0.2,0,0.4,0,0.7,0c0.4,0,0.5,0.2,0.5,0.5c0,0.2,0,0.4,0,0.6c0,13.2,0,26.3,0,39.5
		c0,5.2-0.5,10.3-2.2,15.3c-2.2,6.7-5.9,12.4-11.8,16.5c-3.8,2.6-7.9,4.3-12.4,5.2c-6.8,1.4-13.7,1.4-20.5-0.4
		c-11.5-3-19-10.3-22.6-21.6c-1.4-4.5-2-9-2-13.7C186.9,39.3,186.9,33.1,186.9,26.9C186.9,26.9,186.9,26.9,186.9,26.9z"/>
	<g>
		<path class="st2" d="M53.7,74.1c-6.5,2.1-13.1,2.1-19.7,0c-4.1-1.3-7.9-3.4-11.2-6.2c-2.4-2-4.3-4.3-6.2-6.7
			c-0.5-0.7-0.7-1.4-0.3-2.3c0.1-0.2,0.2-0.4,0.2-0.6c1.4-3.9,4.1-6.8,7.5-9c2.3-1.5,4.9-2.4,7.7-2.8c0.4-0.1,0.7,0,0.8,0.5
			c0.2,1.4,1.1,2.4,2.2,3.2c0.9,0.6,1.8,1.1,2.8,1.4c3.9,1.2,7.8,1.2,11.7,0.3c0.6-0.1,1-0.5,1.3-1c3-4.9,7.4-7.8,13.1-8.4
			c6-0.7,11,1.3,15.1,5.7c0.1,0.1,0.2,0.4,0.5,0.3c2.7-15.7-5.7-31.8-21.1-38.5C43.1,3.5,24.3,8,14.4,22.4
			c-8.7,12.6-9.3,31.3,3,44.7c11.2,12.2,28.2,14.2,40.5,8.7c-0.9-0.5-1.8-0.9-2.5-1.5C54.9,73.9,54.4,73.8,53.7,74.1z"/>
		<path class="st3" d="M84.3,47.1c0.4-4.2,0.2-8.3-0.7-12.4c-1.1-4.8-2.7-9.5-5.5-13.6C70.8,10.2,60.6,3.9,47.5,2.4
			c-0.3-0.1-0.6,0-0.9-0.1c-0.2,0-0.5,0-0.7,0c-0.3,0-0.6,0.1-0.8-0.1c-0.8,0-1.6,0-2.4,0c-0.3,0.2-0.6,0.1-1,0.1
			c-0.1,0-0.3,0-0.4,0c-0.3,0-0.6-0.1-0.9,0.1c-1.6,0.2-3.3,0.4-4.9,0.8C25.8,5.3,17.8,10.2,11.8,18C4.2,27.8,1.7,38.9,4,51
			c2.7,13.7,12.5,25.1,25.6,30c3.9,1.5,7.9,2.2,12.1,2.5c1.2,0.2,2.3,0,3.5,0.1c0.3,0,0.7,0.1,1-0.1c0.7-0.1,1.5-0.1,2.2-0.2
			c5.6-0.6,10.9-2.4,15.8-5.3c0.5-0.3,1.1-0.5,1.7-0.5c0.8,0,1.6-0.1,2.3-0.2C78.4,75.7,85,66,82.7,56c-0.1-0.5-0.1-1,0.1-1.5
			C83.5,52.1,84,49.6,84.3,47.1z M17.4,67.2C5.1,53.7,5.7,35,14.4,22.4C24.3,8,43.1,3.5,58.1,10c15.4,6.7,23.8,22.9,21.1,38.5
			c-0.3,0.1-0.4-0.2-0.5-0.3c-4.1-4.4-9.2-6.4-15.1-5.7c-5.7,0.6-10.1,3.6-13.1,8.4c-0.3,0.5-0.7,0.8-1.3,1
			c-3.9,0.9-7.8,0.9-11.7-0.3c-1-0.3-2-0.8-2.8-1.4c-1.1-0.8-2-1.8-2.2-3.2c-0.1-0.5-0.3-0.5-0.8-0.5c-2.8,0.3-5.3,1.2-7.7,2.8
			c-3.4,2.2-6,5.2-7.5,9c-0.1,0.2-0.2,0.4-0.2,0.6c-0.3,0.8-0.2,1.6,0.3,2.3c1.8,2.5,3.8,4.7,6.2,6.7c3.3,2.8,7.1,4.9,11.2,6.2
			c6.5,2,13.1,2,19.7,0c0.7-0.2,1.2-0.2,1.8,0.3c0.7,0.6,1.6,1,2.5,1.5C45.6,81.4,28.6,79.4,17.4,67.2z M65.6,75.1
			c-8.4,0-15.1-6.8-15.1-15.1c0-8.4,6.7-15.1,15.1-15.1c8.4,0,15.2,6.7,15.2,15.1C80.7,68.3,73.9,75.1,65.6,75.1z"/>
	</g>
	<g>
		<path class="st1" d="M426.6,35.1c-1.9-11.5-8.1-20.1-18.2-25.9c-6.1-3.5-12.7-5.1-19.7-5.5c-1-0.1-2-0.1-3-0.1c-10,0-20,0-30,0
			c-1,0-0.9,0-0.9,0.9c0,0.2,0,0.3,0,0.5c0,12.3,0,24.6,0,36.9c0,7.4,0,14.8,0,22.2c0,5.1,0,10.3,0,15.4c0,0.8,0,0.8,0.8,0.8
			c0.1,0,0.2,0,0.3,0c9.8,0,19.6,0,29.3,0c1.8,0,3.6-0.1,5.4-0.2c4.6-0.4,9.1-1.4,13.4-3.2c9-3.8,15.8-10,19.9-19
			C427.2,50.7,428,43,426.6,35.1z M407.6,44.6c-1,8.6-7.4,16.5-17.7,18.3c-1.4,0.3-2.8,0.4-4.3,0.4c-3.6,0-7.2,0-10.7,0
			c-0.2,0-0.4,0-0.6,0c-0.3,0-0.4-0.1-0.4-0.4c0-0.2,0-0.5,0-0.7c0-6.7,0-13.4,0-20.1c0-6.7,0-13.4,0-20.1c0-0.2,0-0.4,0-0.7
			c0-0.4,0.1-0.5,0.5-0.5c0.1,0,0.1,0,0.2,0c4.4,0,8.9-0.2,13.3,0.1c6.9,0.6,12.5,3.6,16.5,9.3C407.3,34.6,408.2,39.5,407.6,44.6z"
			/>
	</g>
	<path class="st3" d="M29.4,27.9c0.1-3.8,0.8-7.3,3-10.3c2.8-3.7,6.6-5.7,11.2-5.8c4.9-0.1,8.7,2.1,11.6,6c2.2,3,3.1,6.4,2.9,10.1
		c-0.2,3.8-0.9,7.5-2.5,10.9c-1.1,2.4-2.6,4.5-4.6,6.2c-1.7,1.5-3.7,2.5-6,2.8c-2.5,0.4-4.8-0.2-6.9-1.5c-1.7-1-3-2.3-4.1-3.9
		c-2.4-3.3-3.8-7.1-4.4-11.1C29.5,30.3,29.5,29,29.4,27.9z"/>
	<path class="st1" d="M65.6,71.4c-3.8,0-6.8-1.6-9.1-4.7c-0.2-0.3-0.3-0.6-0.2-1c0.9-2.1,2.5-3.5,4.7-4c0.4-0.1,0.6,0,0.8,0.4
		c0.2,0.6,0.7,0.9,1.3,1.1c1.6,0.6,3.2,0.6,4.8,0c0.6-0.2,1.1-0.6,1.3-1.2c0.1-0.3,0.3-0.4,0.5-0.3c2.1,0.2,4.2,1.9,5,4.2
		c0.1,0.4-0.1,0.6-0.2,0.9c-1.7,2.4-4.1,4-7,4.5c-0.3,0.1-0.7,0.1-1,0.1C66.2,71.4,65.9,71.4,65.6,71.4z"/>
	<path class="st1" d="M60.7,55.3c0-1,0.2-2,0.7-2.9c1-1.7,3-2.7,4.8-2.4c2,0.3,3.7,1.9,4.1,3.9c0.4,2.4-0.1,4.7-1.6,6.7
		c-0.7,0.9-1.5,1.4-2.7,1.6c-1.5,0.2-2.7-0.5-3.5-1.7C61.3,58.9,60.7,57.2,60.7,55.3z"/>
	<path class="st1" d="M61.1,50.6c-0.7,0.9-1.3,1.8-1.5,2.9c-0.4,1.7-0.2,3.3,0.3,4.9c0.1,0.2,0.1,0.5,0.3,0.7c0.2,0.4,0,0.5-0.4,0.6
		c-1.1,0.3-2-0.1-2.7-0.8c-1.1-1-1.6-2.4-1.8-3.8c-0.1-0.9-0.1-1.7,0.2-2.6C56.5,49.9,59.6,49.3,61.1,50.6z"/>
	<path class="st1" d="M70,50.6c1.9-1.3,4-0.4,4.9,0.8c0.7,0.8,1,1.8,1,2.9c-0.1,1.6-0.4,3.1-1.5,4.3c-1,1.1-2.2,1.5-3.5,0.9
		C71.9,56.4,72.3,53.4,70,50.6z"/>
	<path class="st1" d="M58.8,61c-1,0.7-1.9,1.3-2.5,2.2C55.6,64,55.2,65,54.9,66c-0.3,0.1-0.5-0.1-0.8-0.3c-0.7-0.5-1.3-1.1-1.9-1.8
		c-0.6-0.6-0.6-1.2-0.2-1.9c0.8-1.3,1.9-2.2,3.3-2.5c0.4-0.1,0.7-0.2,0.9,0.4c0.2,0.5,0.7,0.7,1.1,0.9C57.7,60.9,58.2,61,58.8,61z"
		/>
	<path class="st1" d="M76.3,66.2c-0.8-2.3-1.3-3.1-3.8-5.1c0.4-0.1,0.8-0.2,1.1-0.3c0.6-0.2,1.1-0.5,1.3-1.1
		c0.1-0.3,0.3-0.3,0.6-0.3c1.5,0.1,3.5,1.8,3.9,3.3c0.1,0.3,0,0.5-0.2,0.8C78.4,64.6,77.5,65.5,76.3,66.2z"/>
</g>
</svg>
