<svg width="683" height="138" viewBox="0 0 683 138" fill="none" xmlns="http://www.w3.org/2000/svg">
<path d="M23.75 54.3108L0.75 33.3108V137.311H23.75V54.3108Z" fill="#5F5F5F"/>
<path d="M28.75 88.8108V57.3108L57.75 84.3108V33.3108H81.25V137.311L28.75 88.8108Z" fill="url(#paint0_linear_1496_18)"/>
<rect x="108.75" y="33.3108" width="59.5" height="22.569" fill="url(#paint1_linear_1496_18)"/>
<rect x="108.75" y="114.742" width="59.5" height="22.569" fill="url(#paint2_linear_1496_18)"/>
<rect x="108.75" y="72.3108" width="55.3966" height="22.569" fill="url(#paint3_linear_1496_18)"/>
<path d="M234.25 137.311C263.245 137.311 286.75 114.03 286.75 85.3108C286.75 69.4079 279.543 55.1724 268.187 45.634L255.061 65.9316C259.868 70.9945 262.814 77.8119 262.814 85.3108C262.814 100.936 250.025 113.603 234.25 113.603C231.078 113.603 228.027 113.09 225.176 112.145L212.048 132.446C218.791 135.567 226.315 137.311 234.25 137.311Z" fill="url(#paint4_linear_1496_18)"/>
<path d="M208.144 130.436L221.085 110.425C211.935 105.71 205.686 96.2332 205.686 85.3108C205.686 69.6856 218.475 57.019 234.25 57.019C240.855 57.019 246.936 59.2393 251.774 62.9675L264.715 42.9563C256.124 36.8835 245.608 33.3108 234.25 33.3108C205.255 33.3108 181.75 56.592 181.75 85.3108C181.75 104.617 192.372 121.466 208.144 130.436Z" fill="#5F5F5F"/>
<path fill-rule="evenodd" clip-rule="evenodd" d="M321.563 33.3108H298.112V137.311H309.328H321.563H357.25V113.86H321.563V33.3108Z" fill="#5F5F5F"/>
<path d="M451.75 117.264C442.237 129.465 427.402 137.311 410.735 137.311C382.024 137.311 358.75 114.03 358.75 85.3108C358.75 56.592 382.024 33.3108 410.735 33.3108C425.61 33.3108 438.774 38.7936 448.25 48.8108C441.986 53.0753 437.306 65.4662 435.853 71.135C430.903 62.3779 421.509 56.4668 410.735 56.4668C394.809 56.4668 381.899 69.3807 381.899 85.3108C381.899 101.241 394.809 114.155 410.735 114.155C416.334 114.155 421.56 112.558 425.984 109.796C430.508 107.14 434.249 103.62 436.488 100.1C439.159 95.9016 440.145 85.9469 440.304 81.4943C440.685 65.8466 452.227 51.9163 457.473 47.1457L457.467 47.1357C466.738 38.555 479.139 33.3108 492.765 33.3108C521.476 33.3108 544.75 56.592 544.75 85.3108C544.75 114.03 521.476 137.311 492.765 137.311C477.928 137.311 464.543 131.093 455.071 121.121C460.25 117.271 466.347 103.328 467.296 98.8472C472.144 107.955 481.731 114.155 492.765 114.155C508.691 114.155 521.601 101.241 521.601 85.3108C521.601 69.3807 508.691 56.4668 492.765 56.4668C481.439 56.4668 471.637 62.9993 466.921 72.5032C463.967 77.3864 463.17 84.6325 463.196 88.6502C462.25 100.1 457.102 110.336 451.755 117.271C451.754 117.268 451.752 117.266 451.75 117.264Z" fill="url(#paint5_linear_1496_18)"/>
<path d="M578.75 108.014C580.551 108.21 582.387 108.311 584.25 108.311C608.274 108.311 627.75 91.5215 627.75 70.8108C627.75 50.1001 608.274 33.3108 584.25 33.3108C582.387 33.3108 580.551 33.4118 578.75 33.6077V55.6055C580.487 55.139 582.335 54.8877 584.25 54.8877C594.451 54.8877 602.721 62.0167 602.721 70.8108C602.721 79.6049 594.451 86.7339 584.25 86.7339C582.335 86.7339 580.487 86.4825 578.75 86.016V108.014Z" fill="url(#paint6_linear_1496_18)"/>
<rect x="552.75" y="33.3108" width="23" height="104" fill="#5F5F5F"/>
<path d="M640.914 40.3108H637.07L645.707 16.3108H649.891L658.527 40.3108H654.684L647.898 20.6702H647.711L640.914 40.3108ZM641.559 30.9124H654.027V33.9592H641.559V30.9124ZM665.614 16.3108V40.3108H661.993V16.3108H665.614Z" fill="url(#paint7_linear_1496_18)"/>
<path d="M680.25 27.8108C680.25 42.9986 667.938 55.3108 652.75 55.3108C637.562 55.3108 625.25 42.9986 625.25 27.8108C625.25 12.623 637.562 0.310791 652.75 0.310791C667.938 0.310791 680.25 12.623 680.25 27.8108ZM628.502 27.8108C628.502 41.2026 639.358 52.0588 652.75 52.0588C666.142 52.0588 676.998 41.2026 676.998 27.8108C676.998 14.419 666.142 3.56277 652.75 3.56277C639.358 3.56277 628.502 14.419 628.502 27.8108Z" fill="url(#paint8_linear_1496_18)"/>
<defs>
<linearGradient id="paint0_linear_1496_18" x1="15.75" y1="79.3108" x2="84.75" y2="80.3108" gradientUnits="userSpaceOnUse">
<stop stop-color="#3C9ED6"/>
<stop offset="1" stop-color="#E52580"/>
</linearGradient>
<linearGradient id="paint1_linear_1496_18" x1="94.0167" y1="43.2932" x2="171.788" y2="49.1796" gradientUnits="userSpaceOnUse">
<stop stop-color="#3C9ED6"/>
<stop offset="1" stop-color="#E52580"/>
</linearGradient>
<linearGradient id="paint2_linear_1496_18" x1="94.0167" y1="124.724" x2="171.788" y2="130.611" gradientUnits="userSpaceOnUse">
<stop stop-color="#3C9ED6"/>
<stop offset="1" stop-color="#E52580"/>
</linearGradient>
<linearGradient id="paint3_linear_1496_18" x1="95.0328" y1="82.2932" x2="167.495" y2="87.3996" gradientUnits="userSpaceOnUse">
<stop stop-color="#3C9ED6"/>
<stop offset="1" stop-color="#E52580"/>
</linearGradient>
<linearGradient id="paint4_linear_1496_18" x1="155.75" y1="79.3108" x2="293.663" y2="83.3083" gradientUnits="userSpaceOnUse">
<stop stop-color="#3C9ED6"/>
<stop offset="1" stop-color="#E52580"/>
</linearGradient>
<linearGradient id="paint5_linear_1496_18" x1="368.75" y1="85.3108" x2="544.75" y2="85.4429" gradientUnits="userSpaceOnUse">
<stop stop-color="#33A4DF"/>
<stop offset="0.492824" stop-color="#8B63AB"/>
<stop offset="1" stop-color="#E1257E"/>
</linearGradient>
<linearGradient id="paint6_linear_1496_18" x1="566.617" y1="66.4839" x2="631.008" y2="67.6916" gradientUnits="userSpaceOnUse">
<stop stop-color="#3C9ED6"/>
<stop offset="1" stop-color="#E52580"/>
</linearGradient>
<linearGradient id="paint7_linear_1496_18" x1="628.079" y1="26.0031" x2="671.435" y2="27.03" gradientUnits="userSpaceOnUse">
<stop stop-color="#3C9ED6"/>
<stop offset="1" stop-color="#E52580"/>
</linearGradient>
<linearGradient id="paint8_linear_1496_18" x1="611.631" y1="24.6377" x2="683.872" y2="26.7117" gradientUnits="userSpaceOnUse">
<stop stop-color="#3C9ED6"/>
<stop offset="1" stop-color="#E52580"/>
</linearGradient>
</defs>
</svg>
