<?xml version="1.0" encoding="utf-8"?>
<!-- Generator: Adobe Illustrator 23.0.1, SVG Export Plug-In . SVG Version: 6.00 Build 0)  -->
<!DOCTYPE svg PUBLIC "-//W3C//DTD SVG 1.1//EN" "http://www.w3.org/Graphics/SVG/1.1/DTD/svg11.dtd" [
	<!ENTITY ns_extend "http://ns.adobe.com/Extensibility/1.0/">
	<!ENTITY ns_ai "http://ns.adobe.com/AdobeIllustrator/10.0/">
	<!ENTITY ns_graphs "http://ns.adobe.com/Graphs/1.0/">
	<!ENTITY ns_vars "http://ns.adobe.com/Variables/1.0/">
	<!ENTITY ns_imrep "http://ns.adobe.com/ImageReplacement/1.0/">
	<!ENTITY ns_sfw "http://ns.adobe.com/SaveForWeb/1.0/">
	<!ENTITY ns_custom "http://ns.adobe.com/GenericCustomNamespace/1.0/">
	<!ENTITY ns_adobe_xpath "http://ns.adobe.com/XPath/1.0/">
]>
<svg version="1.1" id="Layer_1" xmlns:x="&ns_extend;" xmlns:i="&ns_ai;" xmlns:graph="&ns_graphs;"
	 xmlns="http://www.w3.org/2000/svg" xmlns:xlink="http://www.w3.org/1999/xlink" x="0px" y="0px" viewBox="0 0 7184 512"
	 style="enable-background:new 0 0 7184 512;" xml:space="preserve">
<style type="text/css">
	.st0{fill:#2E3034;}
	.st1{fill:#184397;stroke:#FFFFFF;stroke-width:9;stroke-miterlimit:10;}
	.st2{fill:#FFFFFF;}
	.st3{fill:#184397;}
</style>
<metadata>
	<sfw  xmlns="&ns_sfw;">
		<slices></slices>
		<sliceSourceBounds  bottomLeftOrigin="true" height="518.6" width="7130.6" x="20.4" y="-5.1"></sliceSourceBounds>
	</sfw>
</metadata>
<g>
	<path class="st0" d="M4290.9,214.9c0,2.8,0,5.5,0,8.3c0,78.7,0,157.3,0,236c0,2-0.2,4,0,6c0.6,4.7-1.8,5.7-6,5.6
		c-30.8-0.1-61.6-0.1-92.3,0c-4.3,0-6.4-1.2-5.9-5.8c0.2-1.7,0-3.4,0-5.1c0-132.8,0-265.6,0-398.5c0-11.6-1.4-10.4,10.5-10.4
		c27.9,0,55.9,0.2,83.8-0.2c7.1-0.1,11.2,1.9,15.2,7.9c53.8,80.9,107.9,161.5,161.9,242.3c1.7,2.5,3.4,5,5.1,7.5
		c0.6-0.1,1.2-0.3,1.7-0.4c0-3,0-5.9,0-8.9c0-79.5,0-159,0-238.6c0-10.9-1-9.6,9.6-9.6c28.2,0,56.4,0,84.7,0c10.4,0,9.8-1.3,9.8,9.5
		c0,24.8,0,49.6,0,74.4c0,107.5,0,214.9,0,322.4c0,1.4,0,2.9,0,4.3c0,9.7,1,9.3-9.2,9.3c-29.1,0-58.1-0.2-87.2,0.2
		c-6,0.1-9.2-2.1-12.3-6.8c-54.1-80.7-108.3-161.3-162.5-241.9c-1.7-2.6-3.5-5.1-5.3-7.7C4292,214.6,4291.5,214.7,4290.9,214.9z"/>
	<path class="st0" d="M6290.7,213.8c0,18.1,0,34.9,0,51.7c0,65,0,130,0,195c0,11.6,1.5,10.2-10.6,10.3c-27.9,0.1-55.9,0-83.8,0
		c-2,0-4,0-6,0c-2.4,0-3.7-1-3.7-3.6c0-2,0-4,0-6c0-133.4,0-266.8,0-400.2c0-0.9,0-1.7,0-2.6c0.1-7.4,0.1-7.4,7.5-7.4
		c29.9,0,59.9,0.1,89.8-0.1c5.3,0,8.1,2,10.9,6.1c37.3,55.9,74.7,111.8,112.1,167.6c17.9,26.7,35.8,53.5,53.7,80.2
		c0.8,1.2,1.7,2.2,2.9,3.9c2.1-3.3,1.2-6.4,1.2-9.2c0.1-78.7,0-157.3,0-236c0-1.7,0-3.4,0-5.1c0.1-7.4,0.1-7.4,7.5-7.4
		c29.6,0,59.3,0,88.9,0c7.6,0,7.7,0.1,7.7,8.2c0,88.9,0,177.9,0,266.8c0,44.7,0,89.5,0,134.2c0,2-0.1,4,0,6c0.2,3.3-1.2,4.7-4.5,4.6
		c-1.7-0.1-3.4,0-5.1,0c-28.8,0-57.6-0.2-86.4,0.2c-6.2,0.1-9.7-2.1-13-7.1c-54-80.7-108.3-161.3-162.5-241.9
		C6295.7,219.3,6294.4,216.4,6290.7,213.8z"/>
	<path class="st0" d="M1164.9,215.5c0,3.1,0,6.2,0,9.3c0,78.1,0,156.2,0,234.3c0,1.7,0,3.4,0,5.1c-0.2,6.2-0.2,6.4-6,6.4
		c-30.8,0.1-61.6-0.1-92.3,0.1c-4.6,0-6.3-1.5-5.7-5.9c0.2-1.4,0-2.8,0-4.3c0-133.1,0-266.2,0-399.3c0-12-1.4-10.4,10.5-10.4
		c28.5-0.1,57,0.2,85.5-0.2c5.9-0.1,9.2,1.9,12.3,6.7c54.2,81.3,108.6,162.5,162.9,243.6c1.6,2.3,3.2,4.6,5.2,7.6
		c1.9-3.3,1.2-6.4,1.2-9.3c0.1-79.2,0-158.5,0.1-237.7c0-12.2-1.6-10.7,11.1-10.7c28.5-0.1,57,0,85.5,0c7.5,0,7.5,0.1,7.5,7.4
		c0,135.1,0,270.2,0,405.3c0,7.1-0.1,7.1-7.8,7.1c-29.6,0-59.3-0.2-88.9,0.2c-5.7,0.1-8.6-2.1-11.6-6.6
		C1290,398,1245.5,331.9,1201,265.7c-9.9-14.7-19.7-29.3-29.6-43.9c-1.5-2.3-3.2-4.5-4.8-6.7
		C1166.1,215.2,1165.5,215.4,1164.9,215.5z"/>
	<path class="st0" d="M1829.9,309.1c-4.8,0-8.1,0-11.5,0c-36.8,0-73.5,0-110.3,0c-2,0-4-0.1-6,0c-3.4,0.2-4.4-1.4-4.4-4.6
		c0.1-8,0-16,0-23.9c0-13.7,0.2-27.4-0.1-41c-0.1-4.5,1.4-5.8,5.9-5.8c24.8,0.2,49.6,0.1,74.4,0.1c45.3,0,90.7,0,136,0
		c2,0,4,0.1,6,0c2.8-0.1,4.3,1,4.2,3.9c0,2,0,4,0,6c0,25.7-0.1,51.3,0.1,77c0,6.1-0.9,11.9-3.1,17.5
		c-27.2,69-77.2,112.5-149.1,129.3c-54.3,12.6-107.9,7.7-158.3-17.1c-58.2-28.6-93.8-75.8-107.5-138.8
		c-11.1-51.3-7-101.7,15.7-149.4c28.3-59.2,76-95.1,139.3-109.5c51.5-11.7,102.6-8.9,151.8,11.6c52.4,21.9,86.5,60.6,102.5,115.2
		c0.3,1.1,0.4,2.2,0.7,3.3c-2.2,1.8-4.5,1.1-6.6,1.1c-33.6,0.1-67.3,0-100.9,0.1c-3.7,0-6.9,0.1-9.4-3.9c-12.5-20-31-31.4-53.7-36.3
		c-22.7-4.9-45.4-4.2-67.5,3.4c-34.5,11.8-55.8,36.5-65.8,70.9c-8.4,29.1-8.1,58.7,0.4,87.7c12.1,41.3,40.2,65.9,82,74.5
		c23.7,4.9,47.6,4.9,70.9-3.1C1798.4,366,1818,342.3,1829.9,309.1z"/>
	<path class="st0" d="M4644.7,260.5c0-66.7,0-133.4,0-200.1c0-10.8-0.9-9.4,9.7-9.5c28.8,0,57.6,0,86.4,0c7.9,0,8,0.1,8,7.9
		c0,49,0,98.1,0,147.1c0,10.4-1.2,9.3,8.9,9.3c47.9,0,95.8,0,143.7,0c1.7,0,3.4-0.1,5.1,0c3.1,0.2,4-1.4,3.8-4.2c-0.1-2,0-4,0-6
		c0-47.9,0-95.8,0-143.7c0-1.7,0.2-3.4,0-5.1c-0.4-4.1,1.2-5.5,5.3-5.4c8.8,0.2,17.7,0.1,26.5,0.1c21.1,0,42.2,0,63.3,0
		c10,0,9-0.7,9,9.4c0,36.5,0,73,0,109.5c0,96.9,0,193.9,0,290.8c0,11.2,1.4,10.2-9.9,10.2c-28.8,0-57.6,0-86.4,0
		c-7.8,0-7.8-0.1-7.9-8c0-51,0-102.1,0-153.1c0-1.7,0-3.4,0-5.1c-0.1-6.3-0.1-6.4-6.6-6.5c-49.3,0-98.6,0-148,0
		c-6.8,0-6.9,0.1-6.9,7c0,51.3,0,102.6,0,153.9c0,2-0.2,4,0,6c0.5,4.7-1.8,5.7-6,5.7c-30.8-0.1-61.6-0.1-92.4,0
		c-4.5,0-5.9-1.4-5.8-5.9c0.2-23.4,0.1-46.8,0.1-70.1C4644.7,350,4644.7,305.3,4644.7,260.5z"/>
	<path class="st0" d="M1981.8,260.5c0-66.4,0-132.8,0-199.3c0-11.6-1.3-10.3,10.7-10.3c80.1,0,160.2,0,240.3,0c1.7,0,3.4,0.1,5.1,0
		c3.9-0.4,5.6,0.9,5.6,5.2c-0.2,23.9-0.2,47.9,0,71.8c0,4.5-1.8,5.1-5.6,5.1c-11.1-0.2-22.2-0.1-33.4-0.1c-36.5,0-73,0-109.5,0
		c-2,0-4,0-6,0c-2.1,0-3.1,1.1-3.2,3.1c0,1.4,0,2.9,0,4.3c0,23.4,0,46.7,0,70.1c0,7.4,0.1,7.4,7.5,7.4c40.5,0,81,0,121.4,0
		c1.4,0,2.9,0,4.3,0c6.2,0.2,6.3,0.2,6.3,6.9c0,18.5,0,37.1,0,55.6c0,4-0.2,8,0,12c0.2,3.4-1.4,4.6-4.6,4.4c-2-0.1-4,0-6,0
		c-39.3,0-78.7,0-118,0c-2,0-4,0.1-6,0c-3.6-0.3-5.1,1-5,4.8c0.2,7.7,0.1,15.4,0.1,23.1c0,18.5,0,37.1,0,55.6c0,9.3-0.6,8.6,8.9,8.6
		c45.3,0,90.6,0,136,0c1.4,0,2.9,0,4.3,0c9.1,0.1,8.3-0.9,8.3,8.2c0,22.2,0,44.5,0,66.7c0,6.9-0.1,6.9-7.1,7c-20.5,0-41,0-61.6,0
		c-60.4,0-120.9,0-181.3,0.1c-1.4,0-2.9,0-4.3,0c-7.3-0.1-7.4-0.1-7.4-7.6C1981.8,395.6,1981.8,328,1981.8,260.5z"/>
	<path class="st0" d="M3678.1,261c0-65.9,0-131.7,0-197.6c0-1.7,0-3.4,0-5.1c0.1-7.4,0.1-7.4,7.5-7.4c82.1,0,164.2,0,246.3,0
		c7.8,0,7.8,0.1,7.8,8c0,22,0,43.9,0,65.9c0,8.5,0.9,8.1-8.5,8.1c-46.2,0-92.4,0-138.5,0c-11.7,0-10.4-1.8-10.5,10.4
		c-0.1,22.5,0,45,0,67.6c0,6.9,0.1,7,7,7c40.5,0,81,0,121.4,0c2,0,4,0.2,6,0c3.9-0.4,5,1.6,4.7,5.1c-0.1,1.1,0,2.3,0,3.4
		c0,20.5,0,41.1,0,61.6c0,9.7,1,8.8-8.6,8.8c-39.6,0-79.3,0-118.9,0c-1.4,0-2.9,0-4.3,0c-7.5,0-7.4-0.7-7.4,7.4c0,25.7,0,51.3,0,77
		c0,7.6,0.1,7.7,8.1,7.7c45.6,0,91.2,0,136.8,0c1.7,0,3.4,0,5.1,0c7.3,0.1,7.4,0.1,7.4,7.5c0,21.7,0,43.3,0,65
		c0,9.4,1.5,9.4-9.1,9.4c-38.2,0-76.4,0-114.6,0c-42.5,0-85,0-127.4,0c-2,0-4-0.1-6,0c-3.3,0.3-4.7-1.1-4.6-4.4c0.1-2,0-4,0-6
		C3678.1,393.9,3678.1,327.5,3678.1,261z"/>
	<path class="st0" d="M5857.5,260.7c0-66.7,0-133.4,0-200.1c0-11-1-9.6,9.5-9.6c80.7,0,161.4,0,242,0c0.9,0,1.7,0,2.6,0
		c7.4,0.1,7.5,0.1,7.5,7.5c0,22.5,0,45,0,67.6c0,6.8-0.1,6.9-7.1,6.9c-47,0-94.1,0-141.1,0c-9.6,0-9.3-1.5-9.3,9.1
		c0,22.5,0,45,0,67.6c0,8.4,0,8.4,8.2,8.4c40.2,0,80.4,0,120.6,0c2,0,4,0.1,6,0c3.4-0.3,4.4,1.4,4.4,4.6c-0.2,6.6,0,13.1,0,19.7
		c0,15.1,0,30.2,0,45.3c0,10.7,1.2,9.3-9.8,9.3c-39.3,0.1-78.7,0-118,0c-1.7,0-3.4,0-5.1,0c-6,0.1-6.2,0.1-6.2,6
		c-0.1,16.5,0,33.1,0,49.6c0,9.7,0,19.4,0,29.1c0,7.3,0.1,7.3,7.6,7.3c46.2,0,92.4,0,138.5,0c11.4,0,11.4,0,11.4,11.3
		c0,20.2,0,40.5,0,60.7c0,10.6,1.6,9.9-10.3,9.9c-71,0-142,0-213,0c-10.3,0-20.5,0-30.8,0c-7.5,0-7.6-0.1-7.6-7.3
		c0-13.7,0-27.4,0-41.1C5857.5,368.5,5857.5,314.6,5857.5,260.7z"/>
	<path class="st0" d="M3383.9,301.3c0,53.3,0,106.6,0,159.9c0,9.9,1.4,9.5-9.8,9.5c-28.5,0-57,0-85.5,0.1c-9.6,0-8.8,0.7-8.8-8.7
		c0-99.8,0-199.5,0-299.3c0-7.7,0-15.4,0-23.1c-0.1-6.8-0.1-6.9-7.2-6.9c-31.9,0-63.8,0-95.8,0c-11.7,0-10,1.6-10.1-9.8
		c-0.1-21.7-0.1-43.3,0-65c0-7.1,0.1-7.1,6.9-7.2c14.8,0,29.6,0,44.5,0c89.8,0,179.6,0,269.3,0c10.8,0,9.5-0.8,9.5,9.7
		c0,21.4,0,42.8,0,64.1c0,8.5,1,8.1-8.4,8.1c-31.6,0-63.3,0-94.9,0c-2,0-4,0.1-6,0c-2.4-0.1-3.7,0.9-3.7,3.5c0,2.3,0,4.6,0,6.8
		C3383.9,195.9,3383.9,248.6,3383.9,301.3z"/>
	<path class="st0" d="M5567.3,260.9c0-66.1,0-132.2,0-198.3c0-1.7,0-3.4,0-5.1c0.1-6.4,0.1-6.5,6.7-6.5c30.2,0,60.4,0,90.6,0
		c6.7,0,6.8,0.1,6.8,7.3c0,28.5,0,57,0,85.5c0,79.5,0,159,0,238.5c0,10.1-1.4,9.4,9.8,9.5c38.8,0,77.5,0,116.3,0c2,0,4,0.1,6,0
		c3.3-0.2,4.5,1.3,4.5,4.6c-0.1,23.4-0.1,46.7,0,70.1c0,3.4-1.5,4.6-4.6,4.4c-1.7-0.1-3.4,0-5.1,0c-73.8,0-147.6,0-221.4,0
		c-11.1,0-9.5,0.3-9.5-9.8C5567.2,394.2,5567.3,327.6,5567.3,260.9z"/>
	<path class="st0" d="M4111.3,261.9c0,66.4,0,132.8,0,199.1c0,10.7,1.2,9.7-9.5,9.7c-28.5,0-57,0-85.5,0c-1.7,0-3.4-0.1-5.1,0
		c-2.9,0.1-4.2-1.2-4-4.1c0.1-2,0-4,0-6c0-133,0-266.1,0-399.1c0-1.7,0.1-3.4,0-5.1c-0.4-4,1.2-5.6,5.3-5.5
		c7.4,0.2,14.8,0.1,22.2,0.1c23.1,0,46.2,0,69.2,0c7.3,0,7.4,0.1,7.4,7.5C4111.3,126.3,4111.3,194.1,4111.3,261.9z"/>
	<g>
		<path class="st0" d="M2580.4,258.1c-2.7-0.9-5.7-0.8-7.9-3.3c1.3-0.5,2.6-1,3.8-1.5c1.3-0.5,2.7-0.9,4-1.5
			c28.2-11.6,48.2-31,57.3-60.5c5.9-19.2,6.1-38.8,1.4-58.3c-8.2-33.7-30.1-55.4-61.2-68.7c-24.3-10.4-49.9-13.4-76-13.5
			c-60.7-0.1-121.4,0-182.1,0c-8.5,0-8.3-0.9-8.3,8.3c0,1.1,0,2.3,0,3.4c0,59,0,118,0,177c0,74.4,0,148.8,0,223.2
			c0,7.7,0.1,7.8,7.1,7.8c63.9,0,127.7,0.1,191.6,0c20.3,0,40.4-2,59.9-8.1c45.6-14.2,75-42.8,81.2-91.9
			C2657.2,322.4,2630.5,274.2,2580.4,258.1z M2415.4,139.7c0-6.7,0.1-6.8,6.4-6.8c21.4,0,42.7-0.1,64.1,0.1
			c8.3,0.1,16.4,1.4,24.3,4.4c16,6.2,24.5,17.9,25.7,34.9c0.4,5.7,0.4,11.4-0.9,17c-4.1,17.3-17.6,28.1-37.9,30.6
			c-9.9,1.2-19.9,1.1-29.9,1.1c-14.8,0-29.6,0-44.5,0c-7.3,0-7.3-0.1-7.3-7.6c0-12.3,0-24.5,0-36.8
			C2415.4,164.2,2415.4,152,2415.4,139.7z M2546,350.2c-1.5,14-8.5,24.5-21.1,31c-7.2,3.7-14.9,6.1-22.9,6.2
			c-27.3,0.4-54.6,0.3-82,0.6c-3.9,0-4.7-1.7-4.7-5.1c0.1-13.7,0-27.3,0-41c0-13.4-0.1-26.8,0-40.1c0-6.2,0.1-6.4,5.9-6.4
			c23.9,0,47.8-0.2,71.7,0.1c10,0.1,19.8,1.9,28.9,6.4c14.8,7.3,22.9,19.2,24.1,35.6C2546.5,341.7,2546.5,346,2546,350.2z"/>
	</g>
	<g>
		<path class="st0" d="M3129.4,227c-10-68.4-44.8-120.5-105.4-154.1c-50.1-27.8-103.9-34-159.7-22.6
			c-101.7,20.8-170.6,105.5-170.5,210.5c0.6,9.4,0.7,20.2,2.3,31c10.3,68,44.6,120.3,104.7,153.8c62.5,34.9,128.5,38.8,195.4,14
			c55.6-20.6,95.4-59,118.8-113.7C3131.2,307.8,3135.4,267.8,3129.4,227z M3011.7,324.2c-17.9,34.4-46.8,52.6-85,56.5
			c-16.6,1.7-33.1,0.7-49.1-4.1c-33.4-10-56.4-31.6-68.2-64.3c-12.7-35.3-12.8-71.2,0.2-106.3c14.4-39,43.4-60.8,84.4-66.9
			c19.5-2.9,38.8-1.8,57.5,4.2c38,12.3,60.1,39.5,69.9,77.5c3.3,12.8,4.2,25.8,4.7,37.5C3025.6,282.2,3022.2,304.1,3011.7,324.2z"/>
	</g>
	<g>
		<path class="st0" d="M5507.2,227.3c-10.9-74.3-50.3-128.4-118-160.9c-43.6-21-90-25.8-137.6-18c-106.7,17.7-179.8,103.3-180.1,212
			c0.6,9.7,0.7,20.8,2.4,31.8c9,60,37.6,108.5,87.7,142.8c58.4,40,122.9,49.3,190.9,31.4c62.4-16.4,108.4-54.1,136.5-112.5
			C5508.4,313.8,5513.7,271.2,5507.2,227.3z M5389.1,324.9c-18,34-46.7,51.9-84.5,55.8c-16.6,1.7-33.1,0.7-49.1-4.1
			c-33.4-10-56.4-31.6-68.2-64.2c-12.8-35.3-12.9-71.1,0.1-106.3c14.4-39,43.3-60.9,84.4-67c17.7-2.7,35.3-2,52.5,2.8
			c40.7,11.2,64.4,38.8,74.9,78.8c3.4,12.8,4.2,25.8,4.7,38.1C5403.4,282.4,5399.9,304.5,5389.1,324.9z"/>
	</g>
	<g>
		<path class="st0" d="M1012,465.2C962,329.3,912,193.4,861.9,57.4c-2.4-6.5-2.5-6.5-9.8-6.5c-35.1,0-70.1,0-105.2,0
			c-9.2,0-7.6-0.6-10.7,7.7c-15.1,40.8-30,81.7-45.1,122.6c-34.4,93.4-68.9,186.9-103.3,280.4c-1,2.7-3.3,5.4-1.8,8.7
			c0.7,0.2,1.3,0.4,1.8,0.4c33.3,0,66.7,0,100,0.2c4.8,0,6.2-2.1,7.6-6.1c6.9-20.5,14.1-40.9,21.2-61.3c2.4-7,2.5-7,9.3-7
			c48.5,0,96.9,0,145.4,0c7.3,0,6.6-0.9,9.4,7c7,20.2,13.9,40.3,20.9,60.5c2.4,6.8,2.4,6.8,9.4,6.9c31.9,0,63.8,0,95.8,0
			c1.9,0,4,0.5,6-0.8C1013.3,467.7,1012.5,466.5,1012,465.2z M746.6,317.2c17.3-50.7,34.3-100.8,52.1-153
			c17.9,52.1,35.2,102.2,52.7,153C816.1,317.2,781.8,317.2,746.6,317.2z"/>
	</g>
	<g>
		<circle class="st1" cx="279.8" cy="257.8" r="254.8"/>
		<g>
			<path class="st2" d="M443.9,186.4c-4-4.1-7.9-8.2-12.4-11.7c-4.1-3.2-4.3-6.7-2.9-11.2c1.8-5.7,3.3-11.5,4.6-17.3
				c1.4-6.3,0.3-8.1-6-9.9c-5.2-1.5-10.5-2.7-15.7-4c-3.2-0.8-5.4-2.4-5.9-6.2c-0.8-5.6-2.4-11.1-3.8-16.6c-1.6-6.5-3.1-7.6-9.5-6.4
				c-7.2,1.4-14.4,3.3-21.6,5.1c-3.6,0.9-6.4,0.6-9.2-2.4c-4.8-5.2-10.1-10.1-15.3-14.9c-4.9-4.5-8.6-4.6-13.3-0.1
				c-4.5,4.3-9,8.7-13.1,13.5c-2.9,3.3-5.9,3.7-9.8,2.5c-5.7-1.8-11.5-3.2-17.3-4.6c-6.4-1.6-8.2-0.7-10.1,5.5
				c-1.6,5.2-3.1,10.4-3.9,15.7c-0.7,4.4-3.1,6.3-7.1,7.1c-5.6,1.2-11.1,2.3-16.6,3.7c-5.7,1.5-6.4,2.7-5.1,8.5
				c1.6,7.5,3.2,15,5.2,22.5c1,3.7,0.4,6.4-2.4,9.2c-5.4,5.1-10.5,10.5-15.5,15.9c-5.2,5.5-5.2,6.6-0.1,11.9c3.6,3.7,7,7.6,11,10.7
				c5.1,4,5.8,8.7,4.1,14.4c-1.6,5.2-3,10.4-4.3,15.6c-1.5,6-0.7,7.6,5.2,9.6c5.7,1.9,11.4,3.4,17.3,4.8c3.3,0.7,4.8,2.5,5.4,5.6
				c1.1,5.9,2.3,11.7,3.8,17.5c1.6,6.1,3.1,6.9,9.1,5.7c7.2-1.5,14.5-3.1,21.7-4.9c4.3-1,7.6,0,10.7,3.3c4.9,5.2,10,10.1,15.2,15
				c5,4.7,6.1,4.7,11.2-0.3c4.5-4.4,8.9-8.8,13.1-13.4c2.7-3,5.5-3.6,9.2-2.5c6,1.8,12,3.6,18.1,5c6.6,1.5,8.6,0.2,10.4-6.4
				c1.3-4.7,2.5-9.4,3.6-14.1c0.9-4.3,2.9-7,7.8-7.6c5.6-0.7,11.1-2.4,16.7-3.5c3.6-0.7,5.7-2.4,5.1-7.9c-1.3-6.3-2.5-14.2-4.7-21.8
				c-1.7-5.9-0.8-10.1,4-14.2c5-4.2,9.3-9.2,13.7-14C448.9,193.3,448.9,191.4,443.9,186.4z M431.4,198.2c-4,4-8.1,8.1-12.2,11.9
				c-3.7,3.4-5.1,7.1-3.6,12.2c1.7,5.7,2.6,11.7,3.8,17.5c1.3,6,1.3,6.1-4.5,7.5c-4.4,1.1-8.9,2.1-13.3,2.9c-4.5,0.8-7,3.1-7.9,7.6
				c-1.1,5-2.4,9.9-4,14.8c-1,3.3-1.7,3.5-4.7,3.1c-6-1.5-11.8-3-17.5-4.5c-4.2-1.1-7.6-0.7-10.7,3c-3.4,4.2-7.5,7.8-11.1,11.8
				c-2.6,2.9-5,3.2-7.9,0.4c-4.7-4.6-9.8-8.7-14.2-13.6c-3.4-3.7-7.1-4.2-11.6-3.2c-6.4,1.5-12.8,2.9-19.1,4.5
				c-3.6,0.9-5.4-0.3-6-3.8c-0.8-4.5-1.9-8.9-2.6-13.4c-0.7-5.1-3-8.2-8.4-9.2c-5-0.9-9.8-2.7-14.8-4c-2.9-0.7-3.5-2-2.6-4.9
				c1.7-5.4,2.5-11.1,4.3-16.5c1.7-5.1,0.2-8.8-3.5-12.2c-3.8-3.5-7.3-7.2-11.2-10.6c-2.8-2.5-2.6-4.6,0-7.1c4.7-4.6,9-9.6,13.8-14
				c3.8-3.5,4.8-7.4,3.5-12.3c-1.6-6-2.7-12.2-4.3-18.3c-1.1-4,0.4-5.8,4.3-6.5c4.5-0.8,8.9-2.1,13.4-2.5c5.1-0.5,7.5-3.2,8.5-8
				c1-4.7,2.9-9.2,3.8-14c0.8-4.5,3.1-4.6,6.7-3.5c5.2,1.6,10.5,2.5,15.6,4.3c4.9,1.7,8.1,0,11.3-3.5c3.6-4,7.7-7.6,11.2-11.8
				c2.8-3.4,4.8-2.7,7.5,0.1c4.4,4.5,9.1,8.6,13.6,13c3.5,3.4,7.1,5.2,12.3,3.4c5.4-1.8,11.1-2.5,16.6-3.7c6.8-1.5,7-1.3,8.4,5.4
				c0.9,4.5,1.9,8.9,2.7,13.4c0.7,3.8,2.8,5.9,6.6,6.7c5.3,1.1,10.5,2.6,15.7,3.9c3,0.8,4.2,2.1,3.1,5.5c-1.8,5.7-2.9,11.6-4.5,17.3
				c-1.2,4.1-0.2,7.1,2.9,9.9c3.8,3.4,7.4,7.1,11,10.8C436.4,193.1,436.4,193.1,431.4,198.2z"/>
		</g>
		<g>
			<path class="st2" d="M340.3,125.9c-37.4,0.7-69,30.8-68.3,70.7c0.7,37,31.4,66.9,68.7,66.4c38.5-0.5,68.7-31.1,68.4-69.5
				C408.9,156.8,376.9,125.3,340.3,125.9z M341.1,253.4c-32.5-0.1-59.3-26.6-59.4-59.2c-0.2-32.6,25.7-58.2,58.5-58.7
				c29.9-0.4,59.5,24.5,59.2,59C399.8,227.6,372.6,253.4,341.1,253.4z"/>
		</g>
		<path class="st2" d="M307.3,231c7.2-10.2,13.8-19.4,20.4-28.6c9.2-12.7,18.8-25.1,27.6-38c4.2-6.1,9.1-7.8,16.4-5.7
			c-2,5.3-5.9,9.2-8.9,13.5c-12.2,17.2-24.7,34.2-37.2,51.1C319.5,231.6,319.4,231.5,307.3,231z"/>
		<path class="st2" d="M360.5,199.3c8.6-0.2,15.7,6.7,15.9,15.5c0.2,9.3-6.6,16.8-15.4,17c-8.5,0.2-15.7-6.9-15.9-15.5
			C344.8,207,351.7,199.4,360.5,199.3z"/>
		<path class="st2" d="M319.9,157.4c8.6,0.1,15.8,7.4,15.7,15.9c-0.1,8.9-7.6,16.5-16.3,16.7c-7.8,0.1-15.4-7.9-15.4-16.3
			C303.9,164.2,310.7,157.3,319.9,157.4z"/>
		<path class="st2" d="M434.9,303.5c-7.6-4.5-14.7-3.3-21.7,1.4c-23.5,15.4-47.1,30.7-70.7,46.1c-5.1,3.3-6,5.4-4.1,8.3
			c1.9,2.9,4.4,2.9,9.3-0.1c0.5-0.3,1-0.6,1.4-0.9c15.2-10,30.4-20,45.6-30c7.8-5.2,15.6-10.5,23.5-15.4c8.1-5,15.9-0.8,16.4,8.5
			c0.2,4.4-1.3,8.1-4.9,10.8c-2.6,2-5.3,4-8.1,5.8c-38.7,25-77.3,50.1-116.4,74.5c-8.6,5.4-17.2,6.5-26.7,2.9
			c-13.9-5.3-28-10-42-15.2c-13.5-5-26.8-10.5-41.7-7.3c-3.2,0.7-4.4-1.1-4.4-4.3c0.1-6.6,0-13.2,0-19.9c0-19.3-0.1-38.6,0-58
			c0-7.4,0.2-7.3,7.7-8.9c7.4-1.6,14.8-1.6,22.2-1.6c12.6,0.1,23.9,3.5,32.6,13.3c3.5,4,8.1,5.5,13.4,5.4c5-0.1,9.9,0,14.9,0
			c12.1,0,24.3,0,36.4,0c4,0,7.8,0.4,10.5,3.8c3,3.7,3.9,7.9,2,12.4c-1.9,4.5-5.4,6.7-10.4,6.7c-15.2-0.1-30.4,0-45.5,0
			c-2.8,0-5.6-0.2-8.3,0.3c-10.9,1.9-16.5,16.2-9.9,24.7c1.7,2.1,3.7,3.5,6.4,2.3c2.4-1,2.8-3.2,2.4-5.6c-0.1-0.5-0.3-1.1-0.3-1.6
			c-0.9-8.6,0.1-9.7,8.6-9.7c15.7,0,31.5,0.1,47.2,0c12.7-0.1,20.9-8,21.4-20.3c0.5-12.1-7.3-21.2-19.5-22.4
			c-2.2-0.2-4.4-0.1-6.6-0.1c-15.5,0-30.9,0-46.4,0c-3,0-5.9,0.2-8.3-2.5c-10.8-12.4-25.3-15.9-41-16.2c-8-0.2-16,0.5-23.8,2
			c-3.5,0.7-4.6-0.5-4.4-3.7c0.1-1.1,0-2.2,0-3.3c-0.4-5.4-1.6-6.8-7-7c-3.3-0.2-6.6,0.2-9.9,0.2c-19,0-38.1-0.1-57.1,0
			c-7.1,0-8.2,1.2-8.4,8.1c-0.1,2.8,0,5.5,0,8.3c0,36.4,0,72.9-0.1,109.3c0,2.3,1.2,4.9-1.2,6.9c-1.4-1.1-2.6-2.1-3.9-3.1
			c0.7,5.3,4.5,7.9,8.9,10c-0.6-4.2,2.7-2.6,4.3-2.6c21.8-0.1,43.6,0,65.4-0.2c7.3,0,8-0.6,8.8-7.8c0.4-3.2,1.5-4.1,4.4-4.5
			c9.1-1.3,17.9-1.2,26.8,2.2c17.5,6.7,35.3,12.8,52.9,19.1c13.2,4.7,25.3,2.8,37-4.7c33.8-21.9,67.8-43.5,101.7-65.3
			c7.4-4.8,15-9.4,21.9-14.9C448.1,330.1,447.3,310.8,434.9,303.5z M181.2,398.6c0,6.6-0.1,6.6-6.3,6.6c-16.3,0-32.5,0.1-48.8,0.1
			c-2.5,0-4.2-0.1-5.3-0.4c-2.5-0.6-2.6-2.3-2.6-7.2c0.1-21.2,0.3-42.5,0.3-63.7c0-12.7-0.1-25.4-0.2-38c-0.1-7.6,0.3-8.1,7.7-8.1
			c15.7,0,31.5,0,47.2,0.1c2.8,0,4.5,0,5.6,0.5c2.3,0.6,2.3,2.3,2.4,7.6c0,16.8,0,33.7,0,50.5c0,0,0,0,0.1,0
			C181.2,363.8,181.3,381.2,181.2,398.6z"/>
	</g>
</g>
<g>
	<path class="st3" d="M7109.9,307.1H6702c-20,0-36.2-16.2-36.2-36.2v0c0-20,16.2-36.2,36.2-36.2h407.9c20,0,36.2,16.2,36.2,36.2v0
		C7146.2,290.9,7129.9,307.1,7109.9,307.1z"/>
	<g>
		<path class="st3" d="M7087.8,305l-192.2-184.5c-11.5-11.1-12.8-30.4-2.7-43.1l13.1-16.5c10.1-12.7,27.6-14.1,39.1-3l192.2,184.5
			c11.5,11.1,12.8,30.4,2.7,43.1l-13.1,16.5C7116.8,314.8,7099.3,316.1,7087.8,305z"/>
		<path class="st3" d="M7140.2,299.2l-201.5,172c-12.1,10.3-29.5,7.9-38.9-5.4l-12.2-17.3c-9.4-13.3-7.2-32.5,4.9-42.9l201.5-172
			c12.1-10.3,29.5-7.9,38.9,5.4l12.2,17.3C7154.6,269.7,7152.4,288.9,7140.2,299.2z"/>
	</g>
</g>
</svg>
