<?xml version="1.0" encoding="utf-8"?>
<!-- Generator: Adobe Illustrator 23.0.1, SVG Export Plug-In . SVG Version: 6.00 Build 0)  -->
<!DOCTYPE svg PUBLIC "-//W3C//DTD SVG 1.1//EN" "http://www.w3.org/Graphics/SVG/1.1/DTD/svg11.dtd" [
	<!ENTITY ns_extend "http://ns.adobe.com/Extensibility/1.0/">
	<!ENTITY ns_ai "http://ns.adobe.com/AdobeIllustrator/10.0/">
	<!ENTITY ns_graphs "http://ns.adobe.com/Graphs/1.0/">
	<!ENTITY ns_vars "http://ns.adobe.com/Variables/1.0/">
	<!ENTITY ns_imrep "http://ns.adobe.com/ImageReplacement/1.0/">
	<!ENTITY ns_sfw "http://ns.adobe.com/SaveForWeb/1.0/">
	<!ENTITY ns_custom "http://ns.adobe.com/GenericCustomNamespace/1.0/">
	<!ENTITY ns_adobe_xpath "http://ns.adobe.com/XPath/1.0/">
]>
<svg version="1.1" id="Layer_1" xmlns:x="&ns_extend;" xmlns:i="&ns_ai;" xmlns:graph="&ns_graphs;"
	 xmlns="http://www.w3.org/2000/svg" xmlns:xlink="http://www.w3.org/1999/xlink" x="0px" y="0px" viewBox="0 0 7251.8 630.6"
	 style="enable-background:new 0 0 7251.8 630.6;" xml:space="preserve">
<style type="text/css">
	.st0{fill:#2E3034;}
	.st1{fill:#184397;stroke:#FFFFFF;stroke-width:10.3598;stroke-miterlimit:10;}
	.st2{fill:#FFFFFF;}
	.st3{fill:#184397;}
</style>
<metadata>
	<sfw  xmlns="&ns_sfw;">
		<slices></slices>
		<sliceSourceBounds  bottomLeftOrigin="true" height="597" width="7160.4" x="-1.4" y="-61.7"></sliceSourceBounds>
	</sfw>
</metadata>
<g>
	<path class="st0" d="M4374.7,260.1c0,2.7,0,5.5,0,8.2c0,78.1,0,156.2,0,234.3c0,2-0.2,4,0,5.9c0.6,4.7-1.8,5.6-5.9,5.6
		c-30.6-0.1-61.1-0.1-91.7,0c-4.3,0-6.4-1.2-5.8-5.8c0.2-1.7,0-3.4,0-5.1c0-131.9,0-263.8,0-395.7c0-11.6-1.4-10.3,10.4-10.4
		c27.7,0,55.5,0.2,83.2-0.2c7-0.1,11.1,1.9,15.1,7.9c53.4,80.3,107.1,160.4,160.8,240.6c1.7,2.5,3.4,5,5.1,7.5
		c0.6-0.1,1.1-0.3,1.7-0.4c0-3,0-5.9,0-8.9c0-79,0-157.9,0-236.9c0-10.8-1-9.5,9.5-9.5c28,0,56,0,84.1,0c10.3,0,9.8-1.3,9.8,9.4
		c0,24.6,0,49.2,0,73.9c0,106.7,0,213.4,0,320.1c0,1.4,0,2.8,0,4.2c0,9.7,0.9,9.2-9.1,9.2c-28.9,0-57.7-0.2-86.6,0.2
		c-5.9,0.1-9.1-2.1-12.2-6.7c-53.7-80.1-107.6-160.1-161.4-240.2c-1.7-2.6-3.5-5.1-5.2-7.7C4375.8,259.8,4375.3,259.9,4374.7,260.1z
		"/>
	<path class="st0" d="M6360.4,259c0,18,0,34.7,0,51.4c0,64.5,0,129.1,0,193.6c0,11.5,1.5,10.2-10.6,10.2c-27.7,0.1-55.5,0-83.2,0
		c-2,0-4,0-5.9,0c-2.3,0-3.7-1-3.7-3.6c0-2,0-4,0-5.9c0-132.5,0-264.9,0-397.4c0-0.8,0-1.7,0-2.5c0.1-7.3,0.1-7.4,7.5-7.4
		c29.7,0,59.4,0.1,89.1-0.1c5.3,0,8.1,2,10.8,6.1c37,55.5,74.2,111,111.3,166.5c17.8,26.6,35.5,53.1,53.3,79.7
		c0.8,1.1,1.7,2.2,2.9,3.9c2.1-3.2,1.2-6.3,1.2-9.1c0.1-78.1,0-156.2,0-234.3c0-1.7,0-3.4,0-5.1c0.1-7.3,0.1-7.4,7.4-7.4
		c29.4,0,58.9,0,88.3,0c7.6,0,7.6,0.1,7.6,8.1c0,88.3,0,176.6,0,264.9c0,44.4,0,88.9,0,133.3c0,2-0.1,4,0,5.9
		c0.2,3.2-1.2,4.7-4.5,4.6c-1.7-0.1-3.4,0-5.1,0c-28.6,0-57.2-0.2-85.8,0.2c-6.2,0.1-9.6-2.1-12.9-7.1
		C6474.7,427,6420.9,347,6367,267C6365.4,264.5,6364.1,261.6,6360.4,259z"/>
	<path class="st0" d="M1270.8,260.7c0,3.1,0,6.2,0,9.2c0,77.5,0,155.1,0,232.6c0,1.7,0,3.4,0,5.1c-0.2,6.2-0.2,6.4-6,6.4
		c-30.6,0.1-61.1-0.1-91.7,0.1c-4.5,0-6.2-1.5-5.7-5.9c0.2-1.4,0-2.8,0-4.2c0-132.2,0-264.3,0-396.5c0-11.9-1.4-10.3,10.4-10.3
		c28.3-0.1,56.6,0.2,84.9-0.2c5.8-0.1,9.1,1.9,12.3,6.6c53.8,80.7,107.8,161.3,161.8,241.9c1.6,2.3,3.2,4.6,5.2,7.5
		c1.9-3.3,1.2-6.4,1.2-9.2c0-78.7,0-157.3,0.1-236c0-12.1-1.6-10.6,11-10.7c28.3-0.1,56.6,0,84.9,0c7.4,0,7.5,0.1,7.5,7.3
		c0,134.1,0,268.3,0,402.4c0,7-0.1,7.1-7.7,7.1c-29.4,0-58.9-0.2-88.3,0.2c-5.7,0.1-8.6-2.1-11.5-6.5
		c-44.1-65.8-88.3-131.5-132.5-197.2c-9.8-14.6-19.6-29.1-29.4-43.6c-1.5-2.3-3.2-4.5-4.7-6.7
		C1271.9,260.4,1271.3,260.5,1270.8,260.7z"/>
	<path class="st0" d="M1931,353.6c-4.7,0-8.1,0-11.5,0c-36.5,0-73,0-109.5,0c-2,0-4-0.1-5.9,0c-3.4,0.2-4.4-1.4-4.3-4.6
		c0.1-7.9,0-15.9,0-23.8c0-13.6,0.2-27.2-0.1-40.8c-0.1-4.5,1.4-5.8,5.8-5.8c24.6,0.2,49.3,0.1,73.9,0.1c45,0,90,0,135,0
		c2,0,4,0.1,5.9,0c2.8-0.1,4.3,1,4.2,3.9c0,2,0,4,0,5.9c0,25.5-0.1,51,0.1,76.4c0,6.1-0.9,11.8-3.1,17.4
		c-27,68.5-76.6,111.8-148,128.4c-53.9,12.5-107.1,7.6-157.2-17c-57.8-28.4-93.1-75.2-106.7-137.9c-11.1-50.9-7-101,15.6-148.3
		c28.1-58.8,75.5-94.5,138.4-108.7c51.1-11.6,101.9-8.9,150.7,11.5c52,21.7,85.9,60.2,101.8,114.4c0.3,1.1,0.4,2.2,0.7,3.2
		c-2.1,1.8-4.5,1.1-6.6,1.1c-33.4,0.1-66.8,0-100.2,0.1c-3.7,0-6.8,0.1-9.3-3.9c-12.4-19.8-30.8-31.2-53.3-36
		c-22.6-4.8-45.1-4.2-67,3.3c-34.2,11.8-55.5,36.2-65.3,70.4c-8.4,28.9-8,58.3,0.4,87.1c12,41,39.9,65.5,81.4,74
		c23.6,4.8,47.3,4.9,70.4-3C1899.8,410.1,1919.2,386.6,1931,353.6z"/>
	<path class="st0" d="M4726,305.4c0-66.2,0-132.5,0-198.7c0-10.7-0.9-9.4,9.6-9.4c28.6,0,57.2,0,85.8,0c7.8,0,7.9,0.1,7.9,7.8
		c0,48.7,0,97.4,0,146.1c0,10.3-1.2,9.3,8.8,9.3c47.6,0,95.1,0,142.7,0c1.7,0,3.4-0.1,5.1,0c3.1,0.2,3.9-1.4,3.8-4.2
		c-0.1-2,0-4,0-5.9c0-47.6,0-95.1,0-142.7c0-1.7,0.2-3.4,0-5.1c-0.4-4.1,1.2-5.5,5.3-5.4c8.8,0.2,17.5,0.1,26.3,0.1
		c20.9,0,41.9,0,62.8,0c9.9,0,8.9-0.7,8.9,9.3c0,36.2,0,72.5,0,108.7c0,96.2,0,192.5,0,288.7c0,11.1,1.4,10.1-9.8,10.1
		c-28.6,0-57.2,0-85.8,0c-7.7,0-7.8-0.1-7.8-8c0-50.7,0-101.3,0-152c0-1.7,0-3.4,0-5.1c-0.1-6.3-0.1-6.4-6.6-6.4
		c-49,0-97.9,0-146.9,0c-6.8,0-6.9,0.1-6.9,7c0,51,0,101.9,0,152.9c0,2-0.2,4,0,5.9c0.5,4.6-1.8,5.7-6,5.7
		c-30.6-0.1-61.1-0.1-91.7,0c-4.5,0-5.8-1.4-5.8-5.8c0.2-23.2,0.1-46.4,0.1-69.6C4726,394.3,4726,349.8,4726,305.4z"/>
	<path class="st0" d="M2081.8,305.3c0-65.9,0-131.9,0-197.8c0-11.5-1.3-10.2,10.6-10.2c79.5,0,159.1,0,238.6,0c1.7,0,3.4,0.1,5.1,0
		c3.9-0.4,5.6,0.8,5.6,5.1c-0.2,23.8-0.2,47.6,0,71.3c0,4.5-1.8,5.1-5.5,5c-11-0.2-22.1-0.1-33.1-0.1c-36.2,0-72.5,0-108.7,0
		c-2,0-4,0-5.9,0c-2.1,0-3.1,1.1-3.1,3.1c0,1.4,0,2.8,0,4.2c0,23.2,0,46.4,0,69.6c0,7.3,0.1,7.4,7.4,7.4c40.2,0,80.4,0,120.6,0
		c1.4,0,2.8,0,4.2,0c6.1,0.2,6.2,0.2,6.2,6.9c0,18.4,0,36.8,0,55.2c0,4-0.2,7.9,0,11.9c0.2,3.4-1.4,4.5-4.6,4.4c-2-0.1-4,0-5.9,0
		c-39.1,0-78.1,0-117.2,0c-2,0-4,0.1-5.9,0c-3.6-0.3-5.1,1-5,4.8c0.2,7.6,0.1,15.3,0.1,22.9c0,18.4,0,36.8,0,55.2
		c0,9.3-0.6,8.5,8.9,8.5c45,0,90,0,135,0c1.4,0,2.8,0,4.2,0c9.1,0.1,8.2-0.9,8.2,8.1c0,22.1,0,44.2,0,66.2c0,6.8-0.1,6.9-7,6.9
		c-20.4,0-40.8,0-61.1,0c-60,0-120,0-180,0.1c-1.4,0-2.8,0-4.2,0c-7.3-0.1-7.3-0.1-7.3-7.6C2081.8,439.5,2081.8,372.4,2081.8,305.3z
		"/>
	<path class="st0" d="M3766.3,305.9c0-65.4,0-130.8,0-196.2c0-1.7,0-3.4,0-5.1c0.1-7.3,0.1-7.4,7.4-7.4c81.5,0,163,0,244.6,0
		c7.7,0,7.8,0.1,7.8,7.9c0,21.8,0,43.6,0,65.4c0,8.4,0.9,8-8.5,8c-45.9,0-91.7,0-137.6,0c-11.6,0-10.4-1.8-10.4,10.3
		c-0.1,22.4,0,44.7,0,67.1c0,6.9,0.1,7,7,7c40.2,0,80.4,0,120.6,0c2,0,4,0.2,5.9,0c3.9-0.4,5,1.6,4.6,5c-0.1,1.1,0,2.3,0,3.4
		c0,20.4,0,40.8,0,61.1c0,9.6,1,8.7-8.5,8.8c-39.3,0-78.7,0-118,0c-1.4,0-2.8,0-4.2,0c-7.5,0-7.4-0.7-7.4,7.3c0,25.5,0,51,0,76.4
		c0,7.6,0.1,7.6,8.1,7.6c45.3,0,90.6,0,135.9,0c1.7,0,3.4,0,5.1,0c7.3,0.1,7.4,0.1,7.4,7.5c0,21.5,0,43,0,64.5c0,9.4,1.4,9.3-9,9.3
		c-37.9,0-75.9,0-113.8,0c-42.2,0-84.4,0-126.5,0c-2,0-4-0.1-5.9,0c-3.3,0.3-4.7-1.1-4.5-4.4c0.1-2,0-4,0-5.9
		C3766.3,437.8,3766.3,371.9,3766.3,305.9z"/>
	<path class="st0" d="M5930.3,305.6c0-66.2,0-132.5,0-198.7c0-10.9-1-9.6,9.5-9.6c80.1,0,160.2,0,240.3,0c0.8,0,1.7,0,2.5,0
		c7.4,0.1,7.4,0.1,7.4,7.4c0,22.4,0,44.7,0,67.1c0,6.7-0.1,6.8-7.1,6.8c-46.7,0-93.4,0-140.1,0c-9.6,0-9.2-1.5-9.2,9
		c0,22.4,0,44.7,0,67.1c0,8.3,0,8.3,8.2,8.3c39.9,0,79.8,0,119.7,0c2,0,4,0.1,5.9,0c3.4-0.2,4.4,1.4,4.3,4.5c-0.1,6.5,0,13,0,19.5
		c0,15,0,30,0,45c0,10.6,1.2,9.2-9.7,9.2c-39.1,0.1-78.1,0-117.2,0c-1.7,0-3.4,0-5.1,0c-6,0.1-6.1,0.1-6.1,6
		c-0.1,16.4,0,32.8,0,49.3c0,9.6,0,19.2,0,28.9c0,7.2,0.1,7.3,7.6,7.3c45.9,0,91.7,0,137.6,0c11.3,0,11.3,0,11.3,11.2
		c0,20.1,0,40.2,0,60.3c0,10.6,1.5,9.8-10.2,9.8c-70.5,0-141,0-211.5,0c-10.2,0-20.4,0-30.6,0c-7.5,0-7.5-0.1-7.6-7.3
		c0-13.6,0-27.2,0-40.8C5930.3,412.6,5930.3,359.1,5930.3,305.6z"/>
	<path class="st0" d="M3474.1,345.9c0,52.9,0,105.8,0,158.8c0,9.9,1.4,9.4-9.7,9.4c-28.3,0-56.6,0-84.9,0.1c-9.6,0-8.8,0.7-8.8-8.6
		c0-99.1,0-198.1,0-297.2c0-7.6,0-15.3,0-22.9c-0.1-6.7-0.1-6.8-7.1-6.8c-31.7,0-63.4,0-95.1,0c-11.6,0-9.9,1.6-10-9.7
		c-0.1-21.5-0.1-43,0-64.5c0-7,0.1-7.1,6.8-7.1c14.7,0,29.4,0,44.1,0c89.1,0,178.3,0,267.4,0c10.7,0,9.4-0.8,9.5,9.6
		c0,21.2,0,42.5,0,63.7c0,8.4,1,8.1-8.4,8.1c-31.4,0-62.8,0-94.2,0c-2,0-4,0.1-5.9,0c-2.4-0.1-3.7,0.9-3.7,3.4c0,2.3,0,4.5,0,6.8
		C3474.1,241.2,3474.1,293.6,3474.1,345.9z"/>
	<path class="st0" d="M5642.1,305.8c0-65.6,0-131.3,0-196.9c0-1.7,0-3.4,0-5.1c0.1-6.3,0.1-6.5,6.7-6.5c30,0,60,0,90,0
		c6.6,0,6.7,0.1,6.7,7.2c0,28.3,0,56.6,0,84.9c0,78.9,0,157.9,0,236.8c0,10-1.4,9.4,9.7,9.4c38.5,0,77,0,115.4,0c2,0,4,0.1,5.9,0
		c3.3-0.2,4.5,1.3,4.4,4.5c-0.1,23.2-0.1,46.4,0,69.6c0,3.4-1.5,4.5-4.6,4.4c-1.7-0.1-3.4,0-5.1,0c-73.3,0-146.6,0-219.8,0
		c-11,0-9.4,0.3-9.4-9.7C5642.1,438.2,5642.1,372,5642.1,305.8z"/>
	<path class="st0" d="M4196.4,306.7c0,65.9,0,131.8,0,197.7c0,10.6,1.2,9.6-9.4,9.6c-28.3,0-56.6,0-84.9,0c-1.7,0-3.4-0.1-5.1,0
		c-2.8,0.1-4.1-1.2-4-4.1c0.1-2,0-4,0-5.9c0-132.1,0-264.2,0-396.3c0-1.7,0.1-3.4,0-5.1c-0.4-4,1.2-5.6,5.3-5.4
		c7.3,0.2,14.7,0.1,22.1,0.1c22.9,0,45.8,0,68.7,0c7.3,0,7.3,0.1,7.3,7.5C4196.4,172.1,4196.4,239.4,4196.4,306.7z"/>
	<g>
		<path class="st0" d="M2676.3,303c-2.6-0.8-5.7-0.8-7.9-3.2c1.3-0.5,2.6-1,3.8-1.5c1.3-0.5,2.7-0.9,4-1.5
			c28-11.5,47.9-30.8,56.9-60.1c5.9-19.1,6.1-38.5,1.4-57.9c-8.1-33.4-29.9-55-60.8-68.2c-24.1-10.3-49.6-13.3-75.5-13.4
			c-60.3-0.1-120.6,0-180.9,0c-8.5,0-8.3-0.9-8.2,8.3c0,1.1,0,2.3,0,3.4c0,58.6,0,117.2,0,175.8c0,73.9,0,147.7,0,221.6
			c0,7.7,0.1,7.7,7.1,7.8c63.4,0,126.8,0.1,190.2,0c20.1,0,40.2-2,59.5-8c45.2-14.1,74.5-42.5,80.6-91.3
			C2752.5,366.8,2726,319,2676.3,303z M2512.5,185.4c0-6.6,0.1-6.7,6.3-6.8c21.2,0,42.4-0.1,63.7,0.1c8.2,0.1,16.3,1.3,24.1,4.3
			c15.9,6.1,24.3,17.8,25.5,34.7c0.4,5.7,0.4,11.3-0.9,16.9c-4.1,17.1-17.5,27.9-37.6,30.4c-9.9,1.2-19.8,1.1-29.7,1
			c-14.7,0-29.4,0-44.1,0c-7.2,0-7.3-0.1-7.3-7.6c0-12.2,0-24.3,0-36.5S2512.4,197.6,2512.5,185.4z M2642.1,394.5
			c-1.5,13.9-8.4,24.3-21,30.8c-7.1,3.7-14.8,6-22.7,6.1c-27.1,0.4-54.3,0.3-81.4,0.6c-3.9,0-4.7-1.7-4.6-5.1
			c0.1-13.6,0-27.1,0-40.7c0-13.3-0.1-26.6,0-39.9c0-6.2,0.1-6.3,5.9-6.3c23.7,0,47.5-0.2,71.2,0.1c9.9,0.1,19.7,1.8,28.7,6.3
			c14.7,7.2,22.7,19,23.9,35.3C2642.6,386,2642.6,390.3,2642.1,394.5z"/>
	</g>
	<g>
		<path class="st0" d="M3221.4,272.1c-9.9-67.9-44.5-119.6-104.6-153c-49.7-27.6-103.2-33.8-158.6-22.4
			c-101,20.7-169.4,104.8-169.3,209c0.6,9.4,0.7,20.1,2.3,30.8c10.3,67.5,44.3,119.4,103.9,152.7c62,34.7,127.5,38.5,194,13.9
			c55.2-20.5,94.7-58.6,117.9-112.9C3223.2,352.3,3227.4,312.7,3221.4,272.1z M3104.5,368.6c-17.8,34.2-46.4,52.2-84.4,56.1
			c-16.5,1.7-32.9,0.7-48.8-4.1c-33.2-9.9-56-31.4-67.7-63.8c-12.7-35-12.8-70.7,0.2-105.5c14.3-38.7,43.1-60.4,83.9-66.4
			c19.4-2.9,38.5-1.8,57.1,4.2c37.8,12.2,59.6,39.2,69.4,76.9c3.3,12.7,4.2,25.7,4.6,37.2C3118.4,327,3114.9,348.6,3104.5,368.6z"/>
	</g>
	<g>
		<path class="st0" d="M5582.5,272.4c-10.8-73.8-50-127.5-117.1-159.8C5422,91.8,5376,87,5328.7,94.8
			c-105.9,17.5-178.5,102.6-178.8,210.5c0.6,9.6,0.7,20.6,2.4,31.6c9,59.6,37.3,107.7,87,141.8c58,39.7,122.1,49,189.6,31.2
			c61.9-16.3,107.7-53.7,135.5-111.7C5583.6,358.3,5588.9,316,5582.5,272.4z M5465.2,369.3c-17.8,33.7-46.3,51.6-83.9,55.4
			c-16.5,1.7-32.9,0.7-48.8-4c-33.2-9.9-56-31.3-67.7-63.8c-12.7-35-12.8-70.6,0.1-105.5c14.3-38.8,43-60.4,83.8-66.5
			c17.6-2.6,35.1-2,52.2,2.7c40.4,11.1,64,38.5,74.4,78.2c3.3,12.7,4.2,25.6,4.6,37.8C5479.4,327.1,5475.9,349.1,5465.2,369.3z"/>
	</g>
	<g>
		<path class="st0" d="M1118.9,508.6c-49.7-135-99.4-269.9-149.1-404.9c-2.4-6.5-2.4-6.5-9.7-6.5c-34.8,0-69.6,0-104.4,0
			c-9.2,0-7.5-0.6-10.6,7.6c-15,40.5-29.8,81.1-44.8,121.7C766.2,319.4,732,412.2,697.8,505c-1,2.7-3.3,5.4-1.8,8.7
			c0.7,0.2,1.3,0.4,1.8,0.4c33.1,0,66.2,0,99.3,0.2c4.7,0,6.2-2.1,7.5-6.1c6.9-20.3,14-40.6,21-60.9c2.4-6.9,2.5-7,9.2-7
			c48.1,0,96.2,0,144.3,0c7.2,0,6.6-0.9,9.3,6.9c6.9,20,13.8,40.1,20.8,60.1c2.3,6.8,2.4,6.8,9.4,6.8c31.7,0,63.4,0,95.1,0
			c1.9,0,3.9,0.5,6-0.8C1120.2,511.1,1119.4,509.9,1118.9,508.6z M855.4,361.6c17.1-50.3,34.1-100.1,51.7-151.9
			c17.8,51.7,35,101.5,52.3,151.9C924.4,361.6,890.3,361.6,855.4,361.6z"/>
	</g>
	<g>
		<circle class="st1" cx="364.9" cy="317.5" r="293.3"/>
		<g>
			<path class="st2" d="M553.8,235.2c-4.6-4.7-9.1-9.5-14.3-13.5c-4.7-3.7-4.9-7.7-3.3-12.9c2-6.6,3.8-13.2,5.3-20
				c1.6-7.3,0.3-9.3-7-11.4c-6-1.7-12.1-3.1-18.1-4.6c-3.7-1-6.2-2.7-6.8-7.1c-1-6.5-2.8-12.8-4.3-19.1c-1.9-7.5-3.5-8.8-10.9-7.3
				c-8.3,1.7-16.6,3.8-24.8,5.8c-4.1,1-7.4,0.7-10.6-2.8c-5.6-6-11.6-11.6-17.6-17.1c-5.6-5.2-10-5.2-15.4-0.1
				c-5.2,5-10.4,10.1-15.1,15.5c-3.3,3.8-6.7,4.3-11.3,2.9c-6.6-2-13.2-3.7-19.9-5.3c-7.4-1.8-9.4-0.8-11.6,6.4
				c-1.8,5.9-3.6,12-4.5,18.1c-0.8,5.1-3.6,7.2-8.2,8.2c-6.4,1.3-12.8,2.6-19.1,4.3c-6.6,1.7-7.3,3.1-5.9,9.8
				c1.8,8.7,3.7,17.3,6,25.9c1.1,4.3,0.5,7.4-2.8,10.5c-6.2,5.9-12,12.1-17.9,18.3c-6,6.4-6,7.6-0.1,13.7c4.1,4.2,8,8.8,12.7,12.3
				c5.9,4.6,6.6,10,4.7,16.5c-1.8,6-3.5,12-5,18c-1.7,6.9-0.8,8.7,6,11c6.5,2.2,13.2,4,19.9,5.5c3.8,0.9,5.5,2.8,6.2,6.5
				c1.3,6.7,2.7,13.5,4.4,20.2c1.8,7,3.6,8,10.5,6.5c8.3-1.8,16.6-3.6,24.9-5.6c4.9-1.2,8.8,0,12.3,3.8c5.6,6,11.6,11.6,17.5,17.3
				c5.8,5.5,7,5.4,12.8-0.4c5.1-5.1,10.3-10.1,15.1-15.5c3.1-3.4,6.3-4.1,10.5-2.9c6.9,2.1,13.8,4.1,20.8,5.7
				c7.6,1.8,9.9,0.2,12-7.3c1.5-5.4,2.9-10.8,4.1-16.2c1.1-5,3.4-8,9-8.7c6.5-0.8,12.8-2.7,19.2-4c4.1-0.8,6.6-2.8,5.8-9.1
				c-1.5-7.2-2.9-16.3-5.4-25.1c-2-6.8-0.9-11.7,4.6-16.4c5.7-4.9,10.7-10.6,15.8-16.2C559.6,243.2,559.6,241.1,553.8,235.2z
				 M539.4,248.9c-4.6,4.6-9.3,9.3-14.1,13.7c-4.2,3.9-5.9,8.1-4.1,14c2,6.6,3,13.4,4.4,20.1c1.4,6.9,1.4,7-5.2,8.7
				c-5.1,1.3-10.2,2.5-15.4,3.3c-5.2,0.9-8,3.6-9.1,8.8c-1.2,5.8-2.8,11.4-4.6,17.1c-1.2,3.9-1.9,4.1-5.4,3.6
				c-6.9-1.8-13.5-3.4-20.2-5.2c-4.8-1.3-8.8-0.9-12.3,3.4c-3.9,4.8-8.6,9-12.7,13.6c-3,3.3-5.8,3.6-9.1,0.4
				c-5.4-5.3-11.3-10.1-16.3-15.6c-3.9-4.3-8.2-4.9-13.3-3.7c-7.3,1.7-14.7,3.3-22,5.2c-4.1,1.1-6.2-0.3-7-4.4
				c-0.9-5.2-2.2-10.3-3-15.4c-0.9-5.8-3.4-9.5-9.7-10.6c-5.8-1-11.3-3.1-17-4.6c-3.3-0.8-4-2.3-3-5.6c1.9-6.2,2.9-12.8,5-19
				c2-5.9,0.2-10.1-4-14c-4.3-4-8.4-8.3-12.8-12.2c-3.3-2.9-3-5.2,0-8.1c5.4-5.3,10.3-11,15.9-16.1c4.4-4.1,5.5-8.5,4-14.1
				c-1.8-7-3.1-14.1-5-21c-1.2-4.6,0.5-6.7,4.9-7.5c5.2-0.9,10.2-2.4,15.4-2.9c5.9-0.6,8.6-3.7,9.8-9.2c1.2-5.4,3.3-10.6,4.4-16.1
				c1-5.2,3.6-5.3,7.7-4.1c5.9,1.8,12.1,2.9,18,4.9c5.6,1.9,9.4,0,13-4c4.1-4.6,8.9-8.8,12.9-13.5c3.3-3.9,5.6-3.1,8.7,0.1
				c5,5.2,10.4,9.9,15.6,15c4,3.9,8.1,5.9,14.1,4c6.2-2,12.7-2.9,19.1-4.3c7.8-1.7,8.1-1.5,9.7,6.2c1.1,5.1,2.1,10.3,3.1,15.4
				c0.8,4.4,3.2,6.8,7.6,7.8c6.1,1.3,12.1,3,18.1,4.5c3.4,0.9,4.8,2.5,3.5,6.4c-2.1,6.5-3.3,13.3-5.2,19.9
				c-1.4,4.7-0.2,8.2,3.4,11.4c4.4,4,8.5,8.2,12.6,12.4C545.1,243,545.1,243,539.4,248.9z"/>
		</g>
		<g>
			<path class="st2" d="M434.5,165.6c-43,0.8-79.4,35.5-78.6,81.4c0.8,42.6,36.2,77,79.1,76.4c44.3-0.6,79-35.8,78.8-80
				C513.5,201.3,476.6,164.9,434.5,165.6z M435.5,312.4c-37.4-0.1-68.2-30.6-68.4-68.1c-0.2-37.5,29.6-67,67.3-67.5
				c34.4-0.5,68.4,28.2,68.2,68C503.1,282.7,471.7,312.5,435.5,312.4z"/>
		</g>
		<path class="st2" d="M396.5,286.6c8.3-11.7,15.8-22.3,23.5-32.9c10.6-14.6,21.6-28.9,31.8-43.7c4.8-7.1,10.5-9,18.9-6.6
			c-2.4,6.1-6.8,10.6-10.3,15.5c-14.1,19.8-28.4,39.3-42.8,58.9C410.6,287.4,410.4,287.2,396.5,286.6z"/>
		<path class="st2" d="M457.8,250.1c9.9-0.2,18,7.7,18.3,17.8c0.3,10.7-7.6,19.4-17.8,19.6c-9.8,0.2-18.1-7.9-18.4-17.9
			C439.7,259,447.7,250.3,457.8,250.1z"/>
		<path class="st2" d="M411.1,201.9c9.9,0.1,18.2,8.6,18.1,18.3c-0.1,10.2-8.7,19-18.8,19.2c-9,0.2-17.8-9.1-17.8-18.8
			C392.7,209.7,400.5,201.8,411.1,201.9z"/>
		<path class="st2" d="M543.4,370c-8.7-5.2-16.9-3.8-25,1.6c-27.1,17.7-54.3,35.4-81.4,53.1c-5.8,3.8-6.9,6.2-4.7,9.6
			c2.2,3.4,5,3.4,10.7-0.1c0.5-0.3,1.1-0.6,1.6-1c17.5-11.5,35-23,52.5-34.5c9-5.9,17.9-12.1,27.1-17.7c9.3-5.8,18.3-0.9,18.8,9.8
			c0.2,5.1-1.5,9.4-5.6,12.5c-3,2.3-6.1,4.6-9.3,6.6c-44.5,28.8-89,57.7-133.9,85.8c-9.9,6.2-19.8,7.5-30.8,3.3
			c-16-6.1-32.3-11.5-48.3-17.5c-15.5-5.8-30.8-12.1-47.9-8.4c-3.7,0.8-5.1-1.3-5.1-4.9c0.1-7.6,0-15.2,0-22.9
			c0-22.2-0.1-44.5,0-66.7c0-8.5,0.2-8.3,8.8-10.2c8.5-1.8,17-1.9,25.6-1.8c14.5,0.1,27.6,4,37.6,15.4c4,4.6,9.3,6.3,15.4,6.2
			c5.7-0.1,11.4,0,17.2,0c14,0,28,0,41.9,0c4.6,0,9,0.4,12.1,4.3c3.4,4.3,4.5,9.1,2.3,14.3c-2.2,5.2-6.2,7.7-12,7.7
			c-17.5-0.1-34.9,0-52.4,0c-3.2,0-6.4-0.2-9.5,0.3c-12.5,2.2-19,18.6-11.4,28.4c1.9,2.5,4.2,4,7.4,2.7c2.8-1.2,3.2-3.7,2.7-6.4
			c-0.1-0.6-0.3-1.2-0.4-1.9c-1-9.9,0.1-11.2,9.9-11.2c18.1-0.1,36.2,0.1,54.3,0c14.6-0.1,24.1-9.2,24.7-23.4
			c0.6-14-8.4-24.4-22.5-25.8c-2.5-0.3-5.1-0.1-7.6-0.1c-17.8,0-35.6,0-53.4,0c-3.5,0-6.8,0.2-9.6-2.9
			c-12.5-14.3-29.1-18.3-47.2-18.7c-9.3-0.2-18.4,0.6-27.4,2.3c-4,0.8-5.3-0.5-5.1-4.3c0.1-1.3,0.1-2.5,0-3.8
			c-0.5-6.2-1.9-7.8-8-8.1c-3.8-0.2-7.6,0.2-11.4,0.2c-21.9,0-43.8-0.1-65.8,0c-8.2,0-9.4,1.3-9.7,9.3c-0.1,3.2,0,6.4,0,9.5
			c0,41.9,0,83.9-0.1,125.8c0,2.6,1.3,5.7-1.4,8c-1.6-1.3-3-2.4-4.5-3.6c0.8,6.1,5.2,9.1,10.2,11.5c-0.7-4.9,3.1-3,4.9-3
			c25.1-0.1,50.2,0,75.3-0.2c8.4,0,9.2-0.7,10.1-9c0.4-3.7,1.8-4.7,5.1-5.2c10.5-1.5,20.7-1.3,30.9,2.6c20.2,7.7,40.6,14.7,60.9,22
			c15.1,5.5,29.2,3.3,42.6-5.4c38.9-25.2,78-50.1,117-75.2c8.5-5.5,17.2-10.9,25.2-17.1C558.7,400.7,557.7,378.5,543.4,370z
			 M251.4,479.5c0,7.6-0.1,7.6-7.3,7.6c-18.7,0-37.4,0.1-56.2,0.1c-2.9,0-4.8-0.1-6.1-0.5c-2.8-0.7-3-2.6-3-8.3
			c0.1-24.4,0.3-48.9,0.4-73.3c0-14.6-0.1-29.2-0.3-43.8c-0.1-8.7,0.3-9.3,8.9-9.3c18.1,0,36.2,0,54.3,0.1c3.2,0,5.2,0,6.5,0.5
			c2.6,0.7,2.7,2.7,2.7,8.8c0,19.4,0,38.8,0,58.1c0,0,0,0,0.1,0C251.4,439.5,251.5,459.5,251.4,479.5z"/>
	</g>
</g>
<g>
	<path class="st3" d="M7185.7,349.5h-407.9c-20,0-36.2-16.2-36.2-36.2v0c0-20,16.2-36.2,36.2-36.2h407.9c20,0,36.2,16.2,36.2,36.2v0
		C7221.9,333.2,7205.7,349.5,7185.7,349.5z"/>
	<g>
		<path class="st3" d="M7163.5,347.4l-192.2-184.5c-11.5-11.1-12.8-30.4-2.7-43.1l13.1-16.5c10.1-12.7,27.6-14.1,39.1-3L7213,284.8
			c11.5,11.1,12.8,30.4,2.7,43.1l-13.1,16.5C7192.6,357.2,7175.1,358.5,7163.5,347.4z"/>
		<path class="st3" d="M7216,341.6l-201.5,172c-12.1,10.3-29.5,7.9-38.9-5.4l-12.2-17.3c-9.4-13.3-7.2-32.5,4.9-42.9l201.5-172
			c12.1-10.3,29.5-7.9,38.9,5.4l12.2,17.3C7230.3,312,7228.1,331.2,7216,341.6z"/>
	</g>
</g>
</svg>
