<svg id="SvgjsSvg1037" xmlns="http://www.w3.org/2000/svg" xmlns:xlink="http://www.w3.org/1999/xlink" viewBox="0 0 288 257.41"><defs><style>.cls-1{fill:none;}.cls-2{fill:url(#linear-gradient);}.cls-3{fill:url(#linear-gradient-2);}.cls-4{fill:url(#linear-gradient-3);}.cls-5{fill:url(#linear-gradient-4);}.cls-6{fill:url(#linear-gradient-5);}.cls-7{fill:url(#linear-gradient-6);}.cls-8{fill:url(#linear-gradient-7);}.cls-9{fill:url(#linear-gradient-8);}.cls-10{fill:url(#linear-gradient-9);}</style><linearGradient id="linear-gradient" x1="53.1" y1="153.34" x2="141.32" y2="153.34" gradientUnits="userSpaceOnUse"><stop offset="0" stop-color="#fff"/><stop offset="1" stop-color="#fff"/></linearGradient><linearGradient id="linear-gradient-2" x1="53.1" y1="175.39" x2="134.18" y2="175.39" xlink:href="#linear-gradient"/><linearGradient id="linear-gradient-3" x1="155.83" y1="175.39" x2="179.13" y2="175.39" xlink:href="#linear-gradient"/><linearGradient id="linear-gradient-4" x1="109.28" y1="108.24" x2="161.26" y2="108.24" xlink:href="#linear-gradient"/><linearGradient id="linear-gradient-5" x1="109.28" y1="85.1" x2="170.62" y2="85.1" xlink:href="#linear-gradient"/><linearGradient id="linear-gradient-6" x1="53.1" y1="219.48" x2="179.13" y2="219.48" xlink:href="#linear-gradient"/><linearGradient id="linear-gradient-7" x1="53.1" y1="197.47" x2="179.13" y2="197.47" xlink:href="#linear-gradient"/><linearGradient id="linear-gradient-8" x1="40.52" y1="82.05" x2="86.77" y2="82.05" xlink:href="#linear-gradient"/><linearGradient id="linear-gradient-9" x1="40.53" y1="139" x2="247.48" y2="139" xlink:href="#linear-gradient"/></defs><title>our task</title><rect class="cls-1" width="288" height="257.41"/><path class="cls-2" d="M141.32,153.34a3.14,3.14,0,0,0-3.12-3.12h-82a3.12,3.12,0,1,0,0,6.24h82A3.13,3.13,0,0,0,141.32,153.34Z" transform="translate(0 -15.29)"/><path class="cls-3" d="M131.06,172.27H56.22a3.12,3.12,0,0,0,0,6.24h74.84a3.12,3.12,0,1,0,0-6.24Z" transform="translate(0 -15.29)"/><path class="cls-4" d="M176,178.51a3.12,3.12,0,1,0,0-6.24H159a3.12,3.12,0,1,0,0,6.24Z" transform="translate(0 -15.29)"/><path class="cls-5" d="M112.41,105.12a3.12,3.12,0,1,0,0,6.24h45.72a3.12,3.12,0,1,0,0-6.24Z" transform="translate(0 -15.29)"/><path class="cls-6" d="M170.62,85.1A3.12,3.12,0,0,0,167.5,82H112.41a3.12,3.12,0,1,0,0,6.24H167.5A3.12,3.12,0,0,0,170.62,85.1Z" transform="translate(0 -15.29)"/><path class="cls-7" d="M176,216.36H56.22a3.12,3.12,0,0,0,0,6.24H176a3.12,3.12,0,1,0,0-6.24Z" transform="translate(0 -15.29)"/><path class="cls-8" d="M53.1,197.47a3.12,3.12,0,0,0,3.12,3.12H176a3.12,3.12,0,0,0,0-6.24H56.22A3.13,3.13,0,0,0,53.1,197.47Z" transform="translate(0 -15.29)"/><path class="cls-9" d="M43.66,106.79h40a3.12,3.12,0,0,0,3.12-3.12V60.4a3,3,0,0,0-2-2.89,3.15,3.15,0,0,0-3.43.78l-40,43.28a3.1,3.1,0,0,0-.58,3.35A3.21,3.21,0,0,0,43.66,106.79ZM80.53,68.36v32.19H50.8Z" transform="translate(0 -15.29)"/><path class="cls-10" d="M242.18,33.79l-1.29-1a12.35,12.35,0,0,0-9.6-1.76c-5.38,1-10.76,4.88-14.39,10.26l-61,88.26a3.11,3.11,0,0,0-2.5-1.33H56.22a3.13,3.13,0,0,0,0,6.25h96.37c-3.55,5.23-4.05,6.59-4.21,7.14L137.49,177a3.12,3.12,0,0,0,1.14,3.43,3.19,3.19,0,0,0,1.83.59,3.33,3.33,0,0,0,1.79-.55l29.89-20.72.12-.11a29.74,29.74,0,0,0,5.15-5.47l.12-.15,12.13-17.6V241H46.78V116.35H93.91A3.12,3.12,0,0,0,97,113.23V63.52h95.83a3.12,3.12,0,0,0,0-6.24h-99a3.12,3.12,0,0,0-3.12,3.12v49.71H43.66a3.14,3.14,0,0,0-3.13,3.12V244.1a3.13,3.13,0,0,0,3.13,3.12H192.82a3.12,3.12,0,0,0,3.12-3.12V128a2.82,2.82,0,0,0-.11-.55l47-68.2C249.32,49.91,248.93,38.47,242.18,33.79Zm-83.5,127.67-8.11-5.66,2.53-8.19,12.37,9.17Zm-10.07.58,4.57,3.2-7.06,4.92ZM237.73,55.72l-65.24,94.66a30.44,30.44,0,0,1-2,2.38l-15.06-11.2c.74-1.21,1.72-2.69,2.62-4l64-92.67c2.69-4,6.67-6.94,10.38-7.65a6.27,6.27,0,0,1,4.79.71l1.29,1C242.41,41.56,242.06,49.44,237.73,55.72Z" transform="translate(0 -15.29)"/></svg>