<svg id="Layer_1" data-name="Layer 1" xmlns="http://www.w3.org/2000/svg" viewBox="0 0 32.02 32.02"><defs><style>.cls-1{fill:#454c58;}</style></defs><title>PERSONLICHE DATEN (black)</title><path class="cls-1" d="M17.19,7.64H10.7a.51.51,0,0,0-.52.52V23.25h7.53V8.16a.48.48,0,0,0-.15-.37A.68.68,0,0,0,17.19,7.64Zm-4,6.72H11.7V12.81h1.51Zm0-3.1H11.7V9.71h1.51Zm3,3.1H14.68V12.81H16.2Zm0-3.1H14.68V9.71H16.2Z" transform="translate(0 -0.01)"/><path class="cls-1" d="M30.8,9.89A16,16,0,0,0,16,0,16,16,0,0,0,4.69,4.7,16,16,0,0,0,1.22,22.14,16,16,0,0,0,16,32a16,16,0,0,0,11.32-4.69A16,16,0,0,0,30.8,9.89ZM25.27,24.28H8.19a.52.52,0,0,1,0-1h1V7.68a1.07,1.07,0,0,1,.29-.74,1,1,0,0,1,.7-.29h7.49a1,1,0,0,1,.7.29,1.15,1.15,0,0,1,.3.74V23.25h4.09a.5.5,0,0,0,.52-.52V15.91a.48.48,0,0,0-.15-.37.61.61,0,0,0-.37-.15H20.18v-1h3.1a1,1,0,0,1,1,1v7.86h1a.52.52,0,1,1,0,1Z" transform="translate(0 -0.01)"/></svg>