<?xml version="1.0" encoding="utf-8"?>
<!-- Generator: Adobe Illustrator 23.0.1, SVG Export Plug-In . SVG Version: 6.00 Build 0)  -->
<!DOCTYPE svg PUBLIC "-//W3C//DTD SVG 1.1//EN" "http://www.w3.org/Graphics/SVG/1.1/DTD/svg11.dtd" [
	<!ENTITY ns_extend "http://ns.adobe.com/Extensibility/1.0/">
	<!ENTITY ns_ai "http://ns.adobe.com/AdobeIllustrator/10.0/">
	<!ENTITY ns_graphs "http://ns.adobe.com/Graphs/1.0/">
	<!ENTITY ns_vars "http://ns.adobe.com/Variables/1.0/">
	<!ENTITY ns_imrep "http://ns.adobe.com/ImageReplacement/1.0/">
	<!ENTITY ns_sfw "http://ns.adobe.com/SaveForWeb/1.0/">
	<!ENTITY ns_custom "http://ns.adobe.com/GenericCustomNamespace/1.0/">
	<!ENTITY ns_adobe_xpath "http://ns.adobe.com/XPath/1.0/">
]>
<svg class="icon" version="1.1" id="Layer_1" xmlns:x="&ns_extend;" xmlns:i="&ns_ai;" xmlns:graph="&ns_graphs;"
	 xmlns="http://www.w3.org/2000/svg" xmlns:xlink="http://www.w3.org/1999/xlink" x="0px" y="0px" viewBox="0 0 470 288"
	 style="enable-background:new 0 0 470 288;" xml:space="preserve">
<style type="text/css">
	.st0{fill:none;}
	.st1{fill:#ffffff;}
	.st2{display:none;}
	.st3{display:inline;}
	.st4{display:inline;fill:#ffffff;}
	.st5{font-family:'Poppins-Regular';}
	.st6{font-size:48.783px;}
</style>
<metadata>
	<sfw  xmlns="&ns_sfw;">
		<slices></slices>
		<sliceSourceBounds  bottomLeftOrigin="true" height="431.4" width="16383" x="-7956" y="-165.5"></sliceSourceBounds>
	</sfw>
</metadata>
<g id="SvgjsSvg1070" xmlns:svgjs="http://svgjs.com/svgjs">
	<g id="SvgjsG1072">
		<rect x="139.3" y="22.1" class="st0" width="201.5" height="180.1"/>
		<path class="st1" d="M217.3,191.4v-10.5c0-1.5,1.2-2.8,2.8-2.8s2.8,1.2,2.8,2.8v10.5h9.2v-15.7c0-3.2-1.3-6.1-3.4-8.2
			s-5-3.4-8.2-3.4h-39.8c-3.2,0-6.1,1.3-8.2,3.4s-3.4,5-3.4,8.2v15.7h9.2v-10.5c0-1.5,1.2-2.8,2.8-2.8c1.5,0,2.8,1.2,2.8,2.8v10.5
			H217.3L217.3,191.4z M277.7,135.2v-5c0-1.5,1.2-2.8,2.8-2.8c1.5,0,2.8,1.2,2.8,2.8v5h3.1v-8c0-1.5-0.6-2.9-1.7-4
			c-1-1-2.4-1.7-4-1.7h-23.3c-1.5,0-2.9,0.6-4,1.7c-1,1-1.7,2.4-1.7,4v8h3.1v-5c0-1.5,1.2-2.8,2.8-2.8c1.5,0,2.8,1.2,2.8,2.8v5
			H277.7L277.7,135.2z M268.8,81.9c4.6,0,8.8,1.9,11.9,4.9c3,3,4.9,7.2,4.9,11.9c0,4.6-1.9,8.8-4.9,11.9c-3,3-7.2,4.9-11.9,4.9
			s-8.8-1.9-11.9-4.9c-3-3-4.9-7.2-4.9-11.9s1.9-8.8,4.9-11.9C260,83.8,264.2,81.9,268.8,81.9z M276.8,90.8c-2-2-4.8-3.3-7.9-3.3
			s-5.9,1.3-7.9,3.3s-3.3,4.8-3.3,7.9s1.3,5.9,3.3,7.9s4.8,3.3,7.9,3.3s5.9-1.3,7.9-3.3s3.3-4.8,3.3-7.9
			C280.1,95.6,278.8,92.8,276.8,90.8z M289.1,140.7H249c-1.5,0-2.8-1.2-2.8-2.8v-10.8c0-3.1,1.3-5.9,3.3-7.9s4.8-3.3,7.9-3.3h23.3
			c3.1,0,5.9,1.3,7.9,3.3s3.3,4.8,3.3,7.9V138C291.9,139.5,290.6,140.7,289.1,140.7L289.1,140.7z M200.3,100.5c7.4,0,14,3,18.9,7.8
			c4.8,4.8,7.8,11.5,7.8,18.9s-3,14-7.8,18.9c-4.8,4.8-11.5,7.8-18.9,7.8s-14-3-18.9-7.8c-4.8-4.8-7.8-11.5-7.8-18.9s3-14,7.8-18.9
			C186.2,103.5,192.9,100.5,200.3,100.5z M215.2,112.2c-3.8-3.8-9.1-6.2-15-6.2c-5.8,0-11.1,2.4-15,6.2c-3.8,3.8-6.2,9.1-6.2,15
			c0,5.9,2.4,11.1,6.2,15c3.8,3.8,9.1,6.2,15,6.2c5.8,0,11.1-2.4,15-6.2c3.8-3.8,6.2-9.1,6.2-15S219.1,116,215.2,112.2z
			 M234.9,196.9h-68.5c-1.5,0-2.8-1.2-2.8-2.8v-18.4c0-4.7,1.9-9,5-12.1s7.4-5,12.1-5h39.8c4.7,0,9,1.9,12.1,5s5,7.4,5,12.1v18.4
			C237.7,195.7,236.4,196.9,234.9,196.9z M269.5,75.8c-1.5,0-2.8-1.2-2.8-2.8c0-1.5,1.2-2.8,2.8-2.8h33.3c1.5,0,2.8,1.2,2.8,2.8
			v73.1h8.1c1.5,0,2.8,1.2,2.8,2.8c0,0.3,0,0.6-0.1,0.9l-5.1,18.9c-0.3,1.2-1.5,2.1-2.7,2.1l0,0h-57.2c-1.5,0-2.8-1.2-2.8-2.8
			c0-1.5,1.2-2.8,2.8-2.8h55.1l3.6-13.5h-44.3v5.7c0,1.5-1.2,2.8-2.8,2.8h-28.4c-1.5,0-2.8-1.2-2.8-2.8v-5.7h-6.6
			c-1.5,0-2.8-1.2-2.8-2.8s1.2-2.8,2.8-2.8h9.4c1.5,0,2.8,1.2,2.8,2.8v5.7h22.9v-5.7c0-1.5,1.2-2.8,2.8-2.8h37V75.8H269.5
			L269.5,75.8z M204.3,27.3h33.3c7.4,0,14.2,3,19.1,7.9c4.9,4.9,7.9,11.7,7.9,19.1V61c0,7.4-3,14.2-7.9,19.1
			c-4.5,4.5-10.7,7.5-17.5,7.9v19.1c0,1.5-1.2,2.8-2.8,2.8c-0.7,0-1.4-0.3-1.9-0.8l-23.9-21h-6.3c-7.4,0-14.2-3-19.1-7.9
			c-4.9-4.9-7.9-11.7-7.9-19.1v-6.7c0-7.4,3-14.2,7.9-19.1C190.1,30.3,196.9,27.3,204.3,27.3L204.3,27.3z M237.6,32.8h-33.2
			c-5.9,0-11.3,2.4-15.2,6.3s-6.3,9.3-6.3,15.2V61c0,5.9,2.4,11.3,6.3,15.2c3.9,3.9,9.3,6.3,15.2,6.3h7.4l0,0c0.7,0,1.3,0.2,1.8,0.7
			l20.2,17.7V85.3c0-1.5,1.2-2.8,2.8-2.8h1.1c5.9,0,11.3-2.4,15.2-6.3c3.9-3.9,6.3-9.3,6.3-15.2v-6.7c0-5.9-2.4-11.3-6.3-15.2
			C248.8,35.2,243.5,32.8,237.6,32.8L237.6,32.8z M199.6,53.1c-1.5,0-2.8-1.2-2.8-2.8c0-1.5,1.2-2.8,2.8-2.8h25.7
			c1.5,0,2.8,1.2,2.8,2.8c0,1.5-1.2,2.8-2.8,2.8H199.6z M199.6,70c-1.5,0-2.8-1.2-2.8-2.8s1.2-2.8,2.8-2.8h43.1
			c1.5,0,2.8,1.2,2.8,2.8s-1.2,2.8-2.8,2.8H199.6z"/>
	</g>
</g>
<g class="st2">
	<g id="SvgjsG1008" transform="matrix(0.9167,0,0,0.9167,11.995200000000011,11.994720096492784)" class="st3">
		<rect x="125.5" y="15.5" class="st0" width="214.8" height="192"/>
		<path class="st1" d="M274.2,42.5c0.8-1.4,2.6-1.9,4-1.1c1.4,0.8,1.9,2.6,1.1,4l-7.7,13.3c-0.8,1.4-2.6,1.9-4,1.1
			c-1.4-0.8-1.9-2.6-1.1-4L274.2,42.5z M254.9,30.6c0.4-1.6,2-2.5,3.6-2.1s2.5,2,2.1,3.6l-6.2,23.3c-0.4,1.6-2,2.5-3.6,2.1
			s-2.5-2-2.1-3.6L254.9,30.6z M190.8,45.4c-0.8-1.4-0.3-3.2,1.1-4c1.4-0.8,3.2-0.3,4,1.1l7.7,13.3c0.8,1.4,0.3,3.2-1.1,4
			c-1.4,0.8-3.2,0.3-4-1.1L190.8,45.4z M232.1,26.5c0-1.6,1.3-2.9,2.9-2.9c1.6,0,2.9,1.3,2.9,2.9v27.9c0,1.6-1.3,2.9-2.9,2.9
			c-1.6,0-2.9-1.3-2.9-2.9V26.5L232.1,26.5z M209.5,32.2c-0.4-1.6,0.5-3.2,2.1-3.6s3.2,0.5,3.6,2.1l6.2,23.3
			c0.4,1.6-0.5,3.2-2.1,3.6s-3.2-0.5-3.6-2.1L209.5,32.2L209.5,32.2z M303.6,69.2c1.3-0.9,3.1-0.6,4.1,0.8c0.9,1.3,0.6,3.2-0.7,4.1
			l-18.4,12.8c5.3,4.4,9.8,9.2,13.1,14.4c4.1,6.3,6.6,13.1,7.3,20.6c0.2,1.6-1,3.1-2.6,3.2c-1.6,0.2-3-1-3.2-2.7
			c-0.6-6.5-2.8-12.4-6.4-17.9c-3.3-5.1-7.8-9.8-13.3-14.1l-8.4,5.9c-0.6,0.4-1.2,0.6-1.8,0.5l-36.4-0.4l-17.1,7.9L208,127.4
			c-0.7,1.5-0.7,2.9-0.2,3.9c0.5,0.9,1.3,1.7,2.3,2.3c1.1,0.7,2.5,1.2,3.9,1.4c2.6,0.4,5.4-0.1,7.3-1.8l11.6-17.4
			c0.5-0.8,1.4-1.3,2.3-1.3l0,0l20.4-0.9c1.6-0.1,3,1.2,3,2.8c0.1,1.6-1.2,3-2.8,3.1l-19,0.8L226,136.8c-0.1,0.2-0.3,0.4-0.4,0.5
			c-3.3,3.3-8.1,4.3-12.4,3.6c-2.2-0.3-4.3-1.1-6.1-2.2c-1.9-1.2-3.4-2.8-4.4-4.6c-1.4-2.7-1.5-5.8,0.1-9.2l12.2-24
			c0.3-0.6,0.8-1.2,1.5-1.5l18.6-8.6l0,0c0.4-0.2,0.8-0.3,1.3-0.3l36.3,0.4l9.3-6.5c0.1-0.1,0.2-0.1,0.3-0.2L303.6,69.2L303.6,69.2z
			 M307.2,130.4c1.6-0.2,3.1,0.9,3.3,2.6c0.2,1.6-0.9,3.1-2.5,3.3c-3,0.4-5.4,2-7.5,4.5c-2.3,2.7-4.1,6.5-5.8,10.8
			c-0.6,1.5-2.3,2.3-3.8,1.7s-2.3-2.3-1.7-3.8c1.8-4.9,4-9.2,6.8-12.5C299,133.4,302.7,131,307.2,130.4L307.2,130.4z M161,74.8
			c-1.3-1-1.6-2.8-0.6-4.1c1-1.3,2.8-1.6,4.1-0.6l27.2,20.3c5-2,9.9-3.3,14.7-3.9c5.4-0.7,10.7-0.4,15.8,0.8
			c1.6,0.4,2.6,1.9,2.2,3.5c-0.4,1.6-1.9,2.6-3.5,2.2c-4.5-1-9.1-1.2-13.8-0.7c-4.7,0.6-9.6,1.9-14.5,4c-1,0.5-2.1,0.4-3-0.3
			L161,74.8L161,74.8z M185.2,102.8c0.5-1.5,2.2-2.3,3.7-1.8c1.5,0.6,2.3,2.3,1.7,3.8c-2.8,7.6-6.2,14.2-10.3,19.7
			c-3.4,4.5-7.1,8.4-11.3,11.7l6.7,6.2c1.2,1.1,1.3,3,0.2,4.2s-2.9,1.3-4.1,0.2l-9.2-8.5c-0.2-0.2-0.4-0.4-0.6-0.6
			c-0.9-1.3-0.6-3.2,0.8-4.1c4.8-3.3,9.1-7.4,12.8-12.5C179.5,115.9,182.6,109.9,185.2,102.8L185.2,102.8z M174,153.7L174,153.7
			L174,153.7c0.1-0.1,0.1-0.1,0.1-0.2l8.2-8.2c2.2-2.2,5.2-3.3,8.1-3.3c2.9,0,5.9,1.1,8.1,3.4l0,0l0,0l0.1,0.1
			c2.1,2.2,3.2,5.1,3.2,8s-1.1,5.9-3.4,8.1l-5.6,5.6c-1.1,1.1-1.6,2.5-1.6,4c0,1.4,0.5,2.8,1.5,3.8c0.1,0.1,0.1,0.1,0.2,0.2l0,0
			c1.1,1.1,2.5,1.6,4,1.6s2.9-0.5,4-1.6l2-2l0,0l0.1-0.1l8.8-8.8c0.1-0.1,0.1-0.1,0.2-0.2l0,0c1.1-1.1,1.6-2.5,1.6-4
			c0-1.4-0.5-2.8-1.5-3.8l-0.1-0.1c-0.1-0.1-0.1-0.1-0.2-0.2c-0.4-0.4-0.9-0.7-1.4-1c-0.6-0.3-1.2-0.5-1.8-0.5
			c-1.6-0.2-2.8-1.6-2.6-3.2c0.2-1.6,1.6-2.8,3.2-2.6c1.3,0.1,2.6,0.5,3.7,1c1.1,0.5,2.2,1.3,3.2,2.2l0,0l0,0l0.1,0.1
			c2.1,2.2,3.2,5.1,3.2,8s-1.1,5.9-3.4,8.1l0,0l0,0l-0.1,0.1l-8.8,8.8c-0.1,0.1-0.1,0.1-0.2,0.2l0,0c-1.1,1.1-1.6,2.5-1.6,4
			c0,1.4,0.5,2.7,1.5,3.8c0.1,0.1,0.2,0.2,0.2,0.2c1.1,1,2.5,1.5,3.9,1.5c1.5,0,2.9-0.5,4-1.6l12.7-12.7c1.1-1.1,1.6-2.5,1.6-4
			c0-1.4-0.5-2.8-1.5-3.8c-0.1-0.1-0.1-0.1-0.2-0.2l0,0c-0.4-0.4-0.9-0.8-1.5-1c-0.5-0.3-1.2-0.4-1.8-0.5c-1.6-0.2-2.7-1.7-2.5-3.3
			s1.7-2.8,3.3-2.6c1.2,0.2,2.4,0.5,3.6,1.1c1.1,0.5,2.1,1.3,3,2.2l0,0l0,0l0.1,0.1c2.1,2.2,3.2,5.1,3.2,8s-1.1,5.9-3.4,8.1l-9,9
			c-0.9,0.9-1.3,2-1.3,3.2c0,1.1,0.4,2.2,1.2,3c0.1,0.1,0.1,0.1,0.2,0.2l0,0c0.9,0.9,2,1.3,3.2,1.3s2.3-0.4,3.2-1.3l5-5
			c0.1-0.1,0.1-0.1,0.2-0.2l0,0c0.9-0.9,1.3-2,1.3-3.1s-0.4-2.2-1.2-3c-0.2-0.2-0.4-0.4-0.5-0.6c-0.9-1.4-0.5-3.2,0.9-4.1
			c1.3-0.8,2.9-0.5,3.8,0.6c1.9,2,2.8,4.6,2.8,7.2c0,2.7-1,5.3-3,7.3l0,0l0,0l-0.1,0.1l-5,5c-2,2-4.7,3-7.3,3s-5.3-1-7.3-3l0,0l0,0
			l-0.1-0.1c-1.2-1.3-2.1-2.8-2.5-4.4c-1.6,0.8-3.3,1.2-5,1.2c-2.9,0-5.9-1.1-8.1-3.4l0,0l0,0l-0.1-0.1c-1.9-1.9-2.9-4.4-3.1-6.9
			c-0.9,0.2-1.8,0.3-2.7,0.3c-2.9,0-5.9-1.1-8.1-3.4l0,0l0,0l-0.1-0.1c-1.7-1.8-2.8-4-3.1-6.4c-1.1,0.4-2.3,0.5-3.5,0.5
			c-2.9,0-5.9-1.1-8.1-3.4l0,0l0,0l-0.1-0.1c-2.1-2.2-3.2-5.1-3.2-8C170.6,158.9,171.7,156,174,153.7L174,153.7z M186.4,149.6
			l-8.2,8.2c-0.1,0.1-0.1,0.1-0.2,0.2l0,0c-1.1,1.1-1.6,2.5-1.6,4c0,1.4,0.5,2.7,1.5,3.8c0.1,0.1,0.2,0.2,0.2,0.2
			c1.1,1,2.5,1.5,3.9,1.5c1.5,0,2.9-0.5,4-1.6l8.4-8.4c1.1-1.1,1.6-2.5,1.6-4c0-1.4-0.5-2.8-1.5-3.8c-0.1-0.1-0.1-0.1-0.2-0.2l0,0
			c-1.1-1.1-2.5-1.6-4-1.6C189,147.9,187.5,148.5,186.4,149.6L186.4,149.6z M258.9,135.9c-1.1-1.1-1.2-3,0-4.2c1.1-1.2,3-1.2,4.1,0
			l27.5,27.5c2.3,2.3,3.4,5.3,3.4,8.3s-1.1,6-3.4,8.3l0,0l0,0c-0.1,0.1-0.1,0.1-0.2,0.2c-2.2,2.1-5.2,3.2-8.1,3.2
			c-1.5,0-3-0.3-4.3-0.8c-0.8,0-1.6-0.2-2.2-0.9L252,153.8c-1.1-1.1-1.2-3,0-4.2c1.1-1.2,3-1.2,4.1,0l22,22c1.1,1.1,2.6,1.7,4.1,1.7
			c1.4,0,2.9-0.5,4-1.6c0-0.1,0.1-0.1,0.1-0.1l0,0c1.1-1.1,1.7-2.6,1.7-4.1s-0.6-3-1.7-4.1L258.9,135.9z M277.2,183.1
			c0.4-1.6,2-2.5,3.6-2.1s2.5,2,2.1,3.6c-0.3,1-0.7,1.9-1.2,2.8c-0.5,0.9-1.1,1.7-1.9,2.4l0,0l0,0c-0.1,0.1-0.1,0.1-0.2,0.2
			c-2.2,2.1-5.2,3.2-8.1,3.2c-2,0-3.9-0.5-5.7-1.5c-0.5,1.5-1.3,3-2.5,4.2l0,0c-2,2-4.5,2.9-7.1,2.9s-5.2-1-7.1-2.9l-4.9-4.9
			c-1.1-1.1-1.2-3,0-4.2s3-1.2,4.1,0l4.9,4.9c0.8,0.8,1.9,1.2,3,1.2c1,0,2.1-0.4,2.9-1.1c0.1-0.1,0.2-0.2,0.2-0.2
			c0.7-0.8,1.1-1.8,1.1-2.9c0-1.1-0.4-2.2-1.2-3L245.5,172c-1.1-1.1-1.2-3,0-4.2s3-1.2,4.1,0l17.6,17.6c0.1,0.1,0.1,0.1,0.2,0.2l0,0
			c1.1,1.1,2.6,1.7,4.1,1.7c1.4,0,2.9-0.5,4-1.6c0-0.1,0.1-0.1,0.1-0.1l0,0c0.4-0.4,0.7-0.8,0.9-1.2
			C276.9,184.1,277.1,183.6,277.2,183.1L277.2,183.1z"/>
	</g>
	<text transform="matrix(1 0 0 1 28.7064 256.8896)" class="st4 st5 st6">PRODUKTPARTNER</text>
</g>
<g>
	<path class="st1" d="M72.7,242.6h-6v13.5h-5.5v-33.4h11.5c7.9,0,11.8,4.5,11.8,9.9C84.5,237.5,81.3,242.6,72.7,242.6z M72.7,238.1
		c4.3,0,6.2-2.1,6.2-5.4c0-3.5-1.9-5.5-6.2-5.5h-6v10.9H72.7z"/>
	<path class="st1" d="M101.2,222.8c7.9,0,11.8,4.6,11.8,10c0,3.9-2.1,8.2-7.7,9.6l8.3,13.8H107l-7.7-13.3h-4.2v13.3h-5.5v-33.4
		H101.2z M101.2,227.2h-6v11.2h6c4.3,0,6.2-2.4,6.2-5.7C107.4,229.4,105.5,227.2,101.2,227.2z"/>
	<path class="st1" d="M120,222.8h5.5v33.4H120V222.8z"/>
	<path class="st1" d="M155.7,222.8h5.8l-12.5,33.4h-6.3L130,222.8h5.9l9.9,27.7L155.7,222.8z"/>
	<path class="st1" d="M186.1,249.3h-14l-2.4,6.8H164l12-33.4h6.3l12,33.4h-5.8L186.1,249.3z M179.2,229.3l-5.5,15.5h10.9
		L179.2,229.3z"/>
	<path class="st1" d="M197.7,222.8H221v4.5h-8.9v28.9h-5.5v-28.9h-8.9V222.8z"/>
	<path class="st1" d="M232,241.2v14.9h-5.5v-33.4h5.5V238l13-15.2h6.9l-14.5,16.7l14.7,16.7h-7.2L232,241.2z"/>
	<path class="st1" d="M256.9,222.8h5.5V244c0,5.2,2.9,7.6,7.5,7.6c4.7,0,7.6-2.4,7.6-7.6v-21.3h5.5v21.2c0,8.5-6.1,12.5-13.1,12.5
		c-7,0-13-4-13-12.5V222.8z"/>
	<path class="st1" d="M317.4,222.7v33.4H312l-16.5-24.9v24.9H290v-33.4h5.5l16.5,24.9v-24.9H317.4z"/>
	<path class="st1" d="M353.3,239.6c0,10.3-7,16.6-17.7,16.6h-10.9v-33.4h10.9C346.2,222.8,353.3,229.3,353.3,239.6z M335.5,251.7
		c7.9,0,12.1-4.5,12.1-12.1c0-7.6-4.2-12.3-12.1-12.3h-5.4v24.4H335.5z"/>
	<path class="st1" d="M377.1,227.2h-13v9.8h11.5v4.5h-11.5v10.2h13v4.5h-18.4v-33.4h18.4V227.2z"/>
	<path class="st1" d="M411.2,222.7v33.4h-5.5l-16.5-24.9v24.9h-5.5v-33.4h5.5l16.5,24.9v-24.9H411.2z"/>
</g>
<text transform="matrix(1 0 0 1 -108.3529 425.5473)" style="display:none;fill:#ffffff; font-family:'Poppins-Medium'; font-size:48px;">PRIVATKUNDEN</text>
</svg>
