<?xml version="1.0" encoding="utf-8"?>
<!-- Generator: Adobe Illustrator 23.0.1, SVG Export Plug-In . SVG Version: 6.00 Build 0)  -->
<!DOCTYPE svg PUBLIC "-//W3C//DTD SVG 1.1//EN" "http://www.w3.org/Graphics/SVG/1.1/DTD/svg11.dtd" [
	<!ENTITY ns_extend "http://ns.adobe.com/Extensibility/1.0/">
	<!ENTITY ns_ai "http://ns.adobe.com/AdobeIllustrator/10.0/">
	<!ENTITY ns_graphs "http://ns.adobe.com/Graphs/1.0/">
	<!ENTITY ns_vars "http://ns.adobe.com/Variables/1.0/">
	<!ENTITY ns_imrep "http://ns.adobe.com/ImageReplacement/1.0/">
	<!ENTITY ns_sfw "http://ns.adobe.com/SaveForWeb/1.0/">
	<!ENTITY ns_custom "http://ns.adobe.com/GenericCustomNamespace/1.0/">
	<!ENTITY ns_adobe_xpath "http://ns.adobe.com/XPath/1.0/">
]>
<svg version="1.1" id="Layer_1" xmlns:x="&ns_extend;" xmlns:i="&ns_ai;" xmlns:graph="&ns_graphs;"
	 xmlns="http://www.w3.org/2000/svg" xmlns:xlink="http://www.w3.org/1999/xlink" x="0px" y="0px" viewBox="0 0 470 288"
	 style="enable-background:new 0 0 470 288;" xml:space="preserve">
<style type="text/css">
	.st0{display:none;}
	.st1{display:inline;}
	.st2{fill:none;}
	.st3{fill:#125FAF;}
	.st4{display:none;enable-background:new    ;}
	.st5{display:inline;fill:#125FAF;}
</style>
<metadata>
	<sfw  xmlns="&ns_sfw;">
		<slices></slices>
		<sliceSourceBounds  bottomLeftOrigin="true" height="353" width="429.1" x="30.6" y="-87.1"></sliceSourceBounds>
	</sfw>
</metadata>
<g id="SvgjsSvg1070" xmlns:svgjs="http://svgjs.com/svgjs" class="st0">
	<g id="SvgjsG1072" class="st1">
		<rect x="139.3" y="22.1" class="st2" width="201.5" height="180.1"/>
		<path class="st3" d="M217.3,191.4v-10.5c0-1.5,1.2-2.8,2.8-2.8s2.8,1.2,2.8,2.8v10.5h9.2v-15.7c0-3.2-1.3-6.1-3.4-8.2
			s-5-3.4-8.2-3.4h-39.8c-3.2,0-6.1,1.3-8.2,3.4s-3.4,5-3.4,8.2v15.7h9.2v-10.5c0-1.5,1.2-2.8,2.8-2.8c1.5,0,2.8,1.2,2.8,2.8v10.5
			H217.3L217.3,191.4z M277.7,135.2v-5c0-1.5,1.2-2.8,2.8-2.8c1.5,0,2.8,1.2,2.8,2.8v5h3.1v-8c0-1.5-0.6-2.9-1.7-4
			c-1-1-2.4-1.7-4-1.7h-23.3c-1.5,0-2.9,0.6-4,1.7c-1,1-1.7,2.4-1.7,4v8h3.1v-5c0-1.5,1.2-2.8,2.8-2.8c1.5,0,2.8,1.2,2.8,2.8v5
			H277.7L277.7,135.2z M268.8,81.9c4.6,0,8.8,1.9,11.9,4.9c3,3,4.9,7.2,4.9,11.9c0,4.6-1.9,8.8-4.9,11.9c-3,3-7.2,4.9-11.9,4.9
			s-8.8-1.9-11.9-4.9c-3-3-4.9-7.2-4.9-11.9s1.9-8.8,4.9-11.9C260,83.8,264.2,81.9,268.8,81.9z M276.8,90.8c-2-2-4.8-3.3-7.9-3.3
			s-5.9,1.3-7.9,3.3s-3.3,4.8-3.3,7.9s1.3,5.9,3.3,7.9s4.8,3.3,7.9,3.3s5.9-1.3,7.9-3.3s3.3-4.8,3.3-7.9
			C280.1,95.6,278.8,92.8,276.8,90.8z M289.1,140.7H249c-1.5,0-2.8-1.2-2.8-2.8v-10.8c0-3.1,1.3-5.9,3.3-7.9s4.8-3.3,7.9-3.3h23.3
			c3.1,0,5.9,1.3,7.9,3.3s3.3,4.8,3.3,7.9V138C291.9,139.5,290.6,140.7,289.1,140.7L289.1,140.7z M200.3,100.5c7.4,0,14,3,18.9,7.8
			c4.8,4.8,7.8,11.5,7.8,18.9s-3,14-7.8,18.9c-4.8,4.8-11.5,7.8-18.9,7.8s-14-3-18.9-7.8c-4.8-4.8-7.8-11.5-7.8-18.9s3-14,7.8-18.9
			C186.2,103.5,192.9,100.5,200.3,100.5z M215.2,112.2c-3.8-3.8-9.1-6.2-15-6.2c-5.8,0-11.1,2.4-15,6.2c-3.8,3.8-6.2,9.1-6.2,15
			c0,5.9,2.4,11.1,6.2,15c3.8,3.8,9.1,6.2,15,6.2c5.8,0,11.1-2.4,15-6.2c3.8-3.8,6.2-9.1,6.2-15S219.1,116,215.2,112.2z
			 M234.9,196.9h-68.5c-1.5,0-2.8-1.2-2.8-2.8v-18.4c0-4.7,1.9-9,5-12.1s7.4-5,12.1-5h39.8c4.7,0,9,1.9,12.1,5s5,7.4,5,12.1v18.4
			C237.7,195.7,236.4,196.9,234.9,196.9z M269.5,75.8c-1.5,0-2.8-1.2-2.8-2.8c0-1.5,1.2-2.8,2.8-2.8h33.3c1.5,0,2.8,1.2,2.8,2.8
			v73.1h8.1c1.5,0,2.8,1.2,2.8,2.8c0,0.3,0,0.6-0.1,0.9l-5.1,18.9c-0.3,1.2-1.5,2.1-2.7,2.1l0,0h-57.2c-1.5,0-2.8-1.2-2.8-2.8
			c0-1.5,1.2-2.8,2.8-2.8h55.1l3.6-13.5h-44.3v5.7c0,1.5-1.2,2.8-2.8,2.8h-28.4c-1.5,0-2.8-1.2-2.8-2.8v-5.7h-6.6
			c-1.5,0-2.8-1.2-2.8-2.8s1.2-2.8,2.8-2.8h9.4c1.5,0,2.8,1.2,2.8,2.8v5.7h22.9v-5.7c0-1.5,1.2-2.8,2.8-2.8h37V75.8H269.5
			L269.5,75.8z M204.3,27.3h33.3c7.4,0,14.2,3,19.1,7.9c4.9,4.9,7.9,11.7,7.9,19.1V61c0,7.4-3,14.2-7.9,19.1
			c-4.5,4.5-10.7,7.5-17.5,7.9v19.1c0,1.5-1.2,2.8-2.8,2.8c-0.7,0-1.4-0.3-1.9-0.8l-23.9-21h-6.3c-7.4,0-14.2-3-19.1-7.9
			c-4.9-4.9-7.9-11.7-7.9-19.1v-6.7c0-7.4,3-14.2,7.9-19.1C190.1,30.3,196.9,27.3,204.3,27.3L204.3,27.3z M237.6,32.8h-33.2
			c-5.9,0-11.3,2.4-15.2,6.3s-6.3,9.3-6.3,15.2V61c0,5.9,2.4,11.3,6.3,15.2c3.9,3.9,9.3,6.3,15.2,6.3h7.4l0,0c0.7,0,1.3,0.2,1.8,0.7
			l20.2,17.7V85.3c0-1.5,1.2-2.8,2.8-2.8h1.1c5.9,0,11.3-2.4,15.2-6.3c3.9-3.9,6.3-9.3,6.3-15.2v-6.7c0-5.9-2.4-11.3-6.3-15.2
			C248.8,35.2,243.5,32.8,237.6,32.8L237.6,32.8z M199.6,53.1c-1.5,0-2.8-1.2-2.8-2.8c0-1.5,1.2-2.8,2.8-2.8h25.7
			c1.5,0,2.8,1.2,2.8,2.8c0,1.5-1.2,2.8-2.8,2.8H199.6z M199.6,70c-1.5,0-2.8-1.2-2.8-2.8s1.2-2.8,2.8-2.8h43.1
			c1.5,0,2.8,1.2,2.8,2.8s-1.2,2.8-2.8,2.8H199.6z"/>
	</g>
	<g class="st1">
		<path class="st3" d="M72.5,242.4H66v14.2h-4.4v-34h11c8,0,11.8,4.4,11.8,10C84.2,237.7,80.9,242.4,72.5,242.4z M72.5,238.7
			c5.1,0,7.2-2.4,7.2-6.2c0-4-2.1-6.3-7.2-6.3H66v12.5H72.5z"/>
		<path class="st3" d="M100.7,222.5c8,0,11.8,4.4,11.8,10c0,4.3-2.4,8.5-8.1,9.8l8.5,14.2h-5.3l-8.1-13.9h-5.4v13.9h-4.4v-34H100.7z
			 M100.7,226.2h-6.5v12.9h6.5c5,0,7.2-2.7,7.2-6.5C107.9,228.7,105.8,226.2,100.7,226.2z"/>
		<path class="st3" d="M119.4,222.5h4.4v34h-4.4V222.5z"/>
		<path class="st3" d="M154.8,222.5h4.7l-12.8,34h-5.1l-12.8-34h4.7l10.7,29.3L154.8,222.5z"/>
		<path class="st3" d="M184.5,249h-14.8l-2.7,7.6h-4.7l12.3-33.8h5.1l12.2,33.8h-4.7L184.5,249z M177.1,228.2l-6.1,17.2h12.3
			L177.1,228.2z"/>
		<path class="st3" d="M195.2,222.5h23v3.6h-9.3v30.4h-4.4v-30.4h-9.3V222.5z"/>
		<path class="st3" d="M228.1,241v15.5h-4.4v-34h4.4v15.8l14-15.8h5.6l-15.4,17l15.6,17h-5.8L228.1,241z"/>
		<path class="st3" d="M252.8,222.5h4.4V244c0,6.2,3.4,8.9,8.4,8.9s8.3-2.7,8.3-8.9v-21.5h4.4V244c0,8.8-5.8,12.9-12.8,12.9
			s-12.8-4-12.8-12.9v-21.5H252.8z"/>
		<path class="st3" d="M312.5,222.5v34h-4.4l-17.9-27.1v27.1h-4.4v-34h4.4l17.9,27v-27H312.5z"/>
		<path class="st3" d="M348.7,239.6c0,10.5-6.9,16.9-18,16.9h-10.6v-34h10.6C341.9,222.5,348.7,229.1,348.7,239.6z M330.7,252.9
			c8.9,0,13.5-5,13.5-13.3s-4.6-13.5-13.5-13.5h-6.1v26.7h6.1V252.9z"/>
		<path class="st3" d="M372.9,226.2H359v11.4h12.4v3.7H359V253h13.9v3.7h-18.3v-34h18.3V226.2z"/>
		<path class="st3" d="M406.3,222.5v34h-4.4L384,229.4v27.1h-4.4v-34h4.4l17.9,27v-27H406.3z"/>
	</g>
</g>
<g id="SvgjsG1008" transform="matrix(0.9167,0,0,0.9167,11.995200000000011,11.994720096492784)">
	<rect x="125.5" y="15.5" class="st2" width="214.8" height="192"/>
	<path class="st3" d="M274.2,42.5c0.8-1.4,2.6-1.9,4-1.1c1.4,0.8,1.9,2.6,1.1,4l-7.7,13.3c-0.8,1.4-2.6,1.9-4,1.1
		c-1.4-0.8-1.9-2.6-1.1-4L274.2,42.5z M254.9,30.6c0.4-1.6,2-2.5,3.6-2.1s2.5,2,2.1,3.6l-6.2,23.3c-0.4,1.6-2,2.5-3.6,2.1
		s-2.5-2-2.1-3.6L254.9,30.6z M190.8,45.4c-0.8-1.4-0.3-3.2,1.1-4c1.4-0.8,3.2-0.3,4,1.1l7.7,13.3c0.8,1.4,0.3,3.2-1.1,4
		c-1.4,0.8-3.2,0.3-4-1.1L190.8,45.4z M232.1,26.5c0-1.6,1.3-2.9,2.9-2.9c1.6,0,2.9,1.3,2.9,2.9v27.9c0,1.6-1.3,2.9-2.9,2.9
		c-1.6,0-2.9-1.3-2.9-2.9V26.5L232.1,26.5z M209.5,32.2c-0.4-1.6,0.5-3.2,2.1-3.6s3.2,0.5,3.6,2.1l6.2,23.3c0.4,1.6-0.5,3.2-2.1,3.6
		s-3.2-0.5-3.6-2.1L209.5,32.2L209.5,32.2z M303.6,69.2c1.3-0.9,3.1-0.6,4.1,0.8c0.9,1.3,0.6,3.2-0.7,4.1l-18.4,12.8
		c5.3,4.4,9.8,9.2,13.1,14.4c4.1,6.3,6.6,13.1,7.3,20.6c0.2,1.6-1,3.1-2.6,3.2c-1.6,0.2-3-1-3.2-2.7c-0.6-6.5-2.8-12.4-6.4-17.9
		c-3.3-5.1-7.8-9.8-13.3-14.1l-8.4,5.9c-0.6,0.4-1.2,0.6-1.8,0.5l-36.4-0.4l-17.1,7.9L208,127.4c-0.7,1.5-0.7,2.9-0.2,3.9
		c0.5,0.9,1.3,1.7,2.3,2.3c1.1,0.7,2.5,1.2,3.9,1.4c2.6,0.4,5.4-0.1,7.3-1.8l11.6-17.4c0.5-0.8,1.4-1.3,2.3-1.3l0,0l20.4-0.9
		c1.6-0.1,3,1.2,3,2.8c0.1,1.6-1.2,3-2.8,3.1l-19,0.8L226,136.8c-0.1,0.2-0.3,0.4-0.4,0.5c-3.3,3.3-8.1,4.3-12.4,3.6
		c-2.2-0.3-4.3-1.1-6.1-2.2c-1.9-1.2-3.4-2.8-4.4-4.6c-1.4-2.7-1.5-5.8,0.1-9.2l12.2-24c0.3-0.6,0.8-1.2,1.5-1.5l18.6-8.6l0,0
		c0.4-0.2,0.8-0.3,1.3-0.3l36.3,0.4l9.3-6.5c0.1-0.1,0.2-0.1,0.3-0.2L303.6,69.2L303.6,69.2z M307.2,130.4c1.6-0.2,3.1,0.9,3.3,2.6
		c0.2,1.6-0.9,3.1-2.5,3.3c-3,0.4-5.4,2-7.5,4.5c-2.3,2.7-4.1,6.5-5.8,10.8c-0.6,1.5-2.3,2.3-3.8,1.7s-2.3-2.3-1.7-3.8
		c1.8-4.9,4-9.2,6.8-12.5C299,133.4,302.7,131,307.2,130.4L307.2,130.4z M161,74.8c-1.3-1-1.6-2.8-0.6-4.1c1-1.3,2.8-1.6,4.1-0.6
		l27.2,20.3c5-2,9.9-3.3,14.7-3.9c5.4-0.7,10.7-0.4,15.8,0.8c1.6,0.4,2.6,1.9,2.2,3.5c-0.4,1.6-1.9,2.6-3.5,2.2
		c-4.5-1-9.1-1.2-13.8-0.7c-4.7,0.6-9.6,1.9-14.5,4c-1,0.5-2.1,0.4-3-0.3L161,74.8L161,74.8z M185.2,102.8c0.5-1.5,2.2-2.3,3.7-1.8
		c1.5,0.6,2.3,2.3,1.7,3.8c-2.8,7.6-6.2,14.2-10.3,19.7c-3.4,4.5-7.1,8.4-11.3,11.7l6.7,6.2c1.2,1.1,1.3,3,0.2,4.2s-2.9,1.3-4.1,0.2
		l-9.2-8.5c-0.2-0.2-0.4-0.4-0.6-0.6c-0.9-1.3-0.6-3.2,0.8-4.1c4.8-3.3,9.1-7.4,12.8-12.5C179.5,115.9,182.6,109.9,185.2,102.8
		L185.2,102.8z M174,153.7L174,153.7L174,153.7c0.1-0.1,0.1-0.1,0.1-0.2l8.2-8.2c2.2-2.2,5.2-3.3,8.1-3.3c2.9,0,5.9,1.1,8.1,3.4l0,0
		l0,0l0.1,0.1c2.1,2.2,3.2,5.1,3.2,8s-1.1,5.9-3.4,8.1l-5.6,5.6c-1.1,1.1-1.6,2.5-1.6,4c0,1.4,0.5,2.8,1.5,3.8
		c0.1,0.1,0.1,0.1,0.2,0.2l0,0c1.1,1.1,2.5,1.6,4,1.6s2.9-0.5,4-1.6l2-2l0,0l0.1-0.1l8.8-8.8c0.1-0.1,0.1-0.1,0.2-0.2l0,0
		c1.1-1.1,1.6-2.5,1.6-4c0-1.4-0.5-2.8-1.5-3.8l-0.1-0.1c-0.1-0.1-0.1-0.1-0.2-0.2c-0.4-0.4-0.9-0.7-1.4-1c-0.6-0.3-1.2-0.5-1.8-0.5
		c-1.6-0.2-2.8-1.6-2.6-3.2c0.2-1.6,1.6-2.8,3.2-2.6c1.3,0.1,2.6,0.5,3.7,1c1.1,0.5,2.2,1.3,3.2,2.2l0,0l0,0l0.1,0.1
		c2.1,2.2,3.2,5.1,3.2,8s-1.1,5.9-3.4,8.1l0,0l0,0l-0.1,0.1l-8.8,8.8c-0.1,0.1-0.1,0.1-0.2,0.2l0,0c-1.1,1.1-1.6,2.5-1.6,4
		c0,1.4,0.5,2.7,1.5,3.8c0.1,0.1,0.2,0.2,0.2,0.2c1.1,1,2.5,1.5,3.9,1.5c1.5,0,2.9-0.5,4-1.6l12.7-12.7c1.1-1.1,1.6-2.5,1.6-4
		c0-1.4-0.5-2.8-1.5-3.8c-0.1-0.1-0.1-0.1-0.2-0.2l0,0c-0.4-0.4-0.9-0.8-1.5-1c-0.5-0.3-1.2-0.4-1.8-0.5c-1.6-0.2-2.7-1.7-2.5-3.3
		s1.7-2.8,3.3-2.6c1.2,0.2,2.4,0.5,3.6,1.1c1.1,0.5,2.1,1.3,3,2.2l0,0l0,0l0.1,0.1c2.1,2.2,3.2,5.1,3.2,8s-1.1,5.9-3.4,8.1l-9,9
		c-0.9,0.9-1.3,2-1.3,3.2c0,1.1,0.4,2.2,1.2,3c0.1,0.1,0.1,0.1,0.2,0.2l0,0c0.9,0.9,2,1.3,3.2,1.3s2.3-0.4,3.2-1.3l5-5
		c0.1-0.1,0.1-0.1,0.2-0.2l0,0c0.9-0.9,1.3-2,1.3-3.1s-0.4-2.2-1.2-3c-0.2-0.2-0.4-0.4-0.5-0.6c-0.9-1.4-0.5-3.2,0.9-4.1
		c1.3-0.8,2.9-0.5,3.8,0.6c1.9,2,2.8,4.6,2.8,7.2c0,2.7-1,5.3-3,7.3l0,0l0,0l-0.1,0.1l-5,5c-2,2-4.7,3-7.3,3s-5.3-1-7.3-3l0,0l0,0
		l-0.1-0.1c-1.2-1.3-2.1-2.8-2.5-4.4c-1.6,0.8-3.3,1.2-5,1.2c-2.9,0-5.9-1.1-8.1-3.4l0,0l0,0l-0.1-0.1c-1.9-1.9-2.9-4.4-3.1-6.9
		c-0.9,0.2-1.8,0.3-2.7,0.3c-2.9,0-5.9-1.1-8.1-3.4l0,0l0,0l-0.1-0.1c-1.7-1.8-2.8-4-3.1-6.4c-1.1,0.4-2.3,0.5-3.5,0.5
		c-2.9,0-5.9-1.1-8.1-3.4l0,0l0,0l-0.1-0.1c-2.1-2.2-3.2-5.1-3.2-8C170.6,158.9,171.7,156,174,153.7L174,153.7z M186.4,149.6
		l-8.2,8.2c-0.1,0.1-0.1,0.1-0.2,0.2l0,0c-1.1,1.1-1.6,2.5-1.6,4c0,1.4,0.5,2.7,1.5,3.8c0.1,0.1,0.2,0.2,0.2,0.2
		c1.1,1,2.5,1.5,3.9,1.5c1.5,0,2.9-0.5,4-1.6l8.4-8.4c1.1-1.1,1.6-2.5,1.6-4c0-1.4-0.5-2.8-1.5-3.8c-0.1-0.1-0.1-0.1-0.2-0.2l0,0
		c-1.1-1.1-2.5-1.6-4-1.6C189,147.9,187.5,148.5,186.4,149.6L186.4,149.6z M258.9,135.9c-1.1-1.1-1.2-3,0-4.2c1.1-1.2,3-1.2,4.1,0
		l27.5,27.5c2.3,2.3,3.4,5.3,3.4,8.3s-1.1,6-3.4,8.3l0,0l0,0c-0.1,0.1-0.1,0.1-0.2,0.2c-2.2,2.1-5.2,3.2-8.1,3.2
		c-1.5,0-3-0.3-4.3-0.8c-0.8,0-1.6-0.2-2.2-0.9L252,153.8c-1.1-1.1-1.2-3,0-4.2c1.1-1.2,3-1.2,4.1,0l22,22c1.1,1.1,2.6,1.7,4.1,1.7
		c1.4,0,2.9-0.5,4-1.6c0-0.1,0.1-0.1,0.1-0.1l0,0c1.1-1.1,1.7-2.6,1.7-4.1s-0.6-3-1.7-4.1L258.9,135.9z M277.2,183.1
		c0.4-1.6,2-2.5,3.6-2.1s2.5,2,2.1,3.6c-0.3,1-0.7,1.9-1.2,2.8c-0.5,0.9-1.1,1.7-1.9,2.4l0,0l0,0c-0.1,0.1-0.1,0.1-0.2,0.2
		c-2.2,2.1-5.2,3.2-8.1,3.2c-2,0-3.9-0.5-5.7-1.5c-0.5,1.5-1.3,3-2.5,4.2l0,0c-2,2-4.5,2.9-7.1,2.9s-5.2-1-7.1-2.9l-4.9-4.9
		c-1.1-1.1-1.2-3,0-4.2s3-1.2,4.1,0l4.9,4.9c0.8,0.8,1.9,1.2,3,1.2c1,0,2.1-0.4,2.9-1.1c0.1-0.1,0.2-0.2,0.2-0.2
		c0.7-0.8,1.1-1.8,1.1-2.9c0-1.1-0.4-2.2-1.2-3L245.5,172c-1.1-1.1-1.2-3,0-4.2s3-1.2,4.1,0l17.6,17.6c0.1,0.1,0.1,0.1,0.2,0.2l0,0
		c1.1,1.1,2.6,1.7,4.1,1.7c1.4,0,2.9-0.5,4-1.6c0-0.1,0.1-0.1,0.1-0.1l0,0c0.4-0.4,0.7-0.8,0.9-1.2
		C276.9,184.1,277.1,183.6,277.2,183.1L277.2,183.1z"/>
</g>
<g class="st4">
	<path class="st5" d="M43.4,242.7h-6.5v14.2h-4.4v-34h11c8,0,11.8,4.4,11.8,10C55.2,238,51.9,242.7,43.4,242.7z M43.4,239
		c5.1,0,7.2-2.4,7.2-6.2c0-4-2.1-6.3-7.2-6.3h-6.5V239H43.4z"/>
	<path class="st5" d="M71.7,222.9c8,0,11.8,4.4,11.8,10c0,4.3-2.4,8.5-8.1,9.8l8.5,14.2h-5.3L70.5,243h-5.4v13.9h-4.4v-34H71.7z
		 M71.7,226.5h-6.5v12.9h6.5c5,0,7.2-2.7,7.2-6.5C78.9,229,76.8,226.5,71.7,226.5z"/>
	<path class="st5" d="M105.8,257.2c-9.6,0-17.1-7.2-17.1-17.4s7.5-17.4,17.1-17.4s17.1,7.2,17.1,17.4
		C122.9,250.1,115.4,257.2,105.8,257.2z M105.8,253.4c7.2,0,12.5-5.2,12.5-13.5s-5.4-13.5-12.5-13.5s-12.5,5.2-12.5,13.5
		C93.2,248.2,98.6,253.4,105.8,253.4z"/>
	<path class="st5" d="M157.3,240c0,10.5-6.9,16.9-18,16.9h-10.6v-34h10.6C150.5,222.9,157.3,229.4,157.3,240z M139.3,253.2
		c8.9,0,13.5-5,13.5-13.3s-4.6-13.5-13.5-13.5h-6.1v26.7h6.1V253.2z"/>
	<path class="st5" d="M163.1,222.9h4.4v21.5c0,6.2,3.4,8.9,8.4,8.9s8.3-2.7,8.3-8.9v-21.5h4.4v21.5c0,8.8-5.8,12.9-12.8,12.9
		s-12.8-4-12.8-12.9v-21.5H163.1z"/>
	<path class="st5" d="M200.6,241.4v15.5h-4.4v-34h4.4v15.8l14-15.8h5.6l-15.4,17l15.6,17h-5.8L200.6,241.4z"/>
	<path class="st5" d="M223.3,222.9h23v3.6H237v30.4h-4.4v-30.4h-9.3V222.9z"/>
	<path class="st5" d="M262.7,242.7h-6.5v14.2h-4.4v-34h11c8,0,11.8,4.4,11.8,10C274.5,238,271.2,242.7,262.7,242.7z M262.7,239
		c5.1,0,7.2-2.4,7.2-6.2c0-4-2.1-6.3-7.2-6.3h-6.5V239H262.7z"/>
	<path class="st5" d="M300.1,249.3h-14.8l-2.7,7.6h-4.7l12.3-33.8h5.1l12.2,33.8h-4.7L300.1,249.3z M292.7,228.5l-6.1,17.2h12.3
		L292.7,228.5z"/>
	<path class="st5" d="M323.8,222.9c8,0,11.8,4.4,11.8,10c0,4.3-2.4,8.5-8.1,9.8l8.5,14.2h-5.3l-8.1-13.9h-5.4v13.9h-4.4v-34H323.8z
		 M323.8,226.5h-6.5v12.9h6.5c5,0,7.2-2.7,7.2-6.5C331.1,229,328.9,226.5,323.8,226.5z"/>
	<path class="st5" d="M340.4,222.9h23v3.6h-9.3v30.4h-4.4v-30.4h-9.3L340.4,222.9L340.4,222.9z"/>
	<path class="st5" d="M395.6,222.8v34h-4.4l-17.9-27.1v27.1h-4.4v-34h4.4l17.9,27v-27L395.6,222.8L395.6,222.8z"/>
	<path class="st5" d="M421.5,226.5h-13.9v11.4H420v3.7h-12.4v11.7h13.9v3.7h-18.3v-34h18.3V226.5z"/>
	<path class="st5" d="M439.2,222.9c8,0,11.8,4.4,11.8,10c0,4.3-2.4,8.5-8.1,9.8l8.5,14.2h-5.3L438,243h-5.4v13.9h-4.4v-34H439.2z
		 M439.2,226.5h-6.5v12.9h6.5c5,0,7.2-2.7,7.2-6.5C446.4,229,444.3,226.5,439.2,226.5z"/>
</g>
<g>
	<path class="st3" d="M42,242.7h-6v13.5h-5.4V223H42c7.9,0,11.7,4.5,11.7,9.9C53.8,237.6,50.7,242.7,42,242.7z M42,238.3
		c4.3,0,6.2-2.1,6.2-5.4c0-3.4-1.9-5.4-6.2-5.4h-6v10.8H42z"/>
	<path class="st3" d="M70.5,223c7.9,0,11.7,4.5,11.7,9.9c0,3.9-2.1,8.1-7.7,9.5l8.2,13.8h-6.5l-7.6-13.3h-4.2v13.3H59V223H70.5z
		 M70.5,227.5h-6v11.1h6c4.3,0,6.2-2.3,6.2-5.6C76.6,229.6,74.7,227.5,70.5,227.5z"/>
	<path class="st3" d="M104.3,256.5c-9.4,0-17-7-17-17c0-9.9,7.6-17,17-17c9.5,0,17,7,17,17C121.3,249.5,113.8,256.5,104.3,256.5z
		 M104.3,251.8c6.6,0,11.4-4.8,11.4-12.3c0-7.5-4.8-12.2-11.4-12.2c-6.6,0-11.4,4.7-11.4,12.2C93,247,97.7,251.8,104.3,251.8z"/>
	<path class="st3" d="M155.1,239.7c0,10.2-7,16.5-17.6,16.5h-10.8V223h10.8C148.1,223,155.1,229.5,155.1,239.7z M137.5,251.8
		c7.8,0,12-4.5,12-12c0-7.6-4.2-12.3-12-12.3h-5.4v24.3H137.5z"/>
	<path class="st3" d="M160.4,223h5.4v21.2c0,5.2,2.9,7.6,7.5,7.6c4.6,0,7.5-2.4,7.5-7.6V223h5.4v21.1c0,8.5-6.1,12.5-13,12.5
		c-7,0-12.9-4-12.9-12.5V223z"/>
	<path class="st3" d="M198.9,241.4v14.9h-5.4V223h5.4v15.1l12.9-15.1h6.8l-14.4,16.6l14.7,16.6h-7.1L198.9,241.4z"/>
	<path class="st3" d="M221.9,223h23.2v4.4h-8.8v28.8h-5.4v-28.8h-8.9V223z"/>
	<path class="st3" d="M262.1,242.7h-6v13.5h-5.4V223h11.5c7.9,0,11.7,4.5,11.7,9.9C273.8,237.6,270.7,242.7,262.1,242.7z
		 M262.1,238.3c4.3,0,6.2-2.1,6.2-5.4c0-3.4-1.9-5.4-6.2-5.4h-6v10.8H262.1z"/>
	<path class="st3" d="M299,249.4h-13.9l-2.4,6.8h-5.7L289,223h6.3l11.9,33.2h-5.7L299,249.4z M292.1,229.6l-5.4,15.4h10.8
		L292.1,229.6z"/>
	<path class="st3" d="M323.8,223c7.9,0,11.7,4.5,11.7,9.9c0,3.9-2.1,8.1-7.7,9.5l8.2,13.8h-6.5l-7.6-13.3h-4.2v13.3h-5.4V223H323.8z
		 M323.8,227.5h-6v11.1h6c4.3,0,6.2-2.3,6.2-5.6C329.9,229.6,328,227.5,323.8,227.5z"/>
	<path class="st3" d="M340.8,223h23.2v4.4h-8.8v28.8h-5.4v-28.8h-8.9V223z"/>
	<path class="st3" d="M396.7,223v33.2h-5.4l-16.4-24.8v24.8h-5.4V223h5.4l16.4,24.7V223H396.7z"/>
	<path class="st3" d="M422.2,227.4h-12.9v9.7h11.5v4.4h-11.5v10.2h12.9v4.4h-18.3V223h18.3V227.4z"/>
	<path class="st3" d="M440.3,223c7.9,0,11.7,4.5,11.7,9.9c0,3.9-2.1,8.1-7.7,9.5l8.2,13.8h-6.5l-7.6-13.3h-4.2v13.3h-5.4V223H440.3z
		 M440.3,227.5h-6v11.1h6c4.3,0,6.2-2.3,6.2-5.6C446.5,229.6,444.6,227.5,440.3,227.5z"/>
</g>
<text transform="matrix(1 0 0 1 31.2353 347.2629)" style="display:none;fill:#125FAF; font-family:'Poppins-Medium'; font-size:47.7588px;">PRODUKTPARTNER</text>
</svg>
