<?xml version="1.0" encoding="utf-8"?>
<!-- Generator: Adobe Illustrator 24.3.0, SVG Export Plug-In . SVG Version: 6.00 Build 0)  -->
<svg version="1.1" xmlns="http://www.w3.org/2000/svg" xmlns:xlink="http://www.w3.org/1999/xlink" x="0px" y="0px"
	 viewBox="0 0 500 227" style="enable-background:new 0 0 500 227;" xml:space="preserve">
<style type="text/css">
	.st0{fill-rule:evenodd;clip-rule:evenodd;fill:#FFFFFF;}
	.st1{fill:#184298;}
	.st2{fill-rule:evenodd;clip-rule:evenodd;fill:#00ADEF;}
	.st3{fill-rule:evenodd;clip-rule:evenodd;fill:#184297;}
	
		.st4{clip-path:url(#SVGID_4_);fill-rule:evenodd;clip-rule:evenodd;fill:none;stroke:#184297;stroke-width:0.216;stroke-miterlimit:2.6131;}
	
		.st5{clip-path:url(#SVGID_8_);fill-rule:evenodd;clip-rule:evenodd;fill:none;stroke:#184297;stroke-width:0.216;stroke-miterlimit:2.6131;}
</style>
<g id="Layer_2">
	<path class="st0" d="M481.4,226.9h-464c-9.9,0-18-8.1-18-18V17.4c0-9.9,8.1-18,18-18h464c9.9,0,18,8.1,18,18v191.5
		C499.4,218.9,491.4,226.9,481.4,226.9z"/>
</g>
<g id="Layer_1">
	<g>
		<path class="st1" d="M180.8,167.1h4v15.1l15.4-15.1h5.2l-12.8,12.2l13.3,18.1h-5.1l-10.9-15.3l-5,4.7v10.6h-4V167.1z"/>
		<path class="st1" d="M233,186.4c0,7.6-4.4,11.7-11.9,11.7c-7.8,0-12.4-3.6-12.4-11.7v-19.3h4v19.3c0,5.3,3.1,8.3,8.4,8.3
			c5.1,0,7.9-2.9,7.9-8.3v-19.3h4V186.4z"/>
		<path class="st1" d="M239.2,167.1h4.3l15.9,24.6h0.1v-24.6h3.8v30.3H259l-15.8-24.3h-0.1v24.3h-3.8V167.1z"/>
		<path class="st1" d="M269.7,167.1h10.4c9.3,0,14.5,4.7,14.5,14.4c0,10.1-4.5,15.9-14.5,15.9h-10.4V167.1z M273.7,194h6.7
			c2.8,0,10.2-0.8,10.2-11.9c0-7.2-2.7-11.6-10.1-11.6h-6.8V194z"/>
		<path class="st1" d="M299.3,167.1h20.9v3.4h-16.9v9.6h15.7v3.4h-15.7V194h17v3.4h-21V167.1z"/>
	</g>
	<g>
		<path class="st3" d="M263.4,75.5c-0.2,3.2-4.6,5.2-5.4,10.5c-0.1,0.4-0.1,0.7-0.1,1.1c0.8,4,1.8,8,3.1,11.8
			c2.3-1.5,4.2-3.5,6.7-4.6c1.1,1.6,1.7,2,3,3.5c1,1.2,1.9,2.6,3.3,3.4c-0.5-2.3-2.8-9.5-4-11.2c-2.6-4-3.2-7.5-3.8-11.4
			C265.1,77.6,264.2,76.6,263.4,75.5z"/>
		<path class="st3" d="M292.2,75.7c0.3,3.1,4.6,5.1,5.4,10.2c0.7,4.6-1,9.4-1.6,13.7c-3-1.5-5.1-4-8-5.4c-1.1,1.6-1.7,2-3,3.5
			c-1,1.2-1.9,2.6-3.3,3.4c0.5-2.3,2.8-9.5,4-11.2c2.6-4,3.2-7.4,3.8-11.2C290.5,77.9,291.4,76.8,292.2,75.7z"/>
		<path class="st3" d="M281.6,71.1c0.5-0.3,1-0.1,1.3,0.3c0.3,0.5,0.1,1-0.3,1.3c-0.7,0.4-1.4,0.7-2.2,0.9c-0.8,0.2-1.6,0.3-2.4,0.3
			c-0.8,0-1.6-0.1-2.4-0.3c-0.8-0.2-1.5-0.5-2.2-0.9c-0.5-0.3-0.6-0.8-0.3-1.3c0.3-0.5,0.8-0.6,1.3-0.3c0.5,0.3,1.1,0.6,1.8,0.7
			c0.6,0.2,1.2,0.2,1.9,0.2c0.6,0,1.3-0.1,1.9-0.2C280.4,71.6,281,71.4,281.6,71.1z"/>
		<path class="st3" d="M280.4,66.7c-0.5,0.9-1.4,1.4-2.4,1.4c-1.1,0-2-0.6-2.4-1.4H280.4z"/>
		<path class="st3" d="M270.2,60.9c1.2,0,2.2-1,2.2-2.2c0-1.2-1-2.2-2.2-2.2s-2.2,1-2.2,2.2C267.9,59.9,268.9,60.9,270.2,60.9z"/>
		<path class="st3" d="M267.4,51.7h5.9c0.4,0,0.8,0.4,0.8,0.8l0,0c0,0.4-0.4,0.8-0.8,0.8h-5.9c-0.4,0-0.8-0.4-0.8-0.8l0,0
			C266.7,52.1,267,51.7,267.4,51.7z"/>
		<path class="st3" d="M286.4,60.9c1.2,0,2.2-1,2.2-2.2c0-1.2-1-2.2-2.2-2.2c-1.2,0-2.2,1-2.2,2.2C284.1,59.9,285.1,60.9,286.4,60.9
			z"/>
		<path class="st3" d="M289.1,51.7h-5.9c-0.4,0-0.8,0.4-0.8,0.8l0,0c0,0.4,0.4,0.8,0.8,0.8h5.9c0.4,0,0.8-0.4,0.8-0.8l0,0
			C289.9,52.1,289.5,51.7,289.1,51.7z"/>
		<path class="st3" d="M292.9,29.8c-3.6-3.8-8.6-6.1-14.1-6.1c-2.7,0-5.4,0.6-7.7,1.6c-2.5,1.1-4.7,2.7-6.6,4.7l-0.3,0.2
			c-2.5,0.7-4.6,2.4-6.1,4.7c-1.5,2.2-2.4,5-2.4,8.1c0,1.9,0.3,3.6,0.9,5.3c0.5,1.4,1.3,2.8,2.2,3.9c1.7-1.4,3.3-2.9,4.7-4.8
			c1.6-2.1,3-4.6,4.1-7.5l0.5-1.3l0.8,1.1c1.9,2.7,4.1,4.8,6.6,6.3c1.7,1,3.5,1.8,5.5,2.4c-1.2-1.2-2.1-2.3-2.8-3.4
			c-1.1-1.7-1.6-3.4-1.7-5l1.3-0.5c1.5,2.1,3.2,4,5.1,5.6c1.3,1.1,2.8,2.1,4.3,2.9c-0.5-0.9-0.9-1.8-1.1-2.7
			c-0.4-1.6-0.5-3.1-0.3-4.6l1.4-0.1c1.1,2.8,2.7,5.6,4.6,7.6c1.5,1.6,3.3,2.7,5,2.8c0.5-0.5,1-1.2,1.3-2.1c0.4-1,0.6-2.3,0.6-4
			C298.8,38.9,296.5,33.6,292.9,29.8z"/>
		<path class="st3" d="M278.8,22.3c5.9,0,11.3,2.5,15.2,6.6c3.9,4,6.3,9.6,6.3,15.8c0,1.8-0.2,3.3-0.7,4.5c-0.4,1.2-1.1,2.2-1.9,2.9
			l-0.5,0.2c-2.2-0.1-4.4-1.3-6.2-3.3c-1.3-1.4-2.6-3.1-3.6-5c0,0.3,0.1,0.5,0.2,0.8c0.3,1.2,0.9,2.4,1.8,3.6c0.7,1,0.1,1.9-1.2,1.4
			c-2.2-1-4.3-2.2-6.1-3.7c-1.1-0.9-2.1-1.9-3.1-3c0.2,0.3,0.3,0.7,0.5,1c0.9,1.4,2.1,2.9,4,4.4c0.9,0.8,0.4,1.8-0.8,1.6
			c-2.8-0.6-5.5-1.6-7.9-3c-2.3-1.4-4.4-3.3-6.3-5.6c-1.1,2.6-2.4,4.8-3.8,6.7c-1.7,2.2-3.5,4-5.5,5.5l-0.5,0.4l-0.4-0.5
			c-1.3-1.4-2.3-3-3-4.8c-0.7-1.8-1-3.7-1-5.8c0-3.3,1-6.4,2.6-8.9c1.7-2.5,4-4.3,6.7-5.2c2-2.1,4.3-3.7,6.9-4.9
			C273,22.9,275.8,22.3,278.8,22.3z"/>
		<path class="st3" d="M257.1,56.3c-0.4,0.1-0.8,0.5-1,1.2c-0.3,0.9-0.4,2.2-0.2,3.5c0.2,1.3,0.7,2.5,1.3,3.3
			c0.5,0.6,0.9,0.9,1.3,0.9c0.1,0,0.1,0,0.2-0.1c-0.3-1.3-0.6-2.6-0.8-4c-0.2-1.6-0.3-3.2-0.3-4.8l0,0l-0.1,0
			C257.3,56.3,257.2,56.3,257.1,56.3L257.1,56.3z M254,56.8c0.5-1.5,1.5-2.4,2.7-2.6c0.5-0.1,0.9,0,1.4,0.1c0.4,0.1,0.8,0.4,1.2,0.7
			l0.4,0.3l0,1.1c0,1.5,0.1,3.1,0.3,4.5c0.2,1.5,0.5,2.9,0.9,4.3l0.1,0.5l-0.4,0.4c-0.3,0.3-0.5,0.6-0.9,0.8
			c-0.3,0.2-0.7,0.3-1.1,0.4c-1.3,0.2-2.5-0.5-3.4-1.7c-0.8-1.1-1.4-2.6-1.7-4.3C253.4,59.6,253.6,58,254,56.8z"/>
		<path class="st3" d="M259.8,104.4c-2.4-1-4.9-1.8-7.3-2.6c-8.7-2.7-16.7-5.2-17.1-17.1c0.5-0.4,1-0.8,1.4-1.2
			c-0.1,11.9,7.6,14.3,16.1,17c10.9,3.4,23.1,7.2,23.1,30.3v0.7h-0.7h-97.4v-0.7c0-22.7,12.2-26.8,23.2-30.5
			c7.9-2.7,15.1-5.1,15.9-14.8c0.4,0.3,0.9,0.6,1.4,0.8c-1.1,10-8.6,12.5-16.8,15.3c-2.8,1-5.7,1.9-8.5,3.3
			c12.5,6.2,24.5,10.5,35.8,11C240.1,116.4,250.5,113.2,259.8,104.4z"/>
		<path class="st2" d="M273.9,122.6L273.9,122.6c-0.8-5.2-2.5-8.9-4.8-11.6c-2.2-2.7-4.9-4.5-7.8-5.9c-9.7,9.4-20.7,12.8-32.5,12.3
			c-11.7-0.5-24.3-5.1-37.2-11.6c-0.3,0.3-0.7,0.5-1,0.8l-0.7,0.6c11.3,10.3,24.3,15.7,38.3,17.8C242.5,127,257.9,125.7,273.9,122.6
			z"/>
		<path class="st3" d="M225.8,40.8c5.5,0,10.5,2.8,14.1,7.3c3.5,4.4,5.7,10.5,5.7,17.2c0,6.7-2.2,12.8-5.7,17.2
			c-3.6,4.5-8.6,7.3-14.1,7.3c-5.5,0-10.5-2.8-14.1-7.3c-3.5-4.4-5.7-10.5-5.7-17.2c0-6.7,2.2-12.8,5.7-17.2
			C215.2,43.6,220.2,40.8,225.8,40.8L225.8,40.8z M237.5,50c-3-3.8-7.2-6.1-11.8-6.1c-4.6,0-8.7,2.4-11.8,6.1c-3.1,3.9-5,9.3-5,15.3
			s1.9,11.4,5,15.3c3,3.8,7.2,6.1,11.8,6.1c4.6,0,8.7-2.3,11.8-6.1c3.1-3.9,5-9.3,5-15.3C242.6,59.3,240.6,53.9,237.5,50z"/>
		<path class="st3" d="M227.8,74.4c-0.4,0.8-1.2,1.3-2.2,1.3c-0.9,0-1.7-0.5-2.2-1.3H227.8z"/>
		<path class="st3" d="M235.8,67.3c1.4,0,2.5-1.3,2.5-2.8s-1.1-2.8-2.5-2.8s-2.5,1.3-2.5,2.8S234.4,67.3,235.8,67.3z"/>
		<path class="st3" d="M240,56.3h-7.7c-0.4,0-0.7,0.3-0.7,0.7l0,0c0,0.4,0.3,0.7,0.7,0.7h7.7c0.4,0,0.7-0.3,0.7-0.7l0,0
			C240.7,56.6,240.4,56.3,240,56.3z"/>
		<path class="st3" d="M217.2,77.3c-0.3-0.4-0.3-1,0.1-1.3c0.4-0.3,1-0.3,1.3,0.1c0.3,0.3,0.6,0.6,0.9,0.9c1.6,1.4,3.9,2.1,6.1,2.1
			c2.2,0,4.5-0.7,6.1-2.1c0.3-0.3,0.6-0.6,0.9-0.9c0.3-0.4,0.9-0.5,1.3-0.1c0.4,0.3,0.5,0.9,0.1,1.3c-0.3,0.4-0.7,0.8-1.1,1.1
			c-2,1.7-4.7,2.5-7.3,2.5c-2.7,0-5.4-0.8-7.3-2.5C218,78,217.6,77.7,217.2,77.3z"/>
		<path class="st3" d="M217.8,67.3c1.4,0,2.5-1.3,2.5-2.8s-1.1-2.8-2.5-2.8c-1.4,0-2.5,1.3-2.5,2.8S216.4,67.3,217.8,67.3z"/>
		<path class="st3" d="M213.5,56.3h7.7c0.4,0,0.7,0.3,0.7,0.7l0,0c0,0.4-0.3,0.7-0.7,0.7h-7.7c-0.4,0-0.7-0.3-0.7-0.7l0,0
			C212.9,56.6,213.2,56.3,213.5,56.3z"/>
		<path class="st3" d="M219.7,92.4l0.6-5.2c-7.5-2.9-12.9-11.6-12.9-21.9c0-3.6,0.7-7.1,1.9-10.1c0.7-3.7,22.6-0.8,23.2-11.3
			c1.7,6.5,4.5,10,8.5,8.6c2,3.7,3.1,8.1,3.1,12.8c0,9.4-4.5,17.4-10.9,21l1,6.2c0.8,4,3.3,5.2,7.1,6.4l17.6,5.4
			c-7-17.3-7.2-36.9-9.5-55.4c-3.5-12.2-11.7-18.2-23.6-19c-11.9,0.8-20.1,6.8-23.6,19c-2.4,18.5-0.1,38.1-7.1,55.4l17.6-5.4
			C216.4,97.6,218.9,96.5,219.7,92.4z"/>
		<path class="st3" d="M277.9,29.2c5.7,0,10.8,3.1,14.5,8.1c3.6,4.9,5.9,11.6,5.9,19.1s-2.2,14.2-5.9,19.1c-3.7,5-8.8,8.1-14.5,8.1
			c-5.7,0-10.8-3.1-14.5-8.1c-3.6-4.9-5.9-11.6-5.9-19.1s2.2-14.2,5.9-19.1C267.1,32.3,272.2,29.2,277.9,29.2L277.9,29.2z
			 M290.7,38.6c-3.3-4.4-7.8-7.2-12.8-7.2c-5,0-9.5,2.7-12.8,7.2c-3.4,4.5-5.4,10.8-5.4,17.8c0,7,2.1,13.3,5.4,17.8
			c3.3,4.4,7.8,7.2,12.8,7.2c5,0,9.5-2.7,12.8-7.2c3.4-4.5,5.4-10.8,5.4-17.8C296.1,49.4,294,43.1,290.7,38.6z"/>
		<path class="st3" d="M299.1,54.1c1.3,0.2,2.2,1.2,2.7,2.6c0.5,1.2,0.6,2.9,0.4,4.6c-0.3,1.7-0.9,3.2-1.7,4.3
			c-0.9,1.2-2.1,1.9-3.4,1.7c-0.4-0.1-0.7-0.2-1.1-0.4c-0.3-0.2-0.6-0.4-0.9-0.8l-0.4-0.4l0.1-0.5c0.4-1.4,0.7-2.8,0.9-4.3
			c0.2-1.4,0.3-2.9,0.3-4.5l0-1.1l0.4-0.3c0.4-0.3,0.8-0.5,1.2-0.7C298.1,54.1,298.6,54.1,299.1,54.1L299.1,54.1z M299.8,57.5
			c-0.3-0.7-0.6-1.2-1-1.2c-0.1,0-0.2,0-0.3,0l-0.1,0l0,0c0,1.6-0.1,3.2-0.3,4.8c-0.2,1.4-0.4,2.7-0.8,4c0.1,0,0.1,0,0.2,0.1
			c0.4,0.1,0.9-0.3,1.3-0.9c0.6-0.8,1.1-1.9,1.3-3.3C300.2,59.7,300.1,58.4,299.8,57.5z"/>
		<path class="st3" d="M297.1,103c0.3-2.3,0.7-4.2,1.1-6c0.7-3.2,1.4-6.3,1.4-10.5l0-1.7l1.6,0.5c2.3,0.7,4.9,2,7.5,3.3
			c2.2,1.1,4.4,2.2,6.6,3l0.3,0.1c0.5,0.3,1.2,0.7,1.9,1.1c0.9,0.5,1.8,1,2.6,1.5c1.9,1.3,3.3,3.6,4.2,6.1c1.3,3.2,1.9,6.9,2,9.6
			c0.1,1.8,0.1,4.4,0.1,7.2c0,4.3-0.1,8.8-0.1,10.2c-0.2,4.9-2.4,4.9-6.2,4.8c-0.5,0-1,0-1.5,0c-0.9,0-1.9,0-2.8,0
			c-2.2,0-4.3,0.1-6.5-0.1l-31.5,0l0-1.3c0-1.3,0-3.5-0.1-6c-0.1-5.7-0.3-13.1,0.2-15.3c0.1-0.6,1.9-2.8,3.9-5.2
			c2.5-2.9,5.4-6.2,6-6.6l0.7-0.6L297.1,103z"/>
		<path class="st2" d="M284.9,104.6v24.8l-2.2,0v-22.2l1.2-1.4C284.2,105.4,284.5,105,284.9,104.6L284.9,104.6z M300.7,97.5
			c-0.4,1.9-0.8,3.8-1.1,5.9v26l2.2,0v-38C301.5,93.6,301.1,95.5,300.7,97.5L300.7,97.5z M296.2,105.4l-2.2-1.6v25.6l2.2,0V105.4
			L296.2,105.4z M290.5,101.4l-1.7-1.2l-0.5,0.5v28.7l2.2,0V101.4L290.5,101.4z M305.3,129.4l2.2,0V90.7c-0.7-0.4-1.5-0.7-2.2-1.1
			V129.4L305.3,129.4z M310.9,129.5c0.7,0,1.5,0,2.2,0V93.4c-0.7-0.3-1.5-0.6-2.2-1V129.5L310.9,129.5z M316.6,129.5
			c0.7,0,1.4,0,2.1,0l0.1,0v-33c-0.1-0.1-0.1-0.1-0.2-0.2c-0.6-0.4-1.3-0.8-2-1.2V129.5z"/>
		<path class="st3" d="M277.9,119.4c0.1-4.3,0-8.5-0.3-10.1c-0.1-0.6-1.9-2.8-3.9-5.2c-2.5-2.9-5.4-6.2-6-6.6L267,97l-4.9,3.5
			l0.7,0.3c3.6,1.7,7,3.9,9.9,7.4C274.9,111,276.8,114.7,277.9,119.4z"/>
		<path class="st2" d="M270.7,104.6v1.6c0.6,0.6,1.2,1.3,1.8,2c0.1,0.2,0.3,0.3,0.4,0.5v-1.5l-1.2-1.4
			C271.4,105.4,271.1,105,270.7,104.6L270.7,104.6z M265.1,101.4l1.7-1.2l0.5,0.5v2.6c-0.7-0.5-1.5-0.9-2.2-1.4V101.4z"/>
	</g>
</g>
</svg>
