<svg width="80" height="69" viewBox="0 0 80 69" fill="none" xmlns="http://www.w3.org/2000/svg">
<path fill-rule="evenodd" clip-rule="evenodd" d="M16.1518 60.4039C22.9639 58.2508 26.8289 58.9568 30.9056 59.7686C38.0001 61.1451 46.03 62.6981 74.161 46.3913C78.1142 44.0618 74.6375 38.1673 70.7373 40.4792C68.8137 41.591 67.0665 42.6499 65.3193 43.7088C52.7539 51.2445 45.1476 55.8507 27.4818 47.2031C26.1935 46.6031 27.1465 44.6441 28.4172 45.2618C32.3704 47.1678 40.1179 50.2739 44.6005 49.6209C46.6653 48.9679 47.7242 46.1089 45.1476 45.2618L32.7763 41.291C27.1642 39.4733 24.3052 40.8498 19.6284 43.1617C18.5695 43.6382 17.4224 44.2029 16.1518 44.7853V60.4039ZM8.86309 52.3034C6.99239 52.3034 5.43936 50.7504 5.43936 48.8797C5.43936 47.009 6.99239 45.456 8.86309 45.456C10.7338 45.456 12.2868 47.009 12.2868 48.8797C12.2868 50.7504 10.7338 52.3034 8.86309 52.3034ZM8.86309 47.6267C7.22182 47.6267 7.22182 50.1327 8.86309 50.1327C10.5044 50.1327 10.5044 47.6267 8.86309 47.6267ZM13.9634 44.3441C13.9281 44.2029 14.0163 43.4617 13.2928 43.4617H4.38048C4.00987 43.4617 3.6922 43.7794 3.6922 44.15V61.8334C3.6922 62.204 4.00987 62.504 4.38048 62.504H13.2928C13.6634 62.504 13.9634 62.204 13.9634 61.8334V44.3441ZM15.6929 42.6146C21.8697 39.8968 25.6464 36.7554 33.3939 39.2262L45.7829 43.2146C48.7478 44.1676 49.4008 47.2208 48.3948 49.2503C55.1364 47.8561 62.5309 42.6323 69.5549 38.5556C76.0317 34.7789 81.6085 44.5736 75.1493 48.315C31.0644 73.9047 34.9646 56.3625 15.9753 62.7687C15.5694 63.9159 14.5281 64.7453 13.2928 64.7453H4.38048C2.7745 64.7453 1.52148 63.4394 1.52148 61.8863V44.15C1.52148 42.5264 2.82744 41.291 4.38048 41.291H13.2928C14.2811 41.291 15.1811 41.8205 15.6929 42.6146Z" fill="url(#paint0_linear_1521_441)"/>
<path d="M55.8674 4.25464H33.454C32.7732 4.25587 32.1207 4.52685 31.6393 5.00821C31.1579 5.48958 30.887 6.1421 30.8857 6.82285V29.2363C30.887 29.9171 31.1579 30.5696 31.6393 31.051C32.1207 31.5323 32.7732 31.8033 33.454 31.8046H55.8674C56.5482 31.8033 57.2007 31.5323 57.6821 31.051C58.1634 30.5696 58.4344 29.9171 58.4357 29.2363V6.82285C58.4344 6.1421 58.1634 5.48958 57.6821 5.00821C57.2007 4.52685 56.5482 4.25587 55.8674 4.25464ZM57.0348 29.2363C57.0348 29.5459 56.9118 29.8429 56.6929 30.0618C56.474 30.2807 56.177 30.4037 55.8674 30.4037H33.454C33.1443 30.4037 32.8474 30.2807 32.6285 30.0618C32.4096 29.8429 32.2866 29.5459 32.2866 29.2363V6.82285C32.2866 6.51325 32.4096 6.21632 32.6285 5.9974C32.8474 5.77847 33.1443 5.65548 33.454 5.65548H39.6924V15.4614C39.6948 15.5945 39.7348 15.7242 39.8078 15.8355C39.8808 15.9468 39.9838 16.0352 40.105 16.0904C40.2261 16.1456 40.3604 16.1654 40.4924 16.1474C40.6243 16.1295 40.7484 16.0746 40.8504 15.989L44.6607 12.6737L48.471 16.0077C48.573 16.0933 48.6971 16.1482 48.8291 16.1661C48.961 16.184 49.0953 16.1643 49.2164 16.109C49.3376 16.0538 49.4406 15.9655 49.5136 15.8542C49.5866 15.7429 49.6266 15.6132 49.629 15.4801V5.65548H55.8674C56.177 5.65548 56.474 5.77847 56.6929 5.9974C56.9118 6.21632 57.0348 6.51325 57.0348 6.82285V29.2363Z" fill="url(#paint1_linear_1521_441)"/>
<path d="M53.999 23.7678H50.1467C49.961 23.7678 49.7828 23.8416 49.6514 23.973C49.5201 24.1044 49.4463 24.2825 49.4463 24.4682C49.4463 24.654 49.5201 24.8322 49.6514 24.9635C49.7828 25.0949 49.961 25.1687 50.1467 25.1687H53.999C54.1848 25.1687 54.363 25.0949 54.4943 24.9635C54.6257 24.8322 54.6995 24.654 54.6995 24.4682C54.6995 24.2825 54.6257 24.1044 54.4943 23.973C54.363 23.8416 54.1848 23.7678 53.999 23.7678Z" fill="url(#paint2_linear_1521_441)"/>
<path d="M53.999 26.6697H50.1467C49.961 26.6697 49.7828 26.7435 49.6514 26.8748C49.5201 27.0062 49.4463 27.1843 49.4463 27.3701C49.4463 27.5559 49.5201 27.734 49.6514 27.8654C49.7828 27.9967 49.961 28.0705 50.1467 28.0705H53.999C54.1848 28.0705 54.363 27.9967 54.4943 27.8654C54.6257 27.734 54.6995 27.5559 54.6995 27.3701C54.6995 27.1843 54.6257 27.0062 54.4943 26.8748C54.363 26.7435 54.1848 26.6697 53.999 26.6697Z" fill="url(#paint3_linear_1521_441)"/>
<path d="M45.9797 26.4241C45.6191 26.712 44.9583 27.0775 44.477 27.0435C44.0008 27.01 44.0919 26.5559 44.1863 26.199L44.9843 23.1819C45.0759 22.8355 45.0264 22.4669 44.8466 22.157C44.6669 21.847 44.3715 21.621 44.0254 21.5285C43.6792 21.436 43.3105 21.4846 43.0001 21.6636C42.6897 21.8425 42.4629 22.1373 42.3696 22.4832C42.2531 22.9147 41.3207 26.7624 41.315 26.7865C41.1846 27.3332 41.0287 28.0319 41.2691 28.5707C41.6337 29.3881 42.7413 29.1507 43.4142 28.9561C43.8764 28.8244 44.3188 28.6312 44.7295 28.3816C45.2005 28.0603 45.6481 27.7061 46.069 27.3216L45.9797 26.4241Z" fill="url(#paint4_linear_1521_441)"/>
<path d="M44.7987 16.5278C43.7957 16.4649 42.7981 17.3666 42.759 18.3998C42.7468 18.7059 42.8261 19.0087 42.9866 19.2696C43.6093 20.2772 45.04 20.0577 45.8134 19.3623C46.8342 18.4444 46.1505 16.6125 44.7987 16.5278Z" fill="url(#paint5_linear_1521_441)"/>
<defs>
<linearGradient id="paint0_linear_1521_441" x1="39.77" y1="37.7043" x2="39.77" y2="64.7453" gradientUnits="userSpaceOnUse">
<stop stop-color="#1450A4"/>
<stop offset="1" stop-color="#039EE4"/>
</linearGradient>
<linearGradient id="paint1_linear_1521_441" x1="44.6607" y1="4.25464" x2="44.6607" y2="31.8046" gradientUnits="userSpaceOnUse">
<stop stop-color="#1450A4"/>
<stop offset="1" stop-color="#039EE4"/>
</linearGradient>
<linearGradient id="paint2_linear_1521_441" x1="52.0729" y1="23.7678" x2="52.0729" y2="25.1687" gradientUnits="userSpaceOnUse">
<stop stop-color="#1450A4"/>
<stop offset="1" stop-color="#039EE4"/>
</linearGradient>
<linearGradient id="paint3_linear_1521_441" x1="52.0729" y1="26.6697" x2="52.0729" y2="28.0705" gradientUnits="userSpaceOnUse">
<stop stop-color="#1450A4"/>
<stop offset="1" stop-color="#039EE4"/>
</linearGradient>
<linearGradient id="paint4_linear_1521_441" x1="43.6063" y1="21.4827" x2="43.6063" y2="29.145" gradientUnits="userSpaceOnUse">
<stop stop-color="#1450A4"/>
<stop offset="1" stop-color="#039EE4"/>
</linearGradient>
<linearGradient id="paint5_linear_1521_441" x1="44.5311" y1="16.5247" x2="44.5311" y2="19.9554" gradientUnits="userSpaceOnUse">
<stop stop-color="#1450A4"/>
<stop offset="1" stop-color="#039EE4"/>
</linearGradient>
</defs>
</svg>
