<svg width="129" height="102" viewBox="0 0 129 102" fill="none" xmlns="http://www.w3.org/2000/svg">
<path fill-rule="evenodd" clip-rule="evenodd" d="M24.9957 94.3942C36.3465 90.8067 42.7864 91.983 49.5792 93.3356C61.4004 95.6293 74.7801 98.217 121.653 71.0459C128.24 67.1643 122.447 57.3427 115.949 61.1949C112.743 63.0474 109.832 64.8118 106.921 66.5762C85.9838 79.1325 73.3098 86.8075 43.8744 72.3986C41.7278 71.3987 43.3157 68.1347 45.4329 69.1639C52.0199 72.3397 64.9291 77.5152 72.3982 76.4272C75.8387 75.3392 77.6031 70.5754 73.3098 69.1639L52.6962 62.5475C43.3451 59.5187 38.5813 61.8124 30.7887 65.6646C29.0244 66.4585 27.113 67.3995 24.9957 68.3699V94.3942ZM12.8511 80.8969C9.73403 80.8969 7.1463 78.3092 7.1463 75.1921C7.1463 72.0751 9.73403 69.4874 12.8511 69.4874C15.9681 69.4874 18.5558 72.0751 18.5558 75.1921C18.5558 78.3092 15.9681 80.8969 12.8511 80.8969ZM12.8511 73.1043C10.1163 73.1043 10.1163 77.2799 12.8511 77.2799C15.5858 77.2799 15.5858 73.1043 12.8511 73.1043ZM21.3494 67.6348C21.2906 67.3995 21.4376 66.1645 20.232 66.1645H5.38194C4.76441 66.1645 4.2351 66.6938 4.2351 67.3113V96.7761C4.2351 97.3937 4.76441 97.8936 5.38194 97.8936H20.232C20.8495 97.8936 21.3494 97.3937 21.3494 96.7761V67.6348ZM24.2312 64.753C34.5233 60.2245 40.8162 54.9902 53.7254 59.107L74.3684 65.7528C79.3086 67.3407 80.3967 72.428 78.7205 75.8097C89.9536 73.4866 102.275 64.7824 113.978 57.9896C124.77 51.6967 134.063 68.0171 123.3 74.2511C49.8438 116.89 56.3425 87.6603 24.7017 98.3347C24.0253 100.246 22.2904 101.628 20.232 101.628H5.38194C2.70599 101.628 0.618164 99.4521 0.618164 96.8644V67.3113C0.618164 64.606 2.79421 62.5475 5.38194 62.5475H20.232C21.8787 62.5475 23.3784 63.4297 24.2312 64.753Z" fill="white"/>
<path d="M91.169 0.835938H53.8227C52.6884 0.837992 51.6012 1.2895 50.7991 2.09158C49.997 2.89365 49.5455 3.9809 49.5435 5.1152V42.4615C49.5455 43.5958 49.997 44.6831 50.7991 45.4852C51.6012 46.2872 52.6884 46.7388 53.8227 46.7408H91.169C92.3034 46.7388 93.3906 46.2872 94.1927 45.4852C94.9947 44.6831 95.4463 43.5958 95.4483 42.4615V5.1152C95.4463 3.9809 94.9947 2.89365 94.1927 2.09158C93.3906 1.2895 92.3034 0.837992 91.169 0.835938ZM93.1142 42.4615C93.1142 42.9774 92.9092 43.4721 92.5445 43.837C92.1797 44.2017 91.6849 44.4066 91.169 44.4066H53.8227C53.3068 44.4066 52.8121 44.2017 52.4473 43.837C52.0825 43.4721 51.8776 42.9774 51.8776 42.4615V5.1152C51.8776 4.59933 52.0825 4.10457 52.4473 3.73979C52.8121 3.37501 53.3068 3.17008 53.8227 3.17008H64.2175V19.5091C64.2214 19.7309 64.2881 19.947 64.4098 20.1325C64.5315 20.318 64.7031 20.4652 64.905 20.5571C65.1068 20.6492 65.3306 20.6821 65.5504 20.6522C65.7702 20.6223 65.977 20.5308 66.147 20.3883L72.4959 14.8642L78.8448 20.4194C79.0148 20.562 79.2216 20.6535 79.4414 20.6833C79.6612 20.7132 79.8849 20.6803 80.0868 20.5883C80.2887 20.4963 80.4603 20.3491 80.582 20.1636C80.7037 19.9781 80.7704 19.762 80.7743 19.5402V3.17008H91.169C91.6849 3.17008 92.1797 3.37501 92.5445 3.73979C92.9092 4.10457 93.1142 4.59933 93.1142 5.1152V42.4615Z" fill="white"/>
<path d="M88.0577 33.3496H81.6388C81.3292 33.3496 81.0323 33.4726 80.8135 33.6915C80.5946 33.9103 80.4717 34.2072 80.4717 34.5167C80.4717 34.8263 80.5946 35.1231 80.8135 35.342C81.0323 35.5608 81.3292 35.6838 81.6388 35.6838H88.0577C88.3672 35.6838 88.6641 35.5608 88.8829 35.342C89.1018 35.1231 89.2247 34.8263 89.2247 34.5167C89.2247 34.2072 89.1018 33.9103 88.8829 33.6915C88.6641 33.4726 88.3672 33.3496 88.0577 33.3496Z" fill="white"/>
<path d="M88.0577 38.1846H81.6388C81.3292 38.1846 81.0323 38.3075 80.8135 38.5264C80.5946 38.7452 80.4717 39.0421 80.4717 39.3516C80.4717 39.6612 80.5946 39.9581 80.8135 40.1769C81.0323 40.3958 81.3292 40.5187 81.6388 40.5187H88.0577C88.3672 40.5187 88.6641 40.3958 88.8829 40.1769C89.1018 39.9581 89.2247 39.6612 89.2247 39.3516C89.2247 39.0421 89.1018 38.7452 88.8829 38.5264C88.6641 38.3075 88.3672 38.1846 88.0577 38.1846Z" fill="white"/>
<path d="M74.6978 37.7757C74.097 38.2553 72.996 38.8643 72.1939 38.8077C71.4004 38.7518 71.5524 37.9952 71.7096 37.4006L73.0392 32.3734C73.1918 31.7962 73.1094 31.182 72.8099 30.6656C72.5103 30.1491 72.0182 29.7726 71.4415 29.6184C70.8647 29.4643 70.2503 29.5452 69.7331 29.8434C69.2159 30.1416 68.8381 30.6328 68.6825 31.2092C68.4883 31.9281 66.9349 38.3394 66.9253 38.3795C66.708 39.2904 66.4482 40.4546 66.8488 41.3524C67.4564 42.7143 69.3018 42.3188 70.423 41.9946C71.1932 41.7751 71.9303 41.4531 72.6147 41.0373C73.3994 40.502 74.1453 39.9117 74.8466 39.271L74.6978 37.7757Z" fill="white"/>
<path d="M72.7299 21.2864C71.0587 21.1817 69.3964 22.6841 69.3314 24.4057C69.311 24.9157 69.4431 25.4202 69.7106 25.8549C70.7482 27.5338 73.1319 27.1682 74.4207 26.0094C76.1216 24.48 74.9824 21.4276 72.7299 21.2864Z" fill="white"/>
</svg>
