<?xml version="1.0" encoding="utf-8"?>
<!-- Generator: Adobe Illustrator 23.0.1, SVG Export Plug-In . SVG Version: 6.00 Build 0)  -->
<!DOCTYPE svg PUBLIC "-//W3C//DTD SVG 1.1//EN" "http://www.w3.org/Graphics/SVG/1.1/DTD/svg11.dtd" [
	<!ENTITY ns_extend "http://ns.adobe.com/Extensibility/1.0/">
	<!ENTITY ns_ai "http://ns.adobe.com/AdobeIllustrator/10.0/">
	<!ENTITY ns_graphs "http://ns.adobe.com/Graphs/1.0/">
	<!ENTITY ns_vars "http://ns.adobe.com/Variables/1.0/">
	<!ENTITY ns_imrep "http://ns.adobe.com/ImageReplacement/1.0/">
	<!ENTITY ns_sfw "http://ns.adobe.com/SaveForWeb/1.0/">
	<!ENTITY ns_custom "http://ns.adobe.com/GenericCustomNamespace/1.0/">
	<!ENTITY ns_adobe_xpath "http://ns.adobe.com/XPath/1.0/">
]>
<svg version="1.1" id="Layer_1" xmlns:x="&ns_extend;" xmlns:i="&ns_ai;" xmlns:graph="&ns_graphs;"
	 xmlns="http://www.w3.org/2000/svg" xmlns:xlink="http://www.w3.org/1999/xlink" x="0px" y="0px" viewBox="0 0 1000 157.2"
	 style="enable-background:new 0 0 1000 157.2;" xml:space="preserve">
<style type="text/css">
	.st0{fill:#2F3134;}
	.st1{fill:#2F3135;}
	.st2{fill:#1D4795;}
	.st3{fill:#1D4695;}
</style>
<metadata>
	<sfw  xmlns="&ns_sfw;">
		<slices></slices>
		<sliceSourceBounds  bottomLeftOrigin="true" height="130.6" width="971.8" x="18.5" y="-141.1"></sliceSourceBounds>
	</sfw>
</metadata>
<path class="st0" d="M858.6,77.8c0,13.3-0.1,25,0.1,36.6c0.1,3.4-0.5,5-4.4,4.7c-5.3-0.4-12.4,1.7-15.5-1
	c-3.6-3.1-1.1-10.4-1.1-15.8c-0.1-18,0-35.9-0.1-53.9c0-3.6,0.7-4.6,4.6-5.1c12.1-1.7,19.8,2.4,25.3,13.6
	c4.7,9.6,11.5,18.2,18.3,28.6c0-13.2,0.2-24.9-0.1-36.5c-0.1-4.2,0.8-5.9,5.3-5.5c5.1,0.5,12-1.7,15,0.9c3.5,3,1.1,10.1,1.1,15.4
	c0.1,18.3,0,36.6,0.1,55c0,3.3-0.8,4.1-4.2,4.5c-12.2,1.6-20.7-1.7-26.3-13.6C872.1,96.2,865.3,87.9,858.6,77.8z"/>
<path class="st0" d="M970.6,91.1c-5.7,0-10.9,0-16,0c-1,0-2.6,0.4-3-0.1c-3.4-3.8-0.7-8.4-1.5-12.6c-0.5-2.4,1-2.8,3.1-2.8
	c11.1,0.1,22.1,0,33.2,0c1.4,0,2.5-0.1,3,1.9c3.2,14.7-1.6,27.5-13.8,35.7c-12.2,8.2-31.1,8.4-43.6,0.3
	c-12.2-7.9-18.4-23.8-15.8-39.6c5.5-33.4,41.4-37.2,59.8-25.2c6,3.9,9.8,9.5,11.9,16.4c0.8,2.7,0.2,3.4-2.4,3.3
	c-5.5-0.1-11.1-0.1-16.6,0c-1.9,0-3.1-0.6-4.5-1.9c-8.8-8-22.1-4.4-25.9,6.9c-4,11.9,0.8,23.5,11,26.4
	C958.4,102.6,966.1,99.5,970.6,91.1z"/>
<path class="st0" d="M343.2,91.1c-6.1,0-11.6-0.1-17.1,0c-2.6,0.1-3.5-0.5-3.6-3.4c-0.4-12.1-0.5-12.1,11.6-12.1
	c8,0,15.9,0.1,23.9-0.1c2.9-0.1,4,0.6,3.8,3.7c-0.3,5,0.1,10-0.1,15c-0.3,6.6-4.6,11.1-9,15.2c-11.7,11.2-31.8,13.4-46.3,5.4
	c-13.4-7.4-20.7-24.1-17.9-40.5c2.6-15.1,10.5-25.9,25.6-30c14.4-3.8,28.1-2.2,39.4,8.9c3.4,3.4,5.3,7.6,6.8,12.1
	c0.7,2.1,0.3,3.2-2.3,3.1c-5.9-0.1-11.8-0.1-17.6,0c-1.5,0-2.5-0.7-3.5-1.7c-9.2-8.4-23-4.7-26.2,7.4c-3.7,14,1.9,27.5,19,26.3
	C335.3,100.2,339.2,97.8,343.2,91.1z"/>
<path class="st0" d="M762.1,69.3c0-7.3,0.1-14.5-0.1-21.8c-0.1-3,0.5-4.4,3.9-4.1c4.3,0.3,8.6,0.3,12.9,0c3.2-0.2,4.1,0.8,4.1,4
	c-0.2,13.3-0.2,26.6,0,39.9c0.1,8.8,4.3,12.9,12.3,12.4c5.3-0.3,8.4-3.1,9.7-8.4c1-4.3,0.5-8.6,0.6-12.9c0.1-10.4,0.1-20.7,0-31.1
	c0-2.8,0.6-4,3.7-3.9c4.5,0.3,9,0.3,13.5,0c3.3-0.2,4,1,4,4.1c-0.2,13.5,0,26.9-0.1,40.4c-0.1,21.9-16.4,33.9-37,31.7
	c-17.6-1.9-27.2-13.4-27.3-31.1C762.1,82.1,762.1,75.7,762.1,69.3z"/>
<path class="st0" d="M446.6,66.1c-2.2,0-4.5-0.1-6.7,0c-2.6,0.2-4.3-0.2-5.2-3.3c-0.9-3-3.8-3.8-6.8-3.5c-1.9,0.2-3.6,1.1-4,3.4
	c-0.6,3.2,0.7,5.4,3.5,6.7c3,1.4,6,2.6,9,3.9c3,1.2,6.2,2.2,9.1,3.5c10.4,4.8,14.3,11.2,13.7,21.9c-0.6,8.7-6.8,16.3-16.4,19.2
	c-10.5,3.2-20.8,2.5-30.5-2.9c-6.1-3.4-9.5-8.8-11-15.6c-0.6-2.7-0.4-4.6,3.4-4.3c3.9,0.3,7.9,0.1,11.9,0.1c3.4,0,7-0.9,8.2,4.3
	c0.8,3.2,4.4,3.3,7.5,2.9c2.6-0.3,4.2-1.9,4.5-4.3c0.4-3.2-1.6-5.2-4.3-6.3c-6.1-2.5-12.3-4.5-18.2-7.2
	c-11.4-5.3-15.8-15.2-12.1-26.8c1.9-6.2,6.1-10.3,12-12.7c10.2-4.2,20.5-4.1,30.7,0.1c7.2,3,11.4,8.7,13.1,16.2
	c0.7,2.9,0.5,5.1-3.6,4.5C451.8,65.8,449.2,66.1,446.6,66.1z"/>
<path class="st1" d="M634.6,81.2c0-11.2,0.1-22.5-0.1-33.7c-0.1-3.2,0.8-4.1,4-4.1c13.3,0.2,26.6,0.2,39.9,0c3.1,0,4.1,0.8,4.1,4
	c0.2,13.3,0.3,13.3-13,13.3c-2.1,0-4.1,0-6.2,0c-7.1,0-9.5,3.5-7.4,10.4c0.6,2.1,2.1,1.4,3.3,1.5c5.4,0.1,10.7,0.2,16.1,0
	c3.1-0.1,4.1,0.6,4.2,3.9c0.1,12.5,0.3,12.5-12.1,12.5c-1.7,0-3.5,0.3-5.2,0c-5.4-1-6.4,1.3-6.4,6.4c-0.1,5.4,1.4,7.2,6.8,6.7
	c5.3-0.5,10.7,0,16-0.2c2.8-0.1,3.9,0.5,4,3.7c0.4,13.6,0.5,13.6-13.1,13.6c-10.2,0-20.4-0.1-30.6,0.1c-3.3,0.1-4.5-0.7-4.4-4.3
	C634.8,103.6,634.6,92.4,634.6,81.2z"/>
<path class="st0" d="M232.7,80.7c0-11.1,0.1-22.1-0.1-33.2c0-3,0.6-4.2,4-4.2c13.5,0.2,27,0.2,40.4,0c3,0,3.7,0.9,3.7,3.8
	c0.2,13.5,0.3,13.5-13.2,13.5c-2.6,0-5.2,0.3-7.8-0.1c-4.8-0.7-6.4,0.8-6.4,6c0,5.1,1.3,6.6,6.3,6c4.4-0.5,9,0.2,13.5-0.2
	c3.8-0.3,4.5,1.2,4.4,4.7c-0.1,11.8,0,11.8-11.7,11.8c-1,0-2.1,0-3.1,0c-10,0-9.9,0-9.2,10.1c0.2,2.4,1,2.8,3.1,2.8
	c6.7-0.1,13.5,0.1,20.2-0.1c2.9-0.1,3.8,0.7,3.8,3.7c0.3,13.5,0.4,13.5-13.1,13.5c-10,0-20.1-0.2-30.1,0.1c-4.3,0.2-5.1-1.3-5-5.2
	C232.9,102.8,232.7,91.8,232.7,80.7z"/>
<path class="st0" d="M494.9,43.5c8.6,0,17.3,0.2,25.9-0.1c3.7-0.1,4.6,1.1,4.6,4.7c-0.1,12.6,0.1,12.6-12.7,12.6
	c-1.2,0-2.4,0.1-3.6,0c-3.2-0.4-4.1,1-4,4.1c0.1,16.6,0,33.2,0.1,49.7c0,3.6-0.9,4.9-4.6,4.6c-4.1-0.3-8.3-0.3-12.4,0
	c-3.6,0.3-4.2-1.1-4.2-4.4c0.1-16.4,0-32.8,0.2-49.2c0-3.7-0.6-5.4-4.7-4.9c-3.6,0.4-7.3-0.1-10.9,0.1c-3,0.2-4.2-0.6-4.2-3.9
	c-0.2-13.3-0.3-13.3,12.9-13.3C483.1,43.5,489,43.5,494.9,43.5z"/>
<path class="st2" d="M77.3,35.9c-17.9,0-35.9,0-53.8-0.1c-1.6,0-3.9,1.3-4.5-1.8c-0.6-3.1,1.9-3.3,3.7-3.9
	c17-6.3,34.1-12.6,51.1-18.9c2.2-0.8,4-1,6.4-0.2c17.3,6.5,34.7,12.8,52.1,19.2c1.7,0.6,3.7,0.9,3.4,3.7c-0.4,3.3-2.9,1.9-4.4,1.9
	C113.2,35.9,95.2,35.9,77.3,35.9z"/>
<path class="st1" d="M370.7,81.3c0-11,0.2-22.1-0.1-33.1c-0.1-4.1,1.2-5,5-4.7c4.1,0.3,8.3,0.2,12.4,0c2.5-0.1,3.7,0.4,3.7,3.3
	c-0.1,23-0.1,45.9,0,68.9c0,2.9-1,3.5-3.6,3.4c-4.5-0.2-9-0.3-13.5,0c-3.4,0.2-4-1.1-3.9-4.2C370.8,103.7,370.7,92.5,370.7,81.3z"/>
<path class="st0" d="M623.1,81.2c0,11.4-0.1,22.8,0.1,34.2c0,2.9-0.8,3.9-3.8,3.7c-4.5-0.2-9-0.3-13.4,0c-3.4,0.2-4-1.1-3.9-4.1
	c0.1-22.4,0.1-44.8,0-67.3c0-3.5,1-4.5,4.4-4.3c4.1,0.3,8.3,0.3,12.4,0c3.9-0.3,4.5,1.2,4.4,4.7C623,59.1,623.1,70.1,623.1,81.2z"/>
<path class="st3" d="M132.1,129.6c-3.4,0.6-4.3-1.1-3.8-4.1c0.3-1.9,0-3.5-2.6-3.2c-3.6,0.5-3.3-1.8-3.3-4.2c0-13.5,0.3-27-0.2-40.4
	c-0.2-4.7,4.5-7.9,3-12.7c-0.1-0.2,0.4-0.8,0.6-0.8c4.9,0.4,3.2-3.3,3.4-5.6c0.1-1.8,0-3.3,2.6-3.3c7.3,0,2.6-5.6,3.6-8.4
	c1.1-3.6-2-2.9-4.2-3.1c-3.2-0.3-7.5,1.8-8-4.1c-0.1-0.9-1.8-0.6-2.8-0.6c-28.9,0-57.7,0-86.6,0c-1.2,0-3.2-0.5-3,1.7
	c0.3,3.8-2.4,3-4.5,3c-7.7,0.2-7.6,0.1-7.4,8c0.1,2.6,0.7,3.9,3.5,3.6c1-0.1,2.4-0.3,2.7,1c0.8,3.3,1.2,6.3,3.5,9.6
	c2.7,3.8,3.8,10.1,3.4,16.1c-0.7,11.7-0.2,23.5-0.2,35.2c0,2.8,0.6,5.6-3.9,5.1c-2.8-0.4-2.1,2.2-2.1,3.7c0,2.1,0,3.6-2.9,3.5
	c-7.3-0.3-3,5.3-3.8,8.1c-1.1,4,2.3,3.2,4.5,3.2c17.8,0,35.6,0,53.4,0c17.1,0,34.2,0,51.3,0c7.3,0,7.2,0,7.2-7.5
	C135.5,131,135.4,128.9,132.1,129.6z M68.9,83.8c-0.8,4.4-0.1,9-0.1,13.4c0,6.6,0,13.1,0,19.7c0,0.7,0.1,1.4,0,2.1
	c-0.1,1-0.4,2-0.6,3c-7.4-2.9-2.9,10.7-10.5,7.6c-0.5-0.2-1.1,0.1-1.5-0.1c-3.5-1.4,0.2-5.7-2.4-6.9c-2.1-1-5.4,0.7-5.2-4.1
	c0.4-14.3-0.5-28.7,0.6-43c0.3-3.5,0-9.5,5.6-11.7c1.9-0.7,0.8-3.5,0.7-5.3c-0.1-2.5,0.7-3.3,3.2-3.3c2.5,0,3.2,0.8,3.3,3.3
	c0,2.3-1.8,6,3.2,5.7c0.2,0,0.7,0.8,0.7,1.2C66.2,71.7,70,77.2,68.9,83.8z M105.4,97c0,7.1,0,14.2,0,21.2c0,2.4,0.2,4.6-3.3,4.1
	c-3.1-0.5-2.9,1.8-2.6,3.7c0.4,3.2-1.2,3.6-3.9,3.6c-2.6,0-4.3-0.3-4-3.5c0.2-1.5,0.8-4.1-2-3.7c-4.5,0.6-3.9-2.3-3.9-5
	c0-11.7,0.5-23.5-0.2-35.2c-0.4-6,0.7-12.4,3.4-16.1c2.5-3.4,2.5-6.4,3.5-9.6c0.6-1.8,2.7-0.9,4.2-1c1.3-0.1,2.4,0.3,2.5,1.9
	c0.2,3-1.2,6.9,3.7,7.7c-1.1,4.2,2.9,7.2,2.7,11.3C105.2,83.2,105.4,90.1,105.4,97z"/>
<path class="st0" d="M209.5,93.1c-1-1.7-2.4-3,0.8-4.6c10.7-5.3,15-14.1,13.1-25.4c-1.6-9.9-8.9-16.9-20.1-18.7
	c-12.7-2-25.5-0.4-38.2-0.9c-2.8-0.1-2.4,1.9-2.4,3.6c0,22.8,0,45.6-0.1,68.4c0,2.6,0.7,3.7,3.5,3.6c4-0.2,8-0.4,11.9,0
	c5.2,0.6,6.4-1.3,6.1-6.2c-0.5-7.1-0.1-14.2-0.1-21.7c3,1,3.3,3.1,4.2,4.7c3.6,6.6,7.2,13.3,10.7,20.1c1,2,2.1,3.2,4.7,3.2
	c6.5-0.2,13.1-0.1,20.7-0.1C219.1,109.8,214.3,101.5,209.5,93.1z M189.8,76.9c-7.8,0.6-5.4-4.2-5.7-8c0-7.6,0-7.6,6.1-7.6
	c8.9,0,12,2,12,7.7C202.2,75,199.4,76.1,189.8,76.9z"/>
<path class="st0" d="M578.9,93.2c-1.2-2-2.1-3.3,1.2-4.9c10.2-4.9,14.3-13.3,12.9-24.6c-1.3-9.9-8.8-17.4-19.5-19.3
	c-12.2-2.1-24.5-0.4-36.7-1c-3.7-0.2-4.7,1-4.6,4.6c0.2,18.3,0,36.6,0.1,54.9c0,5.1-2.2,11.9,0.9,15c3.3,3.3,10.1,0.6,15.4,1.1
	c4,0.4,5.4-0.9,5.2-5c-0.4-7.5-0.1-14.9-0.1-23.2c2.8,1.5,3.3,3.4,4.1,5c3.6,6.7,7.2,13.3,10.6,20.1c1.1,2.3,2.5,3.3,5.2,3.2
	c6.4-0.2,12.8-0.1,19.2-0.1c0.8-2.1-0.8-3.3-1.6-4.7C587,107.2,583,100.2,578.9,93.2z M559.3,76.9c-7.5,0.6-5.7-3.9-5.8-7.9
	c0-7.7,0-7.7,5.9-7.7c8.9,0,12.1,2,12.2,7.6C571.7,74.9,568.8,76.1,559.3,76.9z"/>
<path class="st0" d="M739,92.9c-1.2-2-2-3,1-4.5c10.5-5.2,14.5-13.4,12.9-25c-1.5-10.1-8.5-17.2-19.6-19.1c-12-2.1-24.1-0.3-36.2-1
	c-3.7-0.2-4.6,0.9-4.6,4.5c0.2,18.1,0,36.3,0.1,54.4c0,5.4-2.4,12.7,1.1,15.8c3.1,2.7,10.2,0.5,15.5,0.9c3.9,0.3,4.5-1.3,4.4-4.7
	c-0.2-7.5-0.1-15.1-0.1-23.3c2.9,1.3,3.2,3.1,4,4.6c3.7,6.8,7.4,13.6,11,20.5c0.8,1.6,1.4,3,3.7,2.9c6.9-0.1,13.7,0,20.6,0
	c0.3-2.3-1.1-3.5-1.9-5C747.1,107,743.1,99.9,739,92.9z M719.6,76.7c-6,0-6,0-6-7.6c0.1-8.7-1-7.7,5.9-7.8c8.8-0.1,12.6,2.4,12.4,8
	C731.9,74.7,728.5,76.7,719.6,76.7z"/>
</svg>
