<?xml version="1.0" encoding="utf-8"?>
<!-- Generator: Adobe Illustrator 23.0.1, SVG Export Plug-In . SVG Version: 6.00 Build 0)  -->
<!DOCTYPE svg PUBLIC "-//W3C//DTD SVG 1.1//EN" "http://www.w3.org/Graphics/SVG/1.1/DTD/svg11.dtd" [
	<!ENTITY ns_extend "http://ns.adobe.com/Extensibility/1.0/">
	<!ENTITY ns_ai "http://ns.adobe.com/AdobeIllustrator/10.0/">
	<!ENTITY ns_graphs "http://ns.adobe.com/Graphs/1.0/">
	<!ENTITY ns_vars "http://ns.adobe.com/Variables/1.0/">
	<!ENTITY ns_imrep "http://ns.adobe.com/ImageReplacement/1.0/">
	<!ENTITY ns_sfw "http://ns.adobe.com/SaveForWeb/1.0/">
	<!ENTITY ns_custom "http://ns.adobe.com/GenericCustomNamespace/1.0/">
	<!ENTITY ns_adobe_xpath "http://ns.adobe.com/XPath/1.0/">
]>
<svg version="1.1" id="Capa_1" xmlns:x="&ns_extend;" xmlns:i="&ns_ai;" xmlns:graph="&ns_graphs;"
	 xmlns="http://www.w3.org/2000/svg" xmlns:xlink="http://www.w3.org/1999/xlink" x="0px" y="0px" viewBox="0 0 72.5 81"
	 style="enable-background:new 0 0 72.5 81;" xml:space="preserve">
<style type="text/css">
	.st0{fill:#FFCE00;}
	.st1{fill:#DD0000;}
	.st2{fill:#FFFFFF;stroke:#184397;stroke-width:4.1074;stroke-linecap:round;stroke-miterlimit:12;}
	.st3{fill:none;}
	.st4{fill:none;stroke:#184397;stroke-width:3.0524;stroke-miterlimit:10;}
	.st5{fill:#184397;stroke:#184397;stroke-width:0.5087;stroke-miterlimit:10;}
</style>
<metadata>
	<sfw  xmlns="&ns_sfw;">
		<slices></slices>
		<sliceSourceBounds  bottomLeftOrigin="true" height="80.1" width="62.5" x="5.9" y="0.3"></sliceSourceBounds>
	</sfw>
</metadata>
<path d="M37.8,10c-0.4-0.3-1-0.1-1.5,0.1c-4.2,2.9-12,5.5-22.4,6.8c-0.7,0-0.5,1.2-0.5,1.8l-0.2,12.2h25.1V11.4
	C38.5,10.8,38.4,10.3,37.8,10z"/>
<path class="st0" d="M27.7,68.8c2.8,2.2,5.9,4,8.9,5.1c0.1,0,0.3,0.1,0.4,0.1c0.3,0,0.6-0.1,0.7-0.3c0.4-0.3,0.6-0.7,0.6-1.2V52.4
	H15.8C18.3,58.8,22.4,64.5,27.7,68.8z"/>
<path class="st1" d="M13.3,31v7.3c0,4.8,0.9,9.7,2.5,14.1h22.6V31H13.3z"/>
<path class="st2" d="M50,68.6c-3.6,2.8-8.9,4.9-12.9,6.1c-4.1-1.3-6.8-2-10.4-4.9c-9.3-7.3-15-19.3-15-31.6v-23
	C27.2,14.8,34.4,9.5,37.1,7c2.7,2.7,9.8,7.8,25.4,8.2v23c0,4.9-0.9,11-2.5,15.5c0.8,0.3,3,1.1,3.6,1.5c1.7-4.9,2.7-11.8,2.7-17V13.9
	c0-0.7-0.5-1.3-1.3-1.3C46.4,12.7,38.2,3,38,3c-0.5-0.5-1.5-0.5-2,0c0,0-8.2,9.7-26.8,9.7c-0.7,0-1.3,0.5-1.3,1.3v24.2
	c0,13.3,6,25.8,15.9,33.6c4,3.2,8.4,5.4,12.9,6.8c0.1,0,0.3,0,0.4,0c0.1,0,0.3,0,0.4,0c4.5-1.3,6.9-2.4,12.1-5.4l3.3-2.2
	C51.6,70.2,50.6,69.3,50,68.6z"/>
<path class="st3" d="M61.9,17c-14.4-0.4-22.3-6.5-24.8-8.9c-2.5,2.5-10.4,8.5-24.8,8.9v21.4c0,11.6,5.2,22.6,14,29.4
	c3.5,2.7,7,4.6,10.9,5.8c3.8-1.1,7.4-3.1,10.7-5.7c-1.2-1.9-2.1-4-2.1-6.3c0-5.8,4.7-10.5,10.5-10.5c1.1,0,2.2,0.1,3.2,0.5
	c1.5-4.2,2.3-8.6,2.3-13.2L61.9,17L61.9,17z M38.2,67.3c0,0.4-0.2,0.7-0.5,1c-0.2,0.1-0.4,0.2-0.6,0.2c-0.1,0-0.2,0-0.4-0.1
	c-2.6-1-5.2-2.5-7.5-4.3c-7.5-5.9-12.1-15.6-12.1-25.7V22.5c0-0.6,0.5-1.1,1-1.1c8.8-1.1,14.8-4.2,18.4-6.7c0.4-0.2,0.9-0.2,1.2-0.1
	c0.4,0.2,0.6,0.6,0.6,1L38.2,67.3L38.2,67.3z"/>
<g>
	<circle class="st4" cx="56.6" cy="63" r="8.1"/>
	<path class="st5" d="M55.4,66.8c0,0-0.2-0.2-0.3-0.4c-0.7-0.8-1.5-1.4-2.5-2.4c-0.1-0.1-0.1-0.1,0-0.1c0.4-0.4,0.6-0.6,1-1
		c0.1-0.1,0.1,0,0.2,0c0.5,0.5,1,1,1.5,1.5c0.1,0.1,0.1,0.1,0.2,0c1.5-1.5,3-3,4.3-4.3c0.1-0.1,0.1-0.1,0.2,0
		c0.2,0.4,0.6,0.6,0.9,0.9c0.1,0.1,0.1,0.1,0,0.2C59.2,63,57.4,64.9,55.4,66.8L55.4,66.8z"/>
</g>
</svg>
