<?xml version="1.0" encoding="utf-8"?>
<!-- Generator: Adobe Illustrator 23.0.1, SVG Export Plug-In . SVG Version: 6.00 Build 0)  -->
<!DOCTYPE svg PUBLIC "-//W3C//DTD SVG 1.1//EN" "http://www.w3.org/Graphics/SVG/1.1/DTD/svg11.dtd" [
	<!ENTITY ns_extend "http://ns.adobe.com/Extensibility/1.0/">
	<!ENTITY ns_ai "http://ns.adobe.com/AdobeIllustrator/10.0/">
	<!ENTITY ns_graphs "http://ns.adobe.com/Graphs/1.0/">
	<!ENTITY ns_vars "http://ns.adobe.com/Variables/1.0/">
	<!ENTITY ns_imrep "http://ns.adobe.com/ImageReplacement/1.0/">
	<!ENTITY ns_sfw "http://ns.adobe.com/SaveForWeb/1.0/">
	<!ENTITY ns_custom "http://ns.adobe.com/GenericCustomNamespace/1.0/">
	<!ENTITY ns_adobe_xpath "http://ns.adobe.com/XPath/1.0/">
]>
<svg version="1.1" id="Capa_1" xmlns:x="&ns_extend;" xmlns:i="&ns_ai;" xmlns:graph="&ns_graphs;"
	 xmlns="http://www.w3.org/2000/svg" xmlns:xlink="http://www.w3.org/1999/xlink" x="0px" y="0px" viewBox="0 0 72.5 81"
	 style="enable-background:new 0 0 72.5 81;" xml:space="preserve">
<style type="text/css">
	.st0{fill:#FFCE00;}
	.st1{fill:#DD0000;}
	.st2{fill:#FFFFFF;stroke:#FFFFFF;stroke-width:4.1074;stroke-linecap:round;stroke-miterlimit:12;}
	.st3{fill:none;}
	.st4{fill:none;stroke:#FFFFFF;stroke-width:3.0524;stroke-miterlimit:10;}
	.st5{fill:#FFFFFF;stroke:#FFFFFF;stroke-width:0.5087;stroke-miterlimit:10;}
</style>
<metadata>
	<sfw  xmlns="&ns_sfw;">
		<slices></slices>
		<sliceSourceBounds  bottomLeftOrigin="true" height="80.1" width="62.6" x="-61.9" y="-10.4"></sliceSourceBounds>
	</sfw>
</metadata>
<path d="M37,10.1c-0.4-0.3-1-0.1-1.5,0.1c-4.2,2.9-12,5.5-22.4,6.8c-0.7,0-0.5,1.2-0.5,1.8l-0.2,12.2h25.1V11.5
	C37.7,10.9,37.6,10.4,37,10.1z"/>
<path class="st0" d="M26.9,68.9c2.8,2.2,5.9,4,8.9,5.1c0.1,0,0.3,0.1,0.4,0.1c0.3,0,0.6-0.1,0.7-0.3c0.4-0.3,0.6-0.7,0.6-1.2V52.5
	H15C17.5,58.9,21.6,64.6,26.9,68.9z"/>
<path class="st1" d="M12.5,31.1v7.3c0,4.8,0.9,9.7,2.5,14.1h22.6V31.1H12.5z"/>
<path class="st2" d="M49.2,68.7c-3.6,2.8-8.9,4.9-12.9,6.1c-4.1-1.3-6.8-2-10.4-4.9c-9.3-7.3-15-19.3-15-31.6v-23
	c15.5-0.4,22.7-5.7,25.4-8.2c2.7,2.7,9.8,7.8,25.4,8.2v23c0,4.9-0.9,11-2.5,15.5c0.8,0.3,3,1.1,3.6,1.5c1.7-4.9,2.7-11.8,2.7-17V14
	c0-0.7-0.5-1.3-1.3-1.3c-18.6,0.1-26.8-9.6-27-9.6c-0.5-0.5-1.5-0.5-2,0c0,0-8.2,9.7-26.8,9.7c-0.7,0-1.3,0.5-1.3,1.3v24.2
	c0,13.3,6,25.8,15.9,33.6c4,3.2,8.4,5.4,12.9,6.8c0.1,0,0.3,0,0.4,0c0.1,0,0.3,0,0.4,0c4.5-1.3,6.9-2.4,12.1-5.4l3.3-2.2
	C50.8,70.3,49.8,69.4,49.2,68.7z"/>
<path class="st3" d="M61.1,17.1c-14.4-0.4-22.3-6.5-24.8-8.9c-2.5,2.5-10.4,8.5-24.8,8.9v21.4c0,11.6,5.2,22.6,14,29.4
	c3.5,2.7,7,4.6,10.9,5.8c3.8-1.1,7.4-3.1,10.7-5.7c-1.2-1.9-2.1-4-2.1-6.3c0-5.8,4.7-10.5,10.5-10.5c1.1,0,2.2,0.1,3.2,0.5
	c1.5-4.2,2.3-8.6,2.3-13.2L61.1,17.1L61.1,17.1z M37.4,67.4c0,0.4-0.2,0.7-0.5,1c-0.2,0.1-0.4,0.2-0.6,0.2c-0.1,0-0.2,0-0.4-0.1
	c-2.6-1-5.2-2.5-7.5-4.3c-7.5-5.9-12.1-15.6-12.1-25.7V22.6c0-0.6,0.5-1.1,1-1.1c8.8-1.1,14.8-4.2,18.4-6.7c0.4-0.2,0.9-0.2,1.2-0.1
	c0.4,0.2,0.6,0.6,0.6,1v51.7C37.5,67.4,37.4,67.4,37.4,67.4z"/>
<g>
	<circle class="st4" cx="55.8" cy="63.1" r="8.1"/>
	<path class="st5" d="M54.6,66.9c0,0-0.2-0.2-0.3-0.4c-0.7-0.8-1.5-1.4-2.5-2.4c-0.1-0.1-0.1-0.1,0-0.1c0.4-0.4,0.6-0.6,1-1
		c0.1-0.1,0.1,0,0.2,0c0.5,0.5,1,1,1.5,1.5c0.1,0.1,0.1,0.1,0.2,0c1.5-1.5,3-3,4.3-4.3c0.1-0.1,0.1-0.1,0.2,0
		c0.2,0.4,0.6,0.6,0.9,0.9c0.1,0.1,0.1,0.1,0,0.2C58.4,63.1,56.6,65,54.6,66.9C54.6,66.9,54.6,66.9,54.6,66.9z"/>
</g>
</svg>
