<svg id="SvgjsSvg1037" xmlns="http://www.w3.org/2000/svg" viewBox="0 0 288 257.41"><defs><style>.cls-1{fill:none;}.cls-2{fill:#fff;}</style></defs><title>Support</title><rect class="cls-1" width="288" height="257.41"/><path class="cls-2" d="M84.26,240.15,41.15,193.6c11.66-11,24.13-24.23,38.05-35.64,11.56-9.47,26.08-11,40.29-6.69a80.35,80.35,0,0,0,25,3.18q13.86-.16,27.72,0c8.61.11,14.41,5.55,14.51,13.33.11,8-5.73,13.79-14.5,14-7.73.16-15.46.07-23.19,0-3.92,0-7.68.75-7.63,5.46s3.78,5.42,7.71,5.38c7.55-.06,15.09.09,22.63,0,13.23-.24,22.36-7.8,25.52-20.58a17.36,17.36,0,0,1,3.5-6.78c6.47-7.61,13.17-15,19.83-22.48s15-8.43,21.46-2.89,6.43,14.3.08,21.57c-15.12,17.34-30.35,34.59-45.38,52-7.78,9-17.37,13.4-29.28,13.32-20.74-.15-41.49.17-62.23-.18-5.77-.1-10.18,1.13-13.69,5.76C89.72,234.74,87.44,236.77,84.26,240.15Z" transform="translate(0 0)"/><path class="cls-2" d="M210.11,117c-3.68,3.82-6.63,8.21-10.74,10.6-2.19,1.27-6.9-.08-9.58-1.71-8-4.88-16.62-1.54-18.41,7.73-1.49,7.64-3.25,8.81-13,8.66-7.28-.11-9.14-1.74-10.38-9.07a11.19,11.19,0,0,0-17.68-7.56c-6.76,4.69-8.76,4.45-15-1.77S109,116.11,114,109a11.27,11.27,0,0,0-7.25-17.42c-9-1.78-13.35-10.63-8.59-18.69,1.34-2.27,5-3.87,7.79-4.48,8.78-1.86,12.87-10.77,7.86-18-4.77-6.89-4.57-8.55,1.81-14.92,6.13-6.13,7.87-6.28,15-1.33,6.62,4.61,16.09.52,17.41-7.53,1.25-7.55,3.11-9.26,10.14-9.33,10.16-.1,11.84,1,13.32,9,1.66,8.9,10.62,12.6,18,7.44,6.52-4.53,8.34-4.25,14.93,2.32,5.62,5.62,5.8,7.58,1.31,14.1-5.32,7.74-1.47,16.59,7.93,18.2,6.83,1.16,8.42,3.08,8.54,10.27.16,9.49-.94,11.16-8.31,12.68-5.81,1.19-11.38,1.08-11,8.42.09,1.5,2.53,4.66,3.71,6.06C208.47,107.94,213.94,113.24,210.11,117ZM159.79,53.17A26.41,26.41,0,0,0,133,79.53a26.68,26.68,0,0,0,26.77,27.07,27,27,0,0,0,26.59-26.79A26.6,26.6,0,0,0,159.79,53.17Z" transform="translate(0 0)"/><path class="cls-2" d="M173.89,79.53a14.47,14.47,0,0,1-14.23,14.58,14.26,14.26,0,0,1-14.14-14,13.9,13.9,0,0,1,13.57-14.4A14.15,14.15,0,0,1,173.89,79.53Z" transform="translate(0 0)"/></svg>