<svg id="SvgjsSvg1037" xmlns="http://www.w3.org/2000/svg" viewBox="0 0 288 257.41"><defs><style>.cls-1{fill:none;}.cls-2{fill:#fff;}</style></defs><title>3</title><rect class="cls-1" width="288" height="257.41"/><path class="cls-2" d="M141.54,163.85l8.46,5.88.84-.52h0l8.54-5.32ZM191,74.05,170.5,103.48l-4,5.92h22.64v3.41h-25.3l-15.22,22H184.4l10.13-14.46,13.78-19.86V49.26ZM163,109.4l25.78-36.94,19.86-28.2v-17H94V88.43H35.89V239.91H208.51V105.58L197,122l-9,12.87h1v3.49h-3.42l-12.15,17.24a45.22,45.22,0,0,1-4,4.77h19.86v3.49H164.54l-.95.64-10.13,6.43-3.5,2.15-18.31,11.48,4.61-20.7H50.43v-3.37H137l.2-.76,2.82-11.8,1.27-6a13.79,13.79,0,0,1,1.66-3.54H50.43v-3.49h94.85l15.21-22.05H50.43v-3.49ZM189,214.85H50.43v-3.49H189Zm0-28.91v3.49H50.43v-3.49Zm-42.78-47.67-.67,1a8.36,8.36,0,0,0-1.63,3.21l-.68,3.1h0l-.24.92,19.59,14h2l1.19-.72a29.83,29.83,0,0,0,5.36-5.64l11-15.65Zm-4,11.32-2.46,10.89h17.91Zm-3.5,15.65-3,13.27,11.67-7.27Z" transform="translate(0 0)"/><polygon class="cls-2" points="91.22 27.26 91.22 85.61 35.85 85.61 91.22 27.26"/><polygon class="cls-2" points="91.22 27.26 91.22 85.61 35.85 85.61 91.22 27.26"/><polygon class="cls-2" points="91.22 27.26 91.22 85.61 35.85 85.61 91.22 27.26"/><polygon class="cls-2" points="136.66 163.85 136.26 163.85 136.74 161.67 136.46 163.69 136.66 163.85"/><polygon class="cls-2" points="147.5 171.32 135.82 178.59 138.84 165.32 147.5 171.32"/><polygon class="cls-2" points="150.92 169.17 150.84 169.21 150 169.73 141.54 163.85 139.48 162.38 139.6 161.27 143.29 163.85 150.92 169.17"/><polygon class="cls-2" points="147.5 171.32 135.82 178.59 138.84 165.32 147.5 171.32"/><polygon class="cls-2" points="136.86 160.83 137.02 160.36 136.74 161.67 136.86 160.83"/><polygon class="cls-2" points="161.21 162.74 159.46 163.85 150.92 169.17 150.84 169.21 150 169.73 141.54 163.85 139.48 162.38 139.6 161.27 139.8 160.36 142.34 149.67 157.71 160.36 161.21 162.74"/><polygon class="cls-2" points="163.71 161.11 162.59 160.36 143.01 146.65 143.25 145.74 143.25 145.62 164.42 160.36 164.5 160.44 163.71 161.11"/><polygon class="cls-2" points="161.21 162.74 159.46 163.85 150.92 169.17 150.84 169.21 150 169.73 141.54 163.85 139.48 162.38 139.6 161.27 139.8 160.36 142.34 149.67 157.71 160.36 161.21 162.74"/><polygon class="cls-2" points="164.9 163.85 163.95 164.69 163.59 164.49 164.54 163.85 164.9 163.85"/><path class="cls-2" d="M247.28,44.82,211.53,96.57l-2.86,4L194.89,120.4l-10.13,14.46-2.42,3.49-11,15.65a29.85,29.85,0,0,1-5.36,5.64l-1.19.72h0L164,161l-1.39-.55L143,146.77l.24-.91h0l.68-3.1a8.4,8.4,0,0,1,1.63-3.22l.67-.95,2.46-3.49,15.18-22.29,2.46-3.49,4-5.92L190.84,74l17.67-24.71,14.93-21.21C229.6,19,240,14.91,246.24,19.24l1.39,1.07C253.71,24.64,253.71,35.68,247.28,44.82Z" transform="translate(0 0)"/><path class="cls-2" d="M247.28,44.82,211.53,96.57l-2.86,4L194.89,120.4l-10.13,14.46-2.42,3.49-11,15.65a29.85,29.85,0,0,1-5.36,5.64l-1.19.72h0L164,161l-1.39-.55L143,146.77l.24-.91h0l.68-3.1a8.4,8.4,0,0,1,1.63-3.22l.67-.95,2.46-3.49,15.18-22.29,2.46-3.49,4-5.92L190.84,74l17.67-24.71,14.93-21.21C229.6,19,240,14.91,246.24,19.24l1.39,1.07C253.71,24.64,253.71,35.68,247.28,44.82Z" transform="translate(0 0)"/></svg>