<svg id="SvgjsSvg1037" xmlns="http://www.w3.org/2000/svg" viewBox="0 0 288 257.41"><defs><style>.cls-1,.cls-2{fill:none;}.cls-2{stroke:#fff;stroke-miterlimit:10;stroke-width:6px;}</style></defs><title>The Mission</title><rect class="cls-1" width="288" height="257.41"/><path class="cls-2" d="M216.94,145.53c-.16,39.39-32.44,71.57-71.66,71.42-39.39-.15-71.57-32.44-71.42-71.66C74,105.9,106.3,73.72,145.52,73.87,184.91,74,217.09,106.31,216.94,145.53Zm-21.47-.07a50.07,50.07,0,1,0-50.23,50A50.22,50.22,0,0,0,195.47,145.46Z" transform="translate(0 -15.29)"/><path class="cls-2" d="M138.2,110.58v14.66a22,22,0,0,0-12.7,12.29,20.77,20.77,0,0,0-1,12.62c2.06,9.11,9.4,15.4,19.15,16.58,9,1.09,16.86-3.93,21.93-14H180.2c-1.87,13-15.28,28.95-35.73,28.47-18.52-.43-34-15.52-34.79-33.79C108.74,126.71,124.38,112.72,138.2,110.58Z" transform="translate(0 -15.29)"/><path class="cls-2" d="M180.22,138.26c-4.61,0-9.19,0-13.77,0a1.73,1.73,0,0,1-1.21-.78c-5-8.24-5.19-8.41-12.62-12.28v-14.5C165.2,112.41,178,124.33,180.22,138.26Z" transform="translate(0 -15.29)"/><path class="cls-2" d="M145.48,138.27a7.14,7.14,0,1,1-7.22,7A7.2,7.2,0,0,1,145.48,138.27Z" transform="translate(0 -15.29)"/><path class="cls-2" d="M69,82.59S34.91,102,4.5,146.39c0,0,30.49,43.81,64.07,63.14C68.57,209.53,16,145.77,69,82.59Z" transform="translate(0 -15.29)"/><path class="cls-2" d="M219,82.51s34.06,19.41,64.47,63.79c0,0-30.49,43.82-64.07,63.14C219.43,209.44,272,145.69,219,82.51Z" transform="translate(0 -15.29)"/></svg>