<svg id="SvgjsSvg1037" xmlns="http://www.w3.org/2000/svg" xmlns:xlink="http://www.w3.org/1999/xlink" viewBox="0 0 288 257.41"><defs><style>.cls-1{fill:none;}.cls-2{fill:url(#linear-gradient);}.cls-3{fill:url(#linear-gradient-2);}.cls-4{fill:url(#linear-gradient-3);}.cls-5{fill:url(#linear-gradient-4);}.cls-6{fill:url(#linear-gradient-5);}</style><linearGradient id="linear-gradient" x1="25.66" y1="208.55" x2="262.34" y2="208.55" gradientUnits="userSpaceOnUse"><stop offset="0" stop-color="#fff"/><stop offset="1" stop-color="#fff"/></linearGradient><linearGradient id="linear-gradient-2" x1="128.75" y1="109.44" x2="247.73" y2="109.44" xlink:href="#linear-gradient"/><linearGradient id="linear-gradient-3" x1="41.5" y1="69.79" x2="120.85" y2="69.79" xlink:href="#linear-gradient"/><linearGradient id="linear-gradient-4" x1="164.45" y1="109.44" x2="212.02" y2="109.44" xlink:href="#linear-gradient"/><linearGradient id="linear-gradient-5" x1="65.32" y1="69.79" x2="97.03" y2="69.79" xlink:href="#linear-gradient"/></defs><title>The Support</title><rect class="cls-1" width="288" height="257.41"/><path class="cls-2" d="M57.21,176.85a5.67,5.67,0,0,0,.16-1c-.46-5.84,1.25-7.08,7.23-7,9.08.19,18.17,0,27.25.06,3.87,0,5.17,1.32,5.19,5.22v5.53c5.54-1.38,10.92-2.5,16.17-4.08a36,36,0,0,1,22.61.06c3.35,1.13,6.84,1.84,10.26,2.76,14.34,3.83,28.66,7.7,43,11.48,4.37,1.15,8.15,3.11,10.79,7L223,183.59c4.93-2.85,9.84-5.72,14.78-8.54,8.34-4.77,17.85-2.49,22.38,5.35s1.81,17.31-6.49,22.11q-32.78,19-65.58,37.86a28.75,28.75,0,0,1-14.64,3.9q-29.23,0-58.47,0a29,29,0,0,1-13.13-3.07L97,238.82c0,1.75,0,3.18,0,4.62,0,3.36-1.46,4.77-4.87,4.78q-14.86,0-29.73,0c-3.69,0-5-1.37-5-5.11,0-.82,0-1.64,0-2.81H54.66q-12,0-24,0c-3.56,0-5-1.39-5-4.93q0-26.76,0-53.52c0-3.65,1.39-5,5.16-5Zm39.83,11c0,12.86.12,25.49-.09,38.12,0,3,1,4.34,3.54,5.76a38.28,38.28,0,0,0,19.67,4.66c17.75-.29,35.51-.12,53.26-.08a20.44,20.44,0,0,0,10.42-2.67q33.14-19.1,66.22-38.25c4.11-2.38,5.45-7,3.33-10.85a8,8,0,0,0-11.17-2.87q-19.12,10.92-38.15,22a3.26,3.26,0,0,0-1.4,2.23c-.7,11.14-9.61,17.8-20.49,15-15.31-4-30.58-8.18-45.86-12.3-3-.82-4.28-2.7-3.59-5.17.62-2.27,2.72-3.21,5.6-2.44q14.58,3.87,29.15,7.78c5.66,1.52,11.29,3.11,17,4.55,6.16,1.57,11.26-2.86,10.28-8.88-.57-3.46-2.75-5.5-6.1-6.39-19.58-5.26-39.15-10.6-58.78-15.69a20.61,20.61,0,0,0-9-.33C112.89,183.7,105.1,185.88,97,187.89ZM89,177H65.46v63.15H89Zm-31.8,55.28V185H33.73v47.27Z" transform="translate(0 -15.29)"/><path class="cls-3" d="M247.72,109.46c0,3.72,0,7.43,0,11.15,0,3.23-1.48,4.66-4.72,4.69-4.13,0-8.26,0-12.39,0a6.79,6.79,0,0,0-2.08.81,6.86,6.86,0,0,0,1,2c2.8,2.92,5.71,5.73,8.55,8.62,2.52,2.57,2.51,4.41-.07,7q-7.59,7.65-15.24,15.25c-2.73,2.71-4.58,2.68-7.38-.09s-5.58-5.63-8.44-8.37a2.8,2.8,0,0,0-2.05-.7c-.33,0-.71,1.16-.72,1.79-.06,4.13,0,8.26,0,12.39,0,3.4-1.43,4.82-4.82,4.84q-11,0-22.05,0c-3.41,0-4.81-1.43-4.84-4.82,0-4.13,0-8.26,0-12.39a6.5,6.5,0,0,0-.66-1.93,6.09,6.09,0,0,0-2.07.8c-3,2.86-5.85,5.83-8.8,8.72-2.47,2.42-4.38,2.41-6.83,0q-7.81-7.77-15.59-15.59c-2.43-2.45-2.42-4.35,0-6.82,2.89-3,5.85-5.83,8.72-8.8.45-.46,1-1.52.78-1.78a2.8,2.8,0,0,0-2-.94c-4.13-.09-8.26,0-12.39,0-3.38,0-4.78-1.44-4.79-4.86q0-11,0-22c0-3.39,1.42-4.78,4.84-4.8,4.13,0,8.26,0,12.39,0,.64,0,1.77-.4,1.81-.71a2.85,2.85,0,0,0-.73-2c-2.8-2.92-5.7-5.75-8.54-8.63-2.65-2.67-2.63-4.46.06-7.17q7.6-7.63,15.24-15.24c2.63-2.61,4.51-2.59,7.21.08s5.58,5.63,8.44,8.37a6.88,6.88,0,0,0,2,1,6.64,6.64,0,0,0,.81-2.08c.08-4.13,0-8.26,0-12.39,0-3.26,1.45-4.71,4.68-4.72q11.15,0,22.29,0c3.26,0,4.71,1.44,4.74,4.66,0,4.21,0,8.42,0,12.63,0,.63.35,1.57.81,1.77a2.23,2.23,0,0,0,1.83-.63c3-2.86,5.85-5.82,8.79-8.72,2.59-2.55,4.43-2.56,7,0Q230.31,67.37,238,75.1c2.55,2.57,2.56,4.43,0,7-2.83,2.89-5.74,5.7-8.55,8.61a6.85,6.85,0,0,0-.92,2,7.23,7.23,0,0,0,2.11.78c4.13.07,8.26,0,12.39,0,3.22,0,4.65,1.47,4.68,4.72C247.74,102,247.72,105.75,247.72,109.46ZM146.55,78.71a2.11,2.11,0,0,0,.24.45L153.61,86c4.12,4.12,4.11,4.12,1.87,9.34-.29.68-.57,1.37-.82,2.06-1.33,3.59-2.06,4.11-5.78,4.11h-12v15.74a5.23,5.23,0,0,0,.68.11h9.66c5.8,0,5.79,0,7.91,5.32.27.69.61,1.35.92,2,1.58,3.38,1.42,4.32-1.23,7-2.84,2.85-5.69,5.68-8.38,8.36l11.26,11.18,7.68-7.73c3.49-3.5,3.75-3.53,8.35-1.45.75.34,1.52.64,2.29.93,3.9,1.45,4.28,2,4.29,6.13v11.76h15.86a88.53,88.53,0,0,0-.06-9.23c-.52-4.93.72-8.44,6.12-9.4a3.81,3.81,0,0,0,.9-.4c4-1.85,4.57-1.74,7.75,1.45,2.72,2.72,5.42,5.45,7.86,7.91l11.47-11.43c-1.9-1.76-4-3.61-6-5.58-5.69-5.64-5.93-4.93-2.68-12.13,2-4.41,2.06-4.68,6.89-4.68h11.22V101.51c-4.33,0-8.52-.05-12.72,0a4.53,4.53,0,0,1-4.86-3.34c-.52-1.48-1.14-2.92-1.78-4.35-1.35-3-1.21-4,1.12-6.36,2.92-2.91,5.86-5.79,8.58-8.47L218.7,67.66c-2.86,2.9-5.89,5.93-8.87,9a4.36,4.36,0,0,1-5.61.93,35.57,35.57,0,0,0-4.55-1.91,4.63,4.63,0,0,1-3.53-5c.1-4.19,0-8.38,0-12.65h-15.6c-.12.22-.19.29-.19.35,0,4.22-.08,8.43-.06,12.64a4.32,4.32,0,0,1-3.14,4.5c-1.47.53-2.93,1.1-4.35,1.76-3.14,1.45-4.18,1.33-6.58-1.07-2.91-2.91-5.78-5.84-8.57-8.67Z" transform="translate(0 -15.29)"/><path class="cls-4" d="M93.07,99.16c0,1.87,0,3.75,0,5.63,0,3.11-1.47,4.61-4.51,4.64q-7.44.07-14.87,0c-2.89,0-4.31-1.55-4.39-4.5,0-1,0-2,0-3V98.58c-1.72,1.69-3,3-4.43,4.36-2.38,2.25-4.3,2.25-6.66-.06q-5.13-5-10.16-10.16c-2.29-2.34-2.25-4.27.07-6.65,1.29-1.34,2.67-2.59,4.53-4.38-2.75,0-4.7,0-6.65,0-2.93-.07-4.41-1.53-4.44-4.46q-.07-7.44,0-14.87c0-2.93,1.51-4.38,4.45-4.44,1.94,0,3.89,0,6.67,0-1.94-1.87-3.4-3.17-4.74-4.57-2.08-2.17-2.12-4.17-.05-6.29Q53,41.72,58.38,36.52c2.13-2.07,4.11-2,6.3,0a22,22,0,0,1,2.1,2.11c.62.74,1.12,1.6,1.67,2.4l.83-.53c0-1.94,0-3.88,0-5.81.06-3,1.5-4.46,4.4-4.49,5-.06,9.91-.05,14.87,0,3,0,4.45,1.53,4.5,4.65a25.76,25.76,0,0,0,.56,6c1.26-1.36,2.48-2.76,3.8-4.06,2.38-2.35,4.32-2.41,6.65-.14q5.24,5.1,10.33,10.34c2.18,2.23,2.15,4.2-.06,6.47-1.31,1.35-2.78,2.54-4.18,3.8l.31.68c1.92,0,3.85,0,5.77,0,3.09.06,4.55,1.5,4.58,4.58q.06,7.32,0,14.62c0,3.08-1.5,4.51-4.58,4.58-1,0-2,0-3,0H110c1.71,1.72,3.09,3.07,4.41,4.47,2.17,2.3,2.22,4.24,0,6.48q-5.1,5.24-10.33,10.34c-2.26,2.2-4.24,2.2-6.48,0-1.35-1.32-2.58-2.77-3.87-4.16Zm-15.86,2.22h7.93c0-2.83.08-5.54,0-8.24s1.12-4,3.47-5,4.4-1.08,6.25,1,3.79,4.05,5.46,5.81l6.11-5.61c-2-2-3.83-3.87-5.8-5.63s-2.24-3.87-1.15-6.43,2.62-3.59,5.29-3.48,5.38,0,8,0V65.83c-2.92,0-5.71-.06-8.49,0-2.54.07-3.85-1.25-4.79-3.48s-1.18-4.24.8-6.06,4.16-3.91,5.88-5.54l-5.51-6.29c-2,2.05-3.86,3.91-5.61,5.87-1.89,2.12-3.88,2.27-6.43,1.17S85,48.9,85.12,46.22s0-5.37,0-8H77.21c0,2.84-.08,5.54,0,8.25s-1.13,4-3.48,5-4.39,1.07-6.25-1-3.8-4-5.38-5.67L55.89,50.3c2,2,3.88,3.87,5.85,5.63s2.25,3.88,1.15,6.44S60.28,66,57.6,65.85s-5.38,0-8,0v7.93c2.83,0,5.54.07,8.25,0,2.48-.09,4,1,4.95,3.25,1.06,2.44,1.29,4.53-.89,6.49s-4,3.82-5.76,5.51l5.58,6.08c2.07-2.14,4-4.12,6-6.18s3.77-1.78,6.06-.81,3.55,2.25,3.49,4.79C77.16,95.66,77.21,98.45,77.21,101.38Z" transform="translate(0 -15.29)"/><path class="cls-5" d="M188.4,85.66a23.79,23.79,0,1,1-24,23.61A23.82,23.82,0,0,1,188.4,85.66Zm15.69,23.87a15.86,15.86,0,1,0-16,15.77A15.89,15.89,0,0,0,204.09,109.53Z" transform="translate(0 -15.29)"/><path class="cls-6" d="M81.09,85.65A15.86,15.86,0,1,1,97,69.81,15.89,15.89,0,0,1,81.09,85.65Zm.11-8a7.92,7.92,0,1,0-7.94-7.83A7.94,7.94,0,0,0,81.2,77.7Z" transform="translate(0 -15.29)"/></svg>