<?xml version="1.0" encoding="utf-8"?>
<!-- Generator: Adobe Illustrator 23.0.1, SVG Export Plug-In . SVG Version: 6.00 Build 0)  -->
<!DOCTYPE svg PUBLIC "-//W3C//DTD SVG 1.1//EN" "http://www.w3.org/Graphics/SVG/1.1/DTD/svg11.dtd" [
	<!ENTITY ns_extend "http://ns.adobe.com/Extensibility/1.0/">
	<!ENTITY ns_ai "http://ns.adobe.com/AdobeIllustrator/10.0/">
	<!ENTITY ns_graphs "http://ns.adobe.com/Graphs/1.0/">
	<!ENTITY ns_vars "http://ns.adobe.com/Variables/1.0/">
	<!ENTITY ns_imrep "http://ns.adobe.com/ImageReplacement/1.0/">
	<!ENTITY ns_sfw "http://ns.adobe.com/SaveForWeb/1.0/">
	<!ENTITY ns_custom "http://ns.adobe.com/GenericCustomNamespace/1.0/">
	<!ENTITY ns_adobe_xpath "http://ns.adobe.com/XPath/1.0/">
]>
<svg version="1.1" id="Layer_1" xmlns:x="&ns_extend;" xmlns:i="&ns_ai;" xmlns:graph="&ns_graphs;"
	 xmlns="http://www.w3.org/2000/svg" xmlns:xlink="http://www.w3.org/1999/xlink" x="0px" y="0px" viewBox="0 0 1657.4 174.6"
	 style="enable-background:new 0 0 1657.4 174.6;" xml:space="preserve">
<style type="text/css">
	.st0{fill:#282828;}
	.st1{fill:#6E6E6E;}
	.st2{fill:#A3A3A3;}
	.st3{fill:#848484;}
	.st4{fill:none;}
	.st5{fill:#1C4695;}
	.st6{fill-rule:evenodd;clip-rule:evenodd;fill:#1C4695;}
</style>
<metadata>
	<sfw  xmlns="&ns_sfw;">
		<slices></slices>
		<sliceSourceBounds  bottomLeftOrigin="true" height="708.4" width="2684.2" x="-1044.4" y="-538.6"></sliceSourceBounds>
	</sfw>
</metadata>
<g>
	<path class="st0" d="M190,19h33.7v82.8c0,16.4,8,25.8,24,25.8s24.4-9.5,24.4-25.8V19h33.7v82.6c0,38.2-26.9,57.1-58.7,57.1
		c-32.2,0-57.1-18.9-57.1-57.1L190,19L190,19z"/>
	<path class="st0" d="M453.4,19v138.4h-33.7L363.3,72v85.4h-33.7V19h33.7l56.4,85.8V19H453.4z"/>
	<path class="st0" d="M470.3,19h107v27.1h-36.7v111.3h-33.7V46.1h-36.7L470.3,19L470.3,19z"/>
	<path class="st0" d="M679,46.1h-51v28h45.2v26H628v30.4h51v27.1h-84.8V19H679V46.1z"/>
	<path class="st0" d="M757.5,19c33.9,0,50.9,19.5,50.9,43.5c0,17.3-9.5,33.7-30.8,40l32,54.8h-38l-28.8-52.2h-8v52.2h-33.9V19H757.5
		z M755.5,47.1h-20.9v34.3h20.9c12.6,0,18.5-6.5,18.5-17.3C774.1,53.7,768.1,47.1,755.5,47.1z"/>
	<path class="st0" d="M953.2,19v138.4h-33.7L863.1,72v85.4h-33.7V19h33.7l56.4,85.8V19H953.2z"/>
	<path class="st0" d="M1062.4,46.1h-51.1v28h45.2v26h-45.2v30.4h51.1v27.1h-84.8V19h84.8V46.1z"/>
	<path class="st0" d="M1170.5,100.5h-52.4v56.9h-33.7V19h33.7v54.2h52.4V19h33.7v138.4h-33.7V100.5z"/>
	<path class="st0" d="M1228.4,19h39.8l38.8,95.8l38.4-95.8h39.6v138.4h-33.7v-83l-31,83h-27.2l-31.2-83.2v83.2h-33.7V19H1228.4z"/>
	<path class="st0" d="M1494.1,46.1H1443v28h45.2v26H1443v30.4h51.1v27.1h-84.8V19h84.8V46.1z"/>
	<path class="st0" d="M1639.8,19v138.4h-33.7L1549.7,72v85.4H1516V19h33.7l56.4,85.8V19H1639.8z"/>
</g>
<path class="st1" d="M-1043.5,705.2c-0.3,2.7,1.3,5.6-0.8,8c0-2.7,0-5.3,0-8C-1044.1,704.8-1043.8,704.8-1043.5,705.2z"/>
<path class="st2" d="M-1044.4,694.2c2.2,1.7,0.5,4,0.8,6c-0.3,0.5-0.5,0.5-0.8,0C-1044.4,698.2-1044.4,696.2-1044.4,694.2z"/>
<path class="st3" d="M-1044.4,700.2c0.3,0,0.6,0,0.8,0c0,1.7,0,3.3,0,5c-0.3,0-0.6,0-0.8,0C-1044.4,703.6-1044.4,701.9-1044.4,700.2
	z"/>
<g>
	<path class="st4" d="M140.1,151.2c15.8-0.2,28.5-13.1,28.5-28.9c0-3.8-0.7-7.4-2.1-10.7C161.8,127.2,152.4,141,140.1,151.2z"/>
	<path class="st4" d="M159.8,101.5c-5.2-5-12.3-8.1-20-8.1c-15.9,0-28.9,13-28.9,28.9c0,11.9,7.2,22.1,17.4,26.5
		C144.3,138.1,156,121.2,159.8,101.5z"/>
	<path class="st4" d="M105.8,122.3c0-18.7,15.2-33.9,33.9-33.9c7.9,0,15.2,2.7,20.9,7.3c0.3-2.7,0.5-5.4,0.5-8.2
		c0-40.6-33.1-73.7-73.7-73.7S13.7,46.9,13.7,87.5s33.1,73.7,73.7,73.7c13,0,25.2-3.4,35.8-9.3C112.8,146.1,105.8,135,105.8,122.3z"
		/>
	<path class="st5" d="M87.4,161.2c-40.6,0-73.7-33.1-73.7-73.7s33.1-73.7,73.7-73.7s73.7,33.1,73.7,73.7c0,2.8-0.2,5.5-0.5,8.2
		c3,2.4,5.7,5.3,7.8,8.6c1.1-5.4,1.7-11,1.7-16.8c0-45.6-37.1-82.7-82.7-82.7S4.7,41.9,4.7,87.5s37.1,82.7,82.7,82.7
		c17.3,0,33.4-5.4,46.7-14.5c-3.9-0.7-7.6-2-10.9-3.8C112.6,157.8,100.4,161.2,87.4,161.2z"/>
	<path class="st5" d="M110.8,122.3c0-15.9,13-28.9,28.9-28.9c7.8,0,14.8,3.1,20,8.1c0.4-1.9,0.7-3.9,0.9-5.8
		c-5.8-4.5-13-7.3-20.9-7.3c-18.7,0-33.9,15.2-33.9,33.9c0,12.7,7,23.8,17.4,29.6c1.7-1,3.4-2,5-3.1
		C118,144.4,110.8,134.2,110.8,122.3z"/>
	<path class="st5" d="M168.4,104.3c-0.5,2.5-1.1,4.9-1.9,7.3c1.3,3.3,2.1,6.9,2.1,10.7c0,15.8-12.8,28.7-28.5,28.9
		c-1.9,1.6-3.9,3.1-6,4.5c1.8,0.3,3.7,0.5,5.6,0.5c18.7,0,33.9-15.2,33.9-33.9C173.6,115.7,171.7,109.5,168.4,104.3z"/>
	<path class="st5" d="M139.7,151.2c-4.1,0-8-0.9-11.5-2.4c-1.6,1.1-3.3,2.1-5,3.1c3.3,1.9,7,3.2,10.9,3.8c2.1-1.4,4.1-2.9,6-4.5
		C140,151.2,139.8,151.2,139.7,151.2z"/>
	<path class="st5" d="M160.6,95.7c-0.2,2-0.5,3.9-0.9,5.8c2.9,2.8,5.2,6.2,6.8,10c0.7-2.4,1.4-4.8,1.9-7.3
		C166.3,101,163.7,98.1,160.6,95.7z"/>
</g>
<g>
	<path class="st6" d="M102.2,130.8H75.9V38.9h50.5v48.5c1.1,0.1,2.2,0.3,3.3,0.5V38.5c0-1.6-1.3-2.9-2.9-2.9H75.5
		c-1.6,0-2.9,1.3-2.9,2.9v24.8h-30c-1.3,0-2.4,1.1-2.4,2.4v66.7c0,0.9,0.7,1.7,1.7,1.7h63.3l-0.4-0.4
		C103.8,132.8,102.9,131.8,102.2,130.8L102.2,130.8z M43.5,130.8V66.6h29.2v64.2L43.5,130.8L43.5,130.8z M117.5,90.9h-11.8l0,0l0,0
		l0,0l0,0l0,0l0,0l0,0l0,0l0,0l0,0l0,0l0,0l0,0l0,0c-0.4,0.2-0.7,0.8-0.7,1.2v9.9C108.5,97.6,112.8,93.8,117.5,90.9L117.5,90.9z
		 M105,71.4c-0.2,0.1-0.3,0.3-0.3,0.5v9.2c0,0.2,0.1,0.4,0.3,0.5l0,0l0,0l0,0l0,0l0,0l0,0l0,0l0,0l0,0l0,0l0,0l0,0l0,0l0,0l0,0l0,0
		h10.9c0.3,0,0.6-0.3,0.6-0.6v-3l0,0v-6c0-0.2-0.2-0.5-0.4-0.5l0,0l0,0l0,0l0,0l0,0l0,0l0,0l0,0l0,0l0,0l0,0h-10.9l0,0l0,0l0,0l0,0
		l0,0l0,0L105,71.4L105,71.4L105,71.4L105,71.4L105,71.4L105,71.4L105,71.4L105,71.4L105,71.4z M96.7,109.5H85.8
		c-0.3,0-0.6,0.3-0.6,0.6v9.2c0,0.3,0.3,0.6,0.6,0.6h10.9c0.2,0,0.4-0.1,0.5-0.3c-0.6-3.3-0.6-6.6-0.1-9.9
		C97,109.6,96.8,109.5,96.7,109.5z M96.7,90.5H85.8c-0.3,0-0.6,0.3-0.6,0.6v9.2c0,0.3,0.3,0.6,0.6,0.6h10.9c0.3,0,0.6-0.3,0.6-0.6
		V91C97.3,90.7,96.9,90.5,96.7,90.5z M96.7,71.4H85.8c-0.3,0-0.6,0.3-0.6,0.6v9.2c0,0.3,0.3,0.6,0.6,0.6h10.9c0.3,0,0.6-0.3,0.6-0.6
		V72C97.3,71.7,96.9,71.4,96.7,71.4z M64.6,101H51.4c-0.1,0-0.3,0.1-0.3,0.2v5.4c0,0.1,0.1,0.2,0.3,0.2h13.1c0.1,0,0.3-0.1,0.3-0.2
		v-5.4C64.9,101,64.7,101,64.6,101z M119,46.1H83.4c-0.7,0-1.3,0.6-1.3,1.3v14.1c0,0.7,0.6,1.3,1.3,1.3h35.7c0.7,0,1.3-0.6,1.3-1.3
		V47.4C120.4,46.7,119.8,46.1,119,46.1L119,46.1z M64.6,89.1H51.4c-0.1,0-0.3,0.1-0.3,0.2v5.4c0,0.1,0.1,0.2,0.3,0.2h13.1
		c0.1,0,0.3-0.1,0.3-0.2v-5.4C64.9,89.2,64.7,89.1,64.6,89.1L64.6,89.1z M64.6,77.3H51.4c-0.1,0-0.3,0.1-0.3,0.2v5.4
		c0,0.1,0.1,0.2,0.3,0.2h13.1c0.1,0,0.3-0.1,0.3-0.2v-5.4C64.9,77.4,64.7,77.3,64.6,77.3L64.6,77.3z"/>
</g>
<g>
	<g>
		<path class="st0" d="M143.6,106.8v11.6h11.3v7.3h-11.3v11.6h-7.9v-11.6h-11.3v-7.3h11.3v-11.6H143.6z"/>
		<path class="st0" d="M144.1,137.8h-8.9v-11.6h-11.3v-8.3h11.3v-11.6h8.9v11.6h11.3v8.3h-11.3V137.8z M136.2,136.8h6.9v-11.6h11.3
			v-6.3h-11.3v-11.6h-6.9v11.6h-11.3v6.3h11.3V136.8z"/>
	</g>
</g>
</svg>
