<svg id="Layer_1" data-name="Layer 1" xmlns="http://www.w3.org/2000/svg" viewBox="0 0 1689.35 376.05"><defs><style>.cls-1{fill:#184397;}.cls-2{fill:#282828;}.cls-3{fill:#282827;}</style></defs><title>Vermittler</title><path class="cls-1" d="M207.38,94.66c0-4.4-2.06-6.9-6.37-7.84-5.1-1.11-10.2-2.23-15.34-3.16a3.19,3.19,0,0,1-2.91-2.73,72.07,72.07,0,0,0-7.64-18.07,2.91,2.91,0,0,1,.1-3.69c3-4.27,5.81-8.61,8.63-13,2.61-4,2.33-6.51-1-9.88-3.84-3.83-7.71-7.63-11.57-11.44s-6.26-3.91-10.76-1c-4.21,2.7-8.45,5.38-12.6,8.18a3.09,3.09,0,0,1-3.74.17,74,74,0,0,0-18.59-7.61,3,3,0,0,1-2.49-2.79c-1-5-2-9.92-3.13-14.86-1.06-4.71-3.23-6.5-8-6.56q-8.34-.1-16.68,0c-4.59.06-6.81,1.9-7.81,6.38-1.12,5-2.2,10.11-3.19,15.18a2.87,2.87,0,0,1-2.37,2.58,76.3,76.3,0,0,0-18.87,7.74,2.84,2.84,0,0,1-3.47-.14c-4.34-2.9-8.73-5.72-13.13-8.54-4-2.54-6.71-2.29-10,.94q-5.93,5.81-11.81,11.67c-3.47,3.45-3.75,6.06-1.09,10.13S29,54.67,31.82,58.77c1,1.46,1.32,2.58.28,4.27a67.54,67.54,0,0,0-7.51,17.77,3.51,3.51,0,0,1-3.16,2.92c-5.24,1-10.46,2-15.66,3.21-3.56.8-5.65,3.21-5.71,6.7C0,99.78,0,105.91.06,112c0,3.09,1.73,5.16,4.56,6.29a19.72,19.72,0,0,0,3.4.87c4.48.92,9,1.8,13.47,2.71,1.52.31,2.63.83,3.07,2.65a67.93,67.93,0,0,0,7.56,18.09,3.2,3.2,0,0,1-.12,4c-2.91,4.17-5.69,8.44-8.48,12.69-2.6,4-2.36,6.6.92,9.9q5.86,5.88,11.79,11.67c3.43,3.36,6.27,3.65,10.3,1.08,4.31-2.75,8.66-5.45,12.85-8.36a3.22,3.22,0,0,1,4-.09,72.88,72.88,0,0,0,18,7.4,3.4,3.4,0,0,1,3,3.13c.88,5.09,2,10.13,3.18,15.18.92,4.07,3.25,5.84,7.5,5.87h18a6.63,6.63,0,0,0,6.62-5c.28-.91.44-1.85.64-2.78.94-4.43,2-8.85,2.78-13.31.31-1.66.91-2.58,2.64-3a73.86,73.86,0,0,0,18.56-7.68,3.07,3.07,0,0,1,3.74.28c4.15,2.79,8.38,5.47,12.59,8.19s7.12,2.5,10.81-1.13,7.55-7.49,11.32-11.24c3.54-3.51,3.83-6,1.12-10.1s-5.56-8.53-8.47-12.71a3.17,3.17,0,0,1-.14-4,65.09,65.09,0,0,0,7.38-17.49c.56-2.25,1.72-3,3.84-3.4q7.56-1.36,15-3.12c4.06-1,5.9-3.38,5.94-7.51Q207.44,102.92,207.38,94.66ZM104.05,158C73,158,47.77,133,47.76,102.31S72.92,46.64,104,46.67s56.6,25.45,56.48,56.31C160.38,133.53,135.18,158.12,104.05,158Z" transform="translate(0.01 -0.32)"/><path class="cls-2" d="M384.58,23.15h48.7L376.66,187.44h-58.5L261.3,23.15h48.94l37.29,118.62Z" transform="translate(0.01 -0.32)"/><path class="cls-2" d="M554,59.74H494.57v26.8H547v34.72H494.57v29.62H554v36.59H448.92V23.15H554Z" transform="translate(0.01 -0.32)"/><path class="cls-2" d="M650,23.15c40.78,0,61.28,23.3,61.28,52.67,0,21.43-11.65,40.08-36.12,47.54l37,64.08h-51l-32.6-60.56h-4.9v60.59H578V23.15Zm-3.73,38.22H623.67V95.62h22.61c12.35,0,18.64-6,18.64-17.24,0-10.26-6.29-17-18.64-17Z" transform="translate(0.01 -0.32)"/><path class="cls-2" d="M733.43,23.15h55.23l41.26,106.73,40.3-106.73h55V187.44H879.55V96.79l-31,90.65H810.33L779.11,96.09v91.35H733.43Z" transform="translate(0.01 -0.32)"/><path class="cls-2" d="M952.72,23.15H998.4V187.44H952.72Z" transform="translate(0.01 -0.32)"/><path class="cls-2" d="M1016.8,23.15h132.84V59.5h-43.82V187.44h-45.67V59.5H1016.8Z" transform="translate(0.01 -0.32)"/><path class="cls-2" d="M1158.92,23.15h132.83V59.5h-43.81V187.44h-45.68V59.5h-43.34Z" transform="translate(0.01 -0.32)"/><path class="cls-2" d="M1355.92,23.15V152.48h51v35h-96.71V23.15Z" transform="translate(0.01 -0.32)"/><path class="cls-2" d="M1531.11,59.74h-59.42v26.8h52.43v34.72h-52.43v29.62h59.42v36.59H1426V23.15h105.1Z" transform="translate(0.01 -0.32)"/><path class="cls-2" d="M1627.12,23.15c40.78,0,61.29,23.3,61.29,52.67,0,21.43-11.65,40.08-36.12,47.54l37,64.08h-51l-32.66-60.56h-4.89v60.59h-45.68V23.15Zm-3.73,38.22h-22.6V95.62h22.6c12.35,0,18.65-6,18.65-17.24C1642,68.12,1635.74,61.37,1623.39,61.37Z" transform="translate(0.01 -0.32)"/><path class="cls-3" d="M117.05,351.12H65.27l-7.87,23.8H14.74L68,229h46.8l53,145.91H124.92ZM91.16,272.89,75.63,320.08H106.9Z" transform="translate(0.01 -0.32)"/><path class="cls-3" d="M276.11,374.92H203.83V229h70c29.62,0,47.84,13.66,47.84,37.88,0,17.59-10.35,29.18-24.64,33.11,17.39,3.93,28,18.63,28,35.19C325,359.82,307.38,374.92,276.11,374.92ZM264.93,261.3H244.42V287h20.51c9.94,0,15.32-4.14,15.32-12.62C280.25,265.64,274.87,261.3,264.93,261.3Zm2.89,54.43h-23.4v26.49H268c10.15,0,15.33-4.14,15.33-12.83C283.36,320.49,277.77,315.73,267.82,315.73Z" transform="translate(0.01 -0.32)"/><path class="cls-3" d="M429.57,229c36.25,0,54.47,20.7,54.47,46.78,0,19-10.35,35.59-32.1,42.22l32.93,56.91H439.52l-29-53.81h-4.35v53.81H365.58V229ZM426.26,263H406.17v30.43h20.09c11,0,16.57-5.38,16.57-15.32C442.83,269,437.24,263,426.26,263Z" transform="translate(0.01 -0.32)"/><path class="cls-3" d="M618.66,261.5H565.85v23.81h46.6v30.84h-46.6v26.28h52.81v32.49h-93.4V229h93.4Z" transform="translate(0.01 -0.32)"/><path class="cls-3" d="M729.26,227.56c36.66,0,62.75,21.11,70,54.23h-43.7c-5.18-11-14.91-17-26.92-17-18.64,0-30.86,14.48-30.86,36.84,0,22.56,12.22,37,30.86,37,12,0,21.74-6,26.92-17h43.7C792,354.85,765.92,376,729.26,376c-43.91,0-72.7-30.63-72.7-74.3C656.56,258.19,685.35,227.56,729.26,227.56Z" transform="translate(0.01 -0.32)"/><path class="cls-3" d="M931.4,316.35H881.9v58.57H841.3V229h40.6v54.85h49.5V229H972V374.92H931.4Z" transform="translate(0.01 -0.32)"/><path class="cls-3" d="M1153.21,229V374.92h-40.6l-54-81.54v81.54H1018V229h40.59l54,82.58V229Z" transform="translate(0.01 -0.32)"/><path class="cls-3" d="M1198.57,229H1239v84.65c0,15.11,6.84,24.63,22.16,24.63s22.58-9.52,22.58-24.63V229h40.59v84.65c0,41.6-29,62.71-64,62.71-35.2,0-61.71-21.11-61.71-62.71Z" transform="translate(0.01 -0.32)"/><path class="cls-3" d="M1504.67,229V374.92h-40.59L1410,293.38v81.54h-40.59V229H1410l54.06,82.58V229Z" transform="translate(0.01 -0.32)"/><path class="cls-3" d="M1687.55,277h-43.7c-4.56-7.66-12.84-12-24-12-20.5,0-32.93,14.28-32.93,36.64,0,25,12.84,38.49,36.87,38.49,14.08,0,24.44-6.62,30.44-19.24h-40.8V291.72h75.8v39.33c-8.7,21.32-31.27,44.91-69.38,44.91-44.73,0-74.14-30.63-74.14-74.3,0-43.47,29.2-74.1,73.93-74.1C1656.48,227.56,1681.75,246.6,1687.55,277Z" transform="translate(0.01 -0.32)"/><path class="cls-2" d="M120.08,116.66a.37.37,0,0,1,0,.39c-.54,1-.54,1-1.65,1h-6.27a5,5,0,0,0,4.32,3.3,6.8,6.8,0,0,0,5.18-1.65c.14-.11.27-.24.42-.35s.22-.29.52-.32v3.16c0,.22-.15.32-.3.43a7.72,7.72,0,0,1-4.78,1.74,10.58,10.58,0,0,1-3.94-.67,7.59,7.59,0,0,1-4.29-4.9c-.25-.74-.25-.76-1.06-.77h-1.82a4.76,4.76,0,0,1,.66-1.21c.09-.16.25-.15.42-.15h.63c.73,0,.72,0,.72-.73,0-.36-.11-.51-.5-.49-.62,0-1.25,0-2,0a5.61,5.61,0,0,1,.72-1.23.5.5,0,0,1,.57-.18c1,.18,1.45-.29,1.84-1.23a8.32,8.32,0,0,1,12.69-3.26c1,.71,1,.72.34,1.71l-1,1.64c-.3-.25-.58-.45-.87-.67a6,6,0,0,0-3.93-1.33,5.32,5.32,0,0,0-4.52,3.1c1.55,0,3.06,0,4.56,0h4.63a6.09,6.09,0,0,1-.66,1.23c-.17.28-.47.18-.72.18h-6.47c-.42,0-.84,0-1.26,0s-.51.08-.47.43a3.69,3.69,0,0,1,0,.47c0,.25.12.32.34.31h.71Z" transform="translate(0.01 -0.32)"/><path class="cls-2" d="M130.89,71.06H80.14a2.38,2.38,0,0,0-2.38,2.37h0v63a2.38,2.38,0,0,0,2.38,2.37,2.4,2.4,0,0,0,1.68-.69l4.66-4.67,4.67,4.67a2.38,2.38,0,0,0,3.35,0l4.67-4.67,4.66,4.67a2.39,2.39,0,0,0,3.36,0l4.67-4.67,4.66,4.67a2.39,2.39,0,0,0,3.36,0l4.66-4.67,4.67,4.67a2.37,2.37,0,0,0,4-1.68v-63a2.37,2.37,0,0,0-2.37-2.37Zm-2.38,59.6-2.29-2.29a2.36,2.36,0,0,0-3.35,0h0L118.2,133l-4.66-4.66a2.37,2.37,0,0,0-3.36,0h0L105.51,133l-4.66-4.66a2.37,2.37,0,0,0-3.36,0h0L92.83,133l-4.67-4.66a2.37,2.37,0,0,0-3.36,0h0l-2.29,2.29V75.81h46Z" transform="translate(0.01 -0.32)"/><path class="cls-2" d="M91.48,86.6h23.46a1.88,1.88,0,1,0,0-3.75H91.48a1.88,1.88,0,1,0,0,3.75Z" transform="translate(0.01 -0.32)"/><path class="cls-2" d="M91.48,95.88h23.46a1.88,1.88,0,1,0,0-3.75H91.48a1.88,1.88,0,1,0,0,3.75Z" transform="translate(0.01 -0.32)"/><path class="cls-2" d="M91.48,105.16h12a1.88,1.88,0,1,0,0-3.75h-12a1.88,1.88,0,1,0,0,3.75Z" transform="translate(0.01 -0.32)"/></svg>