<?xml version="1.0" encoding="utf-8"?>
<!-- Generator: Adobe Illustrator 23.0.1, SVG Export Plug-In . SVG Version: 6.00 Build 0)  -->
<svg version="1.1" xmlns="http://www.w3.org/2000/svg" xmlns:xlink="http://www.w3.org/1999/xlink" x="0px" y="0px"
	 viewBox="0 0 329.4 104.8" style="enable-background:new 0 0 329.4 104.8;" xml:space="preserve">
<style type="text/css">
	.st0{fill:#2C2C2C;}
	.st1{fill:#194695;}
	.st2{fill:none;}
	.st3{display:none;}
	.st4{display:inline;}
	.st5{fill:#2E3035;}
	.st6{fill:#313438;}
	.st7{fill-rule:evenodd;clip-rule:evenodd;fill:#184297;}
	.st8{fill:#422A15;}
	.st9{fill:#432A16;}
	.st10{fill:#432B17;}
	.st11{fill:#442C17;}
	.st12{fill:#CB9B26;}
	.st13{fill:#CB9B27;}
	.st14{fill:#CA9921;}
	.st15{fill:#CB9A24;}
	.st16{fill:#C9971D;}
	.st17{fill:#CB9A23;}
	.st18{fill:#CA9A22;}
	.st19{fill:#CA9922;}
	.st20{fill:#C9971C;}
	.st21{fill:#412814;}
	.st22{fill:url(#SVGID_1_);}
	.st23{fill:#184297;}
	.st24{fill:#00ADEF;}
	.st25{fill-rule:evenodd;clip-rule:evenodd;}
</style>
<g id="Layer_1">
	<g id="Layer_x0020_1">
		<g id="_339944352">
			<g>
				<path class="st0" d="M37.8,75.8c0-4.9-4-8.9-8.9-8.9s-8.9,4-8.9,8.9c0,4.9,4,8.9,8.9,8.9S37.8,80.7,37.8,75.8z"/>
				<path class="st0" d="M37.8,29c0-4.9-4-8.9-8.9-8.9s-8.9,4-8.9,8.9s4,8.9,8.9,8.9S37.8,33.9,37.8,29z"/>
				<path class="st0" d="M84.7,29c0-4.9-4-8.9-8.9-8.9c-4.9,0-8.9,4-8.9,8.9s4,8.9,8.9,8.9C80.7,37.8,84.7,33.9,84.7,29z"/>
				<path class="st0" d="M84.7,75.8c0-4.9-4-8.9-8.9-8.9c-4.9,0-8.9,4-8.9,8.9c0,4.9,4,8.9,8.9,8.9C80.7,84.7,84.7,80.7,84.7,75.8z"
					/>
				<path class="st1" d="M29,46.8c-16,0-29,13-29,29h11.1c0-9.9,8-17.9,17.9-17.9c7.1,0,13.2,4.2,16.1,10.1l5.1-11.9
					C44.9,50.4,37.4,46.8,29,46.8z"/>
				<path class="st0" d="M0,29c0,16,13,28.9,29,28.9c16,0,28.9-13,28.9-28.9C57.9,13,45,0,29,0v11.1c9.9,0,17.9,8,17.9,17.9
					c0,9.9-8,17.9-17.9,17.9c-9.9,0-17.9-8-17.9-17.9H0z"/>
				<path class="st1" d="M93.7,29c0,9.9-8,17.9-17.9,17.9c-9.9,0-17.9-8-17.9-17.9c0-9.9,8-17.9,17.9-17.9V0c-16,0-28.9,13-28.9,29
					c0,16,13,28.9,28.9,28.9c16,0,29-13,29-28.9H93.7z"/>
				<path class="st0" d="M104.8,75.8c0-16-13-29-29-29c-16,0-28.9,13-28.9,29s13,29,28.9,29V93.7c-9.9,0-17.9-8-17.9-17.9
					c0-9.9,8-17.9,17.9-17.9c9.9,0,17.9,8,17.9,17.9H104.8z"/>
				<path class="st1" d="M50.2,56.1l-5.1,11.9c1.1,2.4,1.7,5,1.7,7.7c0,9.9-8,17.9-17.9,17.9v11.1c16,0,28.9-13,28.9-29
					C57.9,68.2,55,61.3,50.2,56.1z"/>
				<path class="st1" d="M52,58.2l-6.3,11.1c-0.2-0.4-0.3-0.9-0.5-1.3c-1.5-3-3.8-5.6-6.6-7.4l7.9-7.9c1.4,1,2.6,2.2,3.8,3.4
					C50.8,56.8,51.4,57.5,52,58.2z"/>
				<g>
					<line class="st2" x1="46.4" y1="52.7" x2="38.5" y2="60.7"/>
				</g>
				<g>
					<line class="st2" x1="52" y1="58.2" x2="45.6" y2="69.3"/>
				</g>
			</g>
			<g>
				<path class="st0" d="M147.5,48c1.2,1.5,1.8,3.2,1.8,5.1c0,2.8-1,5-2.8,6.6c-1.9,1.6-4.6,2.4-8.1,2.4h-15.4V29h15.1
					c3.4,0,6,0.7,7.8,2.2c1.8,1.4,2.7,3.5,2.7,6.3c0,2-0.5,3.7-1.6,5c-1.1,1.3-2.5,2.2-4.2,2.6C144.7,45.6,146.3,46.5,147.5,48z
					 M130.9,42.6L130.9,42.6h5.2c2.8,0,4.2-1.2,4.2-3.6c0-2.4-1.4-3.6-4.3-3.6h-5.1V42.6z M141,52L141,52c0-1.2-0.4-2.1-1.2-2.8
					c-0.8-0.7-1.9-1-3.3-1h-5.7v7.5h5.7C139.6,55.6,141,54.4,141,52z"/>
				<polygon class="st0" points="167.1,29 167.1,62.2 159.1,62.2 159.1,29 				"/>
				<path class="st0" d="M195.2,62.2l-7.2-12.5h-1.8v12.5h-8V29h13.7c2.6,0,4.8,0.5,6.7,1.4c1.8,0.9,3.1,2.2,4.1,3.7
					c0.9,1.6,1.4,3.4,1.4,5.4c0,2.4-0.7,4.5-2,6.2c-1.3,1.7-3.3,2.8-5.8,3.5l7.9,13H195.2z M186.3,44.2L186.3,44.2h5
					c1.6,0,2.8-0.4,3.5-1c0.8-0.7,1.1-1.8,1.1-3.1c0-1.3-0.4-2.4-1.2-3.1c-0.8-0.8-1.9-1.1-3.5-1.1h-5V44.2z"/>
				<polygon class="st0" points="221.7,35.4 221.7,42.3 232.9,42.3 232.9,48.4 221.7,48.4 221.7,55.7 234.3,55.7 234.3,62.2 
					213.7,62.2 213.7,29 234.3,29 234.3,35.4 				"/>
				<polygon class="st0" points="281.7,29.3 281.7,62.2 273.7,62.2 273.7,41.6 266.6,62.2 259.6,62.2 252.5,41.5 252.5,62.2 
					244.5,62.2 244.5,29.3 254.3,29.3 263.2,52.2 272,29.3 				"/>
				<path class="st0" d="M313.4,56.1H301l-2.1,6.1h-8.4l12.1-32.9h9.2L324,62.2h-8.5L313.4,56.1z M311.3,50L311.3,50l-4.1-12.2
					L303,50H311.3z"/>
			</g>
			<g>
				<g>
					<path class="st1" d="M126.9,73c0.3,0.3,0.4,0.6,0.4,1c0,0.5-0.2,0.9-0.5,1.2c-0.4,0.3-0.9,0.5-1.6,0.5h-2.4v-6.4h2.4
						c0.6,0,1.1,0.2,1.5,0.5c0.3,0.3,0.5,0.7,0.5,1.2c0,0.4-0.1,0.7-0.3,1c-0.2,0.3-0.5,0.4-0.9,0.5C126.4,72.6,126.7,72.7,126.9,73
						z M123.7,72.2L123.7,72.2h1.4c0.4,0,0.7-0.1,0.9-0.3c0.2-0.2,0.3-0.5,0.3-0.8c0-0.3-0.1-0.6-0.3-0.8c-0.2-0.2-0.5-0.3-1-0.3
						h-1.4V72.2z M126.1,74.8L126.1,74.8c0.3-0.2,0.4-0.5,0.4-0.9c0-0.3-0.1-0.6-0.4-0.9c-0.3-0.2-0.6-0.3-1-0.3h-1.4v2.3h1.4
						C125.5,75.1,125.9,75,126.1,74.8z"/>
					<polygon class="st1" points="130.3,69.4 130.3,75.8 129.5,75.8 129.5,69.4 					"/>
					<path class="st1" d="M137.3,69.7c0.5,0.3,0.9,0.7,1.1,1.2c0.3,0.5,0.4,1,0.4,1.7c0,0.6-0.1,1.2-0.4,1.7
						c-0.3,0.5-0.7,0.9-1.1,1.2c-0.5,0.3-1,0.4-1.6,0.4c-0.6,0-1.1-0.1-1.6-0.4s-0.9-0.7-1.1-1.2c-0.3-0.5-0.4-1.1-0.4-1.7
						c0-0.7,0.1-1.2,0.4-1.7c0.3-0.5,0.7-0.9,1.1-1.2c0.5-0.3,1-0.4,1.6-0.4C136.2,69.3,136.8,69.4,137.3,69.7z M134.4,70.4
						L134.4,70.4c-0.3,0.2-0.6,0.5-0.8,0.9c-0.2,0.4-0.3,0.8-0.3,1.3c0,0.5,0.1,0.9,0.3,1.3c0.2,0.4,0.5,0.7,0.8,0.9
						c0.4,0.2,0.8,0.3,1.2,0.3c0.5,0,0.8-0.1,1.2-0.3c0.3-0.2,0.6-0.5,0.8-0.9c0.2-0.4,0.3-0.8,0.3-1.3c0-0.5-0.1-1-0.3-1.3
						c-0.2-0.4-0.5-0.7-0.8-0.9c-0.4-0.2-0.7-0.3-1.2-0.3C135.2,70.1,134.8,70.2,134.4,70.4z"/>
					<polygon class="st1" points="141.8,75.1 144.1,75.1 144.1,75.8 141,75.8 141,69.4 141.8,69.4 					"/>
					<path class="st1" d="M150.6,69.7c0.5,0.3,0.9,0.7,1.1,1.2c0.3,0.5,0.4,1,0.4,1.7c0,0.6-0.1,1.2-0.4,1.7
						c-0.3,0.5-0.7,0.9-1.1,1.2c-0.5,0.3-1,0.4-1.6,0.4c-0.6,0-1.1-0.1-1.6-0.4s-0.9-0.7-1.1-1.2c-0.3-0.5-0.4-1.1-0.4-1.7
						c0-0.7,0.1-1.2,0.4-1.7c0.3-0.5,0.7-0.9,1.1-1.2c0.5-0.3,1-0.4,1.6-0.4C149.6,69.3,150.1,69.4,150.6,69.7z M147.8,70.4
						L147.8,70.4c-0.3,0.2-0.6,0.5-0.8,0.9c-0.2,0.4-0.3,0.8-0.3,1.3c0,0.5,0.1,0.9,0.3,1.3c0.2,0.4,0.5,0.7,0.8,0.9
						c0.3,0.2,0.7,0.3,1.2,0.3c0.5,0,0.8-0.1,1.2-0.3c0.3-0.2,0.6-0.5,0.8-0.9c0.2-0.4,0.3-0.8,0.3-1.3c0-0.5-0.1-1-0.3-1.3
						c-0.2-0.4-0.5-0.7-0.8-0.9c-0.4-0.2-0.7-0.3-1.2-0.3C148.5,70.1,148.1,70.2,147.8,70.4z"/>
					<path class="st1" d="M159.1,69.9c0.5,0.4,0.9,0.9,1,1.5h-0.9c-0.2-0.4-0.4-0.7-0.8-0.9c-0.4-0.2-0.8-0.3-1.3-0.3
						c-0.4,0-0.8,0.1-1.2,0.3c-0.3,0.2-0.6,0.5-0.8,0.9c-0.2,0.4-0.3,0.8-0.3,1.3c0,0.5,0.1,1,0.3,1.4c0.2,0.4,0.5,0.7,0.9,0.9
						c0.3,0.2,0.8,0.3,1.2,0.3c0.4,0,0.8-0.1,1.1-0.3c0.3-0.2,0.6-0.4,0.8-0.7c0.2-0.3,0.3-0.7,0.4-1.1h-2.5v-0.6h3.2v0.8
						c-0.1,0.5-0.2,1-0.5,1.4c-0.3,0.4-0.6,0.7-1,1c-0.5,0.2-1,0.3-1.5,0.3c-0.6,0-1.2-0.1-1.6-0.4c-0.5-0.3-0.9-0.7-1.1-1.2
						c-0.3-0.5-0.4-1.1-0.4-1.7c0-0.7,0.1-1.2,0.4-1.7c0.3-0.5,0.7-0.9,1.1-1.2c0.5-0.3,1-0.4,1.6-0.4
						C158,69.3,158.7,69.5,159.1,69.9z"/>
					<polygon class="st1" points="163.4,69.4 163.4,75.8 162.5,75.8 162.5,69.4 					"/>
					<path class="st1" d="M170.6,69.9c0.5,0.4,0.9,0.9,1.1,1.6h-0.9c-0.2-0.4-0.4-0.8-0.8-1c-0.4-0.3-0.8-0.4-1.3-0.4
						c-0.4,0-0.8,0.1-1.1,0.3c-0.3,0.2-0.6,0.5-0.8,0.9c-0.2,0.4-0.3,0.8-0.3,1.3c0,0.5,0.1,0.9,0.3,1.3c0.2,0.4,0.5,0.7,0.8,0.9
						c0.3,0.2,0.7,0.3,1.1,0.3c0.5,0,1-0.1,1.3-0.4s0.6-0.6,0.8-1h0.9c-0.2,0.7-0.6,1.2-1.1,1.6c-0.5,0.4-1.1,0.6-1.9,0.6
						c-0.6,0-1.1-0.1-1.6-0.4c-0.5-0.3-0.8-0.7-1.1-1.1c-0.3-0.5-0.4-1.1-0.4-1.7c0-0.7,0.1-1.2,0.4-1.7c0.3-0.5,0.6-0.9,1.1-1.2
						c0.5-0.3,1-0.4,1.6-0.4C169.4,69.3,170,69.5,170.6,69.9z"/>
					<path class="st1" d="M177.6,74.3h-2.8l-0.5,1.5h-0.9l2.4-6.3h0.9l2.4,6.3h-0.9L177.6,74.3z M177.4,73.7L177.4,73.7l-1.2-3.3
						l-1.2,3.3H177.4z"/>
					<polygon class="st1" points="181.8,75.1 184.1,75.1 184.1,75.8 181,75.8 181,69.4 181.8,69.4 					"/>
				</g>
				<g>
					<path class="st1" d="M193.3,75.8l-1.7-2.6h-0.9v2.6h-0.8v-6.4h2.1c0.7,0,1.3,0.2,1.6,0.5c0.4,0.3,0.5,0.8,0.5,1.4
						c0,0.5-0.1,0.9-0.4,1.3c-0.3,0.3-0.7,0.5-1.3,0.6l1.8,2.6H193.3z M190.7,72.6L190.7,72.6h1.2c0.9,0,1.4-0.4,1.4-1.2
						c0-0.9-0.5-1.2-1.4-1.2h-1.2V72.6z"/>
					<polygon class="st1" points="197.1,70 197.1,72.3 199.5,72.3 199.5,72.9 197.1,72.9 197.1,75.1 199.8,75.1 199.8,75.8 
						196.3,75.8 196.3,69.4 199.8,69.4 199.8,70 					"/>
					<path class="st1" d="M205.8,75c-0.2,0.3-0.4,0.5-0.7,0.7c-0.3,0.1-0.7,0.2-1.1,0.2c-0.4,0-0.8-0.1-1.1-0.2
						c-0.3-0.1-0.6-0.4-0.8-0.6c-0.2-0.3-0.3-0.6-0.3-0.9h0.9c0,0.2,0.1,0.4,0.2,0.5c0.1,0.2,0.3,0.3,0.5,0.4s0.4,0.2,0.7,0.2
						c0.4,0,0.7-0.1,0.9-0.3c0.2-0.2,0.3-0.5,0.3-0.8c0-0.3-0.1-0.5-0.2-0.6s-0.3-0.3-0.5-0.4c-0.2-0.1-0.5-0.2-0.8-0.3
						c-0.4-0.1-0.7-0.3-1-0.4c-0.3-0.1-0.5-0.3-0.7-0.5c-0.2-0.2-0.3-0.5-0.3-0.9c0-0.3,0.1-0.6,0.3-0.9c0.1-0.3,0.4-0.5,0.7-0.6
						c0.3-0.1,0.7-0.2,1.1-0.2c0.6,0,1.1,0.1,1.5,0.5s0.6,0.7,0.7,1.2H205c-0.1-0.3-0.2-0.5-0.4-0.7c-0.2-0.2-0.5-0.3-0.9-0.3
						c-0.3,0-0.6,0.1-0.8,0.3c-0.2,0.2-0.3,0.4-0.3,0.7c0,0.3,0.1,0.5,0.2,0.6c0.1,0.2,0.3,0.3,0.5,0.4c0.2,0.1,0.5,0.2,0.8,0.3
						c0.4,0.1,0.7,0.3,1,0.4c0.3,0.1,0.5,0.3,0.7,0.6c0.2,0.2,0.3,0.6,0.3,1C206,74.4,206,74.7,205.8,75z"/>
					<path class="st1" d="M212.8,69.7c0.5,0.3,0.9,0.7,1.1,1.2c0.3,0.5,0.4,1,0.4,1.7c0,0.6-0.1,1.2-0.4,1.7
						c-0.3,0.5-0.6,0.9-1.1,1.2s-1,0.4-1.6,0.4c-0.6,0-1.1-0.1-1.6-0.4c-0.5-0.3-0.9-0.7-1.1-1.2c-0.3-0.5-0.4-1.1-0.4-1.7
						c0-0.7,0.1-1.2,0.4-1.7c0.3-0.5,0.7-0.9,1.1-1.2c0.5-0.3,1-0.4,1.6-0.4C211.8,69.3,212.3,69.4,212.8,69.7z M210,70.4L210,70.4
						c-0.3,0.2-0.6,0.5-0.8,0.9c-0.2,0.4-0.3,0.8-0.3,1.3c0,0.5,0.1,0.9,0.3,1.3c0.2,0.4,0.5,0.7,0.8,0.9c0.3,0.2,0.7,0.3,1.2,0.3
						c0.4,0,0.8-0.1,1.2-0.3c0.3-0.2,0.6-0.5,0.8-0.9c0.2-0.4,0.3-0.8,0.3-1.3c0-0.5-0.1-1-0.3-1.3c-0.2-0.4-0.5-0.7-0.8-0.9
						c-0.4-0.2-0.8-0.3-1.2-0.3C210.7,70.1,210.3,70.2,210,70.4z"/>
					<path class="st1" d="M217.3,69.4v3.9c0,0.7,0.1,1.1,0.4,1.4c0.3,0.3,0.7,0.5,1.2,0.5c0.5,0,0.9-0.2,1.1-0.5
						c0.3-0.3,0.4-0.8,0.4-1.4v-3.9h0.8v3.9c0,0.9-0.2,1.6-0.7,2c-0.4,0.5-1,0.7-1.7,0.7c-0.7,0-1.3-0.2-1.8-0.7
						c-0.4-0.4-0.7-1.1-0.7-2v-3.9H217.3z"/>
					<path class="st1" d="M227.1,75.8l-1.7-2.6h-0.9v2.6h-0.8v-6.4h2.1c0.7,0,1.3,0.2,1.6,0.5c0.3,0.3,0.5,0.8,0.5,1.4
						c0,0.5-0.1,0.9-0.5,1.3c-0.3,0.3-0.7,0.5-1.2,0.6l1.7,2.6H227.1z M224.5,72.6L224.5,72.6h1.2c0.9,0,1.4-0.4,1.4-1.2
						c0-0.9-0.5-1.2-1.4-1.2h-1.2V72.6z"/>
					<path class="st1" d="M234.8,69.9c0.5,0.4,0.9,0.9,1,1.6H235c-0.1-0.4-0.4-0.8-0.8-1c-0.4-0.3-0.8-0.4-1.3-0.4
						c-0.4,0-0.8,0.1-1.1,0.3c-0.3,0.2-0.6,0.5-0.8,0.9c-0.2,0.4-0.3,0.8-0.3,1.3c0,0.5,0.1,0.9,0.3,1.3c0.2,0.4,0.5,0.7,0.8,0.9
						c0.3,0.2,0.7,0.3,1.1,0.3c0.5,0,1-0.1,1.3-0.4s0.7-0.6,0.8-1h0.9c-0.2,0.7-0.5,1.2-1,1.6c-0.5,0.4-1.2,0.6-2,0.6
						c-0.6,0-1.1-0.1-1.6-0.4c-0.5-0.3-0.8-0.7-1.1-1.1c-0.3-0.5-0.4-1.1-0.4-1.7c0-0.7,0.1-1.2,0.4-1.7c0.3-0.5,0.6-0.9,1.1-1.2
						c0.5-0.3,1-0.4,1.6-0.4C233.7,69.3,234.3,69.5,234.8,69.9z"/>
					<polygon class="st1" points="238.9,70 238.9,72.3 241.4,72.3 241.4,72.9 238.9,72.9 238.9,75.1 241.6,75.1 241.6,75.8 
						238.1,75.8 238.1,69.4 241.6,69.4 241.6,70 					"/>
					<path class="st1" d="M247.7,75c-0.1,0.3-0.4,0.5-0.7,0.7c-0.3,0.1-0.7,0.2-1.1,0.2s-0.8-0.1-1.1-0.2c-0.3-0.1-0.6-0.4-0.8-0.6
						c-0.2-0.3-0.3-0.6-0.4-0.9h0.9c0,0.2,0.1,0.4,0.2,0.5c0.1,0.2,0.3,0.3,0.5,0.4s0.5,0.2,0.7,0.2c0.3,0,0.6-0.1,0.8-0.3
						c0.2-0.2,0.3-0.5,0.3-0.8c0-0.3-0.1-0.5-0.2-0.6s-0.3-0.3-0.5-0.4c-0.2-0.1-0.5-0.2-0.8-0.3c-0.4-0.1-0.7-0.3-1-0.4
						c-0.3-0.1-0.5-0.3-0.6-0.5c-0.2-0.2-0.3-0.5-0.3-0.9c0-0.3,0.1-0.6,0.2-0.9c0.2-0.3,0.4-0.5,0.7-0.6c0.3-0.1,0.7-0.2,1.1-0.2
						c0.6,0,1.1,0.1,1.5,0.5c0.4,0.3,0.6,0.7,0.7,1.2h-0.9c0-0.3-0.2-0.5-0.4-0.7c-0.2-0.2-0.5-0.3-0.9-0.3c-0.3,0-0.6,0.1-0.8,0.3
						c-0.2,0.2-0.3,0.4-0.3,0.7c0,0.3,0.1,0.5,0.2,0.6c0.1,0.2,0.3,0.3,0.5,0.4c0.2,0.1,0.5,0.2,0.8,0.3c0.4,0.1,0.8,0.3,1,0.4
						c0.3,0.1,0.5,0.3,0.6,0.6c0.2,0.2,0.3,0.6,0.3,1C247.9,74.4,247.8,74.7,247.7,75z"/>
				</g>
				<g>
					<polygon class="st1" points="260.1,69.5 260.1,75.8 259.3,75.8 259.3,70.7 257.2,75.8 256.5,75.8 254.5,70.8 254.5,75.8 
						253.7,75.8 253.7,69.5 254.7,69.5 256.9,74.8 259.1,69.5 					"/>
					<path class="st1" d="M266.3,74.3h-2.8l-0.5,1.5H262l2.4-6.3h0.9l2.4,6.3h-0.9L266.3,74.3z M266.1,73.7L266.1,73.7l-1.2-3.3
						l-1.2,3.3H266.1z"/>
					<polygon class="st1" points="274.6,75.8 273.8,75.8 270.5,70.7 270.5,75.8 269.7,75.8 269.7,69.4 270.5,69.4 273.8,74.5 
						273.8,69.4 274.6,69.4 					"/>
					<path class="st1" d="M280.8,74.3H278l-0.5,1.5h-0.9l2.4-6.3h0.9l2.4,6.3h-0.9L280.8,74.3z M280.6,73.7L280.6,73.7l-1.2-3.3
						l-1.2,3.3H280.6z"/>
					<path class="st1" d="M289,69.9c0.5,0.4,0.9,0.9,1,1.5h-0.9c-0.1-0.4-0.4-0.7-0.8-0.9c-0.3-0.2-0.8-0.3-1.2-0.3
						c-0.4,0-0.8,0.1-1.2,0.3c-0.3,0.2-0.6,0.5-0.8,0.9c-0.2,0.4-0.3,0.8-0.3,1.3c0,0.5,0.1,1,0.3,1.4c0.2,0.4,0.5,0.7,0.8,0.9
						c0.4,0.2,0.8,0.3,1.2,0.3c0.4,0,0.7-0.1,1.1-0.3c0.3-0.2,0.6-0.4,0.8-0.7c0.2-0.3,0.3-0.7,0.4-1.1h-2.5v-0.6h3.2v0.8
						c-0.1,0.5-0.2,1-0.5,1.4c-0.3,0.4-0.6,0.7-1.1,1c-0.4,0.2-0.9,0.3-1.5,0.3c-0.6,0-1.2-0.1-1.6-0.4c-0.5-0.3-0.9-0.7-1.1-1.2
						c-0.3-0.5-0.4-1.1-0.4-1.7c0-0.7,0.1-1.2,0.4-1.7c0.3-0.5,0.6-0.9,1.1-1.2c0.5-0.3,1-0.4,1.6-0.4
						C287.9,69.3,288.5,69.5,289,69.9z"/>
					<polygon class="st1" points="293.2,70 293.2,72.3 295.6,72.3 295.6,72.9 293.2,72.9 293.2,75.1 295.9,75.1 295.9,75.8 
						292.4,75.8 292.4,69.4 295.9,69.4 295.9,70 					"/>
					<polygon class="st1" points="304.5,69.5 304.5,75.8 303.7,75.8 303.7,70.7 301.7,75.8 300.9,75.8 298.9,70.8 298.9,75.8 
						298.1,75.8 298.1,69.5 299.1,69.5 301.3,74.8 303.5,69.5 					"/>
					<polygon class="st1" points="307.7,70 307.7,72.3 310.2,72.3 310.2,72.9 307.7,72.9 307.7,75.1 310.5,75.1 310.5,75.8 
						306.9,75.8 306.9,69.4 310.5,69.4 310.5,70 					"/>
					<polygon class="st1" points="317.6,75.8 316.8,75.8 313.5,70.7 313.5,75.8 312.6,75.8 312.6,69.4 313.5,69.4 316.8,74.5 
						316.8,69.4 317.6,69.4 					"/>
					<polygon class="st1" points="324,69.4 324,70 322.2,70 322.2,75.8 321.4,75.8 321.4,70 319.5,70 319.5,69.4 					"/>
				</g>
			</g>
			<g>
				<path class="st0" d="M321.9,21.1c0.7,0.4,1.2,0.9,1.5,1.5c0.4,0.7,0.5,1.4,0.5,2.2c0,0.8-0.2,1.5-0.5,2.2
					c-0.4,0.6-0.9,1.1-1.5,1.5c-0.7,0.3-1.4,0.5-2.2,0.5c-0.8,0-1.6-0.2-2.2-0.5c-0.7-0.4-1.2-0.9-1.5-1.5c-0.3-0.7-0.5-1.4-0.5-2.2
					c0-0.8,0.2-1.6,0.5-2.2c0.4-0.6,0.9-1.1,1.5-1.5c0.7-0.4,1.4-0.5,2.2-0.5C320.5,20.5,321.2,20.7,321.9,21.1z M321.6,27.9
					L321.6,27.9c0.6-0.3,1-0.7,1.3-1.2c0.3-0.5,0.5-1.2,0.5-1.9c0-0.7-0.1-1.4-0.5-1.9c-0.3-0.5-0.7-1-1.2-1.2
					c-0.6-0.3-1.2-0.5-2-0.5s-1.4,0.1-1.9,0.5c-0.6,0.3-1,0.7-1.3,1.2c-0.3,0.5-0.4,1.2-0.4,1.9c0,0.7,0.1,1.3,0.4,1.9
					c0.3,0.5,0.7,1,1.3,1.2c0.5,0.3,1.2,0.5,1.9,0.5S321,28.2,321.6,27.9z M321.5,24.6L321.5,24.6c-0.2,0.3-0.5,0.4-0.9,0.5l1.2,2
					h-1.4l-1.1-2h-0.2v2h-1.2v-5h2c0.6,0,1.1,0.1,1.4,0.5c0.3,0.3,0.5,0.7,0.5,1.1C321.8,24,321.7,24.3,321.5,24.6z M319.1,24.4
					L319.1,24.4h0.7c0.5,0,0.7-0.2,0.7-0.6c0-0.4-0.2-0.6-0.7-0.6h-0.7V24.4z"/>
			</g>
		</g>
	</g>
</g>
<g id="Layer_2" class="st3">
	
		<image style="display:inline;overflow:visible;" width="8192" height="912" xlink:href="../logos,svg/Check_n_Track-Blue-and-Green.png"  transform="matrix(4.849685e-02 0 0 4.671475e-02 6.655 18.7059)">
	</image>
</g>
<g id="Layer_3" class="st3">
	<g id="Layer_x0020_1_1_" class="st4">
		<g id="_568370712">
			<path class="st5" d="M276.6,49.5c-2,0-3.9,0-5.9,0c0-1.7,0-3.5,0-5.2c3.7,0,7.4,0,11.1,0c0,5.6,0,11.2,0,16.8
				c-0.3,0.1-3.6,0.1-4.6,0c0-0.5-0.1-1-0.1-1.5c0-0.5-0.1-1-0.1-1.5c-0.1,0.1-0.1,0.1-0.1,0.1c-0.8,1.6-2.1,2.6-3.8,3.2
				c-2.8,1-5.5,1.1-8.3-0.2c-1.7-0.8-3.1-2.1-4.3-3.7c-1.5-1.9-2.4-4.2-3-6.5c-0.7-2.6-0.8-5.3-0.6-8c0.2-2.4,0.7-4.7,1.7-6.9
				c0.9-2,2.1-3.7,3.9-5c1.8-1.4,3.8-2.2,6.1-2.4c1.9-0.2,3.9,0,5.7,0.7c3.9,1.5,6.3,4.4,7.1,8.5c0.1,0.5,0.1,1,0.2,1.5
				c-1.9,0-3.7,0-5.6,0c0-0.1-0.1-0.3-0.1-0.5c-0.6-2.5-2.1-4-4.6-4.6c-2.4-0.6-4.4,0.1-6,1.9c-1.1,1.2-1.8,2.7-2.2,4.3
				c-0.6,2.3-0.7,4.6-0.5,7c0.1,1.6,0.5,3.2,1.2,4.7c0.5,1.1,1.1,2,2,2.9c2.2,2.2,5.7,2.2,7.9,0.4c1.5-1.2,2.4-2.7,2.7-4.6
				c0.1-0.3,0.1-0.7,0.1-1C276.6,49.7,276.6,49.6,276.6,49.5z"/>
			<path class="st5" d="M131.8,45.9c0,2.2-0.2,4.4-0.7,6.6c-0.3,1.4-0.8,2.7-1.5,3.9c-1.5,2.8-3.8,4.6-6.9,5.3
				c-2.5,0.6-5,0.6-7.5-0.1c-2.8-0.8-5-2.5-6.5-5c-1-1.6-1.6-3.4-2-5.2c-0.5-2.5-0.6-5-0.5-7.5c0.1-2.1,0.4-4.1,1-6.2
				c0.6-1.9,1.5-3.7,2.8-5.3c1.7-2,3.9-3.2,6.4-3.6c2.1-0.4,4.1-0.3,6.2,0.3c2.8,0.8,5,2.5,6.4,5c1,1.7,1.6,3.5,2,5.3
				C131.6,41.6,131.8,43.7,131.8,45.9z M126.3,45.7L126.3,45.7c0-1.6-0.1-3.2-0.5-4.8c-0.3-1.3-0.8-2.6-1.5-3.7
				c-0.8-1.1-1.9-1.9-3.2-2.3c-0.8-0.3-1.7-0.3-2.5-0.3c-1.9,0.1-3.4,0.9-4.5,2.4c-0.4,0.6-0.8,1.1-1,1.7c-0.7,1.6-1,3.2-1.1,4.9
				c-0.1,1.8-0.1,3.5,0.1,5.3c0.1,1.3,0.4,2.5,0.9,3.7c0.8,1.7,1.9,3,3.7,3.7c0.6,0.2,1.2,0.3,1.9,0.4c2.2,0.1,4.1-0.6,5.5-2.3
				c0.8-1,1.3-2.1,1.7-3.3C126.1,49.2,126.3,47.5,126.3,45.7z"/>
			<path class="st5" d="M335.2,45.4c0,2.8-0.2,5.1-0.8,7.3c-0.4,1.5-1,3-1.8,4.4c-1.5,2.3-3.5,3.8-6.2,4.5c-2.5,0.7-5.1,0.7-7.6,0.1
				c-3.2-0.8-5.5-2.7-7-5.6c-0.9-1.6-1.4-3.3-1.7-5.1c-0.5-2.7-0.6-5.4-0.3-8.1c0.2-2.3,0.6-4.4,1.4-6.6c0.7-1.7,1.7-3.3,3-4.6
				c1.7-1.7,3.8-2.7,6.2-3c1.9-0.3,3.7-0.2,5.5,0.3c3,0.8,5.3,2.6,6.8,5.3c1,1.7,1.6,3.6,2,5.5C335,41.9,335.2,43.9,335.2,45.4z
				 M329.6,45.7L329.6,45.7c0-1.6-0.1-3.3-0.5-4.9c-0.3-1.3-0.8-2.6-1.5-3.7c-0.8-1.2-1.9-2-3.2-2.4c-0.8-0.3-1.7-0.3-2.6-0.3
				c-1.9,0.1-3.4,0.9-4.5,2.4c-0.4,0.5-0.7,1.1-1,1.7c-0.7,1.5-1,3.2-1.1,4.8c-0.2,1.8-0.1,3.6,0.1,5.4c0.1,1.2,0.4,2.5,0.9,3.6
				c1.5,3.5,4.8,4.5,7.7,3.9c1.9-0.4,3.2-1.5,4.2-3.2c0.5-0.8,0.8-1.7,1-2.6C329.5,49,329.7,47.4,329.6,45.7z"/>
			<path class="st5" d="M245.9,45.9c0,2.3-0.2,4.5-0.7,6.7c-0.4,1.6-1,3.1-1.9,4.5c-1.5,2.3-3.6,3.8-6.2,4.5c-2.5,0.7-5,0.7-7.5,0.1
				c-3.1-0.8-5.4-2.6-6.9-5.3c-0.9-1.6-1.5-3.4-1.8-5.2c-0.5-2.6-0.6-5.3-0.4-7.9c0.1-2.1,0.5-4.1,1.2-6c0.5-1.6,1.2-3,2.3-4.3
				c1.9-2.4,4.3-3.7,7.3-4.1c2-0.3,4-0.2,5.9,0.4c2.6,0.8,4.5,2.4,5.9,4.6c1.1,1.7,1.8,3.5,2.2,5.5
				C245.7,41.5,245.9,43.7,245.9,45.9z M240.4,45.7L240.4,45.7c0-1.7-0.1-3.4-0.5-5c-0.3-1.3-0.8-2.5-1.5-3.6
				c-0.8-1.1-1.9-1.9-3.2-2.3c-0.8-0.2-1.7-0.3-2.5-0.2c-1.8,0.1-3.3,0.8-4.4,2.3c-0.6,0.8-1.1,1.6-1.4,2.5
				c-0.5,1.4-0.8,2.8-0.9,4.2c-0.1,2.2-0.1,4.3,0.3,6.5c0.2,1.2,0.6,2.3,1.2,3.3c0.8,1.3,1.9,2.3,3.3,2.8c0.6,0.2,1.2,0.3,1.9,0.4
				c2.3,0.1,4.2-0.6,5.7-2.4c0.8-1,1.3-2.1,1.6-3.3C240.3,49.1,240.4,47.4,240.4,45.7z"/>
			<path class="st5" d="M151.1,46.1c0.3,0.1,0.6,0.3,0.9,0.4c1.1,0.7,1.8,1.7,2,2.9c0.2,0.8,0.2,1.6,0.2,2.4c0,3,0,6,0,9
				c0,0.1,0,0.1,0,0.2c-1.8,0-3.6,0-5.5,0c0-0.1,0-0.3,0-0.4c0-2.5,0-5,0-7.5c0-0.7,0-1.3-0.2-1.9c-0.3-1.3-1.1-2-2.4-2.2
				c-0.5-0.1-1-0.1-1.5-0.1c-1.9,0-3.9,0-5.8,0c-0.1,0-0.1,0-0.3,0c0,4.1,0,8.2,0,12.2c-1.8,0-3.6,0-5.4,0c-0.1-0.3-0.1-30.6,0-31.3
				c0.1,0,0.3,0,0.4,0c4.4,0,8.7,0,13.1,0c3.4,0,6.5,2,7.6,5.5c0.8,2.4,0.8,4.9-0.1,7.3c-0.6,1.4-1.5,2.6-2.8,3.3
				C151.4,45.9,151.3,46,151.1,46.1C151.2,46,151.2,46,151.1,46.1z M138.7,35.2L138.7,35.2c0,2.8,0,5.5,0,8.3c0.1,0,0.2,0,0.3,0
				c2.3,0,4.6,0,6.9,0c0.3,0,0.7,0,1-0.1c1.2-0.2,2-0.8,2.5-2c0.2-0.5,0.3-1,0.4-1.6c0.1-1.2-0.1-2.3-0.7-3.2
				c-0.3-0.6-0.9-1-1.5-1.2c-0.5-0.2-1.1-0.3-1.7-0.2c-2.3,0-4.6,0-6.8,0C139,35.2,138.9,35.2,138.7,35.2z"/>
			<path class="st5" d="M292.4,48.8c0,4.1,0,8.2,0,12.2c-0.3,0.1-4.6,0.1-5.4,0c-0.1-0.3-0.1-30.5-0.1-31.3c0.1,0,0.3,0,0.4,0
				c4.4,0,8.7,0,13.1,0c3.5,0,6.6,2.1,7.7,5.6c0.8,2.4,0.8,4.9-0.2,7.3c-0.6,1.5-1.6,2.7-3.1,3.4c0,0-0.1,0.1-0.1,0.1
				c0.1,0.1,0.1,0.1,0.2,0.1c1.6,0.7,2.5,1.9,2.8,3.5c0.1,0.8,0.2,1.6,0.2,2.4c0,2.9,0,5.8,0,8.6c0,0.1,0,0.2,0,0.3
				c-1.8,0-3.6,0-5.5,0c0-0.1,0-0.3,0-0.4c0-2.5,0-5,0-7.4c0-0.7,0-1.3-0.2-2c-0.1-0.3-0.1-0.5-0.2-0.7c-0.3-0.7-0.8-1.1-1.4-1.4
				c-0.7-0.3-1.3-0.3-2-0.3c-2,0-4.1,0-6.1,0C292.4,48.8,292.4,48.8,292.4,48.8z M292.4,35.2L292.4,35.2c0,2.8,0,5.5,0,8.3
				c0.1,0,0.2,0,0.3,0c2.3,0,4.6,0,6.8,0c0.3,0,0.7,0,1-0.1c1.2-0.2,2-0.8,2.5-1.9c0.2-0.5,0.3-0.9,0.4-1.4c0.1-1,0-2.1-0.4-3
				c-0.5-1-1.2-1.6-2.4-1.8c-0.3-0.1-0.7-0.1-1.1-0.1c-2.3,0-4.5,0-6.8,0C292.6,35.2,292.5,35.2,292.4,35.2z"/>
			<path class="st5" d="M156.3,29.8c6.5,0,13.1,0,19.6,0c0,1.8,0,3.6,0,5.4c-4.7,0-9.4,0-14.1,0c0,2.3,0,4.5,0,6.7
				c4.3,0,8.6,0,12.9,0c0.1,0.3,0.1,4.6,0.1,5.5c-4.3,0-8.6,0-13,0c-0.1,0.3-0.1,7.6,0,8.1c4.9,0,9.8,0,14.8,0c0,1.9,0,3.7,0,5.5
				c-6.7,0-13.5,0-20.2,0C156.3,50.6,156.3,40.2,156.3,29.8z"/>
			<path class="st5" d="M336.7,29.8c1.9,0,3.8,0,5.7,0c0,0.1,0,0.3,0,0.5c0,6.7,0,13.3,0,20.1c0,1,0.1,2.1,0.4,3.1
				c0.2,0.6,0.4,1.1,0.8,1.5c0.7,1,1.7,1.6,3,1.8c0.8,0.1,1.6,0,2.4-0.2c1.6-0.4,2.6-1.4,3.2-3c0.3-0.8,0.4-1.7,0.4-2.7
				c0-0.3,0-0.5,0-0.8c0-6.6,0-13.3,0-19.9c0-0.1,0-0.3,0-0.5c1.9,0,3.8,0,5.7,0c0,0.1,0,0.2,0,0.3c0,7,0,14,0,20.9
				c0,1.6-0.2,3.1-0.7,4.6c-1,3.2-3.2,5.3-6.5,6.2c-1.7,0.5-3.4,0.6-5.2,0.4c-1.2-0.1-2.4-0.3-3.4-0.8c-2.8-1.1-4.5-3.2-5.2-6.1
				c-0.3-1.3-0.5-2.7-0.5-4.1c0-7.1,0-14.1,0-21.1C336.7,30,336.7,29.9,336.7,29.8z"/>
			<path class="st5" d="M365.6,49.7c0,3.8,0,7.6,0,11.4c-1.9,0-3.7,0-5.6,0c0-10.4,0-20.9,0-31.3c0.1,0,0.2,0,0.3,0
				c3.9,0,7.8,0,11.7,0c2.6,0,4.7,1.2,6.2,3.2c1,1.3,1.6,2.8,1.9,4.5c0.4,2.2,0.3,4.4-0.4,6.5c-0.7,2.1-2,3.8-4.1,4.9
				c-1.1,0.6-2.4,0.9-3.7,0.9c-2,0-3.9,0-5.9,0C365.9,49.7,365.8,49.7,365.6,49.7z M365.6,44.4L365.6,44.4c0.2,0,0.3,0,0.4,0
				c1.5,0,3,0,4.6,0c0.4,0,0.7,0,1.1,0c1.6-0.1,2.8-0.9,3.4-2.5c0.5-1.3,0.5-2.7,0.1-4c-0.4-1.4-1.4-2.3-2.8-2.6
				c-0.4-0.1-0.8-0.1-1.3-0.1c-1.7,0-3.4,0-5.1,0c-0.1,0-0.2,0-0.3,0C365.6,38.3,365.6,41.3,365.6,44.4z"/>
			<path class="st5" d="M79.1,29.8c6.3,0,12.6,0,18.9,0c0,1.8,0,3.6,0,5.4c-1.5,0-3,0-4.4,0s-3,0-4.4,0s-3,0-4.5,0
				c0,2.4,0,4.7,0,7.1c3.9,0,7.8,0,11.7,0c0,1.8,0,3.7,0,5.5c-0.4,0-0.8,0-1.2,0c-0.4,0-0.9,0-1.3,0c-0.4,0-0.8,0-1.3,0
				c-0.4,0-0.9,0-1.3,0c-0.4,0-0.8,0-1.3,0c-0.4,0-0.9,0-1.3,0c-0.4,0-0.9,0-1.3,0c-0.4,0-0.9,0-1.3,0c-0.4,0-0.9,0-1.3,0
				c0,4.4,0,8.8,0,13.2c-1.9,0-3.7,0-5.5,0C79.1,50.6,79.1,40.2,79.1,29.8z"/>
			<path class="st5" d="M198.4,29.8c0,1.8,0,3.6,0,5.4c-2.7,0-5.3,0-8,0c0,8.6,0,17.3,0,25.9c-1.9,0-3.7,0-5.6,0
				c0-8.6,0-17.2,0-25.9c-2.7,0-5.3,0-8,0c0-1.8,0-3.6,0-5.5C183.9,29.8,191.2,29.8,198.4,29.8z"/>
			<path class="st5" d="M212.7,35.2c0,8.7,0,17.3,0,25.9c-1.9,0-3.7,0-5.6,0c-0.1-0.9,0-1.9,0-2.8c0-1,0-1.9,0-2.9c0-1,0-1.9,0-2.8
				s0-1.9,0-2.9c0-1,0-1.9,0-2.9c0-1,0-1.9,0-2.9c0-1,0-1.9,0-2.8s0-1.9,0-2.9s0-1.9,0-2.9c-2.7,0-5.3,0-8,0c0-1.8,0-3.6,0-5.5
				c7.2,0,14.4,0,21.6,0c0,1.8,0,3.6,0,5.4C218.1,35.2,215.4,35.2,212.7,35.2z"/>
			<path class="st5" d="M104.7,61.1c-1.9,0-3.7,0-5.5,0c-0.1-0.3-0.1-30.9,0-31.3c1.8,0,3.7,0,5.5,0
				C104.7,40.2,104.7,50.6,104.7,61.1z"/>
			<path class="st6" d="M387.3,34.7c-4,0-7.2-3.2-7.2-7.3c0-4,3.2-7.2,7.2-7.2c4,0,7.3,3.2,7.3,7.3
				C394.5,31.5,391.3,34.7,387.3,34.7z M387.3,21.4L387.3,21.4c-3.4,0-6.1,2.7-6.1,6.1s2.7,6.1,6.1,6.1c3.4,0,6.1-2.7,6.1-6.1
				C393.3,24.1,390.6,21.4,387.3,21.4z"/>
			<path class="st6" d="M389.2,27.3c0.7,0.2,0.8,0.7,0.8,1.2c0,0.6,0,1.2,0,1.9c-0.5,0-0.9,0-1.4,0c0-0.2,0-0.3,0-0.6
				c0-0.4,0-0.8,0-1.2c0-0.6-0.2-0.8-0.8-0.8c-0.6,0-1.1,0-1.7,0c0,0.8,0,1.7,0,2.6c-0.5,0-0.9,0-1.3,0c0-2.2,0-4.4,0-6.6
				c0.1,0,0.2,0,0.3,0c1,0,2,0,3,0c0.3,0,0.5,0,0.8,0.1c1.2,0.3,1.6,1.7,1.2,2.6C389.9,26.9,389.7,27.1,389.2,27.3z M386.2,26.8
				L386.2,26.8c0.5,0,1,0,1.4,0c0.2,0,0.4,0,0.6,0c0.5-0.1,0.8-0.4,0.8-0.9c0-0.5-0.3-0.8-0.8-0.8c-0.1,0-0.2,0-0.3,0
				c-0.5,0-1,0-1.5,0c-0.1,0-0.2,0-0.3,0C386.2,25.6,386.2,26.2,386.2,26.8z"/>
			<path class="st7" d="M49.8,28.5h5.3h17.3l-4.5,6.2H55.3v7.9h6.6v6.3h-6.6v14.9h-5.5v-29V28.5z M43.3,28.5H26l4.5,6.2h12.6v7.9
				h-6.6v6.3h6.6v9.3l5.5,5.6v-29v-6.2H43.3z"/>
		</g>
	</g>
</g>
<g id="Layer_4" class="st3">
	<g id="Layer_x0020_1_2_" class="st4">
		<g id="_340153784">
			<g>
				<path class="st8" d="M276.7,30.5c0-0.2,0-0.3,0-0.4c0.2,0,0.4,0,0.6,0c4.1,0,8.1,0,12.2,0c2,0,3.8,0.3,5.6,1.1
					c1.4,0.6,2.6,1.5,3.4,2.8c1.5,2.3,1.8,4.8,0.5,7.3c-0.5,0.9-1.2,1.7-2,2.3c-1,0.8-2.3,1.3-3.5,1.6c-0.3,0.1-0.5,0.1-0.8,0.2
					c-0.1,0-0.1,0.1-0.2,0.1c0.1,0.1,0.3,0.2,0.4,0.3c1.4,0.7,2.6,1.7,3.7,2.9c0.6,0.7,1.2,1.5,1.8,2.2c1.1,1.5,2.2,3.1,3.3,4.7
					c0.8,1.1,1.6,2.2,2.5,3.1c0.8,0.8,1.8,1.4,3,1.6c0.2,0,0.4,0.1,0.5,0.1c0,0,0,0.1,0,0.2c-0.7,0.1-4.4,0.1-6.6,0
					c-0.6-0.7-1.3-1.4-1.9-2.2c-1.8-2.4-3.5-4.8-5.2-7.2c-0.5-0.7-1-1.3-1.6-2c-0.8-0.9-1.6-1.6-2.6-2.2c-1.6-1-3.4-1.4-5.3-1.4
					c0,0-0.1,0-0.2,0.1c0,0.2,0,0.5,0,0.8c0,3.3,0,6.7,0,10c0,0.4,0,0.8,0.1,1.2c0.2,1,0.7,1.7,1.6,2.1c0.4,0.1,0.7,0.2,1.1,0.3
					c0.3,0.1,0.6,0.1,0.9,0.1c0.1,0,0.1,0.1,0.2,0.3c-0.2,0-0.3,0-0.5,0c-4,0.1-10.3,0-11.1-0.1c0-0.1,0.1-0.2,0.1-0.2
					c0.2-0.1,0.5-0.1,0.8-0.1c0.4-0.1,0.7-0.1,1.1-0.3c1.1-0.5,1.7-1.2,1.8-2.4c0-0.3,0-0.7,0-1c0-7.4,0-14.8,0-22.2
					c0-0.4,0-0.7,0-1.1c-0.1-1.1-0.6-1.8-1.6-2.3c-0.5-0.2-1-0.4-1.6-0.4C277.2,30.5,277,30.5,276.7,30.5z M284.3,45L284.3,45
					c0.7,0,1.4,0,2,0c1.1,0,2.3-0.1,3.4-0.3c1.1-0.2,2.2-0.5,3.2-1.1c1.3-0.8,2.1-1.9,2.5-3.4c0.2-1,0.3-2,0.1-3c-0.3-1.6-0.9-3-2-4
					c-0.9-0.8-1.8-1.4-3-1.7c-1.6-0.5-3.2-0.6-4.9-0.5c-0.4,0-0.9,0-1.4,0.2C284.3,35.7,284.3,40.3,284.3,45z"/>
				<path class="st9" d="M423,29.2c4.3,0,8.3,1.1,11.9,3.5c2,1.3,3.7,3,5,5c3,4.6,3.1,10.9-0.2,15.8c-1.4,2-3.1,3.7-5.2,5
					c-2.7,1.7-5.7,2.7-8.9,3c-3.4,0.3-6.8,0-10.1-1.2c-3.1-1.1-5.8-2.8-7.9-5.3c-1.7-2-3-4.3-3.4-6.9c-0.7-3.7-0.1-7.1,1.9-10.3
					c1.4-2.2,3.2-4,5.4-5.4c2.5-1.6,5.3-2.6,8.3-3C420.8,29.2,421.9,29.2,423,29.2z M437.8,45.5L437.8,45.5c0-1.7-0.1-3.4-0.5-5.1
					c-0.8-3.4-2.7-5.9-5.5-7.9c-0.5-0.3-1.1-0.6-1.6-0.9c-2.2-0.9-4.5-1.5-6.9-1.5c-1.9,0-3.7,0.3-5.5,0.8c-2.2,0.7-4.2,1.8-5.8,3.5
					c-1.4,1.5-2.4,3.2-3,5.1c-0.4,1.2-0.6,2.5-0.7,3.8c-0.2,2.5-0.1,4.9,0.6,7.3c1.3,4.7,4.4,7.9,9.1,9.3c3.6,1.1,7.2,1,10.8-0.1
					c4.2-1.4,6.9-4.2,8.3-8.4C437.6,49.4,437.8,47.4,437.8,45.5z"/>
				<path class="st8" d="M253.2,29.2c4.3,0,8.4,1.1,12,3.6c2.3,1.5,4.1,3.5,5.4,6c1.3,2.5,1.8,5.1,1.5,7.9c-0.3,3.6-1.9,6.6-4.3,9.1
					c-2.5,2.5-5.4,4.2-8.8,5.1c-4.9,1.3-9.7,1-14.3-0.8c-2.9-1.2-5.4-2.9-7.4-5.4c-1.5-1.8-2.6-3.9-3.1-6.2
					c-0.8-3.8-0.2-7.3,1.8-10.6c1-1.6,2.3-3,3.8-4.2c2.9-2.3,6.2-3.6,9.8-4.2C250.8,29.2,252,29.2,253.2,29.2z M238.3,45.4
					L238.3,45.4c0,1.6,0.1,3.3,0.6,4.9c1.3,4.9,4.4,8.1,9.2,9.6c3.6,1.1,7.3,1,11-0.2c1.9-0.6,3.5-1.6,4.9-3
					c1.7-1.7,2.8-3.7,3.4-5.9c0.9-3.5,0.9-7,0-10.5c-0.8-3.2-2.6-5.7-5.3-7.6c-0.6-0.4-1.2-0.8-1.8-1c-2.2-1-4.5-1.5-6.9-1.5
					c-1.6,0-3.2,0.2-4.7,0.6c-4.6,1.2-7.8,4.1-9.4,8.6C238.5,41.3,238.3,43.3,238.3,45.4z"/>
				<path class="st8" d="M317.6,45c0.2,0,0.5,0,0.7,0c2,0,3.9,0,5.9,0c1,0,2.1-0.1,3.1-0.4c1.2-0.3,1.9-1,2.1-2.3c0-0.1,0-0.2,0-0.2
					c0.1-0.1,0.2-0.1,0.3-0.1c0,0.1,0.1,0.2,0.1,0.3c0,2.1,0,4.1,0,6.2c0,0.2,0,0.3-0.1,0.4c-0.1,0-0.2-0.1-0.3-0.4
					c-0.1-0.4-0.3-0.9-0.5-1.2c-0.5-0.6-1.2-1.1-2-1.2c-0.7-0.1-1.4-0.1-2-0.1c-2.3,0-4.5,0-6.8,0c-0.1,0-0.3,0-0.3,0
					c-0.2,0.1-0.2,0.3-0.2,0.5c0,3.4,0,6.9,0,10.3c0,0.6,0.1,1.3,0.4,1.8c0.3,0.6,0.7,1,1.3,1.1c0.4,0.1,0.8,0.2,1.2,0.2
					c2.1,0,4.1,0,6.2,0c0.8,0,1.5-0.1,2.3-0.3c1.3-0.4,2.3-1.1,2.9-2.2c0.2-0.4,0.4-0.7,0.6-1.1c0-0.1,0.2-0.1,0.3-0.2
					c0,0.1,0.1,0.1,0.1,0.2c-0.4,1.5-0.8,3-1.2,4.5c-0.8,0.1-15.9,0.2-21.2,0.1c-0.1,0-0.3,0-0.5,0c0-0.1,0-0.2,0.1-0.2
					c0.1,0,0.3,0,0.5,0c0.8,0,1.4-0.3,2-0.7c0.7-0.4,1-1,1.2-1.8c0-0.3,0.1-0.7,0.1-1c0-7.6,0-15.2,0-22.8c0-0.7-0.1-1.5-0.5-2.1
					c-0.4-0.8-1-1.3-1.9-1.4c-0.5-0.1-0.9-0.1-1.4-0.2c0-0.1,0-0.1,0-0.2c0.7-0.1,20.9-0.1,21.6,0c0,0.1,0,0.2,0,0.4
					c0,1.3,0,2.6,0,3.9c0,0.1,0,0.3-0.1,0.4c0,0-0.2,0-0.2,0c-0.1-0.1-0.1-0.2-0.1-0.3c-0.1-1.5-1-2.4-2.3-3
					c-0.9-0.4-1.8-0.5-2.8-0.5c-0.4,0-0.8,0-1.3,0c-2.1,0-4.3,0-6.4,0c-0.3,0-0.5,0-0.8,0c0,0.1-0.1,0.2-0.1,0.3c0,4.4,0,8.9,0,13.4
					C317.5,44.7,317.5,44.8,317.6,45z"/>
				<path class="st10" d="M348.7,31.3c-0.1,0-0.3,0-0.5,0c-2.3,0-4.5,0-6.8,0c-1.1,0-2.3,0.1-3.3,0.5c-0.3,0.1-0.5,0.2-0.7,0.3
					c-0.8,0.3-1.3,0.9-1.7,1.6c-0.2,0.5-0.4,1-0.5,1.6c0,0.2,0,0.4-0.1,0.6c0,0.1-0.1,0.2-0.2,0.2c-0.2,0-0.2-0.1-0.2-0.3
					c0-0.1,0-0.3,0-0.4c0-2.1,0-4.1,0-6.2c0-0.2,0-0.3,0-0.5c0-0.1,0.2-0.2,0.3-0.1c0.1,0.1,0.2,0.2,0.3,0.3c0.5,0.6,1.1,1,1.9,1
					c0.6,0.1,1.2,0.1,1.7,0.1c2.1,0,4.3,0,6.4,0c5.6,0,11.3,0,16.9,0c0.4,0,0.8,0,1.3-0.1c0.9-0.1,1.8-0.5,2.4-1.1
					c0.2-0.2,0.3-0.4,0.6-0.3c0.1,0.5,0.1,6.2,0,7.4c-0.3,0.1-0.3,0.1-0.4-0.1c-0.1-0.4-0.1-0.8-0.2-1.1c-0.1-0.4-0.3-0.9-0.5-1.2
					c-0.3-0.6-0.8-1-1.4-1.3c-1-0.5-2-0.7-3-0.8c-0.3,0-0.6,0-0.9,0c-2.4,0-4.7,0-7.1,0c-0.1,0-0.3,0-0.5,0c0,0.2,0,0.4,0,0.6
					c0,8.3,0,16.6,0,24.9c0,0.4,0,0.7,0.1,1.1c0.2,1,0.7,1.6,1.6,2c0.5,0.3,1.1,0.3,1.7,0.4c0.1,0,0.3,0,0.5,0.1c0,0.1,0,0.2,0,0.2
					c-0.6,0.1-10.8,0.1-11.5,0c0-0.1,0.1-0.2,0.1-0.2c0.3-0.1,0.5-0.1,0.8-0.1c0.5-0.1,1-0.3,1.4-0.5c0.8-0.4,1.3-1.1,1.4-2
					c0-0.3,0-0.6,0-0.9c0-8.3,0-16.6,0-24.8C348.8,31.7,348.8,31.5,348.7,31.3z"/>
				<path class="st10" d="M401.5,28.6c0.1,0.9,0.1,6.8,0,7.4c-0.2,0.1-0.3,0-0.4-0.2c-0.1-0.4-0.1-0.7-0.2-1.1
					c-0.1-0.4-0.2-0.7-0.4-1c-0.4-0.8-0.9-1.3-1.7-1.7c-0.9-0.4-1.9-0.6-2.9-0.7c-0.4,0-0.8-0.1-1.2-0.1c-2.2,0-4.4,0-6.6,0
					c-0.2,0-0.4,0-0.6,0c-0.2,0.3-0.1,0.6-0.1,0.9c0,4.4,0,8.9,0,13.4c0,3.7,0,7.4,0,11.1c0,0.4,0,0.9,0.1,1.3c0.2,1,0.7,1.6,1.6,2
					c0.4,0.1,0.8,0.2,1.1,0.3c0.3,0.1,0.6,0.1,0.9,0.1c0,0,0.1,0.1,0.2,0.2c-0.1,0-0.2,0.1-0.3,0.1c-3.8,0-7.5,0-11.3,0
					c0.1-0.1,0.1-0.3,0.1-0.3c0.3-0.1,0.6-0.1,0.9-0.2c0.5-0.1,1-0.2,1.4-0.5c0.9-0.4,1.3-1.2,1.5-2.1c0-0.3,0-0.6,0-0.9
					c0-8.3,0-16.6,0-24.8c0-0.2,0-0.4,0-0.7c-0.2,0-0.3,0-0.5,0c-2.3,0-4.6,0-6.9,0c-1,0-1.9,0.1-2.8,0.4c-0.4,0.1-0.8,0.3-1.2,0.4
					c-0.8,0.3-1.3,0.9-1.7,1.7c-0.2,0.5-0.4,1-0.5,1.5c0,0.2-0.1,0.5-0.1,0.7c0,0.2-0.2,0.2-0.4,0.1c0-0.1,0-0.2,0-0.3
					c0-2.3,0-4.5,0-6.8c0-0.1,0-0.2,0-0.2c0-0.2,0.3-0.2,0.4-0.1c0.1,0.1,0.2,0.2,0.3,0.3c0.5,0.5,1,0.9,1.7,1
					c0.4,0.1,0.8,0.1,1.2,0.1s0.7,0,1.1,0c7.6,0,15.2,0,22.9,0c0.4,0,0.8,0,1.2,0c1-0.1,1.8-0.5,2.5-1.2
					C401.1,28.7,401.2,28.5,401.5,28.6z"/>
				<path class="st11" d="M192.1,30.1c7.2,0,14.4,0,21.6,0c0,0.1,0,0.3,0,0.4c0,1.3,0,2.6,0,3.9c0,0.1,0,0.2,0,0.3
					c0,0-0.1,0.1-0.1,0.1c0,0-0.1,0-0.1,0c-0.1-0.1-0.1-0.2-0.1-0.4c-0.1-0.4-0.3-0.8-0.5-1.2c-0.5-1-1.5-1.7-2.6-1.9
					c-0.5-0.1-1.1-0.2-1.6-0.2c-2.8,0-5.6,0-8.4,0c-0.1,0-0.3,0-0.5,0c0,0.2,0,0.3,0,0.5c-0.1,3.6,0,12.5,0.1,13.3
					c0.2,0,0.3,0,0.5,0c2.6,0,5.1,0,7.7,0c0.5,0,1,0,1.4-0.1c1.3-0.2,2.1-1,2.5-2.2c0-0.2,0.1-0.4,0.2-0.6c0,0,0.1-0.1,0.2-0.1
					c0,0,0.1,0.1,0.2,0.1c0,0.1,0,0.2,0,0.3c0,2,0,4,0,6c0,0.2,0,0.3-0.2,0.4c-0.1,0.1-0.2-0.1-0.3-0.3c0-0.1,0-0.2,0-0.2
					c-0.4-1.3-1.2-2.1-2.5-2.3c-0.5-0.1-1-0.1-1.5-0.1c-2.5,0-5.1,0-7.6,0c-0.1,0-0.3,0-0.4,0c-0.2,0.2-0.2,0.4-0.2,0.6
					c0,1.7,0,3.4,0,5c0,1.7,0,3.4,0,5.2c0,0.3,0,0.6,0,0.9c0.2,1.6,1.5,2.5,2.6,2.7c0.4,0.1,0.9,0.1,1.3,0.2
					c0.1,0.1,0.1,0.3-0.1,0.3c-0.2,0-0.4,0-0.5,0c-3.4,0-6.9,0-10.3,0c-0.2,0-0.4,0-0.5,0c0,0-0.1-0.1-0.1-0.2c0,0,0.1-0.1,0.1-0.1
					c0.3,0,0.7,0,1-0.1c1.5-0.2,2.6-1.4,2.7-2.9c0-0.3,0-0.5,0-0.8c0-7.4,0-14.9,0-22.3c0-0.3,0-0.6,0-0.9c-0.1-1.5-0.8-2.4-2.5-2.7
					c-0.4-0.1-0.8-0.1-1.2-0.1C192.1,30.4,192,30.3,192.1,30.1z"/>
				<path class="st8" d="M229.5,60.7c-3.9,0-7.6,0-11.4,0c-0.1-0.2-0.1-0.3,0.1-0.3c0.2-0.1,0.5-0.1,0.8-0.1
					c0.6-0.1,1.1-0.3,1.5-0.5c0.7-0.4,1.1-1,1.3-1.7c0.1-0.4,0.1-0.9,0.1-1.3c0-2.6,0-5.3,0-7.9c0-4.9,0-9.8,0-14.6
					c0-0.5,0-1-0.1-1.5c-0.1-0.8-0.6-1.4-1.4-1.7c-0.5-0.2-1-0.4-1.5-0.5c-0.2,0-0.5,0-0.8-0.1c-0.1,0-0.1-0.1-0.2-0.3
					c0.2,0,0.4,0,0.5,0c3.5,0,7,0,10.5,0c0.1,0,0.3,0,0.4,0c0,0,0.1,0.1,0.1,0.1c0,0,0,0.1-0.1,0.1c-0.2,0-0.5,0.1-0.7,0.1
					c-0.6,0-1.1,0.2-1.6,0.5c-0.9,0.5-1.3,1.2-1.4,2.1c0,0.3,0,0.6,0,1c0,7.5,0,15,0,22.6c0,0.3,0,0.6,0,1c0.1,0.9,0.5,1.6,1.3,2
					c0.5,0.3,1.1,0.6,1.7,0.7c0.2,0,0.5,0,0.7,0.1C229.4,60.4,229.4,60.6,229.5,60.7z"/>
				<path class="st12" d="M442.2,70.6c0,0.2,0,0.4,0,0.5c0,0-0.1,0-0.1,0.1c0,0,0,0-0.1,0c-31.7,0-63.5,0-95.2,0c-0.1,0-0.2,0-0.3,0
					c-0.2-0.2-0.2-0.4-0.1-0.5c0,0,0.1-0.1,0.1-0.1c0.3,0,0.5,0,0.8,0c31.3,0,62.6,0,93.9,0C441.5,70.6,441.8,70.6,442.2,70.6z"/>
				<path class="st13" d="M273.5,70.6c0,0.3,0,0.4,0,0.5c-0.1,0-0.1,0.1-0.1,0.1c-0.3,0-0.6,0-0.9,0c-26.5,0-52.9,0-79.4,0
					c-0.3,0-0.6,0-1,0c0-0.2,0-0.4,0-0.5c0.1,0,0.1-0.1,0.2-0.1c0.3,0,0.5,0,0.8,0c26.5,0,53.1,0,79.6,0
					C272.8,70.6,273.1,70.6,273.5,70.6z"/>
				<path class="st14" d="M299.1,67.9c-1.1,2.3-2,4.5-3,6.8c-0.4,0.2-0.7,0.1-1,0c-0.4-1.1-0.9-2.3-1.3-3.4
					c-0.5-1.1-0.9-2.3-1.4-3.4c-0.1,0.4-0.1,0.7-0.1,1.1c0,0.4,0,0.8,0,1.2c0,0.4,0,0.7,0,1.1c0,0.4,0,0.7,0,1.1c0,0.4,0,0.8,0,1.2
					c0,0.4,0,0.7,0,1.1c-0.4,0.2-0.7,0.2-1,0.1c0-0.2-0.1-0.3-0.1-0.5c0-2.3,0-4.6,0-6.9c0-0.7,0.1-0.8,0.8-0.8c0.1,0,0.2,0,0.2,0
					c0.5,0,0.9,0.2,1.1,0.7c0.6,1.5,1.2,3,1.8,4.5c0.2,0.4,0.3,0.8,0.5,1.3c0.1-0.2,0.2-0.4,0.3-0.5c0.7-1.7,1.4-3.4,2.1-5.1
					c0.4-0.9,0.5-1,1.6-1c0.3,0,0.5,0.2,0.5,0.5c0,0.1,0,0.3,0,0.5c0,2.2,0,4.4,0,6.6c0,0.2,0,0.4,0,0.6c-0.3,0.2-0.6,0.1-0.9,0.1
					c-0.2-0.2-0.1-0.5-0.1-0.7c0-1.8,0-3.6,0-5.3C299.1,68.4,299.1,68.2,299.1,67.9z"/>
				<path class="st15" d="M284.5,73c0.1-0.2,0.2-0.4,0.3-0.6c0.7-1.6,1.4-3.3,2.1-4.9c0.1-0.1,0.1-0.3,0.2-0.4
					c0.2-0.4,0.5-0.5,0.9-0.5c1.1,0,1.1,0.1,1.1,1c0,2.1,0,4.3,0,6.4c0,0.2,0,0.5,0,0.7c-0.4,0.2-0.7,0.2-1,0c-0.1-0.8,0-1.5,0-2.3
					c0-0.7,0-1.5,0-2.2c0-0.8,0-1.5,0-2.3c-0.3,0-0.3,0.2-0.3,0.3c-0.8,1.9-1.6,3.8-2.4,5.7c0,0,0,0.1,0,0.1
					c-0.3,0.7-0.3,0.8-1.2,0.6c-0.2-0.2-0.3-0.5-0.4-0.8c-0.7-1.7-1.4-3.4-2-5.2c-0.1-0.3-0.2-0.6-0.4-0.8c-0.1,0-0.1,0-0.1,0
					c0,0,0,0,0,0.1c0,2.2,0,4.4,0,6.5c0,0,0,0,0,0.1c-0.3,0.2-0.6,0.2-1,0c0-0.2,0-0.3,0-0.5c0-2.3,0-4.5,0-6.8
					c0-0.8,0.1-0.9,0.9-0.9c0.1,0,0.3,0,0.4,0c0.4,0,0.6,0.2,0.8,0.6c0.1,0.1,0.1,0.3,0.2,0.4c0.6,1.6,1.3,3.2,1.9,4.8
					C284.2,72.5,284.3,72.8,284.5,73z"/>
				<path class="st16" d="M342,72.9c0-2.1,0-4.1,0-6.2c0,0,0,0,0-0.1c0.4-0.2,0.4-0.2,0.9,0c0,0.1,0,0.3,0,0.4c0,2.3,0,4.6,0,6.9
					c0,0.8-0.3,0.8-0.9,0.8c-0.3,0-0.5-0.1-0.6-0.3c-0.1-0.2-0.3-0.4-0.4-0.7c-1-1.8-2-3.6-3-5.4c-0.1-0.1-0.1-0.2-0.2-0.3
					c0,0-0.1,0-0.1,0c0,0,0,0,0,0c0,2.1,0,4.3,0,6.4c-0.3,0.2-0.6,0.2-1,0.1c0-0.2-0.1-0.3-0.1-0.5c0-2.3,0-4.6,0-6.9
					c0-0.1,0-0.2,0-0.3c0-0.4,0.2-0.5,0.5-0.5c0.1,0,0.3,0,0.4,0c0.4,0,0.6,0.1,0.8,0.5c0.1,0.2,0.2,0.4,0.3,0.5
					c1,1.7,1.9,3.4,2.8,5.1c0,0.1,0.1,0.2,0.2,0.3C341.9,72.9,341.9,72.9,342,72.9z"/>
				<path class="st17" d="M315.1,70.3c0.2,0.1,0.3,0.2,0.5,0.3c1.3,0.7,1.3,2.8,0,3.7c-0.5,0.3-1,0.5-1.5,0.5c-0.8,0-1.7,0-2.5,0
					c-0.4,0-0.5-0.1-0.5-0.5c0-0.1,0-0.3,0-0.4c0-2.1,0-4.3,0-6.4c0-0.9,0-0.9,1-0.9c0.6,0,1.1,0,1.7,0c0.3,0,0.7,0.1,1,0.2
					c1.3,0.5,1.7,2,0.9,3.1C315.5,70,315.4,70.1,315.1,70.3z M312.2,73.8L312.2,73.8c0.7,0,1.4,0.1,2,0c0.8-0.1,1.3-0.8,1.1-1.6
					c-0.1-0.6-0.5-1-1.1-1.2c-0.7-0.1-1.3-0.1-2,0C312.2,71.9,312.2,72.8,312.2,73.8z M312.2,70L312.2,70c0.5,0,1,0,1.4,0
					c0.9,0,1.4-0.8,1.2-1.6c-0.1-0.4-0.2-0.7-0.5-0.8c-0.3-0.1-0.6-0.2-0.9-0.2c-0.4,0-0.8-0.1-1.2,0.1
					C312.2,68.3,312.2,69.1,312.2,70z"/>
				<path class="st18" d="M309.4,70.9c-0.1,0.4-0.1,1-0.3,1.5c-0.4,1.4-1.4,2.2-2.8,2.4c-0.7,0.1-1.4,0.1-2.1-0.1
					c-0.9-0.3-1.6-0.9-1.9-1.8c-0.5-1.5-0.5-3,0-4.5c0.4-1,1.1-1.7,2.2-1.9c0.8-0.2,1.7-0.2,2.5,0c1,0.3,1.6,0.9,2,1.8
					C309.3,69,309.3,69.8,309.4,70.9z M308.2,70.6L308.2,70.6c0-0.7-0.1-1.3-0.4-1.9c-0.2-0.5-0.6-1-1.2-1.2c-1.5-0.6-3,0.1-3.4,1.7
					c-0.3,0.9-0.2,1.9,0,2.8c0,0.2,0.1,0.5,0.2,0.7c0.2,0.4,0.5,0.8,1,1c1.5,0.7,3.1,0,3.6-1.6C308.1,71.6,308.2,71.1,308.2,70.6z"
					/>
				<path class="st19" d="M334.7,67.4c-1.1,0.1-2.1,0-3.2,0.1c-0.1,0.8-0.1,1.6,0,2.5c0.2,0,0.4,0,0.5,0c0.7,0,1.3,0,2,0
					c0.3,0,0.4,0.1,0.4,0.4c0,0.3-0.1,0.5-0.4,0.5c-0.6,0-1.1,0-1.7,0c-0.3,0-0.6,0-0.9,0c-0.1,1,0,1.9,0,2.8c0.2,0,0.3,0,0.5,0
					c0.8,0,1.5,0,2.3,0c0.2,0,0.4,0,0.6,0c0.1,0.4,0.1,0.4,0,0.8c-0.1,0-0.3,0-0.5,0c-1.1,0-2.2,0-3.3,0c-0.1,0-0.3,0-0.4,0
					c-0.2,0-0.3-0.1-0.3-0.3c0-0.1,0-0.3,0-0.5c0-2.2,0-4.5,0-6.7c0-0.1,0-0.3,0-0.4c0-0.2,0.1-0.3,0.4-0.4c0.1,0,0.3,0,0.4,0
					c1.1,0,2.2,0,3.2,0c0.5,0,0.6,0.1,0.5,0.7C334.8,67.2,334.8,67.3,334.7,67.4z"/>
				<path class="st19" d="M321.6,66.6c0.4-0.2,0.7-0.2,1,0c0,1.1,0,2.3,0,3.5c0,1.2,0,2.4,0,3.6c0.2,0,0.3,0.1,0.5,0.1
					c0.7,0,1.3,0,2,0c0.2,0,0.4,0,0.6,0c0.2,0.3,0.2,0.5,0.1,0.8c-0.1,0-0.3,0.1-0.4,0.1c-1,0-2.1,0-3.1,0c-0.1,0-0.2,0-0.3,0
					c-0.2,0-0.3-0.1-0.3-0.3c0-0.1,0-0.3,0-0.4c0-2.4,0-4.7,0-7.1C321.5,66.8,321.5,66.7,321.6,66.6z"/>
				<path class="st19" d="M327.1,74.7c-0.1-0.8-0.1-7.5,0-8.1c0.5-0.2,0.5-0.2,1,0c0,0,0,0,0,0.1c0,0,0,0,0,0.1c0,2.5,0,5.1,0,7.6
					c0,0.1,0,0.2,0,0.3C327.8,74.9,327.5,74.8,327.1,74.7z"/>
				<path class="st19" d="M276.7,66.6c0.4-0.2,0.7-0.2,1.1,0c0.1,0.6,0,1.3,0,2c0,0.7,0,1.4,0,2c0,0.6,0,1.3,0,2c0,0.7,0,1.4,0,2
					c-0.4,0.2-0.7,0.2-1,0.1c0,0,0-0.1-0.1-0.1c0,0,0,0,0-0.1c0-2.4,0-4.9,0-7.3C276.7,67.1,276.7,66.9,276.7,66.6z"/>
				<path class="st19" d="M319.3,66.6c0.1,0.6,0.1,7.4,0,8.1c-0.3,0.2-0.6,0.1-1,0c0,0,0,0,0-0.1c0,0,0,0,0-0.1c0-2.5,0-5.1,0-7.6
					c0-0.1,0-0.2,0-0.3C318.6,66.4,318.9,66.4,319.3,66.6z"/>
			</g>
			<g>
				<path class="st20" d="M182.4,65.8c-0.2,0.6-0.6,1-0.9,1.5c-0.3,0.4-0.6,0.9-1,1.3c-0.6-0.4-1.1-1-1.6-1.4
					c-0.5-0.5-1.1-1-1.6-1.5c-0.4,0.4-0.6,0.8-0.9,1.3c0.7,0.8,1.6,1.4,2.3,2.2c-0.3,0.6-0.8,1.2-1.2,1.8c-0.4,0.6-0.8,1.2-1.2,1.8
					c-0.4,0.6-0.8,1.2-1.2,1.8c-0.4,0.6-0.8,1.2-1.3,1.8c-0.5-0.4-1-0.9-1.5-1.3c0.5-0.8,1-1.5,1.5-2.3c-0.4-0.3-0.7-0.6-0.9-0.9
					c-0.2,0-0.3,0.1-0.4,0.2c-0.4,0.5-0.7,1-1.1,1.5c-0.1,0.1-0.2,0.2-0.2,0.3c-0.5-0.4-2-1.7-2.3-2.2c0.3-0.6,2.1-3.3,2.5-3.7
					c0.6,0.6,1.3,1.2,1.9,1.8c0.4-0.3,0.5-0.4,0.8-1.1c-0.6-0.7-1.3-1.2-1.9-1.9c0.3-0.7,0.9-1.3,1.2-2c-0.2-0.3-0.5-0.5-0.8-0.8
					c-0.3,0.3-0.5,0.6-0.7,0.9c-0.2,0.3-0.4,0.6-0.7,0.9c-0.8-0.5-1.3-1.3-2-1.8c-0.4,0.3-0.5,0.7-0.8,1.1c0.7,0.6,1.3,1.2,2,1.9
					c-0.1,0.4-0.4,0.7-0.6,1c-0.2,0.3-0.4,0.6-0.6,0.9c-0.2,0.3-0.4,0.6-0.6,1c-0.2,0.3-0.4,0.6-0.7,0.9c-0.2-0.1-0.3-0.2-0.4-0.3
					c-0.6-0.6-1.3-1.2-1.9-1.8c0.5-0.8,1-1.5,1.5-2.2c-0.3-0.4-0.6-0.6-1-0.9c-0.4,0.3-0.5,0.7-0.8,1.1c-0.3,0.4-0.5,0.7-0.7,1
					c-0.5-0.3-1.1-0.9-1.4-1.3c0,0,0,0,0,0c0,0,0,0,0-0.1c1.6-2.3,3.1-4.5,4.7-6.8c0,0,0.1-0.1,0.1-0.2c0.1,0.1,0.3,0.2,0.4,0.3
					c0.5,0.5,1.1,1,1.6,1.5c0.1,0.1,0.2,0.2,0.3,0.3c0.4-0.4,0.6-0.9,0.9-1.2c0-0.1,0-0.1,0-0.1c0,0,0,0,0-0.1l-14.6-13.4
					c-0.1,0.1-0.3,0.2-0.4,0.3c-0.4,0.4-1,0.3-1.3-0.2c-0.1-0.1-0.1-0.2-0.2-0.4c-0.6,0.1-1-0.2-1.3-0.7c-0.2,0-0.4,0.2-0.5,0.3
					c-1,0.8-2.2,1.3-3.4,1.6c-1.1,0.2-2.2,0.1-3.3-0.2c-0.1-0.1-0.3-0.1-0.5-0.2c0,0.2,0,0.3,0,0.5c0,0.2-0.1,0.5-0.1,0.6
					c-0.1,0.3-0.3,0.4-0.6,0.4c-0.4,0-0.7,0.1-1-0.1c-1-0.5-1.7-1.2-2-2.3c0-0.2-0.1-0.4,0-0.6c0-0.4,0.3-0.7,0.7-0.8
					c0.1,0,0.3-0.1,0.4-0.1c0-0.1,0-0.2-0.1-0.3c-0.8-1.5-1.1-3.1-1.1-4.7c0-1.6,0.4-3.1,1-4.6c0-0.1,0.1-0.2,0.1-0.3c0,0,0,0,0-0.1
					c0,0,0-0.1-0.1-0.1c-0.6-0.1-0.8-0.6-0.8-1.1c0-0.2,0-0.5,0.1-0.7c0.2-0.8,0.6-1.5,1.3-2c0.2-0.2,0.5-0.4,0.7-0.5
					c0.4-0.2,0.8,0,1.1,0.3c0.1,0.1,0.1,0.2,0.2,0.4c0.1-0.1,0.3-0.2,0.4-0.3c0.8-0.7,1.7-1.3,2.7-1.7c1.6-0.6,3.3-0.8,5-0.1
					c0.1,0,0.1,0,0.2,0c0,0,0,0,0.1,0c0-0.1,0-0.2,0-0.3c0-0.1,0-0.3,0-0.5c0.1-0.5,0.4-0.8,0.9-0.8c0.2,0,0.4,0,0.6,0.1
					c1.1,0.5,1.9,1.2,2.2,2.4c0.1,0.2,0,0.5,0,0.7c-0.1,0.4-0.3,0.6-0.6,0.7c-0.1,0-0.3,0.1-0.5,0.1c0.3,0.6,0.5,1.2,0.7,1.8
					c0.2,0.6,0.3,1.2,0.4,1.9c0.1,0.6,0.1,1.2,0.1,1.8c0,0.6-0.1,1.3-0.3,1.9c-0.1,0.6-0.3,1.2-0.5,1.9c0.5,0.2,0.9,0.6,0.9,1.3
					c0.4,0.1,0.8,0.3,1,0.8c0.1,0.5,0,0.8-0.2,1.2L182.4,65.8z M144.5,39.3L144.5,39.3c0,1,0.2,2,0.6,2.9c0.6,1.1,1.5,1.7,2.8,1.8
					c1.2,0.1,2.3-0.2,3.1-1.2c0.5-0.6,0.8-1.4,0.9-2.2c0-0.4,0.2-0.6,0.5-0.8c1.1-0.5,1.8-1.4,2-2.6c0.3-1.3,0.1-2.5-0.5-3.6
					c-0.7-1.6-2.4-2.4-4.1-2c-0.8,0.2-1.5,0.5-2.1,1C145.7,34.3,144.6,36.6,144.5,39.3z"/>
				<path class="st21" d="M160.9,50.9l-6.9,6.5c-0.8,0.8-1.7,1.5-2.5,2.3c-0.1,0.1-0.2,0.2-0.3,0.3c0.3,0.4,0.6,0.8,0.9,1.3
					c0.1-0.1,0.2-0.1,0.3-0.2c0.5-0.5,1.1-1,1.7-1.6c0.1-0.1,0.2-0.1,0.4-0.2c0.1,0.1,0.2,0.1,0.2,0.2c1.5,2.3,3.1,4.5,4.6,6.7
					c0,0,0,0.1,0.1,0.2c-0.2,0.4-0.9,1-1.5,1.4c-0.5-0.7-1-1.4-1.5-2.2c-0.2,0.2-0.4,0.3-0.5,0.5c-0.1,0.1-0.3,0.3-0.5,0.4
					c0.4,0.8,1,1.5,1.5,2.3c-0.3,0.4-1.8,1.8-2.3,2.2c0,0-0.1,0-0.2-0.1c-0.8-1.2-1.6-2.3-2.4-3.5c0.2-0.5,0.7-0.7,1-1
					c0.3-0.3,0.7-0.6,1-0.9c-0.2-0.4-0.5-0.7-0.7-1.1c-0.4,0.3-0.7,0.6-1,0.9c-0.3,0.3-0.7,0.6-1,0.9c-0.5-0.6-0.9-1.3-1.4-1.9
					c-0.3,0.2-0.6,0.4-0.8,0.7c0.4,0.7,0.9,1.2,1.3,1.9c-0.1,0.1-0.1,0.2-0.2,0.3c-0.5,0.4-0.9,0.8-1.3,1.2
					c-0.1,0.1-0.3,0.2-0.4,0.4c0.2,0.4,0.5,0.8,0.8,1.1c0.7-0.6,1.3-1.2,2-1.8c0.4,0.4,2.2,3,2.6,3.7c-0.3,0.4-1.5,1.6-2.3,2.2
					c-0.1-0.1-0.2-0.2-0.2-0.3c-0.3-0.4-0.6-0.9-0.9-1.3c-0.1-0.2-0.3-0.4-0.4-0.5c-0.3,0-0.4,0.2-0.6,0.4c-0.1,0.1-0.3,0.3-0.5,0.5
					c0.1,0.1,0.1,0.3,0.2,0.4c0.3,0.5,0.7,1,1,1.5c0.1,0.1,0.2,0.3,0.2,0.4c-0.4,0.5-0.9,0.9-1.4,1.3c-0.3,0-0.3-0.2-0.4-0.4
					c-1.1-1.5-2.1-3.1-3.2-4.7c-0.4-0.6-0.8-1.2-1.2-1.8c0-0.1-0.1-0.2-0.2-0.3c0.1-0.1,0.1-0.2,0.2-0.3c0.5-0.5,1-1,1.5-1.4
					c0.1-0.1,0.3-0.3,0.5-0.5c-0.3-0.4-0.6-0.8-0.8-1.2c-0.2,0-0.3,0.1-0.4,0.2c-0.8,0.7-1.6,1.5-2.4,2.2c-0.2,0.2-0.3,0.4-0.5,0.4
					c-0.4-0.4-1.5-2.1-1.9-2.6c0-0.2,0.2-0.3,0.3-0.4c1.7-1.5,3.3-3.1,5-4.6c3.4-3.2,6.9-6.4,10.4-9.6l2.7-2.6L160.9,50.9z
					 M164,43.7c0-0.1,0-0.2-0.1-0.3c-0.4-0.9-0.1-1.5,0.8-1.7c0.1-0.9,0.1-0.9,0.9-1.4c-1-3.1-1.1-6.1,0.5-9.1
					c-0.1,0-0.2-0.1-0.3-0.1c-0.7-0.2-1-0.6-0.9-1.3c0-0.2,0.1-0.5,0.2-0.7c0.3-0.7,0.9-1.3,1.5-1.6c0.3-0.2,0.7-0.3,1-0.3
					c0.5,0,0.9,0.3,0.9,0.8c0,0.2,0,0.5,0,0.8c0.1,0,0.2,0,0.3,0c2-0.8,3.9-0.6,5.7,0.4c0.8,0.4,1.5,0.9,2.1,1.5
					c0.1,0.1,0.2,0.1,0.3,0.2c0.2-0.1,0.2-0.3,0.3-0.4c0.3-0.3,0.6-0.5,1-0.3c0.2,0.1,0.5,0.2,0.7,0.3c0.8,0.6,1.3,1.4,1.5,2.3
					c0,0.3,0,0.6,0,0.9c-0.1,0.4-0.3,0.7-0.7,0.7c-0.1,0-0.1,0-0.2,0.1c1.4,3.3,1.7,6.7-0.1,9.9c0.1,0.2,0.3,0.1,0.4,0.2
					c0.5,0.1,0.7,0.4,0.8,0.8c0,0.2,0,0.4,0,0.6c-0.3,1.1-1,1.8-2,2.3c-0.3,0.2-0.7,0.2-1,0.1c-0.4,0-0.6-0.4-0.7-0.8
					c0-0.2,0-0.5,0-0.8c-2.9,1.1-5.4,0.4-7.8-1.5c-0.3,0.2-0.4,0.6-0.7,0.7c-0.2,0-0.4,0-0.7,0.1c0,0.1-0.1,0.2-0.2,0.3
					c-0.3,0.5-0.9,0.6-1.4,0.3c-0.1-0.1-0.1-0.2-0.3-0.3c-0.1,0.1-0.3,0.2-0.4,0.3c-0.6,0.5-1.1,1-1.7,1.5l-2.5-2.2L164,43.7z
					 M177.9,39.4L177.9,39.4c0.1-2.6-1.3-5.3-3.2-6.7c-0.7-0.5-1.5-0.9-2.4-1.1c-1.6-0.3-2.9,0.3-3.7,1.6c-0.8,1.3-1,2.6-0.7,4.1
					c0.3,1.2,0.9,2.1,2.1,2.6c0.3,0.1,0.5,0.3,0.5,0.6c0,0.1,0,0.2,0,0.3c0.1,0.8,0.5,1.6,1.1,2.2c1.6,1.6,4.5,1.2,5.6-0.7
					C177.7,41.4,177.9,40.4,177.9,39.4z"/>
			</g>
		</g>
	</g>
</g>
<g id="Layer_5" class="st3">
	<g id="Layer_x0020_1_3_" class="st4">
		<g id="_799148128">
			
				<linearGradient id="SVGID_1_" gradientUnits="userSpaceOnUse" x1="271.4521" y1="72.7278" x2="235.5747" y2="72.7278" gradientTransform="matrix(1.0238 0 0 -1.0238 8.0043 119.5328)">
				<stop  offset="0" style="stop-color:#00ADEF"/>
				<stop  offset="1" style="stop-color:#184297"/>
			</linearGradient>
			<path class="st22" d="M263,36.8c-1.3-0.7-2.8-1.1-4.4-1.1c-2.6,0-5,1-6.7,2.8c-1.7,1.7-2.7,4-2.7,6.6s1,5,2.7,6.6
				c1.7,1.7,4.1,2.8,6.7,2.8c1.6,0,3.1-0.4,4.4-1.1c1.3-0.6,2.3-1.6,3.2-2.7c0.2-0.3,0.3-0.6,0.6-0.8c0.6-0.6,1.3-1.2,2.1-1.6
				c0.9-0.5,2-0.7,3.1-0.7c0.8,0,1.6,0.2,2.4,0.5c0.6,0.2,1.1,0.5,1.6,0.8c0.5,0.3,0.9,0.7,1.4,1c0.3,0.2,0.7,0.4,1.1,0.6
				c0.6,0.2,1.2,0.3,1.8,0.3c1.6,0,3-0.6,4-1.7c1-1,1.7-2.4,1.7-4l0,0l0,0c0-1.6-0.6-3-1.7-4c-1-1-2.4-1.7-4-1.7
				c-0.6,0-1.3,0.2-1.8,0.3c-0.4,0.2-0.8,0.3-1.1,0.6c-0.6,0.3-0.9,0.7-1.4,1.1c-0.5,0.3-1,0.6-1.6,0.8c-0.8,0.2-1.6,0.4-2.4,0.4
				c-1.1,0-2.1-0.2-3.1-0.7c-0.8-0.4-1.5-0.9-2.1-1.5c-0.3-0.3-0.4-0.6-0.6-0.9C265.3,38.4,264.3,37.4,263,36.8z"/>
			<path class="st23" d="M268.2,54.8c2-1.9,5-1.9,7,0c1.9,2,1.9,5,0,7c-2.2,2.2-4.8,3.9-7.7,5.1c-2.8,1.1-5.8,1.7-9,1.7
				c-6.5,0-12.4-2.6-16.6-6.9l0,0c-4.3-4.3-6.9-10.2-6.9-16.7c0-6.5,2.7-12.4,6.9-16.6l0.3-0.3c4.2-4.1,10-6.6,16.3-6.6
				c3.2,0,6.2,0.6,9,1.8c2.9,1.2,5.5,2.9,7.7,5.1c1.9,1.9,1.9,5,0,6.9c-2,2-5,2-7,0c-1.3-1.3-2.8-2.3-4.4-3c-1.7-0.6-3.4-1-5.3-1
				c-3.6,0-7,1.5-9.5,3.8l-0.2,0.2c-2.4,2.5-4,5.9-4,9.7c0,3.8,1.6,7.3,4,9.7l0,0c2.5,2.5,5.9,4,9.7,4c1.9,0,3.6-0.3,5.3-1
				C265.5,57.1,267,56.1,268.2,54.8z"/>
		</g>
		<path class="st24" d="M317.8,52.4c1.2-1.2,3.2-1.2,4.4,0c1.3,1.3,1.3,3.2,0,4.5c-1.5,1.6-3.3,2.8-5.4,3.5c-2,0.9-4.1,1.3-6.3,1.3
			c-4.5,0-8.7-1.8-11.6-4.8c-3-3-4.9-7.1-4.9-11.7s1.9-8.7,4.9-11.7c2.9-3,7.1-4.8,11.6-4.8c2.2,0,4.3,0.4,6.3,1.3
			c2.1,0.8,3.9,2.1,5.4,3.5c1.3,1.3,1.3,3.2,0,4.5c-1.2,1.3-3.2,1.3-4.4,0c-1-0.9-2.1-1.7-3.3-2.2c-1.2-0.5-2.5-0.8-3.9-0.8
			c-2.8,0-5.3,1.2-7.2,3c-1.8,1.8-2.9,4.4-2.9,7.2c0,2.8,1.1,5.4,2.9,7.2c1.9,1.9,4.4,3,7.2,3c1.4,0,2.8-0.2,3.9-0.8
			C315.6,54.1,316.7,53.4,317.8,52.4z M436.5,59.7c-0.7,1.6-2.6,2.3-4.2,1.5c-1.6-0.7-2.3-2.5-1.5-4.2l12-26.1
			c1.1-2.5,4.7-2.4,5.8,0l12,26.1c0.7,1.7,0,3.5-1.6,4.2c-1.6,0.8-3.5,0.1-4.2-1.5l-2.5-5.5H439L436.5,59.7z M449.3,47.8l-3.7-8.1
			l-3.7,8.1H449.3z M388.7,58.3c0,1.7-1.4,3.2-3.2,3.2c-1.7,0-3.2-1.4-3.2-3.2V32.1c0-1.7,1.4-3.2,3.2-3.2c1.7,0,3.2,1.4,3.2,3.2
			V58.3z M400.7,58.3c0,4.2-6.4,4.2-6.4,0V32.1c0-3.3,4.5-4.3,6-1.4l10.6,17.2l10.6-17.2c1.5-2.9,6-1.9,6,1.4v26.2
			c0,4.2-6.4,4.2-6.4,0v-15l-7.5,12.2c-1.2,2.1-4.2,2.1-5.4,0l-7.5-12.2V58.3z M360.7,42.1h10.9c1.7,0,3.2,1.4,3.2,3.2
			c0,1.7-1.4,3.2-3.2,3.2h-10.9v10c0,1.7-1.4,3.2-3.2,3.2c-1.7,0-3.2-1.4-3.2-3.2V45.2V32.1c0-1.7,1.4-3.2,3.2-3.2h17.4
			c1.7,0,3.2,1.4,3.2,3.2c0,1.7-1.4,3.2-3.2,3.2h-14.1V42.1z M347.7,55.2c4.2,0,4.2,6.4,0,6.4h-17.3c-1.7,0-3.2-1.4-3.2-3.2V45.2
			V32.1c0-1.7,1.4-3.2,3.2-3.2h17.3c4.2,0,4.2,6.3,0,6.3h-14.1v6.8h10.9c1.8,0,3.2,1.4,3.2,3.2c0,1.7-1.4,3.2-3.2,3.2h-10.9v6.8
			H347.7z"/>
	</g>
</g>
<g id="Layer_6" class="st3">
	<g id="Layer_x0020_1_4_" class="st4">
		<path class="st25" d="M455,45.5c0,2.1-0.2,4.2-0.6,6.3c-0.3,1.5-0.8,2.8-1.5,4.1c-1.6,2.9-4,4.8-7.3,5.6c-2.5,0.6-4.9,0.6-7.4,0
			c-3.2-0.8-5.6-2.7-7.1-5.6c-0.9-1.6-1.4-3.3-1.7-5.1c-0.5-2.7-0.6-5.5-0.4-8.2c0.2-2.3,0.6-4.5,1.5-6.6c0.8-2,1.9-3.7,3.6-5
			c1.6-1.3,3.4-2.2,5.5-2.5c2.1-0.3,4.1-0.3,6.2,0.3c2.9,0.8,5,2.5,6.6,5c1,1.7,1.7,3.6,2.1,5.5C454.8,41.2,455,43.3,455,45.5z
			 M449.4,45.4L449.4,45.4c0-1.7-0.1-3.3-0.5-4.9c-0.3-1.3-0.8-2.6-1.5-3.8c-0.9-1.2-2-2.1-3.4-2.4c-0.9-0.2-1.9-0.3-2.8-0.2
			c-1.3,0.1-2.5,0.6-3.5,1.5c-0.9,0.8-1.5,1.8-2,2.8c-0.6,1.5-0.9,3-1,4.6c-0.2,2-0.1,4,0.1,6c0.2,1.1,0.4,2.2,0.9,3.3
			c0.7,1.5,1.8,2.7,3.3,3.4c1,0.4,2,0.6,3.1,0.6c1.9,0,3.6-0.8,4.9-2.2c1-1.1,1.5-2.4,1.9-3.8C449.3,48.6,449.4,47,449.4,45.4z
			 M338.3,45.4c0,2.3-0.2,4.6-0.8,6.8c-0.3,1.3-0.8,2.6-1.4,3.7c-1.5,2.8-3.9,4.7-7,5.4c-2.6,0.6-5.2,0.6-7.8-0.1
			c-2.9-0.8-5.1-2.6-6.7-5.2c-1-1.6-1.5-3.4-1.9-5.2c-0.5-2.8-0.6-5.5-0.4-8.3c0.2-2.1,0.5-4.1,1.2-6.1c0.8-2.1,1.9-4,3.6-5.5
			c1.6-1.5,3.6-2.4,5.7-2.7c2.1-0.3,4.1-0.3,6.2,0.3c3,0.8,5.2,2.6,6.8,5.3c1,1.8,1.7,3.7,2.1,5.7C338.1,41.6,338.3,43.5,338.3,45.4
			z M332.6,45.3L332.6,45.3c0-1.7-0.1-3.3-0.5-5c-0.3-1.3-0.8-2.6-1.6-3.7c-0.9-1.2-2-1.9-3.4-2.3c-0.9-0.2-1.9-0.3-2.8-0.2
			c-1.2,0.1-2.2,0.5-3.1,1.2c-1,0.7-1.6,1.7-2.1,2.8c-0.7,1.5-1,3-1.1,4.6c-0.2,1.5-0.2,3-0.1,4.5c0.1,1.3,0.3,2.7,0.7,4
			c0.3,0.8,0.6,1.6,1.1,2.3c1.2,1.6,2.7,2.5,4.7,2.7c2.6,0.3,4.7-0.6,6.3-2.7c0.7-1,1.1-2,1.4-3.1C332.5,48.7,332.6,47,332.6,45.3z
			 M339.9,29.2c0.1,0,0.2,0,0.3,0c4.6,0,9.2,0,13.7,0c2.3,0,4.3,0.9,5.9,2.6c1.1,1.2,1.7,2.6,2,4.1c0.4,2,0.4,4-0.3,6
			c-0.4,1.1-1,2.1-1.9,2.9c-0.4,0.3-0.8,0.5-1.2,0.8c-0.1,0-0.2,0.1-0.3,0.1c0.3,0.2,0.7,0.3,1,0.5c1.1,0.7,1.8,1.7,2,3
			c0.1,0.7,0.2,1.4,0.2,2.1c0,3.1,0,6.2,0,9.4c0,0,0,0.1,0,0.2c-1.9,0-3.7,0-5.6,0c0-0.1,0-0.3,0-0.4c0-2.5,0-5,0-7.5
			c0-0.5-0.1-1.1-0.1-1.6c-0.2-1.6-1.1-2.4-2.7-2.6c-0.4-0.1-0.9-0.1-1.3-0.1c-2,0-4,0-6,0c-0.1,0-0.1,0-0.3,0c0,4.1,0,8.2,0,12.3
			c-1.9,0-3.7,0-5.5,0C339.9,50.3,339.9,39.8,339.9,29.2z M345.4,43.1L345.4,43.1c0.1,0,0.2,0,0.3,0c2.3,0,4.6,0,6.9,0
			c0.4,0,0.9-0.1,1.3-0.1c1.2-0.2,2-0.8,2.5-1.9c0.3-0.6,0.4-1.2,0.4-1.9c0-1.1-0.1-2.1-0.7-3.1c-0.4-0.5-0.8-0.9-1.4-1.1
			c-0.5-0.2-1.1-0.3-1.7-0.3c-2.4,0-4.8,0-7.2,0c-0.1,0-0.2,0-0.3,0C345.4,37.5,345.4,40.3,345.4,43.1z M363.4,29.2
			c6.7,0,13.3,0,20,0c0,1.8,0,3.6,0,5.5c-4.8,0-9.6,0-14.5,0c0,2.3,0,4.5,0,6.7c1.1,0,2.2,0,3.3,0c1.1,0,2.2,0,3.3,0
			c1.1,0,2.2,0,3.4,0c1.1,0,2.2,0,3.3,0c0.1,0.3,0.1,4.9,0,5.6c-4.4,0-8.9,0-13.3,0c0,2.7,0,5.4,0,8.1c5,0,10.1,0,15.1,0
			c0,1.9,0,3.7,0,5.6c-6.9,0-13.8,0-20.7,0C363.4,50.3,363.4,39.8,363.4,29.2z M303.8,29.2c0,1.8,0,3.6,0,5.5c-4.6,0-9.1,0-13.7,0
			c0,2.4,0,4.8,0,7.2c4,0,8,0,12,0c0,1.9,0,3.7,0,5.6c-4,0-8,0-12,0c0,4.5,0,8.9,0,13.3c-1.9,0-3.8,0-5.7,0c0-10.5,0-21,0-31.5
			C284.7,29.2,302.6,29.1,303.8,29.2z M398.2,60.8c-1.9,0-3.8,0-5.7,0c0-8.7,0-17.3,0-26c-2.7,0-5.4,0-8.1,0c-0.1-0.3-0.1-4.9,0-5.5
			c7.4,0,14.7,0,22.1,0c0,1.8,0,3.6,0,5.5c-2.7,0-5.5,0-8.2,0C398.2,43.4,398.2,52.1,398.2,60.8z M421.1,60.8c-1.9,0-3.8,0-5.7,0
			c0-8.7,0-17.3,0-26c-2.7,0-5.5,0-8.1,0c-0.1-0.3-0.1-4.9,0-5.5c7.4,0,14.7,0,22.1,0c0,1.8,0,3.6,0,5.5c-2.7,0-5.5,0-8.2,0
			C421.1,43.4,421.1,52.1,421.1,60.8z M310.6,60.8c-1.9,0-3.8,0-5.7,0c0-10.5,0-21,0-31.5c1.9,0,3.7,0,5.7,0
			C310.6,39.7,310.6,50.2,310.6,60.8z"/>
		<path class="st25" d="M287.1,73.9c-0.7,0-1.3-0.1-2-0.3c-0.6-0.2-1.1-0.5-1.5-0.8l0.5-1c0.4,0.3,0.8,0.6,1.3,0.8
			c0.5,0.2,1.1,0.3,1.7,0.3c0.8,0,1.3-0.1,1.7-0.4c0.4-0.3,0.6-0.6,0.6-1c0-0.3-0.1-0.6-0.3-0.8c-0.2-0.2-0.4-0.3-0.7-0.4
			c-0.3-0.1-0.7-0.2-1.3-0.4c-0.7-0.2-1.2-0.3-1.7-0.5c-0.4-0.2-0.8-0.4-1.1-0.8c-0.3-0.3-0.4-0.8-0.4-1.4c0-0.5,0.1-0.9,0.4-1.3
			c0.3-0.4,0.7-0.7,1.2-1c0.5-0.2,1.2-0.4,1.9-0.4c0.5,0,1.1,0.1,1.6,0.2c0.5,0.1,1,0.4,1.3,0.6l-0.4,1c-0.4-0.2-0.8-0.4-1.2-0.6
			c-0.4-0.1-0.9-0.2-1.3-0.2c-0.7,0-1.3,0.1-1.7,0.4c-0.4,0.3-0.6,0.6-0.6,1c0,0.3,0.1,0.6,0.3,0.8c0.2,0.2,0.5,0.4,0.8,0.4
			c0.3,0.1,0.7,0.2,1.2,0.4c0.7,0.2,1.2,0.3,1.7,0.5c0.4,0.2,0.8,0.4,1.1,0.8c0.3,0.3,0.5,0.8,0.5,1.4c0,0.5-0.1,0.9-0.4,1.3
			c-0.3,0.4-0.7,0.7-1.2,0.9C288.6,73.8,287.9,73.9,287.1,73.9z M314,70.6v3.2h-1.3v-3.2l-3.6-6h1.4l2.9,4.8l2.9-4.8h1.3L314,70.6z
			 M339.6,73.9c-0.7,0-1.3-0.1-2-0.3c-0.6-0.2-1.1-0.5-1.5-0.8l0.5-1c0.4,0.3,0.8,0.6,1.3,0.8c0.5,0.2,1.1,0.3,1.7,0.3
			c0.8,0,1.3-0.1,1.7-0.4c0.4-0.3,0.6-0.6,0.6-1c0-0.3-0.1-0.6-0.3-0.8c-0.2-0.2-0.4-0.3-0.8-0.4c-0.3-0.1-0.7-0.2-1.3-0.4
			c-0.7-0.2-1.2-0.3-1.7-0.5c-0.4-0.2-0.8-0.4-1.1-0.8c-0.3-0.3-0.4-0.8-0.4-1.4c0-0.5,0.1-0.9,0.4-1.3c0.2-0.4,0.6-0.7,1.2-1
			c0.5-0.2,1.2-0.4,1.9-0.4c0.5,0,1.1,0.1,1.6,0.2c0.5,0.1,1,0.4,1.3,0.6l-0.4,1c-0.4-0.2-0.8-0.4-1.2-0.6c-0.4-0.1-0.9-0.2-1.3-0.2
			c-0.7,0-1.3,0.1-1.7,0.4c-0.4,0.3-0.6,0.6-0.6,1c0,0.3,0.1,0.6,0.3,0.8c0.2,0.2,0.5,0.4,0.8,0.4c0.3,0.1,0.7,0.2,1.3,0.4
			c0.7,0.2,1.2,0.3,1.7,0.5c0.4,0.2,0.8,0.4,1.1,0.8c0.3,0.3,0.5,0.8,0.5,1.4c0,0.5-0.1,0.9-0.4,1.3c-0.3,0.4-0.7,0.7-1.2,0.9
			C341,73.8,340.4,73.9,339.6,73.9z M364.9,65.8h-3.1v-1.1h7.6v1.1h-3.1v8h-1.3V65.8z M395.5,72.7v1.1h-6.6v-9.2h6.5v1.1h-5.2v2.8
			h4.6v1.1h-4.6v2.9H395.5z M424.3,73.8l0-6.7l-3.3,5.6h-0.6l-3.3-5.5v6.6h-1.2v-9.2h1.1l3.8,6.4l3.8-6.4h1.1l0,9.2H424.3z
			 M449.1,73.9c-0.7,0-1.4-0.1-2-0.3c-0.6-0.2-1.1-0.5-1.5-0.8l0.5-1c0.4,0.3,0.8,0.6,1.3,0.8c0.6,0.2,1.1,0.3,1.7,0.3
			c0.7,0,1.3-0.1,1.7-0.4c0.4-0.3,0.6-0.6,0.6-1c0-0.3-0.1-0.6-0.3-0.8c-0.2-0.2-0.5-0.3-0.8-0.4c-0.3-0.1-0.7-0.2-1.3-0.4
			c-0.7-0.2-1.2-0.3-1.7-0.5c-0.4-0.2-0.8-0.4-1.1-0.8c-0.3-0.3-0.4-0.8-0.4-1.4c0-0.5,0.1-0.9,0.4-1.3c0.3-0.4,0.7-0.7,1.2-1
			c0.5-0.2,1.2-0.4,1.9-0.4c0.5,0,1.1,0.1,1.6,0.2c0.5,0.1,1,0.4,1.3,0.6l-0.4,1c-0.4-0.2-0.8-0.4-1.2-0.6c-0.4-0.1-0.9-0.2-1.3-0.2
			c-0.7,0-1.3,0.1-1.7,0.4c-0.4,0.3-0.6,0.6-0.6,1c0,0.3,0.1,0.6,0.3,0.8c0.2,0.2,0.5,0.4,0.8,0.4c0.3,0.1,0.7,0.2,1.2,0.4
			c0.7,0.2,1.2,0.3,1.7,0.5c0.4,0.2,0.8,0.4,1.1,0.8c0.3,0.3,0.4,0.8,0.4,1.4c0,0.5-0.1,0.9-0.4,1.3c-0.3,0.4-0.7,0.7-1.2,0.9
			C450.5,73.8,449.8,73.9,449.1,73.9z"/>
		<path class="st7" d="M249.1,27.9h6.8h22.3l-5.8,8.1h-16.3v10.2h8.6v8.1h-8.6v19.2h-7.1V36V27.9z M240.6,27.9h-22.3l5.8,8.1h16.3
			v10.2h-8.6v8.1h8.6v12l7.1,7.2V36v-8.1H240.6z"/>
	</g>
</g>
<g id="Layer_7" class="st3">
	
		<image style="display:inline;overflow:visible;" width="3510" height="1032" xlink:href="../logos,svg/FIORETTO-MEDIA-LOGO.png"  transform="matrix(4.859091e-02 0 0 4.859091e-02 317.8577 28.1697)">
	</image>
</g>
</svg>
