<?xml version="1.0" encoding="utf-8"?>
<!-- Generator: Adobe Illustrator 23.0.1, SVG Export Plug-In . SVG Version: 6.00 Build 0)  -->
<svg version="1.1" xmlns="http://www.w3.org/2000/svg" xmlns:xlink="http://www.w3.org/1999/xlink" x="0px" y="0px"
	 viewBox="0 0 302.4 104.8" style="enable-background:new 0 0 302.4 104.8;" xml:space="preserve">
<style type="text/css">
	.st0{display:none;}
	.st1{display:inline;}
	.st2{fill:#2C2C2C;}
	.st3{fill:#194695;}
	.st4{fill:none;}
	.st5{fill:#2E3035;}
	.st6{fill:#313438;}
	.st7{fill-rule:evenodd;clip-rule:evenodd;fill:#184297;}
	.st8{fill:#422A15;}
	.st9{fill:#432A16;}
	.st10{fill:#432B17;}
	.st11{fill:#442C17;}
	.st12{fill:#CB9B26;}
	.st13{fill:#CB9B27;}
	.st14{fill:#CA9921;}
	.st15{fill:#CB9A24;}
	.st16{fill:#C9971D;}
	.st17{fill:#CB9A23;}
	.st18{fill:#CA9A22;}
	.st19{fill:#CA9922;}
	.st20{fill:#C9971C;}
	.st21{fill:#412814;}
	.st22{fill:url(#SVGID_1_);}
	.st23{fill:#184297;}
	.st24{fill:#00ADEF;}
	.st25{fill-rule:evenodd;clip-rule:evenodd;}
</style>
<g id="Layer_1" class="st0">
	<g id="Layer_x0020_1" class="st1">
		<g id="_339944352">
			<g>
				<path class="st2" d="M-102.2,75.8c0-4.9-4-8.9-8.9-8.9s-8.9,4-8.9,8.9c0,4.9,4,8.9,8.9,8.9S-102.2,80.7-102.2,75.8z"/>
				<path class="st2" d="M-102.2,29c0-4.9-4-8.9-8.9-8.9s-8.9,4-8.9,8.9s4,8.9,8.9,8.9S-102.2,33.9-102.2,29z"/>
				<path class="st2" d="M-55.4,29c0-4.9-4-8.9-8.9-8.9c-4.9,0-8.9,4-8.9,8.9s4,8.9,8.9,8.9C-59.3,37.8-55.4,33.9-55.4,29z"/>
				<path class="st2" d="M-55.4,75.8c0-4.9-4-8.9-8.9-8.9c-4.9,0-8.9,4-8.9,8.9c0,4.9,4,8.9,8.9,8.9C-59.3,84.7-55.4,80.7-55.4,75.8
					z"/>
				<path class="st3" d="M-111.1,46.8c-16,0-29,13-29,29h11.1c0-9.9,8-17.9,17.9-17.9c7.1,0,13.2,4.2,16.1,10.1l5.1-11.9
					C-95.1,50.4-102.7,46.8-111.1,46.8z"/>
				<path class="st2" d="M-140,29c0,16,13,28.9,29,28.9c16,0,28.9-13,28.9-28.9c0-16-13-29-28.9-29v11.1c9.9,0,17.9,8,17.9,17.9
					c0,9.9-8,17.9-17.9,17.9c-9.9,0-17.9-8-17.9-17.9H-140z"/>
				<path class="st3" d="M-46.4,29c0,9.9-8,17.9-17.9,17.9c-9.9,0-17.9-8-17.9-17.9c0-9.9,8-17.9,17.9-17.9V0c-16,0-28.9,13-28.9,29
					c0,16,13,28.9,28.9,28.9c16,0,29-13,29-28.9H-46.4z"/>
				<path class="st2" d="M-35.3,75.8c0-16-13-29-29-29c-16,0-28.9,13-28.9,29s13,29,28.9,29V93.7c-9.9,0-17.9-8-17.9-17.9
					c0-9.9,8-17.9,17.9-17.9c9.9,0,17.9,8,17.9,17.9H-35.3z"/>
				<path class="st3" d="M-89.8,56.1l-5.1,11.9c1.1,2.4,1.7,5,1.7,7.7c0,9.9-8,17.9-17.9,17.9v11.1c16,0,28.9-13,28.9-29
					C-82.1,68.2-85,61.3-89.8,56.1z"/>
				<path class="st3" d="M-88.1,58.2l-6.3,11.1c-0.2-0.4-0.3-0.9-0.5-1.3c-1.5-3-3.8-5.6-6.6-7.4l7.9-7.9c1.4,1,2.6,2.2,3.8,3.4
					C-89.2,56.8-88.6,57.5-88.1,58.2z"/>
				<g>
					<line class="st4" x1="-93.6" y1="52.7" x2="-101.5" y2="60.7"/>
				</g>
				<g>
					<line class="st4" x1="-88.1" y1="58.2" x2="-94.4" y2="69.3"/>
				</g>
			</g>
			<g>
				<path class="st2" d="M7.4,48c1.2,1.5,1.8,3.2,1.8,5.1c0,2.8-1,5-2.8,6.6c-1.9,1.6-4.6,2.4-8.1,2.4h-15.4V29h15.1
					c3.4,0,6,0.7,7.8,2.2c1.8,1.4,2.7,3.5,2.7,6.3c0,2-0.5,3.7-1.6,5c-1.1,1.3-2.5,2.2-4.2,2.6C4.7,45.6,6.2,46.5,7.4,48z
					 M-9.2,42.6L-9.2,42.6h5.2c2.8,0,4.2-1.2,4.2-3.6c0-2.4-1.4-3.6-4.3-3.6h-5.1V42.6z M1,52L1,52c0-1.2-0.4-2.1-1.2-2.8
					c-0.8-0.7-1.9-1-3.3-1h-5.7v7.5h5.7C-0.5,55.6,1,54.4,1,52z"/>
				<polygon class="st2" points="27.1,29 27.1,62.2 19,62.2 19,29 				"/>
				<path class="st2" d="M55.2,62.2L48,49.6h-1.8v12.5h-8V29h13.7c2.6,0,4.8,0.5,6.7,1.4c1.8,0.9,3.1,2.2,4.1,3.7
					c0.9,1.6,1.4,3.4,1.4,5.4c0,2.4-0.7,4.5-2,6.2c-1.3,1.7-3.3,2.8-5.8,3.5l7.9,13H55.2z M46.2,44.2L46.2,44.2h5
					c1.6,0,2.8-0.4,3.5-1c0.8-0.7,1.1-1.8,1.1-3.1c0-1.3-0.4-2.4-1.2-3.1c-0.8-0.8-1.9-1.1-3.5-1.1h-5V44.2z"/>
				<polygon class="st2" points="81.6,35.4 81.6,42.3 92.8,42.3 92.8,48.4 81.6,48.4 81.6,55.7 94.2,55.7 94.2,62.2 73.6,62.2 
					73.6,29 94.2,29 94.2,35.4 				"/>
				<polygon class="st2" points="141.7,29.3 141.7,62.2 133.7,62.2 133.7,41.6 126.5,62.2 119.6,62.2 112.4,41.5 112.4,62.2 
					104.4,62.2 104.4,29.3 114.2,29.3 123.2,52.2 131.9,29.3 				"/>
				<path class="st2" d="M173.3,56.1h-12.4l-2.1,6.1h-8.4l12.1-32.9h9.2l12.1,32.9h-8.5L173.3,56.1z M171.3,50L171.3,50l-4.1-12.2
					L163,50H171.3z"/>
			</g>
			<g>
				<g>
					<path class="st3" d="M-13.1,73c0.3,0.3,0.4,0.6,0.4,1c0,0.5-0.2,0.9-0.5,1.2c-0.4,0.3-0.9,0.5-1.6,0.5h-2.4v-6.4h2.4
						c0.6,0,1.1,0.2,1.5,0.5c0.3,0.3,0.5,0.7,0.5,1.2c0,0.4-0.1,0.7-0.3,1c-0.2,0.3-0.5,0.4-0.9,0.5C-13.7,72.6-13.3,72.7-13.1,73z
						 M-16.4,72.2L-16.4,72.2h1.4c0.4,0,0.7-0.1,0.9-0.3c0.2-0.2,0.3-0.5,0.3-0.8c0-0.3-0.1-0.6-0.3-0.8c-0.2-0.2-0.5-0.3-1-0.3
						h-1.4V72.2z M-14,74.8L-14,74.8c0.3-0.2,0.4-0.5,0.4-0.9c0-0.3-0.1-0.6-0.4-0.9c-0.3-0.2-0.6-0.3-1-0.3h-1.4v2.3h1.4
						C-14.5,75.1-14.2,75-14,74.8z"/>
					<polygon class="st3" points="-9.8,69.4 -9.8,75.8 -10.6,75.8 -10.6,69.4 					"/>
					<path class="st3" d="M-2.8,69.7c0.5,0.3,0.9,0.7,1.1,1.2c0.3,0.5,0.4,1,0.4,1.7c0,0.6-0.1,1.2-0.4,1.7
						c-0.3,0.5-0.7,0.9-1.1,1.2s-1,0.4-1.6,0.4s-1.1-0.1-1.6-0.4s-0.9-0.7-1.1-1.2c-0.3-0.5-0.4-1.1-0.4-1.7c0-0.7,0.1-1.2,0.4-1.7
						c0.3-0.5,0.7-0.9,1.1-1.2c0.5-0.3,1-0.4,1.6-0.4S-3.3,69.4-2.8,69.7z M-5.6,70.4L-5.6,70.4c-0.3,0.2-0.6,0.5-0.8,0.9
						c-0.2,0.4-0.3,0.8-0.3,1.3c0,0.5,0.1,0.9,0.3,1.3c0.2,0.4,0.5,0.7,0.8,0.9c0.4,0.2,0.8,0.3,1.2,0.3c0.5,0,0.8-0.1,1.2-0.3
						c0.3-0.2,0.6-0.5,0.8-0.9c0.2-0.4,0.3-0.8,0.3-1.3c0-0.5-0.1-1-0.3-1.3c-0.2-0.4-0.5-0.7-0.8-0.9c-0.4-0.2-0.7-0.3-1.2-0.3
						C-4.8,70.1-5.2,70.2-5.6,70.4z"/>
					<polygon class="st3" points="1.8,75.1 4.1,75.1 4.1,75.8 0.9,75.8 0.9,69.4 1.8,69.4 					"/>
					<path class="st3" d="M10.6,69.7c0.5,0.3,0.9,0.7,1.1,1.2c0.3,0.5,0.4,1,0.4,1.7c0,0.6-0.1,1.2-0.4,1.7
						c-0.3,0.5-0.7,0.9-1.1,1.2s-1,0.4-1.6,0.4c-0.6,0-1.1-0.1-1.6-0.4s-0.9-0.7-1.1-1.2c-0.3-0.5-0.4-1.1-0.4-1.7
						c0-0.7,0.1-1.2,0.4-1.7c0.3-0.5,0.7-0.9,1.1-1.2c0.5-0.3,1-0.4,1.6-0.4C9.5,69.3,10.1,69.4,10.6,69.7z M7.8,70.4L7.8,70.4
						c-0.3,0.2-0.6,0.5-0.8,0.9c-0.2,0.4-0.3,0.8-0.3,1.3c0,0.5,0.1,0.9,0.3,1.3c0.2,0.4,0.5,0.7,0.8,0.9c0.3,0.2,0.7,0.3,1.2,0.3
						c0.5,0,0.8-0.1,1.2-0.3c0.3-0.2,0.6-0.5,0.8-0.9c0.2-0.4,0.3-0.8,0.3-1.3c0-0.5-0.1-1-0.3-1.3c-0.2-0.4-0.5-0.7-0.8-0.9
						c-0.4-0.2-0.7-0.3-1.2-0.3C8.5,70.1,8.1,70.2,7.8,70.4z"/>
					<path class="st3" d="M19.1,69.9c0.5,0.4,0.9,0.9,1,1.5h-0.9c-0.2-0.4-0.4-0.7-0.8-0.9c-0.4-0.2-0.8-0.3-1.3-0.3
						c-0.4,0-0.8,0.1-1.2,0.3c-0.3,0.2-0.6,0.5-0.8,0.9C15,71.6,15,72.1,15,72.6c0,0.5,0.1,1,0.3,1.4c0.2,0.4,0.5,0.7,0.9,0.9
						c0.3,0.2,0.8,0.3,1.2,0.3c0.4,0,0.8-0.1,1.1-0.3c0.3-0.2,0.6-0.4,0.8-0.7c0.2-0.3,0.3-0.7,0.4-1.1H17v-0.6h3.2v0.8
						c-0.1,0.5-0.2,1-0.5,1.4c-0.3,0.4-0.6,0.7-1,1c-0.5,0.2-1,0.3-1.5,0.3c-0.6,0-1.2-0.1-1.6-0.4c-0.5-0.3-0.9-0.7-1.1-1.2
						c-0.3-0.5-0.4-1.1-0.4-1.7c0-0.7,0.1-1.2,0.4-1.7c0.3-0.5,0.7-0.9,1.1-1.2c0.5-0.3,1-0.4,1.6-0.4C18,69.3,18.6,69.5,19.1,69.9z
						"/>
					<polygon class="st3" points="23.3,69.4 23.3,75.8 22.5,75.8 22.5,69.4 					"/>
					<path class="st3" d="M30.5,69.9c0.5,0.4,0.9,0.9,1.1,1.6h-0.9c-0.2-0.4-0.4-0.8-0.8-1c-0.4-0.3-0.8-0.4-1.3-0.4
						c-0.4,0-0.8,0.1-1.1,0.3c-0.3,0.2-0.6,0.5-0.8,0.9c-0.2,0.4-0.3,0.8-0.3,1.3c0,0.5,0.1,0.9,0.3,1.3c0.2,0.4,0.5,0.7,0.8,0.9
						c0.3,0.2,0.7,0.3,1.1,0.3c0.5,0,1-0.1,1.3-0.4s0.6-0.6,0.8-1h0.9c-0.2,0.7-0.6,1.2-1.1,1.6c-0.5,0.4-1.1,0.6-1.9,0.6
						c-0.6,0-1.1-0.1-1.6-0.4c-0.5-0.3-0.8-0.7-1.1-1.1c-0.3-0.5-0.4-1.1-0.4-1.7c0-0.7,0.1-1.2,0.4-1.7c0.3-0.5,0.6-0.9,1.1-1.2
						c0.5-0.3,1-0.4,1.6-0.4C29.4,69.3,30,69.5,30.5,69.9z"/>
					<path class="st3" d="M37.5,74.3h-2.8l-0.5,1.5h-0.9l2.4-6.3h0.9l2.4,6.3h-0.9L37.5,74.3z M37.3,73.7L37.3,73.7l-1.2-3.3
						L35,73.7H37.3z"/>
					<polygon class="st3" points="41.7,75.1 44,75.1 44,75.8 40.9,75.8 40.9,69.4 41.7,69.4 					"/>
				</g>
				<g>
					<path class="st3" d="M53.2,75.8l-1.7-2.6h-0.9v2.6h-0.8v-6.4h2.1c0.7,0,1.3,0.2,1.6,0.5c0.4,0.3,0.5,0.8,0.5,1.4
						c0,0.5-0.1,0.9-0.4,1.3c-0.3,0.3-0.7,0.5-1.3,0.6l1.8,2.6H53.2z M50.6,72.6L50.6,72.6h1.2c0.9,0,1.4-0.4,1.4-1.2
						c0-0.9-0.5-1.2-1.4-1.2h-1.2V72.6z"/>
					<polygon class="st3" points="57,70 57,72.3 59.5,72.3 59.5,72.9 57,72.9 57,75.1 59.8,75.1 59.8,75.8 56.2,75.8 56.2,69.4 
						59.8,69.4 59.8,70 					"/>
					<path class="st3" d="M65.8,75c-0.2,0.3-0.4,0.5-0.7,0.7c-0.3,0.1-0.7,0.2-1.1,0.2c-0.4,0-0.8-0.1-1.1-0.2
						c-0.3-0.1-0.6-0.4-0.8-0.6c-0.2-0.3-0.3-0.6-0.3-0.9h0.9c0,0.2,0.1,0.4,0.2,0.5s0.3,0.3,0.5,0.4c0.2,0.1,0.4,0.2,0.7,0.2
						c0.4,0,0.7-0.1,0.9-0.3c0.2-0.2,0.3-0.5,0.3-0.8c0-0.3-0.1-0.5-0.2-0.6s-0.3-0.3-0.5-0.4c-0.2-0.1-0.5-0.2-0.8-0.3
						c-0.4-0.1-0.7-0.3-1-0.4c-0.3-0.1-0.5-0.3-0.7-0.5c-0.2-0.2-0.3-0.5-0.3-0.9c0-0.3,0.1-0.6,0.3-0.9c0.1-0.3,0.4-0.5,0.7-0.6
						c0.3-0.1,0.7-0.2,1.1-0.2c0.6,0,1.1,0.1,1.5,0.5c0.4,0.3,0.6,0.7,0.7,1.2H65c-0.1-0.3-0.2-0.5-0.4-0.7C64.4,70,64.1,70,63.7,70
						c-0.3,0-0.6,0.1-0.8,0.3s-0.3,0.4-0.3,0.7c0,0.3,0.1,0.5,0.2,0.6c0.1,0.2,0.3,0.3,0.5,0.4c0.2,0.1,0.5,0.2,0.8,0.3
						c0.4,0.1,0.7,0.3,1,0.4c0.3,0.1,0.5,0.3,0.7,0.6c0.2,0.2,0.3,0.6,0.3,1C66,74.4,65.9,74.7,65.8,75z"/>
					<path class="st3" d="M72.7,69.7c0.5,0.3,0.9,0.7,1.1,1.2c0.3,0.5,0.4,1,0.4,1.7c0,0.6-0.1,1.2-0.4,1.7
						c-0.3,0.5-0.6,0.9-1.1,1.2c-0.5,0.3-1,0.4-1.6,0.4c-0.6,0-1.1-0.1-1.6-0.4c-0.5-0.3-0.9-0.7-1.1-1.2c-0.3-0.5-0.4-1.1-0.4-1.7
						c0-0.7,0.1-1.2,0.4-1.7c0.3-0.5,0.7-0.9,1.1-1.2c0.5-0.3,1-0.4,1.6-0.4C71.7,69.3,72.3,69.4,72.7,69.7z M69.9,70.4L69.9,70.4
						c-0.3,0.2-0.6,0.5-0.8,0.9c-0.2,0.4-0.3,0.8-0.3,1.3c0,0.5,0.1,0.9,0.3,1.3c0.2,0.4,0.5,0.7,0.8,0.9c0.3,0.2,0.7,0.3,1.2,0.3
						c0.4,0,0.8-0.1,1.2-0.3c0.3-0.2,0.6-0.5,0.8-0.9c0.2-0.4,0.3-0.8,0.3-1.3c0-0.5-0.1-1-0.3-1.3c-0.2-0.4-0.5-0.7-0.8-0.9
						c-0.4-0.2-0.8-0.3-1.2-0.3C70.7,70.1,70.3,70.2,69.9,70.4z"/>
					<path class="st3" d="M77.3,69.4v3.9c0,0.7,0.1,1.1,0.4,1.4c0.3,0.3,0.7,0.5,1.2,0.5c0.5,0,0.9-0.2,1.1-0.5
						c0.3-0.3,0.4-0.8,0.4-1.4v-3.9h0.8v3.9c0,0.9-0.2,1.6-0.7,2c-0.4,0.5-1,0.7-1.7,0.7c-0.7,0-1.3-0.2-1.8-0.7
						c-0.4-0.4-0.7-1.1-0.7-2v-3.9H77.3z"/>
					<path class="st3" d="M87,75.8l-1.7-2.6h-0.9v2.6h-0.8v-6.4h2.1c0.7,0,1.3,0.2,1.6,0.5c0.3,0.3,0.5,0.8,0.5,1.4
						c0,0.5-0.1,0.9-0.5,1.3c-0.3,0.3-0.7,0.5-1.2,0.6l1.7,2.6H87z M84.4,72.6L84.4,72.6h1.2c0.9,0,1.4-0.4,1.4-1.2
						c0-0.9-0.5-1.2-1.4-1.2h-1.2V72.6z"/>
					<path class="st3" d="M94.8,69.9c0.5,0.4,0.9,0.9,1,1.6H95c-0.1-0.4-0.4-0.8-0.8-1c-0.4-0.3-0.8-0.4-1.3-0.4
						c-0.4,0-0.8,0.1-1.1,0.3c-0.3,0.2-0.6,0.5-0.8,0.9c-0.2,0.4-0.3,0.8-0.3,1.3c0,0.5,0.1,0.9,0.3,1.3c0.2,0.4,0.5,0.7,0.8,0.9
						c0.3,0.2,0.7,0.3,1.1,0.3c0.5,0,1-0.1,1.3-0.4c0.4-0.3,0.7-0.6,0.8-1h0.9c-0.2,0.7-0.5,1.2-1,1.6c-0.5,0.4-1.2,0.6-2,0.6
						c-0.6,0-1.1-0.1-1.6-0.4c-0.5-0.3-0.8-0.7-1.1-1.1c-0.3-0.5-0.4-1.1-0.4-1.7c0-0.7,0.1-1.2,0.4-1.7c0.3-0.5,0.6-0.9,1.1-1.2
						c0.5-0.3,1-0.4,1.6-0.4C93.6,69.3,94.3,69.5,94.8,69.9z"/>
					<polygon class="st3" points="98.9,70 98.9,72.3 101.3,72.3 101.3,72.9 98.9,72.9 98.9,75.1 101.6,75.1 101.6,75.8 98.1,75.8 
						98.1,69.4 101.6,69.4 101.6,70 					"/>
					<path class="st3" d="M107.6,75c-0.1,0.3-0.4,0.5-0.7,0.7c-0.3,0.1-0.7,0.2-1.1,0.2s-0.8-0.1-1.1-0.2c-0.3-0.1-0.6-0.4-0.8-0.6
						c-0.2-0.3-0.3-0.6-0.4-0.9h0.9c0,0.2,0.1,0.4,0.2,0.5c0.1,0.2,0.3,0.3,0.5,0.4c0.2,0.1,0.5,0.2,0.7,0.2c0.3,0,0.6-0.1,0.8-0.3
						c0.2-0.2,0.3-0.5,0.3-0.8c0-0.3-0.1-0.5-0.2-0.6s-0.3-0.3-0.5-0.4c-0.2-0.1-0.5-0.2-0.8-0.3c-0.4-0.1-0.7-0.3-1-0.4
						c-0.3-0.1-0.5-0.3-0.6-0.5c-0.2-0.2-0.3-0.5-0.3-0.9c0-0.3,0.1-0.6,0.2-0.9c0.2-0.3,0.4-0.5,0.7-0.6c0.3-0.1,0.7-0.2,1.1-0.2
						c0.6,0,1.1,0.1,1.5,0.5s0.6,0.7,0.7,1.2h-0.9c0-0.3-0.2-0.5-0.4-0.7c-0.2-0.2-0.5-0.3-0.9-0.3c-0.3,0-0.6,0.1-0.8,0.3
						c-0.2,0.2-0.3,0.4-0.3,0.7c0,0.3,0.1,0.5,0.2,0.6c0.1,0.2,0.3,0.3,0.5,0.4c0.2,0.1,0.5,0.2,0.8,0.3c0.4,0.1,0.8,0.3,1,0.4
						c0.3,0.1,0.5,0.3,0.6,0.6c0.2,0.2,0.3,0.6,0.3,1C107.8,74.4,107.8,74.7,107.6,75z"/>
				</g>
				<g>
					<polygon class="st3" points="120.1,69.5 120.1,75.8 119.2,75.8 119.2,70.7 117.2,75.8 116.5,75.8 114.4,70.8 114.4,75.8 
						113.6,75.8 113.6,69.5 114.6,69.5 116.9,74.8 119.1,69.5 					"/>
					<path class="st3" d="M126.2,74.3h-2.8l-0.5,1.5H122l2.4-6.3h0.9l2.4,6.3h-0.9L126.2,74.3z M126,73.7L126,73.7l-1.2-3.3
						l-1.2,3.3H126z"/>
					<polygon class="st3" points="134.6,75.8 133.8,75.8 130.4,70.7 130.4,75.8 129.6,75.8 129.6,69.4 130.4,69.4 133.8,74.5 
						133.8,69.4 134.6,69.4 					"/>
					<path class="st3" d="M140.8,74.3h-2.8l-0.5,1.5h-0.9l2.4-6.3h0.9l2.4,6.3h-0.9L140.8,74.3z M140.5,73.7L140.5,73.7l-1.2-3.3
						l-1.2,3.3H140.5z"/>
					<path class="st3" d="M148.9,69.9c0.5,0.4,0.9,0.9,1,1.5h-0.9c-0.1-0.4-0.4-0.7-0.8-0.9c-0.3-0.2-0.8-0.3-1.2-0.3
						c-0.4,0-0.8,0.1-1.2,0.3c-0.3,0.2-0.6,0.5-0.8,0.9c-0.2,0.4-0.3,0.8-0.3,1.3c0,0.5,0.1,1,0.3,1.4c0.2,0.4,0.5,0.7,0.8,0.9
						c0.4,0.2,0.8,0.3,1.2,0.3c0.4,0,0.7-0.1,1.1-0.3c0.3-0.2,0.6-0.4,0.8-0.7c0.2-0.3,0.3-0.7,0.4-1.1h-2.5v-0.6h3.2v0.8
						c-0.1,0.5-0.2,1-0.5,1.4c-0.3,0.4-0.6,0.7-1.1,1c-0.4,0.2-0.9,0.3-1.5,0.3c-0.6,0-1.2-0.1-1.6-0.4c-0.5-0.3-0.9-0.7-1.1-1.2
						c-0.3-0.5-0.4-1.1-0.4-1.7c0-0.7,0.1-1.2,0.4-1.7c0.3-0.5,0.6-0.9,1.1-1.2c0.5-0.3,1-0.4,1.6-0.4
						C147.8,69.3,148.4,69.5,148.9,69.9z"/>
					<polygon class="st3" points="153.2,70 153.2,72.3 155.6,72.3 155.6,72.9 153.2,72.9 153.2,75.1 155.9,75.1 155.9,75.8 
						152.3,75.8 152.3,69.4 155.9,69.4 155.9,70 					"/>
					<polygon class="st3" points="164.5,69.5 164.5,75.8 163.6,75.8 163.6,70.7 161.6,75.8 160.9,75.8 158.9,70.8 158.9,75.8 
						158,75.8 158,69.5 159,69.5 161.3,74.8 163.5,69.5 					"/>
					<polygon class="st3" points="167.7,70 167.7,72.3 170.2,72.3 170.2,72.9 167.7,72.9 167.7,75.1 170.4,75.1 170.4,75.8 
						166.9,75.8 166.9,69.4 170.4,69.4 170.4,70 					"/>
					<polygon class="st3" points="177.6,75.8 176.7,75.8 173.4,70.7 173.4,75.8 172.6,75.8 172.6,69.4 173.4,69.4 176.7,74.5 
						176.7,69.4 177.6,69.4 					"/>
					<polygon class="st3" points="183.9,69.4 183.9,70 182.1,70 182.1,75.8 181.3,75.8 181.3,70 179.5,70 179.5,69.4 					"/>
				</g>
			</g>
			<g>
				<path class="st2" d="M181.8,21.1c0.7,0.4,1.2,0.9,1.5,1.5c0.4,0.7,0.5,1.4,0.5,2.2c0,0.8-0.2,1.5-0.5,2.2
					c-0.4,0.6-0.9,1.1-1.5,1.5c-0.7,0.3-1.4,0.5-2.2,0.5c-0.8,0-1.6-0.2-2.2-0.5c-0.7-0.4-1.2-0.9-1.5-1.5c-0.3-0.7-0.5-1.4-0.5-2.2
					c0-0.8,0.2-1.6,0.5-2.2c0.4-0.6,0.9-1.1,1.5-1.5s1.4-0.5,2.2-0.5C180.5,20.5,181.2,20.7,181.8,21.1z M181.5,27.9L181.5,27.9
					c0.6-0.3,1-0.7,1.3-1.2c0.3-0.5,0.5-1.2,0.5-1.9c0-0.7-0.1-1.4-0.5-1.9c-0.3-0.5-0.7-1-1.2-1.2c-0.6-0.3-1.2-0.5-2-0.5
					c-0.7,0-1.4,0.1-1.9,0.5c-0.6,0.3-1,0.7-1.3,1.2c-0.3,0.5-0.4,1.2-0.4,1.9c0,0.7,0.1,1.3,0.4,1.9c0.3,0.5,0.7,1,1.3,1.2
					c0.5,0.3,1.2,0.5,1.9,0.5C180.3,28.3,181,28.2,181.5,27.9z M181.4,24.6L181.4,24.6c-0.2,0.3-0.5,0.4-0.9,0.5l1.2,2h-1.4l-1.1-2
					h-0.2v2h-1.2v-5h2c0.6,0,1.1,0.1,1.4,0.5c0.3,0.3,0.5,0.7,0.5,1.1C181.8,24,181.6,24.3,181.4,24.6z M179.1,24.4L179.1,24.4h0.7
					c0.5,0,0.7-0.2,0.7-0.6c0-0.4-0.2-0.6-0.7-0.6h-0.7V24.4z"/>
			</g>
		</g>
	</g>
</g>
<g id="Layer_2" class="st0">
	
		<image style="display:inline;overflow:visible;" width="8192" height="912" xlink:href="../logos,svg/Check_n_Track-Blue-and-Green.png"  transform="matrix(4.849685e-02 0 0 4.671475e-02 -133.3923 18.7059)">
	</image>
</g>
<g id="Layer_3" class="st0">
	<g id="Layer_x0020_1_1_" class="st1">
		<g id="_568370712">
			<path class="st5" d="M136.6,49.5c-2,0-3.9,0-5.9,0c0-1.7,0-3.5,0-5.2c3.7,0,7.4,0,11.1,0c0,5.6,0,11.2,0,16.8
				c-0.3,0.1-3.6,0.1-4.6,0c0-0.5-0.1-1-0.1-1.5c0-0.5-0.1-1-0.1-1.5c-0.1,0.1-0.1,0.1-0.1,0.1c-0.8,1.6-2.1,2.6-3.8,3.2
				c-2.8,1-5.5,1.1-8.3-0.2c-1.7-0.8-3.1-2.1-4.3-3.7c-1.5-1.9-2.4-4.2-3-6.5c-0.7-2.6-0.8-5.3-0.6-8c0.2-2.4,0.7-4.7,1.7-6.9
				c0.9-2,2.1-3.7,3.9-5c1.8-1.4,3.8-2.2,6.1-2.4c1.9-0.2,3.9,0,5.7,0.7c3.9,1.5,6.3,4.4,7.1,8.5c0.1,0.5,0.1,1,0.2,1.5
				c-1.9,0-3.7,0-5.6,0c0-0.1-0.1-0.3-0.1-0.5c-0.6-2.5-2.1-4-4.6-4.6c-2.4-0.6-4.4,0.1-6,1.9c-1.1,1.2-1.8,2.7-2.2,4.3
				c-0.6,2.3-0.7,4.6-0.5,7c0.1,1.6,0.5,3.2,1.2,4.7c0.5,1.1,1.1,2,2,2.9c2.2,2.2,5.7,2.2,7.9,0.4c1.5-1.2,2.4-2.7,2.7-4.6
				c0.1-0.3,0.1-0.7,0.1-1C136.6,49.7,136.6,49.6,136.6,49.5z"/>
			<path class="st5" d="M-8.3,45.9c0,2.2-0.2,4.4-0.7,6.6c-0.3,1.4-0.8,2.7-1.5,3.9c-1.5,2.8-3.8,4.6-6.9,5.3
				c-2.5,0.6-5,0.6-7.5-0.1c-2.8-0.8-5-2.5-6.5-5c-1-1.6-1.6-3.4-2-5.2c-0.5-2.5-0.6-5-0.5-7.5c0.1-2.1,0.4-4.1,1-6.2
				c0.6-1.9,1.5-3.7,2.8-5.3c1.7-2,3.9-3.2,6.4-3.6c2.1-0.4,4.1-0.3,6.2,0.3c2.8,0.8,5,2.5,6.4,5c1,1.7,1.6,3.5,2,5.3
				C-8.4,41.6-8.3,43.7-8.3,45.9z M-13.8,45.7L-13.8,45.7c0-1.6-0.1-3.2-0.5-4.8c-0.3-1.3-0.8-2.6-1.5-3.7c-0.8-1.1-1.9-1.9-3.2-2.3
				c-0.8-0.3-1.7-0.3-2.5-0.3c-1.9,0.1-3.4,0.9-4.5,2.4c-0.4,0.6-0.8,1.1-1,1.7c-0.7,1.6-1,3.2-1.1,4.9c-0.1,1.8-0.1,3.5,0.1,5.3
				c0.1,1.3,0.4,2.5,0.9,3.7c0.8,1.7,1.9,3,3.7,3.7c0.6,0.2,1.2,0.3,1.9,0.4c2.2,0.1,4.1-0.6,5.5-2.3c0.8-1,1.3-2.1,1.7-3.3
				C-13.9,49.2-13.8,47.5-13.8,45.7z"/>
			<path class="st5" d="M195.1,45.4c0,2.8-0.2,5.1-0.8,7.3c-0.4,1.5-1,3-1.8,4.4c-1.5,2.3-3.5,3.8-6.2,4.5c-2.5,0.7-5.1,0.7-7.6,0.1
				c-3.2-0.8-5.5-2.7-7-5.6c-0.9-1.6-1.4-3.3-1.7-5.1c-0.5-2.7-0.6-5.4-0.3-8.1c0.2-2.3,0.6-4.4,1.4-6.6c0.7-1.7,1.7-3.3,3-4.6
				c1.7-1.7,3.8-2.7,6.2-3c1.9-0.3,3.7-0.2,5.5,0.3c3,0.8,5.3,2.6,6.8,5.3c1,1.7,1.6,3.6,2,5.5C195,41.9,195.1,43.9,195.1,45.4z
				 M189.6,45.7L189.6,45.7c0-1.6-0.1-3.3-0.5-4.9c-0.3-1.3-0.8-2.6-1.5-3.7c-0.8-1.2-1.9-2-3.2-2.4c-0.8-0.3-1.7-0.3-2.6-0.3
				c-1.9,0.1-3.4,0.9-4.5,2.4c-0.4,0.5-0.7,1.1-1,1.7c-0.7,1.5-1,3.2-1.1,4.8c-0.2,1.8-0.1,3.6,0.1,5.4c0.1,1.2,0.4,2.5,0.9,3.6
				c1.5,3.5,4.8,4.5,7.7,3.9c1.9-0.4,3.2-1.5,4.2-3.2c0.5-0.8,0.8-1.7,1-2.6C189.5,49,189.6,47.4,189.6,45.7z"/>
			<path class="st5" d="M105.9,45.9c0,2.3-0.2,4.5-0.7,6.7c-0.4,1.6-1,3.1-1.9,4.5c-1.5,2.3-3.6,3.8-6.2,4.5c-2.5,0.7-5,0.7-7.5,0.1
				c-3.1-0.8-5.4-2.6-6.9-5.3c-0.9-1.6-1.5-3.4-1.8-5.2c-0.5-2.6-0.6-5.3-0.4-7.9c0.1-2.1,0.5-4.1,1.2-6c0.5-1.6,1.2-3,2.3-4.3
				c1.9-2.4,4.3-3.7,7.3-4.1c2-0.3,4-0.2,5.9,0.4c2.6,0.8,4.5,2.4,5.9,4.6c1.1,1.7,1.8,3.5,2.2,5.5
				C105.7,41.5,105.9,43.7,105.9,45.9z M100.3,45.7L100.3,45.7c0-1.7-0.1-3.4-0.5-5c-0.3-1.3-0.8-2.5-1.5-3.6
				c-0.8-1.1-1.9-1.9-3.2-2.3c-0.8-0.2-1.7-0.3-2.5-0.2c-1.8,0.1-3.3,0.8-4.4,2.3c-0.6,0.8-1.1,1.6-1.4,2.5
				c-0.5,1.4-0.8,2.8-0.9,4.2c-0.1,2.2-0.1,4.3,0.3,6.5c0.2,1.2,0.6,2.3,1.2,3.3c0.8,1.3,1.9,2.3,3.3,2.8c0.6,0.2,1.2,0.3,1.9,0.4
				c2.3,0.1,4.2-0.6,5.7-2.4c0.8-1,1.3-2.1,1.6-3.3C100.2,49.1,100.3,47.4,100.3,45.7z"/>
			<path class="st5" d="M11.1,46.1c0.3,0.1,0.6,0.3,0.9,0.4c1.1,0.7,1.8,1.7,2,2.9c0.2,0.8,0.2,1.6,0.2,2.4c0,3,0,6,0,9
				c0,0.1,0,0.1,0,0.2c-1.8,0-3.6,0-5.5,0c0-0.1,0-0.3,0-0.4c0-2.5,0-5,0-7.5c0-0.7,0-1.3-0.2-1.9c-0.3-1.3-1.1-2-2.4-2.2
				c-0.5-0.1-1-0.1-1.5-0.1c-1.9,0-3.9,0-5.8,0c-0.1,0-0.1,0-0.3,0c0,4.1,0,8.2,0,12.2c-1.8,0-3.6,0-5.4,0c-0.1-0.3-0.1-30.6,0-31.3
				c0.1,0,0.3,0,0.4,0c4.4,0,8.7,0,13.1,0c3.4,0,6.5,2,7.6,5.5c0.8,2.4,0.8,4.9-0.1,7.3c-0.6,1.4-1.5,2.6-2.8,3.3
				C11.4,45.9,11.2,46,11.1,46.1C11.1,46,11.1,46,11.1,46.1z M-1.3,35.2L-1.3,35.2c0,2.8,0,5.5,0,8.3c0.1,0,0.2,0,0.3,0
				c2.3,0,4.6,0,6.9,0c0.3,0,0.7,0,1-0.1c1.2-0.2,2-0.8,2.5-2c0.2-0.5,0.3-1,0.4-1.6c0.1-1.2-0.1-2.3-0.7-3.2
				c-0.3-0.6-0.9-1-1.5-1.2c-0.5-0.2-1.1-0.3-1.7-0.2c-2.3,0-4.6,0-6.8,0C-1.1,35.2-1.2,35.2-1.3,35.2z"/>
			<path class="st5" d="M152.3,48.8c0,4.1,0,8.2,0,12.2c-0.3,0.1-4.6,0.1-5.4,0c-0.1-0.3-0.1-30.5-0.1-31.3c0.1,0,0.3,0,0.4,0
				c4.4,0,8.7,0,13.1,0c3.5,0,6.6,2.1,7.7,5.6c0.8,2.4,0.8,4.9-0.2,7.3c-0.6,1.5-1.6,2.7-3.1,3.4c0,0-0.1,0.1-0.1,0.1
				c0.1,0.1,0.1,0.1,0.2,0.1c1.6,0.7,2.5,1.9,2.8,3.5c0.1,0.8,0.2,1.6,0.2,2.4c0,2.9,0,5.8,0,8.6c0,0.1,0,0.2,0,0.3
				c-1.8,0-3.6,0-5.5,0c0-0.1,0-0.3,0-0.4c0-2.5,0-5,0-7.4c0-0.7,0-1.3-0.2-2c-0.1-0.3-0.1-0.5-0.2-0.7c-0.3-0.7-0.8-1.1-1.4-1.4
				c-0.7-0.3-1.3-0.3-2-0.3c-2,0-4.1,0-6.1,0C152.4,48.8,152.4,48.8,152.3,48.8z M152.3,35.2L152.3,35.2c0,2.8,0,5.5,0,8.3
				c0.1,0,0.2,0,0.3,0c2.3,0,4.6,0,6.8,0c0.3,0,0.7,0,1-0.1c1.2-0.2,2-0.8,2.5-1.9c0.2-0.5,0.3-0.9,0.4-1.4c0.1-1,0-2.1-0.4-3
				c-0.5-1-1.2-1.6-2.4-1.8c-0.3-0.1-0.7-0.1-1.1-0.1c-2.3,0-4.5,0-6.8,0C152.6,35.2,152.5,35.2,152.3,35.2z"/>
			<path class="st5" d="M16.3,29.8c6.5,0,13.1,0,19.6,0c0,1.8,0,3.6,0,5.4c-4.7,0-9.4,0-14.1,0c0,2.3,0,4.5,0,6.7
				c4.3,0,8.6,0,12.9,0c0.1,0.3,0.1,4.6,0.1,5.5c-4.3,0-8.6,0-13,0c-0.1,0.3-0.1,7.6,0,8.1c4.9,0,9.8,0,14.8,0c0,1.9,0,3.7,0,5.5
				c-6.7,0-13.5,0-20.2,0C16.3,50.6,16.3,40.2,16.3,29.8z"/>
			<path class="st5" d="M196.7,29.8c1.9,0,3.8,0,5.7,0c0,0.1,0,0.3,0,0.5c0,6.7,0,13.3,0,20.1c0,1,0.1,2.1,0.4,3.1
				c0.2,0.6,0.4,1.1,0.8,1.5c0.7,1,1.7,1.6,3,1.8c0.8,0.1,1.6,0,2.4-0.2c1.6-0.4,2.6-1.4,3.2-3c0.3-0.8,0.4-1.7,0.4-2.7
				c0-0.3,0-0.5,0-0.8c0-6.6,0-13.3,0-19.9c0-0.1,0-0.3,0-0.5c1.9,0,3.8,0,5.7,0c0,0.1,0,0.2,0,0.3c0,7,0,14,0,20.9
				c0,1.6-0.2,3.1-0.7,4.6c-1,3.2-3.2,5.3-6.5,6.2c-1.7,0.5-3.4,0.6-5.2,0.4c-1.2-0.1-2.4-0.3-3.4-0.8c-2.8-1.1-4.5-3.2-5.2-6.1
				c-0.3-1.3-0.5-2.7-0.5-4.1c0-7.1,0-14.1,0-21.1C196.7,30,196.7,29.9,196.7,29.8z"/>
			<path class="st5" d="M225.6,49.7c0,3.8,0,7.6,0,11.4c-1.9,0-3.7,0-5.6,0c0-10.4,0-20.9,0-31.3c0.1,0,0.2,0,0.3,0
				c3.9,0,7.8,0,11.7,0c2.6,0,4.7,1.2,6.2,3.2c1,1.3,1.6,2.8,1.9,4.5c0.4,2.2,0.3,4.4-0.4,6.5c-0.7,2.1-2,3.8-4.1,4.9
				c-1.1,0.6-2.4,0.9-3.7,0.9c-2,0-3.9,0-5.9,0C225.9,49.7,225.8,49.7,225.6,49.7z M225.6,44.4L225.6,44.4c0.2,0,0.3,0,0.4,0
				c1.5,0,3,0,4.6,0c0.4,0,0.7,0,1.1,0c1.6-0.1,2.8-0.9,3.4-2.5c0.5-1.3,0.5-2.7,0.1-4c-0.4-1.4-1.4-2.3-2.8-2.6
				c-0.4-0.1-0.8-0.1-1.3-0.1c-1.7,0-3.4,0-5.1,0c-0.1,0-0.2,0-0.3,0C225.6,38.3,225.6,41.3,225.6,44.4z"/>
			<path class="st5" d="M-61,29.8c6.3,0,12.6,0,18.9,0c0,1.8,0,3.6,0,5.4c-1.5,0-3,0-4.4,0s-3,0-4.4,0s-3,0-4.5,0c0,2.4,0,4.7,0,7.1
				c3.9,0,7.8,0,11.7,0c0,1.8,0,3.7,0,5.5c-0.4,0-0.8,0-1.2,0c-0.4,0-0.9,0-1.3,0s-0.8,0-1.3,0c-0.4,0-0.9,0-1.3,0
				c-0.4,0-0.8,0-1.3,0s-0.9,0-1.3,0s-0.9,0-1.3,0s-0.9,0-1.3,0s-0.9,0-1.3,0c0,4.4,0,8.8,0,13.2c-1.9,0-3.7,0-5.5,0
				C-61,50.6-61,40.2-61,29.8z"/>
			<path class="st5" d="M58.3,29.8c0,1.8,0,3.6,0,5.4c-2.7,0-5.3,0-8,0c0,8.6,0,17.3,0,25.9c-1.9,0-3.7,0-5.6,0c0-8.6,0-17.2,0-25.9
				c-2.7,0-5.3,0-8,0c0-1.8,0-3.6,0-5.5C43.9,29.8,51.1,29.8,58.3,29.8z"/>
			<path class="st5" d="M72.7,35.2c0,8.7,0,17.3,0,25.9c-1.9,0-3.7,0-5.6,0c-0.1-0.9,0-1.9,0-2.8c0-1,0-1.9,0-2.9c0-1,0-1.9,0-2.8
				s0-1.9,0-2.9c0-1,0-1.9,0-2.9c0-1,0-1.9,0-2.9c0-1,0-1.9,0-2.8s0-1.9,0-2.9s0-1.9,0-2.9c-2.7,0-5.3,0-8,0c0-1.8,0-3.6,0-5.5
				c7.2,0,14.4,0,21.6,0c0,1.8,0,3.6,0,5.4C78,35.2,75.4,35.2,72.7,35.2z"/>
			<path class="st5" d="M-35.3,61.1c-1.9,0-3.7,0-5.5,0c-0.1-0.3-0.1-30.9,0-31.3c1.8,0,3.7,0,5.5,0C-35.3,40.2-35.3,50.6-35.3,61.1
				z"/>
			<path class="st6" d="M247.2,34.7c-4,0-7.2-3.2-7.2-7.3c0-4,3.2-7.2,7.2-7.2c4,0,7.3,3.2,7.3,7.3
				C254.5,31.5,251.2,34.7,247.2,34.7z M247.2,21.4L247.2,21.4c-3.4,0-6.1,2.7-6.1,6.1s2.7,6.1,6.1,6.1c3.4,0,6.1-2.7,6.1-6.1
				C253.3,24.1,250.6,21.4,247.2,21.4z"/>
			<path class="st6" d="M249.2,27.3c0.7,0.2,0.8,0.7,0.8,1.2c0,0.6,0,1.2,0,1.9c-0.5,0-0.9,0-1.4,0c0-0.2,0-0.3,0-0.6
				c0-0.4,0-0.8,0-1.2c0-0.6-0.2-0.8-0.8-0.8c-0.6,0-1.1,0-1.7,0c0,0.8,0,1.7,0,2.6c-0.5,0-0.9,0-1.3,0c0-2.2,0-4.4,0-6.6
				c0.1,0,0.2,0,0.3,0c1,0,2,0,3,0c0.3,0,0.5,0,0.8,0.1c1.2,0.3,1.6,1.7,1.2,2.6C249.9,26.9,249.6,27.1,249.2,27.3z M246.1,26.8
				L246.1,26.8c0.5,0,1,0,1.4,0c0.2,0,0.4,0,0.6,0c0.5-0.1,0.8-0.4,0.8-0.9c0-0.5-0.3-0.8-0.8-0.8c-0.1,0-0.2,0-0.3,0
				c-0.5,0-1,0-1.5,0c-0.1,0-0.2,0-0.3,0C246.1,25.6,246.1,26.2,246.1,26.8z"/>
			<path class="st7" d="M-90.2,28.5h5.3h17.3l-4.5,6.2h-12.6v7.9h6.6v6.3h-6.6v14.9h-5.5v-29V28.5z M-96.8,28.5H-114l4.5,6.2H-97
				v7.9h-6.6v6.3h6.6v9.3l5.5,5.6v-29v-6.2H-96.8z"/>
		</g>
	</g>
</g>
<g id="Layer_4">
	<g id="Layer_x0020_1_2_">
		<g id="_340153784">
			<g>
				<path class="st8" d="M136.7,30.5c0-0.2,0-0.3,0-0.4c0.2,0,0.4,0,0.6,0c4.1,0,8.1,0,12.2,0c2,0,3.8,0.3,5.6,1.1
					c1.4,0.6,2.6,1.5,3.4,2.8c1.5,2.3,1.8,4.8,0.5,7.3c-0.5,0.9-1.2,1.7-2,2.3c-1,0.8-2.3,1.3-3.5,1.6c-0.3,0.1-0.5,0.1-0.8,0.2
					c-0.1,0-0.1,0.1-0.2,0.1c0.1,0.1,0.3,0.2,0.4,0.3c1.4,0.7,2.6,1.7,3.7,2.9c0.6,0.7,1.2,1.5,1.8,2.2c1.1,1.5,2.2,3.1,3.3,4.7
					c0.8,1.1,1.6,2.2,2.5,3.1c0.8,0.8,1.8,1.4,3,1.6c0.2,0,0.4,0.1,0.5,0.1c0,0,0,0.1,0,0.2c-0.7,0.1-4.4,0.1-6.6,0
					c-0.6-0.7-1.3-1.4-1.9-2.2c-1.8-2.4-3.5-4.8-5.2-7.2c-0.5-0.7-1-1.3-1.6-2c-0.8-0.9-1.6-1.6-2.6-2.2c-1.6-1-3.4-1.4-5.3-1.4
					c0,0-0.1,0-0.2,0.1c0,0.2,0,0.5,0,0.8c0,3.3,0,6.7,0,10c0,0.4,0,0.8,0.1,1.2c0.2,1,0.7,1.7,1.6,2.1c0.4,0.1,0.7,0.2,1.1,0.3
					c0.3,0.1,0.6,0.1,0.9,0.1c0.1,0,0.1,0.1,0.2,0.3c-0.2,0-0.3,0-0.5,0c-4,0.1-10.3,0-11.1-0.1c0-0.1,0.1-0.2,0.1-0.2
					c0.2-0.1,0.5-0.1,0.8-0.1c0.4-0.1,0.7-0.1,1.1-0.3c1.1-0.5,1.7-1.2,1.8-2.4c0-0.3,0-0.7,0-1c0-7.4,0-14.8,0-22.2
					c0-0.4,0-0.7,0-1.1c-0.1-1.1-0.6-1.8-1.6-2.3c-0.5-0.2-1-0.4-1.6-0.4C137.1,30.5,136.9,30.5,136.7,30.5z M144.3,45L144.3,45
					c0.7,0,1.4,0,2,0c1.1,0,2.3-0.1,3.4-0.3c1.1-0.2,2.2-0.5,3.2-1.1c1.3-0.8,2.1-1.9,2.5-3.4c0.2-1,0.3-2,0.1-3c-0.3-1.6-0.9-3-2-4
					c-0.9-0.8-1.8-1.4-3-1.7c-1.6-0.5-3.2-0.6-4.9-0.5c-0.4,0-0.9,0-1.4,0.2C144.3,35.7,144.3,40.3,144.3,45z"/>
				<path class="st9" d="M283,29.2c4.3,0,8.3,1.1,11.9,3.5c2,1.3,3.7,3,5,5c3,4.6,3.1,10.9-0.2,15.8c-1.4,2-3.1,3.7-5.2,5
					c-2.7,1.7-5.7,2.7-8.9,3c-3.4,0.3-6.8,0-10.1-1.2c-3.1-1.1-5.8-2.8-7.9-5.3c-1.7-2-3-4.3-3.4-6.9c-0.7-3.7-0.1-7.1,1.9-10.3
					c1.4-2.2,3.2-4,5.4-5.4c2.5-1.6,5.3-2.6,8.3-3C280.8,29.2,281.9,29.2,283,29.2z M297.8,45.5L297.8,45.5c0-1.7-0.1-3.4-0.5-5.1
					c-0.8-3.4-2.7-5.9-5.5-7.9c-0.5-0.3-1.1-0.6-1.6-0.9c-2.2-0.9-4.5-1.5-6.9-1.5c-1.9,0-3.7,0.3-5.5,0.8c-2.2,0.7-4.2,1.8-5.8,3.5
					c-1.4,1.5-2.4,3.2-3,5.1c-0.4,1.2-0.6,2.5-0.7,3.8c-0.2,2.5-0.1,4.9,0.6,7.3c1.3,4.7,4.4,7.9,9.1,9.3c3.6,1.1,7.2,1,10.8-0.1
					c4.2-1.4,6.9-4.2,8.3-8.4C297.6,49.4,297.8,47.4,297.8,45.5z"/>
				<path class="st8" d="M113.2,29.2c4.3,0,8.4,1.1,12,3.6c2.3,1.5,4.1,3.5,5.4,6c1.3,2.5,1.8,5.1,1.5,7.9c-0.3,3.6-1.9,6.6-4.3,9.1
					c-2.5,2.5-5.4,4.2-8.8,5.1c-4.9,1.3-9.7,1-14.3-0.8c-2.9-1.2-5.4-2.9-7.4-5.4c-1.5-1.8-2.6-3.9-3.1-6.2
					c-0.8-3.8-0.2-7.3,1.8-10.6c1-1.6,2.3-3,3.8-4.2c2.9-2.3,6.2-3.6,9.8-4.2C110.8,29.2,111.9,29.2,113.2,29.2z M98.2,45.4
					L98.2,45.4c0,1.6,0.1,3.3,0.6,4.9c1.3,4.9,4.4,8.1,9.2,9.6c3.6,1.1,7.3,1,11-0.2c1.9-0.6,3.5-1.6,4.9-3c1.7-1.7,2.8-3.7,3.4-5.9
					c0.9-3.5,0.9-7,0-10.5c-0.8-3.2-2.6-5.7-5.3-7.6c-0.6-0.4-1.2-0.8-1.8-1c-2.2-1-4.5-1.5-6.9-1.5c-1.6,0-3.2,0.2-4.7,0.6
					c-4.6,1.2-7.8,4.1-9.4,8.6C98.4,41.3,98.2,43.3,98.2,45.4z"/>
				<path class="st8" d="M177.5,45c0.2,0,0.5,0,0.7,0c2,0,3.9,0,5.9,0c1,0,2.1-0.1,3.1-0.4c1.2-0.3,1.9-1,2.1-2.3c0-0.1,0-0.2,0-0.2
					c0.1-0.1,0.2-0.1,0.3-0.1c0,0.1,0.1,0.2,0.1,0.3c0,2.1,0,4.1,0,6.2c0,0.2,0,0.3-0.1,0.4c-0.1,0-0.2-0.1-0.3-0.4
					c-0.1-0.4-0.3-0.9-0.5-1.2c-0.5-0.6-1.2-1.1-2-1.2c-0.7-0.1-1.4-0.1-2-0.1c-2.3,0-4.5,0-6.8,0c-0.1,0-0.3,0-0.3,0
					c-0.2,0.1-0.2,0.3-0.2,0.5c0,3.4,0,6.9,0,10.3c0,0.6,0.1,1.3,0.4,1.8c0.3,0.6,0.7,1,1.3,1.1c0.4,0.1,0.8,0.2,1.2,0.2
					c2.1,0,4.1,0,6.2,0c0.8,0,1.5-0.1,2.3-0.3c1.3-0.4,2.3-1.1,2.9-2.2c0.2-0.4,0.4-0.7,0.6-1.1c0-0.1,0.2-0.1,0.3-0.2
					c0,0.1,0.1,0.1,0.1,0.2c-0.4,1.5-0.8,3-1.2,4.5c-0.8,0.1-15.9,0.2-21.2,0.1c-0.1,0-0.3,0-0.5,0c0-0.1,0-0.2,0.1-0.2
					c0.1,0,0.3,0,0.5,0c0.8,0,1.4-0.3,2-0.7c0.7-0.4,1-1,1.2-1.8c0-0.3,0.1-0.7,0.1-1c0-7.6,0-15.2,0-22.8c0-0.7-0.1-1.5-0.5-2.1
					c-0.4-0.8-1-1.3-1.9-1.4c-0.5-0.1-0.9-0.1-1.4-0.2c0-0.1,0-0.1,0-0.2c0.7-0.1,20.9-0.1,21.6,0c0,0.1,0,0.2,0,0.4
					c0,1.3,0,2.6,0,3.9c0,0.1,0,0.3-0.1,0.4c0,0-0.2,0-0.2,0c-0.1-0.1-0.1-0.2-0.1-0.3c-0.1-1.5-1-2.4-2.3-3
					c-0.9-0.4-1.8-0.5-2.8-0.5c-0.4,0-0.8,0-1.3,0c-2.1,0-4.3,0-6.4,0c-0.3,0-0.5,0-0.8,0c0,0.1-0.1,0.2-0.1,0.3c0,4.4,0,8.9,0,13.4
					C177.5,44.7,177.5,44.8,177.5,45z"/>
				<path class="st10" d="M208.6,31.3c-0.1,0-0.3,0-0.5,0c-2.3,0-4.5,0-6.8,0c-1.1,0-2.3,0.1-3.3,0.5c-0.3,0.1-0.5,0.2-0.7,0.3
					c-0.8,0.3-1.3,0.9-1.7,1.6c-0.2,0.5-0.4,1-0.5,1.6c0,0.2,0,0.4-0.1,0.6c0,0.1-0.1,0.2-0.2,0.2c-0.2,0-0.2-0.1-0.2-0.3
					c0-0.1,0-0.3,0-0.4c0-2.1,0-4.1,0-6.2c0-0.2,0-0.3,0-0.5c0-0.1,0.2-0.2,0.3-0.1c0.1,0.1,0.2,0.2,0.3,0.3c0.5,0.6,1.1,1,1.9,1
					c0.6,0.1,1.2,0.1,1.7,0.1c2.1,0,4.3,0,6.4,0c5.6,0,11.3,0,16.9,0c0.4,0,0.8,0,1.3-0.1c0.9-0.1,1.8-0.5,2.4-1.1
					c0.2-0.2,0.3-0.4,0.6-0.3c0.1,0.5,0.1,6.2,0,7.4c-0.3,0.1-0.3,0.1-0.4-0.1c-0.1-0.4-0.1-0.8-0.2-1.1c-0.1-0.4-0.3-0.9-0.5-1.2
					c-0.3-0.6-0.8-1-1.4-1.3c-1-0.5-2-0.7-3-0.8c-0.3,0-0.6,0-0.9,0c-2.4,0-4.7,0-7.1,0c-0.1,0-0.3,0-0.5,0c0,0.2,0,0.4,0,0.6
					c0,8.3,0,16.6,0,24.9c0,0.4,0,0.7,0.1,1.1c0.2,1,0.7,1.6,1.6,2c0.5,0.3,1.1,0.3,1.7,0.4c0.1,0,0.3,0,0.5,0.1c0,0.1,0,0.2,0,0.2
					c-0.6,0.1-10.8,0.1-11.5,0c0-0.1,0.1-0.2,0.1-0.2c0.3-0.1,0.5-0.1,0.8-0.1c0.5-0.1,1-0.3,1.4-0.5c0.8-0.4,1.3-1.1,1.4-2
					c0-0.3,0-0.6,0-0.9c0-8.3,0-16.6,0-24.8C208.7,31.7,208.8,31.5,208.6,31.3z"/>
				<path class="st10" d="M261.5,28.6c0.1,0.9,0.1,6.8,0,7.4c-0.2,0.1-0.3,0-0.4-0.2c-0.1-0.4-0.1-0.7-0.2-1.1
					c-0.1-0.4-0.2-0.7-0.4-1c-0.4-0.8-0.9-1.3-1.7-1.7c-0.9-0.4-1.9-0.6-2.9-0.7c-0.4,0-0.8-0.1-1.2-0.1c-2.2,0-4.4,0-6.6,0
					c-0.2,0-0.4,0-0.6,0c-0.2,0.3-0.1,0.6-0.1,0.9c0,4.4,0,8.9,0,13.4c0,3.7,0,7.4,0,11.1c0,0.4,0,0.9,0.1,1.3c0.2,1,0.7,1.6,1.6,2
					c0.4,0.1,0.8,0.2,1.1,0.3c0.3,0.1,0.6,0.1,0.9,0.1c0,0,0.1,0.1,0.2,0.2c-0.1,0-0.2,0.1-0.3,0.1c-3.8,0-7.5,0-11.3,0
					c0.1-0.1,0.1-0.3,0.1-0.3c0.3-0.1,0.6-0.1,0.9-0.2c0.5-0.1,1-0.2,1.4-0.5c0.9-0.4,1.3-1.2,1.5-2.1c0-0.3,0-0.6,0-0.9
					c0-8.3,0-16.6,0-24.8c0-0.2,0-0.4,0-0.7c-0.2,0-0.3,0-0.5,0c-2.3,0-4.6,0-6.9,0c-1,0-1.9,0.1-2.8,0.4c-0.4,0.1-0.8,0.3-1.2,0.4
					c-0.8,0.3-1.3,0.9-1.7,1.7c-0.2,0.5-0.4,1-0.5,1.5c0,0.2-0.1,0.5-0.1,0.7c0,0.2-0.2,0.2-0.4,0.1c0-0.1,0-0.2,0-0.3
					c0-2.3,0-4.5,0-6.8c0-0.1,0-0.2,0-0.2c0-0.2,0.3-0.2,0.4-0.1c0.1,0.1,0.2,0.2,0.3,0.3c0.5,0.5,1,0.9,1.7,1
					c0.4,0.1,0.8,0.1,1.2,0.1c0.4,0,0.7,0,1.1,0c7.6,0,15.2,0,22.9,0c0.4,0,0.8,0,1.2,0c1-0.1,1.8-0.5,2.5-1.2
					C261,28.7,261.1,28.5,261.5,28.6z"/>
				<path class="st11" d="M52.1,30.1c7.2,0,14.4,0,21.6,0c0,0.1,0,0.3,0,0.4c0,1.3,0,2.6,0,3.9c0,0.1,0,0.2,0,0.3
					c0,0-0.1,0.1-0.1,0.1s-0.1,0-0.1,0c-0.1-0.1-0.1-0.2-0.1-0.4c-0.1-0.4-0.3-0.8-0.5-1.2c-0.5-1-1.5-1.7-2.6-1.9
					c-0.5-0.1-1.1-0.2-1.6-0.2c-2.8,0-5.6,0-8.4,0c-0.1,0-0.3,0-0.5,0c0,0.2,0,0.3,0,0.5c-0.1,3.6,0,12.5,0.1,13.3
					c0.2,0,0.3,0,0.5,0c2.6,0,5.1,0,7.7,0c0.5,0,1,0,1.4-0.1c1.3-0.2,2.1-1,2.5-2.2c0-0.2,0.1-0.4,0.2-0.6c0,0,0.1-0.1,0.2-0.1
					c0,0,0.1,0.1,0.2,0.1c0,0.1,0,0.2,0,0.3c0,2,0,4,0,6c0,0.2,0,0.3-0.2,0.4c-0.1,0.1-0.2-0.1-0.3-0.3c0-0.1,0-0.2,0-0.2
					c-0.4-1.3-1.2-2.1-2.5-2.3c-0.5-0.1-1-0.1-1.5-0.1c-2.5,0-5.1,0-7.6,0c-0.1,0-0.3,0-0.4,0c-0.2,0.2-0.2,0.4-0.2,0.6
					c0,1.7,0,3.4,0,5c0,1.7,0,3.4,0,5.2c0,0.3,0,0.6,0,0.9c0.2,1.6,1.5,2.5,2.6,2.7c0.4,0.1,0.9,0.1,1.3,0.2
					c0.1,0.1,0.1,0.3-0.1,0.3c-0.2,0-0.4,0-0.5,0c-3.4,0-6.9,0-10.3,0c-0.2,0-0.4,0-0.5,0c0,0-0.1-0.1-0.1-0.2c0,0,0.1-0.1,0.1-0.1
					c0.3,0,0.7,0,1-0.1c1.5-0.2,2.6-1.4,2.7-2.9c0-0.3,0-0.5,0-0.8c0-7.4,0-14.9,0-22.3c0-0.3,0-0.6,0-0.9c-0.1-1.5-0.8-2.4-2.5-2.7
					c-0.4-0.1-0.8-0.1-1.2-0.1C52,30.4,52,30.3,52.1,30.1z"/>
				<path class="st8" d="M89.4,60.7c-3.9,0-7.6,0-11.4,0c-0.1-0.2-0.1-0.3,0.1-0.3c0.2-0.1,0.5-0.1,0.8-0.1c0.6-0.1,1.1-0.3,1.5-0.5
					c0.7-0.4,1.1-1,1.3-1.7c0.1-0.4,0.1-0.9,0.1-1.3c0-2.6,0-5.3,0-7.9c0-4.9,0-9.8,0-14.6c0-0.5,0-1-0.1-1.5
					c-0.1-0.8-0.6-1.4-1.4-1.7c-0.5-0.2-1-0.4-1.5-0.5c-0.2,0-0.5,0-0.8-0.1c-0.1,0-0.1-0.1-0.2-0.3c0.2,0,0.4,0,0.5,0
					c3.5,0,7,0,10.5,0c0.1,0,0.3,0,0.4,0c0,0,0.1,0.1,0.1,0.1c0,0,0,0.1-0.1,0.1c-0.2,0-0.5,0.1-0.7,0.1c-0.6,0-1.1,0.2-1.6,0.5
					c-0.9,0.5-1.3,1.2-1.4,2.1c0,0.3,0,0.6,0,1c0,7.5,0,15,0,22.6c0,0.3,0,0.6,0,1c0.1,0.9,0.5,1.6,1.3,2c0.5,0.3,1.1,0.6,1.7,0.7
					c0.2,0,0.5,0,0.7,0.1C89.3,60.4,89.4,60.6,89.4,60.7z"/>
				<path class="st12" d="M302.1,70.6c0,0.2,0,0.4,0,0.5c0,0-0.1,0-0.1,0.1c0,0,0,0-0.1,0c-31.7,0-63.5,0-95.2,0c-0.1,0-0.2,0-0.3,0
					c-0.2-0.2-0.2-0.4-0.1-0.5c0,0,0.1-0.1,0.1-0.1c0.3,0,0.5,0,0.8,0c31.3,0,62.6,0,93.9,0C301.5,70.6,301.7,70.6,302.1,70.6z"/>
				<path class="st13" d="M133.4,70.6c0,0.3,0,0.4,0,0.5c-0.1,0-0.1,0.1-0.1,0.1c-0.3,0-0.6,0-0.9,0c-26.5,0-52.9,0-79.4,0
					c-0.3,0-0.6,0-1,0c0-0.2,0-0.4,0-0.5c0.1,0,0.1-0.1,0.2-0.1c0.3,0,0.5,0,0.8,0c26.5,0,53.1,0,79.6,0
					C132.8,70.6,133.1,70.6,133.4,70.6z"/>
				<path class="st14" d="M159,67.9c-1.1,2.3-2,4.5-3,6.8c-0.4,0.2-0.7,0.1-1,0c-0.4-1.1-0.9-2.3-1.3-3.4c-0.5-1.1-0.9-2.3-1.4-3.4
					c-0.1,0.4-0.1,0.7-0.1,1.1c0,0.4,0,0.8,0,1.2c0,0.4,0,0.7,0,1.1c0,0.4,0,0.7,0,1.1c0,0.4,0,0.8,0,1.2c0,0.4,0,0.7,0,1.1
					c-0.4,0.2-0.7,0.2-1,0.1c0-0.2-0.1-0.3-0.1-0.5c0-2.3,0-4.6,0-6.9c0-0.7,0.1-0.8,0.8-0.8c0.1,0,0.2,0,0.2,0
					c0.5,0,0.9,0.2,1.1,0.7c0.6,1.5,1.2,3,1.8,4.5c0.2,0.4,0.3,0.8,0.5,1.3c0.1-0.2,0.2-0.4,0.3-0.5c0.7-1.7,1.4-3.4,2.1-5.1
					c0.4-0.9,0.5-1,1.6-1c0.3,0,0.5,0.2,0.5,0.5c0,0.1,0,0.3,0,0.5c0,2.2,0,4.4,0,6.6c0,0.2,0,0.4,0,0.6c-0.3,0.2-0.6,0.1-0.9,0.1
					c-0.2-0.2-0.1-0.5-0.1-0.7c0-1.8,0-3.6,0-5.3C159.1,68.4,159.1,68.2,159,67.9z"/>
				<path class="st15" d="M144.5,73c0.1-0.2,0.2-0.4,0.3-0.6c0.7-1.6,1.4-3.3,2.1-4.9c0.1-0.1,0.1-0.3,0.2-0.4
					c0.2-0.4,0.5-0.5,0.9-0.5c1.1,0,1.1,0.1,1.1,1c0,2.1,0,4.3,0,6.4c0,0.2,0,0.5,0,0.7c-0.4,0.2-0.7,0.2-1,0c-0.1-0.8,0-1.5,0-2.3
					c0-0.7,0-1.5,0-2.2c0-0.8,0-1.5,0-2.3c-0.3,0-0.3,0.2-0.3,0.3c-0.8,1.9-1.6,3.8-2.4,5.7c0,0,0,0.1,0,0.1
					c-0.3,0.7-0.3,0.8-1.2,0.6c-0.2-0.2-0.3-0.5-0.4-0.8c-0.7-1.7-1.4-3.4-2-5.2c-0.1-0.3-0.2-0.6-0.4-0.8c-0.1,0-0.1,0-0.1,0
					c0,0,0,0,0,0.1c0,2.2,0,4.4,0,6.5c0,0,0,0,0,0.1c-0.3,0.2-0.6,0.2-1,0c0-0.2,0-0.3,0-0.5c0-2.3,0-4.5,0-6.8
					c0-0.8,0.1-0.9,0.9-0.9c0.1,0,0.3,0,0.4,0c0.4,0,0.6,0.2,0.8,0.6c0.1,0.1,0.1,0.3,0.2,0.4c0.6,1.6,1.3,3.2,1.9,4.8
					C144.2,72.5,144.2,72.8,144.5,73z"/>
				<path class="st16" d="M201.9,72.9c0-2.1,0-4.1,0-6.2c0,0,0,0,0-0.1c0.4-0.2,0.4-0.2,0.9,0c0,0.1,0,0.3,0,0.4c0,2.3,0,4.6,0,6.9
					c0,0.8-0.3,0.8-0.9,0.8c-0.3,0-0.5-0.1-0.6-0.3c-0.1-0.2-0.3-0.4-0.4-0.7c-1-1.8-2-3.6-3-5.4c-0.1-0.1-0.1-0.2-0.2-0.3
					c0,0-0.1,0-0.1,0c0,0,0,0,0,0c0,2.1,0,4.3,0,6.4c-0.3,0.2-0.6,0.2-1,0.1c0-0.2-0.1-0.3-0.1-0.5c0-2.3,0-4.6,0-6.9
					c0-0.1,0-0.2,0-0.3c0-0.4,0.2-0.5,0.5-0.5c0.1,0,0.3,0,0.4,0c0.4,0,0.6,0.1,0.8,0.5c0.1,0.2,0.2,0.4,0.3,0.5
					c1,1.7,1.9,3.4,2.8,5.1c0,0.1,0.1,0.2,0.2,0.3C201.8,72.9,201.9,72.9,201.9,72.9z"/>
				<path class="st17" d="M175.1,70.3c0.2,0.1,0.3,0.2,0.5,0.3c1.3,0.7,1.3,2.8,0,3.7c-0.5,0.3-1,0.5-1.5,0.5c-0.8,0-1.7,0-2.5,0
					c-0.4,0-0.5-0.1-0.5-0.5c0-0.1,0-0.3,0-0.4c0-2.1,0-4.3,0-6.4c0-0.9,0-0.9,1-0.9c0.6,0,1.1,0,1.7,0c0.3,0,0.7,0.1,1,0.2
					c1.3,0.5,1.7,2,0.9,3.1C175.5,70,175.3,70.1,175.1,70.3z M172.2,73.8L172.2,73.8c0.7,0,1.4,0.1,2,0c0.8-0.1,1.3-0.8,1.1-1.6
					c-0.1-0.6-0.5-1-1.1-1.2c-0.7-0.1-1.3-0.1-2,0C172.1,71.9,172.1,72.8,172.2,73.8z M172.2,70L172.2,70c0.5,0,1,0,1.4,0
					c0.9,0,1.4-0.8,1.2-1.6c-0.1-0.4-0.2-0.7-0.5-0.8c-0.3-0.1-0.6-0.2-0.9-0.2c-0.4,0-0.8-0.1-1.2,0.1
					C172.2,68.3,172.1,69.1,172.2,70z"/>
				<path class="st18" d="M169.3,70.9c-0.1,0.4-0.1,1-0.3,1.5c-0.4,1.4-1.4,2.2-2.8,2.4c-0.7,0.1-1.4,0.1-2.1-0.1
					c-0.9-0.3-1.6-0.9-1.9-1.8c-0.5-1.5-0.5-3,0-4.5c0.4-1,1.1-1.7,2.2-1.9c0.8-0.2,1.7-0.2,2.5,0c1,0.3,1.6,0.9,2,1.8
					C169.2,69,169.3,69.8,169.3,70.9z M168.2,70.6L168.2,70.6c0-0.7-0.1-1.3-0.4-1.9c-0.2-0.5-0.6-1-1.2-1.2c-1.5-0.6-3,0.1-3.4,1.7
					c-0.3,0.9-0.2,1.9,0,2.8c0,0.2,0.1,0.5,0.2,0.7c0.2,0.4,0.5,0.8,1,1c1.5,0.7,3.1,0,3.6-1.6C168.1,71.6,168.1,71.1,168.2,70.6z"
					/>
				<path class="st19" d="M194.7,67.4c-1.1,0.1-2.1,0-3.2,0.1c-0.1,0.8-0.1,1.6,0,2.5c0.2,0,0.4,0,0.5,0c0.7,0,1.3,0,2,0
					c0.3,0,0.4,0.1,0.4,0.4c0,0.3-0.1,0.5-0.4,0.5c-0.6,0-1.1,0-1.7,0c-0.3,0-0.6,0-0.9,0c-0.1,1,0,1.9,0,2.8c0.2,0,0.3,0,0.5,0
					c0.8,0,1.5,0,2.3,0c0.2,0,0.4,0,0.6,0c0.1,0.4,0.1,0.4,0,0.8c-0.1,0-0.3,0-0.5,0c-1.1,0-2.2,0-3.3,0c-0.1,0-0.3,0-0.4,0
					c-0.2,0-0.3-0.1-0.3-0.3c0-0.1,0-0.3,0-0.5c0-2.2,0-4.5,0-6.7c0-0.1,0-0.3,0-0.4c0-0.2,0.1-0.3,0.4-0.4c0.1,0,0.3,0,0.4,0
					c1.1,0,2.2,0,3.2,0c0.5,0,0.6,0.1,0.5,0.7C194.8,67.2,194.8,67.3,194.7,67.4z"/>
				<path class="st19" d="M181.5,66.6c0.4-0.2,0.7-0.2,1,0c0,1.1,0,2.3,0,3.5c0,1.2,0,2.4,0,3.6c0.2,0,0.3,0.1,0.5,0.1
					c0.7,0,1.3,0,2,0c0.2,0,0.4,0,0.6,0c0.2,0.3,0.2,0.5,0.1,0.8c-0.1,0-0.3,0.1-0.4,0.1c-1,0-2.1,0-3.1,0c-0.1,0-0.2,0-0.3,0
					c-0.2,0-0.3-0.1-0.3-0.3c0-0.1,0-0.3,0-0.4c0-2.4,0-4.7,0-7.1C181.5,66.8,181.5,66.7,181.5,66.6z"/>
				<path class="st19" d="M187,74.7c-0.1-0.8-0.1-7.5,0-8.1c0.5-0.2,0.5-0.2,1,0c0,0,0,0,0,0.1c0,0,0,0,0,0.1c0,2.5,0,5.1,0,7.6
					c0,0.1,0,0.2,0,0.3C187.7,74.9,187.4,74.8,187,74.7z"/>
				<path class="st19" d="M136.7,66.6c0.4-0.2,0.7-0.2,1.1,0c0.1,0.6,0,1.3,0,2c0,0.7,0,1.4,0,2c0,0.6,0,1.3,0,2c0,0.7,0,1.4,0,2
					c-0.4,0.2-0.7,0.2-1,0.1c0,0,0-0.1-0.1-0.1c0,0,0,0,0-0.1c0-2.4,0-4.9,0-7.3C136.7,67.1,136.7,66.9,136.7,66.6z"/>
				<path class="st19" d="M179.2,66.6c0.1,0.6,0.1,7.4,0,8.1c-0.3,0.2-0.6,0.1-1,0c0,0,0,0,0-0.1c0,0,0,0,0-0.1c0-2.5,0-5.1,0-7.6
					c0-0.1,0-0.2,0-0.3C178.5,66.4,178.9,66.4,179.2,66.6z"/>
			</g>
			<g>
				<path class="st20" d="M42.3,65.8c-0.2,0.6-0.6,1-0.9,1.5c-0.3,0.4-0.6,0.9-1,1.3c-0.6-0.4-1.1-1-1.6-1.4c-0.5-0.5-1.1-1-1.6-1.5
					c-0.4,0.4-0.6,0.8-0.9,1.3c0.7,0.8,1.6,1.4,2.3,2.2c-0.3,0.6-0.8,1.2-1.2,1.8c-0.4,0.6-0.8,1.2-1.2,1.8
					c-0.4,0.6-0.8,1.2-1.2,1.8c-0.4,0.6-0.8,1.2-1.3,1.8c-0.5-0.4-1-0.9-1.5-1.3c0.5-0.8,1-1.5,1.5-2.3c-0.4-0.3-0.7-0.6-0.9-0.9
					c-0.2,0-0.3,0.1-0.4,0.2c-0.4,0.5-0.7,1-1.1,1.5c-0.1,0.1-0.2,0.2-0.2,0.3c-0.5-0.4-2-1.7-2.3-2.2c0.3-0.6,2.1-3.3,2.5-3.7
					c0.6,0.6,1.3,1.2,1.9,1.8c0.4-0.3,0.5-0.4,0.8-1.1c-0.6-0.7-1.3-1.2-1.9-1.9c0.3-0.7,0.9-1.3,1.2-2c-0.2-0.3-0.5-0.5-0.8-0.8
					c-0.3,0.3-0.5,0.6-0.7,0.9c-0.2,0.3-0.4,0.6-0.7,0.9c-0.8-0.5-1.3-1.3-2-1.8c-0.4,0.3-0.5,0.7-0.8,1.1c0.7,0.6,1.3,1.2,2,1.9
					c-0.1,0.4-0.4,0.7-0.6,1c-0.2,0.3-0.4,0.6-0.6,0.9c-0.2,0.3-0.4,0.6-0.6,1c-0.2,0.3-0.4,0.6-0.7,0.9c-0.2-0.1-0.3-0.2-0.4-0.3
					c-0.6-0.6-1.3-1.2-1.9-1.8c0.5-0.8,1-1.5,1.5-2.2c-0.3-0.4-0.6-0.6-1-0.9c-0.4,0.3-0.5,0.7-0.8,1.1c-0.3,0.4-0.5,0.7-0.7,1
					c-0.5-0.3-1.1-0.9-1.4-1.3c0,0,0,0,0,0c0,0,0,0,0-0.1c1.6-2.3,3.1-4.5,4.7-6.8c0,0,0.1-0.1,0.1-0.2c0.1,0.1,0.3,0.2,0.4,0.3
					c0.5,0.5,1.1,1,1.6,1.5c0.1,0.1,0.2,0.2,0.3,0.3c0.4-0.4,0.6-0.9,0.9-1.2c0-0.1,0-0.1,0-0.1c0,0,0,0,0-0.1L16.4,46.5
					c-0.1,0.1-0.3,0.2-0.4,0.3c-0.4,0.4-1,0.3-1.3-0.2c-0.1-0.1-0.1-0.2-0.2-0.4c-0.6,0.1-1-0.2-1.3-0.7c-0.2,0-0.4,0.2-0.5,0.3
					c-1,0.8-2.2,1.3-3.4,1.6C8.1,47.5,7,47.4,5.9,47c-0.1-0.1-0.3-0.1-0.5-0.2c0,0.2,0,0.3,0,0.5c0,0.2-0.1,0.5-0.1,0.6
					c-0.1,0.3-0.3,0.4-0.6,0.4c-0.4,0-0.7,0.1-1-0.1c-1-0.5-1.7-1.2-2-2.3c0-0.2-0.1-0.4,0-0.6c0-0.4,0.3-0.7,0.7-0.8
					c0.1,0,0.3-0.1,0.4-0.1c0-0.1,0-0.2-0.1-0.3c-0.8-1.5-1.1-3.1-1.1-4.7c0-1.6,0.4-3.1,1-4.6c0-0.1,0.1-0.2,0.1-0.3c0,0,0,0,0-0.1
					c0,0,0-0.1-0.1-0.1c-0.6-0.1-0.8-0.6-0.8-1.1c0-0.2,0-0.5,0.1-0.7c0.2-0.8,0.6-1.5,1.3-2c0.2-0.2,0.5-0.4,0.7-0.5
					c0.4-0.2,0.8,0,1.1,0.3c0.1,0.1,0.1,0.2,0.2,0.4c0.1-0.1,0.3-0.2,0.4-0.3c0.8-0.7,1.7-1.3,2.7-1.7c1.6-0.6,3.3-0.8,5-0.1
					c0.1,0,0.1,0,0.2,0c0,0,0,0,0.1,0c0-0.1,0-0.2,0-0.3c0-0.1,0-0.3,0-0.5c0.1-0.5,0.4-0.8,0.9-0.8c0.2,0,0.4,0,0.6,0.1
					c1.1,0.5,1.9,1.2,2.2,2.4c0.1,0.2,0,0.5,0,0.7c-0.1,0.4-0.3,0.6-0.6,0.7c-0.1,0-0.3,0.1-0.5,0.1c0.3,0.6,0.5,1.2,0.7,1.8
					c0.2,0.6,0.3,1.2,0.4,1.9c0.1,0.6,0.1,1.2,0.1,1.8c0,0.6-0.1,1.3-0.3,1.9c-0.1,0.6-0.3,1.2-0.5,1.9c0.5,0.2,0.9,0.6,0.9,1.3
					c0.4,0.1,0.8,0.3,1,0.8s0,0.8-0.2,1.2L42.3,65.8z M4.4,39.3L4.4,39.3c0,1,0.2,2,0.6,2.9c0.6,1.1,1.5,1.7,2.8,1.8
					c1.2,0.1,2.3-0.2,3.1-1.2c0.5-0.6,0.8-1.4,0.9-2.2c0-0.4,0.2-0.6,0.5-0.8c1.1-0.5,1.8-1.4,2-2.6c0.3-1.3,0.1-2.5-0.5-3.6
					c-0.7-1.6-2.4-2.4-4.1-2c-0.8,0.2-1.5,0.5-2.1,1C5.6,34.3,4.6,36.6,4.4,39.3z"/>
				<path class="st21" d="M20.9,50.9L14,57.4c-0.8,0.8-1.7,1.5-2.5,2.3c-0.1,0.1-0.2,0.2-0.3,0.3c0.3,0.4,0.6,0.8,0.9,1.3
					c0.1-0.1,0.2-0.1,0.3-0.2c0.5-0.5,1.1-1,1.7-1.6c0.1-0.1,0.2-0.1,0.4-0.2c0.1,0.1,0.2,0.1,0.2,0.2c1.5,2.3,3.1,4.5,4.6,6.7
					c0,0,0,0.1,0.1,0.2c-0.2,0.4-0.9,1-1.5,1.4c-0.5-0.7-1-1.4-1.5-2.2c-0.2,0.2-0.4,0.3-0.5,0.5c-0.1,0.1-0.3,0.3-0.5,0.4
					c0.4,0.8,1,1.5,1.5,2.3c-0.3,0.4-1.8,1.8-2.3,2.2c0,0-0.1,0-0.2-0.1c-0.8-1.2-1.6-2.3-2.4-3.5c0.2-0.5,0.7-0.7,1-1
					c0.3-0.3,0.7-0.6,1-0.9c-0.2-0.4-0.5-0.7-0.7-1.1c-0.4,0.3-0.7,0.6-1,0.9c-0.3,0.3-0.7,0.6-1,0.9c-0.5-0.6-0.9-1.3-1.4-1.9
					c-0.3,0.2-0.6,0.4-0.8,0.7c0.4,0.7,0.9,1.2,1.3,1.9c-0.1,0.1-0.1,0.2-0.2,0.3c-0.5,0.4-0.9,0.8-1.3,1.2
					c-0.1,0.1-0.3,0.2-0.4,0.4c0.2,0.4,0.5,0.8,0.8,1.1c0.7-0.6,1.3-1.2,2-1.8c0.4,0.4,2.2,3,2.6,3.7c-0.3,0.4-1.5,1.6-2.3,2.2
					c-0.1-0.1-0.2-0.2-0.2-0.3c-0.3-0.4-0.6-0.9-0.9-1.3c-0.1-0.2-0.3-0.4-0.4-0.5c-0.3,0-0.4,0.2-0.6,0.4c-0.1,0.1-0.3,0.3-0.5,0.5
					c0.1,0.1,0.1,0.3,0.2,0.4c0.3,0.5,0.7,1,1,1.5c0.1,0.1,0.2,0.3,0.2,0.4c-0.4,0.5-0.9,0.9-1.4,1.3c-0.3,0-0.3-0.2-0.4-0.4
					c-1.1-1.5-2.1-3.1-3.2-4.7c-0.4-0.6-0.8-1.2-1.2-1.8c0-0.1-0.1-0.2-0.2-0.3C3.8,69.1,3.9,69,4,68.9c0.5-0.5,1-1,1.5-1.4
					C5.7,67.3,5.9,67.1,6,67c-0.3-0.4-0.6-0.8-0.8-1.2c-0.2,0-0.3,0.1-0.4,0.2c-0.8,0.7-1.6,1.5-2.4,2.2c-0.2,0.2-0.3,0.4-0.5,0.4
					c-0.4-0.4-1.5-2.1-1.9-2.6c0-0.2,0.2-0.3,0.3-0.4c1.7-1.5,3.3-3.1,5-4.6c3.4-3.2,6.9-6.4,10.4-9.6l2.7-2.6L20.9,50.9z M24,43.7
					c0-0.1,0-0.2-0.1-0.3c-0.4-0.9-0.1-1.5,0.8-1.7c0.1-0.9,0.1-0.9,0.9-1.4c-1-3.1-1.1-6.1,0.5-9.1c-0.1,0-0.2-0.1-0.3-0.1
					c-0.7-0.2-1-0.6-0.9-1.3c0-0.2,0.1-0.5,0.2-0.7c0.3-0.7,0.9-1.3,1.5-1.6c0.3-0.2,0.7-0.3,1-0.3c0.5,0,0.9,0.3,0.9,0.8
					c0,0.2,0,0.5,0,0.8c0.1,0,0.2,0,0.3,0c2-0.8,3.9-0.6,5.7,0.4c0.8,0.4,1.5,0.9,2.1,1.5c0.1,0.1,0.2,0.1,0.3,0.2
					c0.2-0.1,0.2-0.3,0.3-0.4c0.3-0.3,0.6-0.5,1-0.3c0.2,0.1,0.5,0.2,0.7,0.3c0.8,0.6,1.3,1.4,1.5,2.3c0,0.3,0,0.6,0,0.9
					c-0.1,0.4-0.3,0.7-0.7,0.7c-0.1,0-0.1,0-0.2,0.1c1.4,3.3,1.7,6.7-0.1,9.9c0.1,0.2,0.3,0.1,0.4,0.2c0.5,0.1,0.7,0.4,0.8,0.8
					c0,0.2,0,0.4,0,0.6c-0.3,1.1-1,1.8-2,2.3c-0.3,0.2-0.7,0.2-1,0.1c-0.4,0-0.6-0.4-0.7-0.8c0-0.2,0-0.5,0-0.8
					c-2.9,1.1-5.4,0.4-7.8-1.5c-0.3,0.2-0.4,0.6-0.7,0.7c-0.2,0-0.4,0-0.7,0.1c0,0.1-0.1,0.2-0.2,0.3c-0.3,0.5-0.9,0.6-1.4,0.3
					c-0.1-0.1-0.1-0.2-0.3-0.3c-0.1,0.1-0.3,0.2-0.4,0.3c-0.6,0.5-1.1,1-1.7,1.5L21.4,46L24,43.7z M37.9,39.4L37.9,39.4
					c0.1-2.6-1.3-5.3-3.2-6.7c-0.7-0.5-1.5-0.9-2.4-1.1c-1.6-0.3-2.9,0.3-3.7,1.6c-0.8,1.3-1,2.6-0.7,4.1c0.3,1.2,0.9,2.1,2.1,2.6
					c0.3,0.1,0.5,0.3,0.5,0.6c0,0.1,0,0.2,0,0.3c0.1,0.8,0.5,1.6,1.1,2.2c1.6,1.6,4.5,1.2,5.6-0.7C37.7,41.4,37.9,40.4,37.9,39.4z"
					/>
			</g>
		</g>
	</g>
</g>
<g id="Layer_5" class="st0">
	<g id="Layer_x0020_1_3_" class="st1">
		<g id="_799148128">
			
				<linearGradient id="SVGID_1_" gradientUnits="userSpaceOnUse" x1="131.4048" y1="72.7278" x2="95.5275" y2="72.7278" gradientTransform="matrix(1.0238 0 0 -1.0238 11.3306 119.5328)">
				<stop  offset="0" style="stop-color:#00ADEF"/>
				<stop  offset="1" style="stop-color:#184297"/>
			</linearGradient>
			<path class="st22" d="M123,36.8c-1.3-0.7-2.8-1.1-4.4-1.1c-2.6,0-5,1-6.7,2.8c-1.7,1.7-2.7,4-2.7,6.6s1,5,2.7,6.6
				c1.7,1.7,4.1,2.8,6.7,2.8c1.6,0,3.1-0.4,4.4-1.1c1.3-0.6,2.3-1.6,3.2-2.7c0.2-0.3,0.3-0.6,0.6-0.8c0.6-0.6,1.3-1.2,2.1-1.6
				c0.9-0.5,2-0.7,3.1-0.7c0.8,0,1.6,0.2,2.4,0.5c0.6,0.2,1.1,0.5,1.6,0.8c0.5,0.3,0.9,0.7,1.4,1c0.3,0.2,0.7,0.4,1.1,0.6
				c0.6,0.2,1.2,0.3,1.8,0.3c1.6,0,3-0.6,4-1.7s1.7-2.4,1.7-4l0,0l0,0c0-1.6-0.6-3-1.7-4s-2.4-1.7-4-1.7c-0.6,0-1.3,0.2-1.8,0.3
				c-0.4,0.2-0.8,0.3-1.1,0.6c-0.6,0.3-0.9,0.7-1.4,1.1c-0.5,0.3-1,0.6-1.6,0.8c-0.8,0.2-1.6,0.4-2.4,0.4c-1.1,0-2.1-0.2-3.1-0.7
				c-0.8-0.4-1.5-0.9-2.1-1.5c-0.3-0.3-0.4-0.6-0.6-0.9C125.3,38.4,124.2,37.4,123,36.8z"/>
			<path class="st23" d="M128.2,54.8c2-1.9,5-1.9,7,0c1.9,2,1.9,5,0,7c-2.2,2.2-4.8,3.9-7.7,5.1c-2.8,1.1-5.8,1.7-9,1.7
				c-6.5,0-12.4-2.6-16.6-6.9l0,0c-4.3-4.3-6.9-10.2-6.9-16.7c0-6.5,2.7-12.4,6.9-16.6l0.3-0.3c4.2-4.1,10-6.6,16.3-6.6
				c3.2,0,6.2,0.6,9,1.8c2.9,1.2,5.5,2.9,7.7,5.1c1.9,1.9,1.9,5,0,6.9c-2,2-5,2-7,0c-1.3-1.3-2.8-2.3-4.4-3c-1.7-0.6-3.4-1-5.3-1
				c-3.6,0-7,1.5-9.5,3.8l-0.2,0.2c-2.4,2.5-4,5.9-4,9.7c0,3.8,1.6,7.3,4,9.7l0,0c2.5,2.5,5.9,4,9.7,4c1.9,0,3.6-0.3,5.3-1
				C125.4,57.1,126.9,56.1,128.2,54.8z"/>
		</g>
		<path class="st24" d="M177.7,52.4c1.2-1.2,3.2-1.2,4.4,0c1.3,1.3,1.3,3.2,0,4.5c-1.5,1.6-3.3,2.8-5.4,3.5c-2,0.9-4.1,1.3-6.3,1.3
			c-4.5,0-8.7-1.8-11.6-4.8c-3-3-4.9-7.1-4.9-11.7s1.9-8.7,4.9-11.7c2.9-3,7.1-4.8,11.6-4.8c2.2,0,4.3,0.4,6.3,1.3
			c2.1,0.8,3.9,2.1,5.4,3.5c1.3,1.3,1.3,3.2,0,4.5c-1.2,1.3-3.2,1.3-4.4,0c-1-0.9-2.1-1.7-3.3-2.2c-1.2-0.5-2.5-0.8-3.9-0.8
			c-2.8,0-5.3,1.2-7.2,3c-1.8,1.8-2.9,4.4-2.9,7.2c0,2.8,1.1,5.4,2.9,7.2c1.9,1.9,4.4,3,7.2,3c1.4,0,2.8-0.2,3.9-0.8
			C175.6,54.1,176.7,53.4,177.7,52.4z M296.4,59.7c-0.7,1.6-2.6,2.3-4.2,1.5c-1.6-0.7-2.3-2.5-1.5-4.2l12-26.1
			c1.1-2.5,4.7-2.4,5.8,0l12,26.1c0.7,1.7,0,3.5-1.6,4.2c-1.6,0.8-3.5,0.1-4.2-1.5l-2.5-5.5H299L296.4,59.7z M309.3,47.8l-3.7-8.1
			l-3.7,8.1H309.3z M248.6,58.3c0,1.7-1.4,3.2-3.2,3.2s-3.2-1.4-3.2-3.2V32.1c0-1.7,1.4-3.2,3.2-3.2s3.2,1.4,3.2,3.2V58.3z
			 M260.6,58.3c0,4.2-6.4,4.2-6.4,0V32.1c0-3.3,4.5-4.3,6-1.4l10.6,17.2l10.6-17.2c1.5-2.9,6-1.9,6,1.4v26.2c0,4.2-6.4,4.2-6.4,0
			v-15l-7.5,12.2c-1.2,2.1-4.2,2.1-5.4,0l-7.5-12.2V58.3z M220.6,42.1h10.9c1.7,0,3.2,1.4,3.2,3.2c0,1.7-1.4,3.2-3.2,3.2h-10.9v10
			c0,1.7-1.4,3.2-3.2,3.2c-1.7,0-3.2-1.4-3.2-3.2V45.2V32.1c0-1.7,1.4-3.2,3.2-3.2h17.4c1.7,0,3.2,1.4,3.2,3.2
			c0,1.7-1.4,3.2-3.2,3.2h-14.1V42.1z M207.7,55.2c4.2,0,4.2,6.4,0,6.4h-17.3c-1.7,0-3.2-1.4-3.2-3.2V45.2V32.1
			c0-1.7,1.4-3.2,3.2-3.2h17.3c4.2,0,4.2,6.3,0,6.3h-14.1v6.8h10.9c1.8,0,3.2,1.4,3.2,3.2c0,1.7-1.4,3.2-3.2,3.2h-10.9v6.8H207.7z"
			/>
	</g>
</g>
<g id="Layer_6" class="st0">
	<g id="Layer_x0020_1_4_" class="st1">
		<path class="st25" d="M315,45.5c0,2.1-0.2,4.2-0.6,6.3c-0.3,1.5-0.8,2.8-1.5,4.1c-1.6,2.9-4,4.8-7.3,5.6c-2.5,0.6-4.9,0.6-7.4,0
			c-3.2-0.8-5.6-2.7-7.1-5.6c-0.9-1.6-1.4-3.3-1.7-5.1c-0.5-2.7-0.6-5.5-0.4-8.2c0.2-2.3,0.6-4.5,1.5-6.6c0.8-2,1.9-3.7,3.6-5
			c1.6-1.3,3.4-2.2,5.5-2.5c2.1-0.3,4.1-0.3,6.2,0.3c2.9,0.8,5,2.5,6.6,5c1,1.7,1.7,3.6,2.1,5.5C314.8,41.2,315,43.3,315,45.5z
			 M309.3,45.4L309.3,45.4c0-1.7-0.1-3.3-0.5-4.9c-0.3-1.3-0.8-2.6-1.5-3.8c-0.9-1.2-2-2.1-3.4-2.4c-0.9-0.2-1.9-0.3-2.8-0.2
			c-1.3,0.1-2.5,0.6-3.5,1.5c-0.9,0.8-1.5,1.8-2,2.8c-0.6,1.5-0.9,3-1,4.6c-0.2,2-0.1,4,0.1,6c0.2,1.1,0.4,2.2,0.9,3.3
			c0.7,1.5,1.8,2.7,3.3,3.4c1,0.4,2,0.6,3.1,0.6c1.9,0,3.6-0.8,4.9-2.2c1-1.1,1.5-2.4,1.9-3.8C309.2,48.6,309.3,47,309.3,45.4z
			 M198.2,45.4c0,2.3-0.2,4.6-0.8,6.8c-0.3,1.3-0.8,2.6-1.4,3.7c-1.5,2.8-3.9,4.7-7,5.4c-2.6,0.6-5.2,0.6-7.8-0.1
			c-2.9-0.8-5.1-2.6-6.7-5.2c-1-1.6-1.5-3.4-1.9-5.2c-0.5-2.8-0.6-5.5-0.4-8.3c0.2-2.1,0.5-4.1,1.2-6.1c0.8-2.1,1.9-4,3.6-5.5
			c1.6-1.5,3.6-2.4,5.7-2.7c2.1-0.3,4.1-0.3,6.2,0.3c3,0.8,5.2,2.6,6.8,5.3c1,1.8,1.7,3.7,2.1,5.7C198.1,41.6,198.2,43.5,198.2,45.4
			z M192.6,45.3L192.6,45.3c0-1.7-0.1-3.3-0.5-5c-0.3-1.3-0.8-2.6-1.6-3.7c-0.9-1.2-2-1.9-3.4-2.3c-0.9-0.2-1.9-0.3-2.8-0.2
			c-1.2,0.1-2.2,0.5-3.1,1.2c-1,0.7-1.6,1.7-2.1,2.8c-0.7,1.5-1,3-1.1,4.6c-0.2,1.5-0.2,3-0.1,4.5c0.1,1.3,0.3,2.7,0.7,4
			c0.3,0.8,0.6,1.6,1.1,2.3c1.2,1.6,2.7,2.5,4.7,2.7c2.6,0.3,4.7-0.6,6.3-2.7c0.7-1,1.1-2,1.4-3.1C192.5,48.7,192.6,47,192.6,45.3z
			 M199.8,29.2c0.1,0,0.2,0,0.3,0c4.6,0,9.2,0,13.7,0c2.3,0,4.3,0.9,5.9,2.6c1.1,1.2,1.7,2.6,2,4.1c0.4,2,0.4,4-0.3,6
			c-0.4,1.1-1,2.1-1.9,2.9c-0.4,0.3-0.8,0.5-1.2,0.8c-0.1,0-0.2,0.1-0.3,0.1c0.3,0.2,0.7,0.3,1,0.5c1.1,0.7,1.8,1.7,2,3
			c0.1,0.7,0.2,1.4,0.2,2.1c0,3.1,0,6.2,0,9.4c0,0,0,0.1,0,0.2c-1.9,0-3.7,0-5.6,0c0-0.1,0-0.3,0-0.4c0-2.5,0-5,0-7.5
			c0-0.5-0.1-1.1-0.1-1.6c-0.2-1.6-1.1-2.4-2.7-2.6c-0.4-0.1-0.9-0.1-1.3-0.1c-2,0-4,0-6,0c-0.1,0-0.1,0-0.3,0c0,4.1,0,8.2,0,12.3
			c-1.9,0-3.7,0-5.5,0C199.8,50.3,199.8,39.8,199.8,29.2z M205.4,43.1L205.4,43.1c0.1,0,0.2,0,0.3,0c2.3,0,4.6,0,6.9,0
			c0.4,0,0.9-0.1,1.3-0.1c1.2-0.2,2-0.8,2.5-1.9c0.3-0.6,0.4-1.2,0.4-1.9c0-1.1-0.1-2.1-0.7-3.1c-0.4-0.5-0.8-0.9-1.4-1.1
			c-0.5-0.2-1.1-0.3-1.7-0.3c-2.4,0-4.8,0-7.2,0c-0.1,0-0.2,0-0.3,0C205.4,37.5,205.4,40.3,205.4,43.1z M223.4,29.2
			c6.7,0,13.3,0,20,0c0,1.8,0,3.6,0,5.5c-4.8,0-9.6,0-14.5,0c0,2.3,0,4.5,0,6.7c1.1,0,2.2,0,3.3,0c1.1,0,2.2,0,3.3,0
			c1.1,0,2.2,0,3.4,0c1.1,0,2.2,0,3.3,0c0.1,0.3,0.1,4.9,0,5.6c-4.4,0-8.9,0-13.3,0c0,2.7,0,5.4,0,8.1c5,0,10.1,0,15.1,0
			c0,1.9,0,3.7,0,5.6c-6.9,0-13.8,0-20.7,0C223.4,50.3,223.4,39.8,223.4,29.2z M163.7,29.2c0,1.8,0,3.6,0,5.5c-4.6,0-9.1,0-13.7,0
			c0,2.4,0,4.8,0,7.2c4,0,8,0,12,0c0,1.9,0,3.7,0,5.6c-4,0-8,0-12,0c0,4.5,0,8.9,0,13.3c-1.9,0-3.8,0-5.7,0c0-10.5,0-21,0-31.5
			C144.6,29.2,162.6,29.1,163.7,29.2z M258.1,60.8c-1.9,0-3.8,0-5.7,0c0-8.7,0-17.3,0-26c-2.7,0-5.4,0-8.1,0c-0.1-0.3-0.1-4.9,0-5.5
			c7.4,0,14.7,0,22.1,0c0,1.8,0,3.6,0,5.5c-2.7,0-5.5,0-8.2,0C258.1,43.4,258.1,52.1,258.1,60.8z M281.1,60.8c-1.9,0-3.8,0-5.7,0
			c0-8.7,0-17.3,0-26c-2.7,0-5.5,0-8.1,0c-0.1-0.3-0.1-4.9,0-5.5c7.4,0,14.7,0,22.1,0c0,1.8,0,3.6,0,5.5c-2.7,0-5.5,0-8.2,0
			C281.1,43.4,281.1,52.1,281.1,60.8z M170.5,60.8c-1.9,0-3.8,0-5.7,0c0-10.5,0-21,0-31.5c1.9,0,3.7,0,5.7,0
			C170.5,39.7,170.5,50.2,170.5,60.8z"/>
		<path class="st25" d="M147.1,73.9c-0.7,0-1.3-0.1-2-0.3c-0.6-0.2-1.1-0.5-1.5-0.8l0.5-1c0.4,0.3,0.8,0.6,1.3,0.8
			c0.5,0.2,1.1,0.3,1.7,0.3c0.8,0,1.3-0.1,1.7-0.4c0.4-0.3,0.6-0.6,0.6-1c0-0.3-0.1-0.6-0.3-0.8c-0.2-0.2-0.4-0.3-0.7-0.4
			c-0.3-0.1-0.7-0.2-1.3-0.4c-0.7-0.2-1.2-0.3-1.7-0.5c-0.4-0.2-0.8-0.4-1.1-0.8c-0.3-0.3-0.4-0.8-0.4-1.4c0-0.5,0.1-0.9,0.4-1.3
			c0.3-0.4,0.7-0.7,1.2-1c0.5-0.2,1.2-0.4,1.9-0.4c0.5,0,1.1,0.1,1.6,0.2c0.5,0.1,1,0.4,1.3,0.6l-0.4,1c-0.4-0.2-0.8-0.4-1.2-0.6
			c-0.4-0.1-0.9-0.2-1.3-0.2c-0.7,0-1.3,0.1-1.7,0.4c-0.4,0.3-0.6,0.6-0.6,1c0,0.3,0.1,0.6,0.3,0.8c0.2,0.2,0.5,0.4,0.8,0.4
			c0.3,0.1,0.7,0.2,1.2,0.4c0.7,0.2,1.2,0.3,1.7,0.5c0.4,0.2,0.8,0.4,1.1,0.8c0.3,0.3,0.5,0.8,0.5,1.4c0,0.5-0.1,0.9-0.4,1.3
			c-0.3,0.4-0.7,0.7-1.2,0.9C148.5,73.8,147.9,73.9,147.1,73.9z M174,70.6v3.2h-1.3v-3.2l-3.6-6h1.4l2.9,4.8l2.9-4.8h1.3L174,70.6z
			 M199.5,73.9c-0.7,0-1.3-0.1-2-0.3c-0.6-0.2-1.1-0.5-1.5-0.8l0.5-1c0.4,0.3,0.8,0.6,1.3,0.8c0.5,0.2,1.1,0.3,1.7,0.3
			c0.8,0,1.3-0.1,1.7-0.4c0.4-0.3,0.6-0.6,0.6-1c0-0.3-0.1-0.6-0.3-0.8c-0.2-0.2-0.4-0.3-0.8-0.4c-0.3-0.1-0.7-0.2-1.3-0.4
			c-0.7-0.2-1.2-0.3-1.7-0.5c-0.4-0.2-0.8-0.4-1.1-0.8c-0.3-0.3-0.4-0.8-0.4-1.4c0-0.5,0.1-0.9,0.4-1.3c0.2-0.4,0.6-0.7,1.2-1
			c0.5-0.2,1.2-0.4,1.9-0.4c0.5,0,1.1,0.1,1.6,0.2c0.5,0.1,1,0.4,1.3,0.6l-0.4,1c-0.4-0.2-0.8-0.4-1.2-0.6c-0.4-0.1-0.9-0.2-1.3-0.2
			c-0.7,0-1.3,0.1-1.7,0.4c-0.4,0.3-0.6,0.6-0.6,1c0,0.3,0.1,0.6,0.3,0.8c0.2,0.2,0.5,0.4,0.8,0.4c0.3,0.1,0.7,0.2,1.3,0.4
			c0.7,0.2,1.2,0.3,1.7,0.5c0.4,0.2,0.8,0.4,1.1,0.8c0.3,0.3,0.5,0.8,0.5,1.4c0,0.5-0.1,0.9-0.4,1.3c-0.3,0.4-0.7,0.7-1.2,0.9
			C201,73.8,200.3,73.9,199.5,73.9z M224.8,65.8h-3.1v-1.1h7.6v1.1h-3.1v8h-1.3V65.8z M255.5,72.7v1.1h-6.6v-9.2h6.5v1.1h-5.2v2.8
			h4.6v1.1h-4.6v2.9H255.5z M284.2,73.8l0-6.7l-3.3,5.6h-0.6l-3.3-5.5v6.6h-1.2v-9.2h1.1l3.8,6.4l3.8-6.4h1.1l0,9.2H284.2z
			 M309,73.9c-0.7,0-1.4-0.1-2-0.3c-0.6-0.2-1.1-0.5-1.5-0.8l0.5-1c0.4,0.3,0.8,0.6,1.3,0.8c0.6,0.2,1.1,0.3,1.7,0.3
			c0.7,0,1.3-0.1,1.7-0.4c0.4-0.3,0.6-0.6,0.6-1c0-0.3-0.1-0.6-0.3-0.8c-0.2-0.2-0.5-0.3-0.8-0.4c-0.3-0.1-0.7-0.2-1.3-0.4
			c-0.7-0.2-1.2-0.3-1.7-0.5c-0.4-0.2-0.8-0.4-1.1-0.8c-0.3-0.3-0.4-0.8-0.4-1.4c0-0.5,0.1-0.9,0.4-1.3c0.3-0.4,0.7-0.7,1.2-1
			c0.5-0.2,1.2-0.4,1.9-0.4c0.5,0,1.1,0.1,1.6,0.2c0.5,0.1,1,0.4,1.3,0.6l-0.4,1c-0.4-0.2-0.8-0.4-1.2-0.6c-0.4-0.1-0.9-0.2-1.3-0.2
			c-0.7,0-1.3,0.1-1.7,0.4c-0.4,0.3-0.6,0.6-0.6,1c0,0.3,0.1,0.6,0.3,0.8c0.2,0.2,0.5,0.4,0.8,0.4c0.3,0.1,0.7,0.2,1.2,0.4
			c0.7,0.2,1.2,0.3,1.7,0.5c0.4,0.2,0.8,0.4,1.1,0.8c0.3,0.3,0.4,0.8,0.4,1.4c0,0.5-0.1,0.9-0.4,1.3c-0.3,0.4-0.7,0.7-1.2,0.9
			C310.4,73.8,309.8,73.9,309,73.9z"/>
		<path class="st7" d="M109,27.9h6.8h22.3l-5.8,8.1h-16.3v10.2h8.6v8.1h-8.6v19.2H109V36V27.9z M100.6,27.9H78.3L84,36h16.3v10.2
			h-8.6v8.1h8.6v12l7.1,7.2V36v-8.1H100.6z"/>
	</g>
</g>
<g id="Layer_7" class="st0">
	
		<image style="display:inline;overflow:visible;" width="3510" height="1032" xlink:href="../logos,svg/FIORETTO-MEDIA-LOGO.png"  transform="matrix(4.859091e-02 0 0 4.859091e-02 177.8105 28.1697)">
	</image>
</g>
</svg>
