<?xml version="1.0" encoding="utf-8"?>
<!-- Generator: Adobe Illustrator 23.0.1, SVG Export Plug-In . SVG Version: 6.00 Build 0)  -->
<svg version="1.1" xmlns="http://www.w3.org/2000/svg" xmlns:xlink="http://www.w3.org/1999/xlink" x="0px" y="0px"
	 viewBox="0 0 368.5 104.8" style="enable-background:new 0 0 368.5 104.8;" xml:space="preserve">
<style type="text/css">
	.st0{display:none;}
	.st1{display:inline;}
	.st2{fill:#2C2C2C;}
	.st3{fill:#194695;}
	.st4{fill:none;}
	.st5{fill:#2E3035;}
	.st6{fill:#313438;}
	.st7{fill-rule:evenodd;clip-rule:evenodd;fill:#184297;}
	.st8{fill:#422A15;}
	.st9{fill:#432A16;}
	.st10{fill:#432B17;}
	.st11{fill:#442C17;}
	.st12{fill:#CB9B26;}
	.st13{fill:#CB9B27;}
	.st14{fill:#CA9921;}
	.st15{fill:#CB9A24;}
	.st16{fill:#C9971D;}
	.st17{fill:#CB9A23;}
	.st18{fill:#CA9A22;}
	.st19{fill:#CA9922;}
	.st20{fill:#C9971C;}
	.st21{fill:#412814;}
	.st22{fill:url(#SVGID_1_);}
	.st23{fill:#184297;}
	.st24{fill:#00ADEF;}
	.st25{fill-rule:evenodd;clip-rule:evenodd;}
</style>
<g id="Layer_1" class="st0">
	<g id="Layer_x0020_1" class="st1">
		<g id="_339944352">
			<g>
				<path class="st2" d="M11.8,75.8c0-4.9-4-8.9-8.9-8.9s-8.9,4-8.9,8.9c0,4.9,4,8.9,8.9,8.9S11.8,80.7,11.8,75.8z"/>
				<path class="st2" d="M11.8,29c0-4.9-4-8.9-8.9-8.9s-8.9,4-8.9,8.9s4,8.9,8.9,8.9S11.8,33.9,11.8,29z"/>
				<path class="st2" d="M58.7,29c0-4.9-4-8.9-8.9-8.9c-4.9,0-8.9,4-8.9,8.9s4,8.9,8.9,8.9C54.7,37.8,58.7,33.9,58.7,29z"/>
				<path class="st2" d="M58.7,75.8c0-4.9-4-8.9-8.9-8.9c-4.9,0-8.9,4-8.9,8.9c0,4.9,4,8.9,8.9,8.9C54.7,84.7,58.7,80.7,58.7,75.8z"
					/>
				<path class="st3" d="M3,46.8c-16,0-29,13-29,29h11.1c0-9.9,8-17.9,17.9-17.9c7.1,0,13.2,4.2,16.1,10.1l5.1-11.9
					C18.9,50.4,11.3,46.8,3,46.8z"/>
				<path class="st2" d="M-26,29c0,16,13,28.9,29,28.9c16,0,28.9-13,28.9-28.9c0-16-13-29-28.9-29v11.1c9.9,0,17.9,8,17.9,17.9
					c0,9.9-8,17.9-17.9,17.9c-9.9,0-17.9-8-17.9-17.9H-26z"/>
				<path class="st3" d="M67.7,29c0,9.9-8,17.9-17.9,17.9c-9.9,0-17.9-8-17.9-17.9c0-9.9,8-17.9,17.9-17.9V0c-16,0-28.9,13-28.9,29
					c0,16,13,28.9,28.9,28.9c16,0,29-13,29-28.9H67.7z"/>
				<path class="st2" d="M78.8,75.8c0-16-13-29-29-29c-16,0-28.9,13-28.9,29s13,29,28.9,29V93.7c-9.9,0-17.9-8-17.9-17.9
					c0-9.9,8-17.9,17.9-17.9c9.9,0,17.9,8,17.9,17.9H78.8z"/>
				<path class="st3" d="M24.2,56.1l-5.1,11.9c1.1,2.4,1.7,5,1.7,7.7c0,9.9-8,17.9-17.9,17.9v11.1c16,0,28.9-13,28.9-29
					C31.9,68.2,29,61.3,24.2,56.1z"/>
				<path class="st3" d="M25.9,58.2l-6.3,11.1c-0.2-0.4-0.3-0.9-0.5-1.3c-1.5-3-3.8-5.6-6.6-7.4l7.9-7.9c1.4,1,2.6,2.2,3.8,3.4
					C24.8,56.8,25.4,57.5,25.9,58.2z"/>
				<g>
					<line class="st4" x1="20.4" y1="52.7" x2="12.5" y2="60.7"/>
				</g>
				<g>
					<line class="st4" x1="25.9" y1="58.2" x2="19.6" y2="69.3"/>
				</g>
			</g>
			<g>
				<path class="st2" d="M121.5,48c1.2,1.5,1.8,3.2,1.8,5.1c0,2.8-1,5-2.8,6.6c-1.9,1.6-4.6,2.4-8.1,2.4H96.8V29h15.1
					c3.4,0,6,0.7,7.8,2.2c1.8,1.4,2.7,3.5,2.7,6.3c0,2-0.5,3.7-1.6,5c-1.1,1.3-2.5,2.2-4.2,2.6C118.7,45.6,120.3,46.5,121.5,48z
					 M104.9,42.6L104.9,42.6h5.2c2.8,0,4.2-1.2,4.2-3.6c0-2.4-1.4-3.6-4.3-3.6h-5.1V42.6z M115,52L115,52c0-1.2-0.4-2.1-1.2-2.8
					c-0.8-0.7-1.9-1-3.3-1h-5.7v7.5h5.7C113.5,55.6,115,54.4,115,52z"/>
				<polygon class="st2" points="141.1,29 141.1,62.2 133.1,62.2 133.1,29 				"/>
				<path class="st2" d="M169.2,62.2l-7.2-12.5h-1.8v12.5h-8V29h13.7c2.6,0,4.8,0.5,6.7,1.4c1.8,0.9,3.1,2.2,4.1,3.7
					c0.9,1.6,1.4,3.4,1.4,5.4c0,2.4-0.7,4.5-2,6.2c-1.3,1.7-3.3,2.8-5.8,3.5l7.9,13H169.2z M160.2,44.2L160.2,44.2h5
					c1.6,0,2.8-0.4,3.5-1c0.8-0.7,1.1-1.8,1.1-3.1c0-1.3-0.4-2.4-1.2-3.1c-0.8-0.8-1.9-1.1-3.5-1.1h-5V44.2z"/>
				<polygon class="st2" points="195.7,35.4 195.7,42.3 206.9,42.3 206.9,48.4 195.7,48.4 195.7,55.7 208.3,55.7 208.3,62.2 
					187.7,62.2 187.7,29 208.3,29 208.3,35.4 				"/>
				<polygon class="st2" points="255.7,29.3 255.7,62.2 247.7,62.2 247.7,41.6 240.6,62.2 233.6,62.2 226.5,41.5 226.5,62.2 
					218.4,62.2 218.4,29.3 228.2,29.3 237.2,52.2 246,29.3 				"/>
				<path class="st2" d="M287.4,56.1H275l-2.1,6.1h-8.4l12.1-32.9h9.2L298,62.2h-8.5L287.4,56.1z M285.3,50L285.3,50l-4.1-12.2
					L277,50H285.3z"/>
			</g>
			<g>
				<g>
					<path class="st3" d="M100.9,73c0.3,0.3,0.4,0.6,0.4,1c0,0.5-0.2,0.9-0.5,1.2c-0.4,0.3-0.9,0.5-1.6,0.5h-2.4v-6.4h2.4
						c0.6,0,1.1,0.2,1.5,0.5c0.3,0.3,0.5,0.7,0.5,1.2c0,0.4-0.1,0.7-0.3,1c-0.2,0.3-0.5,0.4-0.9,0.5C100.3,72.6,100.7,72.7,100.9,73
						z M97.7,72.2L97.7,72.2H99c0.4,0,0.7-0.1,0.9-0.3c0.2-0.2,0.3-0.5,0.3-0.8c0-0.3-0.1-0.6-0.3-0.8c-0.2-0.2-0.5-0.3-1-0.3h-1.4
						V72.2z M100.1,74.8L100.1,74.8c0.3-0.2,0.4-0.5,0.4-0.9c0-0.3-0.1-0.6-0.4-0.9c-0.3-0.2-0.6-0.3-1-0.3h-1.4v2.3h1.4
						C99.5,75.1,99.8,75,100.1,74.8z"/>
					<polygon class="st3" points="104.3,69.4 104.3,75.8 103.4,75.8 103.4,69.4 					"/>
					<path class="st3" d="M111.2,69.7c0.5,0.3,0.9,0.7,1.1,1.2c0.3,0.5,0.4,1,0.4,1.7c0,0.6-0.1,1.2-0.4,1.7
						c-0.3,0.5-0.7,0.9-1.1,1.2c-0.5,0.3-1,0.4-1.6,0.4c-0.6,0-1.1-0.1-1.6-0.4c-0.5-0.3-0.9-0.7-1.1-1.2c-0.3-0.5-0.4-1.1-0.4-1.7
						c0-0.7,0.1-1.2,0.4-1.7c0.3-0.5,0.7-0.9,1.1-1.2c0.5-0.3,1-0.4,1.6-0.4C110.2,69.3,110.8,69.4,111.2,69.7z M108.4,70.4
						L108.4,70.4c-0.3,0.2-0.6,0.5-0.8,0.9c-0.2,0.4-0.3,0.8-0.3,1.3c0,0.5,0.1,0.9,0.3,1.3c0.2,0.4,0.5,0.7,0.8,0.9
						c0.4,0.2,0.8,0.3,1.2,0.3c0.5,0,0.8-0.1,1.2-0.3c0.3-0.2,0.6-0.5,0.8-0.9c0.2-0.4,0.3-0.8,0.3-1.3c0-0.5-0.1-1-0.3-1.3
						c-0.2-0.4-0.5-0.7-0.8-0.9c-0.4-0.2-0.7-0.3-1.2-0.3C109.2,70.1,108.8,70.2,108.4,70.4z"/>
					<polygon class="st3" points="115.8,75.1 118.1,75.1 118.1,75.8 115,75.8 115,69.4 115.8,69.4 					"/>
					<path class="st3" d="M124.6,69.7c0.5,0.3,0.9,0.7,1.1,1.2c0.3,0.5,0.4,1,0.4,1.7c0,0.6-0.1,1.2-0.4,1.7
						c-0.3,0.5-0.7,0.9-1.1,1.2c-0.5,0.3-1,0.4-1.6,0.4c-0.6,0-1.1-0.1-1.6-0.4c-0.5-0.3-0.9-0.7-1.1-1.2c-0.3-0.5-0.4-1.1-0.4-1.7
						c0-0.7,0.1-1.2,0.4-1.7c0.3-0.5,0.7-0.9,1.1-1.2c0.5-0.3,1-0.4,1.6-0.4C123.6,69.3,124.1,69.4,124.6,69.7z M121.8,70.4
						L121.8,70.4c-0.3,0.2-0.6,0.5-0.8,0.9c-0.2,0.4-0.3,0.8-0.3,1.3c0,0.5,0.1,0.9,0.3,1.3c0.2,0.4,0.5,0.7,0.8,0.9
						c0.3,0.2,0.7,0.3,1.2,0.3c0.5,0,0.8-0.1,1.2-0.3c0.3-0.2,0.6-0.5,0.8-0.9c0.2-0.4,0.3-0.8,0.3-1.3c0-0.5-0.1-1-0.3-1.3
						c-0.2-0.4-0.5-0.7-0.8-0.9c-0.4-0.2-0.7-0.3-1.2-0.3C122.5,70.1,122.1,70.2,121.8,70.4z"/>
					<path class="st3" d="M133.1,69.9c0.5,0.4,0.9,0.9,1,1.5h-0.9c-0.2-0.4-0.4-0.7-0.8-0.9c-0.4-0.2-0.8-0.3-1.3-0.3
						c-0.4,0-0.8,0.1-1.2,0.3c-0.3,0.2-0.6,0.5-0.8,0.9c-0.2,0.4-0.3,0.8-0.3,1.3c0,0.5,0.1,1,0.3,1.4c0.2,0.4,0.5,0.7,0.9,0.9
						c0.3,0.2,0.8,0.3,1.2,0.3c0.4,0,0.8-0.1,1.1-0.3c0.3-0.2,0.6-0.4,0.8-0.7c0.2-0.3,0.3-0.7,0.4-1.1h-2.5v-0.6h3.2v0.8
						c-0.1,0.5-0.2,1-0.5,1.4c-0.3,0.4-0.6,0.7-1,1c-0.5,0.2-1,0.3-1.5,0.3c-0.6,0-1.2-0.1-1.6-0.4c-0.5-0.3-0.9-0.7-1.1-1.2
						c-0.3-0.5-0.4-1.1-0.4-1.7c0-0.7,0.1-1.2,0.4-1.7c0.3-0.5,0.7-0.9,1.1-1.2c0.5-0.3,1-0.4,1.6-0.4
						C132,69.3,132.6,69.5,133.1,69.9z"/>
					<polygon class="st3" points="137.3,69.4 137.3,75.8 136.5,75.8 136.5,69.4 					"/>
					<path class="st3" d="M144.5,69.9c0.5,0.4,0.9,0.9,1.1,1.6h-0.9c-0.2-0.4-0.4-0.8-0.8-1c-0.4-0.3-0.8-0.4-1.3-0.4
						c-0.4,0-0.8,0.1-1.1,0.3c-0.3,0.2-0.6,0.5-0.8,0.9c-0.2,0.4-0.3,0.8-0.3,1.3c0,0.5,0.1,0.9,0.3,1.3c0.2,0.4,0.5,0.7,0.8,0.9
						c0.3,0.2,0.7,0.3,1.1,0.3c0.5,0,1-0.1,1.3-0.4s0.6-0.6,0.8-1h0.9c-0.2,0.7-0.6,1.2-1.1,1.6c-0.5,0.4-1.1,0.6-1.9,0.6
						c-0.6,0-1.1-0.1-1.6-0.4c-0.5-0.3-0.8-0.7-1.1-1.1c-0.3-0.5-0.4-1.1-0.4-1.7c0-0.7,0.1-1.2,0.4-1.7c0.3-0.5,0.6-0.9,1.1-1.2
						c0.5-0.3,1-0.4,1.6-0.4C143.4,69.3,144,69.5,144.5,69.9z"/>
					<path class="st3" d="M151.6,74.3h-2.8l-0.5,1.5h-0.9l2.4-6.3h0.9l2.4,6.3h-0.9L151.6,74.3z M151.3,73.7L151.3,73.7l-1.2-3.3
						l-1.2,3.3H151.3z"/>
					<polygon class="st3" points="155.8,75.1 158.1,75.1 158.1,75.8 154.9,75.8 154.9,69.4 155.8,69.4 					"/>
				</g>
				<g>
					<path class="st3" d="M167.2,75.8l-1.7-2.6h-0.9v2.6h-0.8v-6.4h2.1c0.7,0,1.3,0.2,1.6,0.5c0.4,0.3,0.5,0.8,0.5,1.4
						c0,0.5-0.1,0.9-0.4,1.3c-0.3,0.3-0.7,0.5-1.3,0.6l1.8,2.6H167.2z M164.7,72.6L164.7,72.6h1.2c0.9,0,1.4-0.4,1.4-1.2
						c0-0.9-0.5-1.2-1.4-1.2h-1.2V72.6z"/>
					<polygon class="st3" points="171.1,70 171.1,72.3 173.5,72.3 173.5,72.9 171.1,72.9 171.1,75.1 173.8,75.1 173.8,75.8 
						170.2,75.8 170.2,69.4 173.8,69.4 173.8,70 					"/>
					<path class="st3" d="M179.8,75c-0.2,0.3-0.4,0.5-0.7,0.7c-0.3,0.1-0.7,0.2-1.1,0.2c-0.4,0-0.8-0.1-1.1-0.2
						c-0.3-0.1-0.6-0.4-0.8-0.6c-0.2-0.3-0.3-0.6-0.3-0.9h0.9c0,0.2,0.1,0.4,0.2,0.5c0.1,0.2,0.3,0.3,0.5,0.4s0.4,0.2,0.7,0.2
						c0.4,0,0.7-0.1,0.9-0.3c0.2-0.2,0.3-0.5,0.3-0.8c0-0.3-0.1-0.5-0.2-0.6s-0.3-0.3-0.5-0.4c-0.2-0.1-0.5-0.2-0.8-0.3
						c-0.4-0.1-0.7-0.3-1-0.4c-0.3-0.1-0.5-0.3-0.7-0.5c-0.2-0.2-0.3-0.5-0.3-0.9c0-0.3,0.1-0.6,0.3-0.9c0.1-0.3,0.4-0.5,0.7-0.6
						c0.3-0.1,0.7-0.2,1.1-0.2c0.6,0,1.1,0.1,1.5,0.5s0.6,0.7,0.7,1.2H179c-0.1-0.3-0.2-0.5-0.4-0.7c-0.2-0.2-0.5-0.3-0.9-0.3
						c-0.3,0-0.6,0.1-0.8,0.3c-0.2,0.2-0.3,0.4-0.3,0.7c0,0.3,0.1,0.5,0.2,0.6c0.1,0.2,0.3,0.3,0.5,0.4c0.2,0.1,0.5,0.2,0.8,0.3
						c0.4,0.1,0.7,0.3,1,0.4c0.3,0.1,0.5,0.3,0.7,0.6c0.2,0.2,0.3,0.6,0.3,1C180,74.4,179.9,74.7,179.8,75z"/>
					<path class="st3" d="M186.8,69.7c0.5,0.3,0.9,0.7,1.1,1.2c0.3,0.5,0.4,1,0.4,1.7c0,0.6-0.1,1.2-0.4,1.7
						c-0.3,0.5-0.6,0.9-1.1,1.2s-1,0.4-1.6,0.4c-0.6,0-1.1-0.1-1.6-0.4c-0.5-0.3-0.9-0.7-1.1-1.2c-0.3-0.5-0.4-1.1-0.4-1.7
						c0-0.7,0.1-1.2,0.4-1.7c0.3-0.5,0.7-0.9,1.1-1.2c0.5-0.3,1-0.4,1.6-0.4C185.8,69.3,186.3,69.4,186.8,69.7z M184,70.4L184,70.4
						c-0.3,0.2-0.6,0.5-0.8,0.9c-0.2,0.4-0.3,0.8-0.3,1.3c0,0.5,0.1,0.9,0.3,1.3c0.2,0.4,0.5,0.7,0.8,0.9c0.3,0.2,0.7,0.3,1.2,0.3
						c0.4,0,0.8-0.1,1.2-0.3c0.3-0.2,0.6-0.5,0.8-0.9c0.2-0.4,0.3-0.8,0.3-1.3c0-0.5-0.1-1-0.3-1.3c-0.2-0.4-0.5-0.7-0.8-0.9
						c-0.4-0.2-0.8-0.3-1.2-0.3C184.7,70.1,184.3,70.2,184,70.4z"/>
					<path class="st3" d="M191.3,69.4v3.9c0,0.7,0.1,1.1,0.4,1.4c0.3,0.3,0.7,0.5,1.2,0.5c0.5,0,0.9-0.2,1.1-0.5
						c0.3-0.3,0.4-0.8,0.4-1.4v-3.9h0.8v3.9c0,0.9-0.2,1.6-0.7,2c-0.4,0.5-1,0.7-1.7,0.7c-0.7,0-1.3-0.2-1.8-0.7
						c-0.4-0.4-0.7-1.1-0.7-2v-3.9H191.3z"/>
					<path class="st3" d="M201,75.8l-1.7-2.6h-0.9v2.6h-0.8v-6.4h2.1c0.7,0,1.3,0.2,1.6,0.5c0.3,0.3,0.5,0.8,0.5,1.4
						c0,0.5-0.1,0.9-0.5,1.3c-0.3,0.3-0.7,0.5-1.2,0.6l1.7,2.6H201z M198.5,72.6L198.5,72.6h1.2c0.9,0,1.4-0.4,1.4-1.2
						c0-0.9-0.5-1.2-1.4-1.2h-1.2V72.6z"/>
					<path class="st3" d="M208.8,69.9c0.5,0.4,0.9,0.9,1,1.6H209c-0.1-0.4-0.4-0.8-0.8-1c-0.4-0.3-0.8-0.4-1.3-0.4
						c-0.4,0-0.8,0.1-1.1,0.3c-0.3,0.2-0.6,0.5-0.8,0.9c-0.2,0.4-0.3,0.8-0.3,1.3c0,0.5,0.1,0.9,0.3,1.3c0.2,0.4,0.5,0.7,0.8,0.9
						c0.3,0.2,0.7,0.3,1.1,0.3c0.5,0,1-0.1,1.3-0.4s0.7-0.6,0.8-1h0.9c-0.2,0.7-0.5,1.2-1,1.6c-0.5,0.4-1.2,0.6-2,0.6
						c-0.6,0-1.1-0.1-1.6-0.4c-0.5-0.3-0.8-0.7-1.1-1.1c-0.3-0.5-0.4-1.1-0.4-1.7c0-0.7,0.1-1.2,0.4-1.7c0.3-0.5,0.6-0.9,1.1-1.2
						c0.5-0.3,1-0.4,1.6-0.4C207.7,69.3,208.3,69.5,208.8,69.9z"/>
					<polygon class="st3" points="212.9,70 212.9,72.3 215.3,72.3 215.3,72.9 212.9,72.9 212.9,75.1 215.6,75.1 215.6,75.8 
						212.1,75.8 212.1,69.4 215.6,69.4 215.6,70 					"/>
					<path class="st3" d="M221.6,75c-0.1,0.3-0.4,0.5-0.7,0.7c-0.3,0.1-0.7,0.2-1.1,0.2s-0.8-0.1-1.1-0.2c-0.3-0.1-0.6-0.4-0.8-0.6
						c-0.2-0.3-0.3-0.6-0.4-0.9h0.9c0,0.2,0.1,0.4,0.2,0.5c0.1,0.2,0.3,0.3,0.5,0.4s0.5,0.2,0.7,0.2c0.3,0,0.6-0.1,0.8-0.3
						c0.2-0.2,0.3-0.5,0.3-0.8c0-0.3-0.1-0.5-0.2-0.6s-0.3-0.3-0.5-0.4c-0.2-0.1-0.5-0.2-0.8-0.3c-0.4-0.1-0.7-0.3-1-0.4
						c-0.3-0.1-0.5-0.3-0.6-0.5c-0.2-0.2-0.3-0.5-0.3-0.9c0-0.3,0.1-0.6,0.2-0.9c0.2-0.3,0.4-0.5,0.7-0.6c0.3-0.1,0.7-0.2,1.1-0.2
						c0.6,0,1.1,0.1,1.5,0.5c0.4,0.3,0.6,0.7,0.7,1.2h-0.9c0-0.3-0.2-0.5-0.4-0.7c-0.2-0.2-0.5-0.3-0.9-0.3c-0.3,0-0.6,0.1-0.8,0.3
						c-0.2,0.2-0.3,0.4-0.3,0.7c0,0.3,0.1,0.5,0.2,0.6c0.1,0.2,0.3,0.3,0.5,0.4c0.2,0.1,0.5,0.2,0.8,0.3c0.4,0.1,0.8,0.3,1,0.4
						c0.3,0.1,0.5,0.3,0.6,0.6c0.2,0.2,0.3,0.6,0.3,1C221.9,74.4,221.8,74.7,221.6,75z"/>
				</g>
				<g>
					<polygon class="st3" points="234.1,69.5 234.1,75.8 233.2,75.8 233.2,70.7 231.2,75.8 230.5,75.8 228.5,70.8 228.5,75.8 
						227.6,75.8 227.6,69.5 228.6,69.5 230.9,74.8 233.1,69.5 					"/>
					<path class="st3" d="M240.3,74.3h-2.8l-0.5,1.5H236l2.4-6.3h0.9l2.4,6.3h-0.9L240.3,74.3z M240,73.7L240,73.7l-1.2-3.3
						l-1.2,3.3H240z"/>
					<polygon class="st3" points="248.6,75.8 247.8,75.8 244.5,70.7 244.5,75.8 243.6,75.8 243.6,69.4 244.5,69.4 247.8,74.5 
						247.8,69.4 248.6,69.4 					"/>
					<path class="st3" d="M254.8,74.3H252l-0.5,1.5h-0.9l2.4-6.3h0.9l2.4,6.3h-0.9L254.8,74.3z M254.6,73.7L254.6,73.7l-1.2-3.3
						l-1.2,3.3H254.6z"/>
					<path class="st3" d="M263,69.9c0.5,0.4,0.9,0.9,1,1.5h-0.9c-0.1-0.4-0.4-0.7-0.8-0.9c-0.3-0.2-0.8-0.3-1.2-0.3
						c-0.4,0-0.8,0.1-1.2,0.3c-0.3,0.2-0.6,0.5-0.8,0.9c-0.2,0.4-0.3,0.8-0.3,1.3c0,0.5,0.1,1,0.3,1.4c0.2,0.4,0.5,0.7,0.8,0.9
						c0.4,0.2,0.8,0.3,1.2,0.3c0.4,0,0.7-0.1,1.1-0.3c0.3-0.2,0.6-0.4,0.8-0.7c0.2-0.3,0.3-0.7,0.4-1.1h-2.5v-0.6h3.2v0.8
						c-0.1,0.5-0.2,1-0.5,1.4c-0.3,0.4-0.6,0.7-1.1,1c-0.4,0.2-0.9,0.3-1.5,0.3c-0.6,0-1.2-0.1-1.6-0.4c-0.5-0.3-0.9-0.7-1.1-1.2
						c-0.3-0.5-0.4-1.1-0.4-1.7c0-0.7,0.1-1.2,0.4-1.7c0.3-0.5,0.6-0.9,1.1-1.2c0.5-0.3,1-0.4,1.6-0.4
						C261.8,69.3,262.5,69.5,263,69.9z"/>
					<polygon class="st3" points="267.2,70 267.2,72.3 269.6,72.3 269.6,72.9 267.2,72.9 267.2,75.1 269.9,75.1 269.9,75.8 
						266.3,75.8 266.3,69.4 269.9,69.4 269.9,70 					"/>
					<polygon class="st3" points="278.5,69.5 278.5,75.8 277.6,75.8 277.6,70.7 275.6,75.8 274.9,75.8 272.9,70.8 272.9,75.8 
						272.1,75.8 272.1,69.5 273.1,69.5 275.3,74.8 277.5,69.5 					"/>
					<polygon class="st3" points="281.7,70 281.7,72.3 284.2,72.3 284.2,72.9 281.7,72.9 281.7,75.1 284.4,75.1 284.4,75.8 
						280.9,75.8 280.9,69.4 284.4,69.4 284.4,70 					"/>
					<polygon class="st3" points="291.6,75.8 290.8,75.8 287.5,70.7 287.5,75.8 286.6,75.8 286.6,69.4 287.5,69.4 290.8,74.5 
						290.8,69.4 291.6,69.4 					"/>
					<polygon class="st3" points="298,69.4 298,70 296.2,70 296.2,75.8 295.3,75.8 295.3,70 293.5,70 293.5,69.4 					"/>
				</g>
			</g>
			<g>
				<path class="st2" d="M295.9,21.1c0.7,0.4,1.2,0.9,1.5,1.5c0.4,0.7,0.5,1.4,0.5,2.2c0,0.8-0.2,1.5-0.5,2.2
					c-0.4,0.6-0.9,1.1-1.5,1.5c-0.7,0.3-1.4,0.5-2.2,0.5c-0.8,0-1.6-0.2-2.2-0.5c-0.7-0.4-1.2-0.9-1.5-1.5c-0.3-0.7-0.5-1.4-0.5-2.2
					c0-0.8,0.2-1.6,0.5-2.2c0.4-0.6,0.9-1.1,1.5-1.5c0.7-0.4,1.4-0.5,2.2-0.5C294.5,20.5,295.2,20.7,295.9,21.1z M295.6,27.9
					L295.6,27.9c0.6-0.3,1-0.7,1.3-1.2c0.3-0.5,0.5-1.2,0.5-1.9c0-0.7-0.1-1.4-0.5-1.9c-0.3-0.5-0.7-1-1.2-1.2
					c-0.6-0.3-1.2-0.5-2-0.5s-1.4,0.1-1.9,0.5c-0.6,0.3-1,0.7-1.3,1.2c-0.3,0.5-0.4,1.2-0.4,1.9c0,0.7,0.1,1.3,0.4,1.9
					c0.3,0.5,0.7,1,1.3,1.2c0.5,0.3,1.2,0.5,1.9,0.5S295,28.2,295.6,27.9z M295.5,24.6L295.5,24.6c-0.2,0.3-0.5,0.4-0.9,0.5l1.2,2
					h-1.4l-1.1-2h-0.2v2h-1.2v-5h2c0.6,0,1.1,0.1,1.4,0.5c0.3,0.3,0.5,0.7,0.5,1.1C295.8,24,295.7,24.3,295.5,24.6z M293.1,24.4
					L293.1,24.4h0.7c0.5,0,0.7-0.2,0.7-0.6c0-0.4-0.2-0.6-0.7-0.6h-0.7V24.4z"/>
			</g>
		</g>
	</g>
</g>
<g id="Layer_2" class="st0">
	
		<image style="display:inline;overflow:visible;" width="8192" height="912" xlink:href="../logos,svg/Check_n_Track-Blue-and-Green.png"  transform="matrix(4.849685e-02 0 0 4.671475e-02 -19.3666 18.7059)">
	</image>
</g>
<g id="Layer_3">
	<g id="Layer_x0020_1_1_">
		<g id="_568370712">
			<path class="st5" d="M250.6,49.5c-2,0-3.9,0-5.9,0c0-1.7,0-3.5,0-5.2c3.7,0,7.4,0,11.1,0c0,5.6,0,11.2,0,16.8
				c-0.3,0.1-3.6,0.1-4.6,0c0-0.5-0.1-1-0.1-1.5c0-0.5-0.1-1-0.1-1.5c-0.1,0.1-0.1,0.1-0.1,0.1c-0.8,1.6-2.1,2.6-3.8,3.2
				c-2.8,1-5.5,1.1-8.3-0.2c-1.7-0.8-3.1-2.1-4.3-3.7c-1.5-1.9-2.4-4.2-3-6.5c-0.7-2.6-0.8-5.3-0.6-8c0.2-2.4,0.7-4.7,1.7-6.9
				c0.9-2,2.1-3.7,3.9-5c1.8-1.4,3.8-2.2,6.1-2.4c1.9-0.2,3.9,0,5.7,0.7c3.9,1.5,6.3,4.4,7.1,8.5c0.1,0.5,0.1,1,0.2,1.5
				c-1.9,0-3.7,0-5.6,0c0-0.1-0.1-0.3-0.1-0.5c-0.6-2.5-2.1-4-4.6-4.6c-2.4-0.6-4.4,0.1-6,1.9c-1.1,1.2-1.8,2.7-2.2,4.3
				c-0.6,2.3-0.7,4.6-0.5,7c0.1,1.6,0.5,3.2,1.2,4.7c0.5,1.1,1.1,2,2,2.9c2.2,2.2,5.7,2.2,7.9,0.4c1.5-1.2,2.4-2.7,2.7-4.6
				c0.1-0.3,0.1-0.7,0.1-1C250.6,49.7,250.6,49.6,250.6,49.5z"/>
			<path class="st5" d="M105.7,45.9c0,2.2-0.2,4.4-0.7,6.6c-0.3,1.4-0.8,2.7-1.5,3.9c-1.5,2.8-3.8,4.6-6.9,5.3
				c-2.5,0.6-5,0.6-7.5-0.1c-2.8-0.8-5-2.5-6.5-5c-1-1.6-1.6-3.4-2-5.2c-0.5-2.5-0.6-5-0.5-7.5c0.1-2.1,0.4-4.1,1-6.2
				c0.6-1.9,1.5-3.7,2.8-5.3c1.7-2,3.9-3.2,6.4-3.6c2.1-0.4,4.1-0.3,6.2,0.3c2.8,0.8,5,2.5,6.4,5c1,1.7,1.6,3.5,2,5.3
				C105.6,41.6,105.8,43.7,105.7,45.9z M100.3,45.7L100.3,45.7c0-1.6-0.1-3.2-0.5-4.8c-0.3-1.3-0.8-2.6-1.5-3.7
				c-0.8-1.1-1.9-1.9-3.2-2.3c-0.8-0.3-1.7-0.3-2.5-0.3c-1.9,0.1-3.4,0.9-4.5,2.4c-0.4,0.6-0.8,1.1-1,1.7c-0.7,1.6-1,3.2-1.1,4.9
				c-0.1,1.8-0.1,3.5,0.1,5.3c0.1,1.3,0.4,2.5,0.9,3.7c0.8,1.7,1.9,3,3.7,3.7c0.6,0.2,1.2,0.3,1.9,0.4c2.2,0.1,4.1-0.6,5.5-2.3
				c0.8-1,1.3-2.1,1.7-3.3C100.1,49.2,100.3,47.5,100.3,45.7z"/>
			<path class="st5" d="M309.1,45.4c0,2.8-0.2,5.1-0.8,7.3c-0.4,1.5-1,3-1.8,4.4c-1.5,2.3-3.5,3.8-6.2,4.5c-2.5,0.7-5.1,0.7-7.6,0.1
				c-3.2-0.8-5.5-2.7-7-5.6c-0.9-1.6-1.4-3.3-1.7-5.1c-0.5-2.7-0.6-5.4-0.3-8.1c0.2-2.3,0.6-4.4,1.4-6.6c0.7-1.7,1.7-3.3,3-4.6
				c1.7-1.7,3.8-2.7,6.2-3c1.9-0.3,3.7-0.2,5.5,0.3c3,0.8,5.3,2.6,6.8,5.3c1,1.7,1.6,3.6,2,5.5C309,41.9,309.1,43.9,309.1,45.4z
				 M303.6,45.7L303.6,45.7c0-1.6-0.1-3.3-0.5-4.9c-0.3-1.3-0.8-2.6-1.5-3.7c-0.8-1.2-1.9-2-3.2-2.4c-0.8-0.3-1.7-0.3-2.6-0.3
				c-1.9,0.1-3.4,0.9-4.5,2.4c-0.4,0.5-0.7,1.1-1,1.7c-0.7,1.5-1,3.2-1.1,4.8c-0.2,1.8-0.1,3.6,0.1,5.4c0.1,1.2,0.4,2.5,0.9,3.6
				c1.5,3.5,4.8,4.5,7.7,3.9c1.9-0.4,3.2-1.5,4.2-3.2c0.5-0.8,0.8-1.7,1-2.6C303.5,49,303.7,47.4,303.6,45.7z"/>
			<path class="st5" d="M219.9,45.9c0,2.3-0.2,4.5-0.7,6.7c-0.4,1.6-1,3.1-1.9,4.5c-1.5,2.3-3.6,3.8-6.2,4.5c-2.5,0.7-5,0.7-7.5,0.1
				c-3.1-0.8-5.4-2.6-6.9-5.3c-0.9-1.6-1.5-3.4-1.8-5.2c-0.5-2.6-0.6-5.3-0.4-7.9c0.1-2.1,0.5-4.1,1.2-6c0.5-1.6,1.2-3,2.3-4.3
				c1.9-2.4,4.3-3.7,7.3-4.1c2-0.3,4-0.2,5.9,0.4c2.6,0.8,4.5,2.4,5.9,4.6c1.1,1.7,1.8,3.5,2.2,5.5
				C219.7,41.5,219.9,43.7,219.9,45.9z M214.4,45.7L214.4,45.7c0-1.7-0.1-3.4-0.5-5c-0.3-1.3-0.8-2.5-1.5-3.6
				c-0.8-1.1-1.9-1.9-3.2-2.3c-0.8-0.2-1.7-0.3-2.5-0.2c-1.8,0.1-3.3,0.8-4.4,2.3c-0.6,0.8-1.1,1.6-1.4,2.5
				c-0.5,1.4-0.8,2.8-0.9,4.2c-0.1,2.2-0.1,4.3,0.3,6.5c0.2,1.2,0.6,2.3,1.2,3.3c0.8,1.3,1.9,2.3,3.3,2.8c0.6,0.2,1.2,0.3,1.9,0.4
				c2.3,0.1,4.2-0.6,5.7-2.4c0.8-1,1.3-2.1,1.6-3.3C214.3,49.1,214.4,47.4,214.4,45.7z"/>
			<path class="st5" d="M125.1,46.1c0.3,0.1,0.6,0.3,0.9,0.4c1.1,0.7,1.8,1.7,2,2.9c0.2,0.8,0.2,1.6,0.2,2.4c0,3,0,6,0,9
				c0,0.1,0,0.1,0,0.2c-1.8,0-3.6,0-5.5,0c0-0.1,0-0.3,0-0.4c0-2.5,0-5,0-7.5c0-0.7,0-1.3-0.2-1.9c-0.3-1.3-1.1-2-2.4-2.2
				c-0.5-0.1-1-0.1-1.5-0.1c-1.9,0-3.9,0-5.8,0c-0.1,0-0.1,0-0.3,0c0,4.1,0,8.2,0,12.2c-1.8,0-3.6,0-5.4,0c-0.1-0.3-0.1-30.6,0-31.3
				c0.1,0,0.3,0,0.4,0c4.4,0,8.7,0,13.1,0c3.4,0,6.5,2,7.6,5.5c0.8,2.4,0.8,4.9-0.1,7.3c-0.6,1.4-1.5,2.6-2.8,3.3
				C125.4,45.9,125.3,46,125.1,46.1C125.1,46,125.1,46,125.1,46.1z M112.7,35.2L112.7,35.2c0,2.8,0,5.5,0,8.3c0.1,0,0.2,0,0.3,0
				c2.3,0,4.6,0,6.9,0c0.3,0,0.7,0,1-0.1c1.2-0.2,2-0.8,2.5-2c0.2-0.5,0.3-1,0.4-1.6c0.1-1.2-0.1-2.3-0.7-3.2
				c-0.3-0.6-0.9-1-1.5-1.2c-0.5-0.2-1.1-0.3-1.7-0.2c-2.3,0-4.6,0-6.8,0C113,35.2,112.8,35.2,112.7,35.2z"/>
			<path class="st5" d="M266.3,48.8c0,4.1,0,8.2,0,12.2c-0.3,0.1-4.6,0.1-5.4,0c-0.1-0.3-0.1-30.5-0.1-31.3c0.1,0,0.3,0,0.4,0
				c4.4,0,8.7,0,13.1,0c3.5,0,6.6,2.1,7.7,5.6c0.8,2.4,0.8,4.9-0.2,7.3c-0.6,1.5-1.6,2.7-3.1,3.4c0,0-0.1,0.1-0.1,0.1
				c0.1,0.1,0.1,0.1,0.2,0.1c1.6,0.7,2.5,1.9,2.8,3.5c0.1,0.8,0.2,1.6,0.2,2.4c0,2.9,0,5.8,0,8.6c0,0.1,0,0.2,0,0.3
				c-1.8,0-3.6,0-5.5,0c0-0.1,0-0.3,0-0.4c0-2.5,0-5,0-7.4c0-0.7,0-1.3-0.2-2c-0.1-0.3-0.1-0.5-0.2-0.7c-0.3-0.7-0.8-1.1-1.4-1.4
				c-0.7-0.3-1.3-0.3-2-0.3c-2,0-4.1,0-6.1,0C266.4,48.8,266.4,48.8,266.3,48.8z M266.3,35.2L266.3,35.2c0,2.8,0,5.5,0,8.3
				c0.1,0,0.2,0,0.3,0c2.3,0,4.6,0,6.8,0c0.3,0,0.7,0,1-0.1c1.2-0.2,2-0.8,2.5-1.9c0.2-0.5,0.3-0.9,0.4-1.4c0.1-1,0-2.1-0.4-3
				c-0.5-1-1.2-1.6-2.4-1.8c-0.3-0.1-0.7-0.1-1.1-0.1c-2.3,0-4.5,0-6.8,0C266.6,35.2,266.5,35.2,266.3,35.2z"/>
			<path class="st5" d="M130.3,29.8c6.5,0,13.1,0,19.6,0c0,1.8,0,3.6,0,5.4c-4.7,0-9.4,0-14.1,0c0,2.3,0,4.5,0,6.7
				c4.3,0,8.6,0,12.9,0c0.1,0.3,0.1,4.6,0.1,5.5c-4.3,0-8.6,0-13,0c-0.1,0.3-0.1,7.6,0,8.1c4.9,0,9.8,0,14.8,0c0,1.9,0,3.7,0,5.5
				c-6.7,0-13.5,0-20.2,0C130.3,50.6,130.3,40.2,130.3,29.8z"/>
			<path class="st5" d="M310.7,29.8c1.9,0,3.8,0,5.7,0c0,0.1,0,0.3,0,0.5c0,6.7,0,13.3,0,20.1c0,1,0.1,2.1,0.4,3.1
				c0.2,0.6,0.4,1.1,0.8,1.5c0.7,1,1.7,1.6,3,1.8c0.8,0.1,1.6,0,2.4-0.2c1.6-0.4,2.6-1.4,3.2-3c0.3-0.8,0.4-1.7,0.4-2.7
				c0-0.3,0-0.5,0-0.8c0-6.6,0-13.3,0-19.9c0-0.1,0-0.3,0-0.5c1.9,0,3.8,0,5.7,0c0,0.1,0,0.2,0,0.3c0,7,0,14,0,20.9
				c0,1.6-0.2,3.1-0.7,4.6c-1,3.2-3.2,5.3-6.5,6.2c-1.7,0.5-3.4,0.6-5.2,0.4c-1.2-0.1-2.4-0.3-3.4-0.8c-2.8-1.1-4.5-3.2-5.2-6.1
				c-0.3-1.3-0.5-2.7-0.5-4.1c0-7.1,0-14.1,0-21.1C310.7,30,310.7,29.9,310.7,29.8z"/>
			<path class="st5" d="M339.6,49.7c0,3.8,0,7.6,0,11.4c-1.9,0-3.7,0-5.6,0c0-10.4,0-20.9,0-31.3c0.1,0,0.2,0,0.3,0
				c3.9,0,7.8,0,11.7,0c2.6,0,4.7,1.2,6.2,3.2c1,1.3,1.6,2.8,1.9,4.5c0.4,2.2,0.3,4.4-0.4,6.5c-0.7,2.1-2,3.8-4.1,4.9
				c-1.1,0.6-2.4,0.9-3.7,0.9c-2,0-3.9,0-5.9,0C339.9,49.7,339.8,49.7,339.6,49.7z M339.6,44.4L339.6,44.4c0.2,0,0.3,0,0.4,0
				c1.5,0,3,0,4.6,0c0.4,0,0.7,0,1.1,0c1.6-0.1,2.8-0.9,3.4-2.5c0.5-1.3,0.5-2.7,0.1-4c-0.4-1.4-1.4-2.3-2.8-2.6
				c-0.4-0.1-0.8-0.1-1.3-0.1c-1.7,0-3.4,0-5.1,0c-0.1,0-0.2,0-0.3,0C339.6,38.3,339.6,41.3,339.6,44.4z"/>
			<path class="st5" d="M53.1,29.8c6.3,0,12.6,0,18.9,0c0,1.8,0,3.6,0,5.4c-1.5,0-3,0-4.4,0s-3,0-4.4,0s-3,0-4.5,0
				c0,2.4,0,4.7,0,7.1c3.9,0,7.8,0,11.7,0c0,1.8,0,3.7,0,5.5c-0.4,0-0.8,0-1.2,0c-0.4,0-0.9,0-1.3,0c-0.4,0-0.8,0-1.3,0
				c-0.4,0-0.9,0-1.3,0c-0.4,0-0.8,0-1.3,0c-0.4,0-0.9,0-1.3,0s-0.9,0-1.3,0s-0.9,0-1.3,0s-0.9,0-1.3,0c0,4.4,0,8.8,0,13.2
				c-1.9,0-3.7,0-5.5,0C53.1,50.6,53.1,40.2,53.1,29.8z"/>
			<path class="st5" d="M172.4,29.8c0,1.8,0,3.6,0,5.4c-2.7,0-5.3,0-8,0c0,8.6,0,17.3,0,25.9c-1.9,0-3.7,0-5.6,0
				c0-8.6,0-17.2,0-25.9c-2.7,0-5.3,0-8,0c0-1.8,0-3.6,0-5.5C157.9,29.8,165.1,29.8,172.4,29.8z"/>
			<path class="st5" d="M186.7,35.2c0,8.7,0,17.3,0,25.9c-1.9,0-3.7,0-5.6,0c-0.1-0.9,0-1.9,0-2.8c0-1,0-1.9,0-2.9c0-1,0-1.9,0-2.8
				s0-1.9,0-2.9c0-1,0-1.9,0-2.9c0-1,0-1.9,0-2.9c0-1,0-1.9,0-2.8s0-1.9,0-2.9s0-1.9,0-2.9c-2.7,0-5.3,0-8,0c0-1.8,0-3.6,0-5.5
				c7.2,0,14.4,0,21.6,0c0,1.8,0,3.6,0,5.4C192.1,35.2,189.4,35.2,186.7,35.2z"/>
			<path class="st5" d="M78.7,61.1c-1.9,0-3.7,0-5.5,0c-0.1-0.3-0.1-30.9,0-31.3c1.8,0,3.7,0,5.5,0C78.7,40.2,78.7,50.6,78.7,61.1z"
				/>
			<path class="st6" d="M361.3,34.7c-4,0-7.2-3.2-7.2-7.3c0-4,3.2-7.2,7.2-7.2c4,0,7.3,3.2,7.3,7.3
				C368.5,31.5,365.2,34.7,361.3,34.7z M361.3,21.4L361.3,21.4c-3.4,0-6.1,2.7-6.1,6.1s2.7,6.1,6.1,6.1c3.4,0,6.1-2.7,6.1-6.1
				C367.3,24.1,364.6,21.4,361.3,21.4z"/>
			<path class="st6" d="M363.2,27.3c0.7,0.2,0.8,0.7,0.8,1.2c0,0.6,0,1.2,0,1.9c-0.5,0-0.9,0-1.4,0c0-0.2,0-0.3,0-0.6
				c0-0.4,0-0.8,0-1.2c0-0.6-0.2-0.8-0.8-0.8c-0.6,0-1.1,0-1.7,0c0,0.8,0,1.7,0,2.6c-0.5,0-0.9,0-1.3,0c0-2.2,0-4.4,0-6.6
				c0.1,0,0.2,0,0.3,0c1,0,2,0,3,0c0.3,0,0.5,0,0.8,0.1c1.2,0.3,1.6,1.7,1.2,2.6C363.9,26.9,363.6,27.1,363.2,27.3z M360.2,26.8
				L360.2,26.8c0.5,0,1,0,1.4,0c0.2,0,0.4,0,0.6,0c0.5-0.1,0.8-0.4,0.8-0.9c0-0.5-0.3-0.8-0.8-0.8c-0.1,0-0.2,0-0.3,0
				c-0.5,0-1,0-1.5,0c-0.1,0-0.2,0-0.3,0C360.2,25.6,360.2,26.2,360.2,26.8z"/>
			<path class="st7" d="M23.8,28.5h5.3h17.3l-4.5,6.2H29.3v7.9h6.6v6.3h-6.6v14.9h-5.5v-29V28.5z M17.3,28.5H0l4.5,6.2h12.6v7.9
				h-6.6v6.3h6.6v9.3l5.5,5.6v-29v-6.2H17.3z"/>
		</g>
	</g>
</g>
<g id="Layer_4" class="st0">
	<g id="Layer_x0020_1_2_" class="st1">
		<g id="_340153784">
			<g>
				<path class="st8" d="M250.7,30.5c0-0.2,0-0.3,0-0.4c0.2,0,0.4,0,0.6,0c4.1,0,8.1,0,12.2,0c2,0,3.8,0.3,5.6,1.1
					c1.4,0.6,2.6,1.5,3.4,2.8c1.5,2.3,1.8,4.8,0.5,7.3c-0.5,0.9-1.2,1.7-2,2.3c-1,0.8-2.3,1.3-3.5,1.6c-0.3,0.1-0.5,0.1-0.8,0.2
					c-0.1,0-0.1,0.1-0.2,0.1c0.1,0.1,0.3,0.2,0.4,0.3c1.4,0.7,2.6,1.7,3.7,2.9c0.6,0.7,1.2,1.5,1.8,2.2c1.1,1.5,2.2,3.1,3.3,4.7
					c0.8,1.1,1.6,2.2,2.5,3.1c0.8,0.8,1.8,1.4,3,1.6c0.2,0,0.4,0.1,0.5,0.1c0,0,0,0.1,0,0.2c-0.7,0.1-4.4,0.1-6.6,0
					c-0.6-0.7-1.3-1.4-1.9-2.2c-1.8-2.4-3.5-4.8-5.2-7.2c-0.5-0.7-1-1.3-1.6-2c-0.8-0.9-1.6-1.6-2.6-2.2c-1.6-1-3.4-1.4-5.3-1.4
					c0,0-0.1,0-0.2,0.1c0,0.2,0,0.5,0,0.8c0,3.3,0,6.7,0,10c0,0.4,0,0.8,0.1,1.2c0.2,1,0.7,1.7,1.6,2.1c0.4,0.1,0.7,0.2,1.1,0.3
					c0.3,0.1,0.6,0.1,0.9,0.1c0.1,0,0.1,0.1,0.2,0.3c-0.2,0-0.3,0-0.5,0c-4,0.1-10.3,0-11.1-0.1c0-0.1,0.1-0.2,0.1-0.2
					c0.2-0.1,0.5-0.1,0.8-0.1c0.4-0.1,0.7-0.1,1.1-0.3c1.1-0.5,1.7-1.2,1.8-2.4c0-0.3,0-0.7,0-1c0-7.4,0-14.8,0-22.2
					c0-0.4,0-0.7,0-1.1c-0.1-1.1-0.6-1.8-1.6-2.3c-0.5-0.2-1-0.4-1.6-0.4C251.2,30.5,251,30.5,250.7,30.5z M258.3,45L258.3,45
					c0.7,0,1.4,0,2,0c1.1,0,2.3-0.1,3.4-0.3c1.1-0.2,2.2-0.5,3.2-1.1c1.3-0.8,2.1-1.9,2.5-3.4c0.2-1,0.3-2,0.1-3c-0.3-1.6-0.9-3-2-4
					c-0.9-0.8-1.8-1.4-3-1.7c-1.6-0.5-3.2-0.6-4.9-0.5c-0.4,0-0.9,0-1.4,0.2C258.3,35.7,258.3,40.3,258.3,45z"/>
				<path class="st9" d="M397,29.2c4.3,0,8.3,1.1,11.9,3.5c2,1.3,3.7,3,5,5c3,4.6,3.1,10.9-0.2,15.8c-1.4,2-3.1,3.7-5.2,5
					c-2.7,1.7-5.7,2.7-8.9,3c-3.4,0.3-6.8,0-10.1-1.2c-3.1-1.1-5.8-2.8-7.9-5.3c-1.7-2-3-4.3-3.4-6.9c-0.7-3.7-0.1-7.1,1.9-10.3
					c1.4-2.2,3.2-4,5.4-5.4c2.5-1.6,5.3-2.6,8.3-3C394.8,29.2,395.9,29.2,397,29.2z M411.8,45.5L411.8,45.5c0-1.7-0.1-3.4-0.5-5.1
					c-0.8-3.4-2.7-5.9-5.5-7.9c-0.5-0.3-1.1-0.6-1.6-0.9c-2.2-0.9-4.5-1.5-6.9-1.5c-1.9,0-3.7,0.3-5.5,0.8c-2.2,0.7-4.2,1.8-5.8,3.5
					c-1.4,1.5-2.4,3.2-3,5.1c-0.4,1.2-0.6,2.5-0.7,3.8c-0.2,2.5-0.1,4.9,0.6,7.3c1.3,4.7,4.4,7.9,9.1,9.3c3.6,1.1,7.2,1,10.8-0.1
					c4.2-1.4,6.9-4.2,8.3-8.4C411.6,49.4,411.8,47.4,411.8,45.5z"/>
				<path class="st8" d="M227.2,29.2c4.3,0,8.4,1.1,12,3.6c2.3,1.5,4.1,3.5,5.4,6c1.3,2.5,1.8,5.1,1.5,7.9c-0.3,3.6-1.9,6.6-4.3,9.1
					c-2.5,2.5-5.4,4.2-8.8,5.1c-4.9,1.3-9.7,1-14.3-0.8c-2.9-1.2-5.4-2.9-7.4-5.4c-1.5-1.8-2.6-3.9-3.1-6.2
					c-0.8-3.8-0.2-7.3,1.8-10.6c1-1.6,2.3-3,3.8-4.2c2.9-2.3,6.2-3.6,9.8-4.2C224.8,29.2,226,29.2,227.2,29.2z M212.2,45.4
					L212.2,45.4c0,1.6,0.1,3.3,0.6,4.9c1.3,4.9,4.4,8.1,9.2,9.6c3.6,1.1,7.3,1,11-0.2c1.9-0.6,3.5-1.6,4.9-3
					c1.7-1.7,2.8-3.7,3.4-5.9c0.9-3.5,0.9-7,0-10.5c-0.8-3.2-2.6-5.7-5.3-7.6c-0.6-0.4-1.2-0.8-1.8-1c-2.2-1-4.5-1.5-6.9-1.5
					c-1.6,0-3.2,0.2-4.7,0.6c-4.6,1.2-7.8,4.1-9.4,8.6C212.4,41.3,212.3,43.3,212.2,45.4z"/>
				<path class="st8" d="M291.6,45c0.2,0,0.5,0,0.7,0c2,0,3.9,0,5.9,0c1,0,2.1-0.1,3.1-0.4c1.2-0.3,1.9-1,2.1-2.3c0-0.1,0-0.2,0-0.2
					c0.1-0.1,0.2-0.1,0.3-0.1c0,0.1,0.1,0.2,0.1,0.3c0,2.1,0,4.1,0,6.2c0,0.2,0,0.3-0.1,0.4c-0.1,0-0.2-0.1-0.3-0.4
					c-0.1-0.4-0.3-0.9-0.5-1.2c-0.5-0.6-1.2-1.1-2-1.2c-0.7-0.1-1.4-0.1-2-0.1c-2.3,0-4.5,0-6.8,0c-0.1,0-0.3,0-0.3,0
					c-0.2,0.1-0.2,0.3-0.2,0.5c0,3.4,0,6.9,0,10.3c0,0.6,0.1,1.3,0.4,1.8c0.3,0.6,0.7,1,1.3,1.1c0.4,0.1,0.8,0.2,1.2,0.2
					c2.1,0,4.1,0,6.2,0c0.8,0,1.5-0.1,2.3-0.3c1.3-0.4,2.3-1.1,2.9-2.2c0.2-0.4,0.4-0.7,0.6-1.1c0-0.1,0.2-0.1,0.3-0.2
					c0,0.1,0.1,0.1,0.1,0.2c-0.4,1.5-0.8,3-1.2,4.5c-0.8,0.1-15.9,0.2-21.2,0.1c-0.1,0-0.3,0-0.5,0c0-0.1,0-0.2,0.1-0.2
					c0.1,0,0.3,0,0.5,0c0.8,0,1.4-0.3,2-0.7c0.7-0.4,1-1,1.2-1.8c0-0.3,0.1-0.7,0.1-1c0-7.6,0-15.2,0-22.8c0-0.7-0.1-1.5-0.5-2.1
					c-0.4-0.8-1-1.3-1.9-1.4c-0.5-0.1-0.9-0.1-1.4-0.2c0-0.1,0-0.1,0-0.2c0.7-0.1,20.9-0.1,21.6,0c0,0.1,0,0.2,0,0.4
					c0,1.3,0,2.6,0,3.9c0,0.1,0,0.3-0.1,0.4c0,0-0.2,0-0.2,0c-0.1-0.1-0.1-0.2-0.1-0.3c-0.1-1.5-1-2.4-2.3-3
					c-0.9-0.4-1.8-0.5-2.8-0.5c-0.4,0-0.8,0-1.3,0c-2.1,0-4.3,0-6.4,0c-0.3,0-0.5,0-0.8,0c0,0.1-0.1,0.2-0.1,0.3c0,4.4,0,8.9,0,13.4
					C291.5,44.7,291.5,44.8,291.6,45z"/>
				<path class="st10" d="M322.7,31.3c-0.1,0-0.3,0-0.5,0c-2.3,0-4.5,0-6.8,0c-1.1,0-2.3,0.1-3.3,0.5c-0.3,0.1-0.5,0.2-0.7,0.3
					c-0.8,0.3-1.3,0.9-1.7,1.6c-0.2,0.5-0.4,1-0.5,1.6c0,0.2,0,0.4-0.1,0.6c0,0.1-0.1,0.2-0.2,0.2c-0.2,0-0.2-0.1-0.2-0.3
					c0-0.1,0-0.3,0-0.4c0-2.1,0-4.1,0-6.2c0-0.2,0-0.3,0-0.5c0-0.1,0.2-0.2,0.3-0.1c0.1,0.1,0.2,0.2,0.3,0.3c0.5,0.6,1.1,1,1.9,1
					c0.6,0.1,1.2,0.1,1.7,0.1c2.1,0,4.3,0,6.4,0c5.6,0,11.3,0,16.9,0c0.4,0,0.8,0,1.3-0.1c0.9-0.1,1.8-0.5,2.4-1.1
					c0.2-0.2,0.3-0.4,0.6-0.3c0.1,0.5,0.1,6.2,0,7.4c-0.3,0.1-0.3,0.1-0.4-0.1c-0.1-0.4-0.1-0.8-0.2-1.1c-0.1-0.4-0.3-0.9-0.5-1.2
					c-0.3-0.6-0.8-1-1.4-1.3c-1-0.5-2-0.7-3-0.8c-0.3,0-0.6,0-0.9,0c-2.4,0-4.7,0-7.1,0c-0.1,0-0.3,0-0.5,0c0,0.2,0,0.4,0,0.6
					c0,8.3,0,16.6,0,24.9c0,0.4,0,0.7,0.1,1.1c0.2,1,0.7,1.6,1.6,2c0.5,0.3,1.1,0.3,1.7,0.4c0.1,0,0.3,0,0.5,0.1c0,0.1,0,0.2,0,0.2
					c-0.6,0.1-10.8,0.1-11.5,0c0-0.1,0.1-0.2,0.1-0.2c0.3-0.1,0.5-0.1,0.8-0.1c0.5-0.1,1-0.3,1.4-0.5c0.8-0.4,1.3-1.1,1.4-2
					c0-0.3,0-0.6,0-0.9c0-8.3,0-16.6,0-24.8C322.8,31.7,322.8,31.5,322.7,31.3z"/>
				<path class="st10" d="M375.5,28.6c0.1,0.9,0.1,6.8,0,7.4c-0.2,0.1-0.3,0-0.4-0.2c-0.1-0.4-0.1-0.7-0.2-1.1
					c-0.1-0.4-0.2-0.7-0.4-1c-0.4-0.8-0.9-1.3-1.7-1.7c-0.9-0.4-1.9-0.6-2.9-0.7c-0.4,0-0.8-0.1-1.2-0.1c-2.2,0-4.4,0-6.6,0
					c-0.2,0-0.4,0-0.6,0c-0.2,0.3-0.1,0.6-0.1,0.9c0,4.4,0,8.9,0,13.4c0,3.7,0,7.4,0,11.1c0,0.4,0,0.9,0.1,1.3c0.2,1,0.7,1.6,1.6,2
					c0.4,0.1,0.8,0.2,1.1,0.3c0.3,0.1,0.6,0.1,0.9,0.1c0,0,0.1,0.1,0.2,0.2c-0.1,0-0.2,0.1-0.3,0.1c-3.8,0-7.5,0-11.3,0
					c0.1-0.1,0.1-0.3,0.1-0.3c0.3-0.1,0.6-0.1,0.9-0.2c0.5-0.1,1-0.2,1.4-0.5c0.9-0.4,1.3-1.2,1.5-2.1c0-0.3,0-0.6,0-0.9
					c0-8.3,0-16.6,0-24.8c0-0.2,0-0.4,0-0.7c-0.2,0-0.3,0-0.5,0c-2.3,0-4.6,0-6.9,0c-1,0-1.9,0.1-2.8,0.4c-0.4,0.1-0.8,0.3-1.2,0.4
					c-0.8,0.3-1.3,0.9-1.7,1.7c-0.2,0.5-0.4,1-0.5,1.5c0,0.2-0.1,0.5-0.1,0.7c0,0.2-0.2,0.2-0.4,0.1c0-0.1,0-0.2,0-0.3
					c0-2.3,0-4.5,0-6.8c0-0.1,0-0.2,0-0.2c0-0.2,0.3-0.2,0.4-0.1c0.1,0.1,0.2,0.2,0.3,0.3c0.5,0.5,1,0.9,1.7,1
					c0.4,0.1,0.8,0.1,1.2,0.1s0.7,0,1.1,0c7.6,0,15.2,0,22.9,0c0.4,0,0.8,0,1.2,0c1-0.1,1.8-0.5,2.5-1.2
					C375,28.7,375.2,28.5,375.5,28.6z"/>
				<path class="st11" d="M166.1,30.1c7.2,0,14.4,0,21.6,0c0,0.1,0,0.3,0,0.4c0,1.3,0,2.6,0,3.9c0,0.1,0,0.2,0,0.3
					c0,0-0.1,0.1-0.1,0.1c0,0-0.1,0-0.1,0c-0.1-0.1-0.1-0.2-0.1-0.4c-0.1-0.4-0.3-0.8-0.5-1.2c-0.5-1-1.5-1.7-2.6-1.9
					c-0.5-0.1-1.1-0.2-1.6-0.2c-2.8,0-5.6,0-8.4,0c-0.1,0-0.3,0-0.5,0c0,0.2,0,0.3,0,0.5c-0.1,3.6,0,12.5,0.1,13.3
					c0.2,0,0.3,0,0.5,0c2.6,0,5.1,0,7.7,0c0.5,0,1,0,1.4-0.1c1.3-0.2,2.1-1,2.5-2.2c0-0.2,0.1-0.4,0.2-0.6c0,0,0.1-0.1,0.2-0.1
					c0,0,0.1,0.1,0.2,0.1c0,0.1,0,0.2,0,0.3c0,2,0,4,0,6c0,0.2,0,0.3-0.2,0.4c-0.1,0.1-0.2-0.1-0.3-0.3c0-0.1,0-0.2,0-0.2
					c-0.4-1.3-1.2-2.1-2.5-2.3c-0.5-0.1-1-0.1-1.5-0.1c-2.5,0-5.1,0-7.6,0c-0.1,0-0.3,0-0.4,0c-0.2,0.2-0.2,0.4-0.2,0.6
					c0,1.7,0,3.4,0,5c0,1.7,0,3.4,0,5.2c0,0.3,0,0.6,0,0.9c0.2,1.6,1.5,2.5,2.6,2.7c0.4,0.1,0.9,0.1,1.3,0.2
					c0.1,0.1,0.1,0.3-0.1,0.3c-0.2,0-0.4,0-0.5,0c-3.4,0-6.9,0-10.3,0c-0.2,0-0.4,0-0.5,0c0,0-0.1-0.1-0.1-0.2c0,0,0.1-0.1,0.1-0.1
					c0.3,0,0.7,0,1-0.1c1.5-0.2,2.6-1.4,2.7-2.9c0-0.3,0-0.5,0-0.8c0-7.4,0-14.9,0-22.3c0-0.3,0-0.6,0-0.9c-0.1-1.5-0.8-2.4-2.5-2.7
					c-0.4-0.1-0.8-0.1-1.2-0.1C166.1,30.4,166,30.3,166.1,30.1z"/>
				<path class="st8" d="M203.4,60.7c-3.9,0-7.6,0-11.4,0c-0.1-0.2-0.1-0.3,0.1-0.3c0.2-0.1,0.5-0.1,0.8-0.1
					c0.6-0.1,1.1-0.3,1.5-0.5c0.7-0.4,1.1-1,1.3-1.7c0.1-0.4,0.1-0.9,0.1-1.3c0-2.6,0-5.3,0-7.9c0-4.9,0-9.8,0-14.6
					c0-0.5,0-1-0.1-1.5c-0.1-0.8-0.6-1.4-1.4-1.7c-0.5-0.2-1-0.4-1.5-0.5c-0.2,0-0.5,0-0.8-0.1c-0.1,0-0.1-0.1-0.2-0.3
					c0.2,0,0.4,0,0.5,0c3.5,0,7,0,10.5,0c0.1,0,0.3,0,0.4,0c0,0,0.1,0.1,0.1,0.1c0,0,0,0.1-0.1,0.1c-0.2,0-0.5,0.1-0.7,0.1
					c-0.6,0-1.1,0.2-1.6,0.5c-0.9,0.5-1.3,1.2-1.4,2.1c0,0.3,0,0.6,0,1c0,7.5,0,15,0,22.6c0,0.3,0,0.6,0,1c0.1,0.9,0.5,1.6,1.3,2
					c0.5,0.3,1.1,0.6,1.7,0.7c0.2,0,0.5,0,0.7,0.1C203.4,60.4,203.4,60.6,203.4,60.7z"/>
				<path class="st12" d="M416.1,70.6c0,0.2,0,0.4,0,0.5c0,0-0.1,0-0.1,0.1c0,0,0,0-0.1,0c-31.7,0-63.5,0-95.2,0c-0.1,0-0.2,0-0.3,0
					c-0.2-0.2-0.2-0.4-0.1-0.5c0,0,0.1-0.1,0.1-0.1c0.3,0,0.5,0,0.8,0c31.3,0,62.6,0,93.9,0C415.5,70.6,415.8,70.6,416.1,70.6z"/>
				<path class="st13" d="M247.4,70.6c0,0.3,0,0.4,0,0.5c-0.1,0-0.1,0.1-0.1,0.1c-0.3,0-0.6,0-0.9,0c-26.5,0-52.9,0-79.4,0
					c-0.3,0-0.6,0-1,0c0-0.2,0-0.4,0-0.5c0.1,0,0.1-0.1,0.2-0.1c0.3,0,0.5,0,0.8,0c26.5,0,53.1,0,79.6,0
					C246.8,70.6,247.1,70.6,247.4,70.6z"/>
				<path class="st14" d="M273.1,67.9c-1.1,2.3-2,4.5-3,6.8c-0.4,0.2-0.7,0.1-1,0c-0.4-1.1-0.9-2.3-1.3-3.4
					c-0.5-1.1-0.9-2.3-1.4-3.4c-0.1,0.4-0.1,0.7-0.1,1.1c0,0.4,0,0.8,0,1.2c0,0.4,0,0.7,0,1.1c0,0.4,0,0.7,0,1.1c0,0.4,0,0.8,0,1.2
					c0,0.4,0,0.7,0,1.1c-0.4,0.2-0.7,0.2-1,0.1c0-0.2-0.1-0.3-0.1-0.5c0-2.3,0-4.6,0-6.9c0-0.7,0.1-0.8,0.8-0.8c0.1,0,0.2,0,0.2,0
					c0.5,0,0.9,0.2,1.1,0.7c0.6,1.5,1.2,3,1.8,4.5c0.2,0.4,0.3,0.8,0.5,1.3c0.1-0.2,0.2-0.4,0.3-0.5c0.7-1.7,1.4-3.4,2.1-5.1
					c0.4-0.9,0.5-1,1.6-1c0.3,0,0.5,0.2,0.5,0.5c0,0.1,0,0.3,0,0.5c0,2.2,0,4.4,0,6.6c0,0.2,0,0.4,0,0.6c-0.3,0.2-0.6,0.1-0.9,0.1
					c-0.2-0.2-0.1-0.5-0.1-0.7c0-1.8,0-3.6,0-5.3C273.1,68.4,273.1,68.2,273.1,67.9z"/>
				<path class="st15" d="M258.5,73c0.1-0.2,0.2-0.4,0.3-0.6c0.7-1.6,1.4-3.3,2.1-4.9c0.1-0.1,0.1-0.3,0.2-0.4
					c0.2-0.4,0.5-0.5,0.9-0.5c1.1,0,1.1,0.1,1.1,1c0,2.1,0,4.3,0,6.4c0,0.2,0,0.5,0,0.7c-0.4,0.2-0.7,0.2-1,0c-0.1-0.8,0-1.5,0-2.3
					c0-0.7,0-1.5,0-2.2c0-0.8,0-1.5,0-2.3c-0.3,0-0.3,0.2-0.3,0.3c-0.8,1.9-1.6,3.8-2.4,5.7c0,0,0,0.1,0,0.1
					c-0.3,0.7-0.3,0.8-1.2,0.6c-0.2-0.2-0.3-0.5-0.4-0.8c-0.7-1.7-1.4-3.4-2-5.2c-0.1-0.3-0.2-0.6-0.4-0.8c-0.1,0-0.1,0-0.1,0
					c0,0,0,0,0,0.1c0,2.2,0,4.4,0,6.5c0,0,0,0,0,0.1c-0.3,0.2-0.6,0.2-1,0c0-0.2,0-0.3,0-0.5c0-2.3,0-4.5,0-6.8
					c0-0.8,0.1-0.9,0.9-0.9c0.1,0,0.3,0,0.4,0c0.4,0,0.6,0.2,0.8,0.6c0.1,0.1,0.1,0.3,0.2,0.4c0.6,1.6,1.3,3.2,1.9,4.8
					C258.2,72.5,258.2,72.8,258.5,73z"/>
				<path class="st16" d="M316,72.9c0-2.1,0-4.1,0-6.2c0,0,0,0,0-0.1c0.4-0.2,0.4-0.2,0.9,0c0,0.1,0,0.3,0,0.4c0,2.3,0,4.6,0,6.9
					c0,0.8-0.3,0.8-0.9,0.8c-0.3,0-0.5-0.1-0.6-0.3c-0.1-0.2-0.3-0.4-0.4-0.7c-1-1.8-2-3.6-3-5.4c-0.1-0.1-0.1-0.2-0.2-0.3
					c0,0-0.1,0-0.1,0c0,0,0,0,0,0c0,2.1,0,4.3,0,6.4c-0.3,0.2-0.6,0.2-1,0.1c0-0.2-0.1-0.3-0.1-0.5c0-2.3,0-4.6,0-6.9
					c0-0.1,0-0.2,0-0.3c0-0.4,0.2-0.5,0.5-0.5c0.1,0,0.3,0,0.4,0c0.4,0,0.6,0.1,0.8,0.5c0.1,0.2,0.2,0.4,0.3,0.5
					c1,1.7,1.9,3.4,2.8,5.1c0,0.1,0.1,0.2,0.2,0.3C315.9,72.9,315.9,72.9,316,72.9z"/>
				<path class="st17" d="M289.1,70.3c0.2,0.1,0.3,0.2,0.5,0.3c1.3,0.7,1.3,2.8,0,3.7c-0.5,0.3-1,0.5-1.5,0.5c-0.8,0-1.7,0-2.5,0
					c-0.4,0-0.5-0.1-0.5-0.5c0-0.1,0-0.3,0-0.4c0-2.1,0-4.3,0-6.4c0-0.9,0-0.9,1-0.9c0.6,0,1.1,0,1.7,0c0.3,0,0.7,0.1,1,0.2
					c1.3,0.5,1.7,2,0.9,3.1C289.5,70,289.3,70.1,289.1,70.3z M286.2,73.8L286.2,73.8c0.7,0,1.4,0.1,2,0c0.8-0.1,1.3-0.8,1.1-1.6
					c-0.1-0.6-0.5-1-1.1-1.2c-0.7-0.1-1.3-0.1-2,0C286.2,71.9,286.2,72.8,286.2,73.8z M286.2,70L286.2,70c0.5,0,1,0,1.4,0
					c0.9,0,1.4-0.8,1.2-1.6c-0.1-0.4-0.2-0.7-0.5-0.8c-0.3-0.1-0.6-0.2-0.9-0.2c-0.4,0-0.8-0.1-1.2,0.1
					C286.2,68.3,286.2,69.1,286.2,70z"/>
				<path class="st18" d="M283.3,70.9c-0.1,0.4-0.1,1-0.3,1.5c-0.4,1.4-1.4,2.2-2.8,2.4c-0.7,0.1-1.4,0.1-2.1-0.1
					c-0.9-0.3-1.6-0.9-1.9-1.8c-0.5-1.5-0.5-3,0-4.5c0.4-1,1.1-1.7,2.2-1.9c0.8-0.2,1.7-0.2,2.5,0c1,0.3,1.6,0.9,2,1.8
					C283.2,69,283.3,69.8,283.3,70.9z M282.2,70.6L282.2,70.6c0-0.7-0.1-1.3-0.4-1.9c-0.2-0.5-0.6-1-1.2-1.2c-1.5-0.6-3,0.1-3.4,1.7
					c-0.3,0.9-0.2,1.9,0,2.8c0,0.2,0.1,0.5,0.2,0.7c0.2,0.4,0.5,0.8,1,1c1.5,0.7,3.1,0,3.6-1.6C282.1,71.6,282.1,71.1,282.2,70.6z"
					/>
				<path class="st19" d="M308.7,67.4c-1.1,0.1-2.1,0-3.2,0.1c-0.1,0.8-0.1,1.6,0,2.5c0.2,0,0.4,0,0.5,0c0.7,0,1.3,0,2,0
					c0.3,0,0.4,0.1,0.4,0.4c0,0.3-0.1,0.5-0.4,0.5c-0.6,0-1.1,0-1.7,0c-0.3,0-0.6,0-0.9,0c-0.1,1,0,1.9,0,2.8c0.2,0,0.3,0,0.5,0
					c0.8,0,1.5,0,2.3,0c0.2,0,0.4,0,0.6,0c0.1,0.4,0.1,0.4,0,0.8c-0.1,0-0.3,0-0.5,0c-1.1,0-2.2,0-3.3,0c-0.1,0-0.3,0-0.4,0
					c-0.2,0-0.3-0.1-0.3-0.3c0-0.1,0-0.3,0-0.5c0-2.2,0-4.5,0-6.7c0-0.1,0-0.3,0-0.4c0-0.2,0.1-0.3,0.4-0.4c0.1,0,0.3,0,0.4,0
					c1.1,0,2.2,0,3.2,0c0.5,0,0.6,0.1,0.5,0.7C308.8,67.2,308.8,67.3,308.7,67.4z"/>
				<path class="st19" d="M295.5,66.6c0.4-0.2,0.7-0.2,1,0c0,1.1,0,2.3,0,3.5c0,1.2,0,2.4,0,3.6c0.2,0,0.3,0.1,0.5,0.1
					c0.7,0,1.3,0,2,0c0.2,0,0.4,0,0.6,0c0.2,0.3,0.2,0.5,0.1,0.8c-0.1,0-0.3,0.1-0.4,0.1c-1,0-2.1,0-3.1,0c-0.1,0-0.2,0-0.3,0
					c-0.2,0-0.3-0.1-0.3-0.3c0-0.1,0-0.3,0-0.4c0-2.4,0-4.7,0-7.1C295.5,66.8,295.5,66.7,295.5,66.6z"/>
				<path class="st19" d="M301.1,74.7c-0.1-0.8-0.1-7.5,0-8.1c0.5-0.2,0.5-0.2,1,0c0,0,0,0,0,0.1c0,0,0,0,0,0.1c0,2.5,0,5.1,0,7.6
					c0,0.1,0,0.2,0,0.3C301.8,74.9,301.4,74.8,301.1,74.7z"/>
				<path class="st19" d="M250.7,66.6c0.4-0.2,0.7-0.2,1.1,0c0.1,0.6,0,1.3,0,2c0,0.7,0,1.4,0,2c0,0.6,0,1.3,0,2c0,0.7,0,1.4,0,2
					c-0.4,0.2-0.7,0.2-1,0.1c0,0,0-0.1-0.1-0.1c0,0,0,0,0-0.1c0-2.4,0-4.9,0-7.3C250.7,67.1,250.7,66.9,250.7,66.6z"/>
				<path class="st19" d="M293.2,66.6c0.1,0.6,0.1,7.4,0,8.1c-0.3,0.2-0.6,0.1-1,0c0,0,0,0,0-0.1c0,0,0,0,0-0.1c0-2.5,0-5.1,0-7.6
					c0-0.1,0-0.2,0-0.3C292.6,66.4,292.9,66.4,293.2,66.6z"/>
			</g>
			<g>
				<path class="st20" d="M156.4,65.8c-0.2,0.6-0.6,1-0.9,1.5c-0.3,0.4-0.6,0.9-1,1.3c-0.6-0.4-1.1-1-1.6-1.4
					c-0.5-0.5-1.1-1-1.6-1.5c-0.4,0.4-0.6,0.8-0.9,1.3c0.7,0.8,1.6,1.4,2.3,2.2c-0.3,0.6-0.8,1.2-1.2,1.8c-0.4,0.6-0.8,1.2-1.2,1.8
					c-0.4,0.6-0.8,1.2-1.2,1.8c-0.4,0.6-0.8,1.2-1.3,1.8c-0.5-0.4-1-0.9-1.5-1.3c0.5-0.8,1-1.5,1.5-2.3c-0.4-0.3-0.7-0.6-0.9-0.9
					c-0.2,0-0.3,0.1-0.4,0.2c-0.4,0.5-0.7,1-1.1,1.5c-0.1,0.1-0.2,0.2-0.2,0.3c-0.5-0.4-2-1.7-2.3-2.2c0.3-0.6,2.1-3.3,2.5-3.7
					c0.6,0.6,1.3,1.2,1.9,1.8c0.4-0.3,0.5-0.4,0.8-1.1c-0.6-0.7-1.3-1.2-1.9-1.9c0.3-0.7,0.9-1.3,1.2-2c-0.2-0.3-0.5-0.5-0.8-0.8
					c-0.3,0.3-0.5,0.6-0.7,0.9c-0.2,0.3-0.4,0.6-0.7,0.9c-0.8-0.5-1.3-1.3-2-1.8c-0.4,0.3-0.5,0.7-0.8,1.1c0.7,0.6,1.3,1.2,2,1.9
					c-0.1,0.4-0.4,0.7-0.6,1c-0.2,0.3-0.4,0.6-0.6,0.9c-0.2,0.3-0.4,0.6-0.6,1c-0.2,0.3-0.4,0.6-0.7,0.9c-0.2-0.1-0.3-0.2-0.4-0.3
					c-0.6-0.6-1.3-1.2-1.9-1.8c0.5-0.8,1-1.5,1.5-2.2c-0.3-0.4-0.6-0.6-1-0.9c-0.4,0.3-0.5,0.7-0.8,1.1c-0.3,0.4-0.5,0.7-0.7,1
					c-0.5-0.3-1.1-0.9-1.4-1.3c0,0,0,0,0,0c0,0,0,0,0-0.1c1.6-2.3,3.1-4.5,4.7-6.8c0,0,0.1-0.1,0.1-0.2c0.1,0.1,0.3,0.2,0.4,0.3
					c0.5,0.5,1.1,1,1.6,1.5c0.1,0.1,0.2,0.2,0.3,0.3c0.4-0.4,0.6-0.9,0.9-1.2c0-0.1,0-0.1,0-0.1c0,0,0,0,0-0.1l-14.6-13.4
					c-0.1,0.1-0.3,0.2-0.4,0.3c-0.4,0.4-1,0.3-1.3-0.2c-0.1-0.1-0.1-0.2-0.2-0.4c-0.6,0.1-1-0.2-1.3-0.7c-0.2,0-0.4,0.2-0.5,0.3
					c-1,0.8-2.2,1.3-3.4,1.6c-1.1,0.2-2.2,0.1-3.3-0.2c-0.1-0.1-0.3-0.1-0.5-0.2c0,0.2,0,0.3,0,0.5c0,0.2-0.1,0.5-0.1,0.6
					c-0.1,0.3-0.3,0.4-0.6,0.4c-0.4,0-0.7,0.1-1-0.1c-1-0.5-1.7-1.2-2-2.3c0-0.2-0.1-0.4,0-0.6c0-0.4,0.3-0.7,0.7-0.8
					c0.1,0,0.3-0.1,0.4-0.1c0-0.1,0-0.2-0.1-0.3c-0.8-1.5-1.1-3.1-1.1-4.7c0-1.6,0.4-3.1,1-4.6c0-0.1,0.1-0.2,0.1-0.3c0,0,0,0,0-0.1
					c0,0,0-0.1-0.1-0.1c-0.6-0.1-0.8-0.6-0.8-1.1c0-0.2,0-0.5,0.1-0.7c0.2-0.8,0.6-1.5,1.3-2c0.2-0.2,0.5-0.4,0.7-0.5
					c0.4-0.2,0.8,0,1.1,0.3c0.1,0.1,0.1,0.2,0.2,0.4c0.1-0.1,0.3-0.2,0.4-0.3c0.8-0.7,1.7-1.3,2.7-1.7c1.6-0.6,3.3-0.8,5-0.1
					c0.1,0,0.1,0,0.2,0c0,0,0,0,0.1,0c0-0.1,0-0.2,0-0.3c0-0.1,0-0.3,0-0.5c0.1-0.5,0.4-0.8,0.9-0.8c0.2,0,0.4,0,0.6,0.1
					c1.1,0.5,1.9,1.2,2.2,2.4c0.1,0.2,0,0.5,0,0.7c-0.1,0.4-0.3,0.6-0.6,0.7c-0.1,0-0.3,0.1-0.5,0.1c0.3,0.6,0.5,1.2,0.7,1.8
					c0.2,0.6,0.3,1.2,0.4,1.9c0.1,0.6,0.1,1.2,0.1,1.8c0,0.6-0.1,1.3-0.3,1.9c-0.1,0.6-0.3,1.2-0.5,1.9c0.5,0.2,0.9,0.6,0.9,1.3
					c0.4,0.1,0.8,0.3,1,0.8c0.1,0.5,0,0.8-0.2,1.2L156.4,65.8z M118.5,39.3L118.5,39.3c0,1,0.2,2,0.6,2.9c0.6,1.1,1.5,1.7,2.8,1.8
					c1.2,0.1,2.3-0.2,3.1-1.2c0.5-0.6,0.8-1.4,0.9-2.2c0-0.4,0.2-0.6,0.5-0.8c1.1-0.5,1.8-1.4,2-2.6c0.3-1.3,0.1-2.5-0.5-3.6
					c-0.7-1.6-2.4-2.4-4.1-2c-0.8,0.2-1.5,0.5-2.1,1C119.7,34.3,118.6,36.6,118.5,39.3z"/>
				<path class="st21" d="M134.9,50.9l-6.9,6.5c-0.8,0.8-1.7,1.5-2.5,2.3c-0.1,0.1-0.2,0.2-0.3,0.3c0.3,0.4,0.6,0.8,0.9,1.3
					c0.1-0.1,0.2-0.1,0.3-0.2c0.5-0.5,1.1-1,1.7-1.6c0.1-0.1,0.2-0.1,0.4-0.2c0.1,0.1,0.2,0.1,0.2,0.2c1.5,2.3,3.1,4.5,4.6,6.7
					c0,0,0,0.1,0.1,0.2c-0.2,0.4-0.9,1-1.5,1.4c-0.5-0.7-1-1.4-1.5-2.2c-0.2,0.2-0.4,0.3-0.5,0.5c-0.1,0.1-0.3,0.3-0.5,0.4
					c0.4,0.8,1,1.5,1.5,2.3c-0.3,0.4-1.8,1.8-2.3,2.2c0,0-0.1,0-0.2-0.1c-0.8-1.2-1.6-2.3-2.4-3.5c0.2-0.5,0.7-0.7,1-1
					c0.3-0.3,0.7-0.6,1-0.9c-0.2-0.4-0.5-0.7-0.7-1.1c-0.4,0.3-0.7,0.6-1,0.9c-0.3,0.3-0.7,0.6-1,0.9c-0.5-0.6-0.9-1.3-1.4-1.9
					c-0.3,0.2-0.6,0.4-0.8,0.7c0.4,0.7,0.9,1.2,1.3,1.9c-0.1,0.1-0.1,0.2-0.2,0.3c-0.5,0.4-0.9,0.8-1.3,1.2
					c-0.1,0.1-0.3,0.2-0.4,0.4c0.2,0.4,0.5,0.8,0.8,1.1c0.7-0.6,1.3-1.2,2-1.8c0.4,0.4,2.2,3,2.6,3.7c-0.3,0.4-1.5,1.6-2.3,2.2
					c-0.1-0.1-0.2-0.2-0.2-0.3c-0.3-0.4-0.6-0.9-0.9-1.3c-0.1-0.2-0.3-0.4-0.4-0.5c-0.3,0-0.4,0.2-0.6,0.4c-0.1,0.1-0.3,0.3-0.5,0.5
					c0.1,0.1,0.1,0.3,0.2,0.4c0.3,0.5,0.7,1,1,1.5c0.1,0.1,0.2,0.3,0.2,0.4c-0.4,0.5-0.9,0.9-1.4,1.3c-0.3,0-0.3-0.2-0.4-0.4
					c-1.1-1.5-2.1-3.1-3.2-4.7c-0.4-0.6-0.8-1.2-1.2-1.8c0-0.1-0.1-0.2-0.2-0.3c0.1-0.1,0.1-0.2,0.2-0.3c0.5-0.5,1-1,1.5-1.4
					c0.1-0.1,0.3-0.3,0.5-0.5c-0.3-0.4-0.6-0.8-0.8-1.2c-0.2,0-0.3,0.1-0.4,0.2c-0.8,0.7-1.6,1.5-2.4,2.2c-0.2,0.2-0.3,0.4-0.5,0.4
					c-0.4-0.4-1.5-2.1-1.9-2.6c0-0.2,0.2-0.3,0.3-0.4c1.7-1.5,3.3-3.1,5-4.6c3.4-3.2,6.9-6.4,10.4-9.6l2.7-2.6L134.9,50.9z
					 M138,43.7c0-0.1,0-0.2-0.1-0.3c-0.4-0.9-0.1-1.5,0.8-1.7c0.1-0.9,0.1-0.9,0.9-1.4c-1-3.1-1.1-6.1,0.5-9.1
					c-0.1,0-0.2-0.1-0.3-0.1c-0.7-0.2-1-0.6-0.9-1.3c0-0.2,0.1-0.5,0.2-0.7c0.3-0.7,0.9-1.3,1.5-1.6c0.3-0.2,0.7-0.3,1-0.3
					c0.5,0,0.9,0.3,0.9,0.8c0,0.2,0,0.5,0,0.8c0.1,0,0.2,0,0.3,0c2-0.8,3.9-0.6,5.7,0.4c0.8,0.4,1.5,0.9,2.1,1.5
					c0.1,0.1,0.2,0.1,0.3,0.2c0.2-0.1,0.2-0.3,0.3-0.4c0.3-0.3,0.6-0.5,1-0.3c0.2,0.1,0.5,0.2,0.7,0.3c0.8,0.6,1.3,1.4,1.5,2.3
					c0,0.3,0,0.6,0,0.9c-0.1,0.4-0.3,0.7-0.7,0.7c-0.1,0-0.1,0-0.2,0.1c1.4,3.3,1.7,6.7-0.1,9.9c0.1,0.2,0.3,0.1,0.4,0.2
					c0.5,0.1,0.7,0.4,0.8,0.8c0,0.2,0,0.4,0,0.6c-0.3,1.1-1,1.8-2,2.3c-0.3,0.2-0.7,0.2-1,0.1c-0.4,0-0.6-0.4-0.7-0.8
					c0-0.2,0-0.5,0-0.8c-2.9,1.1-5.4,0.4-7.8-1.5c-0.3,0.2-0.4,0.6-0.7,0.7c-0.2,0-0.4,0-0.7,0.1c0,0.1-0.1,0.2-0.2,0.3
					c-0.3,0.5-0.9,0.6-1.4,0.3c-0.1-0.1-0.1-0.2-0.3-0.3c-0.1,0.1-0.3,0.2-0.4,0.3c-0.6,0.5-1.1,1-1.7,1.5l-2.5-2.2L138,43.7z
					 M151.9,39.4L151.9,39.4c0.1-2.6-1.3-5.3-3.2-6.7c-0.7-0.5-1.5-0.9-2.4-1.1c-1.6-0.3-2.9,0.3-3.7,1.6c-0.8,1.3-1,2.6-0.7,4.1
					c0.3,1.2,0.9,2.1,2.1,2.6c0.3,0.1,0.5,0.3,0.5,0.6c0,0.1,0,0.2,0,0.3c0.1,0.8,0.5,1.6,1.1,2.2c1.6,1.6,4.5,1.2,5.6-0.7
					C151.7,41.4,151.9,40.4,151.9,39.4z"/>
			</g>
		</g>
	</g>
</g>
<g id="Layer_5" class="st0">
	<g id="Layer_x0020_1_3_" class="st1">
		<g id="_799148128">
			
				<linearGradient id="SVGID_1_" gradientUnits="userSpaceOnUse" x1="245.4305" y1="72.7278" x2="209.5531" y2="72.7278" gradientTransform="matrix(1.0238 0 0 -1.0238 8.6223 119.5328)">
				<stop  offset="0" style="stop-color:#00ADEF"/>
				<stop  offset="1" style="stop-color:#184297"/>
			</linearGradient>
			<path class="st22" d="M237,36.8c-1.3-0.7-2.8-1.1-4.4-1.1c-2.6,0-5,1-6.7,2.8c-1.7,1.7-2.7,4-2.7,6.6s1,5,2.7,6.6
				c1.7,1.7,4.1,2.8,6.7,2.8c1.6,0,3.1-0.4,4.4-1.1c1.3-0.6,2.3-1.6,3.2-2.7c0.2-0.3,0.3-0.6,0.6-0.8c0.6-0.6,1.3-1.2,2.1-1.6
				c0.9-0.5,2-0.7,3.1-0.7c0.8,0,1.6,0.2,2.4,0.5c0.6,0.2,1.1,0.5,1.6,0.8c0.5,0.3,0.9,0.7,1.4,1c0.3,0.2,0.7,0.4,1.1,0.6
				c0.6,0.2,1.2,0.3,1.8,0.3c1.6,0,3-0.6,4-1.7c1-1,1.7-2.4,1.7-4l0,0l0,0c0-1.6-0.6-3-1.7-4c-1-1-2.4-1.7-4-1.7
				c-0.6,0-1.3,0.2-1.8,0.3c-0.4,0.2-0.8,0.3-1.1,0.6c-0.6,0.3-0.9,0.7-1.4,1.1c-0.5,0.3-1,0.6-1.6,0.8c-0.8,0.2-1.6,0.4-2.4,0.4
				c-1.1,0-2.1-0.2-3.1-0.7c-0.8-0.4-1.5-0.9-2.1-1.5c-0.3-0.3-0.4-0.6-0.6-0.9C239.3,38.4,238.3,37.4,237,36.8z"/>
			<path class="st23" d="M242.2,54.8c2-1.9,5-1.9,7,0c1.9,2,1.9,5,0,7c-2.2,2.2-4.8,3.9-7.7,5.1c-2.8,1.1-5.8,1.7-9,1.7
				c-6.5,0-12.4-2.6-16.6-6.9l0,0c-4.3-4.3-6.9-10.2-6.9-16.7c0-6.5,2.7-12.4,6.9-16.6l0.3-0.3c4.2-4.1,10-6.6,16.3-6.6
				c3.2,0,6.2,0.6,9,1.8c2.9,1.2,5.5,2.9,7.7,5.1c1.9,1.9,1.9,5,0,6.9c-2,2-5,2-7,0c-1.3-1.3-2.8-2.3-4.4-3c-1.7-0.6-3.4-1-5.3-1
				c-3.6,0-7,1.5-9.5,3.8l-0.2,0.2c-2.4,2.5-4,5.9-4,9.7c0,3.8,1.6,7.3,4,9.7l0,0c2.5,2.5,5.9,4,9.7,4c1.9,0,3.6-0.3,5.3-1
				C239.5,57.1,241,56.1,242.2,54.8z"/>
		</g>
		<path class="st24" d="M291.8,52.4c1.2-1.2,3.2-1.2,4.4,0c1.3,1.3,1.3,3.2,0,4.5c-1.5,1.6-3.3,2.8-5.4,3.5c-2,0.9-4.1,1.3-6.3,1.3
			c-4.5,0-8.7-1.8-11.6-4.8c-3-3-4.9-7.1-4.9-11.7s1.9-8.7,4.9-11.7c2.9-3,7.1-4.8,11.6-4.8c2.2,0,4.3,0.4,6.3,1.3
			c2.1,0.8,3.9,2.1,5.4,3.5c1.3,1.3,1.3,3.2,0,4.5c-1.2,1.3-3.2,1.3-4.4,0c-1-0.9-2.1-1.7-3.3-2.2c-1.2-0.5-2.5-0.8-3.9-0.8
			c-2.8,0-5.3,1.2-7.2,3c-1.8,1.8-2.9,4.4-2.9,7.2c0,2.8,1.1,5.4,2.9,7.2c1.9,1.9,4.4,3,7.2,3c1.4,0,2.8-0.2,3.9-0.8
			C289.6,54.1,290.7,53.4,291.8,52.4z M410.5,59.7c-0.7,1.6-2.6,2.3-4.2,1.5c-1.6-0.7-2.3-2.5-1.5-4.2l12-26.1
			c1.1-2.5,4.7-2.4,5.8,0l12,26.1c0.7,1.7,0,3.5-1.6,4.2c-1.6,0.8-3.5,0.1-4.2-1.5l-2.5-5.5H413L410.5,59.7z M423.3,47.8l-3.7-8.1
			l-3.7,8.1H423.3z M362.7,58.3c0,1.7-1.4,3.2-3.2,3.2c-1.7,0-3.2-1.4-3.2-3.2V32.1c0-1.7,1.4-3.2,3.2-3.2c1.7,0,3.2,1.4,3.2,3.2
			V58.3z M374.7,58.3c0,4.2-6.4,4.2-6.4,0V32.1c0-3.3,4.5-4.3,6-1.4l10.6,17.2l10.6-17.2c1.5-2.9,6-1.9,6,1.4v26.2
			c0,4.2-6.4,4.2-6.4,0v-15l-7.5,12.2c-1.2,2.1-4.2,2.1-5.4,0l-7.5-12.2V58.3z M334.7,42.1h10.9c1.7,0,3.2,1.4,3.2,3.2
			c0,1.7-1.4,3.2-3.2,3.2h-10.9v10c0,1.7-1.4,3.2-3.2,3.2c-1.7,0-3.2-1.4-3.2-3.2V45.2V32.1c0-1.7,1.4-3.2,3.2-3.2h17.4
			c1.7,0,3.2,1.4,3.2,3.2c0,1.7-1.4,3.2-3.2,3.2h-14.1V42.1z M321.7,55.2c4.2,0,4.2,6.4,0,6.4h-17.3c-1.7,0-3.2-1.4-3.2-3.2V45.2
			V32.1c0-1.7,1.4-3.2,3.2-3.2h17.3c4.2,0,4.2,6.3,0,6.3h-14.1v6.8h10.9c1.8,0,3.2,1.4,3.2,3.2c0,1.7-1.4,3.2-3.2,3.2h-10.9v6.8
			H321.7z"/>
	</g>
</g>
<g id="Layer_6" class="st0">
	<g id="Layer_x0020_1_4_" class="st1">
		<path class="st25" d="M429,45.5c0,2.1-0.2,4.2-0.6,6.3c-0.3,1.5-0.8,2.8-1.5,4.1c-1.6,2.9-4,4.8-7.3,5.6c-2.5,0.6-4.9,0.6-7.4,0
			c-3.2-0.8-5.6-2.7-7.1-5.6c-0.9-1.6-1.4-3.3-1.7-5.1c-0.5-2.7-0.6-5.5-0.4-8.2c0.2-2.3,0.6-4.5,1.5-6.6c0.8-2,1.9-3.7,3.6-5
			c1.6-1.3,3.4-2.2,5.5-2.5c2.1-0.3,4.1-0.3,6.2,0.3c2.9,0.8,5,2.5,6.6,5c1,1.7,1.7,3.6,2.1,5.5C428.8,41.2,429,43.3,429,45.5z
			 M423.3,45.4L423.3,45.4c0-1.7-0.1-3.3-0.5-4.9c-0.3-1.3-0.8-2.6-1.5-3.8c-0.9-1.2-2-2.1-3.4-2.4c-0.9-0.2-1.9-0.3-2.8-0.2
			c-1.3,0.1-2.5,0.6-3.5,1.5c-0.9,0.8-1.5,1.8-2,2.8c-0.6,1.5-0.9,3-1,4.6c-0.2,2-0.1,4,0.1,6c0.2,1.1,0.4,2.2,0.9,3.3
			c0.7,1.5,1.8,2.7,3.3,3.4c1,0.4,2,0.6,3.1,0.6c1.9,0,3.6-0.8,4.9-2.2c1-1.1,1.5-2.4,1.9-3.8C423.2,48.6,423.4,47,423.3,45.4z
			 M312.3,45.4c0,2.3-0.2,4.6-0.8,6.8c-0.3,1.3-0.8,2.6-1.4,3.7c-1.5,2.8-3.9,4.7-7,5.4c-2.6,0.6-5.2,0.6-7.8-0.1
			c-2.9-0.8-5.1-2.6-6.7-5.2c-1-1.6-1.5-3.4-1.9-5.2c-0.5-2.8-0.6-5.5-0.4-8.3c0.2-2.1,0.5-4.1,1.2-6.1c0.8-2.1,1.9-4,3.6-5.5
			c1.6-1.5,3.6-2.4,5.7-2.7c2.1-0.3,4.1-0.3,6.2,0.3c3,0.8,5.2,2.6,6.8,5.3c1,1.8,1.7,3.7,2.1,5.7C312.1,41.6,312.2,43.5,312.3,45.4
			z M306.6,45.3L306.6,45.3c0-1.7-0.1-3.3-0.5-5c-0.3-1.3-0.8-2.6-1.6-3.7c-0.9-1.2-2-1.9-3.4-2.3c-0.9-0.2-1.9-0.3-2.8-0.2
			c-1.2,0.1-2.2,0.5-3.1,1.2c-1,0.7-1.6,1.7-2.1,2.8c-0.7,1.5-1,3-1.1,4.6c-0.2,1.5-0.2,3-0.1,4.5c0.1,1.3,0.3,2.7,0.7,4
			c0.3,0.8,0.6,1.6,1.1,2.3c1.2,1.6,2.7,2.5,4.7,2.7c2.6,0.3,4.7-0.6,6.3-2.7c0.7-1,1.1-2,1.4-3.1C306.5,48.7,306.6,47,306.6,45.3z
			 M313.9,29.2c0.1,0,0.2,0,0.3,0c4.6,0,9.2,0,13.7,0c2.3,0,4.3,0.9,5.9,2.6c1.1,1.2,1.7,2.6,2,4.1c0.4,2,0.4,4-0.3,6
			c-0.4,1.1-1,2.1-1.9,2.9c-0.4,0.3-0.8,0.5-1.2,0.8c-0.1,0-0.2,0.1-0.3,0.1c0.3,0.2,0.7,0.3,1,0.5c1.1,0.7,1.8,1.7,2,3
			c0.1,0.7,0.2,1.4,0.2,2.1c0,3.1,0,6.2,0,9.4c0,0,0,0.1,0,0.2c-1.9,0-3.7,0-5.6,0c0-0.1,0-0.3,0-0.4c0-2.5,0-5,0-7.5
			c0-0.5-0.1-1.1-0.1-1.6c-0.2-1.6-1.1-2.4-2.7-2.6c-0.4-0.1-0.9-0.1-1.3-0.1c-2,0-4,0-6,0c-0.1,0-0.1,0-0.3,0c0,4.1,0,8.2,0,12.3
			c-1.9,0-3.7,0-5.5,0C313.9,50.3,313.9,39.8,313.9,29.2z M319.4,43.1L319.4,43.1c0.1,0,0.2,0,0.3,0c2.3,0,4.6,0,6.9,0
			c0.4,0,0.9-0.1,1.3-0.1c1.2-0.2,2-0.8,2.5-1.9c0.3-0.6,0.4-1.2,0.4-1.9c0-1.1-0.1-2.1-0.7-3.1c-0.4-0.5-0.8-0.9-1.4-1.1
			c-0.5-0.2-1.1-0.3-1.7-0.3c-2.4,0-4.8,0-7.2,0c-0.1,0-0.2,0-0.3,0C319.4,37.5,319.4,40.3,319.4,43.1z M337.4,29.2
			c6.7,0,13.3,0,20,0c0,1.8,0,3.6,0,5.5c-4.8,0-9.6,0-14.5,0c0,2.3,0,4.5,0,6.7c1.1,0,2.2,0,3.3,0c1.1,0,2.2,0,3.3,0
			c1.1,0,2.2,0,3.4,0c1.1,0,2.2,0,3.3,0c0.1,0.3,0.1,4.9,0,5.6c-4.4,0-8.9,0-13.3,0c0,2.7,0,5.4,0,8.1c5,0,10.1,0,15.1,0
			c0,1.9,0,3.7,0,5.6c-6.9,0-13.8,0-20.7,0C337.4,50.3,337.4,39.8,337.4,29.2z M277.8,29.2c0,1.8,0,3.6,0,5.5c-4.6,0-9.1,0-13.7,0
			c0,2.4,0,4.8,0,7.2c4,0,8,0,12,0c0,1.9,0,3.7,0,5.6c-4,0-8,0-12,0c0,4.5,0,8.9,0,13.3c-1.9,0-3.8,0-5.7,0c0-10.5,0-21,0-31.5
			C258.6,29.2,276.6,29.1,277.8,29.2z M372.2,60.8c-1.9,0-3.8,0-5.7,0c0-8.7,0-17.3,0-26c-2.7,0-5.4,0-8.1,0c-0.1-0.3-0.1-4.9,0-5.5
			c7.4,0,14.7,0,22.1,0c0,1.8,0,3.6,0,5.5c-2.7,0-5.5,0-8.2,0C372.2,43.4,372.2,52.1,372.2,60.8z M395.1,60.8c-1.9,0-3.8,0-5.7,0
			c0-8.7,0-17.3,0-26c-2.7,0-5.5,0-8.1,0c-0.1-0.3-0.1-4.9,0-5.5c7.4,0,14.7,0,22.1,0c0,1.8,0,3.6,0,5.5c-2.7,0-5.5,0-8.2,0
			C395.1,43.4,395.1,52.1,395.1,60.8z M284.6,60.8c-1.9,0-3.8,0-5.7,0c0-10.5,0-21,0-31.5c1.9,0,3.7,0,5.7,0
			C284.6,39.7,284.6,50.2,284.6,60.8z"/>
		<path class="st25" d="M261.1,73.9c-0.7,0-1.3-0.1-2-0.3c-0.6-0.2-1.1-0.5-1.5-0.8l0.5-1c0.4,0.3,0.8,0.6,1.3,0.8
			c0.5,0.2,1.1,0.3,1.7,0.3c0.8,0,1.3-0.1,1.7-0.4c0.4-0.3,0.6-0.6,0.6-1c0-0.3-0.1-0.6-0.3-0.8c-0.2-0.2-0.4-0.3-0.7-0.4
			c-0.3-0.1-0.7-0.2-1.3-0.4c-0.7-0.2-1.2-0.3-1.7-0.5c-0.4-0.2-0.8-0.4-1.1-0.8c-0.3-0.3-0.4-0.8-0.4-1.4c0-0.5,0.1-0.9,0.4-1.3
			c0.3-0.4,0.7-0.7,1.2-1c0.5-0.2,1.2-0.4,1.9-0.4c0.5,0,1.1,0.1,1.6,0.2c0.5,0.1,1,0.4,1.3,0.6l-0.4,1c-0.4-0.2-0.8-0.4-1.2-0.6
			c-0.4-0.1-0.9-0.2-1.3-0.2c-0.7,0-1.3,0.1-1.7,0.4c-0.4,0.3-0.6,0.6-0.6,1c0,0.3,0.1,0.6,0.3,0.8c0.2,0.2,0.5,0.4,0.8,0.4
			c0.3,0.1,0.7,0.2,1.2,0.4c0.7,0.2,1.2,0.3,1.7,0.5c0.4,0.2,0.8,0.4,1.1,0.8c0.3,0.3,0.5,0.8,0.5,1.4c0,0.5-0.1,0.9-0.4,1.3
			c-0.3,0.4-0.7,0.7-1.2,0.9C262.5,73.8,261.9,73.9,261.1,73.9z M288,70.6v3.2h-1.3v-3.2l-3.6-6h1.4l2.9,4.8l2.9-4.8h1.3L288,70.6z
			 M313.6,73.9c-0.7,0-1.3-0.1-2-0.3c-0.6-0.2-1.1-0.5-1.5-0.8l0.5-1c0.4,0.3,0.8,0.6,1.3,0.8c0.5,0.2,1.1,0.3,1.7,0.3
			c0.8,0,1.3-0.1,1.7-0.4c0.4-0.3,0.6-0.6,0.6-1c0-0.3-0.1-0.6-0.3-0.8c-0.2-0.2-0.4-0.3-0.8-0.4c-0.3-0.1-0.7-0.2-1.3-0.4
			c-0.7-0.2-1.2-0.3-1.7-0.5c-0.4-0.2-0.8-0.4-1.1-0.8c-0.3-0.3-0.4-0.8-0.4-1.4c0-0.5,0.1-0.9,0.4-1.3c0.2-0.4,0.6-0.7,1.2-1
			c0.5-0.2,1.2-0.4,1.9-0.4c0.5,0,1.1,0.1,1.6,0.2c0.5,0.1,1,0.4,1.3,0.6l-0.4,1c-0.4-0.2-0.8-0.4-1.2-0.6c-0.4-0.1-0.9-0.2-1.3-0.2
			c-0.7,0-1.3,0.1-1.7,0.4c-0.4,0.3-0.6,0.6-0.6,1c0,0.3,0.1,0.6,0.3,0.8c0.2,0.2,0.5,0.4,0.8,0.4c0.3,0.1,0.7,0.2,1.3,0.4
			c0.7,0.2,1.2,0.3,1.7,0.5c0.4,0.2,0.8,0.4,1.1,0.8c0.3,0.3,0.5,0.8,0.5,1.4c0,0.5-0.1,0.9-0.4,1.3c-0.3,0.4-0.7,0.7-1.2,0.9
			C315,73.8,314.4,73.9,313.6,73.9z M338.8,65.8h-3.1v-1.1h7.6v1.1h-3.1v8h-1.3V65.8z M369.5,72.7v1.1h-6.6v-9.2h6.5v1.1h-5.2v2.8
			h4.6v1.1h-4.6v2.9H369.5z M398.2,73.8l0-6.7l-3.3,5.6h-0.6l-3.3-5.5v6.6h-1.2v-9.2h1.1l3.8,6.4l3.8-6.4h1.1l0,9.2H398.2z
			 M423.1,73.9c-0.7,0-1.4-0.1-2-0.3c-0.6-0.2-1.1-0.5-1.5-0.8l0.5-1c0.4,0.3,0.8,0.6,1.3,0.8c0.6,0.2,1.1,0.3,1.7,0.3
			c0.7,0,1.3-0.1,1.7-0.4c0.4-0.3,0.6-0.6,0.6-1c0-0.3-0.1-0.6-0.3-0.8c-0.2-0.2-0.5-0.3-0.8-0.4c-0.3-0.1-0.7-0.2-1.3-0.4
			c-0.7-0.2-1.2-0.3-1.7-0.5c-0.4-0.2-0.8-0.4-1.1-0.8c-0.3-0.3-0.4-0.8-0.4-1.4c0-0.5,0.1-0.9,0.4-1.3c0.3-0.4,0.7-0.7,1.2-1
			c0.5-0.2,1.2-0.4,1.9-0.4c0.5,0,1.1,0.1,1.6,0.2c0.5,0.1,1,0.4,1.3,0.6l-0.4,1c-0.4-0.2-0.8-0.4-1.2-0.6c-0.4-0.1-0.9-0.2-1.3-0.2
			c-0.7,0-1.3,0.1-1.7,0.4c-0.4,0.3-0.6,0.6-0.6,1c0,0.3,0.1,0.6,0.3,0.8c0.2,0.2,0.5,0.4,0.8,0.4c0.3,0.1,0.7,0.2,1.2,0.4
			c0.7,0.2,1.2,0.3,1.7,0.5c0.4,0.2,0.8,0.4,1.1,0.8c0.3,0.3,0.4,0.8,0.4,1.4c0,0.5-0.1,0.9-0.4,1.3c-0.3,0.4-0.7,0.7-1.2,0.9
			C424.5,73.8,423.8,73.9,423.1,73.9z"/>
		<path class="st7" d="M223.1,27.9h6.8h22.3l-5.8,8.1h-16.3v10.2h8.6v8.1h-8.6v19.2h-7.1V36V27.9z M214.6,27.9h-22.3l5.8,8.1h16.3
			v10.2h-8.6v8.1h8.6v12l7.1,7.2V36v-8.1H214.6z"/>
	</g>
</g>
<g id="Layer_7" class="st0">
	
		<image style="display:inline;overflow:visible;" width="3510" height="1032" xlink:href="../logos,svg/FIORETTO-MEDIA-LOGO.png"  transform="matrix(4.859091e-02 0 0 4.859091e-02 291.8361 28.1697)">
	</image>
</g>
</svg>
