<?xml version="1.0" encoding="utf-8"?>
<!-- Generator: Adobe Illustrator 23.0.1, SVG Export Plug-In . SVG Version: 6.00 Build 0)  -->
<svg version="1.1" xmlns="http://www.w3.org/2000/svg" xmlns:xlink="http://www.w3.org/1999/xlink" x="0px" y="0px"
	 viewBox="0 0 237.1 104.8" style="enable-background:new 0 0 237.1 104.8;" xml:space="preserve">
<style type="text/css">
	.st0{display:none;}
	.st1{display:inline;}
	.st2{fill:#2C2C2C;}
	.st3{fill:#194695;}
	.st4{fill:none;}
	.st5{fill:#2E3035;}
	.st6{fill:#313438;}
	.st7{fill-rule:evenodd;clip-rule:evenodd;fill:#184297;}
	.st8{fill:#422A15;}
	.st9{fill:#432A16;}
	.st10{fill:#432B17;}
	.st11{fill:#442C17;}
	.st12{fill:#CB9B26;}
	.st13{fill:#CB9B27;}
	.st14{fill:#CA9921;}
	.st15{fill:#CB9A24;}
	.st16{fill:#C9971D;}
	.st17{fill:#CB9A23;}
	.st18{fill:#CA9A22;}
	.st19{fill:#CA9922;}
	.st20{fill:#C9971C;}
	.st21{fill:#412814;}
	.st22{fill:url(#SVGID_1_);}
	.st23{fill:#184297;}
	.st24{fill:#00ADEF;}
	.st25{fill-rule:evenodd;clip-rule:evenodd;}
</style>
<g id="Layer_1" class="st0">
	<g id="Layer_x0020_1" class="st1">
		<g id="_339944352">
			<g>
				<path class="st2" d="M-180.9,75.8c0-4.9-4-8.9-8.9-8.9s-8.9,4-8.9,8.9c0,4.9,4,8.9,8.9,8.9S-180.9,80.7-180.9,75.8z"/>
				<path class="st2" d="M-180.9,29c0-4.9-4-8.9-8.9-8.9s-8.9,4-8.9,8.9s4,8.9,8.9,8.9S-180.9,33.9-180.9,29z"/>
				<path class="st2" d="M-134.1,29c0-4.9-4-8.9-8.9-8.9c-4.9,0-8.9,4-8.9,8.9s4,8.9,8.9,8.9C-138.1,37.8-134.1,33.9-134.1,29z"/>
				<path class="st2" d="M-134.1,75.8c0-4.9-4-8.9-8.9-8.9c-4.9,0-8.9,4-8.9,8.9c0,4.9,4,8.9,8.9,8.9
					C-138.1,84.7-134.1,80.7-134.1,75.8z"/>
				<path class="st3" d="M-189.8,46.8c-16,0-29,13-29,29h11.1c0-9.9,8-17.9,17.9-17.9c7.1,0,13.2,4.2,16.1,10.1l5.1-11.9
					C-173.8,50.4-181.4,46.8-189.8,46.8z"/>
				<path class="st2" d="M-218.8,29c0,16,13,28.9,29,28.9c16,0,28.9-13,28.9-28.9c0-16-13-29-28.9-29v11.1c9.9,0,17.9,8,17.9,17.9
					c0,9.9-8,17.9-17.9,17.9c-9.9,0-17.9-8-17.9-17.9H-218.8z"/>
				<path class="st3" d="M-125.1,29c0,9.9-8,17.9-17.9,17.9c-9.9,0-17.9-8-17.9-17.9c0-9.9,8-17.9,17.9-17.9V0
					c-16,0-28.9,13-28.9,29c0,16,13,28.9,28.9,28.9c16,0,29-13,29-28.9H-125.1z"/>
				<path class="st2" d="M-114,75.8c0-16-13-29-29-29c-16,0-28.9,13-28.9,29s13,29,28.9,29V93.7c-9.9,0-17.9-8-17.9-17.9
					c0-9.9,8-17.9,17.9-17.9c9.9,0,17.9,8,17.9,17.9H-114z"/>
				<path class="st3" d="M-168.6,56.1l-5.1,11.9c1.1,2.4,1.7,5,1.7,7.7c0,9.9-8,17.9-17.9,17.9v11.1c16,0,28.9-13,28.9-29
					C-160.9,68.2-163.8,61.3-168.6,56.1z"/>
				<path class="st3" d="M-166.8,58.2l-6.3,11.1c-0.2-0.4-0.3-0.9-0.5-1.3c-1.5-3-3.8-5.6-6.6-7.4l7.9-7.9c1.4,1,2.6,2.2,3.8,3.4
					C-167.9,56.8-167.4,57.5-166.8,58.2z"/>
				<g>
					<line class="st4" x1="-172.3" y1="52.7" x2="-180.3" y2="60.7"/>
				</g>
				<g>
					<line class="st4" x1="-166.8" y1="58.2" x2="-173.1" y2="69.3"/>
				</g>
			</g>
			<g>
				<path class="st2" d="M-71.3,48c1.2,1.5,1.8,3.2,1.8,5.1c0,2.8-1,5-2.8,6.6c-1.9,1.6-4.6,2.4-8.1,2.4h-15.4V29h15.1
					c3.4,0,6,0.7,7.8,2.2c1.8,1.4,2.7,3.5,2.7,6.3c0,2-0.5,3.7-1.6,5c-1.1,1.3-2.5,2.2-4.2,2.6C-74.1,45.6-72.5,46.5-71.3,48z
					 M-87.9,42.6L-87.9,42.6h5.2c2.8,0,4.2-1.2,4.2-3.6c0-2.4-1.4-3.6-4.3-3.6h-5.1V42.6z M-77.8,52L-77.8,52c0-1.2-0.4-2.1-1.2-2.8
					c-0.8-0.7-1.9-1-3.3-1h-5.7v7.5h5.7C-79.2,55.6-77.8,54.4-77.8,52z"/>
				<polygon class="st2" points="-51.7,29 -51.7,62.2 -59.7,62.2 -59.7,29 				"/>
				<path class="st2" d="M-23.5,62.2l-7.2-12.5h-1.8v12.5h-8V29h13.7c2.6,0,4.8,0.5,6.7,1.4c1.8,0.9,3.1,2.2,4.1,3.7
					c0.9,1.6,1.4,3.4,1.4,5.4c0,2.4-0.7,4.5-2,6.2c-1.3,1.7-3.3,2.8-5.8,3.5l7.9,13H-23.5z M-32.5,44.2L-32.5,44.2h5
					c1.6,0,2.8-0.4,3.5-1c0.8-0.7,1.1-1.8,1.1-3.1c0-1.3-0.4-2.4-1.2-3.1c-0.8-0.8-1.9-1.1-3.5-1.1h-5V44.2z"/>
				<polygon class="st2" points="2.9,35.4 2.9,42.3 14.1,42.3 14.1,48.4 2.9,48.4 2.9,55.7 15.5,55.7 15.5,62.2 -5.1,62.2 -5.1,29 
					15.5,29 15.5,35.4 				"/>
				<polygon class="st2" points="62.9,29.3 62.9,62.2 54.9,62.2 54.9,41.6 47.8,62.2 40.9,62.2 33.7,41.5 33.7,62.2 25.7,62.2 
					25.7,29.3 35.5,29.3 44.4,52.2 53.2,29.3 				"/>
				<path class="st2" d="M94.6,56.1H82.2l-2.1,6.1h-8.4l12.1-32.9h9.2l12.1,32.9h-8.5L94.6,56.1z M92.6,50L92.6,50l-4.1-12.2
					L84.3,50H92.6z"/>
			</g>
			<g>
				<g>
					<path class="st3" d="M-91.8,73c0.3,0.3,0.4,0.6,0.4,1c0,0.5-0.2,0.9-0.5,1.2c-0.4,0.3-0.9,0.5-1.6,0.5h-2.4v-6.4h2.4
						c0.6,0,1.1,0.2,1.5,0.5c0.3,0.3,0.5,0.7,0.5,1.2c0,0.4-0.1,0.7-0.3,1c-0.2,0.3-0.5,0.4-0.9,0.5C-92.4,72.6-92.1,72.7-91.8,73z
						 M-95.1,72.2L-95.1,72.2h1.4c0.4,0,0.7-0.1,0.9-0.3c0.2-0.2,0.3-0.5,0.3-0.8c0-0.3-0.1-0.6-0.3-0.8c-0.2-0.2-0.5-0.3-1-0.3
						h-1.4V72.2z M-92.7,74.8L-92.7,74.8c0.3-0.2,0.4-0.5,0.4-0.9c0-0.3-0.1-0.6-0.4-0.9c-0.3-0.2-0.6-0.3-1-0.3h-1.4v2.3h1.4
						C-93.3,75.1-92.9,75-92.7,74.8z"/>
					<polygon class="st3" points="-88.5,69.4 -88.5,75.8 -89.3,75.8 -89.3,69.4 					"/>
					<path class="st3" d="M-81.5,69.7c0.5,0.3,0.9,0.7,1.1,1.2c0.3,0.5,0.4,1,0.4,1.7c0,0.6-0.1,1.2-0.4,1.7
						c-0.3,0.5-0.7,0.9-1.1,1.2c-0.5,0.3-1,0.4-1.6,0.4c-0.6,0-1.1-0.1-1.6-0.4c-0.5-0.3-0.9-0.7-1.1-1.2c-0.3-0.5-0.4-1.1-0.4-1.7
						c0-0.7,0.1-1.2,0.4-1.7c0.3-0.5,0.7-0.9,1.1-1.2c0.5-0.3,1-0.4,1.6-0.4C-82.5,69.3-82,69.4-81.5,69.7z M-84.3,70.4L-84.3,70.4
						c-0.3,0.2-0.6,0.5-0.8,0.9c-0.2,0.4-0.3,0.8-0.3,1.3c0,0.5,0.1,0.9,0.3,1.3c0.2,0.4,0.5,0.7,0.8,0.9c0.4,0.2,0.8,0.3,1.2,0.3
						c0.5,0,0.8-0.1,1.2-0.3c0.3-0.2,0.6-0.5,0.8-0.9c0.2-0.4,0.3-0.8,0.3-1.3c0-0.5-0.1-1-0.3-1.3c-0.2-0.4-0.5-0.7-0.8-0.9
						c-0.4-0.2-0.7-0.3-1.2-0.3C-83.6,70.1-84,70.2-84.3,70.4z"/>
					<polygon class="st3" points="-77,75.1 -74.7,75.1 -74.7,75.8 -77.8,75.8 -77.8,69.4 -77,69.4 					"/>
					<path class="st3" d="M-68.2,69.7c0.5,0.3,0.9,0.7,1.1,1.2c0.3,0.5,0.4,1,0.4,1.7c0,0.6-0.1,1.2-0.4,1.7
						c-0.3,0.5-0.7,0.9-1.1,1.2c-0.5,0.3-1,0.4-1.6,0.4s-1.1-0.1-1.6-0.4c-0.5-0.3-0.9-0.7-1.1-1.2c-0.3-0.5-0.4-1.1-0.4-1.7
						c0-0.7,0.1-1.2,0.4-1.7c0.3-0.5,0.7-0.9,1.1-1.2c0.5-0.3,1-0.4,1.6-0.4S-68.7,69.4-68.2,69.7z M-71,70.4L-71,70.4
						c-0.3,0.2-0.6,0.5-0.8,0.9c-0.2,0.4-0.3,0.8-0.3,1.3c0,0.5,0.1,0.9,0.3,1.3c0.2,0.4,0.5,0.7,0.8,0.9c0.3,0.2,0.7,0.3,1.2,0.3
						s0.8-0.1,1.2-0.3c0.3-0.2,0.6-0.5,0.8-0.9c0.2-0.4,0.3-0.8,0.3-1.3c0-0.5-0.1-1-0.3-1.3c-0.2-0.4-0.5-0.7-0.8-0.9
						c-0.4-0.2-0.7-0.3-1.2-0.3S-70.6,70.2-71,70.4z"/>
					<path class="st3" d="M-59.6,69.9c0.5,0.4,0.9,0.9,1,1.5h-0.9c-0.2-0.4-0.4-0.7-0.8-0.9c-0.4-0.2-0.8-0.3-1.3-0.3
						c-0.4,0-0.8,0.1-1.2,0.3c-0.3,0.2-0.6,0.5-0.8,0.9c-0.2,0.4-0.3,0.8-0.3,1.3c0,0.5,0.1,1,0.3,1.4c0.2,0.4,0.5,0.7,0.9,0.9
						c0.3,0.2,0.8,0.3,1.2,0.3c0.4,0,0.8-0.1,1.1-0.3c0.3-0.2,0.6-0.4,0.8-0.7c0.2-0.3,0.3-0.7,0.4-1.1h-2.5v-0.6h3.2v0.8
						c-0.1,0.5-0.2,1-0.5,1.4c-0.3,0.4-0.6,0.7-1,1c-0.5,0.2-1,0.3-1.5,0.3c-0.6,0-1.2-0.1-1.6-0.4c-0.5-0.3-0.9-0.7-1.1-1.2
						c-0.3-0.5-0.4-1.1-0.4-1.7c0-0.7,0.1-1.2,0.4-1.7c0.3-0.5,0.7-0.9,1.1-1.2c0.5-0.3,1-0.4,1.6-0.4
						C-60.8,69.3-60.1,69.5-59.6,69.9z"/>
					<polygon class="st3" points="-55.4,69.4 -55.4,75.8 -56.2,75.8 -56.2,69.4 					"/>
					<path class="st3" d="M-48.2,69.9c0.5,0.4,0.9,0.9,1.1,1.6H-48c-0.2-0.4-0.4-0.8-0.8-1c-0.4-0.3-0.8-0.4-1.3-0.4
						c-0.4,0-0.8,0.1-1.1,0.3c-0.3,0.2-0.6,0.5-0.8,0.9c-0.2,0.4-0.3,0.8-0.3,1.3c0,0.5,0.1,0.9,0.3,1.3c0.2,0.4,0.5,0.7,0.8,0.9
						c0.3,0.2,0.7,0.3,1.1,0.3c0.5,0,1-0.1,1.3-0.4c0.4-0.3,0.6-0.6,0.8-1h0.9c-0.2,0.7-0.6,1.2-1.1,1.6c-0.5,0.4-1.1,0.6-1.9,0.6
						c-0.6,0-1.1-0.1-1.6-0.4c-0.5-0.3-0.8-0.7-1.1-1.1c-0.3-0.5-0.4-1.1-0.4-1.7c0-0.7,0.1-1.2,0.4-1.7c0.3-0.5,0.6-0.9,1.1-1.2
						c0.5-0.3,1-0.4,1.6-0.4C-49.4,69.3-48.7,69.5-48.2,69.9z"/>
					<path class="st3" d="M-41.2,74.3H-44l-0.5,1.5h-0.9l2.4-6.3h0.9l2.4,6.3h-0.9L-41.2,74.3z M-41.4,73.7L-41.4,73.7l-1.2-3.3
						l-1.2,3.3H-41.4z"/>
					<polygon class="st3" points="-37,75.1 -34.7,75.1 -34.7,75.8 -37.8,75.8 -37.8,69.4 -37,69.4 					"/>
				</g>
				<g>
					<path class="st3" d="M-25.5,75.8l-1.7-2.6h-0.9v2.6h-0.8v-6.4h2.1c0.7,0,1.3,0.2,1.6,0.5c0.4,0.3,0.5,0.8,0.5,1.4
						c0,0.5-0.1,0.9-0.4,1.3c-0.3,0.3-0.7,0.5-1.3,0.6l1.8,2.6H-25.5z M-28.1,72.6L-28.1,72.6h1.2c0.9,0,1.4-0.4,1.4-1.2
						c0-0.9-0.5-1.2-1.4-1.2h-1.2V72.6z"/>
					<polygon class="st3" points="-21.7,70 -21.7,72.3 -19.3,72.3 -19.3,72.9 -21.7,72.9 -21.7,75.1 -19,75.1 -19,75.8 -22.5,75.8 
						-22.5,69.4 -19,69.4 -19,70 					"/>
					<path class="st3" d="M-13,75c-0.2,0.3-0.4,0.5-0.7,0.7c-0.3,0.1-0.7,0.2-1.1,0.2c-0.4,0-0.8-0.1-1.1-0.2
						c-0.3-0.1-0.6-0.4-0.8-0.6c-0.2-0.3-0.3-0.6-0.3-0.9h0.9c0,0.2,0.1,0.4,0.2,0.5s0.3,0.3,0.5,0.4c0.2,0.1,0.4,0.2,0.7,0.2
						c0.4,0,0.7-0.1,0.9-0.3c0.2-0.2,0.3-0.5,0.3-0.8c0-0.3-0.1-0.5-0.2-0.6c-0.1-0.2-0.3-0.3-0.5-0.4c-0.2-0.1-0.5-0.2-0.8-0.3
						c-0.4-0.1-0.7-0.3-1-0.4c-0.3-0.1-0.5-0.3-0.7-0.5C-17,71.7-17,71.4-17,71c0-0.3,0.1-0.6,0.3-0.9c0.1-0.3,0.4-0.5,0.7-0.6
						c0.3-0.1,0.7-0.2,1.1-0.2c0.6,0,1.1,0.1,1.5,0.5c0.4,0.3,0.6,0.7,0.7,1.2h-0.9c-0.1-0.3-0.2-0.5-0.4-0.7
						C-14.4,70-14.7,70-15,70c-0.3,0-0.6,0.1-0.8,0.3c-0.2,0.2-0.3,0.4-0.3,0.7c0,0.3,0.1,0.5,0.2,0.6c0.1,0.2,0.3,0.3,0.5,0.4
						c0.2,0.1,0.5,0.2,0.8,0.3c0.4,0.1,0.7,0.3,1,0.4c0.3,0.1,0.5,0.3,0.7,0.6c0.2,0.2,0.3,0.6,0.3,1C-12.8,74.4-12.8,74.7-13,75z"
						/>
					<path class="st3" d="M-6,69.7c0.5,0.3,0.9,0.7,1.1,1.2c0.3,0.5,0.4,1,0.4,1.7c0,0.6-0.1,1.2-0.4,1.7c-0.3,0.5-0.6,0.9-1.1,1.2
						s-1,0.4-1.6,0.4s-1.1-0.1-1.6-0.4s-0.9-0.7-1.1-1.2c-0.3-0.5-0.4-1.1-0.4-1.7c0-0.7,0.1-1.2,0.4-1.7c0.3-0.5,0.7-0.9,1.1-1.2
						c0.5-0.3,1-0.4,1.6-0.4S-6.5,69.4-6,69.7z M-8.8,70.4L-8.8,70.4c-0.3,0.2-0.6,0.5-0.8,0.9c-0.2,0.4-0.3,0.8-0.3,1.3
						c0,0.5,0.1,0.9,0.3,1.3c0.2,0.4,0.5,0.7,0.8,0.9c0.3,0.2,0.7,0.3,1.2,0.3c0.4,0,0.8-0.1,1.2-0.3c0.3-0.2,0.6-0.5,0.8-0.9
						c0.2-0.4,0.3-0.8,0.3-1.3c0-0.5-0.1-1-0.3-1.3c-0.2-0.4-0.5-0.7-0.8-0.9c-0.4-0.2-0.8-0.3-1.2-0.3C-8.1,70.1-8.5,70.2-8.8,70.4
						z"/>
					<path class="st3" d="M-1.4,69.4v3.9c0,0.7,0.1,1.1,0.4,1.4c0.3,0.3,0.7,0.5,1.2,0.5s0.9-0.2,1.1-0.5c0.3-0.3,0.4-0.8,0.4-1.4
						v-3.9h0.8v3.9c0,0.9-0.2,1.6-0.7,2c-0.4,0.5-1,0.7-1.7,0.7c-0.7,0-1.3-0.2-1.8-0.7c-0.4-0.4-0.7-1.1-0.7-2v-3.9H-1.4z"/>
					<path class="st3" d="M8.3,75.8l-1.7-2.6H5.7v2.6H4.9v-6.4H7c0.7,0,1.3,0.2,1.6,0.5c0.3,0.3,0.5,0.8,0.5,1.4
						c0,0.5-0.1,0.9-0.5,1.3c-0.3,0.3-0.7,0.5-1.2,0.6l1.7,2.6H8.3z M5.7,72.6L5.7,72.6h1.2c0.9,0,1.4-0.4,1.4-1.2
						c0-0.9-0.5-1.2-1.4-1.2H5.7V72.6z"/>
					<path class="st3" d="M16.1,69.9c0.5,0.4,0.9,0.9,1,1.6h-0.9c-0.1-0.4-0.4-0.8-0.8-1c-0.4-0.3-0.8-0.4-1.3-0.4
						c-0.4,0-0.8,0.1-1.1,0.3c-0.3,0.2-0.6,0.5-0.8,0.9c-0.2,0.4-0.3,0.8-0.3,1.3c0,0.5,0.1,0.9,0.3,1.3c0.2,0.4,0.5,0.7,0.8,0.9
						c0.3,0.2,0.7,0.3,1.1,0.3c0.5,0,1-0.1,1.3-0.4c0.4-0.3,0.7-0.6,0.8-1h0.9c-0.2,0.7-0.5,1.2-1,1.6c-0.5,0.4-1.2,0.6-2,0.6
						c-0.6,0-1.1-0.1-1.6-0.4c-0.5-0.3-0.8-0.7-1.1-1.1c-0.3-0.5-0.4-1.1-0.4-1.7c0-0.7,0.1-1.2,0.4-1.7c0.3-0.5,0.6-0.9,1.1-1.2
						s1-0.4,1.6-0.4C14.9,69.3,15.6,69.5,16.1,69.9z"/>
					<polygon class="st3" points="20.1,70 20.1,72.3 22.6,72.3 22.6,72.9 20.1,72.9 20.1,75.1 22.9,75.1 22.9,75.8 19.3,75.8 
						19.3,69.4 22.9,69.4 22.9,70 					"/>
					<path class="st3" d="M28.9,75c-0.1,0.3-0.4,0.5-0.7,0.7c-0.3,0.1-0.7,0.2-1.1,0.2c-0.4,0-0.8-0.1-1.1-0.2
						c-0.3-0.1-0.6-0.4-0.8-0.6c-0.2-0.3-0.3-0.6-0.4-0.9h0.9c0,0.2,0.1,0.4,0.2,0.5s0.3,0.3,0.5,0.4c0.2,0.1,0.5,0.2,0.7,0.2
						c0.3,0,0.6-0.1,0.8-0.3c0.2-0.2,0.3-0.5,0.3-0.8c0-0.3-0.1-0.5-0.2-0.6s-0.3-0.3-0.5-0.4c-0.2-0.1-0.5-0.2-0.8-0.3
						c-0.4-0.1-0.7-0.3-1-0.4c-0.3-0.1-0.5-0.3-0.6-0.5c-0.2-0.2-0.3-0.5-0.3-0.9c0-0.3,0.1-0.6,0.2-0.9c0.2-0.3,0.4-0.5,0.7-0.6
						c0.3-0.1,0.7-0.2,1.1-0.2c0.6,0,1.1,0.1,1.5,0.5s0.6,0.7,0.7,1.2h-0.9c0-0.3-0.2-0.5-0.4-0.7C27.5,70,27.2,70,26.8,70
						c-0.3,0-0.6,0.1-0.8,0.3c-0.2,0.2-0.3,0.4-0.3,0.7c0,0.3,0.1,0.5,0.2,0.6c0.1,0.2,0.3,0.3,0.5,0.4c0.2,0.1,0.5,0.2,0.8,0.3
						c0.4,0.1,0.8,0.3,1,0.4c0.3,0.1,0.5,0.3,0.6,0.6c0.2,0.2,0.3,0.6,0.3,1C29.1,74.4,29,74.7,28.9,75z"/>
				</g>
				<g>
					<polygon class="st3" points="41.3,69.5 41.3,75.8 40.5,75.8 40.5,70.7 38.5,75.8 37.7,75.8 35.7,70.8 35.7,75.8 34.9,75.8 
						34.9,69.5 35.9,69.5 38.1,74.8 40.3,69.5 					"/>
					<path class="st3" d="M47.5,74.3h-2.8l-0.5,1.5h-0.9l2.4-6.3h0.9l2.4,6.3H48L47.5,74.3z M47.3,73.7L47.3,73.7l-1.2-3.3l-1.2,3.3
						H47.3z"/>
					<polygon class="st3" points="55.9,75.8 55,75.8 51.7,70.7 51.7,75.8 50.9,75.8 50.9,69.4 51.7,69.4 55,74.5 55,69.4 55.9,69.4 
											"/>
					<path class="st3" d="M62,74.3h-2.8l-0.5,1.5h-0.9l2.4-6.3h0.9l2.4,6.3h-0.9L62,74.3z M61.8,73.7L61.8,73.7l-1.2-3.3l-1.2,3.3
						H61.8z"/>
					<path class="st3" d="M70.2,69.9c0.5,0.4,0.9,0.9,1,1.5h-0.9c-0.1-0.4-0.4-0.7-0.8-0.9c-0.3-0.2-0.8-0.3-1.2-0.3
						c-0.4,0-0.8,0.1-1.2,0.3c-0.3,0.2-0.6,0.5-0.8,0.9c-0.2,0.4-0.3,0.8-0.3,1.3c0,0.5,0.1,1,0.3,1.4c0.2,0.4,0.5,0.7,0.8,0.9
						c0.4,0.2,0.8,0.3,1.2,0.3c0.4,0,0.7-0.1,1.1-0.3c0.3-0.2,0.6-0.4,0.8-0.7c0.2-0.3,0.3-0.7,0.4-1.1h-2.5v-0.6h3.2v0.8
						c-0.1,0.5-0.2,1-0.5,1.4c-0.3,0.4-0.6,0.7-1.1,1c-0.4,0.2-0.9,0.3-1.5,0.3c-0.6,0-1.2-0.1-1.6-0.4c-0.5-0.3-0.9-0.7-1.1-1.2
						c-0.3-0.5-0.4-1.1-0.4-1.7c0-0.7,0.1-1.2,0.4-1.7c0.3-0.5,0.6-0.9,1.1-1.2c0.5-0.3,1-0.4,1.6-0.4
						C69.1,69.3,69.7,69.5,70.2,69.9z"/>
					<polygon class="st3" points="74.4,70 74.4,72.3 76.9,72.3 76.9,72.9 74.4,72.9 74.4,75.1 77.2,75.1 77.2,75.8 73.6,75.8 
						73.6,69.4 77.2,69.4 77.2,70 					"/>
					<polygon class="st3" points="85.7,69.5 85.7,75.8 84.9,75.8 84.9,70.7 82.9,75.8 82.1,75.8 80.1,70.8 80.1,75.8 79.3,75.8 
						79.3,69.5 80.3,69.5 82.5,74.8 84.7,69.5 					"/>
					<polygon class="st3" points="89,70 89,72.3 91.4,72.3 91.4,72.9 89,72.9 89,75.1 91.7,75.1 91.7,75.8 88.1,75.8 88.1,69.4 
						91.7,69.4 91.7,70 					"/>
					<polygon class="st3" points="98.9,75.8 98,75.8 94.7,70.7 94.7,75.8 93.8,75.8 93.8,69.4 94.7,69.4 98,74.5 98,69.4 98.9,69.4 
											"/>
					<polygon class="st3" points="105.2,69.4 105.2,70 103.4,70 103.4,75.8 102.6,75.8 102.6,70 100.8,70 100.8,69.4 					"/>
				</g>
			</g>
			<g>
				<path class="st2" d="M103.1,21.1c0.7,0.4,1.2,0.9,1.5,1.5c0.4,0.7,0.5,1.4,0.5,2.2c0,0.8-0.2,1.5-0.5,2.2
					c-0.4,0.6-0.9,1.1-1.5,1.5c-0.7,0.3-1.4,0.5-2.2,0.5c-0.8,0-1.6-0.2-2.2-0.5c-0.7-0.4-1.2-0.9-1.5-1.5c-0.3-0.7-0.5-1.4-0.5-2.2
					c0-0.8,0.2-1.6,0.5-2.2c0.4-0.6,0.9-1.1,1.5-1.5c0.7-0.4,1.4-0.5,2.2-0.5C101.7,20.5,102.5,20.7,103.1,21.1z M102.8,27.9
					L102.8,27.9c0.6-0.3,1-0.7,1.3-1.2c0.3-0.5,0.5-1.2,0.5-1.9c0-0.7-0.1-1.4-0.5-1.9c-0.3-0.5-0.7-1-1.2-1.2
					c-0.6-0.3-1.2-0.5-2-0.5c-0.7,0-1.4,0.1-1.9,0.5c-0.6,0.3-1,0.7-1.3,1.2c-0.3,0.5-0.4,1.2-0.4,1.9c0,0.7,0.1,1.3,0.4,1.9
					c0.3,0.5,0.7,1,1.3,1.2c0.5,0.3,1.2,0.5,1.9,0.5C101.6,28.3,102.3,28.2,102.8,27.9z M102.7,24.6L102.7,24.6
					c-0.2,0.3-0.5,0.4-0.9,0.5l1.2,2h-1.4l-1.1-2h-0.2v2h-1.2v-5h2c0.6,0,1.1,0.1,1.4,0.5c0.3,0.3,0.5,0.7,0.5,1.1
					C103,24,102.9,24.3,102.7,24.6z M100.4,24.4L100.4,24.4h0.7c0.5,0,0.7-0.2,0.7-0.6c0-0.4-0.2-0.6-0.7-0.6h-0.7V24.4z"/>
			</g>
		</g>
	</g>
</g>
<g id="Layer_2" class="st0">
	
		<image style="display:inline;overflow:visible;" width="8192" height="912" xlink:href="../logos,svg/Check_n_Track-Blue-and-Green.png"  transform="matrix(4.849685e-02 0 0 4.671475e-02 -212.1237 18.7059)">
	</image>
</g>
<g id="Layer_3" class="st0">
	<g id="Layer_x0020_1_1_" class="st1">
		<g id="_568370712">
			<path class="st5" d="M57.8,49.5c-2,0-3.9,0-5.9,0c0-1.7,0-3.5,0-5.2c3.7,0,7.4,0,11.1,0c0,5.6,0,11.2,0,16.8
				c-0.3,0.1-3.6,0.1-4.6,0c0-0.5-0.1-1-0.1-1.5c0-0.5-0.1-1-0.1-1.5c-0.1,0.1-0.1,0.1-0.1,0.1c-0.8,1.6-2.1,2.6-3.8,3.2
				c-2.8,1-5.5,1.1-8.3-0.2c-1.7-0.8-3.1-2.1-4.3-3.7c-1.5-1.9-2.4-4.2-3-6.5c-0.7-2.6-0.8-5.3-0.6-8c0.2-2.4,0.7-4.7,1.7-6.9
				c0.9-2,2.1-3.7,3.9-5c1.8-1.4,3.8-2.2,6.1-2.4c1.9-0.2,3.9,0,5.7,0.7c3.9,1.5,6.3,4.4,7.1,8.5c0.1,0.5,0.1,1,0.2,1.5
				c-1.9,0-3.7,0-5.6,0c0-0.1-0.1-0.3-0.1-0.5c-0.6-2.5-2.1-4-4.6-4.6c-2.4-0.6-4.4,0.1-6,1.9c-1.1,1.2-1.8,2.7-2.2,4.3
				c-0.6,2.3-0.7,4.6-0.5,7c0.1,1.6,0.5,3.2,1.2,4.7c0.5,1.1,1.1,2,2,2.9c2.2,2.2,5.7,2.2,7.9,0.4c1.5-1.2,2.4-2.7,2.7-4.6
				c0.1-0.3,0.1-0.7,0.1-1C57.9,49.7,57.8,49.6,57.8,49.5z"/>
			<path class="st5" d="M-87,45.9c0,2.2-0.2,4.4-0.7,6.6c-0.3,1.4-0.8,2.7-1.5,3.9c-1.5,2.8-3.8,4.6-6.9,5.3c-2.5,0.6-5,0.6-7.5-0.1
				c-2.8-0.8-5-2.5-6.5-5c-1-1.6-1.6-3.4-2-5.2c-0.5-2.5-0.6-5-0.5-7.5c0.1-2.1,0.4-4.1,1-6.2c0.6-1.9,1.5-3.7,2.8-5.3
				c1.7-2,3.9-3.2,6.4-3.6c2.1-0.4,4.1-0.3,6.2,0.3c2.8,0.8,5,2.5,6.4,5c1,1.7,1.6,3.5,2,5.3C-87.2,41.6-87,43.7-87,45.9z
				 M-92.5,45.7L-92.5,45.7c0-1.6-0.1-3.2-0.5-4.8c-0.3-1.3-0.8-2.6-1.5-3.7c-0.8-1.1-1.9-1.9-3.2-2.3c-0.8-0.3-1.7-0.3-2.5-0.3
				c-1.9,0.1-3.4,0.9-4.5,2.4c-0.4,0.6-0.8,1.1-1,1.7c-0.7,1.6-1,3.2-1.1,4.9c-0.1,1.8-0.1,3.5,0.1,5.3c0.1,1.3,0.4,2.5,0.9,3.7
				c0.8,1.7,1.9,3,3.7,3.7c0.6,0.2,1.2,0.3,1.9,0.4c2.2,0.1,4.1-0.6,5.5-2.3c0.8-1,1.3-2.1,1.7-3.3C-92.7,49.2-92.5,47.5-92.5,45.7z
				"/>
			<path class="st5" d="M116.4,45.4c0,2.8-0.2,5.1-0.8,7.3c-0.4,1.5-1,3-1.8,4.4c-1.5,2.3-3.5,3.8-6.2,4.5c-2.5,0.7-5.1,0.7-7.6,0.1
				c-3.2-0.8-5.5-2.7-7-5.6c-0.9-1.6-1.4-3.3-1.7-5.1c-0.5-2.7-0.6-5.4-0.3-8.1c0.2-2.3,0.6-4.4,1.4-6.6c0.7-1.7,1.7-3.3,3-4.6
				c1.7-1.7,3.8-2.7,6.2-3c1.9-0.3,3.7-0.2,5.5,0.3c3,0.8,5.3,2.6,6.8,5.3c1,1.7,1.6,3.6,2,5.5C116.2,41.9,116.4,43.9,116.4,45.4z
				 M110.9,45.7L110.9,45.7c0-1.6-0.1-3.3-0.5-4.9c-0.3-1.3-0.8-2.6-1.5-3.7c-0.8-1.2-1.9-2-3.2-2.4c-0.8-0.3-1.7-0.3-2.6-0.3
				c-1.9,0.1-3.4,0.9-4.5,2.4c-0.4,0.5-0.7,1.1-1,1.7c-0.7,1.5-1,3.2-1.1,4.8c-0.2,1.8-0.1,3.6,0.1,5.4c0.1,1.2,0.4,2.5,0.9,3.6
				c1.5,3.5,4.8,4.5,7.7,3.9c1.9-0.4,3.2-1.5,4.2-3.2c0.5-0.8,0.8-1.7,1-2.6C110.8,49,110.9,47.4,110.9,45.7z"/>
			<path class="st5" d="M27.1,45.9c0,2.3-0.2,4.5-0.7,6.7c-0.4,1.6-1,3.1-1.9,4.5c-1.5,2.3-3.6,3.8-6.2,4.5c-2.5,0.7-5,0.7-7.5,0.1
				c-3.1-0.8-5.4-2.6-6.9-5.3c-0.9-1.6-1.5-3.4-1.8-5.2c-0.5-2.6-0.6-5.3-0.4-7.9c0.1-2.1,0.5-4.1,1.2-6c0.5-1.6,1.2-3,2.3-4.3
				c1.9-2.4,4.3-3.7,7.3-4.1c2-0.3,4-0.2,5.9,0.4c2.6,0.8,4.5,2.4,5.9,4.6c1.1,1.7,1.8,3.5,2.2,5.5C27,41.5,27.1,43.7,27.1,45.9z
				 M21.6,45.7L21.6,45.7c0-1.7-0.1-3.4-0.5-5c-0.3-1.3-0.8-2.5-1.5-3.6c-0.8-1.1-1.9-1.9-3.2-2.3c-0.8-0.2-1.7-0.3-2.5-0.2
				c-1.8,0.1-3.3,0.8-4.4,2.3c-0.6,0.8-1.1,1.6-1.4,2.5c-0.5,1.4-0.8,2.8-0.9,4.2C7,45.7,7,47.9,7.4,50c0.2,1.2,0.6,2.3,1.2,3.3
				c0.8,1.3,1.9,2.3,3.3,2.8c0.6,0.2,1.2,0.3,1.9,0.4c2.3,0.1,4.2-0.6,5.7-2.4c0.8-1,1.3-2.1,1.6-3.3C21.5,49.1,21.6,47.4,21.6,45.7
				z"/>
			<path class="st5" d="M-67.6,46.1c0.3,0.1,0.6,0.3,0.9,0.4c1.1,0.7,1.8,1.7,2,2.9c0.2,0.8,0.2,1.6,0.2,2.4c0,3,0,6,0,9
				c0,0.1,0,0.1,0,0.2c-1.8,0-3.6,0-5.5,0c0-0.1,0-0.3,0-0.4c0-2.5,0-5,0-7.5c0-0.7,0-1.3-0.2-1.9c-0.3-1.3-1.1-2-2.4-2.2
				c-0.5-0.1-1-0.1-1.5-0.1c-1.9,0-3.9,0-5.8,0c-0.1,0-0.1,0-0.3,0c0,4.1,0,8.2,0,12.2c-1.8,0-3.6,0-5.4,0c-0.1-0.3-0.1-30.6,0-31.3
				c0.1,0,0.3,0,0.4,0c4.4,0,8.7,0,13.1,0c3.4,0,6.5,2,7.6,5.5c0.8,2.4,0.8,4.9-0.1,7.3c-0.6,1.4-1.5,2.6-2.8,3.3
				C-67.4,45.9-67.5,46-67.6,46.1C-67.6,46-67.6,46-67.6,46.1z M-80.1,35.2L-80.1,35.2c0,2.8,0,5.5,0,8.3c0.1,0,0.2,0,0.3,0
				c2.3,0,4.6,0,6.9,0c0.3,0,0.7,0,1-0.1c1.2-0.2,2-0.8,2.5-2c0.2-0.5,0.3-1,0.4-1.6c0.1-1.2-0.1-2.3-0.7-3.2
				c-0.3-0.6-0.9-1-1.5-1.2c-0.5-0.2-1.1-0.3-1.7-0.2c-2.3,0-4.6,0-6.8,0C-79.8,35.2-79.9,35.2-80.1,35.2z"/>
			<path class="st5" d="M73.6,48.8c0,4.1,0,8.2,0,12.2c-0.3,0.1-4.6,0.1-5.4,0c-0.1-0.3-0.1-30.5-0.1-31.3c0.1,0,0.3,0,0.4,0
				c4.4,0,8.7,0,13.1,0c3.5,0,6.6,2.1,7.7,5.6c0.8,2.4,0.8,4.9-0.2,7.3c-0.6,1.5-1.6,2.7-3.1,3.4c0,0-0.1,0.1-0.1,0.1
				c0.1,0.1,0.1,0.1,0.2,0.1c1.6,0.7,2.5,1.9,2.8,3.5c0.1,0.8,0.2,1.6,0.2,2.4c0,2.9,0,5.8,0,8.6c0,0.1,0,0.2,0,0.3
				c-1.8,0-3.6,0-5.5,0c0-0.1,0-0.3,0-0.4c0-2.5,0-5,0-7.4c0-0.7,0-1.3-0.2-2c-0.1-0.3-0.1-0.5-0.2-0.7c-0.3-0.7-0.8-1.1-1.4-1.4
				c-0.7-0.3-1.3-0.3-2-0.3c-2,0-4.1,0-6.1,0C73.7,48.8,73.6,48.8,73.6,48.8z M73.6,35.2L73.6,35.2c0,2.8,0,5.5,0,8.3
				c0.1,0,0.2,0,0.3,0c2.3,0,4.6,0,6.8,0c0.3,0,0.7,0,1-0.1c1.2-0.2,2-0.8,2.5-1.9c0.2-0.5,0.3-0.9,0.4-1.4c0.1-1,0-2.1-0.4-3
				c-0.5-1-1.2-1.6-2.4-1.8c-0.3-0.1-0.7-0.1-1.1-0.1c-2.3,0-4.5,0-6.8,0C73.8,35.2,73.7,35.2,73.6,35.2z"/>
			<path class="st5" d="M-62.5,29.8c6.5,0,13.1,0,19.6,0c0,1.8,0,3.6,0,5.4c-4.7,0-9.4,0-14.1,0c0,2.3,0,4.5,0,6.7
				c4.3,0,8.6,0,12.9,0c0.1,0.3,0.1,4.6,0.1,5.5c-4.3,0-8.6,0-13,0c-0.1,0.3-0.1,7.6,0,8.1c4.9,0,9.8,0,14.8,0c0,1.9,0,3.7,0,5.5
				c-6.7,0-13.5,0-20.2,0C-62.5,50.6-62.5,40.2-62.5,29.8z"/>
			<path class="st5" d="M117.9,29.8c1.9,0,3.8,0,5.7,0c0,0.1,0,0.3,0,0.5c0,6.7,0,13.3,0,20.1c0,1,0.1,2.1,0.4,3.1
				c0.2,0.6,0.4,1.1,0.8,1.5c0.7,1,1.7,1.6,3,1.8c0.8,0.1,1.6,0,2.4-0.2c1.6-0.4,2.6-1.4,3.2-3c0.3-0.8,0.4-1.7,0.4-2.7
				c0-0.3,0-0.5,0-0.8c0-6.6,0-13.3,0-19.9c0-0.1,0-0.3,0-0.5c1.9,0,3.8,0,5.7,0c0,0.1,0,0.2,0,0.3c0,7,0,14,0,20.9
				c0,1.6-0.2,3.1-0.7,4.6c-1,3.2-3.2,5.3-6.5,6.2c-1.7,0.5-3.4,0.6-5.2,0.4c-1.2-0.1-2.4-0.3-3.4-0.8c-2.8-1.1-4.5-3.2-5.2-6.1
				c-0.3-1.3-0.5-2.7-0.5-4.1c0-7.1,0-14.1,0-21.1C117.9,30,117.9,29.9,117.9,29.8z"/>
			<path class="st5" d="M146.9,49.7c0,3.8,0,7.6,0,11.4c-1.9,0-3.7,0-5.6,0c0-10.4,0-20.9,0-31.3c0.1,0,0.2,0,0.3,0
				c3.9,0,7.8,0,11.7,0c2.6,0,4.7,1.2,6.2,3.2c1,1.3,1.6,2.8,1.9,4.5c0.4,2.2,0.3,4.4-0.4,6.5c-0.7,2.1-2,3.8-4.1,4.9
				c-1.1,0.6-2.4,0.9-3.7,0.9c-2,0-3.9,0-5.9,0C147.2,49.7,147,49.7,146.9,49.7z M146.9,44.4L146.9,44.4c0.2,0,0.3,0,0.4,0
				c1.5,0,3,0,4.6,0c0.4,0,0.7,0,1.1,0c1.6-0.1,2.8-0.9,3.4-2.5c0.5-1.3,0.5-2.7,0.1-4c-0.4-1.4-1.4-2.3-2.8-2.6
				c-0.4-0.1-0.8-0.1-1.3-0.1c-1.7,0-3.4,0-5.1,0c-0.1,0-0.2,0-0.3,0C146.9,38.3,146.9,41.3,146.9,44.4z"/>
			<path class="st5" d="M-139.7,29.8c6.3,0,12.6,0,18.9,0c0,1.8,0,3.6,0,5.4c-1.5,0-3,0-4.4,0s-3,0-4.4,0c-1.5,0-3,0-4.5,0
				c0,2.4,0,4.7,0,7.1c3.9,0,7.8,0,11.7,0c0,1.8,0,3.7,0,5.5c-0.4,0-0.8,0-1.2,0c-0.4,0-0.9,0-1.3,0c-0.4,0-0.8,0-1.3,0
				c-0.4,0-0.9,0-1.3,0c-0.4,0-0.8,0-1.3,0c-0.4,0-0.9,0-1.3,0s-0.9,0-1.3,0s-0.9,0-1.3,0c-0.4,0-0.9,0-1.3,0c0,4.4,0,8.8,0,13.2
				c-1.9,0-3.7,0-5.5,0C-139.7,50.6-139.7,40.2-139.7,29.8z"/>
			<path class="st5" d="M-20.4,29.8c0,1.8,0,3.6,0,5.4c-2.7,0-5.3,0-8,0c0,8.6,0,17.3,0,25.9c-1.9,0-3.7,0-5.6,0
				c0-8.6,0-17.2,0-25.9c-2.7,0-5.3,0-8,0c0-1.8,0-3.6,0-5.5C-34.8,29.8-27.6,29.8-20.4,29.8z"/>
			<path class="st5" d="M-6.1,35.2c0,8.7,0,17.3,0,25.9c-1.9,0-3.7,0-5.6,0c-0.1-0.9,0-1.9,0-2.8c0-1,0-1.9,0-2.9c0-1,0-1.9,0-2.8
				s0-1.9,0-2.9c0-1,0-1.9,0-2.9c0-1,0-1.9,0-2.9c0-1,0-1.9,0-2.8s0-1.9,0-2.9s0-1.9,0-2.9c-2.7,0-5.3,0-8,0c0-1.8,0-3.6,0-5.5
				c7.2,0,14.4,0,21.6,0c0,1.8,0,3.6,0,5.4C-0.7,35.2-3.4,35.2-6.1,35.2z"/>
			<path class="st5" d="M-114.1,61.1c-1.9,0-3.7,0-5.5,0c-0.1-0.3-0.1-30.9,0-31.3c1.8,0,3.7,0,5.5,0
				C-114.1,40.2-114.1,50.6-114.1,61.1z"/>
			<path class="st6" d="M168.5,34.7c-4,0-7.2-3.2-7.2-7.3c0-4,3.2-7.2,7.2-7.2c4,0,7.3,3.2,7.3,7.3
				C175.8,31.5,172.5,34.7,168.5,34.7z M168.5,21.4L168.5,21.4c-3.4,0-6.1,2.7-6.1,6.1s2.7,6.1,6.1,6.1c3.4,0,6.1-2.7,6.1-6.1
				C174.6,24.1,171.9,21.4,168.5,21.4z"/>
			<path class="st6" d="M170.5,27.3c0.7,0.2,0.8,0.7,0.8,1.2c0,0.6,0,1.2,0,1.9c-0.5,0-0.9,0-1.4,0c0-0.2,0-0.3,0-0.6
				c0-0.4,0-0.8,0-1.2c0-0.6-0.2-0.8-0.8-0.8c-0.6,0-1.1,0-1.7,0c0,0.8,0,1.7,0,2.6c-0.5,0-0.9,0-1.3,0c0-2.2,0-4.4,0-6.6
				c0.1,0,0.2,0,0.3,0c1,0,2,0,3,0c0.3,0,0.5,0,0.8,0.1c1.2,0.3,1.6,1.7,1.2,2.6C171.1,26.9,170.9,27.1,170.5,27.3z M167.4,26.8
				L167.4,26.8c0.5,0,1,0,1.4,0c0.2,0,0.4,0,0.6,0c0.5-0.1,0.8-0.4,0.8-0.9c0-0.5-0.3-0.8-0.8-0.8c-0.1,0-0.2,0-0.3,0
				c-0.5,0-1,0-1.5,0c-0.1,0-0.2,0-0.3,0C167.4,25.6,167.4,26.2,167.4,26.8z"/>
			<path class="st7" d="M-169,28.5h5.3h17.3l-4.5,6.2h-12.6v7.9h6.6v6.3h-6.6v14.9h-5.5v-29V28.5z M-175.5,28.5h-17.3l4.5,6.2h12.6
				v7.9h-6.6v6.3h6.6v9.3l5.5,5.6v-29v-6.2H-175.5z"/>
		</g>
	</g>
</g>
<g id="Layer_4" class="st0">
	<g id="Layer_x0020_1_2_" class="st1">
		<g id="_340153784">
			<g>
				<path class="st8" d="M58,30.5c0-0.2,0-0.3,0-0.4c0.2,0,0.4,0,0.6,0c4.1,0,8.1,0,12.2,0c2,0,3.8,0.3,5.6,1.1
					c1.4,0.6,2.6,1.5,3.4,2.8c1.5,2.3,1.8,4.8,0.5,7.3c-0.5,0.9-1.2,1.7-2,2.3c-1,0.8-2.3,1.3-3.5,1.6c-0.3,0.1-0.5,0.1-0.8,0.2
					c-0.1,0-0.1,0.1-0.2,0.1c0.1,0.1,0.3,0.2,0.4,0.3c1.4,0.7,2.6,1.7,3.7,2.9c0.6,0.7,1.2,1.5,1.8,2.2c1.1,1.5,2.2,3.1,3.3,4.7
					c0.8,1.1,1.6,2.2,2.5,3.1c0.8,0.8,1.8,1.4,3,1.6c0.2,0,0.4,0.1,0.5,0.1c0,0,0,0.1,0,0.2c-0.7,0.1-4.4,0.1-6.6,0
					c-0.6-0.7-1.3-1.4-1.9-2.2c-1.8-2.4-3.5-4.8-5.2-7.2c-0.5-0.7-1-1.3-1.6-2c-0.8-0.9-1.6-1.6-2.6-2.2c-1.6-1-3.4-1.4-5.3-1.4
					c0,0-0.1,0-0.2,0.1c0,0.2,0,0.5,0,0.8c0,3.3,0,6.7,0,10c0,0.4,0,0.8,0.1,1.2c0.2,1,0.7,1.7,1.6,2.1c0.4,0.1,0.7,0.2,1.1,0.3
					c0.3,0.1,0.6,0.1,0.9,0.1c0.1,0,0.1,0.1,0.2,0.3c-0.2,0-0.3,0-0.5,0c-4,0.1-10.3,0-11.1-0.1c0-0.1,0.1-0.2,0.1-0.2
					c0.2-0.1,0.5-0.1,0.8-0.1c0.4-0.1,0.7-0.1,1.1-0.3c1.1-0.5,1.7-1.2,1.8-2.4c0-0.3,0-0.7,0-1c0-7.4,0-14.8,0-22.2
					c0-0.4,0-0.7,0-1.1c-0.1-1.1-0.6-1.8-1.6-2.3c-0.5-0.2-1-0.4-1.6-0.4C58.4,30.5,58.2,30.5,58,30.5z M65.5,45L65.5,45
					c0.7,0,1.4,0,2,0c1.1,0,2.3-0.1,3.4-0.3c1.1-0.2,2.2-0.5,3.2-1.1c1.3-0.8,2.1-1.9,2.5-3.4c0.2-1,0.3-2,0.1-3c-0.3-1.6-0.9-3-2-4
					c-0.9-0.8-1.8-1.4-3-1.7c-1.6-0.5-3.2-0.6-4.9-0.5c-0.4,0-0.9,0-1.4,0.2C65.5,35.7,65.5,40.3,65.5,45z"/>
				<path class="st9" d="M204.3,29.2c4.3,0,8.3,1.1,11.9,3.5c2,1.3,3.7,3,5,5c3,4.6,3.1,10.9-0.2,15.8c-1.4,2-3.1,3.7-5.2,5
					c-2.7,1.7-5.7,2.7-8.9,3c-3.4,0.3-6.8,0-10.1-1.2c-3.1-1.1-5.8-2.8-7.9-5.3c-1.7-2-3-4.3-3.4-6.9c-0.7-3.7-0.1-7.1,1.9-10.3
					c1.4-2.2,3.2-4,5.4-5.4c2.5-1.6,5.3-2.6,8.3-3C202,29.2,203.1,29.2,204.3,29.2z M219.1,45.5L219.1,45.5c0-1.7-0.1-3.4-0.5-5.1
					c-0.8-3.4-2.7-5.9-5.5-7.9c-0.5-0.3-1.1-0.6-1.6-0.9c-2.2-0.9-4.5-1.5-6.9-1.5c-1.9,0-3.7,0.3-5.5,0.8c-2.2,0.7-4.2,1.8-5.8,3.5
					c-1.4,1.5-2.4,3.2-3,5.1c-0.4,1.2-0.6,2.5-0.7,3.8c-0.2,2.5-0.1,4.9,0.6,7.3c1.3,4.7,4.4,7.9,9.1,9.3c3.6,1.1,7.2,1,10.8-0.1
					c4.2-1.4,6.9-4.2,8.3-8.4C218.9,49.4,219,47.4,219.1,45.5z"/>
				<path class="st8" d="M34.4,29.2c4.3,0,8.4,1.1,12,3.6c2.3,1.5,4.1,3.5,5.4,6c1.3,2.5,1.8,5.1,1.5,7.9c-0.3,3.6-1.9,6.6-4.3,9.1
					c-2.5,2.5-5.4,4.2-8.8,5.1c-4.9,1.3-9.7,1-14.3-0.8c-2.9-1.2-5.4-2.9-7.4-5.4c-1.5-1.8-2.6-3.9-3.1-6.2
					c-0.8-3.8-0.2-7.3,1.8-10.6c1-1.6,2.3-3,3.8-4.2c2.9-2.3,6.2-3.6,9.8-4.2C32.1,29.2,33.2,29.2,34.4,29.2z M19.5,45.4L19.5,45.4
					c0,1.6,0.1,3.3,0.6,4.9c1.3,4.9,4.4,8.1,9.2,9.6c3.6,1.1,7.3,1,11-0.2c1.9-0.6,3.5-1.6,4.9-3c1.7-1.7,2.8-3.7,3.4-5.9
					c0.9-3.5,0.9-7,0-10.5c-0.8-3.2-2.6-5.7-5.3-7.6c-0.6-0.4-1.2-0.8-1.8-1c-2.2-1-4.5-1.5-6.9-1.5c-1.6,0-3.2,0.2-4.7,0.6
					c-4.6,1.2-7.8,4.1-9.4,8.6C19.7,41.3,19.5,43.3,19.5,45.4z"/>
				<path class="st8" d="M98.8,45c0.2,0,0.5,0,0.7,0c2,0,3.9,0,5.9,0c1,0,2.1-0.1,3.1-0.4c1.2-0.3,1.9-1,2.1-2.3c0-0.1,0-0.2,0-0.2
					c0.1-0.1,0.2-0.1,0.3-0.1c0,0.1,0.1,0.2,0.1,0.3c0,2.1,0,4.1,0,6.2c0,0.2,0,0.3-0.1,0.4c-0.1,0-0.2-0.1-0.3-0.4
					c-0.1-0.4-0.3-0.9-0.5-1.2c-0.5-0.6-1.2-1.1-2-1.2c-0.7-0.1-1.4-0.1-2-0.1c-2.3,0-4.5,0-6.8,0c-0.1,0-0.3,0-0.3,0
					c-0.2,0.1-0.2,0.3-0.2,0.5c0,3.4,0,6.9,0,10.3c0,0.6,0.1,1.3,0.4,1.8c0.3,0.6,0.7,1,1.3,1.1c0.4,0.1,0.8,0.2,1.2,0.2
					c2.1,0,4.1,0,6.2,0c0.8,0,1.5-0.1,2.3-0.3c1.3-0.4,2.3-1.1,2.9-2.2c0.2-0.4,0.4-0.7,0.6-1.1c0-0.1,0.2-0.1,0.3-0.2
					c0,0.1,0.1,0.1,0.1,0.2c-0.4,1.5-0.8,3-1.2,4.5c-0.8,0.1-15.9,0.2-21.2,0.1c-0.1,0-0.3,0-0.5,0c0-0.1,0-0.2,0.1-0.2
					c0.1,0,0.3,0,0.5,0c0.8,0,1.4-0.3,2-0.7c0.7-0.4,1-1,1.2-1.8c0-0.3,0.1-0.7,0.1-1c0-7.6,0-15.2,0-22.8c0-0.7-0.1-1.5-0.5-2.1
					c-0.4-0.8-1-1.3-1.9-1.4c-0.5-0.1-0.9-0.1-1.4-0.2c0-0.1,0-0.1,0-0.2c0.7-0.1,20.9-0.1,21.6,0c0,0.1,0,0.2,0,0.4
					c0,1.3,0,2.6,0,3.9c0,0.1,0,0.3-0.1,0.4c0,0-0.2,0-0.2,0c-0.1-0.1-0.1-0.2-0.1-0.3c-0.1-1.5-1-2.4-2.3-3
					c-0.9-0.4-1.8-0.5-2.8-0.5c-0.4,0-0.8,0-1.3,0c-2.1,0-4.3,0-6.4,0c-0.3,0-0.5,0-0.8,0c0,0.1-0.1,0.2-0.1,0.3c0,4.4,0,8.9,0,13.4
					C98.7,44.7,98.8,44.8,98.8,45z"/>
				<path class="st10" d="M129.9,31.3c-0.1,0-0.3,0-0.5,0c-2.3,0-4.5,0-6.8,0c-1.1,0-2.3,0.1-3.3,0.5c-0.3,0.1-0.5,0.2-0.7,0.3
					c-0.8,0.3-1.3,0.9-1.7,1.6c-0.2,0.5-0.4,1-0.5,1.6c0,0.2,0,0.4-0.1,0.6c0,0.1-0.1,0.2-0.2,0.2c-0.2,0-0.2-0.1-0.2-0.3
					c0-0.1,0-0.3,0-0.4c0-2.1,0-4.1,0-6.2c0-0.2,0-0.3,0-0.5c0-0.1,0.2-0.2,0.3-0.1c0.1,0.1,0.2,0.2,0.3,0.3c0.5,0.6,1.1,1,1.9,1
					c0.6,0.1,1.2,0.1,1.7,0.1c2.1,0,4.3,0,6.4,0c5.6,0,11.3,0,16.9,0c0.4,0,0.8,0,1.3-0.1c0.9-0.1,1.8-0.5,2.4-1.1
					c0.2-0.2,0.3-0.4,0.6-0.3c0.1,0.5,0.1,6.2,0,7.4c-0.3,0.1-0.3,0.1-0.4-0.1c-0.1-0.4-0.1-0.8-0.2-1.1c-0.1-0.4-0.3-0.9-0.5-1.2
					c-0.3-0.6-0.8-1-1.4-1.3c-1-0.5-2-0.7-3-0.8c-0.3,0-0.6,0-0.9,0c-2.4,0-4.7,0-7.1,0c-0.1,0-0.3,0-0.5,0c0,0.2,0,0.4,0,0.6
					c0,8.3,0,16.6,0,24.9c0,0.4,0,0.7,0.1,1.1c0.2,1,0.7,1.6,1.6,2c0.5,0.3,1.1,0.3,1.7,0.4c0.1,0,0.3,0,0.5,0.1c0,0.1,0,0.2,0,0.2
					c-0.6,0.1-10.8,0.1-11.5,0c0-0.1,0.1-0.2,0.1-0.2c0.3-0.1,0.5-0.1,0.8-0.1c0.5-0.1,1-0.3,1.4-0.5c0.8-0.4,1.3-1.1,1.4-2
					c0-0.3,0-0.6,0-0.9c0-8.3,0-16.6,0-24.8C130,31.7,130.1,31.5,129.9,31.3z"/>
				<path class="st10" d="M182.8,28.6c0.1,0.9,0.1,6.8,0,7.4c-0.2,0.1-0.3,0-0.4-0.2c-0.1-0.4-0.1-0.7-0.2-1.1
					c-0.1-0.4-0.2-0.7-0.4-1c-0.4-0.8-0.9-1.3-1.7-1.7c-0.9-0.4-1.9-0.6-2.9-0.7c-0.4,0-0.8-0.1-1.2-0.1c-2.2,0-4.4,0-6.6,0
					c-0.2,0-0.4,0-0.6,0c-0.2,0.3-0.1,0.6-0.1,0.9c0,4.4,0,8.9,0,13.4c0,3.7,0,7.4,0,11.1c0,0.4,0,0.9,0.1,1.3c0.2,1,0.7,1.6,1.6,2
					c0.4,0.1,0.8,0.2,1.1,0.3c0.3,0.1,0.6,0.1,0.9,0.1c0,0,0.1,0.1,0.2,0.2c-0.1,0-0.2,0.1-0.3,0.1c-3.8,0-7.5,0-11.3,0
					c0.1-0.1,0.1-0.3,0.1-0.3c0.3-0.1,0.6-0.1,0.9-0.2c0.5-0.1,1-0.2,1.4-0.5c0.9-0.4,1.3-1.2,1.5-2.1c0-0.3,0-0.6,0-0.9
					c0-8.3,0-16.6,0-24.8c0-0.2,0-0.4,0-0.7c-0.2,0-0.3,0-0.5,0c-2.3,0-4.6,0-6.9,0c-1,0-1.9,0.1-2.8,0.4c-0.4,0.1-0.8,0.3-1.2,0.4
					c-0.8,0.3-1.3,0.9-1.7,1.7c-0.2,0.5-0.4,1-0.5,1.5c0,0.2-0.1,0.5-0.1,0.7c0,0.2-0.2,0.2-0.4,0.1c0-0.1,0-0.2,0-0.3
					c0-2.3,0-4.5,0-6.8c0-0.1,0-0.2,0-0.2c0-0.2,0.3-0.2,0.4-0.1c0.1,0.1,0.2,0.2,0.3,0.3c0.5,0.5,1,0.9,1.7,1
					c0.4,0.1,0.8,0.1,1.2,0.1c0.4,0,0.7,0,1.1,0c7.6,0,15.2,0,22.9,0c0.4,0,0.8,0,1.2,0c1-0.1,1.8-0.5,2.5-1.2
					C182.3,28.7,182.4,28.5,182.8,28.6z"/>
				<path class="st11" d="M-26.7,30.1c7.2,0,14.4,0,21.6,0c0,0.1,0,0.3,0,0.4c0,1.3,0,2.6,0,3.9c0,0.1,0,0.2,0,0.3
					c0,0-0.1,0.1-0.1,0.1c0,0-0.1,0-0.1,0c-0.1-0.1-0.1-0.2-0.1-0.4c-0.1-0.4-0.3-0.8-0.5-1.2c-0.5-1-1.5-1.7-2.6-1.9
					C-9,31.1-9.6,31-10.1,31c-2.8,0-5.6,0-8.4,0c-0.1,0-0.3,0-0.5,0c0,0.2,0,0.3,0,0.5c-0.1,3.6,0,12.5,0.1,13.3c0.2,0,0.3,0,0.5,0
					c2.6,0,5.1,0,7.7,0c0.5,0,1,0,1.4-0.1c1.3-0.2,2.1-1,2.5-2.2c0-0.2,0.1-0.4,0.2-0.6c0,0,0.1-0.1,0.2-0.1c0,0,0.1,0.1,0.2,0.1
					c0,0.1,0,0.2,0,0.3c0,2,0,4,0,6c0,0.2,0,0.3-0.2,0.4c-0.1,0.1-0.2-0.1-0.3-0.3c0-0.1,0-0.2,0-0.2C-7.2,46.9-8,46.2-9.4,46
					c-0.5-0.1-1-0.1-1.5-0.1c-2.5,0-5.1,0-7.6,0c-0.1,0-0.3,0-0.4,0c-0.2,0.2-0.2,0.4-0.2,0.6c0,1.7,0,3.4,0,5c0,1.7,0,3.4,0,5.2
					c0,0.3,0,0.6,0,0.9c0.2,1.6,1.5,2.5,2.6,2.7c0.4,0.1,0.9,0.1,1.3,0.2c0.1,0.1,0.1,0.3-0.1,0.3c-0.2,0-0.4,0-0.5,0
					c-3.4,0-6.9,0-10.3,0c-0.2,0-0.4,0-0.5,0c0,0-0.1-0.1-0.1-0.2c0,0,0.1-0.1,0.1-0.1c0.3,0,0.7,0,1-0.1c1.5-0.2,2.6-1.4,2.7-2.9
					c0-0.3,0-0.5,0-0.8c0-7.4,0-14.9,0-22.3c0-0.3,0-0.6,0-0.9c-0.1-1.5-0.8-2.4-2.5-2.7c-0.4-0.1-0.8-0.1-1.2-0.1
					C-26.7,30.4-26.7,30.3-26.7,30.1z"/>
				<path class="st8" d="M10.7,60.7c-3.9,0-7.6,0-11.4,0c-0.1-0.2-0.1-0.3,0.1-0.3c0.2-0.1,0.5-0.1,0.8-0.1c0.6-0.1,1.1-0.3,1.5-0.5
					c0.7-0.4,1.1-1,1.3-1.7C3,57.6,3,57.1,3,56.7c0-2.6,0-5.3,0-7.9c0-4.9,0-9.8,0-14.6c0-0.5,0-1-0.1-1.5c-0.1-0.8-0.6-1.4-1.4-1.7
					c-0.5-0.2-1-0.4-1.5-0.5c-0.2,0-0.5,0-0.8-0.1c-0.1,0-0.1-0.1-0.2-0.3c0.2,0,0.4,0,0.5,0c3.5,0,7,0,10.5,0c0.1,0,0.3,0,0.4,0
					c0,0,0.1,0.1,0.1,0.1c0,0,0,0.1-0.1,0.1c-0.2,0-0.5,0.1-0.7,0.1c-0.6,0-1.1,0.2-1.6,0.5c-0.9,0.5-1.3,1.2-1.4,2.1
					c0,0.3,0,0.6,0,1c0,7.5,0,15,0,22.6c0,0.3,0,0.6,0,1c0.1,0.9,0.5,1.6,1.3,2c0.5,0.3,1.1,0.6,1.7,0.7c0.2,0,0.5,0,0.7,0.1
					C10.6,60.4,10.6,60.6,10.7,60.7z"/>
				<path class="st12" d="M223.4,70.6c0,0.2,0,0.4,0,0.5c0,0-0.1,0-0.1,0.1c0,0,0,0-0.1,0c-31.7,0-63.5,0-95.2,0c-0.1,0-0.2,0-0.3,0
					c-0.2-0.2-0.2-0.4-0.1-0.5c0,0,0.1-0.1,0.1-0.1c0.3,0,0.5,0,0.8,0c31.3,0,62.6,0,93.9,0C222.7,70.6,223,70.6,223.4,70.6z"/>
				<path class="st13" d="M54.7,70.6c0,0.3,0,0.4,0,0.5c-0.1,0-0.1,0.1-0.1,0.1c-0.3,0-0.6,0-0.9,0c-26.5,0-52.9,0-79.4,0
					c-0.3,0-0.6,0-1,0c0-0.2,0-0.4,0-0.5c0.1,0,0.1-0.1,0.2-0.1c0.3,0,0.5,0,0.8,0c26.5,0,53.1,0,79.6,0
					C54,70.6,54.3,70.6,54.7,70.6z"/>
				<path class="st14" d="M80.3,67.9c-1.1,2.3-2,4.5-3,6.8c-0.4,0.2-0.7,0.1-1,0c-0.4-1.1-0.9-2.3-1.3-3.4c-0.5-1.1-0.9-2.3-1.4-3.4
					c-0.1,0.4-0.1,0.7-0.1,1.1c0,0.4,0,0.8,0,1.2c0,0.4,0,0.7,0,1.1c0,0.4,0,0.7,0,1.1c0,0.4,0,0.8,0,1.2c0,0.4,0,0.7,0,1.1
					c-0.4,0.2-0.7,0.2-1,0.1c0-0.2-0.1-0.3-0.1-0.5c0-2.3,0-4.6,0-6.9c0-0.7,0.1-0.8,0.8-0.8c0.1,0,0.2,0,0.2,0
					c0.5,0,0.9,0.2,1.1,0.7c0.6,1.5,1.2,3,1.8,4.5c0.2,0.4,0.3,0.8,0.5,1.3c0.1-0.2,0.2-0.4,0.3-0.5c0.7-1.7,1.4-3.4,2.1-5.1
					c0.4-0.9,0.5-1,1.6-1c0.3,0,0.5,0.2,0.5,0.5c0,0.1,0,0.3,0,0.5c0,2.2,0,4.4,0,6.6c0,0.2,0,0.4,0,0.6c-0.3,0.2-0.6,0.1-0.9,0.1
					c-0.2-0.2-0.1-0.5-0.1-0.7c0-1.8,0-3.6,0-5.3C80.3,68.4,80.3,68.2,80.3,67.9z"/>
				<path class="st15" d="M65.7,73c0.1-0.2,0.2-0.4,0.3-0.6c0.7-1.6,1.4-3.3,2.1-4.9c0.1-0.1,0.1-0.3,0.2-0.4
					c0.2-0.4,0.5-0.5,0.9-0.5c1.1,0,1.1,0.1,1.1,1c0,2.1,0,4.3,0,6.4c0,0.2,0,0.5,0,0.7c-0.4,0.2-0.7,0.2-1,0c-0.1-0.8,0-1.5,0-2.3
					c0-0.7,0-1.5,0-2.2c0-0.8,0-1.5,0-2.3c-0.3,0-0.3,0.2-0.3,0.3C68,70.1,67.2,72,66.5,74c0,0,0,0.1,0,0.1
					c-0.3,0.7-0.3,0.8-1.2,0.6C65,74.5,65,74.2,64.8,74c-0.7-1.7-1.4-3.4-2-5.2c-0.1-0.3-0.2-0.6-0.4-0.8c-0.1,0-0.1,0-0.1,0
					c0,0,0,0,0,0.1c0,2.2,0,4.4,0,6.5c0,0,0,0,0,0.1c-0.3,0.2-0.6,0.2-1,0c0-0.2,0-0.3,0-0.5c0-2.3,0-4.5,0-6.8
					c0-0.8,0.1-0.9,0.9-0.9c0.1,0,0.3,0,0.4,0c0.4,0,0.6,0.2,0.8,0.6c0.1,0.1,0.1,0.3,0.2,0.4c0.6,1.6,1.3,3.2,1.9,4.8
					C65.5,72.5,65.5,72.8,65.7,73z"/>
				<path class="st16" d="M123.2,72.9c0-2.1,0-4.1,0-6.2c0,0,0,0,0-0.1c0.4-0.2,0.4-0.2,0.9,0c0,0.1,0,0.3,0,0.4c0,2.3,0,4.6,0,6.9
					c0,0.8-0.3,0.8-0.9,0.8c-0.3,0-0.5-0.1-0.6-0.3c-0.1-0.2-0.3-0.4-0.4-0.7c-1-1.8-2-3.6-3-5.4c-0.1-0.1-0.1-0.2-0.2-0.3
					c0,0-0.1,0-0.1,0c0,0,0,0,0,0c0,2.1,0,4.3,0,6.4c-0.3,0.2-0.6,0.2-1,0.1c0-0.2-0.1-0.3-0.1-0.5c0-2.3,0-4.6,0-6.9
					c0-0.1,0-0.2,0-0.3c0-0.4,0.2-0.5,0.5-0.5c0.1,0,0.3,0,0.4,0c0.4,0,0.6,0.1,0.8,0.5c0.1,0.2,0.2,0.4,0.3,0.5
					c1,1.7,1.9,3.4,2.8,5.1c0,0.1,0.1,0.2,0.2,0.3C123.1,72.9,123.2,72.9,123.2,72.9z"/>
				<path class="st17" d="M96.4,70.3c0.2,0.1,0.3,0.2,0.5,0.3c1.3,0.7,1.3,2.8,0,3.7c-0.5,0.3-1,0.5-1.5,0.5c-0.8,0-1.7,0-2.5,0
					c-0.4,0-0.5-0.1-0.5-0.5c0-0.1,0-0.3,0-0.4c0-2.1,0-4.3,0-6.4c0-0.9,0-0.9,1-0.9c0.6,0,1.1,0,1.7,0c0.3,0,0.7,0.1,1,0.2
					c1.3,0.5,1.7,2,0.9,3.1C96.7,70,96.6,70.1,96.4,70.3z M93.4,73.8L93.4,73.8c0.7,0,1.4,0.1,2,0c0.8-0.1,1.3-0.8,1.1-1.6
					c-0.1-0.6-0.5-1-1.1-1.2c-0.7-0.1-1.3-0.1-2,0C93.4,71.9,93.4,72.8,93.4,73.8z M93.5,70L93.5,70c0.5,0,1,0,1.4,0
					c0.9,0,1.4-0.8,1.2-1.6c-0.1-0.4-0.2-0.7-0.5-0.8c-0.3-0.1-0.6-0.2-0.9-0.2c-0.4,0-0.8-0.1-1.2,0.1C93.4,68.3,93.4,69.1,93.5,70
					z"/>
				<path class="st18" d="M90.6,70.9c-0.1,0.4-0.1,1-0.3,1.5c-0.4,1.4-1.4,2.2-2.8,2.4c-0.7,0.1-1.4,0.1-2.1-0.1
					c-0.9-0.3-1.6-0.9-1.9-1.8c-0.5-1.5-0.5-3,0-4.5c0.4-1,1.1-1.7,2.2-1.9c0.8-0.2,1.7-0.2,2.5,0c1,0.3,1.6,0.9,2,1.8
					C90.5,69,90.6,69.8,90.6,70.9z M89.4,70.6L89.4,70.6c0-0.7-0.1-1.3-0.4-1.9c-0.2-0.5-0.6-1-1.2-1.2c-1.5-0.6-3,0.1-3.4,1.7
					c-0.3,0.9-0.2,1.9,0,2.8c0,0.2,0.1,0.5,0.2,0.7c0.2,0.4,0.5,0.8,1,1c1.5,0.7,3.1,0,3.6-1.6C89.3,71.6,89.4,71.1,89.4,70.6z"/>
				<path class="st19" d="M115.9,67.4c-1.1,0.1-2.1,0-3.2,0.1c-0.1,0.8-0.1,1.6,0,2.5c0.2,0,0.4,0,0.5,0c0.7,0,1.3,0,2,0
					c0.3,0,0.4,0.1,0.4,0.4c0,0.3-0.1,0.5-0.4,0.5c-0.6,0-1.1,0-1.7,0c-0.3,0-0.6,0-0.9,0c-0.1,1,0,1.9,0,2.8c0.2,0,0.3,0,0.5,0
					c0.8,0,1.5,0,2.3,0c0.2,0,0.4,0,0.6,0c0.1,0.4,0.1,0.4,0,0.8c-0.1,0-0.3,0-0.5,0c-1.1,0-2.2,0-3.3,0c-0.1,0-0.3,0-0.4,0
					c-0.2,0-0.3-0.1-0.3-0.3c0-0.1,0-0.3,0-0.5c0-2.2,0-4.5,0-6.7c0-0.1,0-0.3,0-0.4c0-0.2,0.1-0.3,0.4-0.4c0.1,0,0.3,0,0.4,0
					c1.1,0,2.2,0,3.2,0c0.5,0,0.6,0.1,0.5,0.7C116.1,67.2,116,67.3,115.9,67.4z"/>
				<path class="st19" d="M102.8,66.6c0.4-0.2,0.7-0.2,1,0c0,1.1,0,2.3,0,3.5c0,1.2,0,2.4,0,3.6c0.2,0,0.3,0.1,0.5,0.1
					c0.7,0,1.3,0,2,0c0.2,0,0.4,0,0.6,0c0.2,0.3,0.2,0.5,0.1,0.8c-0.1,0-0.3,0.1-0.4,0.1c-1,0-2.1,0-3.1,0c-0.1,0-0.2,0-0.3,0
					c-0.2,0-0.3-0.1-0.3-0.3c0-0.1,0-0.3,0-0.4c0-2.4,0-4.7,0-7.1C102.7,66.8,102.8,66.7,102.8,66.6z"/>
				<path class="st19" d="M108.3,74.7c-0.1-0.8-0.1-7.5,0-8.1c0.5-0.2,0.5-0.2,1,0c0,0,0,0,0,0.1c0,0,0,0,0,0.1c0,2.5,0,5.1,0,7.6
					c0,0.1,0,0.2,0,0.3C109,74.9,108.7,74.8,108.3,74.7z"/>
				<path class="st19" d="M57.9,66.6c0.4-0.2,0.7-0.2,1.1,0c0.1,0.6,0,1.3,0,2c0,0.7,0,1.4,0,2c0,0.6,0,1.3,0,2c0,0.7,0,1.4,0,2
					c-0.4,0.2-0.7,0.2-1,0.1c0,0,0-0.1-0.1-0.1c0,0,0,0,0-0.1c0-2.4,0-4.9,0-7.3C57.9,67.1,57.9,66.9,57.9,66.6z"/>
				<path class="st19" d="M100.5,66.6c0.1,0.6,0.1,7.4,0,8.1c-0.3,0.2-0.6,0.1-1,0c0,0,0,0,0-0.1c0,0,0,0,0-0.1c0-2.5,0-5.1,0-7.6
					c0-0.1,0-0.2,0-0.3C99.8,66.4,100.2,66.4,100.5,66.6z"/>
			</g>
			<g>
				<path class="st20" d="M-36.4,65.8c-0.2,0.6-0.6,1-0.9,1.5c-0.3,0.4-0.6,0.9-1,1.3c-0.6-0.4-1.1-1-1.6-1.4
					c-0.5-0.5-1.1-1-1.6-1.5c-0.4,0.4-0.6,0.8-0.9,1.3c0.7,0.8,1.6,1.4,2.3,2.2c-0.3,0.6-0.8,1.2-1.2,1.8c-0.4,0.6-0.8,1.2-1.2,1.8
					c-0.4,0.6-0.8,1.2-1.2,1.8c-0.4,0.6-0.8,1.2-1.3,1.8c-0.5-0.4-1-0.9-1.5-1.3c0.5-0.8,1-1.5,1.5-2.3c-0.4-0.3-0.7-0.6-0.9-0.9
					c-0.2,0-0.3,0.1-0.4,0.2c-0.4,0.5-0.7,1-1.1,1.5c-0.1,0.1-0.2,0.2-0.2,0.3c-0.5-0.4-2-1.7-2.3-2.2c0.3-0.6,2.1-3.3,2.5-3.7
					c0.6,0.6,1.3,1.2,1.9,1.8c0.4-0.3,0.5-0.4,0.8-1.1c-0.6-0.7-1.3-1.2-1.9-1.9c0.3-0.7,0.9-1.3,1.2-2c-0.2-0.3-0.5-0.5-0.8-0.8
					c-0.3,0.3-0.5,0.6-0.7,0.9c-0.2,0.3-0.4,0.6-0.7,0.9c-0.8-0.5-1.3-1.3-2-1.8c-0.4,0.3-0.5,0.7-0.8,1.1c0.7,0.6,1.3,1.2,2,1.9
					c-0.1,0.4-0.4,0.7-0.6,1c-0.2,0.3-0.4,0.6-0.6,0.9c-0.2,0.3-0.4,0.6-0.6,1c-0.2,0.3-0.4,0.6-0.7,0.9c-0.2-0.1-0.3-0.2-0.4-0.3
					c-0.6-0.6-1.3-1.2-1.9-1.8c0.5-0.8,1-1.5,1.5-2.2c-0.3-0.4-0.6-0.6-1-0.9c-0.4,0.3-0.5,0.7-0.8,1.1s-0.5,0.7-0.7,1
					c-0.5-0.3-1.1-0.9-1.4-1.3c0,0,0,0,0,0c0,0,0,0,0-0.1c1.6-2.3,3.1-4.5,4.7-6.8c0,0,0.1-0.1,0.1-0.2c0.1,0.1,0.3,0.2,0.4,0.3
					c0.5,0.5,1.1,1,1.6,1.5c0.1,0.1,0.2,0.2,0.3,0.3c0.4-0.4,0.6-0.9,0.9-1.2c0-0.1,0-0.1,0-0.1c0,0,0,0,0-0.1l-14.6-13.4
					c-0.1,0.1-0.3,0.2-0.4,0.3c-0.4,0.4-1,0.3-1.3-0.2c-0.1-0.1-0.1-0.2-0.2-0.4c-0.6,0.1-1-0.2-1.3-0.7c-0.2,0-0.4,0.2-0.5,0.3
					c-1,0.8-2.2,1.3-3.4,1.6c-1.1,0.2-2.2,0.1-3.3-0.2c-0.1-0.1-0.3-0.1-0.5-0.2c0,0.2,0,0.3,0,0.5c0,0.2-0.1,0.5-0.1,0.6
					c-0.1,0.3-0.3,0.4-0.6,0.4c-0.4,0-0.7,0.1-1-0.1c-1-0.5-1.7-1.2-2-2.3c0-0.2-0.1-0.4,0-0.6c0-0.4,0.3-0.7,0.7-0.8
					c0.1,0,0.3-0.1,0.4-0.1c0-0.1,0-0.2-0.1-0.3c-0.8-1.5-1.1-3.1-1.1-4.7c0-1.6,0.4-3.1,1-4.6c0-0.1,0.1-0.2,0.1-0.3c0,0,0,0,0-0.1
					c0,0,0-0.1-0.1-0.1c-0.6-0.1-0.8-0.6-0.8-1.1c0-0.2,0-0.5,0.1-0.7c0.2-0.8,0.6-1.5,1.3-2c0.2-0.2,0.5-0.4,0.7-0.5
					c0.4-0.2,0.8,0,1.1,0.3c0.1,0.1,0.1,0.2,0.2,0.4c0.1-0.1,0.3-0.2,0.4-0.3c0.8-0.7,1.7-1.3,2.7-1.7c1.6-0.6,3.3-0.8,5-0.1
					c0.1,0,0.1,0,0.2,0c0,0,0,0,0.1,0c0-0.1,0-0.2,0-0.3c0-0.1,0-0.3,0-0.5c0.1-0.5,0.4-0.8,0.9-0.8c0.2,0,0.4,0,0.6,0.1
					c1.1,0.5,1.9,1.2,2.2,2.4c0.1,0.2,0,0.5,0,0.7c-0.1,0.4-0.3,0.6-0.6,0.7c-0.1,0-0.3,0.1-0.5,0.1c0.3,0.6,0.5,1.2,0.7,1.8
					c0.2,0.6,0.3,1.2,0.4,1.9c0.1,0.6,0.1,1.2,0.1,1.8c0,0.6-0.1,1.3-0.3,1.9c-0.1,0.6-0.3,1.2-0.5,1.9c0.5,0.2,0.9,0.6,0.9,1.3
					c0.4,0.1,0.8,0.3,1,0.8c0.1,0.5,0,0.8-0.2,1.2L-36.4,65.8z M-74.3,39.3L-74.3,39.3c0,1,0.2,2,0.6,2.9c0.6,1.1,1.5,1.7,2.8,1.8
					c1.2,0.1,2.3-0.2,3.1-1.2c0.5-0.6,0.8-1.4,0.9-2.2c0-0.4,0.2-0.6,0.5-0.8c1.1-0.5,1.8-1.4,2-2.6c0.3-1.3,0.1-2.5-0.5-3.6
					c-0.7-1.6-2.4-2.4-4.1-2c-0.8,0.2-1.5,0.5-2.1,1C-73.1,34.3-74.2,36.6-74.3,39.3z"/>
				<path class="st21" d="M-57.9,50.9l-6.9,6.5c-0.8,0.8-1.7,1.5-2.5,2.3c-0.1,0.1-0.2,0.2-0.3,0.3c0.3,0.4,0.6,0.8,0.9,1.3
					c0.1-0.1,0.2-0.1,0.3-0.2c0.5-0.5,1.1-1,1.7-1.6c0.1-0.1,0.2-0.1,0.4-0.2c0.1,0.1,0.2,0.1,0.2,0.2c1.5,2.3,3.1,4.5,4.6,6.7
					c0,0,0,0.1,0.1,0.2c-0.2,0.4-0.9,1-1.5,1.4c-0.5-0.7-1-1.4-1.5-2.2c-0.2,0.2-0.4,0.3-0.5,0.5c-0.1,0.1-0.3,0.3-0.5,0.4
					c0.4,0.8,1,1.5,1.5,2.3c-0.3,0.4-1.8,1.8-2.3,2.2c0,0-0.1,0-0.2-0.1c-0.8-1.2-1.6-2.3-2.4-3.5c0.2-0.5,0.7-0.7,1-1
					c0.3-0.3,0.7-0.6,1-0.9c-0.2-0.4-0.5-0.7-0.7-1.1c-0.4,0.3-0.7,0.6-1,0.9c-0.3,0.3-0.7,0.6-1,0.9c-0.5-0.6-0.9-1.3-1.4-1.9
					c-0.3,0.2-0.6,0.4-0.8,0.7c0.4,0.7,0.9,1.2,1.3,1.9c-0.1,0.1-0.1,0.2-0.2,0.3c-0.5,0.4-0.9,0.8-1.3,1.2
					c-0.1,0.1-0.3,0.2-0.4,0.4c0.2,0.4,0.5,0.8,0.8,1.1c0.7-0.6,1.3-1.2,2-1.8c0.4,0.4,2.2,3,2.6,3.7c-0.3,0.4-1.5,1.6-2.3,2.2
					c-0.1-0.1-0.2-0.2-0.2-0.3c-0.3-0.4-0.6-0.9-0.9-1.3c-0.1-0.2-0.3-0.4-0.4-0.5c-0.3,0-0.4,0.2-0.6,0.4c-0.1,0.1-0.3,0.3-0.5,0.5
					c0.1,0.1,0.1,0.3,0.2,0.4c0.3,0.5,0.7,1,1,1.5c0.1,0.1,0.2,0.3,0.2,0.4c-0.4,0.5-0.9,0.9-1.4,1.3c-0.3,0-0.3-0.2-0.4-0.4
					c-1.1-1.5-2.1-3.1-3.2-4.7c-0.4-0.6-0.8-1.2-1.2-1.8c0-0.1-0.1-0.2-0.2-0.3c0.1-0.1,0.1-0.2,0.2-0.3c0.5-0.5,1-1,1.5-1.4
					c0.1-0.1,0.3-0.3,0.5-0.5c-0.3-0.4-0.6-0.8-0.8-1.2c-0.2,0-0.3,0.1-0.4,0.2c-0.8,0.7-1.6,1.5-2.4,2.2c-0.2,0.2-0.3,0.4-0.5,0.4
					c-0.4-0.4-1.5-2.1-1.9-2.6c0-0.2,0.2-0.3,0.3-0.4c1.7-1.5,3.3-3.1,5-4.6c3.4-3.2,6.9-6.4,10.4-9.6l2.7-2.6L-57.9,50.9z
					 M-54.8,43.7c0-0.1,0-0.2-0.1-0.3c-0.4-0.9-0.1-1.5,0.8-1.7c0.1-0.9,0.1-0.9,0.9-1.4c-1-3.1-1.1-6.1,0.5-9.1
					c-0.1,0-0.2-0.1-0.3-0.1c-0.7-0.2-1-0.6-0.9-1.3c0-0.2,0.1-0.5,0.2-0.7c0.3-0.7,0.9-1.3,1.5-1.6c0.3-0.2,0.7-0.3,1-0.3
					c0.5,0,0.9,0.3,0.9,0.8c0,0.2,0,0.5,0,0.8c0.1,0,0.2,0,0.3,0c2-0.8,3.9-0.6,5.7,0.4c0.8,0.4,1.5,0.9,2.1,1.5
					c0.1,0.1,0.2,0.1,0.3,0.2c0.2-0.1,0.2-0.3,0.3-0.4c0.3-0.3,0.6-0.5,1-0.3c0.2,0.1,0.5,0.2,0.7,0.3c0.8,0.6,1.3,1.4,1.5,2.3
					c0,0.3,0,0.6,0,0.9c-0.1,0.4-0.3,0.7-0.7,0.7c-0.1,0-0.1,0-0.2,0.1c1.4,3.3,1.7,6.7-0.1,9.9c0.1,0.2,0.3,0.1,0.4,0.2
					c0.5,0.1,0.7,0.4,0.8,0.8c0,0.2,0,0.4,0,0.6c-0.3,1.1-1,1.8-2,2.3c-0.3,0.2-0.7,0.2-1,0.1c-0.4,0-0.6-0.4-0.7-0.8
					c0-0.2,0-0.5,0-0.8c-2.9,1.1-5.4,0.4-7.8-1.5c-0.3,0.2-0.4,0.6-0.7,0.7c-0.2,0-0.4,0-0.7,0.1c0,0.1-0.1,0.2-0.2,0.3
					c-0.3,0.5-0.9,0.6-1.4,0.3c-0.1-0.1-0.1-0.2-0.3-0.3c-0.1,0.1-0.3,0.2-0.4,0.3c-0.6,0.5-1.1,1-1.7,1.5l-2.5-2.2L-54.8,43.7z
					 M-40.9,39.4L-40.9,39.4c0.1-2.6-1.3-5.3-3.2-6.7c-0.7-0.5-1.5-0.9-2.4-1.1c-1.6-0.3-2.9,0.3-3.7,1.6c-0.8,1.3-1,2.6-0.7,4.1
					c0.3,1.2,0.9,2.1,2.1,2.6c0.3,0.1,0.5,0.3,0.5,0.6c0,0.1,0,0.2,0,0.3c0.1,0.8,0.5,1.6,1.1,2.2c1.6,1.6,4.5,1.2,5.6-0.7
					C-41.1,41.4-40.9,40.4-40.9,39.4z"/>
			</g>
		</g>
	</g>
</g>
<g id="Layer_5" class="st0">
	<g id="Layer_x0020_1_3_" class="st1">
		<g id="_799148128">
			
				<linearGradient id="SVGID_1_" gradientUnits="userSpaceOnUse" x1="52.6734" y1="72.7278" x2="16.7961" y2="72.7278" gradientTransform="matrix(1.0238 0 0 -1.0238 13.2006 119.5328)">
				<stop  offset="0" style="stop-color:#00ADEF"/>
				<stop  offset="1" style="stop-color:#184297"/>
			</linearGradient>
			<path class="st22" d="M44.2,36.8c-1.3-0.7-2.8-1.1-4.4-1.1c-2.6,0-5,1-6.7,2.8c-1.7,1.7-2.7,4-2.7,6.6s1,5,2.7,6.6
				c1.7,1.7,4.1,2.8,6.7,2.8c1.6,0,3.1-0.4,4.4-1.1c1.3-0.6,2.3-1.6,3.2-2.7c0.2-0.3,0.3-0.6,0.6-0.8c0.6-0.6,1.3-1.2,2.1-1.6
				c0.9-0.5,2-0.7,3.1-0.7c0.8,0,1.6,0.2,2.4,0.5c0.6,0.2,1.1,0.5,1.6,0.8c0.5,0.3,0.9,0.7,1.4,1c0.3,0.2,0.7,0.4,1.1,0.6
				c0.6,0.2,1.2,0.3,1.8,0.3c1.6,0,3-0.6,4-1.7c1-1,1.7-2.4,1.7-4l0,0l0,0c0-1.6-0.6-3-1.7-4c-1-1-2.4-1.7-4-1.7
				c-0.6,0-1.3,0.2-1.8,0.3c-0.4,0.2-0.8,0.3-1.1,0.6c-0.6,0.3-0.9,0.7-1.4,1.1c-0.5,0.3-1,0.6-1.6,0.8c-0.8,0.2-1.6,0.4-2.4,0.4
				c-1.1,0-2.1-0.2-3.1-0.7c-0.8-0.4-1.5-0.9-2.1-1.5c-0.3-0.3-0.4-0.6-0.6-0.9C46.5,38.4,45.5,37.4,44.2,36.8z"/>
			<path class="st23" d="M49.5,54.8c2-1.9,5-1.9,7,0c1.9,2,1.9,5,0,7c-2.2,2.2-4.8,3.9-7.7,5.1c-2.8,1.1-5.8,1.7-9,1.7
				c-6.5,0-12.4-2.6-16.6-6.9l0,0c-4.3-4.3-6.9-10.2-6.9-16.7c0-6.5,2.7-12.4,6.9-16.6l0.3-0.3c4.2-4.1,10-6.6,16.3-6.6
				c3.2,0,6.2,0.6,9,1.8c2.9,1.2,5.5,2.9,7.7,5.1c1.9,1.9,1.9,5,0,6.9c-2,2-5,2-7,0c-1.3-1.3-2.8-2.3-4.4-3c-1.7-0.6-3.4-1-5.3-1
				c-3.6,0-7,1.5-9.5,3.8l-0.2,0.2c-2.4,2.5-4,5.9-4,9.7c0,3.8,1.6,7.3,4,9.7l0,0c2.5,2.5,5.9,4,9.7,4c1.9,0,3.6-0.3,5.3-1
				C46.7,57.1,48.2,56.1,49.5,54.8z"/>
		</g>
		<path class="st24" d="M99,52.4c1.2-1.2,3.2-1.2,4.4,0c1.3,1.3,1.3,3.2,0,4.5c-1.5,1.6-3.3,2.8-5.4,3.5c-2,0.9-4.1,1.3-6.3,1.3
			c-4.5,0-8.7-1.8-11.6-4.8c-3-3-4.9-7.1-4.9-11.7s1.9-8.7,4.9-11.7c2.9-3,7.1-4.8,11.6-4.8c2.2,0,4.3,0.4,6.3,1.3
			c2.1,0.8,3.9,2.1,5.4,3.5c1.3,1.3,1.3,3.2,0,4.5c-1.2,1.3-3.2,1.3-4.4,0c-1-0.9-2.1-1.7-3.3-2.2c-1.2-0.5-2.5-0.8-3.9-0.8
			c-2.8,0-5.3,1.2-7.2,3c-1.8,1.8-2.9,4.4-2.9,7.2c0,2.8,1.1,5.4,2.9,7.2c1.9,1.9,4.4,3,7.2,3c1.4,0,2.8-0.2,3.9-0.8
			C96.9,54.1,98,53.4,99,52.4z M217.7,59.7c-0.7,1.6-2.6,2.3-4.2,1.5c-1.6-0.7-2.3-2.5-1.5-4.2l12-26.1c1.1-2.5,4.7-2.4,5.8,0
			l12,26.1c0.7,1.7,0,3.5-1.6,4.2c-1.6,0.8-3.5,0.1-4.2-1.5l-2.5-5.5h-13.3L217.7,59.7z M230.6,47.8l-3.7-8.1l-3.7,8.1H230.6z
			 M169.9,58.3c0,1.7-1.4,3.2-3.2,3.2c-1.7,0-3.2-1.4-3.2-3.2V32.1c0-1.7,1.4-3.2,3.2-3.2c1.7,0,3.2,1.4,3.2,3.2V58.3z M181.9,58.3
			c0,4.2-6.4,4.2-6.4,0V32.1c0-3.3,4.5-4.3,6-1.4l10.6,17.2l10.6-17.2c1.5-2.9,6-1.9,6,1.4v26.2c0,4.2-6.4,4.2-6.4,0v-15l-7.5,12.2
			c-1.2,2.1-4.2,2.1-5.4,0l-7.5-12.2V58.3z M141.9,42.1h10.9c1.7,0,3.2,1.4,3.2,3.2c0,1.7-1.4,3.2-3.2,3.2h-10.9v10
			c0,1.7-1.4,3.2-3.2,3.2c-1.7,0-3.2-1.4-3.2-3.2V45.2V32.1c0-1.7,1.4-3.2,3.2-3.2H156c1.7,0,3.2,1.4,3.2,3.2c0,1.7-1.4,3.2-3.2,3.2
			h-14.1V42.1z M129,55.2c4.2,0,4.2,6.4,0,6.4h-17.3c-1.7,0-3.2-1.4-3.2-3.2V45.2V32.1c0-1.7,1.4-3.2,3.2-3.2H129
			c4.2,0,4.2,6.3,0,6.3h-14.1v6.8h10.9c1.8,0,3.2,1.4,3.2,3.2c0,1.7-1.4,3.2-3.2,3.2h-10.9v6.8H129z"/>
	</g>
</g>
<g id="Layer_6">
	<g id="Layer_x0020_1_4_">
		<path class="st25" d="M236.2,45.5c0,2.1-0.2,4.2-0.6,6.3c-0.3,1.5-0.8,2.8-1.5,4.1c-1.6,2.9-4,4.8-7.3,5.6c-2.5,0.6-4.9,0.6-7.4,0
			c-3.2-0.8-5.6-2.7-7.1-5.6c-0.9-1.6-1.4-3.3-1.7-5.1c-0.5-2.7-0.6-5.5-0.4-8.2c0.2-2.3,0.6-4.5,1.5-6.6c0.8-2,1.9-3.7,3.6-5
			c1.6-1.3,3.4-2.2,5.5-2.5c2.1-0.3,4.1-0.3,6.2,0.3c2.9,0.8,5,2.5,6.6,5c1,1.7,1.7,3.6,2.1,5.5C236.1,41.2,236.2,43.3,236.2,45.5z
			 M230.6,45.4L230.6,45.4c0-1.7-0.1-3.3-0.5-4.9c-0.3-1.3-0.8-2.6-1.5-3.8c-0.9-1.2-2-2.1-3.4-2.4c-0.9-0.2-1.9-0.3-2.8-0.2
			c-1.3,0.1-2.5,0.6-3.5,1.5c-0.9,0.8-1.5,1.8-2,2.8c-0.6,1.5-0.9,3-1,4.6c-0.2,2-0.1,4,0.1,6c0.2,1.1,0.4,2.2,0.9,3.3
			c0.7,1.5,1.8,2.7,3.3,3.4c1,0.4,2,0.6,3.1,0.6c1.9,0,3.6-0.8,4.9-2.2c1-1.1,1.5-2.4,1.9-3.8C230.5,48.6,230.6,47,230.6,45.4z
			 M119.5,45.4c0,2.3-0.2,4.6-0.8,6.8c-0.3,1.3-0.8,2.6-1.4,3.7c-1.5,2.8-3.9,4.7-7,5.4c-2.6,0.6-5.2,0.6-7.8-0.1
			c-2.9-0.8-5.1-2.6-6.7-5.2c-1-1.6-1.5-3.4-1.9-5.2c-0.5-2.8-0.6-5.5-0.4-8.3c0.2-2.1,0.5-4.1,1.2-6.1c0.8-2.1,1.9-4,3.6-5.5
			c1.6-1.5,3.6-2.4,5.7-2.7c2.1-0.3,4.1-0.3,6.2,0.3c3,0.8,5.2,2.6,6.8,5.3c1,1.8,1.7,3.7,2.1,5.7C119.3,41.6,119.5,43.5,119.5,45.4
			z M113.9,45.3L113.9,45.3c0-1.7-0.1-3.3-0.5-5c-0.3-1.3-0.8-2.6-1.6-3.7c-0.9-1.2-2-1.9-3.4-2.3c-0.9-0.2-1.9-0.3-2.8-0.2
			c-1.2,0.1-2.2,0.5-3.1,1.2c-1,0.7-1.6,1.7-2.1,2.8c-0.7,1.5-1,3-1.1,4.6c-0.2,1.5-0.2,3-0.1,4.5c0.1,1.3,0.3,2.7,0.7,4
			c0.3,0.8,0.6,1.6,1.1,2.3c1.2,1.6,2.7,2.5,4.7,2.7c2.6,0.3,4.7-0.6,6.3-2.7c0.7-1,1.1-2,1.4-3.1C113.7,48.7,113.8,47,113.9,45.3z
			 M121.1,29.2c0.1,0,0.2,0,0.3,0c4.6,0,9.2,0,13.7,0c2.3,0,4.3,0.9,5.9,2.6c1.1,1.2,1.7,2.6,2,4.1c0.4,2,0.4,4-0.3,6
			c-0.4,1.1-1,2.1-1.9,2.9c-0.4,0.3-0.8,0.5-1.2,0.8c-0.1,0-0.2,0.1-0.3,0.1c0.3,0.2,0.7,0.3,1,0.5c1.1,0.7,1.8,1.7,2,3
			c0.1,0.7,0.2,1.4,0.2,2.1c0,3.1,0,6.2,0,9.4c0,0,0,0.1,0,0.2c-1.9,0-3.7,0-5.6,0c0-0.1,0-0.3,0-0.4c0-2.5,0-5,0-7.5
			c0-0.5-0.1-1.1-0.1-1.6c-0.2-1.6-1.1-2.4-2.7-2.6c-0.4-0.1-0.9-0.1-1.3-0.1c-2,0-4,0-6,0c-0.1,0-0.1,0-0.3,0c0,4.1,0,8.2,0,12.3
			c-1.9,0-3.7,0-5.5,0C121.1,50.3,121.1,39.8,121.1,29.2z M126.6,43.1L126.6,43.1c0.1,0,0.2,0,0.3,0c2.3,0,4.6,0,6.9,0
			c0.4,0,0.9-0.1,1.3-0.1c1.2-0.2,2-0.8,2.5-1.9c0.3-0.6,0.4-1.2,0.4-1.9c0-1.1-0.1-2.1-0.7-3.1c-0.4-0.5-0.8-0.9-1.4-1.1
			c-0.5-0.2-1.1-0.3-1.7-0.3c-2.4,0-4.8,0-7.2,0c-0.1,0-0.2,0-0.3,0C126.6,37.5,126.6,40.3,126.6,43.1z M144.6,29.2
			c6.7,0,13.3,0,20,0c0,1.8,0,3.6,0,5.5c-4.8,0-9.6,0-14.5,0c0,2.3,0,4.5,0,6.7c1.1,0,2.2,0,3.3,0c1.1,0,2.2,0,3.3,0
			c1.1,0,2.2,0,3.4,0c1.1,0,2.2,0,3.3,0c0.1,0.3,0.1,4.9,0,5.6c-4.4,0-8.9,0-13.3,0c0,2.7,0,5.4,0,8.1c5,0,10.1,0,15.1,0
			c0,1.9,0,3.7,0,5.6c-6.9,0-13.8,0-20.7,0C144.6,50.3,144.6,39.8,144.6,29.2z M85,29.2c0,1.8,0,3.6,0,5.5c-4.6,0-9.1,0-13.7,0
			c0,2.4,0,4.8,0,7.2c4,0,8,0,12,0c0,1.9,0,3.7,0,5.6c-4,0-8,0-12,0c0,4.5,0,8.9,0,13.3c-1.9,0-3.8,0-5.7,0c0-10.5,0-21,0-31.5
			C65.9,29.2,83.8,29.1,85,29.2z M179.4,60.8c-1.9,0-3.8,0-5.7,0c0-8.7,0-17.3,0-26c-2.7,0-5.4,0-8.1,0c-0.1-0.3-0.1-4.9,0-5.5
			c7.4,0,14.7,0,22.1,0c0,1.8,0,3.6,0,5.5c-2.7,0-5.5,0-8.2,0C179.4,43.4,179.4,52.1,179.4,60.8z M202.3,60.8c-1.9,0-3.8,0-5.7,0
			c0-8.7,0-17.3,0-26c-2.7,0-5.5,0-8.1,0c-0.1-0.3-0.1-4.9,0-5.5c7.4,0,14.7,0,22.1,0c0,1.8,0,3.6,0,5.5c-2.7,0-5.5,0-8.2,0
			C202.3,43.4,202.3,52.1,202.3,60.8z M91.8,60.8c-1.9,0-3.8,0-5.7,0c0-10.5,0-21,0-31.5c1.9,0,3.7,0,5.7,0
			C91.8,39.7,91.8,50.2,91.8,60.8z"/>
		<path class="st25" d="M68.4,73.9c-0.7,0-1.3-0.1-2-0.3c-0.6-0.2-1.1-0.5-1.5-0.8l0.5-1c0.4,0.3,0.8,0.6,1.3,0.8
			c0.5,0.2,1.1,0.3,1.7,0.3c0.8,0,1.3-0.1,1.7-0.4c0.4-0.3,0.6-0.6,0.6-1c0-0.3-0.1-0.6-0.3-0.8c-0.2-0.2-0.4-0.3-0.7-0.4
			c-0.3-0.1-0.7-0.2-1.3-0.4c-0.7-0.2-1.2-0.3-1.7-0.5c-0.4-0.2-0.8-0.4-1.1-0.8c-0.3-0.3-0.4-0.8-0.4-1.4c0-0.5,0.1-0.9,0.4-1.3
			c0.3-0.4,0.7-0.7,1.2-1c0.5-0.2,1.2-0.4,1.9-0.4c0.5,0,1.1,0.1,1.6,0.2c0.5,0.1,1,0.4,1.3,0.6l-0.4,1c-0.4-0.2-0.8-0.4-1.2-0.6
			c-0.4-0.1-0.9-0.2-1.3-0.2c-0.7,0-1.3,0.1-1.7,0.4c-0.4,0.3-0.6,0.6-0.6,1c0,0.3,0.1,0.6,0.3,0.8c0.2,0.2,0.5,0.4,0.8,0.4
			c0.3,0.1,0.7,0.2,1.2,0.4c0.7,0.2,1.2,0.3,1.7,0.5c0.4,0.2,0.8,0.4,1.1,0.8c0.3,0.3,0.5,0.8,0.5,1.4c0,0.5-0.1,0.9-0.4,1.3
			c-0.3,0.4-0.7,0.7-1.2,0.9C69.8,73.8,69.1,73.9,68.4,73.9z M95.3,70.6v3.2H94v-3.2l-3.6-6h1.4l2.9,4.8l2.9-4.8h1.3L95.3,70.6z
			 M120.8,73.9c-0.7,0-1.3-0.1-2-0.3c-0.6-0.2-1.1-0.5-1.5-0.8l0.5-1c0.4,0.3,0.8,0.6,1.3,0.8c0.5,0.2,1.1,0.3,1.7,0.3
			c0.8,0,1.3-0.1,1.7-0.4c0.4-0.3,0.6-0.6,0.6-1c0-0.3-0.1-0.6-0.3-0.8c-0.2-0.2-0.4-0.3-0.8-0.4c-0.3-0.1-0.7-0.2-1.3-0.4
			c-0.7-0.2-1.2-0.3-1.7-0.5c-0.4-0.2-0.8-0.4-1.1-0.8c-0.3-0.3-0.4-0.8-0.4-1.4c0-0.5,0.1-0.9,0.4-1.3c0.2-0.4,0.6-0.7,1.2-1
			c0.5-0.2,1.2-0.4,1.9-0.4c0.5,0,1.1,0.1,1.6,0.2c0.5,0.1,1,0.4,1.3,0.6l-0.4,1c-0.4-0.2-0.8-0.4-1.2-0.6c-0.4-0.1-0.9-0.2-1.3-0.2
			c-0.7,0-1.3,0.1-1.7,0.4c-0.4,0.3-0.6,0.6-0.6,1c0,0.3,0.1,0.6,0.3,0.8c0.2,0.2,0.5,0.4,0.8,0.4c0.3,0.1,0.7,0.2,1.3,0.4
			c0.7,0.2,1.2,0.3,1.7,0.5c0.4,0.2,0.8,0.4,1.1,0.8c0.3,0.3,0.5,0.8,0.5,1.4c0,0.5-0.1,0.9-0.4,1.3c-0.3,0.4-0.7,0.7-1.2,0.9
			C122.3,73.8,121.6,73.9,120.8,73.9z M146.1,65.8H143v-1.1h7.6v1.1h-3.1v8h-1.3V65.8z M176.7,72.7v1.1h-6.6v-9.2h6.5v1.1h-5.2v2.8
			h4.6v1.1h-4.6v2.9H176.7z M205.5,73.8l0-6.7l-3.3,5.6h-0.6l-3.3-5.5v6.6H197v-9.2h1.1l3.8,6.4l3.8-6.4h1.1l0,9.2H205.5z
			 M230.3,73.9c-0.7,0-1.4-0.1-2-0.3c-0.6-0.2-1.1-0.5-1.5-0.8l0.5-1c0.4,0.3,0.8,0.6,1.3,0.8c0.6,0.2,1.1,0.3,1.7,0.3
			c0.7,0,1.3-0.1,1.7-0.4c0.4-0.3,0.6-0.6,0.6-1c0-0.3-0.1-0.6-0.3-0.8c-0.2-0.2-0.5-0.3-0.8-0.4c-0.3-0.1-0.7-0.2-1.3-0.4
			c-0.7-0.2-1.2-0.3-1.7-0.5c-0.4-0.2-0.8-0.4-1.1-0.8c-0.3-0.3-0.4-0.8-0.4-1.4c0-0.5,0.1-0.9,0.4-1.3c0.3-0.4,0.7-0.7,1.2-1
			c0.5-0.2,1.2-0.4,1.9-0.4c0.5,0,1.1,0.1,1.6,0.2c0.5,0.1,1,0.4,1.3,0.6l-0.4,1c-0.4-0.2-0.8-0.4-1.2-0.6c-0.4-0.1-0.9-0.2-1.3-0.2
			c-0.7,0-1.3,0.1-1.7,0.4c-0.4,0.3-0.6,0.6-0.6,1c0,0.3,0.1,0.6,0.3,0.8c0.2,0.2,0.5,0.4,0.8,0.4c0.3,0.1,0.7,0.2,1.2,0.4
			c0.7,0.2,1.2,0.3,1.7,0.5c0.4,0.2,0.8,0.4,1.1,0.8c0.3,0.3,0.4,0.8,0.4,1.4c0,0.5-0.1,0.9-0.4,1.3c-0.3,0.4-0.7,0.7-1.2,0.9
			C231.7,73.8,231.1,73.9,230.3,73.9z"/>
		<path class="st7" d="M31.3,27.9h6.8h22.3L54.7,36H38.4v10.2H47v8.1h-8.6v19.2h-7.1V36V27.9z M22.9,27.9H0.5L6.3,36h16.3v10.2H14
			v8.1h8.6v12l7.1,7.2V36v-8.1H22.9z"/>
	</g>
</g>
<g id="Layer_7" class="st0">
	
		<image style="display:inline;overflow:visible;" width="3510" height="1032" xlink:href="../logos,svg/FIORETTO-MEDIA-LOGO.png"  transform="matrix(4.859091e-02 0 0 4.859091e-02 99.0791 28.1697)">
	</image>
</g>
</svg>
