<?xml version="1.0" encoding="UTF-8"?>
<!DOCTYPE svg PUBLIC "-//W3C//DTD SVG 1.1//EN" "http://www.w3.org/Graphics/SVG/1.1/DTD/svg11.dtd">
<!-- Creator: CorelDRAW X8 -->
<svg xmlns="http://www.w3.org/2000/svg" xml:space="preserve" width="2931px" height="613px" version="1.1" style="shape-rendering:geometricPrecision; text-rendering:geometricPrecision; image-rendering:optimizeQuality; fill-rule:evenodd; clip-rule:evenodd"
viewBox="0 0 2863 598"
 xmlns:xlink="http://www.w3.org/1999/xlink">
 <defs>
  <style type="text/css">
   <![CDATA[
    .fil2 {fill:#00ADEF;fill-rule:nonzero}
    .fil1 {fill:#184297;fill-rule:nonzero}
    .fil0 {fill:url(#id0);fill-rule:nonzero}
   ]]>
  </style>
  <linearGradient id="id0" gradientUnits="userSpaceOnUse" x1="646.239" y1="299.216" x2="180.612" y2="299.216">
   <stop offset="0" style="stop-opacity:1; stop-color:#00ADEF"/>
   <stop offset="1" style="stop-opacity:1; stop-color:#184297"/>
  </linearGradient>
 </defs>
 <g id="Layer_x0020_1">
  <metadata id="CorelCorpID_0Corel-Layer"/>
  <g id="_799148128">
   <path class="fil0" d="M356 194c-17,-9 -36,-14 -56,-14 -33,0 -63,13 -85,35 -21,22 -34,51 -34,84 0,33 13,63 34,84 22,22 52,35 85,35 20,0 39,-5 56,-14 16,-8 29,-20 40,-34 3,-4 4,-7 8,-10 7,-8 16,-15 26,-20 12,-6 25,-9 39,-9 10,0 20,2 30,6 7,2 14,6 20,10 6,4 11,9 18,13 4,3 9,5 14,7 7,3 15,4 23,4 20,0 38,-8 51,-21 13,-13 21,-31 21,-51l0 0 0 0c0,-20 -8,-38 -21,-51 -13,-13 -31,-21 -51,-21 -8,0 -16,2 -23,4 -5,2 -10,4 -14,7 -7,4 -12,9 -18,14 -6,4 -13,7 -20,10 -10,3 -20,5 -30,5 -14,0 -27,-3 -39,-9 -10,-5 -19,-11 -26,-19 -4,-4 -5,-7 -8,-11 -11,-14 -24,-26 -40,-34z"/>
   <path class="fil1" d="M422 422c25,-24 64,-24 89,0 24,25 24,64 0,89 -28,28 -61,49 -98,65 -36,14 -74,22 -114,22 -82,0 -157,-33 -211,-87l0 0c-54,-54 -88,-129 -88,-212 0,-82 34,-157 88,-211l4 -4c53,-52 127,-84 207,-84 40,0 78,8 114,23 37,15 70,37 98,65 24,24 24,64 0,88 -25,25 -64,25 -89,0 -16,-16 -35,-29 -56,-38 -21,-8 -43,-13 -67,-13 -46,0 -89,19 -120,48l-3 3c-31,32 -51,75 -51,123 0,48 20,92 51,123l0 0c32,32 75,51 123,51 24,0 46,-4 67,-13 21,-8 40,-21 56,-38z"/>
  </g>
  <path class="fil2" d="M1050 392c15,-15 41,-15 56,0 16,16 16,41 0,57 -19,20 -42,35 -68,45 -25,11 -52,16 -80,16 -57,0 -110,-23 -147,-61 -38,-38 -62,-90 -62,-148 0,-58 24,-110 62,-148 37,-38 90,-61 147,-61 28,0 55,5 80,16 26,10 49,26 68,45 16,16 16,41 0,57 -15,16 -41,16 -56,0 -13,-12 -27,-22 -42,-28 -15,-6 -32,-10 -50,-10 -35,0 -67,15 -91,38 -23,23 -37,56 -37,91 0,36 14,68 37,91 24,24 56,38 91,38 18,0 35,-3 50,-10 15,-6 29,-15 42,-28zm1505 92c-9,20 -33,29 -53,19 -20,-9 -29,-32 -19,-53l152 -331c14,-32 59,-31 73,0l152 331c9,21 0,44 -20,53 -20,10 -44,1 -53,-19l-32 -70 -168 0 -32 70zm163 -150l-47 -103 -47 103 94 0zm-769 133c0,22 -18,40 -40,40 -22,0 -40,-18 -40,-40l0 -332c0,-22 18,-40 40,-40 22,0 40,18 40,40l0 332zm152 0c0,53 -81,53 -81,0l0 -332c0,-42 57,-55 76,-18l134 218 134 -218c19,-37 76,-24 76,18l0 332c0,53 -81,53 -81,0l0 -190 -95 155c-15,26 -53,26 -68,0l-95 -155 0 190zm-507 -206l138 0c22,0 40,18 40,40 0,22 -18,40 -40,40l-138 0 0 127c0,22 -18,40 -41,40 -22,0 -40,-18 -40,-40l0 -167 0 -166c0,-22 18,-40 40,-40l220 0c22,0 40,18 40,40 0,22 -18,40 -40,40l-179 0 0 86zm-164 166c53,0 53,81 0,81l-219 0c-22,0 -40,-18 -40,-40l0 -167 0 -166c0,-22 18,-40 40,-40l219 0c53,0 53,80 0,80l-179 0 0 86 138 0c23,0 41,18 41,40 0,22 -18,40 -41,40l-138 0 0 86 179 0z"/>
 </g>
</svg>
