<?xml version="1.0" encoding="utf-8"?>
<!-- Generator: Adobe Illustrator 23.0.1, SVG Export Plug-In . SVG Version: 6.00 Build 0)  -->
<!DOCTYPE svg PUBLIC "-//W3C//DTD SVG 1.1//EN" "http://www.w3.org/Graphics/SVG/1.1/DTD/svg11.dtd" [
	<!ENTITY ns_extend "http://ns.adobe.com/Extensibility/1.0/">
	<!ENTITY ns_ai "http://ns.adobe.com/AdobeIllustrator/10.0/">
	<!ENTITY ns_graphs "http://ns.adobe.com/Graphs/1.0/">
	<!ENTITY ns_vars "http://ns.adobe.com/Variables/1.0/">
	<!ENTITY ns_imrep "http://ns.adobe.com/ImageReplacement/1.0/">
	<!ENTITY ns_sfw "http://ns.adobe.com/SaveForWeb/1.0/">
	<!ENTITY ns_custom "http://ns.adobe.com/GenericCustomNamespace/1.0/">
	<!ENTITY ns_adobe_xpath "http://ns.adobe.com/XPath/1.0/">
]>
<svg version="1.1" id="Layer_1" xmlns:x="&ns_extend;" xmlns:i="&ns_ai;" xmlns:graph="&ns_graphs;"
	 xmlns="http://www.w3.org/2000/svg" xmlns:xlink="http://www.w3.org/1999/xlink" x="0px" y="0px" viewBox="0 0 227.7 104.8"
	 style="enable-background:new 0 0 227.7 104.8;" xml:space="preserve">
<style type="text/css">
	.st0{display:none;}
	.st1{display:inline;}
	.st2{fill:#2C2C2C;}
	.st3{fill:#194695;}
	.st4{fill:none;}
	.st5{fill:#2E3035;}
	.st6{fill:#313438;}
	.st7{fill-rule:evenodd;clip-rule:evenodd;fill:#184297;}
	.st8{fill:#422A15;}
	.st9{fill:#432A16;}
	.st10{fill:#432B17;}
	.st11{fill:#442C17;}
	.st12{fill:#CB9B26;}
	.st13{fill:#CB9B27;}
	.st14{fill:#CA9921;}
	.st15{fill:#CB9A24;}
	.st16{fill:#C9971D;}
	.st17{fill:#CB9A23;}
	.st18{fill:#CA9A22;}
	.st19{fill:#CA9922;}
	.st20{fill:#C9971C;}
	.st21{fill:#412814;}
	.st22{fill:#383E42;}
	.st23{fill-rule:evenodd;clip-rule:evenodd;}
</style>
<metadata>
	<sfw  xmlns="&ns_sfw;">
		<slices></slices>
		<sliceSourceBounds  bottomLeftOrigin="true" height="104.8" width="460.9" x="-233.4" y="0"></sliceSourceBounds>
	</sfw>
</metadata>
<g class="st0">
	<g id="Layer_x0020_1" class="st1">
		<g id="_339944352">
			<g>
				<path class="st2" d="M-195.5,75.8c0-4.9-4-8.9-8.9-8.9s-8.9,4-8.9,8.9s4,8.9,8.9,8.9C-199.5,84.7-195.5,80.7-195.5,75.8z"/>
				<path class="st2" d="M-195.5,29c0-4.9-4-8.9-8.9-8.9s-8.9,4-8.9,8.9s4,8.9,8.9,8.9C-199.5,37.8-195.5,33.9-195.5,29z"/>
				<path class="st2" d="M-148.7,29c0-4.9-4-8.9-8.9-8.9s-8.9,4-8.9,8.9s4,8.9,8.9,8.9C-152.6,37.8-148.7,33.9-148.7,29z"/>
				<path class="st2" d="M-148.7,75.8c0-4.9-4-8.9-8.9-8.9s-8.9,4-8.9,8.9s4,8.9,8.9,8.9C-152.6,84.7-148.7,80.7-148.7,75.8z"/>
				<path class="st3" d="M-204.4,46.8c-16,0-29,13-29,29h11.1c0-9.9,8-17.9,17.9-17.9c7.1,0,13.2,4.2,16.1,10.1l5.1-11.9
					C-188.4,50.4-196,46.8-204.4,46.8z"/>
				<path class="st2" d="M-233.3,29c0,16,13,28.9,29,28.9s28.9-13,28.9-28.9c0-16-13-29-28.9-29v11.1c9.9,0,17.9,8,17.9,17.9
					s-8,17.9-17.9,17.9s-17.9-8-17.9-17.9C-222.2,29-233.3,29-233.3,29z"/>
				<path class="st3" d="M-139.7,29c0,9.9-8,17.9-17.9,17.9s-17.9-8-17.9-17.9s8-17.9,17.9-17.9V0c-16,0-28.9,13-28.9,29
					s13,28.9,28.9,28.9c16,0,29-13,29-28.9C-128.6,29-139.7,29-139.7,29z"/>
				<path class="st2" d="M-128.6,75.8c0-16-13-29-29-29s-28.9,13-28.9,29s13,29,28.9,29V93.7c-9.9,0-17.9-8-17.9-17.9
					s8-17.9,17.9-17.9s17.9,8,17.9,17.9C-139.7,75.8-128.6,75.8-128.6,75.8z"/>
				<path class="st3" d="M-183.1,56.1l-5.1,11.9c1.1,2.4,1.7,5,1.7,7.7c0,9.9-8,17.9-17.9,17.9v11.1c16,0,28.9-13,28.9-29
					C-175.4,68.2-178.4,61.3-183.1,56.1z"/>
				<path class="st3" d="M-181.4,58.2l-6.3,11.1c-0.2-0.4-0.3-0.9-0.5-1.3c-1.5-3-3.8-5.6-6.6-7.4l7.9-7.9c1.4,1,2.6,2.2,3.8,3.4
					C-182.5,56.8-182,57.5-181.4,58.2z"/>
				<g>
					<line class="st4" x1="-186.9" y1="52.7" x2="-194.9" y2="60.7"/>
				</g>
				<g>
					<line class="st4" x1="-181.4" y1="58.2" x2="-187.7" y2="69.3"/>
				</g>
			</g>
			<g>
				<path class="st2" d="M-85.9,48c1.2,1.5,1.8,3.2,1.8,5.1c0,2.8-1,5-2.8,6.6c-1.9,1.6-4.6,2.4-8.1,2.4h-15.4V29h15.1
					c3.4,0,6,0.7,7.8,2.2c1.8,1.4,2.7,3.5,2.7,6.3c0,2-0.5,3.7-1.6,5s-2.5,2.2-4.2,2.6C-88.6,45.6-87.1,46.5-85.9,48z M-102.5,42.6
					L-102.5,42.6h5.2c2.8,0,4.2-1.2,4.2-3.6c0-2.4-1.4-3.6-4.3-3.6h-5.1C-102.5,35.4-102.5,42.6-102.5,42.6z M-92.3,52L-92.3,52
					c0-1.2-0.4-2.1-1.2-2.8c-0.8-0.7-1.9-1-3.3-1h-5.7v7.5h5.7C-93.8,55.6-92.3,54.4-92.3,52z"/>
				<polygon class="st2" points="-66.3,29 -66.3,62.2 -74.3,62.2 -74.3,29 				"/>
				<path class="st2" d="M-38.1,62.2l-7.2-12.5h-1.8v12.5h-8V29h13.7c2.6,0,4.8,0.5,6.7,1.4c1.8,0.9,3.1,2.2,4.1,3.7
					c0.9,1.6,1.4,3.4,1.4,5.4c0,2.4-0.7,4.5-2,6.2s-3.3,2.8-5.8,3.5l7.9,13H-38.1z M-47.1,44.2L-47.1,44.2h5c1.6,0,2.8-0.4,3.5-1
					c0.8-0.7,1.1-1.8,1.1-3.1s-0.4-2.4-1.2-3.1c-0.8-0.8-1.9-1.1-3.5-1.1h-5v8.3C-47.2,44.2-47.1,44.2-47.1,44.2z"/>
				<polygon class="st2" points="-11.7,35.4 -11.7,42.3 -0.5,42.3 -0.5,48.4 -11.7,48.4 -11.7,55.7 0.9,55.7 0.9,62.2 -19.7,62.2 
					-19.7,29 0.9,29 0.9,35.4 				"/>
				<polygon class="st2" points="48.4,29.3 48.4,62.2 40.4,62.2 40.4,41.6 33.2,62.2 26.3,62.2 19.1,41.5 19.1,62.2 11.1,62.2 
					11.1,29.3 20.9,29.3 29.9,52.2 38.6,29.3 				"/>
				<path class="st2" d="M80,56.1H67.6l-2.1,6.1h-8.4l12.1-32.9h9.2l12.1,32.9H82L80,56.1z M78,50L78,50l-4.1-12.2L69.7,50H78z"/>
			</g>
			<g>
				<g>
					<path class="st3" d="M-106.4,73c0.3,0.3,0.4,0.6,0.4,1c0,0.5-0.2,0.9-0.5,1.2c-0.4,0.3-0.9,0.5-1.6,0.5h-2.4v-6.4h2.4
						c0.6,0,1.1,0.2,1.5,0.5c0.3,0.3,0.5,0.7,0.5,1.2c0,0.4-0.1,0.7-0.3,1c-0.2,0.3-0.5,0.4-0.9,0.5C-107,72.6-106.6,72.7-106.4,73z
						 M-109.7,72.2L-109.7,72.2h1.4c0.4,0,0.7-0.1,0.9-0.3c0.2-0.2,0.3-0.5,0.3-0.8s-0.1-0.6-0.3-0.8c-0.2-0.2-0.5-0.3-1-0.3h-1.4
						L-109.7,72.2L-109.7,72.2z M-107.3,74.8L-107.3,74.8c0.3-0.2,0.4-0.5,0.4-0.9c0-0.3-0.1-0.6-0.4-0.9c-0.3-0.2-0.6-0.3-1-0.3
						h-1.4V75h1.4C-107.8,75.1-107.5,75-107.3,74.8z"/>
					<polygon class="st3" points="-103.1,69.4 -103.1,75.8 -103.9,75.8 -103.9,69.4 					"/>
					<path class="st3" d="M-96.1,69.7c0.5,0.3,0.9,0.7,1.1,1.2c0.3,0.5,0.4,1,0.4,1.7c0,0.6-0.1,1.2-0.4,1.7s-0.7,0.9-1.1,1.2
						c-0.5,0.3-1,0.4-1.6,0.4s-1.1-0.1-1.6-0.4s-0.9-0.7-1.1-1.2c-0.3-0.5-0.4-1.1-0.4-1.7c0-0.7,0.1-1.2,0.4-1.7s0.7-0.9,1.1-1.2
						c0.5-0.3,1-0.4,1.6-0.4S-96.6,69.4-96.1,69.7z M-98.9,70.4L-98.9,70.4c-0.3,0.2-0.6,0.5-0.8,0.9c-0.2,0.4-0.3,0.8-0.3,1.3
						s0.1,0.9,0.3,1.3c0.2,0.4,0.5,0.7,0.8,0.9c0.4,0.2,0.8,0.3,1.2,0.3c0.5,0,0.8-0.1,1.2-0.3c0.3-0.2,0.6-0.5,0.8-0.9
						c0.2-0.4,0.3-0.8,0.3-1.3s-0.1-1-0.3-1.3c-0.2-0.4-0.5-0.7-0.8-0.9c-0.4-0.2-0.7-0.3-1.2-0.3C-98.1,70.1-98.5,70.2-98.9,70.4z"
						/>
					<polygon class="st3" points="-91.5,75.1 -89.2,75.1 -89.2,75.8 -92.4,75.8 -92.4,69.4 -91.5,69.4 					"/>
					<path class="st3" d="M-82.7,69.7c0.5,0.3,0.9,0.7,1.1,1.2c0.3,0.5,0.4,1,0.4,1.7c0,0.6-0.1,1.2-0.4,1.7s-0.7,0.9-1.1,1.2
						c-0.5,0.3-1,0.4-1.6,0.4s-1.1-0.1-1.6-0.4s-0.9-0.7-1.1-1.2c-0.3-0.5-0.4-1.1-0.4-1.7c0-0.7,0.1-1.2,0.4-1.7s0.7-0.9,1.1-1.2
						c0.5-0.3,1-0.4,1.6-0.4C-83.8,69.3-83.2,69.4-82.7,69.7z M-85.6,70.4L-85.6,70.4c-0.3,0.2-0.6,0.5-0.8,0.9
						c-0.2,0.4-0.3,0.8-0.3,1.3s0.1,0.9,0.3,1.3c0.2,0.4,0.5,0.7,0.8,0.9c0.3,0.2,0.7,0.3,1.2,0.3s0.8-0.1,1.2-0.3
						c0.3-0.2,0.6-0.5,0.8-0.9c0.2-0.4,0.3-0.8,0.3-1.3s-0.1-1-0.3-1.3c-0.2-0.4-0.5-0.7-0.8-0.9c-0.4-0.2-0.7-0.3-1.2-0.3
						C-84.8,70.1-85.2,70.2-85.6,70.4z"/>
					<path class="st3" d="M-74.2,69.9c0.5,0.4,0.9,0.9,1,1.5H-74c-0.2-0.4-0.4-0.7-0.8-0.9c-0.4-0.2-0.8-0.3-1.3-0.3
						c-0.4,0-0.8,0.1-1.2,0.3c-0.3,0.2-0.6,0.5-0.8,0.9c-0.2,0.4-0.3,0.8-0.3,1.3s0.1,1,0.3,1.4c0.2,0.4,0.5,0.7,0.9,0.9
						c0.3,0.2,0.8,0.3,1.2,0.3c0.4,0,0.8-0.1,1.1-0.3c0.3-0.2,0.6-0.4,0.8-0.7c0.2-0.3,0.3-0.7,0.4-1.1h-2.5v-0.6h3.2v0.8
						c-0.1,0.5-0.2,1-0.5,1.4s-0.6,0.7-1,1c-0.5,0.2-1,0.3-1.5,0.3c-0.6,0-1.2-0.1-1.6-0.4c-0.5-0.3-0.9-0.7-1.1-1.2
						c-0.3-0.5-0.4-1.1-0.4-1.7c0-0.7,0.1-1.2,0.4-1.7s0.7-0.9,1.1-1.2c0.5-0.3,1-0.4,1.6-0.4C-75.3,69.3-74.7,69.5-74.2,69.9z"/>
					<polygon class="st3" points="-70,69.4 -70,75.8 -70.8,75.8 -70.8,69.4 					"/>
					<path class="st3" d="M-62.8,69.9c0.5,0.4,0.9,0.9,1.1,1.6h-0.9c-0.2-0.4-0.4-0.8-0.8-1c-0.4-0.3-0.8-0.4-1.3-0.4
						c-0.4,0-0.8,0.1-1.1,0.3c-0.3,0.2-0.6,0.5-0.8,0.9c-0.2,0.4-0.3,0.8-0.3,1.3s0.1,0.9,0.3,1.3c0.2,0.4,0.5,0.7,0.8,0.9
						c0.3,0.2,0.7,0.3,1.1,0.3c0.5,0,1-0.1,1.3-0.4c0.4-0.3,0.6-0.6,0.8-1h0.9c-0.2,0.7-0.6,1.2-1.1,1.6s-1.1,0.6-1.9,0.6
						c-0.6,0-1.1-0.1-1.6-0.4s-0.8-0.7-1.1-1.1c-0.3-0.5-0.4-1.1-0.4-1.7c0-0.7,0.1-1.2,0.4-1.7s0.6-0.9,1.1-1.2
						c0.5-0.3,1-0.4,1.6-0.4C-63.9,69.3-63.3,69.5-62.8,69.9z"/>
					<path class="st3" d="M-55.8,74.3h-2.8l-0.5,1.5H-60l2.4-6.3h0.9l2.4,6.3h-0.9L-55.8,74.3z M-56,73.7L-56,73.7l-1.2-3.3
						l-1.2,3.3H-56z"/>
					<polygon class="st3" points="-51.6,75.1 -49.3,75.1 -49.3,75.8 -52.4,75.8 -52.4,69.4 -51.6,69.4 					"/>
				</g>
				<g>
					<path class="st3" d="M-40.1,75.8l-1.7-2.6h-0.9v2.6h-0.8v-6.4h2.1c0.7,0,1.3,0.2,1.6,0.5c0.4,0.3,0.5,0.8,0.5,1.4
						c0,0.5-0.1,0.9-0.4,1.3c-0.3,0.3-0.7,0.5-1.3,0.6l1.8,2.6H-40.1z M-42.7,72.6L-42.7,72.6h1.2c0.9,0,1.4-0.4,1.4-1.2
						c0-0.9-0.5-1.2-1.4-1.2h-1.2V72.6z"/>
					<polygon class="st3" points="-36.3,70 -36.3,72.3 -33.8,72.3 -33.8,72.9 -36.3,72.9 -36.3,75.1 -33.5,75.1 -33.5,75.8 
						-37.1,75.8 -37.1,69.4 -33.5,69.4 -33.5,70 					"/>
					<path class="st3" d="M-27.5,75c-0.2,0.3-0.4,0.5-0.7,0.7c-0.3,0.1-0.7,0.2-1.1,0.2s-0.8-0.1-1.1-0.2c-0.3-0.1-0.6-0.4-0.8-0.6
						c-0.2-0.3-0.3-0.6-0.3-0.9h0.9c0,0.2,0.1,0.4,0.2,0.5c0.1,0.2,0.3,0.3,0.5,0.4s0.4,0.2,0.7,0.2c0.4,0,0.7-0.1,0.9-0.3
						c0.2-0.2,0.3-0.5,0.3-0.8s-0.1-0.5-0.2-0.6s-0.3-0.3-0.5-0.4s-0.5-0.2-0.8-0.3c-0.4-0.1-0.7-0.3-1-0.4s-0.5-0.3-0.7-0.5
						s-0.3-0.5-0.3-0.9c0-0.3,0.1-0.6,0.3-0.9c0.1-0.3,0.4-0.5,0.7-0.6c0.3-0.1,0.7-0.2,1.1-0.2c0.6,0,1.1,0.1,1.5,0.5
						c0.4,0.3,0.6,0.7,0.7,1.2h-0.9c-0.1-0.3-0.2-0.5-0.4-0.7c-0.2-0.2-0.5-0.3-0.9-0.3c-0.3,0-0.6,0.1-0.8,0.3s-0.3,0.4-0.3,0.7
						c0,0.3,0.1,0.5,0.2,0.6c0.1,0.2,0.3,0.3,0.5,0.4s0.5,0.2,0.8,0.3c0.4,0.1,0.7,0.3,1,0.4s0.5,0.3,0.7,0.6c0.2,0.2,0.3,0.6,0.3,1
						C-27.3,74.4-27.4,74.7-27.5,75z"/>
					<path class="st3" d="M-20.6,69.7c0.5,0.3,0.9,0.7,1.1,1.2c0.3,0.5,0.4,1,0.4,1.7c0,0.6-0.1,1.2-0.4,1.7s-0.6,0.9-1.1,1.2
						s-1,0.4-1.6,0.4s-1.1-0.1-1.6-0.4s-0.9-0.7-1.1-1.2c-0.3-0.5-0.4-1.1-0.4-1.7c0-0.7,0.1-1.2,0.4-1.7s0.7-0.9,1.1-1.2
						c0.5-0.3,1-0.4,1.6-0.4S-21,69.4-20.6,69.7z M-23.4,70.4L-23.4,70.4c-0.3,0.2-0.6,0.5-0.8,0.9c-0.2,0.4-0.3,0.8-0.3,1.3
						s0.1,0.9,0.3,1.3c0.2,0.4,0.5,0.7,0.8,0.9c0.3,0.2,0.7,0.3,1.2,0.3c0.4,0,0.8-0.1,1.2-0.3c0.3-0.2,0.6-0.5,0.8-0.9
						c0.2-0.4,0.3-0.8,0.3-1.3s-0.1-1-0.3-1.3c-0.2-0.4-0.5-0.7-0.8-0.9c-0.4-0.2-0.8-0.3-1.2-0.3S-23,70.2-23.4,70.4z"/>
					<path class="st3" d="M-16,69.4v3.9c0,0.7,0.1,1.1,0.4,1.4c0.3,0.3,0.7,0.5,1.2,0.5s0.9-0.2,1.1-0.5c0.3-0.3,0.4-0.8,0.4-1.4
						v-3.9h0.8v3.9c0,0.9-0.2,1.6-0.7,2c-0.4,0.5-1,0.7-1.7,0.7s-1.3-0.2-1.8-0.7c-0.4-0.4-0.7-1.1-0.7-2v-3.9H-16z"/>
					<path class="st3" d="M-6.3,75.8L-8,73.2h-0.9v2.6h-0.8v-6.4h2.1c0.7,0,1.3,0.2,1.6,0.5s0.5,0.8,0.5,1.4c0,0.5-0.1,0.9-0.5,1.3
						c-0.3,0.3-0.7,0.5-1.2,0.6l1.7,2.6C-5.5,75.8-6.3,75.8-6.3,75.8z M-8.9,72.6L-8.9,72.6h1.2c0.9,0,1.4-0.4,1.4-1.2
						c0-0.9-0.5-1.2-1.4-1.2h-1.2V72.6z"/>
					<path class="st3" d="M1.5,69.9c0.5,0.4,0.9,0.9,1,1.6H1.7c-0.1-0.4-0.4-0.8-0.8-1c-0.4-0.3-0.8-0.4-1.3-0.4
						c-0.4,0-0.8,0.1-1.1,0.3c-0.3,0.2-0.6,0.5-0.8,0.9s-0.3,0.8-0.3,1.3s0.1,0.9,0.3,1.3s0.5,0.7,0.8,0.9c0.3,0.2,0.7,0.3,1.1,0.3
						c0.5,0,1-0.1,1.3-0.4s0.7-0.6,0.8-1h0.9c-0.2,0.7-0.5,1.2-1,1.6s-1.2,0.6-2,0.6c-0.6,0-1.1-0.1-1.6-0.4s-0.8-0.7-1.1-1.1
						c-0.3-0.5-0.4-1.1-0.4-1.7c0-0.7,0.1-1.2,0.4-1.7s0.6-0.9,1.1-1.2s1-0.4,1.6-0.4C0.3,69.3,1,69.5,1.5,69.9z"/>
					<polygon class="st3" points="5.6,70 5.6,72.3 8,72.3 8,72.9 5.6,72.9 5.6,75.1 8.3,75.1 8.3,75.8 4.8,75.8 4.8,69.4 8.3,69.4 
						8.3,70 					"/>
					<path class="st3" d="M14.3,75c-0.1,0.3-0.4,0.5-0.7,0.7c-0.3,0.1-0.7,0.2-1.1,0.2c-0.4,0-0.8-0.1-1.1-0.2s-0.6-0.4-0.8-0.6
						c-0.2-0.3-0.3-0.6-0.4-0.9h0.9c0,0.2,0.1,0.4,0.2,0.5s0.3,0.3,0.5,0.4s0.5,0.2,0.7,0.2c0.3,0,0.6-0.1,0.8-0.3
						c0.2-0.2,0.3-0.5,0.3-0.8s-0.1-0.5-0.2-0.6c-0.1-0.2-0.3-0.3-0.5-0.4s-0.5-0.2-0.8-0.3c-0.4-0.1-0.7-0.3-1-0.4
						s-0.5-0.3-0.6-0.5c-0.2-0.2-0.3-0.5-0.3-0.9c0-0.3,0.1-0.6,0.2-0.9c0.2-0.3,0.4-0.5,0.7-0.6s0.7-0.2,1.1-0.2
						c0.6,0,1.1,0.1,1.5,0.5c0.4,0.3,0.6,0.7,0.7,1.2h-0.9c0-0.3-0.2-0.5-0.4-0.7C12.9,70,12.6,70,12.2,70c-0.3,0-0.6,0.1-0.8,0.3
						c-0.2,0.2-0.3,0.4-0.3,0.7c0,0.3,0.1,0.5,0.2,0.6c0.1,0.2,0.3,0.3,0.5,0.4s0.5,0.2,0.8,0.3c0.4,0.1,0.8,0.3,1,0.4
						c0.3,0.1,0.5,0.3,0.6,0.6c0.2,0.2,0.3,0.6,0.3,1C14.5,74.4,14.4,74.7,14.3,75z"/>
				</g>
				<g>
					<polygon class="st3" points="26.7,69.5 26.7,75.8 25.9,75.8 25.9,70.7 23.9,75.8 23.1,75.8 21.1,70.8 21.1,75.8 20.3,75.8 
						20.3,69.5 21.3,69.5 23.5,74.8 25.8,69.5 					"/>
					<path class="st3" d="M32.9,74.3h-2.8l-0.5,1.5h-0.9l2.4-6.3H32l2.4,6.3h-0.9L32.9,74.3z M32.7,73.7L32.7,73.7l-1.2-3.3
						l-1.2,3.3H32.7z"/>
					<polygon class="st3" points="41.3,75.8 40.5,75.8 37.1,70.7 37.1,75.8 36.3,75.8 36.3,69.4 37.1,69.4 40.5,74.5 40.5,69.4 
						41.3,69.4 					"/>
					<path class="st3" d="M47.5,74.3h-2.8l-0.5,1.5h-0.9l2.4-6.3h0.9l2.4,6.3h-1L47.5,74.3z M47.2,73.7L47.2,73.7L46,70.4l-1.2,3.3
						C44.8,73.7,47.2,73.7,47.2,73.7z"/>
					<path class="st3" d="M55.6,69.9c0.5,0.4,0.9,0.9,1,1.5h-0.9c-0.1-0.4-0.4-0.7-0.8-0.9c-0.3-0.2-0.8-0.3-1.2-0.3
						s-0.8,0.1-1.2,0.3c-0.3,0.2-0.6,0.5-0.8,0.9s-0.3,0.8-0.3,1.3s0.1,1,0.3,1.4s0.5,0.7,0.8,0.9c0.4,0.2,0.8,0.3,1.2,0.3
						s0.7-0.1,1.1-0.3c0.3-0.2,0.6-0.4,0.8-0.7c0.2-0.3,0.3-0.7,0.4-1.1h-2.5v-0.6h3.2v0.8c-0.1,0.5-0.2,1-0.5,1.4s-0.6,0.7-1.1,1
						c-0.4,0.2-0.9,0.3-1.5,0.3S52.4,76,52,75.7s-0.9-0.7-1.1-1.2c-0.3-0.5-0.4-1.1-0.4-1.7c0-0.7,0.1-1.2,0.4-1.7
						c0.3-0.5,0.6-0.9,1.1-1.2s1-0.4,1.6-0.4C54.5,69.3,55.1,69.5,55.6,69.9z"/>
					<polygon class="st3" points="59.9,70 59.9,72.3 62.3,72.3 62.3,72.9 59.9,72.9 59.9,75.1 62.6,75.1 62.6,75.8 59,75.8 59,69.4 
						62.6,69.4 62.6,70 					"/>
					<polygon class="st3" points="71.2,69.5 71.2,75.8 70.3,75.8 70.3,70.7 68.3,75.8 67.6,75.8 65.6,70.8 65.6,75.8 64.7,75.8 
						64.7,69.5 65.7,69.5 68,74.8 70.2,69.5 					"/>
					<polygon class="st3" points="74.4,70 74.4,72.3 76.9,72.3 76.9,72.9 74.4,72.9 74.4,75.1 77.1,75.1 77.1,75.8 73.6,75.8 
						73.6,69.4 77.1,69.4 77.1,70 					"/>
					<polygon class="st3" points="84.3,75.8 83.4,75.8 80.1,70.7 80.1,75.8 79.3,75.8 79.3,69.4 80.1,69.4 83.4,74.5 83.4,69.4 
						84.3,69.4 					"/>
					<polygon class="st3" points="90.6,69.4 90.6,70 88.8,70 88.8,75.8 88,75.8 88,70 86.2,70 86.2,69.4 					"/>
				</g>
			</g>
			<g>
				<path class="st2" d="M88.5,21.1c0.7,0.4,1.2,0.9,1.5,1.5c0.4,0.7,0.5,1.4,0.5,2.2c0,0.8-0.2,1.5-0.5,2.2
					c-0.4,0.6-0.9,1.1-1.5,1.5c-0.7,0.3-1.4,0.5-2.2,0.5c-0.8,0-1.6-0.2-2.2-0.5c-0.7-0.4-1.2-0.9-1.5-1.5c-0.3-0.7-0.5-1.4-0.5-2.2
					c0-0.8,0.2-1.6,0.5-2.2c0.4-0.6,0.9-1.1,1.5-1.5s1.4-0.5,2.2-0.5C87.2,20.5,87.9,20.7,88.5,21.1z M88.2,27.9L88.2,27.9
					c0.6-0.3,1-0.7,1.3-1.2s0.5-1.2,0.5-1.9c0-0.7-0.1-1.4-0.5-1.9c-0.3-0.5-0.7-1-1.2-1.2c-0.6-0.3-1.2-0.5-2-0.5
					c-0.7,0-1.4,0.1-1.9,0.5c-0.6,0.3-1,0.7-1.3,1.2s-0.4,1.2-0.4,1.9c0,0.7,0.1,1.3,0.4,1.9c0.3,0.5,0.7,1,1.3,1.2
					c0.5,0.3,1.2,0.5,1.9,0.5C87,28.3,87.7,28.2,88.2,27.9z M88.1,24.6L88.1,24.6c-0.2,0.3-0.5,0.4-0.9,0.5l1.2,2H87l-1.1-2h-0.2v2
					h-1.2v-5h2c0.6,0,1.1,0.1,1.4,0.5c0.3,0.3,0.5,0.7,0.5,1.1C88.5,24,88.3,24.3,88.1,24.6z M85.8,24.4L85.8,24.4h0.7
					c0.5,0,0.7-0.2,0.7-0.6s-0.2-0.6-0.7-0.6h-0.7V24.4z"/>
			</g>
		</g>
	</g>
</g>
<g id="Layer_3" class="st0">
	<g id="Layer_x0020_1_1_" class="st1">
		<g id="_568370712">
			<path class="st5" d="M43.3,49.5c-2,0-3.9,0-5.9,0c0-1.7,0-3.5,0-5.2c3.7,0,7.4,0,11.1,0c0,5.6,0,11.2,0,16.8
				c-0.3,0.1-3.6,0.1-4.6,0c0-0.5-0.1-1-0.1-1.5s-0.1-1-0.1-1.5c-0.1,0.1-0.1,0.1-0.1,0.1c-0.8,1.6-2.1,2.6-3.8,3.2
				c-2.8,1-5.5,1.1-8.3-0.2c-1.7-0.8-3.1-2.1-4.3-3.7c-1.5-1.9-2.4-4.2-3-6.5c-0.7-2.6-0.8-5.3-0.6-8c0.2-2.4,0.7-4.7,1.7-6.9
				c0.9-2,2.1-3.7,3.9-5c1.8-1.4,3.8-2.2,6.1-2.4c1.9-0.2,3.9,0,5.7,0.7c3.9,1.5,6.3,4.4,7.1,8.5c0.1,0.5,0.1,1,0.2,1.5
				c-1.9,0-3.7,0-5.6,0c0-0.1-0.1-0.3-0.1-0.5c-0.6-2.5-2.1-4-4.6-4.6c-2.4-0.6-4.4,0.1-6,1.9c-1.1,1.2-1.8,2.7-2.2,4.3
				c-0.6,2.3-0.7,4.6-0.5,7c0.1,1.6,0.5,3.2,1.2,4.7c0.5,1.1,1.1,2,2,2.9c2.2,2.2,5.7,2.2,7.9,0.4c1.5-1.2,2.4-2.7,2.7-4.6
				c0.1-0.3,0.1-0.7,0.1-1C43.3,49.7,43.3,49.6,43.3,49.5z"/>
			<path class="st5" d="M-101.6,45.9c0,2.2-0.2,4.4-0.7,6.6c-0.3,1.4-0.8,2.7-1.5,3.9c-1.5,2.8-3.8,4.6-6.9,5.3
				c-2.5,0.6-5,0.6-7.5-0.1c-2.8-0.8-5-2.5-6.5-5c-1-1.6-1.6-3.4-2-5.2c-0.5-2.5-0.6-5-0.5-7.5c0.1-2.1,0.4-4.1,1-6.2
				c0.6-1.9,1.5-3.7,2.8-5.3c1.7-2,3.9-3.2,6.4-3.6c2.1-0.4,4.1-0.3,6.2,0.3c2.8,0.8,5,2.5,6.4,5c1,1.7,1.6,3.5,2,5.3
				C-101.7,41.6-101.6,43.7-101.6,45.9z M-107.1,45.7L-107.1,45.7c0-1.6-0.1-3.2-0.5-4.8c-0.3-1.3-0.8-2.6-1.5-3.7
				c-0.8-1.1-1.9-1.9-3.2-2.3c-0.8-0.3-1.7-0.3-2.5-0.3c-1.9,0.1-3.4,0.9-4.5,2.4c-0.4,0.6-0.8,1.1-1,1.7c-0.7,1.6-1,3.2-1.1,4.9
				c-0.1,1.8-0.1,3.5,0.1,5.3c0.1,1.3,0.4,2.5,0.9,3.7c0.8,1.7,1.9,3,3.7,3.7c0.6,0.2,1.2,0.3,1.9,0.4c2.2,0.1,4.1-0.6,5.5-2.3
				c0.8-1,1.3-2.1,1.7-3.3C-107.2,49.2-107.1,47.5-107.1,45.7z"/>
			<path class="st5" d="M101.8,45.4c0,2.8-0.2,5.1-0.8,7.3c-0.4,1.5-1,3-1.8,4.4c-1.5,2.3-3.5,3.8-6.2,4.5c-2.5,0.7-5.1,0.7-7.6,0.1
				c-3.2-0.8-5.5-2.7-7-5.6c-0.9-1.6-1.4-3.3-1.7-5.1c-0.5-2.7-0.6-5.4-0.3-8.1c0.2-2.3,0.6-4.4,1.4-6.6c0.7-1.7,1.7-3.3,3-4.6
				c1.7-1.7,3.8-2.7,6.2-3c1.9-0.3,3.7-0.2,5.5,0.3c3,0.8,5.3,2.6,6.8,5.3c1,1.7,1.6,3.6,2,5.5C101.7,41.9,101.8,43.9,101.8,45.4z
				 M96.3,45.7L96.3,45.7c0-1.6-0.1-3.3-0.5-4.9c-0.3-1.3-0.8-2.6-1.5-3.7c-0.8-1.2-1.9-2-3.2-2.4c-0.8-0.3-1.7-0.3-2.6-0.3
				c-1.9,0.1-3.4,0.9-4.5,2.4c-0.4,0.5-0.7,1.1-1,1.7c-0.7,1.5-1,3.2-1.1,4.8c-0.2,1.8-0.1,3.6,0.1,5.4c0.1,1.2,0.4,2.5,0.9,3.6
				c1.5,3.5,4.8,4.5,7.7,3.9c1.9-0.4,3.2-1.5,4.2-3.2c0.5-0.8,0.8-1.7,1-2.6C96.2,49,96.3,47.4,96.3,45.7z"/>
			<path class="st5" d="M12.6,45.9c0,2.3-0.2,4.5-0.7,6.7c-0.4,1.6-1,3.1-1.9,4.5c-1.5,2.3-3.6,3.8-6.2,4.5c-2.5,0.7-5,0.7-7.5,0.1
				c-3.1-0.8-5.4-2.6-6.9-5.3c-0.9-1.6-1.5-3.4-1.8-5.2c-0.5-2.6-0.6-5.3-0.4-7.9c0.1-2.1,0.5-4.1,1.2-6c0.5-1.6,1.2-3,2.3-4.3
				c1.9-2.4,4.3-3.7,7.3-4.1c2-0.3,4-0.2,5.9,0.4c2.6,0.8,4.5,2.4,5.9,4.6c1.1,1.7,1.8,3.5,2.2,5.5C12.4,41.5,12.6,43.7,12.6,45.9z
				 M7,45.7L7,45.7c0-1.7-0.1-3.4-0.5-5c-0.3-1.3-0.8-2.5-1.5-3.6c-0.8-1.1-1.9-1.9-3.2-2.3c-0.8-0.2-1.7-0.3-2.5-0.2
				c-1.8,0.1-3.3,0.8-4.4,2.3c-0.6,0.8-1.1,1.6-1.4,2.5c-0.5,1.4-0.8,2.8-0.9,4.2c-0.1,2.2-0.1,4.3,0.3,6.5c0.2,1.2,0.6,2.3,1.2,3.3
				c0.8,1.3,1.9,2.3,3.3,2.8c0.6,0.2,1.2,0.3,1.9,0.4C1.6,56.7,3.5,56,5,54.2c0.8-1,1.3-2.1,1.6-3.3C6.9,49.1,7,47.4,7,45.7z"/>
			<path class="st5" d="M-82.2,46.1c0.3,0.1,0.6,0.3,0.9,0.4c1.1,0.7,1.8,1.7,2,2.9c0.2,0.8,0.2,1.6,0.2,2.4c0,3,0,6,0,9
				c0,0.1,0,0.1,0,0.2c-1.8,0-3.6,0-5.5,0c0-0.1,0-0.3,0-0.4c0-2.5,0-5,0-7.5c0-0.7,0-1.3-0.2-1.9c-0.3-1.3-1.1-2-2.4-2.2
				c-0.5-0.1-1-0.1-1.5-0.1c-1.9,0-3.9,0-5.8,0c-0.1,0-0.1,0-0.3,0c0,4.1,0,8.2,0,12.2c-1.8,0-3.6,0-5.4,0c-0.1-0.3-0.1-30.6,0-31.3
				c0.1,0,0.3,0,0.4,0c4.4,0,8.7,0,13.1,0c3.4,0,6.5,2,7.6,5.5c0.8,2.4,0.8,4.9-0.1,7.3c-0.6,1.4-1.5,2.6-2.8,3.3
				C-82,45.9-82.1,46-82.2,46.1C-82.2,46-82.2,46-82.2,46.1z M-94.6,35.2L-94.6,35.2c0,2.8,0,5.5,0,8.3c0.1,0,0.2,0,0.3,0
				c2.3,0,4.6,0,6.9,0c0.3,0,0.7,0,1-0.1c1.2-0.2,2-0.8,2.5-2c0.2-0.5,0.3-1,0.4-1.6c0.1-1.2-0.1-2.3-0.7-3.2
				c-0.3-0.6-0.9-1-1.5-1.2c-0.5-0.2-1.1-0.3-1.7-0.2c-2.3,0-4.6,0-6.8,0C-94.4,35.2-94.5,35.2-94.6,35.2z"/>
			<path class="st5" d="M59,48.8c0,4.1,0,8.2,0,12.2c-0.3,0.1-4.6,0.1-5.4,0c-0.1-0.3-0.1-30.5-0.1-31.3c0.1,0,0.3,0,0.4,0
				c4.4,0,8.7,0,13.1,0c3.5,0,6.6,2.1,7.7,5.6c0.8,2.4,0.8,4.9-0.2,7.3c-0.5,1.5-1.5,2.7-3,3.4l-0.1,0.1c0.1,0.1,0.1,0.1,0.2,0.1
				c1.6,0.7,2.5,1.9,2.8,3.5c0.1,0.8,0.2,1.6,0.2,2.4c0,2.9,0,5.8,0,8.6c0,0.1,0,0.2,0,0.3c-1.8,0-3.6,0-5.5,0c0-0.1,0-0.3,0-0.4
				c0-2.5,0-5,0-7.4c0-0.7,0-1.3-0.2-2c-0.1-0.3-0.1-0.5-0.2-0.7c-0.3-0.7-0.8-1.1-1.4-1.4c-0.7-0.3-1.3-0.3-2-0.3c-2,0-4.1,0-6.1,0
				C59.1,48.8,59.1,48.8,59,48.8z M59,35.2L59,35.2c0,2.8,0,5.5,0,8.3c0.1,0,0.2,0,0.3,0c2.3,0,4.6,0,6.8,0c0.3,0,0.7,0,1-0.1
				c1.2-0.2,2-0.8,2.5-1.9c0.2-0.5,0.3-0.9,0.4-1.4c0.1-1,0-2.1-0.4-3c-0.5-1-1.2-1.6-2.4-1.8c-0.3-0.1-0.7-0.1-1.1-0.1
				c-2.3,0-4.5,0-6.8,0C59.3,35.2,59.2,35.2,59,35.2z"/>
			<path class="st5" d="M-77,29.8c6.5,0,13.1,0,19.6,0c0,1.8,0,3.6,0,5.4c-4.7,0-9.4,0-14.1,0c0,2.3,0,4.5,0,6.7c4.3,0,8.6,0,12.9,0
				c0.1,0.3,0.1,4.6,0.1,5.5c-4.3,0-8.6,0-13,0c-0.1,0.3-0.1,7.6,0,8.1c4.9,0,9.8,0,14.8,0c0,1.9,0,3.7,0,5.5c-6.7,0-13.5,0-20.2,0
				C-77,50.6-77,40.2-77,29.8z"/>
			<path class="st5" d="M103.3,29.8c1.9,0,3.8,0,5.7,0c0,0.1,0,0.3,0,0.5c0,6.7,0,13.3,0,20.1c0,1,0.1,2.1,0.4,3.1
				c0.2,0.6,0.4,1.1,0.8,1.5c0.7,1,1.7,1.6,3,1.8c0.8,0.1,1.6,0,2.4-0.2c1.6-0.4,2.6-1.4,3.2-3c0.3-0.8,0.4-1.7,0.4-2.7
				c0-0.3,0-0.5,0-0.8c0-6.6,0-13.3,0-19.9c0-0.1,0-0.3,0-0.5c1.9,0,3.8,0,5.7,0c0,0.1,0,0.2,0,0.3c0,7,0,14,0,20.9
				c0,1.6-0.2,3.1-0.7,4.6c-1,3.2-3.2,5.3-6.5,6.2c-1.7,0.5-3.4,0.6-5.2,0.4c-1.2-0.1-2.4-0.3-3.4-0.8c-2.8-1.1-4.5-3.2-5.2-6.1
				c-0.3-1.3-0.5-2.7-0.5-4.1c0-7.1,0-14.1,0-21.1C103.3,30,103.3,29.9,103.3,29.8z"/>
			<path class="st5" d="M132.3,49.7c0,3.8,0,7.6,0,11.4c-1.9,0-3.7,0-5.6,0c0-10.4,0-20.9,0-31.3c0.1,0,0.2,0,0.3,0
				c3.9,0,7.8,0,11.7,0c2.6,0,4.7,1.2,6.2,3.2c1,1.3,1.6,2.8,1.9,4.5c0.4,2.2,0.3,4.4-0.4,6.5s-2,3.8-4.1,4.9
				c-1.1,0.6-2.4,0.9-3.7,0.9c-2,0-3.9,0-5.9,0C132.6,49.7,132.5,49.7,132.3,49.7z M132.3,44.4L132.3,44.4c0.2,0,0.3,0,0.4,0
				c1.5,0,3,0,4.6,0c0.4,0,0.7,0,1.1,0c1.6-0.1,2.8-0.9,3.4-2.5c0.5-1.3,0.5-2.7,0.1-4c-0.4-1.4-1.4-2.3-2.8-2.6
				c-0.4-0.1-0.8-0.1-1.3-0.1c-1.7,0-3.4,0-5.1,0c-0.1,0-0.2,0-0.3,0C132.3,38.3,132.3,41.3,132.3,44.4z"/>
			<path class="st5" d="M-154.3,29.8c6.3,0,12.6,0,18.9,0c0,1.8,0,3.6,0,5.4c-1.5,0-3,0-4.4,0c-1.5,0-3,0-4.4,0c-1.5,0-3,0-4.5,0
				c0,2.4,0,4.7,0,7.1c3.9,0,7.8,0,11.7,0c0,1.8,0,3.7,0,5.5c-0.4,0-0.8,0-1.2,0s-0.9,0-1.3,0s-0.8,0-1.3,0s-0.9,0-1.3,0
				c-0.4,0-0.8,0-1.3,0c-0.4,0-0.9,0-1.3,0s-0.9,0-1.3,0s-0.9,0-1.3,0c-0.4,0-0.9,0-1.3,0c0,4.4,0,8.8,0,13.2c-1.9,0-3.7,0-5.5,0
				C-154.3,50.6-154.3,40.2-154.3,29.8z"/>
			<path class="st5" d="M-35,29.8c0,1.8,0,3.6,0,5.4c-2.7,0-5.3,0-8,0c0,8.6,0,17.3,0,25.9c-1.9,0-3.7,0-5.6,0c0-8.6,0-17.2,0-25.9
				c-2.7,0-5.3,0-8,0c0-1.8,0-3.6,0-5.5C-49.4,29.8-42.2,29.8-35,29.8z"/>
			<path class="st5" d="M-20.6,35.2c0,8.7,0,17.3,0,25.9c-1.9,0-3.7,0-5.6,0c-0.1-0.9,0-1.9,0-2.8c0-1,0-1.9,0-2.9s0-1.9,0-2.8
				s0-1.9,0-2.9s0-1.9,0-2.9s0-1.9,0-2.9s0-1.9,0-2.8s0-1.9,0-2.9s0-1.9,0-2.9c-2.7,0-5.3,0-8,0c0-1.8,0-3.6,0-5.5
				c7.2,0,14.4,0,21.6,0c0,1.8,0,3.6,0,5.4C-15.3,35.2-17.9,35.2-20.6,35.2z"/>
			<path class="st5" d="M-128.6,61.1c-1.9,0-3.7,0-5.5,0c-0.1-0.3-0.1-30.9,0-31.3c1.8,0,3.7,0,5.5,0
				C-128.6,40.2-128.6,50.6-128.6,61.1z"/>
			<path class="st6" d="M153.9,34.7c-4,0-7.2-3.2-7.2-7.3c0-4,3.2-7.2,7.2-7.2s7.3,3.2,7.3,7.3C161.2,31.5,157.9,34.7,153.9,34.7z
				 M153.9,21.4L153.9,21.4c-3.4,0-6.1,2.7-6.1,6.1s2.7,6.1,6.1,6.1c3.4,0,6.1-2.7,6.1-6.1S157.3,21.4,153.9,21.4z"/>
			<path class="st6" d="M155.9,27.3c0.7,0.2,0.8,0.7,0.8,1.2c0,0.6,0,1.2,0,1.9c-0.5,0-0.9,0-1.4,0c0-0.2,0-0.3,0-0.6
				c0-0.4,0-0.8,0-1.2c0-0.6-0.2-0.8-0.8-0.8s-1.1,0-1.7,0c0,0.8,0,1.7,0,2.6c-0.5,0-0.9,0-1.3,0c0-2.2,0-4.4,0-6.6
				c0.1,0,0.2,0,0.3,0c1,0,2,0,3,0c0.3,0,0.5,0,0.8,0.1c1.2,0.3,1.6,1.7,1.2,2.6C156.6,26.9,156.3,27.1,155.9,27.3z M152.8,26.8
				L152.8,26.8c0.5,0,1,0,1.4,0c0.2,0,0.4,0,0.6,0c0.5-0.1,0.8-0.4,0.8-0.9s-0.3-0.8-0.8-0.8c-0.1,0-0.2,0-0.3,0c-0.5,0-1,0-1.5,0
				c-0.1,0-0.2,0-0.3,0C152.8,25.6,152.8,26.2,152.8,26.8z"/>
			<path class="st7" d="M-183.5,28.5h5.3h17.3l-4.5,6.2H-178v7.9h6.6v6.3h-6.6v14.9h-5.5v-29V28.5z M-190.1,28.5h-17.3l4.5,6.2h12.6
				v7.9h-6.6v6.3h6.6v9.3l5.5,5.6v-29v-6.2L-190.1,28.5L-190.1,28.5z"/>
		</g>
	</g>
</g>
<g id="Layer_4" class="st0">
	<g id="Layer_x0020_1_2_" class="st1">
		<g id="_340153784">
			<g>
				<path class="st8" d="M43.4,30.5c0-0.2,0-0.3,0-0.4c0.2,0,0.4,0,0.6,0c4.1,0,8.1,0,12.2,0c2,0,3.8,0.3,5.6,1.1
					c1.4,0.6,2.6,1.5,3.4,2.8c1.5,2.3,1.8,4.8,0.5,7.3c-0.5,0.9-1.2,1.7-2,2.3c-1,0.8-2.3,1.3-3.5,1.6c-0.3,0.1-0.5,0.1-0.8,0.2
					c-0.1,0-0.1,0.1-0.2,0.1c0.1,0.1,0.3,0.2,0.4,0.3c1.4,0.7,2.6,1.7,3.7,2.9c0.6,0.7,1.2,1.5,1.8,2.2c1.1,1.5,2.2,3.1,3.3,4.7
					c0.8,1.1,1.6,2.2,2.5,3.1c0.8,0.8,1.8,1.4,3,1.6c0.2,0,0.4,0.1,0.5,0.1c0,0,0,0.1,0,0.2c-0.7,0.1-4.4,0.1-6.6,0
					c-0.6-0.7-1.3-1.4-1.9-2.2c-1.8-2.4-3.5-4.8-5.2-7.2c-0.5-0.7-1-1.3-1.6-2c-0.8-0.9-1.6-1.6-2.6-2.2c-1.6-1-3.4-1.4-5.3-1.4
					c0,0-0.1,0-0.2,0.1c0,0.2,0,0.5,0,0.8c0,3.3,0,6.7,0,10c0,0.4,0,0.8,0.1,1.2c0.2,1,0.7,1.7,1.6,2.1c0.4,0.1,0.7,0.2,1.1,0.3
					c0.3,0.1,0.6,0.1,0.9,0.1c0.1,0,0.1,0.1,0.2,0.3c-0.2,0-0.3,0-0.5,0c-4,0.1-10.3,0-11.1-0.1c0-0.1,0.1-0.2,0.1-0.2
					c0.2-0.1,0.5-0.1,0.8-0.1c0.4-0.1,0.7-0.1,1.1-0.3c1.1-0.5,1.7-1.2,1.8-2.4c0-0.3,0-0.7,0-1c0-7.4,0-14.8,0-22.2
					c0-0.4,0-0.7,0-1.1c-0.1-1.1-0.6-1.8-1.6-2.3c-0.5-0.2-1-0.4-1.6-0.4C43.8,30.5,43.6,30.5,43.4,30.5z M51,45L51,45
					c0.7,0,1.4,0,2,0c1.1,0,2.3-0.1,3.4-0.3c1.1-0.2,2.2-0.5,3.2-1.1c1.3-0.8,2.1-1.9,2.5-3.4c0.2-1,0.3-2,0.1-3c-0.3-1.6-0.9-3-2-4
					c-0.9-0.8-1.8-1.4-3-1.7C55.6,31,54,30.9,52.3,31c-0.4,0-0.9,0-1.4,0.2C51,35.7,51,40.3,51,45z"/>
				<path class="st9" d="M189.7,29.2c4.3,0,8.3,1.1,11.9,3.5c2,1.3,3.7,3,5,5c3,4.6,3.1,10.9-0.2,15.8c-1.4,2-3.1,3.7-5.2,5
					c-2.7,1.7-5.7,2.7-8.9,3c-3.4,0.3-6.8,0-10.1-1.2c-3.1-1.1-5.8-2.8-7.9-5.3c-1.7-2-3-4.3-3.4-6.9c-0.7-3.7-0.1-7.1,1.9-10.3
					c1.4-2.2,3.2-4,5.4-5.4c2.5-1.6,5.3-2.6,8.3-3C187.4,29.2,188.6,29.2,189.7,29.2z M204.5,45.5L204.5,45.5c0-1.7-0.1-3.4-0.5-5.1
					c-0.8-3.4-2.7-5.9-5.5-7.9c-0.5-0.3-1.1-0.6-1.6-0.9c-2.2-0.9-4.5-1.5-6.9-1.5c-1.9,0-3.7,0.3-5.5,0.8c-2.2,0.7-4.2,1.8-5.8,3.5
					c-1.4,1.5-2.4,3.2-3,5.1c-0.4,1.2-0.6,2.5-0.7,3.8c-0.2,2.5-0.1,4.9,0.6,7.3c1.3,4.7,4.4,7.9,9.1,9.3c3.6,1.1,7.2,1,10.8-0.1
					c4.2-1.4,6.9-4.2,8.3-8.4C204.3,49.4,204.5,47.4,204.5,45.5z"/>
				<path class="st8" d="M19.9,29.2c4.3,0,8.4,1.1,12,3.6c2.3,1.5,4.1,3.5,5.4,6s1.8,5.1,1.5,7.9c-0.3,3.6-1.9,6.6-4.3,9.1
					c-2.5,2.5-5.4,4.2-8.8,5.1c-4.9,1.3-9.7,1-14.3-0.8C8.5,58.8,5.9,57,4,54.6c-1.5-1.8-2.6-3.9-3.1-6.2c-0.8-3.8-0.2-7.3,1.8-10.6
					c1-1.6,2.3-3,3.8-4.2c2.9-2.3,6.2-3.6,9.8-4.2C17.5,29.2,18.6,29.2,19.9,29.2z M4.9,45.4L4.9,45.4c0,1.6,0.1,3.3,0.6,4.9
					c1.3,4.9,4.4,8.1,9.2,9.6c3.6,1.1,7.3,1,11-0.2c1.9-0.6,3.5-1.6,4.9-3c1.7-1.7,2.8-3.7,3.4-5.9c0.9-3.5,0.9-7,0-10.5
					c-0.8-3.2-2.6-5.7-5.3-7.6c-0.6-0.4-1.2-0.8-1.8-1c-2.2-1-4.5-1.5-6.9-1.5c-1.6,0-3.2,0.2-4.7,0.6c-4.6,1.2-7.8,4.1-9.4,8.6
					C5.1,41.3,4.9,43.3,4.9,45.4z"/>
				<path class="st8" d="M84.2,45c0.2,0,0.5,0,0.7,0c2,0,3.9,0,5.9,0c1,0,2.1-0.1,3.1-0.4c1.2-0.3,1.9-1,2.1-2.3c0-0.1,0-0.2,0-0.2
					c0.1-0.1,0.2-0.1,0.3-0.1c0,0.1,0.1,0.2,0.1,0.3c0,2.1,0,4.1,0,6.2c0,0.2,0,0.3-0.1,0.4c-0.1,0-0.2-0.1-0.3-0.4
					c-0.1-0.4-0.3-0.9-0.5-1.2c-0.5-0.6-1.2-1.1-2-1.2c-0.7-0.1-1.4-0.1-2-0.1c-2.3,0-4.5,0-6.8,0c-0.1,0-0.3,0-0.3,0
					c-0.2,0.1-0.2,0.3-0.2,0.5c0,3.4,0,6.9,0,10.3c0,0.6,0.1,1.3,0.4,1.8c0.3,0.6,0.7,1,1.3,1.1c0.4,0.1,0.8,0.2,1.2,0.2
					c2.1,0,4.1,0,6.2,0c0.8,0,1.5-0.1,2.3-0.3c1.3-0.4,2.3-1.1,2.9-2.2c0.2-0.4,0.4-0.7,0.6-1.1c0-0.1,0.2-0.1,0.3-0.2
					c0,0.1,0.1,0.1,0.1,0.2c-0.4,1.5-0.8,3-1.2,4.5c-0.8,0.1-15.9,0.2-21.2,0.1c-0.1,0-0.3,0-0.5,0c0-0.1,0-0.2,0.1-0.2s0.3,0,0.5,0
					c0.8,0,1.4-0.3,2-0.7c0.7-0.4,1-1,1.2-1.8c0-0.3,0.1-0.7,0.1-1c0-7.6,0-15.2,0-22.8c0-0.7-0.1-1.5-0.5-2.1
					c-0.4-0.8-1-1.3-1.9-1.4c-0.5-0.1-0.9-0.1-1.4-0.2c0-0.1,0-0.1,0-0.2c0.7-0.1,20.9-0.1,21.6,0c0,0.1,0,0.2,0,0.4
					c0,1.3,0,2.6,0,3.9c0,0.1,0,0.3-0.1,0.4H98c-0.1-0.1-0.1-0.2-0.1-0.3c-0.1-1.5-1-2.4-2.3-3c-0.9-0.4-1.8-0.5-2.8-0.5
					c-0.4,0-0.8,0-1.3,0c-2.1,0-4.3,0-6.4,0c-0.3,0-0.5,0-0.8,0c0,0.1-0.1,0.2-0.1,0.3C84.2,36.1,84.2,40.6,84.2,45
					C84.1,44.7,84.2,44.8,84.2,45z"/>
				<path class="st10" d="M115.3,31.3c-0.1,0-0.3,0-0.5,0c-2.3,0-4.5,0-6.8,0c-1.1,0-2.3,0.1-3.3,0.5c-0.3,0.1-0.5,0.2-0.7,0.3
					c-0.8,0.3-1.3,0.9-1.7,1.6c-0.2,0.5-0.4,1-0.5,1.6c0,0.2,0,0.4-0.1,0.6c0,0.1-0.1,0.2-0.2,0.2c-0.2,0-0.2-0.1-0.2-0.3
					c0-0.1,0-0.3,0-0.4c0-2.1,0-4.1,0-6.2c0-0.2,0-0.3,0-0.5c0-0.1,0.2-0.2,0.3-0.1c0.1,0.1,0.2,0.2,0.3,0.3c0.5,0.6,1.1,1,1.9,1
					c0.6,0.1,1.2,0.1,1.7,0.1c2.1,0,4.3,0,6.4,0c5.6,0,11.3,0,16.9,0c0.4,0,0.8,0,1.3-0.1c0.9-0.1,1.8-0.5,2.4-1.1
					c0.2-0.2,0.3-0.4,0.6-0.3c0.1,0.5,0.1,6.2,0,7.4c-0.3,0.1-0.3,0.1-0.4-0.1c-0.1-0.4-0.1-0.8-0.2-1.1c-0.1-0.4-0.3-0.9-0.5-1.2
					c-0.3-0.6-0.8-1-1.4-1.3c-1-0.5-2-0.7-3-0.8c-0.3,0-0.6,0-0.9,0c-2.4,0-4.7,0-7.1,0c-0.1,0-0.3,0-0.5,0c0,0.2,0,0.4,0,0.6
					c0,8.3,0,16.6,0,24.9c0,0.4,0,0.7,0.1,1.1c0.2,1,0.7,1.6,1.6,2c0.5,0.3,1.1,0.3,1.7,0.4c0.1,0,0.3,0,0.5,0.1c0,0.1,0,0.2,0,0.2
					c-0.6,0.1-10.8,0.1-11.5,0c0-0.1,0.1-0.2,0.1-0.2c0.3-0.1,0.5-0.1,0.8-0.1c0.5-0.1,1-0.3,1.4-0.5c0.8-0.4,1.3-1.1,1.4-2
					c0-0.3,0-0.6,0-0.9c0-8.3,0-16.6,0-24.8C115.4,31.7,115.5,31.5,115.3,31.3z"/>
				<path class="st10" d="M168.2,28.6c0.1,0.9,0.1,6.8,0,7.4c-0.2,0.1-0.3,0-0.4-0.2c-0.1-0.4-0.1-0.7-0.2-1.1
					c-0.1-0.4-0.2-0.7-0.4-1c-0.4-0.8-0.9-1.3-1.7-1.7c-0.9-0.4-1.9-0.6-2.9-0.7c-0.4,0-0.8-0.1-1.2-0.1c-2.2,0-4.4,0-6.6,0
					c-0.2,0-0.4,0-0.6,0c-0.2,0.3-0.1,0.6-0.1,0.9c0,4.4,0,8.9,0,13.4c0,3.7,0,7.4,0,11.1c0,0.4,0,0.9,0.1,1.3c0.2,1,0.7,1.6,1.6,2
					c0.4,0.1,0.8,0.2,1.1,0.3s0.6,0.1,0.9,0.1c0,0,0.1,0.1,0.2,0.2c-0.1,0-0.2,0.1-0.3,0.1c-3.8,0-7.5,0-11.3,0
					c0.1-0.1,0.1-0.3,0.1-0.3c0.3-0.1,0.6-0.1,0.9-0.2c0.5-0.1,1-0.2,1.4-0.5c0.9-0.4,1.3-1.2,1.5-2.1c0-0.3,0-0.6,0-0.9
					c0-8.3,0-16.6,0-24.8c0-0.2,0-0.4,0-0.7c-0.2,0-0.3,0-0.5,0c-2.3,0-4.6,0-6.9,0c-1,0-1.9,0.1-2.8,0.4c-0.4,0.1-0.8,0.3-1.2,0.4
					c-0.8,0.3-1.3,0.9-1.7,1.7c-0.2,0.5-0.4,1-0.5,1.5c0,0.2-0.1,0.5-0.1,0.7s-0.2,0.2-0.4,0.1c0-0.1,0-0.2,0-0.3c0-2.3,0-4.5,0-6.8
					c0-0.1,0-0.2,0-0.2c0-0.2,0.3-0.2,0.4-0.1c0.1,0.1,0.2,0.2,0.3,0.3c0.5,0.5,1,0.9,1.7,1c0.4,0.1,0.8,0.1,1.2,0.1s0.7,0,1.1,0
					c7.6,0,15.2,0,22.9,0c0.4,0,0.8,0,1.2,0c1-0.1,1.8-0.5,2.5-1.2C167.7,28.7,167.8,28.5,168.2,28.6z"/>
				<path class="st11" d="M-41.2,30.1c7.2,0,14.4,0,21.6,0c0,0.1,0,0.3,0,0.4c0,1.3,0,2.6,0,3.9c0,0.1,0,0.2,0,0.3l-0.1,0.1h-0.1
					c-0.1-0.1-0.1-0.2-0.1-0.4c-0.1-0.4-0.3-0.8-0.5-1.2c-0.5-1-1.5-1.7-2.6-1.9c-0.5-0.1-1.1-0.2-1.6-0.2c-2.8,0-5.6,0-8.4,0
					c-0.1,0-0.3,0-0.5,0c0,0.2,0,0.3,0,0.5c-0.1,3.6,0,12.5,0.1,13.3c0.2,0,0.3,0,0.5,0c2.6,0,5.1,0,7.7,0c0.5,0,1,0,1.4-0.1
					c1.3-0.2,2.1-1,2.5-2.2c0-0.2,0.1-0.4,0.2-0.6c0,0,0.1-0.1,0.2-0.1c0,0,0.1,0.1,0.2,0.1c0,0.1,0,0.2,0,0.3c0,2,0,4,0,6
					c0,0.2,0,0.3-0.2,0.4c-0.1,0.1-0.2-0.1-0.3-0.3c0-0.1,0-0.2,0-0.2c-0.4-1.3-1.2-2.1-2.5-2.3c-0.5-0.1-1-0.1-1.5-0.1
					c-2.5,0-5.1,0-7.6,0c-0.1,0-0.3,0-0.4,0c-0.2,0.2-0.2,0.4-0.2,0.6c0,1.7,0,3.4,0,5c0,1.7,0,3.4,0,5.2c0,0.3,0,0.6,0,0.9
					c0.2,1.6,1.5,2.5,2.6,2.7c0.4,0.1,0.9,0.1,1.3,0.2c0.1,0.1,0.1,0.3-0.1,0.3s-0.4,0-0.5,0c-3.4,0-6.9,0-10.3,0
					c-0.2,0-0.4,0-0.5,0c0,0-0.1-0.1-0.1-0.2l0.1-0.1c0.3,0,0.7,0,1-0.1c1.5-0.2,2.6-1.4,2.7-2.9c0-0.3,0-0.5,0-0.8
					c0-7.4,0-14.9,0-22.3c0-0.3,0-0.6,0-0.9c-0.1-1.5-0.8-2.4-2.5-2.7c-0.4-0.1-0.8-0.1-1.2-0.1C-41.3,30.4-41.3,30.3-41.2,30.1z"/>
				<path class="st8" d="M-3.9,60.7c-3.9,0-7.6,0-11.4,0c-0.1-0.2-0.1-0.3,0.1-0.3c0.2-0.1,0.5-0.1,0.8-0.1c0.6-0.1,1.1-0.3,1.5-0.5
					c0.7-0.4,1.1-1,1.3-1.7c0.1-0.4,0.1-0.9,0.1-1.3c0-2.6,0-5.3,0-7.9c0-4.9,0-9.8,0-14.6c0-0.5,0-1-0.1-1.5
					c-0.1-0.8-0.6-1.4-1.4-1.7c-0.5-0.2-1-0.4-1.5-0.5c-0.2,0-0.5,0-0.8-0.1c-0.1,0-0.1-0.1-0.2-0.3c0.2,0,0.4,0,0.5,0
					c3.5,0,7,0,10.5,0c0.1,0,0.3,0,0.4,0l0.1,0.1c0,0,0,0.1-0.1,0.1c-0.2,0-0.5,0.1-0.7,0.1c-0.6,0-1.1,0.2-1.6,0.5
					c-0.9,0.5-1.3,1.2-1.4,2.1c0,0.3,0,0.6,0,1c0,7.5,0,15,0,22.6c0,0.3,0,0.6,0,1c0.1,0.9,0.5,1.6,1.3,2c0.5,0.3,1.1,0.6,1.7,0.7
					c0.2,0,0.5,0,0.7,0.1C-4,60.4-3.9,60.6-3.9,60.7z"/>
				<path class="st12" d="M208.8,70.6c0,0.2,0,0.4,0,0.5c0,0-0.1,0-0.1,0.1c0,0,0,0-0.1,0c-31.7,0-63.5,0-95.2,0c-0.1,0-0.2,0-0.3,0
					c-0.2-0.2-0.2-0.4-0.1-0.5l0.1-0.1c0.3,0,0.5,0,0.8,0c31.3,0,62.6,0,93.9,0C208.1,70.6,208.4,70.6,208.8,70.6z"/>
				<path class="st13" d="M40.1,70.6c0,0.3,0,0.4,0,0.5c-0.1,0-0.1,0.1-0.1,0.1c-0.3,0-0.6,0-0.9,0c-26.5,0-52.9,0-79.4,0
					c-0.3,0-0.6,0-1,0c0-0.2,0-0.4,0-0.5c0.1,0,0.1-0.1,0.2-0.1c0.3,0,0.5,0,0.8,0c26.5,0,53.1,0,79.6,0
					C39.5,70.6,39.8,70.6,40.1,70.6z"/>
				<path class="st14" d="M65.7,67.9c-1.1,2.3-2,4.5-3,6.8c-0.4,0.2-0.7,0.1-1,0c-0.4-1.1-0.9-2.3-1.3-3.4C60,70.1,59.6,69,59,67.9
					c-0.1,0.4-0.1,0.7-0.1,1.1s0,0.8,0,1.2c0,0.4,0,0.7,0,1.1s0,0.7,0,1.1s0,0.8,0,1.2c0,0.4,0,0.7,0,1.1c-0.4,0.2-0.7,0.2-1,0.1
					c0-0.2-0.1-0.3-0.1-0.5c0-2.3,0-4.6,0-6.9c0-0.7,0.1-0.8,0.8-0.8c0.1,0,0.2,0,0.2,0c0.5,0,0.9,0.2,1.1,0.7
					c0.6,1.5,1.2,3,1.8,4.5c0.2,0.4,0.3,0.8,0.5,1.3c0.1-0.2,0.2-0.4,0.3-0.5c0.7-1.7,1.4-3.4,2.1-5.1c0.4-0.9,0.5-1,1.6-1
					c0.3,0,0.5,0.2,0.5,0.5c0,0.1,0,0.3,0,0.5c0,2.2,0,4.4,0,6.6c0,0.2,0,0.4,0,0.6c-0.3,0.2-0.6,0.1-0.9,0.1
					c-0.2-0.2-0.1-0.5-0.1-0.7c0-1.8,0-3.6,0-5.3C65.8,68.4,65.8,68.2,65.7,67.9z"/>
				<path class="st15" d="M51.2,73c0.1-0.2,0.2-0.4,0.3-0.6c0.7-1.6,1.4-3.3,2.1-4.9c0.1-0.1,0.1-0.3,0.2-0.4
					c0.2-0.4,0.5-0.5,0.9-0.5c1.1,0,1.1,0.1,1.1,1c0,2.1,0,4.3,0,6.4c0,0.2,0,0.5,0,0.7c-0.4,0.2-0.7,0.2-1,0c-0.1-0.8,0-1.5,0-2.3
					c0-0.7,0-1.5,0-2.2c0-0.8,0-1.5,0-2.3c-0.3,0-0.3,0.2-0.3,0.3c-0.8,1.9-1.6,3.8-2.4,5.7V74c-0.3,0.7-0.3,0.8-1.2,0.6
					c-0.2-0.2-0.3-0.5-0.4-0.8c-0.7-1.7-1.4-3.4-2-5.2c-0.1-0.3-0.2-0.6-0.4-0.8c-0.1,0-0.1,0-0.1,0s0,0,0,0.1c0,2.2,0,4.4,0,6.5
					c0,0,0,0,0,0.1c-0.3,0.2-0.6,0.2-1,0c0-0.2,0-0.3,0-0.5c0-2.3,0-4.5,0-6.8c0-0.8,0.1-0.9,0.9-0.9c0.1,0,0.3,0,0.4,0
					c0.4,0,0.6,0.2,0.8,0.6c0.1,0.1,0.1,0.3,0.2,0.4c0.6,1.6,1.3,3.2,1.9,4.8C50.9,72.5,50.9,72.8,51.2,73z"/>
				<path class="st16" d="M108.6,72.9c0-2.1,0-4.1,0-6.2c0,0,0,0,0-0.1c0.4-0.2,0.4-0.2,0.9,0c0,0.1,0,0.3,0,0.4c0,2.3,0,4.6,0,6.9
					c0,0.8-0.3,0.8-0.9,0.8c-0.3,0-0.5-0.1-0.6-0.3c-0.1-0.2-0.3-0.4-0.4-0.7c-1-1.8-2-3.6-3-5.4c-0.1-0.1-0.1-0.2-0.2-0.3h-0.1l0,0
					c0,2.1,0,4.3,0,6.4c-0.3,0.2-0.6,0.2-1,0.1c0-0.2-0.1-0.3-0.1-0.5c0-2.3,0-4.6,0-6.9c0-0.1,0-0.2,0-0.3c0-0.4,0.2-0.5,0.5-0.5
					c0.1,0,0.3,0,0.4,0c0.4,0,0.6,0.1,0.8,0.5c0.1,0.2,0.2,0.4,0.3,0.5c1,1.7,1.9,3.4,2.8,5.1c0,0.1,0.1,0.2,0.2,0.3
					C108.5,72.9,108.6,72.9,108.6,72.9z"/>
				<path class="st17" d="M81.8,70.3c0.2,0.1,0.3,0.2,0.5,0.3c1.3,0.7,1.3,2.8,0,3.7c-0.5,0.3-1,0.5-1.5,0.5c-0.8,0-1.7,0-2.5,0
					c-0.4,0-0.5-0.1-0.5-0.5c0-0.1,0-0.3,0-0.4c0-2.1,0-4.3,0-6.4c0-0.9,0-0.9,1-0.9c0.6,0,1.1,0,1.7,0c0.3,0,0.7,0.1,1,0.2
					c1.3,0.5,1.7,2,0.9,3.1C82.2,70,82,70.1,81.8,70.3z M78.9,73.8L78.9,73.8c0.7,0,1.4,0.1,2,0c0.8-0.1,1.3-0.8,1.1-1.6
					c-0.1-0.6-0.5-1-1.1-1.2c-0.7-0.1-1.3-0.1-2,0C78.8,71.9,78.8,72.8,78.9,73.8z M78.9,70L78.9,70c0.5,0,1,0,1.4,0
					c0.9,0,1.4-0.8,1.2-1.6c-0.1-0.4-0.2-0.7-0.5-0.8c-0.3-0.1-0.6-0.2-0.9-0.2c-0.4,0-0.8-0.1-1.2,0.1C78.9,68.3,78.8,69.1,78.9,70
					z"/>
				<path class="st18" d="M76,70.9c-0.1,0.4-0.1,1-0.3,1.5c-0.4,1.4-1.4,2.2-2.8,2.4c-0.7,0.1-1.4,0.1-2.1-0.1
					c-0.9-0.3-1.6-0.9-1.9-1.8c-0.5-1.5-0.5-3,0-4.5c0.4-1,1.1-1.7,2.2-1.9c0.8-0.2,1.7-0.2,2.5,0c1,0.3,1.6,0.9,2,1.8
					C75.9,69,76,69.8,76,70.9z M74.9,70.6L74.9,70.6c0-0.7-0.1-1.3-0.4-1.9c-0.2-0.5-0.6-1-1.2-1.2c-1.5-0.6-3,0.1-3.4,1.7
					c-0.3,0.9-0.2,1.9,0,2.8c0,0.2,0.1,0.5,0.2,0.7c0.2,0.4,0.5,0.8,1,1c1.5,0.7,3.1,0,3.6-1.6C74.8,71.6,74.8,71.1,74.9,70.6z"/>
				<path class="st19" d="M101.4,67.4c-1.1,0.1-2.1,0-3.2,0.1c-0.1,0.8-0.1,1.6,0,2.5c0.2,0,0.4,0,0.5,0c0.7,0,1.3,0,2,0
					c0.3,0,0.4,0.1,0.4,0.4s-0.1,0.5-0.4,0.5c-0.6,0-1.1,0-1.7,0c-0.3,0-0.6,0-0.9,0c-0.1,1,0,1.9,0,2.8c0.2,0,0.3,0,0.5,0
					c0.8,0,1.5,0,2.3,0c0.2,0,0.4,0,0.6,0c0.1,0.4,0.1,0.4,0,0.8c-0.1,0-0.3,0-0.5,0c-1.1,0-2.2,0-3.3,0c-0.1,0-0.3,0-0.4,0
					c-0.2,0-0.3-0.1-0.3-0.3c0-0.1,0-0.3,0-0.5c0-2.2,0-4.5,0-6.7c0-0.1,0-0.3,0-0.4c0-0.2,0.1-0.3,0.4-0.4c0.1,0,0.3,0,0.4,0
					c1.1,0,2.2,0,3.2,0c0.5,0,0.6,0.1,0.5,0.7C101.5,67.2,101.4,67.3,101.4,67.4z"/>
				<path class="st19" d="M88.2,66.6c0.4-0.2,0.7-0.2,1,0c0,1.1,0,2.3,0,3.5s0,2.4,0,3.6c0.2,0,0.3,0.1,0.5,0.1c0.7,0,1.3,0,2,0
					c0.2,0,0.4,0,0.6,0c0.2,0.3,0.2,0.5,0.1,0.8c-0.1,0-0.3,0.1-0.4,0.1c-1,0-2.1,0-3.1,0c-0.1,0-0.2,0-0.3,0
					c-0.2,0-0.3-0.1-0.3-0.3c0-0.1,0-0.3,0-0.4c0-2.4,0-4.7,0-7.1C88.2,66.8,88.2,66.7,88.2,66.6z"/>
				<path class="st19" d="M93.7,74.7c-0.1-0.8-0.1-7.5,0-8.1c0.5-0.2,0.5-0.2,1,0c0,0,0,0,0,0.1c0,0,0,0,0,0.1c0,2.5,0,5.1,0,7.6
					c0,0.1,0,0.2,0,0.3C94.4,74.9,94.1,74.8,93.7,74.7z"/>
				<path class="st19" d="M43.3,66.6c0.4-0.2,0.7-0.2,1.1,0c0.1,0.6,0,1.3,0,2s0,1.4,0,2s0,1.3,0,2s0,1.4,0,2
					c-0.4,0.2-0.7,0.2-1,0.1c0,0,0-0.1-0.1-0.1c0,0,0,0,0-0.1c0-2.4,0-4.9,0-7.3C43.3,67.1,43.3,66.9,43.3,66.6z"/>
				<path class="st19" d="M85.9,66.6c0.1,0.6,0.1,7.4,0,8.1c-0.3,0.2-0.6,0.1-1,0c0,0,0,0,0-0.1c0,0,0,0,0-0.1c0-2.5,0-5.1,0-7.6
					c0-0.1,0-0.2,0-0.3C85.2,66.4,85.6,66.4,85.9,66.6z"/>
			</g>
			<g>
				<path class="st20" d="M-51,65.8c-0.2,0.6-0.6,1-0.9,1.5c-0.3,0.4-0.6,0.9-1,1.3c-0.6-0.4-1.1-1-1.6-1.4c-0.5-0.5-1.1-1-1.6-1.5
					c-0.4,0.4-0.6,0.8-0.9,1.3c0.7,0.8,1.6,1.4,2.3,2.2c-0.3,0.6-0.8,1.2-1.2,1.8c-0.4,0.6-0.8,1.2-1.2,1.8
					c-0.4,0.6-0.8,1.2-1.2,1.8c-0.4,0.6-0.8,1.2-1.3,1.8c-0.5-0.4-1-0.9-1.5-1.3c0.5-0.8,1-1.5,1.5-2.3c-0.4-0.3-0.7-0.6-0.9-0.9
					c-0.2,0-0.3,0.1-0.4,0.2c-0.4,0.5-0.7,1-1.1,1.5c-0.1,0.1-0.2,0.2-0.2,0.3c-0.5-0.4-2-1.7-2.3-2.2c0.3-0.6,2.1-3.3,2.5-3.7
					c0.6,0.6,1.3,1.2,1.9,1.8c0.4-0.3,0.5-0.4,0.8-1.1c-0.6-0.7-1.3-1.2-1.9-1.9c0.3-0.7,0.9-1.3,1.2-2c-0.2-0.3-0.5-0.5-0.8-0.8
					c-0.3,0.3-0.5,0.6-0.7,0.9s-0.4,0.6-0.7,0.9c-0.8-0.5-1.3-1.3-2-1.8c-0.4,0.3-0.5,0.7-0.8,1.1c0.7,0.6,1.3,1.2,2,1.9
					c-0.1,0.4-0.4,0.7-0.6,1c-0.2,0.3-0.4,0.6-0.6,0.9s-0.4,0.6-0.6,1c-0.2,0.3-0.4,0.6-0.7,0.9c-0.2-0.1-0.3-0.2-0.4-0.3
					c-0.6-0.6-1.3-1.2-1.9-1.8c0.5-0.8,1-1.5,1.5-2.2c-0.3-0.4-0.6-0.6-1-0.9c-0.4,0.3-0.5,0.7-0.8,1.1s-0.5,0.7-0.7,1
					c-0.5-0.3-1.1-0.9-1.4-1.3l0,0c0,0,0,0,0-0.1c1.6-2.3,3.1-4.5,4.7-6.8c0,0,0.1-0.1,0.1-0.2c0.1,0.1,0.3,0.2,0.4,0.3
					c0.5,0.5,1.1,1,1.6,1.5c0.1,0.1,0.2,0.2,0.3,0.3c0.4-0.4,0.6-0.9,0.9-1.2c0-0.1,0-0.1,0-0.1s0,0,0-0.1l-14.6-13.4
					c-0.1,0.1-0.3,0.2-0.4,0.3c-0.4,0.4-1,0.3-1.3-0.2c-0.1-0.1-0.1-0.2-0.2-0.4c-0.6,0.1-1-0.2-1.3-0.7c-0.2,0-0.4,0.2-0.5,0.3
					c-1,0.8-2.2,1.3-3.4,1.6c-1.1,0.2-2.2,0.1-3.3-0.2c-0.1-0.1-0.3-0.1-0.5-0.2c0,0.2,0,0.3,0,0.5s-0.1,0.5-0.1,0.6
					c-0.1,0.3-0.3,0.4-0.6,0.4c-0.4,0-0.7,0.1-1-0.1c-1-0.5-1.7-1.2-2-2.3c0-0.2-0.1-0.4,0-0.6c0-0.4,0.3-0.7,0.7-0.8
					c0.1,0,0.3-0.1,0.4-0.1c0-0.1,0-0.2-0.1-0.3c-0.8-1.5-1.1-3.1-1.1-4.7c0-1.6,0.4-3.1,1-4.6c0-0.1,0.1-0.2,0.1-0.3c0,0,0,0,0-0.1
					c0,0,0-0.1-0.1-0.1c-0.6-0.1-0.8-0.6-0.8-1.1c0-0.2,0-0.5,0.1-0.7c0.2-0.8,0.6-1.5,1.3-2c0.2-0.2,0.5-0.4,0.7-0.5
					c0.4-0.2,0.8,0,1.1,0.3c0.1,0.1,0.1,0.2,0.2,0.4c0.1-0.1,0.3-0.2,0.4-0.3c0.8-0.7,1.7-1.3,2.7-1.7c1.6-0.6,3.3-0.8,5-0.1
					c0.1,0,0.1,0,0.2,0c0,0,0,0,0.1,0c0-0.1,0-0.2,0-0.3c0-0.1,0-0.3,0-0.5c0.1-0.5,0.4-0.8,0.9-0.8c0.2,0,0.4,0,0.6,0.1
					c1.1,0.5,1.9,1.2,2.2,2.4c0.1,0.2,0,0.5,0,0.7c-0.1,0.4-0.3,0.6-0.6,0.7c-0.1,0-0.3,0.1-0.5,0.1c0.3,0.6,0.5,1.2,0.7,1.8
					c0.2,0.6,0.3,1.2,0.4,1.9c0.1,0.6,0.1,1.2,0.1,1.8s-0.1,1.3-0.3,1.9c-0.1,0.6-0.3,1.2-0.5,1.9c0.5,0.2,0.9,0.6,0.9,1.3
					c0.4,0.1,0.8,0.3,1,0.8s0,0.8-0.2,1.2L-51,65.8z M-88.9,39.3L-88.9,39.3c0,1,0.2,2,0.6,2.9c0.6,1.1,1.5,1.7,2.8,1.8
					c1.2,0.1,2.3-0.2,3.1-1.2c0.5-0.6,0.8-1.4,0.9-2.2c0-0.4,0.2-0.6,0.5-0.8c1.1-0.5,1.8-1.4,2-2.6c0.3-1.3,0.1-2.5-0.5-3.6
					c-0.7-1.6-2.4-2.4-4.1-2c-0.8,0.2-1.5,0.5-2.1,1C-87.7,34.3-88.7,36.6-88.9,39.3z"/>
				<path class="st21" d="M-72.4,50.9l-6.9,6.5c-0.8,0.8-1.7,1.5-2.5,2.3c-0.1,0.1-0.2,0.2-0.3,0.3c0.3,0.4,0.6,0.8,0.9,1.3
					c0.1-0.1,0.2-0.1,0.3-0.2c0.5-0.5,1.1-1,1.7-1.6c0.1-0.1,0.2-0.1,0.4-0.2c0.1,0.1,0.2,0.1,0.2,0.2c1.5,2.3,3.1,4.5,4.6,6.7
					c0,0,0,0.1,0.1,0.2c-0.2,0.4-0.9,1-1.5,1.4c-0.5-0.7-1-1.4-1.5-2.2c-0.2,0.2-0.4,0.3-0.5,0.5c-0.1,0.1-0.3,0.3-0.5,0.4
					c0.4,0.8,1,1.5,1.5,2.3c-0.3,0.4-1.8,1.8-2.3,2.2c0,0-0.1,0-0.2-0.1c-0.8-1.2-1.6-2.3-2.4-3.5c0.2-0.5,0.7-0.7,1-1
					s0.7-0.6,1-0.9c-0.2-0.4-0.5-0.7-0.7-1.1c-0.4,0.3-0.7,0.6-1,0.9s-0.7,0.6-1,0.9c-0.5-0.6-0.9-1.3-1.4-1.9
					c-0.3,0.2-0.6,0.4-0.8,0.7c0.4,0.7,0.9,1.2,1.3,1.9c-0.1,0.1-0.1,0.2-0.2,0.3c-0.5,0.4-0.9,0.8-1.3,1.2
					c-0.1,0.1-0.3,0.2-0.4,0.4c0.2,0.4,0.5,0.8,0.8,1.1c0.7-0.6,1.3-1.2,2-1.8c0.4,0.4,2.2,3,2.6,3.7c-0.3,0.4-1.5,1.6-2.3,2.2
					c-0.1-0.1-0.2-0.2-0.2-0.3c-0.3-0.4-0.6-0.9-0.9-1.3c-0.1-0.2-0.3-0.4-0.4-0.5c-0.3,0-0.4,0.2-0.6,0.4c-0.1,0.1-0.3,0.3-0.5,0.5
					c0.1,0.1,0.1,0.3,0.2,0.4c0.3,0.5,0.7,1,1,1.5c0.1,0.1,0.2,0.3,0.2,0.4c-0.4,0.5-0.9,0.9-1.4,1.3c-0.3,0-0.3-0.2-0.4-0.4
					c-1.1-1.5-2.1-3.1-3.2-4.7c-0.4-0.6-0.8-1.2-1.2-1.8c0-0.1-0.1-0.2-0.2-0.3c0.1-0.1,0.1-0.2,0.2-0.3c0.5-0.5,1-1,1.5-1.4
					c0.1-0.1,0.3-0.3,0.5-0.5c-0.3-0.4-0.6-0.8-0.8-1.2c-0.2,0-0.3,0.1-0.4,0.2c-0.8,0.7-1.6,1.5-2.4,2.2c-0.2,0.2-0.3,0.4-0.5,0.4
					c-0.4-0.4-1.5-2.1-1.9-2.6c0-0.2,0.2-0.3,0.3-0.4c1.7-1.5,3.3-3.1,5-4.6c3.4-3.2,6.9-6.4,10.4-9.6l2.7-2.6L-72.4,50.9z
					 M-69.3,43.7c0-0.1,0-0.2-0.1-0.3c-0.4-0.9-0.1-1.5,0.8-1.7c0.1-0.9,0.1-0.9,0.9-1.4c-1-3.1-1.1-6.1,0.5-9.1
					c-0.1,0-0.2-0.1-0.3-0.1c-0.7-0.2-1-0.6-0.9-1.3c0-0.2,0.1-0.5,0.2-0.7c0.3-0.7,0.9-1.3,1.5-1.6c0.3-0.2,0.7-0.3,1-0.3
					c0.5,0,0.9,0.3,0.9,0.8c0,0.2,0,0.5,0,0.8c0.1,0,0.2,0,0.3,0c2-0.8,3.9-0.6,5.7,0.4c0.8,0.4,1.5,0.9,2.1,1.5
					c0.1,0.1,0.2,0.1,0.3,0.2c0.2-0.1,0.2-0.3,0.3-0.4c0.3-0.3,0.6-0.5,1-0.3c0.2,0.1,0.5,0.2,0.7,0.3c0.8,0.6,1.3,1.4,1.5,2.3
					c0,0.3,0,0.6,0,0.9c-0.1,0.4-0.3,0.7-0.7,0.7c-0.1,0-0.1,0-0.2,0.1c1.4,3.3,1.7,6.7-0.1,9.9c0.1,0.2,0.3,0.1,0.4,0.2
					c0.5,0.1,0.7,0.4,0.8,0.8c0,0.2,0,0.4,0,0.6c-0.3,1.1-1,1.8-2,2.3c-0.3,0.2-0.7,0.2-1,0.1c-0.4,0-0.6-0.4-0.7-0.8
					c0-0.2,0-0.5,0-0.8c-2.9,1.1-5.4,0.4-7.8-1.5c-0.3,0.2-0.4,0.6-0.7,0.7c-0.2,0-0.4,0-0.7,0.1c0,0.1-0.1,0.2-0.2,0.3
					c-0.3,0.5-0.9,0.6-1.4,0.3c-0.1-0.1-0.1-0.2-0.3-0.3c-0.1,0.1-0.3,0.2-0.4,0.3c-0.6,0.5-1.1,1-1.7,1.5l-2.5-2.2L-69.3,43.7z
					 M-55.5,39.4L-55.5,39.4c0.1-2.6-1.3-5.3-3.2-6.7c-0.7-0.5-1.5-0.9-2.4-1.1c-1.6-0.3-2.9,0.3-3.7,1.6c-0.8,1.3-1,2.6-0.7,4.1
					c0.3,1.2,0.9,2.1,2.1,2.6c0.3,0.1,0.5,0.3,0.5,0.6c0,0.1,0,0.2,0,0.3c0.1,0.8,0.5,1.6,1.1,2.2c1.6,1.6,4.5,1.2,5.6-0.7
					C-55.6,41.4-55.4,40.4-55.5,39.4z"/>
			</g>
		</g>
	</g>
</g>
<g id="Layer_5">
	<g>
		<g id="Layer_x0020_1_12_">
			<g id="_799148128_8_">
				<path class="st22" d="M29.7,36.8c-1.3-0.7-2.8-1.1-4.4-1.1c-2.6,0-5,1-6.7,2.8c-1.7,1.7-2.7,4-2.7,6.6s1,5,2.7,6.6
					c1.7,1.7,4.1,2.8,6.7,2.8c1.6,0,3.1-0.4,4.4-1.1c1.3-0.6,2.3-1.6,3.2-2.7c0.2-0.3,0.3-0.6,0.6-0.8c0.6-0.6,1.3-1.2,2.1-1.6
					c0.9-0.5,2-0.7,3.1-0.7c0.8,0,1.6,0.2,2.4,0.5c0.6,0.2,1.1,0.5,1.6,0.8s0.9,0.7,1.4,1c0.3,0.2,0.7,0.4,1.1,0.6
					c0.6,0.2,1.2,0.3,1.8,0.3c1.6,0,3-0.6,4-1.7s1.7-2.4,1.7-4l0,0l0,0c0-1.6-0.6-3-1.7-4s-2.4-1.7-4-1.7c-0.6,0-1.3,0.2-1.8,0.3
					c-0.4,0.2-0.8,0.3-1.1,0.6c-0.6,0.3-0.9,0.7-1.4,1.1c-0.5,0.3-1,0.6-1.6,0.8c-0.8,0.2-1.6,0.4-2.4,0.4c-1.1,0-2.1-0.2-3.1-0.7
					c-0.8-0.4-1.5-0.9-2.1-1.5c-0.3-0.3-0.4-0.6-0.6-0.9C32,38.4,30.9,37.4,29.7,36.8z"/>
				<path class="st22" d="M34.9,54.8c2-1.9,5-1.9,7,0c1.9,2,1.9,5,0,7c-2.2,2.2-4.8,3.9-7.7,5.1c-2.8,1.1-5.8,1.7-9,1.7
					c-6.5,0-12.4-2.6-16.6-6.9l0,0C4.3,57.4,1.7,51.5,1.7,45s2.7-12.4,6.9-16.6l0.3-0.3c4.2-4.1,10-6.6,16.3-6.6
					c3.2,0,6.2,0.6,9,1.8c2.9,1.2,5.5,2.9,7.7,5.1c1.9,1.9,1.9,5,0,6.9c-2,2-5,2-7,0c-1.3-1.3-2.8-2.3-4.4-3c-1.7-0.6-3.4-1-5.3-1
					c-3.6,0-7,1.5-9.5,3.8l-0.2,0.2c-2.4,2.5-4,5.9-4,9.7s1.6,7.3,4,9.7l0,0c2.5,2.5,5.9,4,9.7,4c1.9,0,3.6-0.3,5.3-1
					C32.1,57.1,33.6,56.1,34.9,54.8z"/>
			</g>
			<path class="st22" d="M84.4,52.4c1.2-1.2,3.2-1.2,4.4,0c1.3,1.3,1.3,3.2,0,4.5c-1.5,1.6-3.3,2.8-5.4,3.5c-2,0.9-4.1,1.3-6.3,1.3
				c-4.5,0-8.7-1.8-11.6-4.8c-3-3-4.9-7.1-4.9-11.7s1.9-8.7,4.9-11.7c2.9-3,7.1-4.8,11.6-4.8c2.2,0,4.3,0.4,6.3,1.3
				c2.1,0.8,3.9,2.1,5.4,3.5c1.3,1.3,1.3,3.2,0,4.5c-1.2,1.3-3.2,1.3-4.4,0c-1-0.9-2.1-1.7-3.3-2.2c-1.2-0.5-2.5-0.8-3.9-0.8
				c-2.8,0-5.3,1.2-7.2,3c-1.8,1.8-2.9,4.4-2.9,7.2s1.1,5.4,2.9,7.2c1.9,1.9,4.4,3,7.2,3c1.4,0,2.8-0.2,3.9-0.8
				C82.3,54.1,83.4,53.4,84.4,52.4z M203.1,59.7c-0.7,1.6-2.6,2.3-4.2,1.5c-1.6-0.7-2.3-2.5-1.5-4.2l12-26.1c1.1-2.5,4.7-2.4,5.8,0
				l12,26.1c0.7,1.7,0,3.5-1.6,4.2c-1.6,0.8-3.5,0.1-4.2-1.5l-2.5-5.5h-13.3L203.1,59.7z M216,47.8l-3.7-8.1l-3.7,8.1
				C208.6,47.8,216,47.8,216,47.8z M155.3,58.3c0,1.7-1.4,3.2-3.2,3.2c-1.7,0-3.2-1.4-3.2-3.2V32.1c0-1.7,1.4-3.2,3.2-3.2
				c1.7,0,3.2,1.4,3.2,3.2V58.3z M167.3,58.3c0,4.2-6.4,4.2-6.4,0V32.1c0-3.3,4.5-4.3,6-1.4l10.6,17.2l10.6-17.2
				c1.5-2.9,6-1.9,6,1.4v26.2c0,4.2-6.4,4.2-6.4,0v-15l-7.5,12.2c-1.2,2.1-4.2,2.1-5.4,0l-7.5-12.2L167.3,58.3L167.3,58.3z
				 M127.3,42.1h10.9c1.7,0,3.2,1.4,3.2,3.2c0,1.7-1.4,3.2-3.2,3.2h-10.9v10c0,1.7-1.4,3.2-3.2,3.2c-1.7,0-3.2-1.4-3.2-3.2V45.2
				V32.1c0-1.7,1.4-3.2,3.2-3.2h17.4c1.7,0,3.2,1.4,3.2,3.2c0,1.7-1.4,3.2-3.2,3.2h-14.1L127.3,42.1L127.3,42.1z M114.4,55.2
				c4.2,0,4.2,6.4,0,6.4H97.1c-1.7,0-3.2-1.4-3.2-3.2V45.2V32.1c0-1.7,1.4-3.2,3.2-3.2h17.3c4.2,0,4.2,6.3,0,6.3h-14.1V42h10.9
				c1.8,0,3.2,1.4,3.2,3.2c0,1.7-1.4,3.2-3.2,3.2h-10.9v6.8C100.3,55.2,114.4,55.2,114.4,55.2z"/>
		</g>
	</g>
</g>
<g id="Layer_6" class="st0">
	<g id="Layer_x0020_1_4_" class="st1">
		<path class="st23" d="M221.6,45.5c0,2.1-0.2,4.2-0.6,6.3c-0.3,1.5-0.8,2.8-1.5,4.1c-1.6,2.9-4,4.8-7.3,5.6c-2.5,0.6-4.9,0.6-7.4,0
			c-3.2-0.8-5.6-2.7-7.1-5.6c-0.9-1.6-1.4-3.3-1.7-5.1c-0.5-2.7-0.6-5.5-0.4-8.2c0.2-2.3,0.6-4.5,1.5-6.6c0.8-2,1.9-3.7,3.6-5
			c1.6-1.3,3.4-2.2,5.5-2.5s4.1-0.3,6.2,0.3c2.9,0.8,5,2.5,6.6,5c1,1.7,1.7,3.6,2.1,5.5C221.5,41.2,221.7,43.3,221.6,45.5z
			 M216,45.4L216,45.4c0-1.7-0.1-3.3-0.5-4.9c-0.3-1.3-0.8-2.6-1.5-3.8c-0.9-1.2-2-2.1-3.4-2.4c-0.9-0.2-1.9-0.3-2.8-0.2
			c-1.3,0.1-2.5,0.6-3.5,1.5c-0.9,0.8-1.5,1.8-2,2.8c-0.6,1.5-0.9,3-1,4.6c-0.2,2-0.1,4,0.1,6c0.2,1.1,0.4,2.2,0.9,3.3
			c0.7,1.5,1.8,2.7,3.3,3.4c1,0.4,2,0.6,3.1,0.6c1.9,0,3.6-0.8,4.9-2.2c1-1.1,1.5-2.4,1.9-3.8C215.9,48.6,216,47,216,45.4z
			 M104.9,45.4c0,2.3-0.2,4.6-0.8,6.8c-0.3,1.3-0.8,2.6-1.4,3.7c-1.5,2.8-3.9,4.7-7,5.4c-2.6,0.6-5.2,0.6-7.8-0.1
			c-2.9-0.8-5.1-2.6-6.7-5.2c-1-1.6-1.5-3.4-1.9-5.2c-0.5-2.8-0.6-5.5-0.4-8.3c0.2-2.1,0.5-4.1,1.2-6.1c0.8-2.1,1.9-4,3.6-5.5
			c1.6-1.5,3.6-2.4,5.7-2.7c2.1-0.3,4.1-0.3,6.2,0.3c3,0.8,5.2,2.6,6.8,5.3c1,1.8,1.7,3.7,2.1,5.7C104.8,41.6,104.9,43.5,104.9,45.4
			z M99.3,45.3L99.3,45.3c0-1.7-0.1-3.3-0.5-5c-0.3-1.3-0.8-2.6-1.6-3.7c-0.9-1.2-2-1.9-3.4-2.3C92.9,34,91.9,34,91,34.1
			c-1.2,0.1-2.2,0.5-3.1,1.2c-1,0.7-1.6,1.7-2.1,2.8c-0.7,1.5-1,3-1.1,4.6c-0.2,1.5-0.2,3-0.1,4.5c0.1,1.3,0.3,2.7,0.7,4
			c0.3,0.8,0.6,1.6,1.1,2.3c1.2,1.6,2.7,2.5,4.7,2.7c2.6,0.3,4.7-0.6,6.3-2.7c0.7-1,1.1-2,1.4-3.1C99.2,48.7,99.3,47,99.3,45.3z
			 M106.5,29.2c0.1,0,0.2,0,0.3,0c4.6,0,9.2,0,13.7,0c2.3,0,4.3,0.9,5.9,2.6c1.1,1.2,1.7,2.6,2,4.1c0.4,2,0.4,4-0.3,6
			c-0.4,1.1-1,2.1-1.9,2.9c-0.4,0.3-0.8,0.5-1.2,0.8c-0.1,0-0.2,0.1-0.3,0.1c0.3,0.2,0.7,0.3,1,0.5c1.1,0.7,1.8,1.7,2,3
			c0.1,0.7,0.2,1.4,0.2,2.1c0,3.1,0,6.2,0,9.4c0,0,0,0.1,0,0.2c-1.9,0-3.7,0-5.6,0c0-0.1,0-0.3,0-0.4c0-2.5,0-5,0-7.5
			c0-0.5-0.1-1.1-0.1-1.6c-0.2-1.6-1.1-2.4-2.7-2.6c-0.4-0.1-0.9-0.1-1.3-0.1c-2,0-4,0-6,0c-0.1,0-0.1,0-0.3,0c0,4.1,0,8.2,0,12.3
			c-1.9,0-3.7,0-5.5,0C106.5,50.3,106.5,39.8,106.5,29.2z M112.1,43.1L112.1,43.1c0.1,0,0.2,0,0.3,0c2.3,0,4.6,0,6.9,0
			c0.4,0,0.9-0.1,1.3-0.1c1.2-0.2,2-0.8,2.5-1.9c0.3-0.6,0.4-1.2,0.4-1.9c0-1.1-0.1-2.1-0.7-3.1c-0.4-0.5-0.8-0.9-1.4-1.1
			c-0.5-0.2-1.1-0.3-1.7-0.3c-2.4,0-4.8,0-7.2,0c-0.1,0-0.2,0-0.3,0C112.1,37.5,112.1,40.3,112.1,43.1z M130.1,29.2
			c6.7,0,13.3,0,20,0c0,1.8,0,3.6,0,5.5c-4.8,0-9.6,0-14.5,0c0,2.3,0,4.5,0,6.7c1.1,0,2.2,0,3.3,0s2.2,0,3.3,0s2.2,0,3.4,0
			c1.1,0,2.2,0,3.3,0c0.1,0.3,0.1,4.9,0,5.6c-4.4,0-8.9,0-13.3,0c0,2.7,0,5.4,0,8.1c5,0,10.1,0,15.1,0c0,1.9,0,3.7,0,5.6
			c-6.9,0-13.8,0-20.7,0C130.1,50.3,130.1,39.8,130.1,29.2z M70.4,29.2c0,1.8,0,3.6,0,5.5c-4.6,0-9.1,0-13.7,0c0,2.4,0,4.8,0,7.2
			c4,0,8,0,12,0c0,1.9,0,3.7,0,5.6c-4,0-8,0-12,0c0,4.5,0,8.9,0,13.3c-1.9,0-3.8,0-5.7,0c0-10.5,0-21,0-31.5
			C51.3,29.2,69.2,29.1,70.4,29.2z M164.8,60.8c-1.9,0-3.8,0-5.7,0c0-8.7,0-17.3,0-26c-2.7,0-5.4,0-8.1,0c-0.1-0.3-0.1-4.9,0-5.5
			c7.4,0,14.7,0,22.1,0c0,1.8,0,3.6,0,5.5c-2.7,0-5.5,0-8.2,0C164.8,43.4,164.8,52.1,164.8,60.8z M187.7,60.8c-1.9,0-3.8,0-5.7,0
			c0-8.7,0-17.3,0-26c-2.7,0-5.5,0-8.1,0c-0.1-0.3-0.1-4.9,0-5.5c7.4,0,14.7,0,22.1,0c0,1.8,0,3.6,0,5.5c-2.7,0-5.5,0-8.2,0
			C187.7,43.4,187.7,52.1,187.7,60.8z M77.2,60.8c-1.9,0-3.8,0-5.7,0c0-10.5,0-21,0-31.5c1.9,0,3.7,0,5.7,0
			C77.2,39.7,77.2,50.2,77.2,60.8z"/>
		<path class="st23" d="M53.8,73.9c-0.7,0-1.3-0.1-2-0.3c-0.6-0.2-1.1-0.5-1.5-0.8l0.5-1c0.4,0.3,0.8,0.6,1.3,0.8
			c0.5,0.2,1.1,0.3,1.7,0.3c0.8,0,1.3-0.1,1.7-0.4s0.6-0.6,0.6-1c0-0.3-0.1-0.6-0.3-0.8c-0.2-0.2-0.4-0.3-0.7-0.4s-0.7-0.2-1.3-0.4
			c-0.7-0.2-1.2-0.3-1.7-0.5c-0.4-0.2-0.8-0.4-1.1-0.8c-0.3-0.3-0.4-0.8-0.4-1.4c0-0.5,0.1-0.9,0.4-1.3c0.3-0.4,0.7-0.7,1.2-1
			c0.5-0.2,1.2-0.4,1.9-0.4c0.5,0,1.1,0.1,1.6,0.2s1,0.4,1.3,0.6l-0.4,1c-0.4-0.2-0.8-0.4-1.2-0.6c-0.4-0.1-0.9-0.2-1.3-0.2
			c-0.7,0-1.3,0.1-1.7,0.4s-0.6,0.6-0.6,1c0,0.3,0.1,0.6,0.3,0.8c0.2,0.2,0.5,0.4,0.8,0.4c0.3,0.1,0.7,0.2,1.2,0.4
			c0.7,0.2,1.2,0.3,1.7,0.5c0.4,0.2,0.8,0.4,1.1,0.8c0.3,0.3,0.5,0.8,0.5,1.4c0,0.5-0.1,0.9-0.4,1.3c-0.3,0.4-0.7,0.7-1.2,0.9
			C55.2,73.8,54.6,73.9,53.8,73.9z M80.7,70.6v3.2h-1.3v-3.2l-3.6-6h1.4l2.9,4.8l2.9-4.8h1.3L80.7,70.6z M106.2,73.9
			c-0.7,0-1.3-0.1-2-0.3c-0.6-0.2-1.1-0.5-1.5-0.8l0.5-1c0.4,0.3,0.8,0.6,1.3,0.8c0.5,0.2,1.1,0.3,1.7,0.3c0.8,0,1.3-0.1,1.7-0.4
			c0.4-0.3,0.6-0.6,0.6-1c0-0.3-0.1-0.6-0.3-0.8c-0.2-0.2-0.4-0.3-0.8-0.4c-0.3-0.1-0.7-0.2-1.3-0.4c-0.7-0.2-1.2-0.3-1.7-0.5
			c-0.4-0.2-0.8-0.4-1.1-0.8c-0.3-0.3-0.4-0.8-0.4-1.4c0-0.5,0.1-0.9,0.4-1.3c0.2-0.4,0.6-0.7,1.2-1c0.5-0.2,1.2-0.4,1.9-0.4
			c0.5,0,1.1,0.1,1.6,0.2s1,0.4,1.3,0.6l-0.4,1c-0.4-0.2-0.8-0.4-1.2-0.6c-0.4-0.1-0.9-0.2-1.3-0.2c-0.7,0-1.3,0.1-1.7,0.4
			c-0.4,0.3-0.6,0.6-0.6,1c0,0.3,0.1,0.6,0.3,0.8c0.2,0.2,0.5,0.4,0.8,0.4c0.3,0.1,0.7,0.2,1.3,0.4c0.7,0.2,1.2,0.3,1.7,0.5
			c0.4,0.2,0.8,0.4,1.1,0.8c0.3,0.3,0.5,0.8,0.5,1.4c0,0.5-0.1,0.9-0.4,1.3s-0.7,0.7-1.2,0.9C107.7,73.8,107,73.9,106.2,73.9z
			 M131.5,65.8h-3.1v-1.1h7.6v1.1h-3.1v8h-1.3L131.5,65.8L131.5,65.8z M162.2,72.7v1.1h-6.6v-9.2h6.5v1.1h-5.2v2.8h4.6v1.1h-4.6v2.9
			h5.3V72.7z M190.9,73.8v-6.7l-3.3,5.6H187l-3.3-5.5v6.6h-1.2v-9.2h1.1l3.8,6.4l3.8-6.4h1.1v9.2H190.9z M215.7,73.9
			c-0.7,0-1.4-0.1-2-0.3c-0.6-0.2-1.1-0.5-1.5-0.8l0.5-1c0.4,0.3,0.8,0.6,1.3,0.8c0.6,0.2,1.1,0.3,1.7,0.3c0.7,0,1.3-0.1,1.7-0.4
			s0.6-0.6,0.6-1c0-0.3-0.1-0.6-0.3-0.8c-0.2-0.2-0.5-0.3-0.8-0.4s-0.7-0.2-1.3-0.4c-0.7-0.2-1.2-0.3-1.7-0.5
			c-0.4-0.2-0.8-0.4-1.1-0.8c-0.3-0.3-0.4-0.8-0.4-1.4c0-0.5,0.1-0.9,0.4-1.3c0.3-0.4,0.7-0.7,1.2-1c0.5-0.2,1.2-0.4,1.9-0.4
			c0.5,0,1.1,0.1,1.6,0.2s1,0.4,1.3,0.6l-0.4,1c-0.4-0.2-0.8-0.4-1.2-0.6c-0.4-0.1-0.9-0.2-1.3-0.2c-0.7,0-1.3,0.1-1.7,0.4
			s-0.6,0.6-0.6,1c0,0.3,0.1,0.6,0.3,0.8c0.2,0.2,0.5,0.4,0.8,0.4c0.3,0.1,0.7,0.2,1.2,0.4c0.7,0.2,1.2,0.3,1.7,0.5
			c0.4,0.2,0.8,0.4,1.1,0.8c0.3,0.3,0.4,0.8,0.4,1.4c0,0.5-0.1,0.9-0.4,1.3c-0.3,0.4-0.7,0.7-1.2,0.9
			C217.1,73.8,216.5,73.9,215.7,73.9z"/>
		<path class="st7" d="M15.7,27.9h6.8h22.3L39.1,36H22.8v10.2h8.6v8.1h-8.6v19.2h-7.1V36C15.7,36,15.7,27.9,15.7,27.9z M7.3,27.9
			H-15l5.8,8.1H7v10.2h-8.6v8.1H7v12l7.1,7.2V36v-8.1H7.3z"/>
	</g>
</g>
<g id="Layer_7" class="st0">
</g>
</svg>
