<?xml version="1.0" encoding="utf-8"?>
<!-- Generator: Adobe Illustrator 23.0.1, SVG Export Plug-In . SVG Version: 6.00 Build 0)  -->
<!DOCTYPE svg PUBLIC "-//W3C//DTD SVG 1.1//EN" "http://www.w3.org/Graphics/SVG/1.1/DTD/svg11.dtd" [
	<!ENTITY ns_extend "http://ns.adobe.com/Extensibility/1.0/">
	<!ENTITY ns_ai "http://ns.adobe.com/AdobeIllustrator/10.0/">
	<!ENTITY ns_graphs "http://ns.adobe.com/Graphs/1.0/">
	<!ENTITY ns_vars "http://ns.adobe.com/Variables/1.0/">
	<!ENTITY ns_imrep "http://ns.adobe.com/ImageReplacement/1.0/">
	<!ENTITY ns_sfw "http://ns.adobe.com/SaveForWeb/1.0/">
	<!ENTITY ns_custom "http://ns.adobe.com/GenericCustomNamespace/1.0/">
	<!ENTITY ns_adobe_xpath "http://ns.adobe.com/XPath/1.0/">
]>
<svg version="1.1" xmlns:x="&ns_extend;" xmlns:i="&ns_ai;" xmlns:graph="&ns_graphs;"
	 xmlns="http://www.w3.org/2000/svg" xmlns:xlink="http://www.w3.org/1999/xlink" x="0px" y="0px" viewBox="0 0 500 227"
	 style="enable-background:new 0 0 500 227;" xml:space="preserve">
<style type="text/css">
	.st0{display:none;}
	.st1{display:inline;}
	.st2{fill-rule:evenodd;clip-rule:evenodd;fill:#FFFFFF;}
	.st3{fill:#184297;}
	.st4{fill:#00ADEF;}
</style>
<metadata>
	<sfw  xmlns="&ns_sfw;">
		<slices></slices>
		<sliceSourceBounds  bottomLeftOrigin="true" height="227.5" width="16383" x="-7941" y="-0.5"></sliceSourceBounds>
	</sfw>
</metadata>
<g id="Layer_1" class="st0">
	<g class="st1">
		<path class="st2" d="M482,227.5H18c-9.9,0-18-8.1-18-18V18C0,8.1,8.1,0,18,0h464c9.9,0,18,8.1,18,18v191.5
			C500,219.5,491.9,227.5,482,227.5z"/>
	</g>
	<g class="st1">
		<path class="st3" d="M61.1,172.7h-6.2v13.6h-4.2v-32.5h10.4c7.6,0,11.2,4.2,11.2,9.5C72.2,168.2,69.1,172.7,61.1,172.7z
			 M61.1,169.2c4.8,0,6.9-2.3,6.9-5.9c0-3.8-2-6-6.9-6h-6.2v11.9H61.1z"/>
		<path class="st3" d="M87.9,153.8c7.6,0,11.2,4.2,11.2,9.6c0,4.1-2.3,8.1-7.7,9.3l8.1,13.6h-5L86.8,173h-5.1v13.3h-4.2v-32.5H87.9z
			 M87.9,157.3h-6.2v12.3h6.2c4.8,0,6.9-2.6,6.9-6.2C94.8,159.7,92.7,157.3,87.9,157.3z"/>
		<path class="st3" d="M120.3,186.6c-9.1,0-16.2-6.9-16.2-16.6c0-9.7,7.1-16.6,16.2-16.6c9.1,0,16.2,6.9,16.2,16.6
			C136.5,179.7,129.4,186.6,120.3,186.6z M120.3,182.9c6.8,0,11.9-5,11.9-12.9c0-8-5.1-12.9-11.9-12.9c-6.8,0-11.9,4.9-11.9,12.9
			C108.4,177.9,113.5,182.9,120.3,182.9z"/>
		<path class="st3" d="M169.2,170.1c0,10.1-6.5,16.2-17.1,16.2h-10.1v-32.5h10.1C162.7,153.8,169.2,160,169.2,170.1z M152.1,182.8
			c8.4,0,12.8-4.8,12.8-12.7s-4.4-12.9-12.8-12.9h-5.8v25.5H152.1z"/>
		<path class="st3" d="M174.7,153.8h4.2v20.6c0,6,3.2,8.5,8,8.5c4.8,0,7.9-2.6,7.9-8.5v-20.6h4.2v20.5c0,8.4-5.5,12.3-12.2,12.3
			c-6.7,0-12.1-3.9-12.1-12.3V153.8z"/>
		<path class="st3" d="M210.3,171.4v14.8h-4.2v-32.5h4.2v15.1l13.3-15.1h5.3L214.3,170l14.8,16.2h-5.5L210.3,171.4z"/>
		<path class="st3" d="M231.8,153.8h21.9v3.4h-8.8v29h-4.2v-29h-8.8V153.8z"/>
		<path class="st3" d="M269.3,172.7h-6.2v13.6h-4.2v-32.5h10.4c7.6,0,11.2,4.2,11.2,9.5C280.5,168.2,277.3,172.7,269.3,172.7z
			 M269.3,169.2c4.8,0,6.9-2.3,6.9-5.9c0-3.8-2-6-6.9-6h-6.2v11.9H269.3z"/>
		<path class="st3" d="M304.8,179h-14.1l-2.6,7.2h-4.4l11.7-32.3h4.9l11.6,32.3h-4.4L304.8,179z M297.8,159.2l-5.8,16.4h11.7
			L297.8,159.2z"/>
		<path class="st3" d="M327.4,153.8c7.6,0,11.2,4.2,11.2,9.6c0,4.1-2.3,8.1-7.7,9.3l8.1,13.6h-5.1l-7.7-13.3h-5.1v13.3h-4.2v-32.5
			H327.4z M327.4,157.3h-6.2v12.3h6.2c4.8,0,6.9-2.6,6.9-6.2C334.2,159.7,332.2,157.3,327.4,157.3z"/>
		<path class="st3" d="M343.1,153.8H365v3.4h-8.8v29H352v-29h-8.8V153.8z"/>
		<path class="st3" d="M395.6,153.7v32.5h-4.2l-17-25.9v25.9h-4.2v-32.5h4.2l17,25.8v-25.8H395.6z"/>
		<path class="st3" d="M420.1,157.2H407v10.9h11.8v3.5H407v11.2h13.2v3.5h-17.4v-32.5h17.4V157.2z"/>
		<path class="st3" d="M436.9,153.8c7.6,0,11.2,4.2,11.2,9.6c0,4.1-2.3,8.1-7.7,9.3l8.1,13.6h-5.1l-7.7-13.3h-5.1v13.3h-4.2v-32.5
			H436.9z M436.9,157.3h-6.2v12.3h6.2c4.8,0,6.9-2.6,6.9-6.2C443.8,159.7,441.7,157.3,436.9,157.3z"/>
	</g>
</g>
<g id="Layer_2">
	<g>
		<path class="st3" d="M115.7,156.2h5.1l6,24.7l6.6-24.7h5.4l6.1,24.6l6.1-24.6h5.1l-8.7,30.3H142l-6.1-22.9l-6.5,22.9l-5.4,0
			L115.7,156.2z"/>
		<path class="st3" d="M160,156.2h4.8v30.3H160V156.2z"/>
		<path class="st3" d="M175.9,156.2v26.3h9.9v4h-14.7v-30.3H175.9z"/>
		<path class="st3" d="M194.5,156.2v26.3h9.9v4h-14.7v-30.3H194.5z"/>
		<path class="st3" d="M213.2,172.9v13.6h-4.8v-30.3h4.8V170l11.3-13.8h6l-12.7,15.2l12.9,15.1h-6.3L213.2,172.9z"/>
		<path class="st3" d="M234.9,156.2h4.8v19.3c0,4.7,2.6,6.9,6.6,6.9c4.1,0,6.6-2.2,6.6-6.9v-19.3h4.8v19.2c0,7.7-5.4,11.4-11.5,11.4
			c-6.1,0-11.3-3.7-11.3-11.4V156.2z M240.2,150.5c0-1.4,1.1-2.6,2.5-2.6c1.4,0,2.5,1.2,2.5,2.6c0,1.5-1.1,2.6-2.5,2.6
			C241.3,153.1,240.2,152,240.2,150.5z M247.4,150.5c0-1.4,1.1-2.6,2.5-2.6c1.4,0,2.5,1.2,2.5,2.6c0,1.5-1.1,2.6-2.5,2.6
			C248.5,153.1,247.4,152,247.4,150.5z"/>
		<path class="st3" d="M274,156.2c6.9,0,10.3,4.1,10.3,9.1c0,3.6-1.8,7.4-6.8,8.7l7.2,12.6h-5.7l-6.7-12.1h-3.7v12.1H264v-30.3H274z
			 M274,160.2h-5.3v10.2h5.3c3.7,0,5.4-2.1,5.4-5.1C279.5,162.2,277.8,160.2,274,160.2z"/>
		<path class="st3" d="M295.3,156.2v26.3h9.9v4h-14.7v-30.3H295.3z"/>
		<path class="st3" d="M309.2,156.2h4.8v30.3h-4.8V156.2z"/>
		<path class="st3" d="M333.6,155.8c6.1,0,11.3,3.2,13.6,9.1h-5.8c-1.6-3.2-4.3-4.8-7.8-4.8c-5.8,0-10,4.3-10,11.1s4.2,11.2,10,11.2
			c3.5,0,6.3-1.5,7.8-4.8h5.8c-2.2,5.9-7.5,9.1-13.6,9.1c-8.2,0-14.9-6.4-14.9-15.5C318.7,162.2,325.3,155.8,333.6,155.8z"/>
		<path class="st3" d="M371.2,173.2h-13.7v13.3h-4.8v-30.3h4.8v13h13.7v-13h4.8v30.3h-4.8V173.2z"/>
	</g>
	<g>
		<path class="st4" d="M301.3,37.9c-2.2-2-4.4-3.9-6.5-6.1c-3-3.1-3.1-6.8-0.3-9.5c2.6-2.6,6.5-2.4,9.5,0.6
			c5.7,5.7,11.4,11.5,17,17.3c3.2,3.4,3.1,6.7-0.2,10.1c-5.6,5.7-11.2,11.3-16.9,16.9c-3.4,3.3-7,3.5-9.8,0.7
			c-2.6-2.7-2.4-6.3,0.7-9.5c1.9-2,4-3.9,6.7-6.5c-8.9,0-16.7-0.3-24.6,0.1c-3.8,0.2-6.6,3-9.1,5.9c-15.6,18.2-31.4,36.3-46.9,54.6
			c-6.8,8.1-15.1,12.3-25.8,11.9c-6.8-0.3-13.7,0-20.6-0.1c-4.6,0-7.5-2.5-7.5-6.3c0-3.9,2.8-6.4,7.4-6.4c7-0.1,14-0.2,21,0
			c6.3,0.2,11.3-2.1,15.4-7c15.5-18.3,31.3-36.4,46.8-54.7c6.5-7.6,14.4-11.5,24.4-11.3c6.2,0.1,12.3,0,18.5,0
			C300.9,38.5,301.1,38.2,301.3,37.9z"/>
		<path class="st3" d="M301.2,110.5c-2.2-2-4.4-4-6.5-6.1c-2.8-3-2.9-6.5-0.4-9.2c2.6-2.8,6.4-2.8,9.5,0.2c6,6,11.9,12.1,17.8,18.3
			c2.7,2.8,2.7,6.1,0,8.9c-6,6.2-12.1,12.3-18.3,18.3c-2.7,2.6-6.5,2.3-8.9-0.1c-2.4-2.5-2.5-6.1,0-8.9c2.2-2.4,4.6-4.5,7.6-7.5
			c-7.6,0-14.1,0-20.6,0c-9.2,0.1-16.8-3.3-22.8-10.3c-3.9-4.6-7.8-9.2-11.9-13.6c-1.9-2-1.7-3.3,0.1-5.1c2.2-2.2,4.1-4.7,6.3-7.3
			c5,5.7,9.9,11.3,14.7,16.9c3.7,4.4,8.2,6.6,14,6.4c6.3-0.2,12.6,0,18.9,0C300.8,111.1,301,110.8,301.2,110.5z"/>
		<path class="st3" d="M224.9,75.1c-5-5.9-9.8-11.3-14.4-16.9c-3.7-4.6-8.4-6.8-14.3-6.6c-7,0.2-14,0.1-21,0c-5.2,0-8.2-2.6-8.1-6.6
			c0.1-3.9,3-6.2,8-6.3c7.4,0,14.8,0,22.2,0c8.7,0,16,3.3,21.7,9.8c4.3,4.8,8.3,9.9,12.6,14.7c1.4,1.6,1.4,2.6,0,4.1
			C229.3,69.6,227.3,72.2,224.9,75.1z"/>
	</g>
</g>
</svg>
